<svg viewBox="0 0 882 1000" xmlns="http://www.w3.org/2000/svg">
<path d="M441 3.05176e-05C423.888 3.05176e-05 407.166 5.23223 393.106 14.9862L38.5443 261.71L38.4616 261.772C26.6773 270.126 17.0943 281.202 10.515 294.059C3.9359 306.918 0.557805 321.183 0.675842 335.628V871.822V871.843C0.713092 905.815 14.2335 938.399 38.2549 962.421C62.2766 986.441 94.881 999.963 128.854 1000H267.223C275.168 1000 282.827 996.839 288.451 991.215C294.075 985.591 297.236 977.953 297.236 970.007V657.261C297.236 571.938 362.227 503.969 441.02 503.969C519.82 503.969 584.805 571.894 584.805 657.261V970.007C584.805 977.959 587.969 985.594 593.59 991.215C599.21 996.835 606.854 1000 614.798 1000H753.125H753.146H753.229V999.978C787.17 999.918 819.744 986.42 843.745 962.42C867.767 938.398 881.287 905.814 881.324 871.841V871.82V335.626C881.442 321.183 878.064 306.918 871.485 294.058C864.905 281.2 855.301 270.125 843.518 261.771L843.455 261.708L488.893 14.9862H488.872C474.813 5.23223 458.112 3.05176e-05 441 3.05176e-05ZM441 59.9859C445.887 59.9859 450.646 61.4813 454.663 64.2647L808.997 310.782C812.884 313.557 816.033 317.211 818.196 321.468C820.358 325.726 821.451 330.46 821.4 335.235V335.339V871.822C821.374 889.906 814.199 907.218 801.411 920.005C788.624 932.792 771.311 939.969 753.228 939.993H644.811L644.79 657.262C644.79 540.426 553.779 443.962 440.999 443.962C328.221 443.962 237.208 540.426 237.208 657.262V939.993H128.895H128.874C110.791 939.968 93.479 932.792 80.6916 920.005C67.8997 907.213 60.7023 889.892 60.6825 871.801V335.338V335.235C60.6312 330.46 61.745 325.724 63.9071 321.468C66.0707 317.209 69.2193 313.556 73.1055 310.782L427.337 64.2647C431.353 61.4813 436.114 59.9859 441 59.9859Z" fill="black"/>
</svg>
