<?xml version="1.0" encoding="UTF-8" standalone="no"?>
<svg
   width="1000"
   height="1000"
   viewBox="0 0 1000 1000"
   fill="none"
   version="1.1"
   id="svg134"
   sodipodi:docname="accueil.svg"
   inkscape:version="1.2.1 (9c6d41e, 2022-07-14)"
   xmlns:inkscape="http://www.inkscape.org/namespaces/inkscape"
   xmlns:sodipodi="http://sodipodi.sourceforge.net/DTD/sodipodi-0.dtd"
   xmlns="http://www.w3.org/2000/svg"
   xmlns:svg="http://www.w3.org/2000/svg">
  <sodipodi:namedview
     id="namedview135"
     pagecolor="#ffffff"
     bordercolor="#111111"
     borderopacity="1"
     inkscape:showpageshadow="0"
     inkscape:pageopacity="0"
     inkscape:pagecheckerboard="1"
     inkscape:deskcolor="#d1d1d1"
     showgrid="false"
     inkscape:zoom="0.11298851"
     inkscape:cx="-1256.7649"
     inkscape:cy="181.43438"
     inkscape:window-width="1309"
     inkscape:window-height="791"
     inkscape:window-x="305"
     inkscape:window-y="1170"
     inkscape:window-maximized="0"
     inkscape:current-layer="svg134" />
  <defs
     id="defs138" />
  <path
     id="path1552"
     style="color:#000000;fill:#000000;stroke-width:4.89252;stroke-miterlimit:10;stroke-dasharray:none"
     d="m 499.99984,3e-5 c -17.11188,0 -33.83354,5.2322043 -47.89365,14.986143 L 97.544375,261.70978 l -0.08266,0.0624 c -11.784276,8.35391 -21.367369,19.42941 -27.946602,32.28697 -6.579118,12.859 -9.957215,27.12423 -9.839178,41.56847 v 536.19387 0.0211 c 0.03725,33.97241 13.557677,66.55644 37.579046,90.57832 24.021709,24.02051 56.626119,37.54237 90.598979,37.57906 h 138.36862 c 7.9455,0 15.60494,-3.16125 21.22864,-8.78492 5.62371,-5.62376 8.78499,-13.26255 8.78499,-21.20805 V 657.26129 c 0,-85.32359 64.99085,-153.29275 143.78429,-153.29275 78.79951,0 143.7843,67.92542 143.7843,153.29275 v 312.7453 c 0,7.95188 3.16446,15.5875 8.78498,21.20794 5.62054,5.62053 13.26396,8.78501 21.20798,8.78501 h 138.32727 0.0211 0.0826 v -0.0215 c 33.94158,-0.0597 66.51584,-13.55796 90.5163,-37.55839 24.02176,-24.02177 37.54229,-56.60545 37.57905,-90.57832 v -0.0211 -536.19387 c 0.11779,-14.44302 -3.25968,-28.70871 -9.83918,-41.56846 -6.57934,-12.85803 -16.18354,-23.93281 -27.96726,-32.28739 l -0.0624,-0.0624 L 547.89349,14.986173 h -0.0211 C 533.81322,5.2322343 517.11241,3e-5 499.99984,3e-5 Z m 0,59.985916 c 4.88762,0 9.64646,1.495348 13.66323,4.278801 L 867.99752,310.78163 c 3.88708,2.77526 7.03554,6.42892 9.19839,10.68668 2.16251,4.25771 3.25518,8.99212 3.20393,13.76658 v 0.10372 536.48327 c -0.0254,18.08408 -7.2009,35.39633 -19.98841,48.18304 -12.78739,12.78737 -30.10019,19.96355 -48.18304,19.9884 h -108.417 l -0.0211,-282.73167 c 0,-116.83608 -91.0117,-213.29934 -203.79088,-213.29934 -112.77827,0 -203.79089,96.46326 -203.79089,213.29934 v 282.73167 h -108.31365 -0.0211 c -18.08222,-0.0255 -35.39471,-7.20139 -48.1821,-19.98876 -12.79188,-12.79187 -19.98928,-30.11296 -20.00909,-48.20371 v -536.46261 -0.10371 c -0.0513,-4.77502 1.06254,-9.5106 3.22462,-13.76622 2.16358,-4.25921 5.31217,-7.91203 9.19838,-10.68668 L 486.33661,64.264747 c 4.01679,-2.783453 8.77716,-4.278803 13.66323,-4.278801 z" />
</svg>
