<svg viewBox="0 0 832 1000" xmlns="http://www.w3.org/2000/svg">
<path d="M539.367 631.004V631.067C534.795 631.072 530.413 632.907 527.181 636.139C523.944 639.376 522.109 643.767 522.109 648.345V794.141C522.095 808.476 516.408 822.21 506.273 832.348C496.144 842.481 482.415 848.18 468.087 848.204H193.897H193.876C179.547 848.18 165.802 842.481 155.669 832.348C145.532 822.211 139.832 808.478 139.814 794.141C139.808 789.57 137.994 785.167 134.762 781.935C131.525 778.698 127.134 776.883 122.556 776.883C117.977 776.883 113.565 778.698 110.329 781.935C107.092 785.172 105.277 789.583 105.277 794.162C105.319 817.641 114.675 840.159 131.277 856.761C147.88 873.364 170.377 882.72 193.856 882.761H193.877H468.087C491.566 882.719 514.084 873.364 530.686 856.761C547.29 840.159 556.645 817.641 556.687 794.162V648.283C556.687 646.011 556.239 643.764 555.367 641.664C554.496 639.563 553.222 637.66 551.614 636.056C550.005 634.449 548.084 633.169 545.985 632.303C543.89 631.44 541.643 630.999 539.367 631.004ZM539.388 638.922L539.409 646.84C539.594 646.839 539.785 646.889 539.966 646.963C540.141 647.035 540.287 647.12 540.419 647.252V647.273C540.553 647.407 540.658 647.556 540.729 647.727H540.75C540.821 647.899 540.853 648.094 540.853 648.284V794.141C540.819 813.437 533.136 831.922 519.492 845.565C505.854 859.204 487.377 866.886 468.089 866.926H193.897H193.876C174.588 866.886 156.112 859.204 142.473 845.565C128.83 831.922 121.147 813.437 121.112 794.141C121.117 793.766 121.257 793.399 121.525 793.131C121.797 792.859 122.171 792.719 122.556 792.719C122.939 792.719 123.293 792.859 123.566 793.131C123.838 793.404 123.978 793.779 123.978 794.162C124.002 812.685 131.375 830.446 144.473 843.544C157.571 856.642 175.353 864.016 193.876 864.04H468.087C486.609 864.015 504.374 856.643 517.469 843.544C530.564 830.445 537.926 812.684 537.943 794.162V648.345C537.943 647.962 538.104 647.608 538.377 647.335C538.649 647.063 539.004 646.902 539.387 646.902L539.388 638.922ZM539.389 638.988C536.908 638.988 534.529 639.974 532.774 641.728C531.02 643.483 530.034 645.862 530.034 648.343V794.153C530.018 810.582 523.486 826.332 511.872 837.951C500.257 849.569 484.509 856.105 468.081 856.127H193.879C177.449 856.105 161.698 849.57 150.081 837.952C138.463 826.334 131.927 810.583 131.906 794.153C131.906 791.673 130.92 789.293 129.165 787.539C127.411 785.784 125.031 784.798 122.55 784.798C120.068 784.798 117.689 785.784 115.934 787.539C114.18 789.293 113.194 791.673 113.194 794.153C113.232 815.541 121.745 836.042 136.868 851.165C151.99 866.289 172.492 874.801 193.879 874.839H468.081C489.468 874.801 509.969 866.289 525.092 851.165C540.216 836.042 548.728 815.541 548.766 794.153V648.283C548.766 647.052 548.523 645.834 548.051 644.698C547.58 643.562 546.889 642.529 546.018 641.661C545.147 640.791 544.114 640.102 542.977 639.634C541.839 639.165 540.62 638.924 539.389 638.927M149.484 0.334861C130.099 1.59085 110.953 6.39029 93.0092 14.6444C57.1195 31.1524 28.5986 60.3667 12.9667 96.6456C-2.42837 132.375 -4.11801 172.435 7.91506 209.39V848.987C7.95962 889.02 23.8967 927.403 52.2044 955.711C80.5131 984.019 118.895 999.954 158.928 1000H501.284H501.305C537.822 999.877 573.08 986.559 600.564 962.515C626.213 940.076 642.431 909.338 648.668 875.977H710.421C742.565 875.944 773.384 863.138 796.113 840.41C818.842 817.681 831.647 786.861 831.681 754.718V419.001C831.642 386.863 818.842 356.033 796.113 333.309C773.385 310.584 742.561 297.796 710.421 297.762H652.297V220.73V220.709C657.281 207.675 660.387 193.96 660.379 179.987C660.351 156.761 653.302 134.092 640.172 114.935C627.525 96.4832 609.631 82.4263 588.996 73.8824C575.29 55.2818 557.745 39.8426 537.325 28.9951C516.303 17.8284 492.975 11.6733 469.18 11.0154C445.386 10.3575 421.755 15.2131 400.148 25.2012C379.776 34.6188 362.006 48.6482 347.508 65.7379C329.178 64.2468 310.912 66.9283 293.651 73.2226C273.364 41.9223 243.08 18.344 207.341 7.22157C188.481 1.35211 168.869 -0.921127 149.484 0.334861ZM150.515 16.1495C167.98 15.018 185.646 17.067 202.64 22.3558C236.628 32.9334 265.485 55.716 283.672 86.3156L287.218 92.2538L293.569 89.5528C311.326 82.0231 330.738 79.2093 349.9 81.4083L354.23 81.9238L356.972 78.5216C370.357 61.8727 387.418 48.5361 406.808 39.5726C426.198 30.6091 447.394 26.2603 468.747 26.8507C490.101 27.4411 511.016 32.9534 529.882 42.9747C548.747 52.996 565.047 67.2413 577.491 84.6042L578.852 86.5218L581.058 87.3878C599.738 94.6401 615.791 107.354 627.121 123.883C638.449 140.412 644.519 159.97 644.544 180.008C644.551 192.939 642.006 205.732 637.059 217.678L636.461 219.142V313.597H710.421C738.366 313.632 765.155 324.746 784.917 344.505C804.684 364.268 815.811 391.05 815.845 419.001V754.697C815.816 782.652 804.684 809.447 784.917 829.214C765.149 848.981 738.356 860.113 710.4 860.142H636.152L635.203 866.967C630.748 899.367 614.745 929.063 590.13 950.597C565.516 972.131 533.947 984.055 501.242 984.165H158.948C123.103 984.124 88.7481 969.862 63.4005 944.515C38.054 919.168 23.7903 884.812 23.7504 848.967V207.287L23.338 206.049C11.938 172.328 13.4173 135.584 27.503 102.893C41.5886 70.2029 67.2885 43.8907 99.6278 29.0157C115.797 21.5782 133.051 17.2811 150.515 16.1495H150.515ZM159.773 18.5826C138.188 18.5958 116.896 23.5527 97.5247 33.0776C78.1537 42.6025 61.2303 56.4244 48.0394 73.5113C34.8485 90.5981 25.7522 110.484 21.441 131.636C17.1309 152.787 17.7211 174.648 23.173 195.534L24.7194 201.451H246.785C246.955 201.451 247.123 201.49 247.28 201.555H247.301L247.342 201.576C247.589 201.675 247.783 201.833 247.94 202.05C248.094 202.264 248.192 202.527 248.208 202.792V202.834V202.875C248.737 210.262 250.913 217.443 254.558 223.885C258.192 230.303 263.213 235.822 269.239 240.071C269.244 240.075 269.255 240.068 269.26 240.071C278.949 247.02 290.575 250.745 302.498 250.69C330.875 250.67 355.055 229.988 356.746 202.854C356.769 202.486 356.932 202.157 357.2 201.906C357.47 201.652 357.803 201.514 358.169 201.514H386.479C386.848 201.513 387.2 201.65 387.468 201.906C387.739 202.164 387.885 202.526 387.901 202.895H387.922C389.411 234.711 413.297 260.532 444.563 267.742C456.437 270.459 468.792 270.459 480.666 267.742C511.982 260.536 535.896 234.712 537.327 202.895V202.874C537.348 202.51 537.495 202.158 537.76 201.905C538.031 201.646 538.378 201.513 538.75 201.513H639.576L640.607 194.812C644.028 172.612 639.605 149.91 628.09 130.626C616.583 111.353 598.699 96.684 577.553 89.161L577.512 89.1404C577.233 89.031 576.991 88.8443 576.811 88.6043L576.789 88.5837C576.784 88.5758 576.775 88.5712 576.768 88.5631C564.553 70.7857 548.276 56.171 529.284 45.9438C510.275 35.7072 489.097 30.1631 467.51 29.758C445.923 29.3529 424.559 34.0975 405.179 43.6139C385.798 53.13 368.965 67.1315 356.085 84.4599C355.93 84.6686 355.732 84.8353 355.488 84.9341C355.24 85.0341 354.979 85.0582 354.725 85.0166H354.703C348.949 84.0902 343.128 83.6167 337.302 83.6145H337.281C319.894 83.5677 302.766 87.7319 287.342 95.759C287.178 95.8405 287.007 95.8884 286.826 95.9034H286.805C286.615 95.9192 286.429 95.8993 286.248 95.8415C286.069 95.7841 285.9 95.6976 285.754 95.5735C285.609 95.4506 285.49 95.3039 285.403 95.1405V95.1199C273.558 72.0209 255.55 52.6484 233.383 39.1396C211.21 25.6278 185.738 18.5188 159.773 18.5826H159.773ZM159.794 34.4179H159.815C182.861 34.3613 205.457 40.6729 225.136 52.6656C244.815 64.6581 260.808 81.849 271.322 102.357V102.378C272.363 104.398 273.799 106.191 275.529 107.656C277.261 109.122 279.259 110.242 281.426 110.934C283.591 111.628 285.863 111.886 288.127 111.697C290.395 111.51 292.603 110.861 294.622 109.821H294.643C307.802 102.972 322.428 99.407 337.262 99.4497H337.283C342.277 99.4507 347.262 99.8523 352.191 100.646C355.305 101.15 358.508 100.794 361.428 99.6147C364.355 98.4297 366.9 96.4599 368.789 93.9239C380.165 78.6176 395.032 66.2464 412.15 57.8408C429.268 49.4352 448.156 45.2354 467.223 45.5932C486.291 45.951 504.99 50.8402 521.781 59.8821C538.572 68.9239 552.967 81.8514 563.761 97.5734L563.782 97.594V97.6146C565.846 100.575 568.798 102.823 572.195 104.048V104.068H572.216C589.912 110.354 604.858 122.604 614.484 138.729C622.946 152.899 625.94 169.32 624.814 185.678H538.772C534.323 185.672 530.048 187.393 526.833 190.461C523.617 193.531 521.694 197.731 521.493 202.173C520.408 226.479 502.175 246.532 477.121 252.297C467.572 254.483 457.66 254.483 448.111 252.297C423.128 246.537 404.886 226.48 403.739 202.173V202.152C403.533 197.715 401.609 193.525 398.398 190.461C395.183 187.389 390.909 185.671 386.46 185.677H358.171C353.778 185.677 349.555 187.353 346.356 190.358C343.155 193.364 341.208 197.48 340.934 201.863V201.884C339.797 220.121 323.246 234.854 302.459 234.854H302.438C293.845 234.894 285.46 232.236 278.479 227.225L278.437 227.184L278.416 227.163C274.279 224.257 270.824 220.468 268.334 216.07C265.858 211.695 264.396 206.832 264.024 201.822L264.003 201.74C263.79 198.512 262.682 195.415 260.787 192.791V192.77C258.88 190.132 256.26 188.107 253.24 186.893C251.189 186.06 248.999 185.615 246.786 185.615H37.6475C34.1222 168.865 33.5199 151.626 36.9464 134.811C40.7746 116.029 48.863 98.3741 60.5757 83.2021C72.2884 68.03 87.3144 55.7415 104.515 47.284C121.715 38.8266 140.628 34.4296 159.794 34.4179H159.794ZM26.637 204.338V848.987C26.6819 884.056 40.6422 917.678 65.4417 942.473C90.2413 967.269 123.859 981.218 158.928 981.257H501.284H501.305C534.689 981.163 566.818 968.486 591.265 945.752C615.712 923.017 630.689 891.886 633.204 858.596V858.575V858.554C633.455 854.977 633.595 851.91 633.595 848.966V204.337H540.46L539.367 210.976C533.692 245.915 501.803 272.586 462.665 272.586C423.528 272.586 391.617 245.912 385.942 210.976L384.849 204.337H360.045L358.705 210.585C353.429 234.987 330.334 253.575 302.601 253.575C274.858 253.575 251.778 235.038 246.538 210.585L245.198 204.337L26.637 204.338ZM42.4723 220.173H233.651C242.977 248.817 270.24 269.411 302.6 269.411C334.974 269.411 362.235 248.773 371.591 220.173H372.725C382.614 259.498 418.877 288.422 462.664 288.422C506.453 288.422 542.697 259.496 552.583 220.173H617.76V848.967C617.76 851.438 617.643 854.128 617.409 857.462C615.185 886.767 602.003 914.149 580.481 934.164C558.949 954.187 530.667 965.339 501.263 965.422H158.948C128.067 965.388 98.4763 953.113 76.6378 931.277C54.7993 909.443 42.5118 879.848 42.4723 848.967V220.173ZM636.502 316.484V414.403H655.905C674.783 414.429 692.885 421.941 706.235 435.29C719.589 448.645 727.082 466.735 727.102 485.621V688.098C727.077 706.989 719.577 725.094 706.215 738.45C692.854 751.804 674.733 759.302 655.843 759.316H636.461V857.255H710.421C737.6 857.222 763.66 846.414 782.876 827.193C802.091 807.973 812.909 781.896 812.938 754.718L812.979 419.001C812.951 391.824 802.134 365.743 782.917 346.526C763.7 327.309 737.639 316.513 710.462 316.484H636.502ZM652.338 332.319H710.442C733.431 332.344 755.465 341.486 771.721 357.742C787.977 373.999 797.12 396.012 797.144 419.001L797.103 754.718C797.073 777.701 787.93 799.743 771.68 815.997C755.429 832.251 733.405 841.386 710.421 841.42H652.296V775.151H655.863C678.943 775.134 701.088 765.96 717.411 749.646C733.735 733.33 742.907 711.198 742.937 688.119V485.621C742.913 462.547 733.746 440.41 717.431 424.094C701.115 407.779 678.978 398.592 655.905 398.568H652.338V332.319ZM637.306 417.31V756.45H645.224H655.863C673.973 756.424 691.347 749.214 704.153 736.408C716.959 723.602 724.17 706.229 724.194 688.119V485.641C724.176 467.528 716.961 450.139 704.153 437.331C691.345 424.523 673.976 417.328 655.863 417.31H637.306ZM653.142 433.146H655.843C669.768 433.159 683.111 438.681 692.957 448.527C702.803 458.373 708.345 471.716 708.359 485.641V688.119C708.335 702.035 702.798 715.371 692.957 725.212C683.116 735.053 669.78 740.59 655.863 740.614H653.142V433.146ZM710.415 305.684H644.381V220.716C649.725 207.807 652.471 193.971 652.463 179.999C652.436 158.367 645.879 137.248 633.649 119.405C621.419 101.561 604.088 87.8263 583.922 79.9972C570.767 61.6418 553.545 46.5782 533.602 35.9841C513.658 25.3901 491.535 19.5527 468.96 18.9285C446.386 18.3043 423.974 22.9103 403.476 32.3861C382.978 41.862 364.95 55.9509 350.8 73.5513C330.28 71.1965 309.5 74.1969 290.484 82.2603C271.299 49.9812 240.845 25.9462 204.991 14.788C169.138 3.62974 130.423 6.13815 96.3092 21.8298C62.1946 37.5213 35.0973 65.2853 20.2385 99.77C5.37969 134.255 3.81157 173.019 15.8373 208.591V848.976C15.8796 886.915 30.9706 923.29 57.7977 950.117C84.6259 976.945 121 992.035 158.939 992.079H501.278C535.889 991.962 569.293 979.349 595.342 956.56C621.391 933.771 638.332 902.339 643.047 868.05H710.415C740.465 868.018 769.274 856.067 790.522 834.819C811.77 813.571 823.722 784.762 823.753 754.713V419.001C823.716 388.956 811.763 360.152 790.515 338.908C769.267 317.664 740.461 305.715 710.415 305.684V305.684ZM159.788 26.4903C184.293 26.4301 208.338 33.1474 229.263 45.8996C250.189 58.6518 267.18 76.9422 278.36 98.7491C278.924 99.8439 279.698 100.816 280.637 101.612C281.577 102.407 282.664 103.01 283.837 103.385C285.01 103.76 286.245 103.901 287.472 103.798C288.7 103.697 289.895 103.354 290.988 102.79C305.283 95.3508 321.168 91.4891 337.282 91.5356C342.696 91.5367 348.102 91.9684 353.447 92.8288C355.135 93.1044 356.866 92.9101 358.453 92.2693C360.039 91.6274 361.417 90.5633 362.439 89.1909C374.567 72.8736 390.414 59.6864 408.664 50.7255C426.912 41.7645 447.037 37.2887 467.364 37.6701C487.691 38.0516 507.634 43.2791 525.534 52.9184C543.435 62.5575 558.776 76.33 570.283 93.0906C571.411 94.709 573.014 95.9378 574.87 96.6071C594.301 103.509 610.716 116.972 621.286 134.677C631.858 152.381 635.923 173.218 632.782 193.598H538.761C536.351 193.595 534.034 194.523 532.291 196.187C530.548 197.851 529.514 200.122 529.406 202.529C528.153 230.596 507.077 253.531 478.889 260.017C468.177 262.468 457.049 262.468 446.337 260.017C418.209 253.531 397.133 230.596 395.82 202.529C395.711 200.122 394.677 197.851 392.934 196.187C391.192 194.523 388.874 193.595 386.465 193.598H358.175C355.796 193.598 353.506 194.506 351.772 196.135C350.037 197.764 348.989 199.993 348.84 202.368C347.425 225.06 327.057 242.781 302.466 242.781C292.204 242.828 282.19 239.632 273.853 233.648C268.756 230.067 264.519 225.398 261.45 219.977C258.382 214.556 256.558 208.52 256.113 202.307C256.005 200.545 255.399 198.849 254.365 197.419C253.331 195.987 251.912 194.88 250.273 194.224C249.163 193.77 247.975 193.537 246.777 193.537H30.8302C25.6837 173.821 25.1231 153.189 29.1918 133.223C33.2614 113.255 41.8516 94.4873 54.3034 78.3579C66.7552 62.2284 82.7372 49.1666 101.023 40.1754C119.308 31.1842 139.412 26.5028 159.788 26.4903V26.4903ZM501.278 973.346H158.939C125.963 973.309 94.3487 960.195 71.0297 936.879C47.7106 913.564 34.5905 881.951 34.5483 848.976V212.249H238.795C244.857 240.537 271.328 261.492 302.607 261.492C333.887 261.492 360.337 240.477 366.44 212.249H378.119C384.444 251.187 419.907 280.507 462.663 280.507C505.42 280.507 540.862 251.187 547.187 212.249H625.67V848.976C625.67 851.684 625.548 854.553 625.305 858.008C622.941 889.314 608.858 918.575 585.868 939.955C562.878 961.334 532.672 973.258 501.278 973.346V973.346ZM805.022 754.713C804.996 779.797 795.02 803.847 777.284 821.587C759.549 839.327 735.5 849.307 710.415 849.339H644.381V767.24H655.858C676.843 767.225 696.964 758.884 711.806 744.049C726.649 729.214 735 709.096 735.027 688.111V485.622C735.005 464.643 726.662 444.529 711.827 429.693C696.992 414.859 676.878 406.516 655.898 406.493H644.421V324.395H710.456C735.539 324.421 759.587 334.397 777.323 352.134C795.06 369.871 805.036 393.918 805.062 419.001L805.022 754.713ZM645.229 748.529V425.225H655.858C671.877 425.241 687.235 431.611 698.562 442.939C709.889 454.265 716.259 469.623 716.275 485.642V688.111C716.254 704.128 709.882 719.483 698.555 730.81C687.23 742.135 671.875 748.507 655.858 748.529H645.229ZM624.25 382.105C621.769 382.105 619.39 383.091 617.635 384.845C615.88 386.6 614.894 388.979 614.894 391.46V537.27C614.879 553.699 608.347 569.449 596.732 581.068C585.118 592.686 569.37 599.222 552.942 599.243H278.74C262.31 599.222 246.559 592.687 234.941 581.069C223.323 569.451 216.788 553.7 216.767 537.27C216.767 534.79 215.781 532.41 214.026 530.656C212.271 528.901 209.892 527.915 207.411 527.915C204.929 527.915 202.55 528.901 200.795 530.656C199.04 532.41 198.054 534.79 198.054 537.27C198.092 558.658 206.606 579.159 221.728 594.282C236.851 609.406 257.352 617.918 278.74 617.956H552.942C574.329 617.918 594.83 609.406 609.953 594.282C625.077 579.159 633.589 558.658 633.627 537.27V391.4C633.627 390.169 633.384 388.951 632.912 387.815C632.441 386.679 631.75 385.646 630.879 384.778C630.008 383.908 628.974 383.219 627.837 382.751C626.699 382.282 625.481 382.041 624.25 382.044" fill="black"/>
</svg>
