<?xml version="1.0" encoding="UTF-8" standalone="no"?>
<svg
   width="1000"
   height="1000"
   viewBox="0 0 1000 1000"
   fill="none"
   version="1.1"
   id="svg15"
   sodipodi:docname="bieresCidres.svg"
   inkscape:version="1.2.1 (9c6d41e, 2022-07-14)"
   xmlns:inkscape="http://www.inkscape.org/namespaces/inkscape"
   xmlns:sodipodi="http://sodipodi.sourceforge.net/DTD/sodipodi-0.dtd"
   xmlns="http://www.w3.org/2000/svg"
   xmlns:svg="http://www.w3.org/2000/svg">
  <sodipodi:namedview
     id="namedview1927"
     pagecolor="#ffffff"
     bordercolor="#111111"
     borderopacity="1"
     inkscape:showpageshadow="0"
     inkscape:pageopacity="0"
     inkscape:pagecheckerboard="1"
     inkscape:deskcolor="#d1d1d1"
     showgrid="false"
     inkscape:zoom="0.22300647"
     inkscape:cx="-165.91447"
     inkscape:cy="425.99661"
     inkscape:window-width="1309"
     inkscape:window-height="788"
     inkscape:window-x="448"
     inkscape:window-y="1148"
     inkscape:window-maximized="0"
     inkscape:current-layer="path13" />
  <defs
     id="defs19" />
  <g
     id="path9"
     transform="matrix(10.556866,0,0,10.556866,-0.07700859,0.00448955)" />
  <g
     id="path13"
     style="fill:#000000"
     transform="matrix(10.556866,0,0,10.556866,84.074439,0.0049776)">
    <path
       id="path191"
       style="color:#000000;fill:#000000;stroke-miterlimit:10;-inkscape-stroke:none"
       d="m 51.099609,59.771484 v 0.0059 c -0.433048,4.96e-4 -0.848138,0.17431 -1.154297,0.480468 -0.306599,0.3066 -0.480468,0.722528 -0.480468,1.15625 v 13.810547 c -0.0013,1.357876 -0.539992,2.658783 -1.5,3.619141 -0.95954,0.959802 -2.260025,1.499693 -3.617188,1.501953 H 18.375 18.373 c -1.357308,-0.0023 -2.659319,-0.542131 -3.619141,-1.501953 -0.960282,-0.960282 -1.500208,-2.261127 -1.501953,-3.619141 -4.97e-4,-0.433048 -0.172357,-0.850091 -0.478515,-1.15625 -0.3066,-0.3066 -0.722528,-0.478515 -1.15625,-0.478515 -0.433739,0 -0.851604,0.171915 -1.158204,0.478515 -0.3066,0.3066 -0.4785153,0.724481 -0.4785152,1.158203 0.00395,2.224068 0.8902542,4.357052 2.4628902,5.929688 1.572651,1.572761 3.703692,2.458939 5.927735,2.462891 h 0.002 25.974609 c 2.224043,-0.004 4.357037,-0.89013 5.929688,-2.462891 1.57276,-1.572651 2.458938,-3.705644 2.46289,-5.929688 V 61.408203 c 0,-0.215227 -0.04238,-0.428079 -0.125,-0.626953 -0.0825,-0.199043 -0.203164,-0.379315 -0.355468,-0.53125 -0.152441,-0.152256 -0.334375,-0.273501 -0.533204,-0.355469 -0.198477,-0.08175 -0.41131,-0.123601 -0.626953,-0.123047 z m 0.002,0.75 0.002,0.75 c 0.01756,-4.5e-5 0.03561,0.0047 0.05273,0.01172 0.01657,0.0068 0.03041,0.0148 0.04297,0.02734 v 0.002 c 0.0127,0.01266 0.0226,0.02681 0.0293,0.04297 h 0.002 c 0.0068,0.01633 0.0098,0.03476 0.0098,0.05273 V 75.22465 c -0.0032,1.827753 -0.731001,3.578748 -2.023437,4.871094 -1.291886,1.291977 -3.042093,2.019676 -4.869141,2.023438 H 18.375 18.373 c -1.827048,-0.0038 -3.577254,-0.731461 -4.869141,-2.023438 -1.292361,-1.292361 -2.020189,-3.043365 -2.023437,-4.871094 4.78e-4,-0.03558 0.01371,-0.07035 0.03906,-0.0957 0.0258,-0.0258 0.06119,-0.03906 0.09766,-0.03906 0.03628,0 0.0699,0.01326 0.0957,0.03906 0.0258,0.0258 0.03906,0.06138 0.03906,0.09766 0.0023,1.754583 0.700691,3.43702 1.941406,4.677735 1.240716,1.240715 2.925105,1.939151 4.679688,1.941406 h 25.974609 c 1.754528,-0.0023 3.437337,-0.700671 4.677735,-1.941406 1.240389,-1.24084 1.937762,-2.923213 1.939453,-4.677735 v -13.8125 c 0,-0.03628 0.01522,-0.0699 0.04102,-0.0957 0.0258,-0.0258 0.05943,-0.04102 0.0957,-0.04102 z m 1.41e-4,0.0062 c -0.235,0 -0.4604,0.0934 -0.6266,0.2596 -0.1662,0.1662 -0.2596,0.3916 -0.2596,0.6266 v 13.8119 c -0.0015,1.5562 -0.6202,3.0481 -1.7204,4.1487 -1.1002,1.1005 -2.5919,1.7197 -4.1481,1.7217 h -25.9738 c -1.5563,-0.002 -3.0483,-0.6211 -4.1488,-1.7216 -1.1005,-1.1005 -1.7196,-2.5925 -1.7216,-4.1488 0,-0.235 -0.0934,-0.4604 -0.2596,-0.6266 -0.1662,-0.1662 -0.3916,-0.2596 -0.6266,-0.2596 -0.2351,0 -0.4605,0.0934 -0.6267,0.2596 -0.1662,0.1662 -0.2596,0.3916 -0.2596,0.6266 0.0036,2.0259 0.81,3.9679 2.2425,5.4004 1.4325,1.4326 3.3745,2.2389 5.4004,2.2425 h 25.9738 c 2.0259,-0.0036 3.9679,-0.8099 5.4004,-2.2425 1.4326,-1.4325 2.2389,-3.3745 2.2425,-5.4004 v -13.8176 c 0,-0.1166 -0.023,-0.232 -0.0677,-0.3396 -0.0446,-0.1076 -0.1101,-0.2054 -0.1926,-0.2877 -0.0825,-0.0824 -0.1804,-0.1476 -0.2881,-0.192 -0.1078,-0.0444 -0.2232,-0.0672 -0.3398,-0.0669 M 14.167969,0.03125 C 12.331732,0.15022358 10.518134,0.60485089 8.8183594,1.3867187 5.4187097,2.9504419 2.717063,5.7177717 1.2363281,9.1542969 -0.2219696,12.53879 -0.38202053,16.333422 0.7578125,19.833984 v 60.585938 c 0.004221,3.792146 1.5138667,7.427929 4.1953125,10.109375 2.6815403,2.68154 6.317256,4.190986 10.109375,4.195312 h 32.429687 0.002 c 3.459091,-0.01161 6.79892,-1.273168 9.402343,-3.550781 2.429569,-2.125516 3.965864,-5.037135 4.556641,-8.197266 h 5.849609 c 3.04485,-0.0032 5.964151,-1.21621 8.117188,-3.36914 2.152954,-2.152955 3.365931,-5.072431 3.36914,-8.117188 V 39.689453 c -0.0037,-3.044335 -1.216185,-5.964661 -3.36914,-8.117187 -2.15295,-2.15263 -5.072763,-3.363979 -8.117188,-3.367188 h -5.505859 v -7.296875 -0.002 C 62.269048,19.671523 62.5633,18.372397 62.5625,17.048828 62.559816,14.848747 61.892163,12.701415 60.648437,10.886719 59.450453,9.1389125 57.755356,7.8073724 55.800781,6.9980469 54.502414,5.2361082 52.840528,3.7736232 50.90625,2.7460938 48.914928,1.6883279 46.705181,1.105285 44.451172,1.0429687 42.197259,0.98064173 39.958787,1.4405901 37.912109,2.3867188 35.982353,3.2787975 34.299118,4.6077394 32.925781,6.2265625 31.189463,6.0853094 29.459225,6.3393162 27.824219,6.9355469 25.902501,3.9706257 23.033857,1.7371676 19.648437,0.68359375 17.861976,0.12760887 16.004205,-0.08772358 14.167969,0.03125 Z m 0.09766,1.4980469 c 1.65431,-0.1071862 3.327764,0.086906 4.9375,0.5878906 3.219572,1.0019605 5.953038,3.1600474 7.675781,6.0585938 l 0.335938,0.5625 0.601562,-0.2558594 c 1.682067,-0.7132512 3.5208,-0.9797798 5.335938,-0.7714844 L 33.5625,7.7597656 33.822266,7.4375 c 1.267842,-1.5770705 2.883993,-2.8403873 4.720703,-3.6894531 1.836718,-0.8490696 3.844504,-1.261011 5.867187,-1.2050781 2.022787,0.055924 4.003942,0.5780716 5.791016,1.5273437 1.786962,0.9492724 3.33104,2.298659 4.509765,3.9433594 l 0.128907,0.1816406 0.208984,0.082031 c 1.769467,0.6869815 3.290116,1.8913315 4.363281,3.4570315 1.073073,1.5657 1.648075,3.418291 1.650391,5.316406 7.4e-4,1.224938 -0.240415,2.436686 -0.708984,3.56836 l -0.05664,0.138671 v 8.947266 h 7.005859 c 2.647065,0.0033 5.184655,1.056028 7.056641,2.927734 1.872441,1.87207 2.926431,4.408982 2.929687,7.056641 v 31.798828 c -0.0028,2.648038 -1.057246,5.186153 -2.929687,7.058594 -1.872559,1.872466 -4.410449,2.926897 -7.058594,2.929687 h -7.033203 l -0.08984,0.646485 c -0.421997,3.069073 -1.937961,5.882094 -4.269531,7.921875 -2.331572,2.039783 -5.32202,3.169293 -8.419922,3.179687 H 15.064453 C 11.66898,93.220736 8.4147265,91.869805 6.0136719,89.46875 3.6127228,87.067801 2.2615917,83.813415 2.2578125,80.417969 V 19.634766 L 2.21875,19.517578 C 1.138886,16.323318 1.2790171,12.842724 2.6132813,9.7460938 3.9475436,6.6495055 6.3819687,4.1570808 9.4453125,2.7480469 10.976935,2.0435262 12.611315,1.6364831 14.265625,1.5292969 Z m 0.876953,0.2304687 C 13.097904,1.7610157 11.081018,2.2305632 9.2460938,3.1328125 7.4111767,4.0350586 5.8081029,5.344334 4.5585937,6.9628906 3.3090817,8.5814404 2.4474407,10.465101 2.0390625,12.46875 1.630787,14.472308 1.6866916,16.543041 2.203125,18.521484 l 0.1464844,0.560547 H 23.384766 c 0.01614,0 0.03202,0.0037 0.04687,0.0098 h 0.002 l 0.0039,0.002 c 0.02345,0.0094 0.04176,0.02434 0.05664,0.04492 0.01465,0.02027 0.02385,0.04517 0.02539,0.07031 v 0.0039 0.0039 c 0.05017,0.699712 0.25621,1.379984 0.601563,1.990234 0.344144,0.607905 0.819767,1.130708 1.390625,1.533203 4.78e-4,3.44e-4 0.0015,-3.43e-4 0.002,0 0.917756,0.658254 2.019012,1.011089 3.148437,1.00586 2.687984,-0.0019 4.978444,-1.961024 5.138672,-4.53125 0.0022,-0.03485 0.01757,-0.066 0.04297,-0.08984 0.02557,-0.02401 0.05717,-0.03711 0.0918,-0.03711 h 2.68164 c 0.03497,-4.6e-5 0.06838,0.01288 0.09375,0.03711 0.02566,0.0245 0.03943,0.05875 0.04102,0.09375 h 0.002 c 0.141019,3.013773 2.403562,5.459628 5.365235,6.142578 1.124799,0.257395 2.295122,0.257395 3.419921,0 2.966359,-0.68257 5.231689,-3.128732 5.367188,-6.142578 v -0.002 c 0.002,-0.03451 0.01591,-0.06783 0.04102,-0.0918 0.02569,-0.02452 0.05859,-0.03716 0.09375,-0.03711 h 9.550781 l 0.09766,-0.634766 C 61.013624,16.350259 60.59472,14.199784 59.503906,12.373047 58.413961,10.547474 56.719909,9.15793 54.716797,8.4453125 l -0.0039,-0.00195 c -0.02636,-0.010359 -0.0493,-0.028048 -0.06641,-0.050781 l -0.002,-0.00195 c -5.47e-4,-7.558e-4 -0.0014,-0.00119 -0.002,-0.00195 C 53.485386,6.7047125 51.943574,5.3203359 50.144531,4.3515625 48.343852,3.3818973 46.337784,2.8567282 44.292969,2.8183594 42.248152,2.7799905 40.224402,3.2294229 38.388672,4.1308594 36.552848,5.0322788 34.958264,6.3585666 33.738281,8 c -0.01472,0.019773 -0.03352,0.035565 -0.05664,0.044922 -0.02344,0.00947 -0.04815,0.01175 -0.07227,0.00781 h -0.002 C 33.062291,7.9649838 32.510914,7.9201328 31.958984,7.9199219 h -0.002 c -1.646972,-0.00443 -3.269399,0.3900214 -4.730469,1.1503906 -0.01551,0.00772 -0.03171,0.012259 -0.04883,0.013672 h -0.002 c -0.01797,0.0015 -0.03566,-3.871e-4 -0.05273,-0.00586 -0.01701,-0.00544 -0.03298,-0.01363 -0.04687,-0.025391 -0.01373,-0.011634 -0.02501,-0.025532 -0.0332,-0.041016 v -0.00195 C 25.920889,6.8217164 24.215047,4.9866543 22.115234,3.7070313 20.01497,2.4271224 17.602134,1.7537261 15.142578,1.7597656 Z m 0.002,1.5 h 0.002 c 2.18304,-0.00536 4.323369,0.592507 6.1875,1.7285156 1.864124,1.1359945 3.379072,2.7643978 4.375,4.7070313 v 0.00195 c 0.09854,0.1913638 0.234573,0.3611755 0.398438,0.5000005 0.1641,0.138839 0.353407,0.244983 0.558594,0.310547 0.205121,0.06573 0.420339,0.09016 0.634765,0.07226 0.214844,-0.01773 0.424025,-0.07918 0.615235,-0.177734 h 0.002 c 1.246549,-0.648729 2.631954,-0.9864727 4.037109,-0.9824222 h 0.002 c 0.473018,9.22e-5 0.945283,0.038135 1.41211,0.1132812 0.295061,0.047795 0.598454,0.014029 0.875,-0.097656 0.277284,-0.112243 0.518389,-0.2988357 0.697265,-0.5390625 1.077615,-1.4498836 2.485849,-2.6217499 4.107422,-3.4179688 1.621466,-0.7962218 3.410618,-1.1940473 5.216797,-1.1601562 1.806181,0.033891 3.577451,0.4970226 5.167969,1.3535156 1.590524,0.8564874 2.954106,2.0810442 3.976562,3.5703125 l 0.002,0.00195 v 0.00195 c 0.195558,0.2804395 0.475104,0.4933321 0.796875,0.609375 v 0.00195 h 0.002 c 1.676264,0.5954264 3.09201,1.7558464 4.003907,3.2832034 0.80154,1.342304 1.085163,2.897731 0.978515,4.447266 h -8.15039 c -0.421441,-5.54e-4 -0.826349,0.162447 -1.13086,0.453125 -0.304646,0.290807 -0.48685,0.688592 -0.505859,1.109375 -0.102799,2.302444 -1.829934,4.201966 -4.203125,4.748046 -0.904599,0.207005 -1.843448,0.207005 -2.748047,0 -2.366451,-0.545694 -4.094455,-2.445506 -4.203125,-4.748046 v -0.002 c -0.01946,-0.420319 -0.201766,-0.817142 -0.505859,-1.107421 -0.304629,-0.290967 -0.709434,-0.453679 -1.13086,-0.453125 h -2.679687 c -0.416172,0 -0.816107,0.158769 -1.119141,0.443359 -0.303205,0.28475 -0.487656,0.674696 -0.513672,1.089844 v 0.002 c -0.107692,1.7275 -1.67544,3.123047 -3.644531,3.123047 h -0.002 c -0.813984,0.0038 -1.608175,-0.247974 -2.269531,-0.722657 l -0.0039,-0.0039 -0.002,-0.002 C 25.989171,21.242251 25.661859,20.883403 25.42598,20.46674 25.191472,20.052355 25.053011,19.591754 25.017777,19.11713 l -0.002,-0.0078 c -0.02022,-0.305734 -0.125132,-0.59914 -0.304688,-0.847656 v -0.002 c -0.180576,-0.24986 -0.428791,-0.441687 -0.714843,-0.556641 -0.194319,-0.07896 -0.401761,-0.121094 -0.611328,-0.121094 H 3.5742188 C 3.240284,15.995262 3.1832367,14.362344 3.5078125,12.769531 3.8704335,10.990384 4.6366081,9.3180266 5.7460937,7.8808594 6.8555822,6.4436791 8.2789237,5.2796478 9.9082031,4.4785156 11.537476,3.6773866 13.329009,3.2608756 15.144531,3.2597656 Z M 2.53125,19.355469 v 61.064453 c 0.00425,3.321919 1.3266402,6.506753 3.6757812,8.855469 2.3491371,2.348818 5.5335528,3.670106 8.8554688,3.673828 h 32.429687 0.002 c 3.162344,-0.0089 6.205717,-1.20979 8.521484,-3.363282 2.31575,-2.153582 3.734454,-5.102449 3.972656,-8.255859 v -0.002 -0.002 c 0.02381,-0.338824 0.03711,-0.629286 0.03711,-0.908203 v -61.0625 h -8.822266 l -0.103516,0.628906 c -0.537562,3.309539 -3.558288,5.835938 -7.265625,5.835937 -3.707228,0 -6.730058,-2.526659 -7.267578,-5.835937 l -0.103515,-0.628906 h -2.34961 l -0.126953,0.591797 c -0.499762,2.311562 -2.687365,4.072265 -5.314453,4.072265 -2.627938,0 -4.81418,-1.755887 -5.310547,-4.072265 l -0.126953,-0.591797 z m 1.5,1.5 h 18.109375 c 0.883426,2.713248 3.465957,4.664062 6.53125,4.664062 3.06663,0 5.648957,-1.954957 6.535156,-4.664062 h 0.107422 c 0.936757,3.725059 4.371766,6.464843 8.519531,6.464843 4.147852,0 7.581051,-2.739978 8.517578,-6.464843 h 6.173829 v 59.5625 c 0,0.234082 -0.01101,0.488912 -0.0332,0.804687 -0.210656,2.775941 -1.459338,5.369684 -3.498046,7.265625 -2.039629,1.896704 -4.718657,2.95307 -7.503907,2.960938 H 15.064453 C 12.139176,91.445941 9.3362367,90.283221 7.2675781,88.214844 5.1989236,86.146564 4.034996,83.343243 4.03125,80.417969 Z m 56.269531,9.123047 v 9.27539 h 1.837891 c 1.788262,0.0024 3.502996,0.714024 4.767578,1.978516 1.264952,1.265042 1.974672,2.978611 1.976562,4.767578 v 19.179687 c -0.0023,1.789462 -0.71281,3.504456 -1.978515,4.769532 -1.265601,1.264971 -2.982062,1.975212 -4.771485,1.976562 h -1.835937 v 9.277344 h 7.005859 c 2.574523,-0.0032 5.043055,-1.026996 6.863282,-2.847656 1.820209,-1.820643 2.844947,-4.290787 2.847656,-6.865235 l 0.0039,-31.800781 c -0.0027,-2.574356 -1.027313,-5.044891 -2.847656,-6.865234 -1.820343,-1.820343 -4.288925,-2.842995 -6.863281,-2.845703 z m 1.5,1.5 h 5.503906 c 2.177639,0.0023 4.264835,0.868349 5.804688,2.408203 1.539853,1.539853 2.405912,3.625095 2.408203,5.802734 l -0.0039,31.800781 c -0.0028,2.177043 -0.868876,4.264994 -2.408203,5.804688 -1.53931,1.539676 -3.625567,2.404938 -5.802735,2.408203 h -5.505859 v -6.277344 h 0.337891 c 2.186173,-0.0016 4.283882,-0.870589 5.830078,-2.416015 1.546291,-1.545522 2.415109,-3.641991 2.417968,-5.828125 V 46 c -0.0023,-2.185629 -0.87057,-4.28257 -2.416015,-5.828125 C 66.421241,38.62643 64.3243,37.756216 62.138672,37.753906 h -0.337891 z m -1.423828,8.050781 v 32.125 h 0.75 1.007813 c 1.715453,-0.0024 3.361208,-0.685427 4.574218,-1.898438 1.213098,-1.213097 1.896176,-2.858733 1.898438,-4.574218 V 46.001953 c -0.0017,-1.715751 -0.685142,-3.362989 -1.898438,-4.576172 -1.213182,-1.213296 -2.858467,-1.894788 -4.574218,-1.896484 z m 1.5,1.5 h 0.255859 c 1.319046,0.0013 2.58301,0.524329 3.515625,1.457031 0.932703,0.932615 1.457681,2.196579 1.458985,3.515625 v 19.179688 c -0.0023,1.318206 -0.526745,2.581432 -1.458985,3.513671 -0.932126,0.932127 -2.195433,1.456645 -3.513671,1.458985 h -0.257813 z m 5.425197,-12.07385 h -6.2551 v -8.0486 c 0.5063,-1.2228 0.7664,-2.5334 0.7656,-3.8569 -0.0025,-2.0491 -0.6237,-4.0496 -1.7821,-5.7398 -1.1585,-1.6901995 -2.8002,-2.9912595 -4.7104,-3.7328795 -1.2461,-1.73871 -2.8775,-3.16561 -4.7666,-4.16914 -1.8892,-1.00352 -3.9848,-1.55647 -6.1232,-1.61559 -2.1383,-0.05913 -4.2613,0.37717 -6.203,1.27477 -1.9417,0.8976 -3.6494,2.23218 -4.9897,3.89938 -1.9438,-0.22306 -3.9122,0.06115 -5.7135,0.82496 -1.8173,-3.05764 -4.702,-5.33436 -8.0983,-6.39132 -3.3962,-1.05697003 -7.0635,-0.81936003 -10.2949004,0.66703 -3.2315,1.48638 -5.7983,4.11633 -7.2058,7.38289 -1.40750004,3.2665995 -1.55604004,6.9384995 -0.4169,10.3080995 v 60.6605 c 0.004,3.5938 1.4335,7.0394 3.9747,9.5806 2.5413,2.5413 5.9868004,3.9707 9.5806004,3.9748 h 32.4281 c 3.2785,-0.011 6.4427,-1.2058 8.9102,-3.3645 2.4675,-2.1587 4.0723,-5.1361 4.5189,-8.3841 h 6.3814 c 2.8465,-0.003 5.5754,-1.1351 7.5882,-3.1478 2.0127,-2.0127 3.1448,-4.7417 3.1478,-7.5881 v -31.8003 c -0.0035,-2.846 -1.1358,-5.5745 -3.1485,-7.5868 -2.0127,-2.0124 -4.7414,-3.1442 -7.5875,-3.1472 z M 15.14395,2.5088275 c 2.3213,-0.0057 4.5989,0.63059 6.5811,1.83855 1.9822,1.20795 3.5917,2.94051 4.6507,5.00617 0.0534,0.1037 0.1267,0.1958 0.2157,0.2712 0.089,0.0753 0.192,0.1324 0.3031,0.1679 0.1111,0.0356 0.2281,0.0489 0.3443,0.0392 0.1163,-0.0096 0.2295,-0.0421 0.3331,-0.0955 1.3541,-0.7047 2.8588,-1.0705 4.3852,-1.0661 0.5128,10e-5 1.0249,0.041 1.5312,0.1225 0.1599,0.0261 0.3239,0.0077 0.4742,-0.053 0.1502,-0.0608 0.2808,-0.1616 0.3776,-0.2916 1.1488,-1.54566 2.6499,-2.79482 4.3786,-3.64364 1.7286,-0.84883 3.6349,-1.2728 5.5604,-1.23667 1.9255,0.03613 3.8146,0.53131 5.5102,1.44439 1.6956,0.91307 3.1488,2.21767 4.2388,3.80532 0.1069,0.1533 0.2587,0.2697 0.4345,0.3331 1.8406,0.6538 3.3955,1.9290995 4.3968,3.6061995 1.0014,1.677 1.3865,3.6508 1.0889,5.5813 h -8.9061 c -0.2283,-3e-4 -0.4478,0.0876 -0.6129,0.2452 -0.1651,0.1576 -0.263,0.3728 -0.2733,0.6008 -0.1187,2.6586 -2.1151,4.8311 -4.7852,5.4455 -1.0147,0.2322 -2.0688,0.2322 -3.0835,0 -2.6644,-0.6144 -4.6608,-2.7869 -4.7852,-5.4455 -0.0103,-0.228 -0.1083,-0.4432 -0.2734,-0.6008 -0.165,-0.1576 -0.3846,-0.2455 -0.6128,-0.2452 h -2.6797 c -0.2254,0 -0.4423,0.086 -0.6066,0.2403 -0.1643,0.1543 -0.2636,0.3654 -0.2777,0.5904 -0.134,2.1495 -2.0634,3.8281 -4.3928,3.8281 -0.972,0.0045 -1.9206,-0.2983 -2.7103,-0.8651 -0.4829,-0.3392 -0.8842,-0.7815 -1.1749,-1.295 -0.2906,-0.5135 -0.4634,-1.0852 -0.5056,-1.6738 -0.0102,-0.1669 -0.0676,-0.3275 -0.1655,-0.463 -0.098,-0.1356 -0.2324,-0.2405 -0.3877,-0.3026 -0.1051,-0.043 -0.2176,-0.0651 -0.3311,-0.0651 H 2.9284496 c -0.4875,-1.8676 -0.5406,-3.822 -0.1552,-5.7133 0.3855,-1.8914 1.1992,-3.6691995 2.3787,-5.1970595 1.1795,-1.52787 2.6934,-2.76515 4.4255,-3.61684 1.7321004,-0.85169 3.6364004,-1.29514 5.5665004,-1.29632 z m 32.3477,89.6910195 h -32.4281 c -3.1236,-0.0035 -6.1183004,-1.2458 -8.3272004,-3.4544 -2.2089,-2.2085 -3.4517,-5.203 -3.4557,-8.3266 v -60.314 H 22.62795 c 0.5742,2.6796 3.0817,4.6645 6.0446,4.6645 2.963,0 5.4685,-1.9906 6.0466,-4.6645 h 1.1063 c 0.5991,3.6884 3.9583,6.4657 8.0084,6.4657 4.0502,0 7.4074,-2.7773 8.0065,-6.4657 h 7.4343 v 60.314 c 0,0.2565 -0.0115,0.5283 -0.0345,0.8556 -0.224,2.9654 -1.558,5.7372 -3.7357,7.7624 -2.1777,2.0251 -5.039,3.1546 -8.0128,3.163 z m 28.7722,-20.7101 c -0.0025,2.3761 -0.9475,4.6543 -2.6275,6.3347 -1.68,1.6804 -3.958,2.6258 -6.3342,2.6288 h -6.2551 v -7.7768 h 1.0872 c 1.9878,-0.0015 3.8938,-0.7916 5.2997,-2.1968 1.406,-1.4053 2.197,-3.3109 2.1996,-5.2987 v -19.1808 c -0.0021,-1.9873 -0.7924,-3.8926 -2.1976,-5.2979 -1.4053,-1.4052 -3.3106,-2.1955 -5.2979,-2.1976 h -1.0872 v -7.7768 h 6.2552 c 2.376,0.0025 4.6539,0.9475 6.334,2.6276 1.6801,1.6801 2.6251,3.958 2.6276,6.334 z m -15.1364,-0.5857 v -30.625 h 1.0068 c 1.5174,0.0015 2.9722,0.6049 4.0451,1.6779 1.073,1.0729 1.6764,2.5277 1.6779,4.0451 v 19.1789 c -0.002,1.5172 -0.6056,2.9717 -1.6785,4.0446 -1.0728,1.0728 -2.5273,1.6764 -4.0445,1.6785 z M 59.140184,36.194421 c -0.235001,0 -0.460401,0.0934 -0.626599,0.2596 -0.166202,0.166201 -0.259602,0.3916 -0.259602,0.626601 v 13.8119 c -0.0015,1.556199 -0.6202,3.048099 -1.7204,4.1487 -1.1002,1.1005 -2.5919,1.7197 -4.1481,1.7217 h -25.9738 c -1.556301,-0.002 -3.048301,-0.6211 -4.148801,-1.7216 -1.100499,-1.1005 -1.7196,-2.5925 -1.721599,-4.1488 0,-0.235 -0.0934,-0.4604 -0.2596,-0.6266 -0.166202,-0.1662 -0.391601,-0.259601 -0.626601,-0.259601 -0.2351,0 -0.4605,0.0934 -0.6267,0.259601 -0.1662,0.1662 -0.259601,0.3916 -0.259601,0.6266 0.0036,2.0259 0.81,3.9679 2.242502,5.4004 1.432499,1.4326 3.3745,2.2389 5.4004,2.2425 h 25.973801 c 2.0259,-0.0036 3.9679,-0.8099 5.400399,-2.2425 1.432601,-1.4325 2.238901,-3.3745 2.242501,-5.4004 V 37.074921 c 0,-0.1166 -0.023,-0.232 -0.0677,-0.3396 -0.0446,-0.1076 -0.1101,-0.2054 -0.192601,-0.2877 -0.0825,-0.0824 -0.180399,-0.1476 -0.2881,-0.192 -0.107799,-0.0444 -0.2232,-0.0672 -0.339799,-0.0669" />
  </g>
</svg>
