<svg viewBox="0 0 900 928" xmlns="http://www.w3.org/2000/svg">
<path d="M806.679 0.871779C804.355 1.23339 802.136 2.11886 800.184 3.43165H800.164C715.338 60.9595 645.658 101.339 583.989 137.08C452.546 213.219 371.185 260.56 309.3 380.286V380.306L309.28 380.326C299.354 399.764 292.281 420.442 286.375 441.438C264.397 427.269 240.819 413.639 213.553 398.358C173.03 375.635 127.296 350.021 71.0792 313.042C69.1287 311.742 66.9188 310.875 64.6031 310.52C62.2865 310.166 59.9185 310.322 57.6685 310.979C55.431 311.633 53.3534 312.782 51.5936 314.322C49.8312 315.868 48.4113 317.793 47.4672 319.938V319.958V319.978C46.2881 322.697 23.251 376.471 9.52768 451.562C-3.16382 521.308 -9.68548 622.879 33.1396 710.701C76.063 798.724 163.498 852.758 228.931 882.651C269.216 901.09 311.249 915.402 354.384 925.501C354.681 925.653 354.96 925.847 355.263 925.978L355.301 925.998L355.836 926.208L355.97 926.265C356.683 926.534 357.417 926.749 358.167 926.915L358.95 927.087H359.981H360.115C360.62 927.144 361.113 927.25 361.624 927.259H361.777H361.93C362.298 927.25 362.668 927.179 363.038 927.144C363.554 927.197 364.066 927.314 364.585 927.316H364.624H364.681C368.024 927.286 371.277 926.215 373.985 924.26L371.425 925.425C437.57 909.284 501.931 886.554 563.53 857.55C625.51 828.248 680.024 794.244 725.546 756.397C782.745 708.846 825.874 655.036 853.464 596.444C881.007 537.946 896.417 470.769 899.446 396.64C901.839 337.835 896.469 274.535 883.609 208.509V208.222L883.475 207.573V207.534C872.477 151.099 857.684 102.073 845.593 67.0081C839.547 49.4754 834.185 35.4378 830.291 25.7063C826.406 15.9995 824.321 11.3236 823.834 10.2516C822.892 8.12073 821.497 6.2302 819.745 4.69248C817.978 3.13847 815.909 1.98769 813.651 1.33026H813.632C811.375 0.673567 809.002 0.510322 806.678 0.871779H806.679ZM808.933 15.3713C809.134 15.3399 809.347 15.3521 809.544 15.4096C809.74 15.4666 809.909 15.5822 810.06 15.7152H810.08C810.232 15.849 810.343 16.008 810.423 16.1928L810.443 16.2501L810.463 16.2884C810.169 15.6439 812.856 21.6175 816.671 31.1509C820.486 40.6843 825.765 54.5019 831.725 71.7841C843.626 106.297 858.189 154.64 869.015 210.113C869.031 210.196 869.056 210.259 869.073 210.342V210.4C881.875 275.789 887.146 338.258 884.795 396.028C881.834 468.489 866.786 533.706 840.188 590.196C813.634 646.591 771.971 698.715 716.168 745.107C671.752 782.033 618.285 815.425 557.265 844.273C496.56 872.854 433.134 895.267 367.949 911.173L366.555 911.517L365.39 912.358C365.153 912.528 364.874 912.614 364.587 912.625C364.526 912.622 364.458 912.619 364.396 912.606L363.078 912.338L361.741 912.568C361.705 912.563 361.666 912.557 361.626 912.548L360.996 912.433L360.002 911.803L358.761 911.516C316.207 901.629 274.767 887.48 235.045 869.298C171.226 840.143 86.8399 787.316 46.3401 704.263C5.74582 621.016 11.5767 522.316 23.9699 454.198V454.178C37.3859 380.784 60.1061 327.667 60.897 325.841L60.9161 325.822C60.9163 325.822 60.9159 325.803 60.9161 325.802C60.9971 325.632 61.119 325.487 61.2599 325.363C61.41 325.231 61.5966 325.134 61.7948 325.076C61.989 325.02 62.187 325.008 62.387 325.038C62.5882 325.069 62.7729 325.136 62.941 325.248L62.9601 325.268H62.9792C119.669 362.56 165.86 388.431 206.389 411.157C236.585 428.08 262.966 442.895 286.07 458.286L294.724 464.055L297.245 453.968C303.051 430.768 311.471 408.291 322.347 386.991V387.03C382.565 270.53 459.902 225.903 591.344 149.764C653.005 114.029 723.113 73.4254 808.379 15.6006L808.398 15.5815C808.562 15.476 808.74 15.4014 808.933 15.3714L808.933 15.3713ZM808.704 18.9055L801.158 23.9679C719.842 78.6387 652.519 117.593 592.739 152.229C464.045 226.76 384.483 273.087 324.85 388.214V388.234C270.842 492.749 284.527 628.617 304.906 724.322C308.359 740.547 312.122 756.211 316.043 771.087L316.101 771.297L316.177 771.508C317.128 774.388 317.915 777.323 318.527 780.295L318.565 780.524L318.623 780.735C330.592 824.594 343.453 860.893 352.226 883.855L360.995 906.837L366.229 882.805C389.577 775.687 417.037 694.81 446.827 630.218L447.132 629.588L447.285 628.919C447.315 628.797 447.383 628.679 447.457 628.575L447.839 628.021L448.126 627.41C491.501 534.294 539.681 475.142 588.002 419.086L589.033 417.883L589.492 416.335C613.214 334.158 613.333 233.419 613.333 231.05C613.333 230.674 613.469 230.303 613.734 230.038C613.999 229.773 614.353 229.637 614.727 229.637C615.103 229.637 615.456 229.773 615.721 230.038C615.986 230.303 616.141 230.674 616.141 231.05C616.141 234.486 615.883 310.455 600.438 383.725L594.573 411.559L613.161 390.03C656.2 340.2 700.55 286.498 740.581 209.406L740.619 209.348L740.638 209.31C740.721 209.144 740.842 208.991 740.982 208.87C741.125 208.748 741.284 208.66 741.46 208.603C741.639 208.544 741.829 208.511 742.014 208.527C742.201 208.542 742.386 208.595 742.549 208.68C742.717 208.767 742.87 208.881 742.988 209.023C743.107 209.166 743.201 209.342 743.256 209.52C743.309 209.695 743.312 209.885 743.294 210.074H743.313C743.295 210.262 743.231 210.443 743.141 210.609L743.122 210.647L743.083 210.705C699.254 295.099 650.86 350.873 603.513 405.446C555.23 461.087 507.79 515.787 465.051 598.372L451.736 624.105L475.692 607.809C517.403 579.441 601.179 530.348 695.955 516.457H695.975C696.336 516.418 696.701 516.504 696.987 516.724V516.744C697.279 516.967 697.469 517.277 697.522 517.641C697.575 518.008 697.47 518.375 697.255 518.673C697.04 518.969 696.721 519.183 696.357 519.246C683.895 521.076 671.598 523.51 659.583 526.448L658.933 526.62L486.295 604.295L485.817 604.601C466.861 616.966 454.48 626.463 450.705 629.435L449.31 630.524L448.584 632.148C417.741 699.334 389.748 783.959 365.866 898.03L363.44 909.531L374.845 906.646C437.338 890.802 498.155 868.991 556.48 841.522H556.5C651.531 796.668 777.596 716.66 837.703 589.03L837.741 589.05C897.805 461.41 886.304 313.214 866.397 211.316V211.297C854.066 148.411 835.873 86.8274 812.066 27.3301L808.704 18.9055ZM801.368 41.2184C823.228 97.282 840.412 155.062 851.992 214.124C871.585 314.413 882.356 459.785 824.483 582.784L824.445 582.764C766.716 705.357 643.686 784.136 550.233 828.245C496.592 853.508 440.65 873.406 383.383 888.707C406.251 783.277 432.476 702.94 461.268 639.903C465.245 636.796 476.075 628.529 493.477 617.151L663.651 540.584C675.132 537.794 686.827 535.458 698.667 533.726L698.763 533.706L698.859 533.687C702.984 532.975 706.676 530.678 709.137 527.287C711.591 523.9 712.64 519.674 712.041 515.538C711.44 511.394 709.232 507.639 705.908 505.089C702.587 502.537 698.395 501.389 694.236 501.879L694.14 501.899H694.044C611.167 513.998 539.316 550.938 492.598 579.86C530.647 513.164 571.749 464.446 614.593 415.074C661.921 360.523 711.42 303.475 756.054 217.562C757.064 215.686 757.699 213.627 757.907 211.507V211.487C758.113 209.375 757.884 207.238 757.258 205.202V205.182C756.629 203.15 755.604 201.256 754.24 199.623C752.871 197.983 751.203 196.631 749.311 195.65V195.669C747.416 194.686 745.342 194.086 743.217 193.912C741.092 193.737 738.959 193.978 736.932 194.638C734.903 195.298 733.025 196.36 731.411 197.752C729.792 199.145 728.466 200.847 727.514 202.757C693.232 268.749 655.77 316.128 618.299 360.38C628.915 295.379 630.812 234.526 630.812 231.049C630.812 226.787 629.107 222.677 626.093 219.663C623.08 216.65 618.989 214.964 614.727 214.964C610.465 214.964 606.374 216.65 603.36 219.663C600.347 222.677 598.661 226.787 598.661 231.049C598.661 230.702 598.151 332.172 575.66 411.061C527.548 466.935 478.586 527.264 434.829 621.2L435.517 620.035C434.367 621.644 433.529 623.46 433.052 625.384L433.511 624.085C405.765 684.245 380.546 760.531 358.358 855.41C350.461 833.527 341.893 810.274 332.778 776.875C332.067 773.508 331.183 770.172 330.104 766.903L330.237 767.343C326.371 752.677 322.653 737.241 319.253 721.265C299.194 627.066 286.757 493.924 337.879 394.977V394.958C395.814 283.117 471.41 239.439 600.093 164.914C657.755 131.505 723.457 93.1758 801.368 41.2184V41.2184ZM62.6736 328.554L59.4642 337.074C44.9972 375.397 34.0172 414.951 26.6635 455.249C14.5161 522.221 8.21117 619.812 48.8618 703.155C89.3304 786.124 171.998 837.196 234.529 865.974L234.701 866.146L235.885 866.681L235.923 866.7C271.129 882.689 307.649 895.615 345.081 905.309L359.007 908.9L353.754 895.509C337.926 855.246 324.464 814.107 313.445 772.271L313.388 772.023L313.311 771.794C303.233 741.862 275.543 709.626 244.558 672.799C201.386 621.47 148.467 558.263 123.671 483.082C123.575 482.739 123.602 482.37 123.767 482.051C123.938 481.72 124.236 481.479 124.588 481.363C124.941 481.247 125.307 481.276 125.639 481.439C125.971 481.603 126.223 481.89 126.346 482.242C131.337 497.265 137.354 511.927 144.361 526.123L144.552 526.485L203.772 618.794L203.983 619.042C218.192 637.329 232.749 654.664 246.66 671.214V671.233H246.679C261.487 688.83 275.364 705.339 286.95 720.902L306.512 747.17L300.016 715.076C288.385 657.447 283.089 603.531 284.179 554.701V554.682V554.662C284.666 526.949 287.654 499.332 293.1 472.154L294.055 467.417L290.082 464.685C265.512 447.709 237.284 431.856 204.995 413.774L204.975 413.754C166.331 392.019 123.001 367.75 70.315 333.521L62.6736 328.554ZM70.4297 350.657C119.328 382.002 161.469 406.124 197.793 426.555H197.812V426.575C228.72 443.883 255.06 458.94 278.143 474.601C273.175 500.926 269.981 527.566 269.508 554.358C269.508 554.364 269.508 554.371 269.508 554.378C269.508 554.384 269.508 554.39 269.508 554.397C268.57 596.548 273.32 642.745 281.543 690.968C273.731 681.324 266.473 671.975 257.893 661.778C244.042 645.298 229.659 628.187 215.731 610.275L157.408 519.341C150.741 505.801 144.987 491.829 140.234 477.504L140.214 477.447L140.195 477.389C138.802 473.419 135.89 470.136 132.114 468.276C128.342 466.423 123.973 466.122 119.983 467.436C115.985 468.752 112.669 471.59 110.737 475.326C108.805 479.064 108.41 483.416 109.648 487.437L109.668 487.514L109.706 487.571C135.66 566.351 190.153 630.902 233.344 682.255C264.327 719.079 290.987 751.478 299.404 776.474C309.308 814.008 321.855 850.761 335.586 887.064C303.732 878.096 272.452 867.153 242.303 853.48L241.979 853.327C180.871 825.379 100.358 775.231 62.0623 696.717C23.671 618.006 29.2524 523.217 41.1058 457.866L41.0867 457.885C47.752 421.36 57.7835 385.554 70.4297 350.657L70.4297 350.657ZM876.268 208.932C854.439 96.9208 817.521 14.0786 817.146 13.255C816.634 12.0842 815.871 11.0402 814.911 10.1967C813.951 9.35323 812.818 8.73096 811.591 8.37376C810.364 8.01665 809.074 7.93332 807.811 8.12972C806.548 8.32622 805.344 8.79757 804.284 9.5106C719.232 67.1914 649.327 107.686 587.658 143.426C456.216 219.565 376.874 265.545 315.823 383.658C304.694 405.452 296.077 428.44 290.137 452.179C266.698 436.565 240.17 421.682 209.972 404.757C169.441 382.03 123.479 356.287 67.0154 319.144C65.9561 318.438 64.7551 317.972 63.4967 317.78C62.2384 317.587 60.9529 317.672 59.7309 318.029C58.5089 318.386 57.3798 319.005 56.4228 319.845C55.4657 320.685 54.7041 321.723 54.1911 322.889C53.2176 325.135 30.3213 378.604 16.7483 452.872C4.20489 521.804 -1.97318 621.945 39.7383 707.483C81.4499 793.021 167.362 846.452 231.988 875.976C272.158 894.362 314.073 908.662 357.104 918.661C357.449 918.884 357.813 919.078 358.189 919.241L358.545 919.391C358.936 919.538 359.337 919.657 359.744 919.747H359.987H360.193C360.705 919.85 361.224 919.906 361.747 919.915C362.149 919.905 362.549 919.868 362.945 919.803C363.494 919.913 364.052 919.97 364.612 919.972C366.434 919.955 368.207 919.372 369.685 918.305C435.353 902.281 499.245 879.703 560.4 850.908C621.9 821.833 675.893 788.135 720.862 750.748C777.363 703.777 819.748 650.814 846.82 593.32C873.89 535.826 889.13 469.628 892.125 396.333C894.503 337.903 889.167 274.868 876.268 208.988V208.932ZM238.935 860.007C177.042 831.699 94.9848 780.964 55.4642 699.939C15.9433 618.912 21.878 522.722 33.8784 456.56C41.1528 416.697 52.0115 377.573 66.3226 339.664C119.229 374.036 162.756 398.43 201.398 420.165C233.692 438.25 261.737 454.014 285.906 470.713C280.373 498.323 277.34 526.375 276.845 554.529C275.741 604.01 281.113 658.452 292.833 716.525C281.058 700.705 267.091 684.1 252.283 666.502C238.372 649.952 223.863 632.691 209.767 614.55L150.944 522.871C144.069 508.942 138.163 494.554 133.271 479.812C132.513 477.651 130.938 475.874 128.884 474.862C126.83 473.85 124.461 473.685 122.287 474.401C120.111 475.117 118.305 476.657 117.253 478.691C116.202 480.725 115.991 483.09 116.664 485.278C142.032 562.28 195.762 626.176 238.953 677.528C269.937 714.354 297.102 746.667 306.35 774.131C317.442 816.244 330.988 857.67 346.92 898.198C309.898 888.611 273.774 875.839 238.953 860.025L238.935 860.007ZM831.075 585.887C772.158 711.003 647.604 790.4 553.361 834.882C495.46 862.152 435.075 883.799 373.036 899.528C396.831 785.87 424.67 701.792 455.241 635.199C458.855 632.354 471.08 622.975 489.82 610.75L661.327 533.58C673.197 530.678 685.328 528.263 697.609 526.466C699.854 526.079 701.86 524.831 703.198 522.987C704.537 521.143 705.103 518.849 704.776 516.595C704.449 514.34 703.255 512.302 701.448 510.915C699.641 509.528 697.364 508.9 695.101 509.167C598.405 523.283 513.821 573.007 471.567 601.744C513.896 519.951 560.774 465.902 609.057 410.262C656.404 355.689 705.36 299.262 749.599 214.08C750.149 213.058 750.49 211.938 750.604 210.784C750.716 209.63 750.599 208.465 750.257 207.357C749.915 206.249 749.357 205.22 748.613 204.33C747.87 203.439 746.958 202.706 745.928 202.172C744.899 201.638 743.773 201.314 742.617 201.219C741.462 201.125 740.298 201.261 739.195 201.62C738.093 201.978 737.073 202.554 736.195 203.311C735.315 204.068 734.596 204.992 734.079 206.03C694.427 282.394 650.582 335.488 607.616 385.231C623.267 310.982 623.473 234.749 623.473 231.042C623.473 228.723 622.551 226.498 620.912 224.859C619.273 223.22 617.048 222.298 614.729 222.298C612.411 222.298 610.187 223.22 608.548 224.859C606.908 226.498 605.987 228.723 605.987 231.042C605.987 232.052 605.706 333.691 582.435 414.305C534.021 470.47 485.234 530.378 441.481 624.304C440.869 625.161 440.424 626.126 440.171 627.15C410.124 692.3 382.509 773.701 359.07 881.237C350.365 858.452 337.597 822.376 325.708 778.812C325.039 775.563 324.183 772.357 323.143 769.208C319.249 754.436 315.505 738.897 312.079 722.797C291.86 627.842 278.792 493.329 331.362 391.597C390.147 278.107 467.729 233.101 596.42 158.57C656.198 123.936 723.726 84.8648 805.258 30.048C828.895 89.1205 846.953 150.276 859.194 212.713C878.945 313.809 890.085 460.604 831.112 585.925" fill="black"/>
</svg>
