<?xml version="1.0" encoding="UTF-8" standalone="no"?>
<svg
   width="1000"
   height="1000"
   viewBox="0 0 1000 999.99999"
   fill="none"
   version="1.1"
   id="svg13"
   sodipodi:docname="bio.svg"
   inkscape:version="1.2.1 (9c6d41e, 2022-07-14)"
   xmlns:inkscape="http://www.inkscape.org/namespaces/inkscape"
   xmlns:sodipodi="http://sodipodi.sourceforge.net/DTD/sodipodi-0.dtd"
   xmlns="http://www.w3.org/2000/svg"
   xmlns:svg="http://www.w3.org/2000/svg">
  <sodipodi:namedview
     id="namedview2420"
     pagecolor="#ffffff"
     bordercolor="#111111"
     borderopacity="1"
     inkscape:showpageshadow="0"
     inkscape:pageopacity="0"
     inkscape:pagecheckerboard="1"
     inkscape:deskcolor="#d1d1d1"
     showgrid="false"
     inkscape:zoom="0.11754413"
     inkscape:cx="-2173.6518"
     inkscape:cy="510.4466"
     inkscape:window-width="1309"
     inkscape:window-height="456"
     inkscape:window-x="274"
     inkscape:window-y="1303"
     inkscape:window-maximized="0"
     inkscape:current-layer="svg13" />
  <defs
     id="defs17" />
  <g
     id="g125"
     transform="matrix(9.7809947,0,0,9.7809947,20.785771,20.461864)">
    <path
       id="path11"
       style="color:#000000;fill:#000000;stroke-miterlimit:10;-inkscape-stroke:none"
       d="m 85.460937,1.6777344 c -0.237581,0.036971 -0.464483,0.1275002 -0.664062,0.2617187 h -0.002 C 76.122375,7.8210491 68.998355,11.94946 62.693359,15.603516 49.25472,23.387938 40.936418,28.228033 34.609375,40.46875 v 0.002 l -0.002,0.002 c -1.014824,1.987371 -1.737947,4.101476 -2.341797,6.248047 C 30.018573,45.272162 27.60791,43.878685 24.820312,42.316406 20.677229,39.993164 16.001449,37.37442 10.253906,33.59375 10.054494,33.460809 9.8285513,33.372189 9.5917969,33.335937 9.3549494,33.299667 9.1128447,33.315607 8.8828125,33.382807 8.6540533,33.449637 8.4416388,33.567179 8.2617188,33.724604 8.0815344,33.882616 7.9363665,34.07942 7.8398437,34.298823 v 0.002 0.002 C 7.719291,34.58083 5.3639978,40.078657 3.9609375,47.755859 2.6633698,54.886649 1.9966009,65.271209 6.375,74.25 c 4.38845,8.999464 13.327714,14.523859 20.017578,17.580078 4.118653,1.88518 8.416065,3.348425 12.826172,4.380859 0.03033,0.01563 0.05884,0.03538 0.08984,0.04883 l 0.0039,0.002 0.05469,0.02148 0.01367,0.0059 c 0.07293,0.02742 0.14796,0.04945 0.22461,0.06641 l 0.08008,0.01758 h 0.105469 0.01367 c 0.05157,0.0058 0.101992,0.0167 0.154297,0.01758 h 0.01563 0.01563 c 0.03763,-9.15e-4 0.07544,-0.0082 0.113282,-0.01172 0.05274,0.0054 0.105092,0.01739 0.158203,0.01758 h 0.0039 0.0059 c 0.341798,-0.0031 0.674328,-0.112607 0.951172,-0.3125 l -0.261719,0.119141 C 47.723549,94.553016 54.303766,92.229057 60.601599,89.263765 66.938388,86.267957 72.511883,82.7914 77.166053,78.921968 83.013979,74.060372 87.423475,68.558904 90.244178,62.568452 93.06018,56.587766 94.635665,49.719606 94.945349,42.140718 95.19001,36.128562 94.641009,29.656802 93.326209,22.906343 v -0.0293 l -0.01367,-0.06641 v -0.0039 C 92.188057,17.036852 90.675671,12.024503 89.439453,8.4394531 88.821344,6.6469283 88.273169,5.2117352 87.875,4.2167969 87.477841,3.2243838 87.264667,2.7463226 87.214844,2.6367188 87.118526,2.4188607 86.975914,2.2255749 86.796875,2.0683594 86.616145,1.909479 86.404624,1.7918237 86.173828,1.7246094 h -0.002 c -0.230787,-0.06714 -0.473345,-0.08383 -0.710938,-0.046875 z m 0.230469,1.4824219 c 0.02061,-0.00321 0.04229,-0.00197 0.0625,0.00391 0.02,0.00583 0.03727,0.017651 0.05273,0.03125 h 0.002 c 0.01557,0.013677 0.0269,0.029931 0.03516,0.048828 l 0.002,0.00586 0.002,0.00391 c -0.02997,-0.065889 0.244701,0.5448449 0.634766,1.5195312 0.390064,0.9746863 0.929785,2.387384 1.539062,4.1542969 1.216739,3.5285606 2.705653,8.4711266 3.8125,14.1425776 0.0017,0.0085 0.0042,0.01497 0.0059,0.02344 v 0.0059 c 1.308958,6.685337 1.847777,13.072163 1.607422,18.978516 -0.302715,7.408297 -1.841156,14.076061 -4.560547,19.851562 -2.714892,5.765737 -6.974426,11.094897 -12.679688,15.837891 -4.541021,3.775361 -10.007495,7.189285 -16.246094,10.138672 -6.206457,2.922134 -12.691042,5.213592 -19.355468,6.839844 l -0.142578,0.03516 -0.119141,0.08594 c -0.02415,0.01743 -0.05275,0.02621 -0.08203,0.02734 -0.0063,-3.19e-4 -0.01325,-6.88e-4 -0.01953,-0.002 l -0.134765,-0.02734 -0.136719,0.02344 c -0.0037,-4.31e-4 -0.0076,-0.0011 -0.01172,-0.002 l -0.06445,-0.01172 -0.101562,-0.06445 -0.126953,-0.0293 C 35.315584,93.770329 31.078757,92.323716 27.017578,90.464844 20.492855,87.484068 11.865271,82.083116 7.7246094,73.591797 3.5742842,65.080717 4.1704284,54.989728 5.4375,48.025391 v -0.002 C 6.809137,40.519612 9.1320339,35.088939 9.2128906,34.902344 l 0.00195,-0.002 c 1.79e-5,-4.2e-5 -1.78e-5,-0.0019 0,-0.002 0.00828,-0.01737 0.020745,-0.03228 0.035156,-0.04492 0.015348,-0.01347 0.034423,-0.02338 0.054687,-0.0293 0.019848,-0.0058 0.040095,-0.007 0.060547,-0.0039 0.020565,0.0031 0.039453,0.01003 0.056641,0.02148 l 0.00195,0.002 h 0.00195 c 5.7959614,3.812756 10.5184634,6.457693 14.6621094,8.78125 3.087227,1.730203 5.784385,3.244809 8.146484,4.818359 l 0.884766,0.589844 0.257812,-1.03125 c 0.593514,-2.372004 1.454437,-4.67004 2.566406,-6.847656 v 0.0039 C 42.099904,29.247344 50.006779,24.684752 63.445312,16.900391 69.749508,13.246799 76.917248,9.0955536 85.634766,3.1835938 l 0.002,-0.00195 c 0.01669,-0.010786 0.03493,-0.01841 0.05469,-0.021484 z m -0.02344,0.3613281 -0.771485,0.5175781 C 76.582879,9.6285507 69.699776,13.611178 63.587891,17.152344 50.430413,24.772346 42.296018,29.508815 36.199219,41.279297 v 0.002 c -5.521746,10.68556 -4.122601,24.576502 -2.039063,34.361328 0.353004,1.658808 0.737732,3.260277 1.138672,4.78125 l 0.0059,0.02148 0.0078,0.02148 c 0.09721,0.294457 0.177657,0.59461 0.240234,0.898437 l 0.0039,0.02344 0.0059,0.02148 c 1.223719,4.484116 2.538611,8.195314 3.435547,10.542969 l 0.896484,2.349609 0.535156,-2.457031 c 2.387066,-10.951575 5.19455,-19.220376 8.240235,-25.824219 l 0.03125,-0.06445 0.01563,-0.06836 c 0.0031,-0.01252 0.01,-0.02451 0.01758,-0.03516 l 0.03906,-0.05664 0.0293,-0.0625 c 4.434628,-9.520094 9.360503,-15.567674 14.300782,-21.298828 l 0.105468,-0.123047 0.04687,-0.158203 c 2.425342,-8.40174 2.4375,-18.701144 2.4375,-18.94336 0,-0.03845 0.01391,-0.07641 0.04102,-0.103515 0.02711,-0.02711 0.0633,-0.04102 0.101562,-0.04102 0.03845,0 0.07446,0.01391 0.101563,0.04102 0.02711,0.02711 0.04297,0.06507 0.04297,0.103515 0,0.351296 -0.02637,8.118269 -1.605469,15.609375 l -0.599609,2.845704 1.90039,-2.201172 C 70.07616,36.37037 74.610448,30.879933 78.703125,22.998047 l 0.0039,-0.0059 0.002,-0.0039 c 0.0085,-0.01698 0.02083,-0.03258 0.03516,-0.04492 0.01455,-0.01254 0.03085,-0.02149 0.04883,-0.02734 0.01833,-0.006 0.03773,-0.0094 0.05664,-0.0078 0.01914,0.0016 0.03802,0.007 0.05469,0.01563 0.01719,0.0089 0.0328,0.02063 0.04492,0.03516 0.01218,0.01458 0.02174,0.03261 0.02734,0.05078 0.0055,0.01787 0.0058,0.03726 0.0039,0.05664 h 0.002 c -0.0019,0.01925 -0.0084,0.03771 -0.01758,0.05469 l -0.002,0.0039 -0.0039,0.0059 C 74.477899,31.75926 69.530192,37.461546 64.689494,43.041044 59.75302,48.729729 54.90284,54.322197 50.533244,62.765653 l -1.361328,2.630859 2.449219,-1.666015 c 4.264561,-2.900395 12.82973,-7.919598 22.519531,-9.339844 h 0.002 c 0.03692,-0.0039 0.07424,0.0049 0.103516,0.02734 v 0.002 c 0.02982,0.02288 0.04929,0.05453 0.05469,0.0918 0.0054,0.03752 -0.0053,0.07505 -0.02734,0.105468 -0.022,0.03031 -0.05454,0.05217 -0.0918,0.05859 -1.274038,0.187084 -2.531371,0.435987 -3.759766,0.736328 l -0.06641,0.01758 -17.650391,7.941407 -0.04883,0.03125 c -1.938014,1.26426 -3.203906,2.235222 -3.589844,2.539062 l -0.142578,0.111328 -0.07422,0.166016 c -3.153435,6.869032 -6.015393,15.52108 -8.457031,27.183594 l -0.248047,1.175781 1.166016,-0.294922 C 47.699878,92.663407 53.917742,90.433448 59.880859,87.625 h 0.002 c 9.715867,-4.585779 22.604645,-12.765726 28.75,-25.814453 l 0.0039,0.002 c 6.14086,-13.049774 4.965007,-28.201244 2.929687,-38.619141 v -0.002 C 90.305806,16.762 88.445698,10.465755 86.011719,4.3828125 Z m -0.75,2.28125 c 2.234985,5.7318936 3.991836,11.6392916 5.175781,17.6777346 2.003188,10.253432 3.104352,25.116156 -2.8125,37.691406 l -0.0039,-0.002 C 81.375218,73.70366 68.796714,81.75795 59.242187,86.267578 c -5.484195,2.582891 -11.203689,4.617237 -17.058593,6.181641 2.337998,-10.779041 5.019223,-18.992642 7.96289,-25.4375 0.406547,-0.317685 1.513835,-1.16284 3.292969,-2.326172 l 17.398438,-7.828125 c 1.173794,-0.285233 2.369551,-0.524066 3.580078,-0.701172 l 0.0098,-0.002 0.0098,-0.002 c 0.421744,-0.07277 0.799179,-0.307609 1.050781,-0.654297 0.250881,-0.346314 0.358144,-0.778342 0.296875,-1.201172 -0.0614,-0.423736 -0.287172,-0.80764 -0.626953,-1.068359 -0.339608,-0.260912 -0.768169,-0.378288 -1.193359,-0.328125 l -0.0098,0.002 h -0.0098 C 65.472006,54.139253 58.125997,57.916034 53.34961,60.873 c 3.890076,-6.819016 8.092368,-11.799907 12.472657,-16.847656 4.838728,-5.577228 9.899474,-11.409711 14.46289,-20.19336 0.103259,-0.191819 0.168146,-0.402389 0.189453,-0.61914 v -0.002 c 0.02105,-0.215972 -0.0024,-0.434415 -0.06641,-0.642578 v -0.002 C 80.34395,22.358471 80.239057,22.16488 80.099606,21.997907 79.959724,21.830233 79.789111,21.691944 79.5957,21.591657 v 0.002 c -0.193727,-0.100546 -0.405788,-0.161858 -0.623047,-0.179688 -0.217288,-0.01785 -0.435308,0.0068 -0.642578,0.07422 -0.207423,0.06755 -0.399402,0.176099 -0.564453,0.31836 -0.16547,0.142462 -0.301105,0.316502 -0.398438,0.511718 -3.50489,6.746987 -7.335018,11.590961 -11.166015,16.115235 1.085334,-6.645626 1.279297,-12.867216 1.279297,-13.222657 0,-0.435749 -0.174329,-0.855969 -0.482422,-1.164062 -0.308093,-0.308093 -0.72636,-0.480469 -1.16211,-0.480469 -0.435733,0 -0.854016,0.172376 -1.162109,0.480469 -0.308093,0.308093 -0.480469,0.728313 -0.480469,1.164062 0,-0.03544 -0.05208,10.338701 -2.351562,18.404297 -4.918943,5.712425 -9.924766,11.880464 -14.398438,21.484375 l 0.07031,-0.11914 c -0.11759,0.16455 -0.203254,0.350198 -0.251953,0.546875 l 0.04687,-0.132813 C 44.471929,71.545162 41.893489,79.344613 39.625,89.044922 38.81768,86.807649 37.941619,84.43025 37.009766,81.015625 36.937055,80.671411 36.84667,80.330338 36.736328,79.996094 L 36.75,80.041016 C 36.354741,78.541591 35.974548,76.963467 35.626953,75.330078 33.576203,65.69923 32.304564,52.086958 37.53125,41.970703 v -0.002 C 43.454532,30.534227 51.183355,26.068649 64.339844,18.449219 70.235126,15.033551 76.952432,11.114812 84.917969,5.8027344 Z M 9.3945313,35.179687 9.0664063,36.050781 C 7.5873122,39.968816 6.4647246,44.012803 5.7128906,48.132812 4.4709495,54.979984 3.826339,64.95763 7.9824219,73.478516 12.119895,81.96123 20.571705,87.182812 26.964844,90.125 l 0.01758,0.01758 0.121094,0.05469 0.0039,0.002 c 3.599384,1.634686 7.33319,2.956224 11.160156,3.947265 l 1.423828,0.367188 -0.537109,-1.369141 C 37.536109,89.02818 36.159752,84.82213 35.033203,80.544922 l -0.0059,-0.02539 -0.0078,-0.02344 C 33.989061,77.435852 31.15815,74.140137 27.990234,70.375 23.576406,65.127145 18.165966,58.664876 15.630859,50.978516 c -0.0098,-0.03511 -0.0071,-0.07288 0.0098,-0.105469 0.0175,-0.03384 0.04792,-0.05844 0.08398,-0.07031 0.03601,-0.01186 0.07349,-0.0089 0.107422,0.0078 0.0339,0.01669 0.05965,0.04608 0.07227,0.08203 0.510323,1.536005 1.125442,3.034969 1.841797,4.486328 l 0.01953,0.03711 6.054687,9.4375 0.02148,0.02539 c 1.452771,1.869692 2.941103,3.64191 4.363281,5.333985 v 0.002 h 0.002 c 1.513918,1.799102 2.932666,3.486989 4.117188,5.078125 l 2,2.685547 -0.664063,-3.28125 C 32.471047,68.805404 31.9296,63.293057 32.041016,58.300781 v -0.002 -0.002 c 0.04981,-2.83341 0.355265,-5.65694 0.912109,-8.435547 l 0.09766,-0.484375 -0.40625,-0.279297 c -2.51196,-1.735601 -5.398014,-3.356353 -8.699219,-5.205078 l -0.002,-0.002 C 19.992396,41.66828 15.562325,39.187045 10.175781,35.6875 Z M 10.1875,37.439453 c 4.999365,3.204641 9.307814,5.670891 13.021484,7.759766 h 0.002 v 0.002 c 3.159951,1.769618 5.852936,3.308974 8.212891,4.910156 -0.507858,2.691478 -0.834441,5.415059 -0.882812,8.154297 -1.4e-5,6.21e-4 1.3e-5,0.0013 0,0.002 -1.2e-5,6.49e-4 1.1e-5,0.0013 0,0.002 -0.0959,4.309428 0.389763,9.032623 1.230468,13.962891 -0.7987,-0.986008 -1.540718,-1.941873 -2.417968,-2.984375 -1.416128,-1.684875 -2.886643,-3.434306 -4.310547,-5.265625 L 19.080078,54.685547 C 18.39842,53.301222 17.810218,51.87271 17.324219,50.408203 l -0.002,-0.0059 -0.002,-0.0059 c -0.142387,-0.40585 -0.440075,-0.741534 -0.826171,-0.93164 -0.385654,-0.189483 -0.832287,-0.220269 -1.240235,-0.08594 -0.408735,0.13453 -0.747811,0.424682 -0.945312,0.806641 -0.197537,0.38221 -0.237961,0.827137 -0.111328,1.238281 l 0.002,0.0078 0.0039,0.0059 c 2.653494,8.054403 8.224787,14.654052 12.640625,19.904297 3.167678,3.764855 5.893379,7.07726 6.753906,9.632812 1.012579,3.837536 2.295356,7.595071 3.699219,11.306641 -3.256695,-0.91685 -6.45471,-2.035692 -9.537109,-3.433594 l -0.0332,-0.01563 C 21.478904,85.97463 13.247335,80.847531 9.3320313,72.820312 5.4069422,64.773015 5.9775768,55.081806 7.1894531,48.400391 l -0.00195,0.002 C 7.8689551,44.668071 8.8945735,41.007267 10.187503,37.4395 Z M 92.5757,22.9496 C 90.3439,11.4977 86.5694,3.02799 86.5311,2.94378 86.4788,2.82408 86.4008,2.71734 86.3026,2.63111 86.2045,2.54487 86.0886,2.48125 85.9632,2.44473 85.8377,2.40822 85.7058,2.3997 85.5767,2.41978 85.4476,2.43987 85.3245,2.48806 85.2161,2.56096 76.5205,8.45819 69.3734,12.5983 63.0685,16.2523 49.6299,24.0367 41.5181,28.7377 35.2763,40.8135 34.1385,43.0417 33.2575,45.3919 32.6502,47.819 30.2538,46.2226 27.5416,44.701 24.4542,42.9706 20.3103,40.647 15.6112,38.0151 9.83843,34.2176 9.73013,34.1454 9.60734,34.0978 9.47868,34.0781 9.35003,34.0584 9.21861,34.0671 9.09367,34.1036 8.96873,34.1401 8.85329,34.2034 8.75545,34.2893 8.6576,34.3751 8.57973,34.4813 8.52729,34.6005 8.42776,34.8301 6.08686,40.2967 4.69917,47.8898 3.41674,54.9374 2.7851,65.1757 7.04964,73.921 11.3142,82.6664 20.0978,88.1291 26.7051,91.1476 c 4.1069,1.8798 8.3923,3.3418 12.7917,4.3641 0.0353,0.0228 0.0725,0.0426 0.111,0.0593 l 0.0364,0.0153 c 0.0399,0.015 0.0809,0.0272 0.1225,0.0364 h 0.0249 0.021 c 0.0524,0.0105 0.1055,0.0163 0.1589,0.0172 0.0411,-10e-4 0.082,-0.0048 0.1225,-0.0115 0.0561,0.0113 0.1132,0.0171 0.1704,0.0173 0.1863,-0.0017 0.3676,-0.0613 0.5187,-0.1704 6.7138,-1.6383 13.2461,-3.9467 19.4985,-6.8906 6.2877,-2.9726 11.8079,-6.4179 16.4055,-10.2403 5.7766,-4.8023 10.11,-10.2172 12.8778,-16.0953 2.7677,-5.8781 4.3258,-12.6462 4.632,-20.1398 C 94.44,36.1355 93.8945,29.6909 92.5757,22.9553 Z M 27.4153,89.5149 C 21.0874,86.6208 12.698,81.4337 8.65745,73.1497 4.61686,64.8656 5.22362,55.0312 6.45053,48.2669 7.19426,44.1913 8.30445,40.1913 9.7676,36.3155 c 5.4091,3.5142 9.8593,6.0082 13.81,8.2304 3.3017,1.849 6.169,3.4607 8.64,5.168 -0.5657,2.8228 -0.8758,5.6908 -0.9264,8.5692 -0.1129,5.0589 0.4364,10.625 1.6346,16.5624 C 31.7219,73.2281 30.294,71.5304 28.78,69.7312 27.3578,68.0391 25.8744,66.2744 24.4332,64.4196 l -6.014,-9.3731 c -0.7029,-1.4241 -1.3067,-2.8951 -1.8069,-4.4024 -0.0775,-0.2209 -0.2385,-0.4026 -0.4485,-0.506 -0.21,-0.1035 -0.4522,-0.1204 -0.6745,-0.0472 -0.2224,0.0732 -0.4071,0.2307 -0.5146,0.4386 -0.1075,0.208 -0.1291,0.4498 -0.0602,0.6735 2.5936,7.8726 8.0869,14.4053 12.5027,19.6555 3.1678,3.765 5.9451,7.0687 6.8906,9.8766 1.134,4.3055 2.5189,8.5409 4.1478,12.6845 -3.7851,-0.9802 -7.4784,-2.286 -11.0384,-3.9028 z M 87.9552,61.4892 c -6.0236,12.7917 -18.7579,20.9092 -28.3932,25.457 -5.9198,2.788 -12.0935,5.0012 -18.4363,6.6093 2.4328,-11.6203 5.279,-20.2163 8.4046,-27.0247 0.3695,-0.2909 1.6193,-1.2498 3.5353,-2.4997 l 17.5347,-7.8898 c 1.2136,-0.2967 2.4539,-0.5436 3.7095,-0.7273 0.2295,-0.0396 0.4346,-0.1672 0.5714,-0.3557 0.1369,-0.1885 0.1947,-0.423 0.1613,-0.6535 -0.0334,-0.2305 -0.1555,-0.4389 -0.3403,-0.5807 -0.1847,-0.1418 -0.4175,-0.206 -0.6489,-0.1787 -9.8861,1.4432 -18.5339,6.5269 -22.8539,9.465 4.3277,-8.3625 9.1205,-13.8884 14.0569,-19.577 4.8407,-5.5795 9.8459,-11.3485 14.3689,-20.0575 0.0562,-0.1044 0.0911,-0.2189 0.1027,-0.3369 0.0115,-0.118 -5e-4,-0.2371 -0.0355,-0.3504 -0.0349,-0.1133 -0.092,-0.2185 -0.168,-0.3095 -0.076,-0.0911 -0.1693,-0.166 -0.2746,-0.2206 -0.1052,-0.0546 -0.2203,-0.0877 -0.3385,-0.0974 -0.1181,-0.0097 -0.2371,0.0042 -0.3498,0.0409 -0.1127,0.0367 -0.217,0.0955 -0.3068,0.1729 -0.0899,0.0774 -0.1634,0.1719 -0.2163,0.278 -4.054,7.8074 -8.5367,13.2357 -12.9295,18.3214 1.6002,-7.5912 1.6212,-15.3852 1.6212,-15.7642 0,-0.2371 -0.0942,-0.4645 -0.2618,-0.6321 -0.1676,-0.1676 -0.395,-0.2618 -0.6321,-0.2618 -0.237,0 -0.4644,0.0942 -0.632,0.2618 -0.1676,0.1676 -0.2618,0.395 -0.2618,0.6321 0,0.1033 -0.0287,10.4948 -2.4079,18.7367 -4.9498,5.7422 -9.9378,11.8672 -14.411,21.4701 -0.0626,0.0876 -0.1081,0.1863 -0.134,0.2909 -3.072,6.6609 -5.8953,14.9833 -8.2917,25.9777 C 38.8078,89.356 37.5024,85.6676 36.2869,81.2136 36.2185,80.8815 36.131,80.5537 36.0247,80.2317 35.6266,78.7215 35.2438,77.1328 34.8935,75.4867 32.8263,65.7786 31.4903,52.0261 36.865,41.6251 42.8751,30.022 50.807,25.4206 63.9643,17.8007 70.0759,14.2597 76.9799,10.2651 85.3157,4.66069 87.7323,10.7002 89.5785,16.9527 90.8301,23.3362 92.8494,33.6721 93.9883,48.6803 87.959,61.493" />
  </g>
</svg>
