<?xml version="1.0" encoding="UTF-8" standalone="no"?>
<svg
   width="1000"
   height="1000"
   viewBox="0 0 1000 1000"
   fill="none"
   version="1.1"
   id="svg29"
   sodipodi:docname="boissonsSansAlcool.svg"
   inkscape:version="1.2.1 (9c6d41e, 2022-07-14)"
   xmlns:inkscape="http://www.inkscape.org/namespaces/inkscape"
   xmlns:sodipodi="http://sodipodi.sourceforge.net/DTD/sodipodi-0.dtd"
   xmlns="http://www.w3.org/2000/svg"
   xmlns:svg="http://www.w3.org/2000/svg">
  <sodipodi:namedview
     id="namedview2550"
     pagecolor="#ffffff"
     bordercolor="#111111"
     borderopacity="1"
     inkscape:showpageshadow="0"
     inkscape:pageopacity="0"
     inkscape:pagecheckerboard="1"
     inkscape:deskcolor="#d1d1d1"
     showgrid="false"
     inkscape:zoom="0.21740698"
     inkscape:cx="-733.64708"
     inkscape:cy="657.75256"
     inkscape:window-width="1309"
     inkscape:window-height="674"
     inkscape:window-x="250"
     inkscape:window-y="1286"
     inkscape:window-maximized="0"
     inkscape:current-layer="svg29" />
  <defs
     id="defs33" />
  <g
     id="g203"
     transform="matrix(9.747299,0,0,9.747299,49.99259,37.963511)">
    <g
       id="path25" />
    <g
       id="path27">
      <path
         id="path239"
         style="color:#000000;fill:#000000;stroke-miterlimit:10;-inkscape-stroke:none"
         d="m 81.148437,21.167969 c -0.440779,-0.07564 -0.894917,0.02872 -1.257812,0.289062 v 0.002 l -6.625,4.785157 H 57.628906 c -0.227081,-0.01036 -0.454984,0.02673 -0.667969,0.107421 -0.212884,0.08065 -0.406955,0.203567 -0.570312,0.361329 -0.163429,0.157831 -0.292474,0.347713 -0.380859,0.55664 -0.0883,0.208734 -0.134766,0.433261 -0.134766,0.660156 0,0.226896 0.04628,0.451185 0.134766,0.660157 0.08832,0.208785 0.216939,0.396563 0.380859,0.554687 0.163357,0.157762 0.357428,0.280679 0.570312,0.361328 0.160723,0.06089 0.33321,0.07272 0.503907,0.08203 l -2.314453,4.279296 c -0.536027,0.990177 -0.817573,2.098744 -0.81836,3.226563 v 47.835937 c 0.0017,1.499522 0.496935,2.956569 1.408203,4.142579 v 0.002 l 2.425782,3.121093 c 0.622792,0.813199 1.422208,1.471739 2.33789,1.923829 0.91517,0.451781 1.922168,0.684612 2.941406,0.68164 h 19.791016 c 1.0195,0.003 2.025959,-0.229889 2.941406,-0.68164 0.915127,-0.451649 1.714955,-1.109776 2.337891,-1.921875 l 2.410156,-3.126954 h 0.002 c 0.910029,-1.186274 1.403443,-2.643633 1.40625,-4.142578 V 37.105469 c -0.0018,-1.127241 -0.283418,-2.236393 -0.818359,-3.226563 l 0.0918,0.355469 v -0.195313 l -0.0918,-0.166015 -2.322266,-4.294922 c 0.395327,-0.04211 0.776726,-0.190947 1.050782,-0.480469 0.296899,-0.314024 0.46289,-0.730238 0.46289,-1.162109 0,-0.43185 -0.165991,-0.848085 -0.46289,-1.16211 v -0.002 C 89.94708,26.45766 89.538298,26.269806 89.105469,26.25 h -0.01563 -10.070313 l 2.822266,-2.042969 c 0.363245,-0.260416 0.607903,-0.654365 0.68164,-1.09375 0.07399,-0.439826 -0.02879,-0.890985 -0.285156,-1.255859 -0.256407,-0.364756 -0.648925,-0.614002 -1.089844,-0.689453 z m -0.253906,1.478515 c 0.04474,0.0077 0.0863,0.03384 0.115235,0.07422 0.02904,0.04133 0.04181,0.09336 0.0332,0.144531 -0.0087,0.05162 -0.03742,0.09526 -0.07617,0.123047 v 0.002 L 74.386719,27.75 h 14.654297 c 0.04194,0.003 0.08184,0.01952 0.113281,0.05273 0.0325,0.03438 0.05273,0.08286 0.05273,0.132813 0,0.05013 -0.02023,0.09648 -0.05273,0.130859 -0.03144,0.03321 -0.07134,0.04974 -0.113281,0.05273 h -2.341797 l 3.408203,6.300781 v 0.0039 l 0.08984,0.167969 c 0.416658,0.771229 0.635316,1.636067 0.636718,2.515625 v 47.818359 c -0.0022,1.170853 -0.388886,2.306546 -1.097656,3.230469 h 0.002 l -2.410156,3.125 -0.002,0.002 c -0.483819,0.631281 -1.10386,1.140494 -1.8125,1.490234 -0.708774,0.349764 -1.487352,0.529872 -2.275391,0.527344 h -19.794922 -0.002 c -0.7877,0.0025 -1.564985,-0.17761 -2.273437,-0.527344 -0.708317,-0.349709 -1.32714,-0.859034 -1.810547,-1.490234 l -0.002,-0.002 -2.425782,-3.123047 c -0.708935,-0.922675 -1.095913,-2.058529 -1.097656,-3.228516 v -47.833984 -0.002 c 9.32e-4,-0.878516 0.219851,-1.743612 0.636719,-2.513672 l 3.498047,-6.466797 h -2.390625 l -0.01563,0.002 c -0.02292,0.001 -0.04695,-0.0036 -0.06836,-0.01172 -0.02151,-0.0082 -0.04095,-0.02007 -0.05859,-0.03711 -0.01708,-0.01648 -0.03289,-0.03869 -0.04297,-0.0625 -0.0099,-0.02343 -0.01563,-0.04811 -0.01563,-0.07422 0,-0.0261 0.0055,-0.05231 0.01563,-0.07617 0.01002,-0.02367 0.0254,-0.04553 0.04297,-0.0625 0.01764,-0.01704 0.03708,-0.02896 0.05859,-0.03711 0.02141,-0.0081 0.04544,-0.01081 0.06836,-0.0098 H 57.576172 73.75 l 7.015625,-5.06836 c 0.03911,-0.02805 0.08369,-0.03706 0.128906,-0.0293 z m -20.507812,5.47461 -4.060547,7.507812 h 23.625 c 0.04196,0.003 0.08213,0.0198 0.113281,0.05273 0.03239,0.03424 0.05273,0.0807 0.05273,0.130859 0,0.05016 -0.02062,0.09693 -0.05273,0.130859 v 0.002 c -0.03223,0.03408 -0.07361,0.05074 -0.117187,0.05273 H 56.310547 l -0.0918,0.644531 c -0.02697,0.188175 -0.02344,0.342291 -0.02344,0.462891 v 0.002 l 0.01367,21.017578 1.371094,-2.03125 c 1.510638,-2.240293 3.925941,-3.621123 6.822266,-4.552734 2.896325,-0.931612 6.240294,-1.394746 9.460937,-1.835938 4.26079,-0.583798 8.343578,-1.120454 11.515625,-2.691406 3.397109,-1.682542 5.111328,-4.518221 5.111328,-8.416016 V 37.1036 37.0997 c -0.0062,-0.816175 -0.214079,-1.616745 -0.605468,-2.332031 l -3.595704,-6.646484 z m 0.894531,1.5 h 24.113281 l 3.173828,5.863281 v 0.002 c 0.27201,0.497113 0.417521,1.055977 0.421875,1.625 v 1.486328 c 0,3.494398 -1.267259,5.581411 -4.277343,7.072266 -2.826147,1.399645 -6.791933,1.965028 -11.052735,2.548828 -3.22075,0.441207 -6.640153,0.90492 -9.716797,1.894531 -2.440502,0.784995 -4.533356,2.086816 -6.238281,3.826172 l -0.0098,-16.441406 H 80 80.01563 c 0.43282,-0.01981 0.841498,-0.209122 1.138672,-0.523438 0.297482,-0.31427 0.46289,-0.730466 0.46289,-1.162109 0,-0.431643 -0.165682,-0.847948 -0.46289,-1.162109 -0.29716,-0.31412 -0.705852,-0.501679 -1.138672,-0.521485 H 80 58.841797 Z m 29.207031,12.990234 -1.353515,1.835938 c -0.854776,1.159621 -2.038551,2.122303 -3.607422,2.90039 -3.098269,1.534306 -7.400777,2.150523 -11.619141,2.72461 h -0.002 c -4.383882,0.60099 -8.707445,1.169316 -12.050781,2.863281 -3.343336,1.693965 -5.648438,4.677279 -5.648438,9.582031 v 17.542969 l 1.373047,-2.035156 c 1.51066,-2.241203 3.925977,-3.621365 6.822266,-4.552735 2.896289,-0.931369 6.240222,-1.394735 9.460937,-1.835937 4.260778,-0.583797 8.343391,-1.120305 11.515625,-2.69336 3.396883,-1.682536 5.111328,-4.516361 5.111328,-8.414062 v -0.002 z m -1.5,4.128906 0.002,13.789063 c 0,3.494292 -1.267033,5.579252 -4.277343,7.070312 -2.82596,1.401343 -6.791921,1.96698 -11.052735,2.550782 -3.220678,0.441197 -6.640117,0.903199 -9.716797,1.892578 -2.440059,0.784658 -4.531504,2.08688 -6.236328,3.826172 V 62.517578 c 0,-4.462639 1.83609,-6.729158 4.826172,-8.244141 2.990083,-1.514982 7.192162,-2.115788 11.576172,-2.716796 v 0.002 c 4.220028,-0.574313 8.642459,-1.162897 12.083984,-2.867188 1.088048,-0.539621 1.986941,-1.213774 2.794922,-1.951172 z m 1.494141,17.802735 -1.353516,1.835937 c -0.854802,1.159658 -2.038512,2.122426 -3.607422,2.900391 -3.098268,1.534305 -7.400776,2.14857 -11.61914,2.722656 h -0.002 c -4.383934,0.600055 -8.707458,1.169316 -12.050782,2.863281 -3.343323,1.693965 -5.648437,4.678185 -5.648437,9.582032 v 0.480468 c 0.0011,1.083157 0.358558,2.135308 1.017578,2.992188 l 2.410156,3.126953 c 0.450124,0.587741 1.027519,1.063688 1.689453,1.390625 0.661481,0.326713 1.390042,0.495977 2.126953,0.494141 h 19.794922 c 0.736754,0.0014 1.46377,-0.167493 2.125,-0.494141 0.661118,-0.326415 1.23939,-0.802644 1.689453,-1.388672 l 2.417969,-3.126953 c 0.657767,-0.856951 1.015575,-1.909536 1.017578,-2.992188 v -0.002 z m -1.5,4.128906 0.0078,16.257812 c -0.0018,0.753675 -0.250983,1.483979 -0.707031,2.078125 l -2.416016,3.125 -0.002,0.002 c -0.311091,0.405554 -0.709212,0.732457 -1.164062,0.957031 -0.454792,0.224667 -0.953399,0.340983 -1.458985,0.339844 H 63.4433 63.4413 c -0.505429,0.0015 -1.004243,-0.115242 -1.458984,-0.339844 -0.454864,-0.224663 -0.853387,-0.551373 -1.164063,-0.957031 v -0.002 l -2.410156,-3.126953 c -0.456394,-0.593418 -0.705875,-1.324755 -0.707031,-2.078125 v -0.480468 c 0,-4.461645 1.838055,-6.729159 4.828125,-8.244141 2.99007,-1.514982 7.190361,-2.1148 11.574219,-2.714844 4.220027,-0.574312 8.642459,-1.160943 12.083984,-2.865234 1.088149,-0.539573 1.986958,-1.21375 2.794922,-1.951172 z m 1.874084,-34.442775 -2.8986,-5.3593 h 1.114 c 0.2382,-0.0109 0.463,-0.1142 0.6278,-0.2883 0.1647,-0.1742 0.2567,-0.4058 0.2567,-0.6468 0,-0.2409 -0.092,-0.4725 -0.2567,-0.6467 -0.1648,-0.1741 -0.3896,-0.2774 -0.6278,-0.2883 h -12.3694 l 4.7022,-3.4013 c 0.201,-0.1441 0.337,-0.3631 0.3782,-0.6086 0.0413,-0.2455 -0.0158,-0.4975 -0.1585,-0.7006 -0.1427,-0.203 -0.3593,-0.3405 -0.6024,-0.3821 -0.243,-0.0417 -0.4924,0.0159 -0.6934,0.1601 l -6.8203,4.9268 h -15.9141 c -0.125,-0.0057 -0.25,0.0142 -0.3672,0.0586 -0.1172,0.0444 -0.2243,0.1124 -0.3148,0.1998 -0.0905,0.0874 -0.1625,0.1924 -0.2117,0.3087 -0.0492,0.1163 -0.0746,0.2414 -0.0746,0.3679 0,0.1265 0.0254,0.2517 0.0746,0.3679 0.0492,0.1163 0.1212,0.2214 0.2117,0.3087 0.0905,0.0874 0.1976,0.1554 0.3148,0.1998 0.1172,0.0444 0.2422,0.0643 0.3672,0.0586 h 1.114 l -2.8986,5.3594 c -0.4766,0.8804 -0.7268,1.8676 -0.7275,2.8711 v 47.8343 c 0.0015,1.3351 0.442,2.6319 1.2523,3.6865 l 2.4268,3.1238 c 0.5531,0.7222 1.2631,1.3063 2.0751,1.7072 0.8121,0.4009 1.7044,0.6079 2.6082,0.605 h 19.7922 c 0.9041,0.0029 1.7967,-0.2041 2.6091,-0.605 0.8123,-0.4009 1.5226,-0.985 2.0761,-1.7072 l 2.4098,-3.1257 c 0.8094,-1.0551 1.2498,-2.3516 1.2523,-3.6865 V 37.106 c -0.0016,-1.0034 -0.2517,-1.9904 -0.7275,-2.8711 z m -33.9121,2.8769 c 0,-0.1206 0,-0.2393 0.017,-0.3579 h 23.0205 c 0.2382,-0.0109 0.4631,-0.1142 0.6278,-0.2884 0.1648,-0.1741 0.2567,-0.4058 0.2567,-0.6467 0,-0.2409 -0.0919,-0.4725 -0.2567,-0.6467 -0.1647,-0.1741 -0.3896,-0.2774 -0.6278,-0.2883 h -22.3972 l 3.2492,-6.0063 h 25.0078 l 3.3855,6.2551 c 0.3317,0.6062 0.5081,1.2866 0.5134,1.9792 v 1.491 c 0,3.6961 -1.491,6.1576 -4.6946,7.7443 -2.9991,1.4853 -7.0231,2.0366 -11.2839,2.6204 -6.4414,0.8824 -13.5288,1.8547 -16.8045,6.7126 z m 32.7962,47.8228 c -0.0017,0.9185 -0.3049,1.8104 -0.862,2.5362 l -2.4174,3.1256 c -0.3807,0.4963 -0.869,0.8978 -1.4274,1.1735 -0.5583,0.2758 -1.1718,0.4185 -1.7933,0.4171 h -19.796 c -0.6215,0.0018 -1.2352,-0.1407 -1.7936,-0.4165 -0.5584,-0.2758 -1.0467,-0.6774 -1.4271,-1.1741 l -2.4098,-3.1275 c -0.5579,-0.7254 -0.8611,-1.6176 -0.862,-2.5362 v -0.4804 c 0,-9.3655 8.2829,-10.5006 17.0507,-11.7007 4.2192,-0.5742 8.5823,-1.1752 11.8522,-2.7945 1.6559,-0.8211 2.9441,-1.8605 3.8781,-3.1276 z m 0,-24.4004 c 0,3.696 -1.491,6.1556 -4.6946,7.7424 -2.9991,1.4872 -7.0231,2.0384 -11.2839,2.6222 -6.4414,0.8824 -13.5288,1.8528 -16.8045,6.7126 V 62.5171 c 0,-9.3674 8.2829,-10.5006 17.0508,-11.7026 4.2192,-0.5742 8.5823,-1.1752 11.8522,-2.7945 1.6558,-0.8212 2.9441,-1.8605 3.8781,-3.1276 z M 25.705078,72.287109 c -0.633912,-1.42e-4 -1.255208,0.190226 -1.78125,0.544922 -0.526525,0.355023 -0.936209,0.858679 -1.177734,1.447266 -0.241671,0.588625 -0.304362,1.235108 -0.181641,1.859375 0.122843,0.624355 0.425946,1.198723 0.873047,1.65039 0.447021,0.451587 1.018444,0.759885 1.640625,0.884766 0.622079,0.124835 1.267941,0.06178 1.853516,-0.183594 0.585651,-0.245274 1.085178,-0.661033 1.435546,-1.191406 0.350568,-0.530606 0.535677,-1.152618 0.535157,-1.789062 0,-0.8525 -0.334918,-1.670454 -0.933594,-2.275391 -0.598379,-0.604505 -1.412632,-0.946764 -2.261719,-0.947266 z m 0,1.5 c 0.448437,0 0.877885,0.179303 1.197266,0.501953 0.319323,0.322663 0.5,0.761404 0.5,1.220704 2.8e-4,0.342754 -0.09948,0.678897 -0.28711,0.96289 -0.18763,0.284027 -0.453923,0.503088 -0.763672,0.632813 -0.309824,0.129826 -0.649795,0.163621 -0.978515,0.09766 -0.328418,-0.06592 -0.630762,-0.227937 -0.869141,-0.46875 -0.238298,-0.240732 -0.40064,-0.548522 -0.466797,-0.884766 -0.06608,-0.336132 -0.03207,-0.684026 0.09766,-1 v -0.002 c 0.129674,-0.316012 0.349232,-0.58486 0.628906,-0.773437 0.27963,-0.188547 0.606584,-0.287386 0.941406,-0.28711 z m 4.28e-4,-0.750209 c -0.4847,-4e-4 -0.9586,0.1445 -1.3617,0.4163 -0.4031,0.2718 -0.7174,0.6583 -0.903,1.1106 -0.1857,0.4523 -0.2343,0.9501 -0.1399,1.4303 0.0945,0.4803 0.3278,0.9215 0.6705,1.2677 0.3427,0.3462 0.7794,0.582 1.2547,0.6774 0.4754,0.0954 0.9681,0.0463 1.4158,-0.1413 0.4477,-0.1875 0.8302,-0.5051 1.0992,-0.9123 0.2691,-0.4073 0.4125,-0.8861 0.4121,-1.3757 0,-0.6559 -0.2579,-1.2849 -0.7169,-1.7487 -0.4591,-0.4638 -1.0817,-0.7243 -1.7308,-0.7243 z m 8.14801,6.670131 c -0.515733,-5.64e-4 -1.019584,0.155335 -1.447266,0.44336 -0.427874,0.288248 -0.76088,0.696321 -0.957031,1.173828 -0.196353,0.477657 -0.247783,1.003257 -0.148438,1.509765 0.0994,0.506766 0.346345,0.972996 0.708985,1.339844 0.362818,0.367029 0.826533,0.617002 1.332031,0.71875 0.505349,0.10169 1.029952,0.05066 1.505859,-0.148437 0.475935,-0.198963 0.881258,-0.536509 1.166016,-0.966797 0.284587,-0.430382 0.435547,-0.934792 0.435547,-1.451172 0,-0.691524 -0.26986,-1.356185 -0.75586,-1.847656 -0.485881,-0.491212 -1.149152,-0.77078 -1.839843,-0.771485 z m -0.002,1.5 c 0.288888,2.95e-4 0.566662,0.117831 0.773438,0.326172 0.2068,0.209128 0.324219,0.494294 0.324219,0.792969 0,0.222179 -0.06441,0.439168 -0.185547,0.623047 -0.121842,0.184111 -0.294076,0.326519 -0.494141,0.410156 -0.200092,0.08371 -0.420562,0.10521 -0.632812,0.0625 -0.211902,-0.04265 -0.406366,-0.146764 -0.560547,-0.302734 -0.15436,-0.156152 -0.259931,-0.355985 -0.302735,-0.574219 -0.04285,-0.218491 -0.01979,-0.445449 0.06445,-0.650391 0.08425,-0.205092 0.225524,-0.378249 0.40625,-0.5 0.181117,-0.121974 0.391555,-0.187736 0.607421,-0.1875 z m 0.0014,-0.749231 c -0.3658,-4e-4 -0.7234,0.1089 -1.0278,0.3139 -0.3043,0.205 -0.5416,0.4967 -0.6818,0.838 -0.1403,0.3413 -0.1771,0.717 -0.106,1.0795 0.0711,0.3625 0.2471,0.6955 0.5056,0.957 0.2585,0.2615 0.588,0.4396 0.9467,0.5118 0.3588,0.0722 0.7306,0.0354 1.0686,-0.106 0.338,-0.1413 0.6269,-0.3808 0.8302,-0.688 0.2032,-0.3073 0.3117,-0.6685 0.3117,-1.0381 0,-0.4951 -0.1945,-0.97 -0.5409,-1.3203 -0.3464,-0.3502 -0.8162,-0.5473 -1.3063,-0.5478 z M 21.46875,53.859375 c -0.505379,0.101583 -0.96912,0.35219 -1.332031,0.71875 -0.362884,0.366673 -0.609324,0.833295 -0.708985,1.339844 -0.09982,0.506509 -0.04749,1.03018 0.148438,1.507812 0.195753,0.477701 0.527696,0.887253 0.955078,1.175781 0.427523,0.288624 0.931853,0.44336 1.447266,0.44336 0.691051,0 1.353342,-0.27812 1.839843,-0.769531 0.486457,-0.491506 0.757813,-1.157541 0.757813,-1.84961 0,-0.516319 -0.151002,-1.020853 -0.435547,-1.451172 -0.284627,-0.430513 -0.690411,-0.767772 -1.166016,-0.966797 -0.475602,-0.199023 -1.000422,-0.250032 -1.505859,-0.148437 z m 0.296875,1.470703 c 0.211963,-0.04261 0.430662,-0.02128 0.630859,0.0625 0.200195,0.08378 0.372568,0.226271 0.494141,0.410156 0.121854,0.184281 0.185547,0.400367 0.185547,0.623047 0,0.298931 -0.117076,0.585629 -0.324219,0.794922 -0.207098,0.209189 -0.48369,0.324219 -0.773437,0.324219 -0.215987,0 -0.426746,-0.06552 -0.607422,-0.1875 -0.180818,-0.122072 -0.324157,-0.294901 -0.408203,-0.5 -0.08408,-0.204967 -0.10548,-0.432301 -0.0625,-0.650391 0.04294,-0.21825 0.148418,-0.418292 0.302734,-0.574219 0.154288,-0.155839 0.35048,-0.260117 0.5625,-0.302734 z m 2.061481,1.096422 c 0,-0.3695 -0.1085,-0.7306 -0.3117,-1.0379 -0.2031,-0.3072 -0.4919,-0.5466 -0.8298,-0.688 -0.3379,-0.1414 -0.7096,-0.1784 -1.0683,-0.1063 -0.3587,0.0721 -0.6882,0.25 -0.9468,0.5112 -0.2586,0.2613 -0.4347,0.5942 -0.506,0.9566 -0.0714,0.3623 -0.0348,0.738 0.1052,1.0793 0.1399,0.3414 0.3769,0.6331 0.681,0.8384 0.3041,0.2053 0.6616,0.3148 1.0273,0.3148 0.4904,0 0.9607,-0.1968 1.3075,-0.5471 0.3468,-0.3504 0.5416,-0.8255 0.5416,-1.321 z M 37.976562,39.136719 c -0.598976,0 -1.184754,0.180689 -1.68164,0.515625 -0.496866,0.335145 -0.883011,0.8102 -1.111328,1.365234 -0.228214,0.555105 -0.28898,1.164515 -0.173828,1.753906 0.115022,0.589409 0.401335,1.133509 0.822265,1.560547 0.420982,0.42709 0.957997,0.718347 1.544922,0.837891 0.58689,0.119537 1.196592,0.06165 1.75,-0.167969 0.553522,-0.22948 1.026556,-0.619912 1.359375,-1.119141 C 40.819019,43.383578 40.997487,42.797719 41,42.197266 v -0.002 -0.002 c 0,-0.806064 -0.315726,-1.58094 -0.880859,-2.154297 -0.565131,-0.573353 -1.334724,-0.899015 -2.138672,-0.902343 l -0.0039,0.75 z m -0.0039,1.5 c 6.21e-4,2e-6 0.0013,-4e-6 0.002,0 0.402977,0.0022 0.789545,0.16428 1.076172,0.455078 0.28663,0.2908 0.448726,0.68636 0.449219,1.099609 10e-7,6.29e-4 0,0.0013 0,0.002 -0.002,0.306005 -0.09331,0.604712 -0.261719,0.857422 -0.16918,0.253771 -0.407869,0.449334 -0.685547,0.564453 -0.277591,0.115179 -0.58109,0.145801 -0.875,0.08594 -0.293874,-0.05986 -0.564325,-0.207719 -0.777343,-0.423828 -0.21307,-0.216161 -0.359192,-0.491779 -0.417969,-0.792969 -0.05885,-0.301208 -0.02849,-0.61339 0.08789,-0.896484 0.116483,-0.283166 0.31412,-0.524505 0.564454,-0.69336 0.249099,-0.167456 0.540229,-0.25706 0.83789,-0.257812 z m 0.0039,-0.749719 c -0.4493,0 -0.8884,0.1345 -1.2621,0.3864 -0.3736,0.252 -0.665,0.6102 -0.8374,1.0293 -0.1723,0.4191 -0.2179,0.8805 -0.1309,1.3258 0.0869,0.4453 0.3025,0.8545 0.6195,1.1761 0.317,0.3216 0.7212,0.5411 1.1616,0.6308 0.4404,0.0897 0.8972,0.0456 1.3127,-0.1268 0.4156,-0.1723 0.7713,-0.4652 1.0223,-0.8417 0.2509,-0.3765 0.3858,-0.8196 0.3877,-1.2735 0,-0.61 -0.2392,-1.1952 -0.6653,-1.6275 -0.4261,-0.4323 -1.0043,-0.6764 -1.6081,-0.6789 z M 1.1035156,0.1015625 C 0.68469729,0.25434516 0.34561019,0.56738068 0.15820312,0.97070313 -0.02920004,1.3740172 -0.05003272,1.8351886 0.09960937,2.2539063 0.24906783,2.6721603 0.55887202,3.0158916 0.9609375,3.2070313 L 19.353516,11.939453 h 0.002 c 0.852735,0.40458 1.594982,1.012355 2.166015,1.771485 0.571132,0.759142 0.953274,1.648445 1.111328,2.589843 l 1.998047,11.919922 H 14.023438 V 15.998047 l -0.002,0.0332 c 0.01002,-0.22615 -0.02436,-0.453015 -0.103515,-0.666016 -0.07898,-0.21302 -0.199612,-0.407399 -0.355469,-0.572265 h -0.002 c -0.155932,-0.164765 -0.34373,-0.296471 -0.552734,-0.386719 -0.208883,-0.09019 -0.432721,-0.136719 -0.660157,-0.136719 -0.227436,0 -0.453227,0.04652 -0.662109,0.136719 -0.209005,0.09025 -0.396803,0.221954 -0.552734,0.386719 -0.155857,0.164866 -0.276486,0.359245 -0.355469,0.572265 -0.07916,0.213001 -0.115488,0.439866 -0.105469,0.666016 v 69.494141 c 0.0027,2.457531 0.969285,4.814829 2.691406,6.554687 1.722131,1.739977 4.061509,2.719933 6.5,2.722656 h 17.779297 c 2.438582,-0.0027 4.775838,-0.98271 6.498047,-2.722656 1.722121,-1.739858 2.690642,-4.097156 2.693359,-6.554687 V 15.998047 c 0,-0.444836 -0.17489,-0.872817 -0.488281,-1.189453 -0.312462,-0.3157 -0.738877,-0.492928 -1.183594,-0.494141 v -0.002 h -0.0039 -12.373047 -0.01563 c -0.432611,0.0198 -0.841399,0.207065 -1.138672,0.521484 -0.297208,0.314161 -0.46289,0.730467 -0.46289,1.16211 0,0.431642 0.165682,0.847948 0.46289,1.162109 0.297273,0.314419 0.706061,0.503641 1.138672,0.523438 h 0.01563 10.701172 V 28.220703 H 28.033203 L 25.935547,15.738281 C 25.687049,14.263163 25.090723,12.869722 24.193359,11.677734 23.296096,10.485844 22.124575,9.5296582 20.78125,8.8925781 L 2.390625,0.16015625 H 2.388675 C 1.985955,-0.03084774 1.5223471,-0.0512002 1.1035156,0.1015625 Z m 0.5136719,1.4082031 c 0.042708,-0.015577 0.087463,-0.013796 0.1289062,0.00586 L 20.138672,10.248048 c 1.123273,0.532719 2.103334,1.332924 2.855469,2.332031 0.752234,0.99921 1.254189,2.167371 1.46289,3.40625 l 2.306641,13.734375 H 44.986328 V 16.181641 H 32.837891 c -0.04379,-0.002 -0.08506,-0.01875 -0.117188,-0.05273 -0.03239,-0.03424 -0.05273,-0.08265 -0.05273,-0.132812 0,-0.05016 0.02034,-0.09662 0.05273,-0.13086 0.03104,-0.03283 0.07115,-0.04973 0.113281,-0.05273 h 12.324219 c 0.04505,0 0.08722,0.01655 0.121094,0.05078 0.03421,0.03456 0.05469,0.083 0.05469,0.134766 v 69.52539 c -0.0023,2.064864 -0.814736,4.044015 -2.257812,5.501954 -1.442728,1.457585 -3.396484,2.274548 -5.433594,2.277343 h -17.777344 -0.002 c -2.037001,-0.0028 -3.990988,-0.819788 -5.433593,-2.277343 -1.443076,-1.457939 -2.25553,-3.43709 -2.257813,-5.501954 V 15.980469 l -0.002,-0.01563 c -0.0012,-0.02665 0.0048,-0.05237 0.01367,-0.07617 v -0.002 c 0.0088,-0.02378 0.02192,-0.04437 0.03906,-0.0625 0.01707,-0.01803 0.03545,-0.03186 0.05664,-0.04102 0.02132,-0.0092 0.0454,-0.01367 0.06836,-0.01367 0.02296,0 0.04509,0.0045 0.06641,0.01367 0.02119,0.0092 0.04153,0.02298 0.05859,0.04102 0.01714,0.01813 0.03025,0.03872 0.03906,0.0625 v 0.002 c 0.0088,0.0238 0.0129,0.04952 0.01172,0.07617 v 0.01563 13.740234 H 26.402344 L 24.111328,16.050781 C 23.913583,14.872982 23.43697,13.760649 22.720703,12.808594 22.004537,11.856525 21.07091,11.093004 19.998047,10.583984 L 1.6035156,1.8535156 C 1.5620859,1.833866 1.5287114,1.7975533 1.5117187,1.75 1.494721,1.7024382 1.4964615,1.6489611 1.5175781,1.6035156 c 0.021113,-0.045437 0.056908,-0.078173 0.099609,-0.09375 z M 12.523438,30.091797 v 55.433594 c 0.0022,1.961693 0.773213,3.843064 2.148437,5.232421 1.375118,1.389363 3.24363,2.173552 5.191406,2.175782 h 17.779297 c 1.948556,-0.0011 3.817262,-0.784376 5.193359,-2.173828 1.37602,-1.389375 2.148169,-3.271889 2.150391,-5.234375 V 30.091797 H 26.826172 l 6.15625,36.623047 c 0.0042,0.02476 0.0035,0.05005 -0.002,0.07422 -0.0054,0.0238 -0.01572,0.04667 -0.0293,0.06641 -0.01398,0.01987 -0.03164,0.03671 -0.05078,0.04883 -0.01971,0.01248 -0.04089,0.01976 -0.0625,0.02344 l -0.002,0.002 h -0.002 c -0.0075,0.0013 -0.01448,0.002 -0.02148,0.002 h -0.002 -0.002 c -0.03955,-1.8e-5 -0.07752,-0.01378 -0.109375,-0.04102 -0.03192,-0.02729 -0.05503,-0.06651 -0.0625,-0.111328 l -6.167969,-36.6875 z m 1.5,1.5 h 11.177734 l 5.957031,35.435547 c 0.06543,0.389907 0.265175,0.746378 0.566406,1.003906 0.301746,0.257967 0.686531,0.400209 1.083985,0.400391 0.09589,2.51e-4 0.191319,-0.0089 0.285156,-0.02539 h 0.002 c 0.215962,-0.03758 0.422882,-0.117559 0.607422,-0.234375 0.186853,-0.11828 0.347784,-0.272795 0.474609,-0.453125 0.126495,-0.180116 0.216947,-0.382645 0.265625,-0.597656 0.04858,-0.214591 0.05384,-0.437677 0.01758,-0.654297 l -5.861328,-34.875 h 14.886719 v 53.93164 c -0.0018,1.569711 -0.620019,3.074218 -1.716797,4.181641 -1.096439,1.10708 -2.580016,1.72711 -4.126953,1.728516 h -0.002 -17.775391 -0.002 c -1.546316,-0.0023 -3.029381,-0.6235 -4.125,-1.730469 -1.096174,-1.10744 -1.713066,-2.610585 -1.714843,-4.179688 z M 45.161206,15.0618 h -12.358 c -0.2382,0.0109 -0.4631,0.1141 -0.6278,0.2883 -0.1648,0.1742 -0.2567,0.4058 -0.2567,0.6467 0,0.2409 0.0919,0.4725 0.2567,0.6467 0.1647,0.1742 0.3896,0.2774 0.6278,0.2883 h 11.4335 v 12.0395 h -16.8386 l -2.2014,-13.1094 c -0.2286,-1.357 -0.7787,-2.6379 -1.6035,-3.7335 -0.8247,-1.0955 -1.8996,-1.9732 -3.1329,-2.5581001 L 2.0682158,0.83837989 c -0.22208,-0.10533 -0.47649,-0.11722 -0.70726,-0.03305 -0.23076,0.08418 -0.41896999,0.25752001 -0.52322999,0.48190001 -0.10426,0.22438 -0.11603,0.48141 -0.03271,0.71455 0.08331,0.23314 0.25488999,0.4233 0.47696999,0.52863 L 19.676006,11.2624 c 0.9628,0.4568 1.8019,1.1423 2.4455,1.9979 0.6437,0.8556 1.0728,1.8559 1.2507,2.9155 l 2.1446,12.7955 h -12.2443 V 15.9978 c 0.0056,-0.1264 -0.0141,-0.2526 -0.0581,-0.371 -0.0439,-0.1184 -0.1112,-0.2266 -0.1977,-0.3181 -0.0865,-0.0914 -0.1904,-0.1642 -0.3055,-0.2139 -0.1151,-0.0497 -0.239,-0.0753 -0.3642,-0.0753 -0.1252,0 -0.2491,0.0256 -0.3642,0.0753 -0.1151,0.0497 -0.219,0.1225 -0.3055,0.2139 -0.0865,0.0915 -0.1538,0.1997 -0.1977,0.3181 -0.044,0.1184 -0.0637,0.2446 -0.0581,0.371 v 69.5264 c 0.0025,2.2612 0.8928,4.4292 2.4754,6.0281 1.5826,1.599 3.7284,2.4984 5.9666,2.5009 h 17.7783 c 2.2382,-0.0025 4.384,-0.9019 5.9667,-2.5009 1.5826,-1.5989 2.4728,-3.7669 2.4754,-6.0281 V 15.9978 c 0,-0.2483 -0.0976,-0.4863 -0.2714,-0.6619 -0.1737,-0.1755 -0.4094,-0.2741 -0.6551,-0.2741 z m -7.5194,77.1214 h -17.7783 c -1.7474,-0.002 -3.4227,-0.7043 -4.6583,-1.9526 -1.2357,-1.2484 -1.9307,-2.941 -1.9327,-4.7064 V 30.8413 h 12.5626 l 6.0625,36.061 c 0.0363,0.2177 0.1477,0.4154 0.3145,0.558 0.1668,0.1426 0.3783,0.2209 0.5968,0.221 0.0521,2e-4 0.104,-0.0043 0.1553,-0.0134 0.1199,-0.0204 0.2345,-0.0645 0.3375,-0.1297 0.103,-0.0652 0.1922,-0.1503 0.2626,-0.2504 0.0703,-0.1001 0.1205,-0.2132 0.1476,-0.3329 0.0271,-0.1197 0.0305,-0.2436 0.0101,-0.3646 l -6.0094,-35.749 h 16.5241 v 54.6829 c -0.002,1.7661 -0.6976,3.4593 -1.934,4.7077 -1.2365,1.2485 -2.9128,1.9503 -4.6609,1.9513 z" />
    </g>
  </g>
</svg>
