<svg viewBox="0 0 900 926" xmlns="http://www.w3.org/2000/svg">
<path d="M790.971 207.294C786.674 206.557 782.248 207.574 778.71 210.112V210.131L714.135 256.773H561.719C559.505 256.672 557.284 257.034 555.208 257.821C553.133 258.607 551.241 259.805 549.649 261.343C548.056 262.881 546.798 264.732 545.937 266.768C545.076 268.803 544.623 270.991 544.623 273.203C544.623 275.415 545.074 277.601 545.937 279.638C546.797 281.673 548.051 283.503 549.649 285.044C551.241 286.582 553.133 287.78 555.208 288.566C556.775 289.16 558.456 289.275 560.12 289.366L537.56 331.078C532.335 340.729 529.591 351.535 529.583 362.528V828.799C529.6 843.415 534.427 857.618 543.309 869.178V869.198L566.954 899.62C573.025 907.546 580.817 913.965 589.742 918.372C598.663 922.776 608.478 925.045 618.413 925.016H811.322C821.259 925.045 831.07 922.775 839.993 918.372C848.913 913.97 856.709 907.555 862.781 899.639L886.273 869.159H886.293C895.163 857.596 899.973 843.391 900 828.78V362.642C899.982 351.654 897.237 340.843 892.023 331.191L892.918 334.656V332.752L892.023 331.134L869.387 289.27C873.241 288.86 876.958 287.409 879.63 284.587C882.524 281.526 884.142 277.469 884.142 273.26C884.142 269.05 882.524 264.993 879.63 261.932V261.913C876.734 258.854 872.749 257.023 868.53 256.83H868.378H770.22L797.729 236.917C801.27 234.378 803.654 230.538 804.373 226.256C805.094 221.968 804.092 217.571 801.594 214.014C799.094 210.459 795.268 208.029 790.971 207.294H790.971ZM788.496 221.706C788.932 221.781 789.337 222.035 789.619 222.429C789.902 222.832 790.027 223.339 789.943 223.838C789.858 224.341 789.578 224.766 789.2 225.037V225.057L725.062 271.451H867.902C868.311 271.48 868.7 271.641 869.006 271.965C869.323 272.3 869.52 272.773 869.52 273.26C869.52 273.748 869.323 274.2 869.006 274.535C868.7 274.859 868.311 275.02 867.902 275.049H845.076L878.297 336.465V336.503L879.172 338.14C883.234 345.657 885.365 354.087 885.379 362.661V828.76C885.357 840.173 881.588 851.243 874.679 860.249H874.699L851.206 890.709L851.187 890.729C846.471 896.882 840.427 901.845 833.52 905.254C826.611 908.664 819.022 910.419 811.341 910.394H618.394H618.374C610.697 910.419 603.12 908.663 596.215 905.254C589.31 901.846 583.279 896.881 578.567 890.729L578.547 890.709L554.902 860.268C547.992 851.274 544.22 840.203 544.203 828.798V362.546V362.527C544.212 353.964 546.346 345.531 550.409 338.025L584.506 274.991H561.204L561.051 275.011C560.828 275.021 560.594 274.976 560.385 274.897C560.175 274.817 559.986 274.701 559.814 274.535C559.648 274.374 559.493 274.158 559.395 273.926C559.299 273.697 559.243 273.457 559.243 273.202C559.243 272.948 559.296 272.692 559.395 272.46C559.493 272.229 559.643 272.016 559.814 271.851C559.986 271.685 560.175 271.568 560.385 271.489C560.594 271.41 560.828 271.384 561.051 271.393H561.205H718.856L787.239 221.991C787.62 221.717 788.055 221.629 788.496 221.705V221.706ZM588.6 275.068L549.021 348.249H779.301C779.71 348.278 780.101 348.442 780.405 348.763C780.72 349.097 780.919 349.55 780.919 350.039C780.919 350.528 780.718 350.983 780.405 351.314V351.334C780.091 351.666 779.687 351.828 779.262 351.848H548.868L547.974 358.13C547.711 359.964 547.745 361.466 547.745 362.642V362.661L547.878 567.526L561.243 547.727C575.967 525.89 599.51 512.431 627.741 503.35C655.973 494.269 688.567 489.755 719.96 485.455C761.491 479.764 801.287 474.533 832.206 459.221C865.319 442.82 882.028 415.18 882.028 377.187V362.623V362.585C881.967 354.63 879.941 346.826 876.126 339.854L841.078 275.069L588.6 275.068ZM597.319 289.689H832.359L863.295 346.84V346.86C865.946 351.705 867.365 357.153 867.407 362.699V377.187C867.407 411.248 855.055 431.591 825.714 446.122C798.167 459.765 759.511 465.276 717.98 470.967C686.587 475.267 653.257 479.787 623.268 489.433C599.479 497.085 579.08 509.774 562.461 526.728L562.366 366.469H779.776H779.929C784.148 366.276 788.131 364.43 791.028 361.367C793.927 358.303 795.54 354.246 795.54 350.039C795.54 345.832 793.925 341.774 791.028 338.712C788.131 335.65 784.148 333.822 779.929 333.629H779.776H573.541L597.319 289.689ZM882.009 416.309L868.816 434.204C860.484 445.507 848.945 454.891 833.653 462.475C803.453 477.431 761.516 483.437 720.398 489.033H720.378C677.647 494.891 635.504 500.431 602.916 516.942C570.327 533.454 547.859 562.533 547.859 610.341V781.338L561.242 761.5C575.967 739.655 599.51 726.202 627.741 717.124C655.972 708.045 688.566 703.529 719.96 699.228C761.491 693.538 801.285 688.308 832.206 672.975C865.316 656.575 882.028 628.953 882.028 590.961V590.941L882.009 416.309ZM867.388 456.555L867.407 590.961C867.407 625.021 855.057 645.343 825.715 659.877C798.169 673.536 759.512 679.05 717.981 684.74C686.588 689.041 653.257 693.544 623.268 703.188C599.484 710.836 579.098 723.529 562.481 740.483V610.341C562.481 566.842 580.378 544.75 609.523 529.983C638.668 515.216 679.627 509.36 722.359 503.502V503.521C763.493 497.923 806.6 492.186 840.145 475.574C850.751 470.314 859.513 463.743 867.388 456.555L867.388 456.555ZM881.952 630.083L868.759 647.979C860.427 659.282 848.889 668.667 833.596 676.25C803.396 691.205 761.458 697.192 720.341 702.788H720.321C677.59 708.637 635.447 714.186 602.859 730.697C570.27 747.209 547.802 776.297 547.802 824.096V828.78C547.813 839.337 551.297 849.593 557.72 857.945L581.213 888.425C585.6 894.154 591.228 898.793 597.681 901.98C604.128 905.164 611.23 906.814 618.413 906.796H811.36C818.541 906.81 825.627 905.163 832.073 901.98C838.517 898.798 844.153 894.156 848.54 888.444L872.109 857.964C878.52 849.611 882.008 839.352 882.028 828.799V828.779L881.952 630.083ZM867.331 670.329L867.407 828.799C867.389 836.145 864.96 843.263 860.515 849.055L836.966 879.515L836.946 879.535C833.914 883.488 830.033 886.674 825.6 888.863C821.167 891.053 816.307 892.187 811.378 892.176H618.393H618.374C613.447 892.19 608.585 891.052 604.153 888.863C599.719 886.673 595.835 883.489 592.806 879.535V879.515L569.314 849.036C564.865 843.251 562.433 836.123 562.422 828.78V824.096C562.422 780.607 580.338 758.505 609.483 743.738C638.628 728.971 679.57 723.125 722.301 717.276C763.435 711.678 806.541 705.96 840.087 689.348C850.693 684.088 859.454 677.517 867.33 670.329H867.331ZM885.598 334.605L857.345 282.366H868.203C870.525 282.26 872.716 281.253 874.322 279.556C875.928 277.858 876.825 275.6 876.825 273.251C876.825 270.903 875.928 268.646 874.322 266.948C872.716 265.251 870.525 264.244 868.203 264.138H747.635L793.469 230.984C795.428 229.58 796.753 227.445 797.155 225.052C797.558 222.659 797.001 220.203 795.61 218.223C794.219 216.244 792.108 214.904 789.738 214.499C787.37 214.092 784.939 214.654 782.98 216.059L716.5 264.082H561.381C560.162 264.027 558.944 264.221 557.801 264.653C556.659 265.086 555.615 265.749 554.733 266.601C553.851 267.453 553.149 268.476 552.669 269.61C552.19 270.743 551.942 271.963 551.942 273.196C551.942 274.429 552.19 275.649 552.669 276.782C553.149 277.915 553.851 278.94 554.733 279.791C555.615 280.643 556.659 281.306 557.801 281.738C558.944 282.171 560.162 282.365 561.381 282.31H572.239L543.986 334.549C539.34 343.131 536.901 352.753 536.894 362.535V828.79C536.909 841.804 541.203 854.444 549.101 864.723L572.756 895.172C578.147 902.211 585.067 907.905 592.982 911.813C600.898 915.72 609.596 917.738 618.405 917.71H811.326C820.138 917.738 828.839 915.72 836.757 911.813C844.675 907.905 851.599 902.211 856.994 895.172L880.483 864.705C888.372 854.421 892.665 841.783 892.689 828.771V362.647C892.674 352.866 890.236 343.246 885.598 334.661V334.605ZM555.047 362.647C555.047 361.471 555.047 360.314 555.212 359.158H779.6C781.922 359.052 784.114 358.045 785.719 356.347C787.326 354.65 788.222 352.392 788.222 350.044C788.222 347.695 787.326 345.438 785.719 343.74C784.114 342.043 781.922 341.036 779.6 340.93H561.288L592.959 282.385H836.717L869.717 343.355C872.95 349.264 874.669 355.896 874.721 362.647V377.18C874.721 413.207 860.188 437.2 828.961 452.666C799.728 467.144 760.505 472.517 718.974 478.208C656.188 486.809 587.105 496.286 555.175 543.638L555.047 362.647ZM874.721 828.79C874.705 837.743 871.749 846.436 866.319 853.511L842.756 883.977C839.045 888.815 834.285 892.728 828.843 895.416C823.401 898.104 817.421 899.495 811.363 899.481H618.405C612.347 899.499 606.365 898.11 600.922 895.422C595.48 892.733 590.72 888.819 587.012 883.977L563.523 853.493C558.085 846.422 555.13 837.725 555.121 828.771V824.089C555.121 732.801 635.857 721.736 721.319 710.039C762.445 704.442 804.973 698.584 836.846 682.8C852.987 674.796 865.543 664.665 874.647 652.314L874.721 828.79ZM874.721 590.952C874.721 626.978 860.188 650.952 828.961 666.419C799.728 680.916 760.505 686.288 718.974 691.979C656.188 700.58 587.105 710.039 555.175 757.409V610.336C555.175 519.03 635.911 507.984 721.375 496.268C762.5 490.671 805.029 484.813 836.902 469.029C853.041 461.024 865.599 450.894 874.703 438.543L874.721 590.952ZM250.548 705.568C244.369 705.566 238.313 707.422 233.185 710.879C228.053 714.34 224.06 719.249 221.706 724.986C219.35 730.724 218.739 737.025 219.935 743.11C221.132 749.196 224.087 754.794 228.445 759.197C232.802 763.599 238.372 766.604 244.437 767.821C250.5 769.038 256.796 768.423 262.503 766.031C268.212 763.641 273.081 759.588 276.496 754.418C279.913 749.246 281.717 743.183 281.712 736.98C281.712 728.67 278.448 720.697 272.612 714.801C266.78 708.909 258.843 705.573 250.567 705.568H250.548ZM250.548 720.189C254.919 720.189 259.105 721.936 262.218 725.081C265.33 728.226 267.091 732.503 267.091 736.98C267.094 740.321 266.122 743.597 264.293 746.365C262.464 749.134 259.868 751.269 256.849 752.534C253.829 753.799 250.515 754.129 247.311 753.486C244.11 752.843 241.163 751.264 238.839 748.917C236.517 746.57 234.934 743.57 234.289 740.292C233.645 737.016 233.977 733.625 235.241 730.545V730.526C236.505 727.445 238.645 724.825 241.372 722.987C244.097 721.149 247.284 720.185 250.548 720.188L250.548 720.189ZM250.552 712.876C245.827 712.872 241.208 714.285 237.279 716.934C233.35 719.583 230.286 723.35 228.477 727.759C226.667 732.168 226.193 737.02 227.113 741.701C228.035 746.382 230.309 750.683 233.649 754.057C236.989 757.432 241.246 759.73 245.879 760.66C250.513 761.59 255.315 761.112 259.679 759.283C264.043 757.455 267.771 754.36 270.393 750.39C273.016 746.42 274.414 741.753 274.41 736.981C274.41 730.588 271.896 724.457 267.422 719.936C262.947 715.415 256.879 712.876 250.552 712.876V712.876ZM329.973 777.892C324.946 777.886 320.035 779.406 315.866 782.213C311.695 785.023 308.449 789.001 306.538 793.655C304.624 798.311 304.122 803.434 305.091 808.371C306.06 813.311 308.467 817.855 312.001 821.431C315.538 825.009 320.058 827.445 324.985 828.437C329.911 829.428 335.024 828.931 339.663 826.99C344.302 825.051 348.253 821.761 351.029 817.566C353.803 813.371 355.274 808.455 355.274 803.421C355.274 796.681 352.644 790.202 347.906 785.412C343.17 780.624 336.705 777.899 329.973 777.892ZM329.953 792.513C332.769 792.516 335.477 793.661 337.492 795.692C339.508 797.731 340.653 800.51 340.653 803.421C340.653 805.587 340.025 807.702 338.844 809.494C337.656 811.289 335.978 812.677 334.028 813.492C332.077 814.308 329.928 814.518 327.859 814.102C325.794 813.686 323.898 812.671 322.395 811.151C320.891 809.629 319.862 807.681 319.445 805.554C319.027 803.424 319.252 801.212 320.073 799.214C320.894 797.215 322.271 795.527 324.033 794.34C325.798 793.151 327.849 792.51 329.953 792.513H329.953ZM329.967 785.21C326.402 785.206 322.916 786.271 319.949 788.269C316.983 790.268 314.67 793.111 313.303 796.438C311.936 799.764 311.577 803.427 312.27 806.96C312.963 810.493 314.678 813.739 317.198 816.288C319.718 818.837 322.93 820.573 326.426 821.277C329.923 821.98 333.547 821.622 336.842 820.244C340.136 818.866 342.952 816.532 344.934 813.537C346.915 810.542 347.972 807.021 347.972 803.419C347.972 798.593 346.076 793.964 342.7 790.549C339.324 787.136 334.744 785.215 329.967 785.21V785.21ZM209.255 525.947C204.329 526.937 199.809 529.38 196.271 532.953C192.734 536.527 190.332 541.075 189.361 546.013C188.388 550.95 188.898 556.054 190.807 560.71C192.715 565.366 195.951 569.358 200.117 572.17C204.284 574.984 209.2 576.492 214.224 576.492C220.96 576.492 227.415 573.781 232.157 568.991C236.899 564.2 239.544 557.708 239.544 550.962C239.544 545.93 238.072 541.012 235.298 536.817C232.524 532.621 228.569 529.334 223.933 527.394C219.297 525.454 214.182 524.957 209.255 525.947V525.947ZM212.149 540.282C214.215 539.867 216.346 540.075 218.298 540.892C220.249 541.708 221.929 543.097 223.114 544.889C224.302 546.686 224.923 548.792 224.923 550.962C224.923 553.876 223.782 556.671 221.763 558.711C219.744 560.75 217.048 561.871 214.224 561.871C212.118 561.871 210.064 561.232 208.303 560.043C206.541 558.854 205.143 557.169 204.324 555.17C203.505 553.172 203.296 550.956 203.715 548.83C204.133 546.703 205.162 544.753 206.666 543.233C208.17 541.714 210.082 540.698 212.149 540.282ZM232.243 550.969C232.243 547.368 231.185 543.848 229.204 540.853C227.225 537.858 224.41 535.525 221.116 534.147C217.822 532.768 214.199 532.408 210.703 533.11C207.207 533.813 203.995 535.547 201.474 538.093C198.954 540.64 197.237 543.885 196.542 547.418C195.846 550.949 196.203 554.611 197.567 557.938C198.931 561.266 201.241 564.109 204.205 566.11C207.17 568.111 210.654 569.178 214.219 569.178C218.999 569.178 223.583 567.26 226.963 563.846C230.344 560.43 232.243 555.799 232.243 550.969V550.969ZM370.162 382.441C364.323 382.441 358.613 384.202 353.77 387.467C348.927 390.734 345.163 395.364 342.938 400.774C340.713 406.185 340.121 412.125 341.243 417.87C342.364 423.615 345.155 428.919 349.258 433.081C353.362 437.244 358.596 440.083 364.317 441.248C370.038 442.413 375.98 441.849 381.375 439.611C386.77 437.374 391.381 433.569 394.625 428.702C397.868 423.836 399.607 418.126 399.632 412.273V412.253V412.234C399.632 404.377 396.554 396.824 391.046 391.235C385.537 385.647 378.036 382.472 370.2 382.44L370.162 389.75L370.162 382.441ZM370.124 397.062C370.13 397.062 370.136 397.062 370.143 397.062C374.071 397.083 377.839 398.663 380.633 401.498C383.427 404.332 385.007 408.188 385.011 412.216C385.011 412.222 385.011 412.228 385.011 412.235C384.992 415.218 384.102 418.13 382.46 420.593C380.811 423.066 378.485 424.973 375.778 426.095C373.072 427.217 370.114 427.516 367.249 426.932C364.385 426.349 361.749 424.908 359.672 422.801C357.595 420.694 356.171 418.008 355.598 415.072C355.025 412.136 355.321 409.093 356.455 406.334C357.59 403.574 359.517 401.221 361.957 399.575C364.385 397.943 367.223 397.07 370.124 397.062L370.124 397.062ZM370.162 389.754C365.782 389.754 361.502 391.065 357.859 393.52C354.218 395.977 351.378 399.468 349.697 403.553C348.018 407.638 347.573 412.136 348.421 416.476C349.268 420.817 351.37 424.805 354.46 427.94C357.549 431.075 361.489 433.214 365.782 434.089C370.075 434.963 374.527 434.533 378.577 432.853C382.628 431.173 386.095 428.318 388.542 424.648C390.988 420.979 392.303 416.66 392.321 412.235C392.321 406.289 389.989 400.585 385.836 396.371C381.683 392.158 376.047 389.778 370.162 389.754V389.754ZM10.7489 1.95347C6.66654 3.44269 3.36135 6.49394 1.53464 10.4252C-0.292033 14.3565 -0.495095 18.8516 0.963511 22.933C2.42033 27.0099 5.44008 30.3603 9.35913 32.2234L188.637 117.341H188.657C196.968 121.284 204.203 127.209 209.769 134.608C215.336 142.008 219.061 150.676 220.602 159.852L240.077 276.039H136.683V156.901L136.664 157.225C136.761 155.021 136.426 152.809 135.655 150.733C134.885 148.657 133.709 146.762 132.19 145.155H132.17C130.65 143.549 128.82 142.265 126.783 141.386C124.747 140.506 122.565 140.053 120.348 140.053C118.131 140.053 115.93 140.506 113.894 141.386C111.857 142.265 110.026 143.549 108.507 145.155C106.987 146.762 105.812 148.657 105.042 150.733C104.27 152.809 103.916 155.021 104.014 157.225V834.605C104.04 858.559 113.462 881.537 130.248 898.496C147.034 915.456 169.836 925.008 193.605 925.034H366.905C390.675 925.008 413.457 915.455 430.244 898.496C447.03 881.537 456.47 858.559 456.497 834.605V156.901C456.497 152.565 454.792 148.394 451.737 145.307C448.691 142.23 444.535 140.503 440.2 140.491V140.471H440.162H319.558H319.406C315.189 140.664 311.205 142.49 308.307 145.554C305.41 148.617 303.795 152.674 303.795 156.882C303.795 161.089 305.41 165.147 308.307 168.209C311.205 171.274 315.189 173.118 319.406 173.311H319.558H423.866V276.039H273.241L252.794 154.369C250.372 139.991 244.559 126.409 235.812 114.79C227.067 103.172 215.647 93.8519 202.554 87.6421L23.2947 2.5246H23.2757C19.3503 0.662831 14.8314 0.46445 10.7489 1.95347ZM15.7558 15.6797C16.1721 15.5278 16.6083 15.5452 17.0123 15.7368L196.29 100.854C207.239 106.047 216.792 113.847 224.123 123.585C231.456 133.325 236.348 144.711 238.383 156.787L260.866 290.66H438.488V158.691H320.073C319.647 158.671 319.244 158.508 318.931 158.177C318.615 157.843 318.417 157.371 318.417 156.882C318.417 156.393 318.615 155.94 318.931 155.607C319.234 155.287 319.625 155.122 320.035 155.093H440.163C440.602 155.093 441.013 155.254 441.343 155.588C441.677 155.925 441.877 156.397 441.877 156.901V834.586C441.854 854.713 433.935 874.004 419.869 888.215C405.806 902.423 386.762 910.386 366.906 910.413H193.625H193.605C173.75 910.386 154.704 902.423 140.643 888.215C126.577 874.004 118.657 854.713 118.635 834.586V156.73L118.616 156.578C118.604 156.318 118.662 156.067 118.749 155.835V155.816C118.835 155.584 118.962 155.383 119.13 155.206C119.296 155.031 119.475 154.896 119.682 154.807C119.889 154.717 120.124 154.673 120.348 154.673C120.572 154.673 120.787 154.717 120.995 154.807C121.202 154.896 121.4 155.031 121.566 155.206C121.733 155.383 121.861 155.584 121.947 155.816V155.835C122.033 156.067 122.073 156.318 122.061 156.578V156.73V290.66H257.344L235.013 157.415C233.085 145.935 228.44 135.093 221.458 125.813C214.477 116.533 205.377 109.09 194.92 104.129L15.6225 19.0303C15.2187 18.8388 14.8934 18.4848 14.7278 18.0213C14.5621 17.5577 14.579 17.0364 14.7849 16.5935C14.9907 16.1506 15.3396 15.8315 15.7558 15.6797H15.7558ZM122.062 294.277V834.605C122.084 853.726 129.599 872.065 143.004 885.607C156.407 899.15 174.62 906.793 193.606 906.815H366.906C385.899 906.804 404.114 899.17 417.527 885.626C430.94 872.083 438.466 853.734 438.488 834.605V294.277H261.475L321.482 651.253C321.523 651.494 321.516 651.741 321.463 651.977C321.41 652.209 321.309 652.431 321.177 652.624C321.041 652.818 320.869 652.982 320.682 653.1C320.49 653.221 320.284 653.292 320.073 653.328L320.053 653.348H320.034C319.961 653.36 319.893 653.367 319.825 653.367H319.805H319.786C319.4 653.367 319.03 653.233 318.719 652.967C318.408 652.701 318.183 652.319 318.11 651.882L257.989 294.278L122.062 294.277ZM136.683 308.898H245.636L303.701 654.299C304.339 658.1 306.286 661.574 309.222 664.084C312.163 666.599 315.914 667.985 319.788 667.987C320.722 667.99 321.653 667.9 322.567 667.74H322.587C324.692 667.373 326.709 666.594 328.507 665.455C330.329 664.302 331.897 662.796 333.134 661.038C334.367 659.283 335.248 657.309 335.723 655.213C336.196 653.121 336.248 650.947 335.894 648.835L278.762 308.898H423.867V834.586C423.85 849.887 417.824 864.551 407.133 875.346C396.446 886.137 381.985 892.18 366.907 892.194H366.887H193.625H193.605C178.533 892.172 164.077 886.117 153.398 875.327C142.713 864.532 136.7 849.881 136.683 834.586L136.683 308.898ZM440.192 147.775H319.735C317.413 147.882 315.221 148.888 313.616 150.586C312.01 152.284 311.114 154.541 311.114 156.889C311.114 159.237 312.01 161.495 313.616 163.193C315.221 164.891 317.413 165.897 319.735 166.003H431.181V283.355H267.05L245.592 155.574C243.364 142.347 238.002 129.862 229.963 119.183C221.924 108.504 211.447 99.9493 199.425 94.2481L20.1521 9.13545C17.9874 8.10877 15.5076 7.99287 13.2582 8.8133C11.0089 9.63383 9.17441 11.3234 8.15815 13.5105C7.1419 15.6976 7.02717 18.203 7.83932 20.4755C8.65137 22.7479 10.3238 24.6015 12.4885 25.6282L191.781 110.741C201.165 115.194 209.344 121.876 215.618 130.216C221.892 138.555 226.074 148.306 227.808 158.634L248.713 283.355H129.364V156.899C129.418 155.667 129.226 154.437 128.797 153.283C128.369 152.129 127.713 151.074 126.87 150.182C126.027 149.291 125.014 148.581 123.893 148.097C122.771 147.613 121.563 147.363 120.343 147.363C119.122 147.363 117.915 147.613 116.793 148.097C115.671 148.581 114.658 149.291 113.815 150.182C112.972 151.074 112.316 152.129 111.888 153.283C111.459 154.437 111.267 155.667 111.321 156.899V834.594C111.346 856.634 120.024 877.766 135.45 893.351C150.876 908.937 171.792 917.704 193.608 917.728H366.899C388.715 917.704 409.631 908.937 425.058 893.351C440.484 877.766 449.161 856.634 449.186 834.594V156.899C449.186 154.479 448.235 152.159 446.541 150.447C444.848 148.736 442.55 147.775 440.155 147.775H440.192ZM366.899 899.501H193.608C176.576 899.481 160.246 892.636 148.202 880.468C136.158 868.3 129.383 851.801 129.364 834.594V301.583H251.815L310.908 653.08C311.262 655.202 312.348 657.129 313.974 658.519C315.599 659.909 317.661 660.672 319.791 660.673C320.299 660.675 320.805 660.632 321.305 660.543C322.473 660.344 323.59 659.914 324.594 659.279C325.598 658.643 326.468 657.814 327.154 656.838C327.839 655.862 328.328 654.76 328.593 653.593C328.857 652.426 328.89 651.219 328.691 650.039L270.116 301.583H431.181V834.594C431.162 851.808 424.381 868.312 412.33 880.481C400.277 892.65 383.938 899.491 366.899 899.501V899.501Z" fill="black"/>
</svg>
