<svg viewBox="0 0 572 1000" xmlns="http://www.w3.org/2000/svg">
<path d="M455.577 0.512616C440.167 -0.935074 424.622 0.692037 409.843 5.28766C395.064 9.88322 381.353 17.3592 369.482 27.2899C357.61 37.2208 347.822 49.4087 340.688 63.1439C333.567 76.8537 329.232 91.8373 327.927 107.231V107.252L304.607 355.266C273.287 303.991 239.075 262.005 203.837 236.013C163.97 206.606 122.674 194.923 86.1284 207.61C38.5874 224.097 9.67202 277.482 2.31812 354.236V354.257C-4.76804 428.408 8.45839 518.052 39.4688 607.355H39.4482C48.5102 633.654 59.6584 659.146 71.5357 684.291C68.3084 684.313 65.166 682.87 62.0062 683.694C57.0373 684.874 52.3635 687.034 48.278 690.095C44.1822 693.165 40.7623 697.065 38.2339 701.519C30.3222 715.082 29.4622 732.292 30.8038 749.29C32.1063 765.793 35.8284 781.992 39.2013 794.591C36.3696 802.114 34.3649 809.988 35.0231 818.034C36.5935 837.754 48.8874 854.754 66.0609 865.229C70.6965 894.37 87.2255 908.815 95.3286 913.72C95.3342 913.723 95.3436 913.716 95.3492 913.72C99.4644 916.275 104.215 917.341 108.913 918.433C118.413 947.206 145.053 961.003 171.338 961.759C188.435 980.086 211.707 988.289 233.476 988.289C239.051 988.29 244.598 987.57 250.085 986.601C262.359 995.608 278.689 1000 301.108 1000C305.674 1000 310.476 999.858 315.68 999.547C344.201 997.845 364.066 991.092 377.468 978.554C379.544 978.7 381.615 978.862 383.787 978.862C409 978.862 437.612 968.457 455.001 943.77C480.699 939.508 504.932 922.62 510.716 893.2C515.222 891.537 519.772 889.902 523.518 886.86C530.972 880.991 545.609 864.607 546.57 835.096C562.314 822.578 572.383 804.197 571.495 784.464H571.536C571.535 784.436 571.517 784.411 571.515 784.382C571.515 784.369 571.516 784.355 571.515 784.341H571.494C571.477 783.969 571.19 783.663 571.165 783.291L571.391 783.27L571.37 783.167L571.144 783.188C570.624 775.597 567.995 768.434 564.455 761.721C566.264 748.792 567.955 732.284 567.192 715.761C566.405 698.722 563.409 681.74 553.875 669.287C550.818 665.179 546.957 661.733 542.514 659.181C538.072 656.63 533.137 655.039 528.045 654.468C522.559 653.753 516.98 654.191 511.682 655.785C511.673 655.788 511.67 655.803 511.661 655.806L561.14 129.152L561.119 129.214C562.72 113.818 561.25 98.2614 556.8 83.4379C552.348 68.6144 545.024 54.8183 535.209 42.85C525.395 30.8821 513.288 20.9738 499.623 13.7057C485.958 6.43781 470.986 1.96044 455.577 0.512616ZM454.116 16.2579C467.445 17.5104 480.392 21.3938 492.213 27.681C504.034 33.9681 514.493 42.5201 522.983 52.8735C531.473 63.2264 537.821 75.1628 541.672 87.9865C545.521 100.81 546.8 114.269 545.418 127.586L545.397 127.628L492.706 688.654L507.608 675.687C510.115 673.506 513.05 671.869 516.232 670.912C519.413 669.955 522.777 669.692 526.07 670.13L526.152 670.151H526.234C529.191 670.476 532.053 671.408 534.632 672.889C537.21 674.369 539.468 676.364 541.239 678.755L541.26 678.817L541.301 678.858C547.357 686.753 550.692 701.003 551.407 716.482C552.122 731.962 550.522 748.49 548.731 760.96L548.319 763.821L549.863 766.27C553.409 771.922 555.424 778.417 555.729 785.082C556.456 800.47 548.357 816.013 534.55 825.485L531.113 827.872L531.134 832.051C531.263 858.686 518.783 870.515 513.721 874.491L513.659 874.532L513.597 874.573C510.339 877.227 506.528 879.106 502.442 880.089L497.09 881.386L496.452 886.86C493.361 912.963 472.839 926.121 449.731 928.951L446.006 929.404L444.009 932.573C430.442 953.977 405.663 963.055 383.786 963.055C381.358 963.055 378.949 962.928 376.582 962.706L372.589 962.335L369.914 965.361C360.978 975.502 343.877 982.023 314.754 983.761C309.833 984.055 305.335 984.193 301.108 984.193C278.43 984.193 264.844 980.053 256.465 972.647L253.501 970.033L249.632 970.835C244.314 971.935 238.906 972.484 233.475 972.482C214.092 972.482 193.698 965.709 180.003 949.121L177.636 946.26H173.664C150.439 946.26 128.558 935.775 122.271 910.344L120.953 905.013L115.478 904.396C111.284 903.924 107.252 902.529 103.664 900.3L103.623 900.259L103.582 900.238C98.0561 896.906 84.2036 886.721 81.0034 860.288L80.4889 856.131L76.7841 854.217C61.9537 846.548 51.9865 832.121 50.7684 816.757V816.736C50.2214 810.05 51.4371 803.348 54.2673 797.265L55.4817 794.652L54.7201 791.853C51.4188 779.682 47.7886 763.499 46.5696 748.054C45.3506 732.609 46.863 718.059 51.9004 709.442L51.9209 709.401L51.9621 709.339C53.4178 706.763 55.3762 704.528 57.7457 702.753C58.1428 702.455 58.6681 702.404 59.0835 702.135L54.0203 710.739C53.9804 710.807 54.0186 710.917 53.9791 710.986C53.9492 711.042 53.885 711.073 53.8556 711.13L53.9586 711.109C49.1645 719.512 48.335 729.853 48.7513 741.344C49.1727 752.975 51.1579 765.738 53.8351 777.877L56.5314 790.061L66.3902 782.425C67.9486 781.219 69.5797 780.107 71.2681 779.091L71.3093 779.07C71.3224 779.062 71.3375 779.057 71.3505 779.049C84.2227 771.524 98.5012 766.664 113.297 764.806L126.264 763.18L118.792 752.457C115.169 747.259 111.7 741.445 108.192 735.559L108.171 735.538C101.909 724.994 96.639 716.276 90.43 709.854C84.2153 703.425 75.3874 699.19 66.3696 701.333H66.349V701.354C64.4515 701.807 62.809 702.865 61.1418 703.865L59.3099 702.012C61.3156 700.75 63.3968 699.57 65.711 699.028L65.8139 699.007L65.9374 698.986C70.7911 697.704 75.9119 698.022 80.5713 699.891L99.7331 707.569L90.6153 689.066C76.7319 660.902 64.6409 631.875 54.4114 602.189H54.3908V602.168C24.0025 514.656 11.2504 426.836 18.0428 355.759C25.0902 282.204 51.9616 236.2 91.3151 222.552C121.534 212.062 157.137 221.209 194.452 248.733C231.766 276.256 269.979 321.945 303.516 381.796L315.907 403.901L343.672 108.672V108.63C344.793 95.2893 348.553 82.312 354.725 70.43C360.896 58.5481 369.359 48.0034 379.629 39.4128C389.898 30.8224 401.771 24.3498 414.557 20.3744C427.341 16.399 440.784 15.0056 454.116 16.258V16.2579ZM453.786 19.6951C427.669 17.2391 401.644 25.2757 381.44 42.0061C361.236 58.7366 348.495 82.8016 346.039 108.919V108.94L318.171 408.532L318.994 410.405C319.672 411.96 320.29 413.244 321.155 415.016C322.032 416.811 322.799 418.351 323.666 420.161C324.549 422.006 325.52 424.099 326.301 425.78C327.14 427.588 327.801 428.901 328.647 430.782C329.538 432.761 330.419 434.778 331.343 436.833C332.103 438.56 332.859 440.173 333.525 441.711V441.732L333.546 441.753C334.39 443.664 335.272 445.851 336.222 448.01C336.901 449.692 337.579 451.225 338.157 452.641L338.178 452.723L338.219 452.785C339.1 454.833 339.96 456.992 340.853 459.186H340.874C341.53 460.785 342.166 462.322 342.768 463.817C343.678 466.112 344.56 468.422 345.464 470.753L345.485 470.816L345.526 470.878C346.078 472.228 346.629 473.645 347.193 475.097C348.153 477.821 349.166 480.41 350.054 482.815C350.532 484.118 351.007 485.312 351.413 486.417C352.741 490.218 354.057 494.035 355.385 497.861C356.637 501.468 357.871 505.087 359.069 508.708V508.729C359.534 510.121 360.008 511.625 360.551 513.257V513.298L360.572 513.319C361.233 515.244 361.873 517.325 362.528 519.37L364.38 525.318L365.636 529.496C366.366 531.94 367.09 534.441 367.817 536.947L368.352 538.82C380.101 579.573 387.916 621.365 391.692 663.609L393.133 679.725L410.566 663.465C414.584 659.887 419.825 658.016 425.2 658.258C430.575 658.501 435.642 660.837 439.319 664.762C442.999 668.689 444.983 673.893 444.877 679.272C444.77 684.645 442.567 689.739 438.743 693.515C438.738 693.52 438.748 693.531 438.743 693.536L392.022 737.232V741.163L392.207 739.434C391.828 741.131 391.857 742.534 391.857 743.18L391.878 742.501C391.745 744.037 391.6 745.559 391.425 747.091L391.404 747.132V747.173C390.589 755.101 389.524 762.765 388.214 770.163C387.864 772.152 387.492 774.104 387.103 776.009L385.106 785.826L395.13 785.497C399.218 785.358 403.292 785.762 407.273 786.691L412.028 787.782L415.135 784.056C420.865 777.194 428.557 772.256 437.179 769.896L440.945 768.867L442.407 765.244C443.662 762.158 447.003 760.8 449.055 758.246C446.308 761.704 444.146 765.604 443.065 769.896L443.024 769.999L443.003 770.122C443.016 770.062 442.973 770.258 442.982 770.205C442.92 770.424 442.801 770.614 442.632 770.76C442.465 770.906 442.238 770.997 442.015 771.028L441.891 771.049L441.768 771.07C434.041 772.386 426.829 775.823 420.939 780.991L411.574 789.223L422.441 793.937L423.861 794.822L424.15 795.007L425.611 795.954L426.208 796.345L428.41 797.744L428.698 797.909L430.304 799L430.9 799.412L433.062 800.852L433.514 801.161L435.49 802.499L436.005 802.849L438.351 804.516L438.68 804.763L440.8 806.368L441.356 806.78L443.888 808.632L444.299 808.962L446.502 810.629L447.016 811.061L449.733 813.099L450.062 813.366L452.553 815.404L452.882 815.651L455.619 817.894L456.011 818.224L458.48 820.302L458.789 820.57L461.835 822.999L462.103 823.225L464.758 825.613L464.779 825.634C465.616 826.379 466.444 827.153 467.311 827.98L467.763 828.412C469.471 830.044 471.155 831.723 472.847 833.455L473.218 833.866L473.239 833.888C474.868 835.574 476.443 837.278 477.932 838.992L477.953 839.013L478.385 839.507C479.895 841.225 481.34 842.965 482.728 844.735L483.078 845.188L483.099 845.229C483.177 845.329 483.267 845.436 483.346 845.537L483.325 845.681L485.156 848.09C485.694 848.806 486.23 849.615 486.823 850.498L486.845 850.519L487.194 851.033C487.768 851.905 488.333 852.763 488.841 853.586L488.985 853.833C489.516 854.732 489.986 855.523 490.343 856.179L490.385 856.261L490.734 856.858C491.198 857.716 491.638 858.54 492.031 859.328C492.135 859.55 492.228 859.78 492.34 859.987C492.506 860.337 492.654 860.69 492.813 861.036L493.492 862.58C493.786 863.236 494.106 864.05 494.48 865.029L494.584 865.358L494.605 865.4C494.833 866.039 495.045 866.76 495.305 867.602L495.201 867.169C495.26 867.409 495.316 867.635 495.387 867.869C495.554 868.495 495.705 869.105 495.86 869.722V881.886L507.386 875.938C509.428 874.881 511.347 873.596 513.108 872.109C518.869 867.26 530.31 853.288 528.647 827.24C528.632 827.012 528.682 826.78 528.791 826.582C528.899 826.386 529.062 826.22 529.265 826.108L529.12 825.841C544.269 817.401 553.92 801.728 553.14 785.129C552.458 770.682 543.32 758.266 529.594 752.301L529.573 752.28C506.14 742.165 479.285 739.968 460.602 749.11C456.808 750.799 453.578 753.436 450.743 756.458C453.685 753.301 455.534 749.102 459.511 747.237L459.532 747.216L459.574 747.195C461.558 746.243 463.603 745.421 465.686 744.725L467.662 744.067L469.062 742.502C476.805 733.862 481.68 721.909 486.536 710.765L486.557 710.744L488.698 705.886L543.014 127.447C545.466 101.326 537.428 75.3003 520.699 55.0963C503.968 34.8925 479.903 22.1513 453.786 19.6951V19.6951ZM452.304 35.4404C474.253 37.5046 494.473 48.2016 508.535 65.1815C522.595 82.1614 529.329 104.013 527.264 125.96L473.195 701.847L472.063 704.4V704.421C467.393 715.138 462.491 725.307 457.861 730.869C456.157 731.523 454.444 732.14 452.798 732.927C442.627 737.697 434.873 746.066 429.87 756.041C420.956 759.047 413.058 764.142 406.489 770.86C405.697 770.733 404.897 770.729 404.101 770.633C405.301 763.56 406.356 756.354 407.127 748.878V748.796C407.311 747.167 407.476 745.519 407.621 743.856L407.662 743.527V743.177C407.662 742.531 407.674 742.646 407.621 742.889L407.826 742.024V744.083L449.752 704.874L449.834 704.792C456.599 698.124 460.493 689.074 460.681 679.578C460.869 670.083 457.337 660.885 450.843 653.954C444.349 647.023 435.406 642.898 425.918 642.469C418.596 642.139 411.709 644.614 405.542 648.397C401.3 609.875 394.28 571.709 383.539 534.454L383.004 532.54C382.282 530.051 381.544 527.497 380.781 524.945L379.505 520.685L377.591 514.572V514.531C376.96 512.561 376.276 510.421 375.533 508.253L375.512 508.191C375.054 506.812 374.609 505.337 374.071 503.725C372.849 500.032 371.602 496.353 370.325 492.672C368.979 488.794 367.638 484.936 366.291 481.084L366.27 481.022L366.249 480.96C365.769 479.652 365.298 478.469 364.891 477.358V477.337C363.873 474.582 362.838 471.994 362.009 469.619L361.968 469.495L361.906 469.372C361.356 467.959 360.797 466.501 360.197 465.029L360.156 464.905C359.264 462.605 358.367 460.286 357.44 457.949L357.418 457.928C356.773 456.322 356.116 454.756 355.484 453.214V453.193C354.624 451.081 353.737 448.881 352.787 446.669L352.725 446.525C352.025 444.815 351.349 443.268 350.791 441.873L350.749 441.75L350.687 441.626C349.868 439.764 348.977 437.598 348.012 435.41L347.991 435.369C347.22 433.594 346.466 431.952 345.788 430.409L345.767 430.368V430.347C344.877 428.367 343.975 426.35 343.05 424.296C342.082 422.142 341.377 420.691 340.642 419.109C339.851 417.403 338.837 415.273 337.905 413.325C336.955 411.342 336.17 409.751 335.353 408.077C334.887 407.124 334.625 406.526 334.303 405.834L361.78 110.398H361.759C363.828 88.4509 374.525 68.2306 391.505 54.1701C408.485 40.1095 430.355 33.3763 452.304 35.4404ZM118.957 220.638C109.722 220.402 100.722 221.715 92.0766 224.713C71.7103 231.781 55.2352 247.702 43.3176 270.056C31.4001 292.41 23.7592 321.325 20.4509 355.904L20.1422 359.114L20.4509 359.485C14.293 430.523 27.1037 515.896 56.7577 601.386C78.3034 663.498 105.566 718.303 137.913 764.294L139.415 766.434L141.926 767.257C149.991 769.894 156.758 775.445 160.924 782.838L162.838 786.234L166.707 786.79C175.556 788.046 183.796 791.975 190.336 798.069L193.917 801.403L198.486 799.695C220.911 791.37 248.432 803.643 256.63 808.072L256.713 808.093L256.775 808.134C261.085 810.356 265.125 813.06 268.836 816.181L272.417 819.186L276.781 817.499C285.634 814.086 294.981 812.178 304.463 811.839H304.546L304.649 811.818C313.716 811.295 322.798 812.063 331.653 814.082L336.119 815.09L339.206 811.735C342.517 808.154 346.218 804.963 350.238 802.206L350.3 802.165L350.363 802.123C358.714 796.163 367.949 791.517 377.716 788.375L383.191 786.625V781.438L383.129 781.685C386.414 766.693 388.607 751.47 389.674 736.158L389.653 736.199C390.271 727.928 390.621 719.401 390.723 710.677V710.636V709.545V697.34V694.891V694.787C390.642 691.614 390.537 688.378 390.394 685.114V685.093C390.326 683.545 390.25 682.334 390.25 681.409V681.182L390.106 678.918V678.897C387.359 634.998 380.069 591.527 368.453 549.106V548.818L368.206 547.872C367.542 545.234 366.824 542.699 366.148 540.256L366.127 540.215L365.098 536.634V536.593C364.522 534.567 363.895 532.433 363.246 530.336L363.224 530.254L361.722 525.252L360.117 520.045L360.075 519.942C359.412 517.679 358.7 515.499 358.038 513.417V513.376L356.68 509.302C355.486 505.695 354.271 502.098 353.037 498.517C350.36 490.772 347.56 483.102 344.639 475.506V475.485C335.932 452.689 326.141 430.565 315.536 409.458C283.021 344.805 244.527 293.474 205.669 260.609C176.526 235.959 146.66 221.347 118.957 220.638ZM118.854 236.507C141.701 237.231 168.029 249.49 195.46 272.69C232.034 303.624 269.649 353.391 301.417 416.559C311.786 437.198 321.365 458.847 329.882 481.146V481.167C332.74 488.599 335.474 496.103 338.094 503.683C339.304 507.195 340.504 510.723 341.675 514.263L343.013 518.297C343.703 520.466 344.378 522.543 344.948 524.492L344.969 524.554L346.615 529.864L348.118 534.907L348.139 534.948C348.728 536.846 349.305 538.907 349.888 540.958L350.938 544.56L350.897 544.478C351.515 546.712 352.108 548.84 352.647 550.92V550.982L352.914 552.011C364.446 593.786 371.634 636.635 374.34 679.888L374.464 681.884C374.484 683.37 374.561 684.703 374.608 685.795C374.746 688.937 374.858 692.088 374.937 695.201L374.916 694.995V697.341V709.547V710.576C374.816 718.968 374.497 727.147 373.907 735.027L373.886 735.048V735.069C372.933 748.753 370.881 762.317 368.062 775.74C358.632 779.268 349.41 783.406 341.202 789.262C337.396 791.882 334.048 795.073 330.746 798.298C321.85 796.638 312.83 795.538 303.784 796.054C294.148 796.411 284.76 798.772 275.627 801.817C271.956 799.033 268.238 796.282 264.143 794.161C254.841 789.135 226.471 775.757 197.518 784.055C190.109 778.111 181.522 773.997 172.202 772.117C166.753 764.013 159.18 757.812 150.159 754.067C119.123 709.697 92.6515 656.656 71.6798 596.199C42.1742 511.137 29.6898 426.088 36.258 357.509L36.3815 356.212C39.6155 323.718 46.8502 297.035 57.2723 277.486C67.8347 257.674 81.3019 245.195 97.2633 239.656C104.018 237.314 111.238 236.265 118.854 236.507H118.854ZM425.28 660.23C420.451 660.076 415.751 661.846 412.231 665.149L391.237 684.805L393.13 688.572C393.168 689.509 393.193 690.395 393.193 691.556V691.66V691.763C393.255 694.212 393.357 696.548 393.357 698.637V705.512V712.53V732.783L437.177 691.722C440.697 688.417 442.765 683.849 442.919 679.023V679.002C443.071 674.177 441.286 669.496 437.979 665.973C434.676 662.459 430.101 660.383 425.28 660.231L425.28 660.23ZM525.123 672.477L525.102 672.744C516.306 672.214 508.409 677.076 503.244 683.962C497.877 691.117 493.716 700.423 488.816 711.686C486.09 717.919 483.36 724.067 480.377 729.839L474.409 741.365H487.396C502.344 741.358 517.124 744.376 530.865 750.256C532.673 751.048 534.425 751.948 536.114 752.953L546.878 759.354L548.031 746.881C549.172 734.503 549.558 721.611 548.525 710.018C547.496 698.482 545.397 688.205 539.51 680.442C537.95 678.264 535.981 676.404 533.664 675.05C531.337 673.688 528.75 672.867 526.07 672.58V672.538C526.046 672.536 526.031 672.562 526.007 672.56C525.971 672.556 525.942 672.522 525.904 672.518V672.581C525.64 672.553 525.426 672.741 525.163 672.725L525.184 672.478L525.123 672.477ZM424.786 676.017C425.427 676.037 426.012 676.309 426.453 676.778H426.474C426.912 677.245 427.132 677.862 427.112 678.507C427.091 679.153 426.82 679.754 426.35 680.195L409.103 696.352C409.069 694.713 409.039 693.061 408.999 691.556V691.371C408.999 690.922 408.961 690.347 408.958 689.869L423.057 676.675C423.528 676.234 424.143 675.996 424.786 676.017H424.786ZM524.671 681.842L524.362 688.263C524.828 688.309 525.294 688.458 525.7 688.696C526.106 688.933 526.458 689.255 526.729 689.642L526.811 689.786L526.914 689.91C529.331 693.066 531.872 701.231 532.78 711.418C533.404 718.412 532.833 726.718 532.451 734.779C521.642 730.631 510.224 728.923 498.717 727.863C500.24 724.566 501.882 721.263 503.307 718.004V717.983C508.13 706.897 512.258 698.281 515.882 693.449C519.506 688.618 520.971 687.871 524.321 688.242L524.671 681.842ZM70.0126 716.728C73.2989 715.947 74.85 716.502 79.0481 720.845C83.2463 725.187 88.4136 733.232 94.5876 743.629H94.6082C96.4153 746.662 98.4744 749.74 100.392 752.829C89.1096 755.318 77.9925 758.458 67.7897 763.923C66.4033 755.97 64.7921 747.786 64.5378 740.768C64.17 730.616 65.6601 722.334 67.6457 718.869L67.8926 718.395C68.107 717.981 68.4095 717.613 68.7777 717.325C69.1384 717.043 69.5636 716.84 70.0126 716.728H70.0126ZM492.275 759.683C502.315 760.198 513.379 762.517 523.313 766.804C532.398 770.763 536.943 777.244 537.35 785.863C537.816 795.795 531.74 806.366 521.357 812.106L521.501 812.394C518.755 813.946 516.458 816.206 514.936 818.98C513.387 821.806 512.653 825.027 512.857 828.242C513.782 842.73 510.457 849.738 507.156 854.361C506.916 853.841 506.672 853.313 506.435 852.817L506.414 852.796C506.398 852.757 506.389 852.728 506.373 852.693L506.332 852.63L506.291 852.527L506.167 852.26C505.623 851.17 505.065 850.135 504.521 849.131L504.48 849.049L504.212 848.596L504.13 848.431C503.568 847.412 503.011 846.506 502.545 845.715L502.524 845.694L502.298 845.323L502.277 845.282C501.634 844.242 500.974 843.206 500.321 842.215L500.28 842.174L499.93 841.659L499.909 841.618C499.683 841.283 499.407 840.915 499.168 840.569L499.147 840.322L497.851 838.552C497.132 837.566 496.385 836.565 495.607 835.567V835.546C495.589 835.523 495.564 835.507 495.545 835.484L495.195 835.011L495.154 834.97C493.604 832.993 491.986 831.029 490.276 829.083L490.255 829.062L489.843 828.609H489.864C488.179 826.668 486.422 824.778 484.637 822.928L484.595 822.887L484.184 822.435L484.143 822.414C482.366 820.596 480.549 818.777 478.668 816.98L478.215 816.548C477.275 815.65 476.321 814.75 475.313 813.851L475.272 813.83L472.576 811.381L471.917 810.805L468.974 808.479L468.85 808.376L466.113 806.05L465.619 805.659L462.861 803.395L462.511 803.127L460.041 801.11L459.486 800.657L456.851 798.661L456.357 798.249L453.928 796.417L453.414 796.006L450.8 794.112L450.347 793.762L448.042 792.013L447.527 791.642L445.119 789.934L444.419 789.44L442.361 788.061L441.97 787.814C442.854 787.567 443.509 786.796 444.419 786.641L444.172 786.682C447.439 786.232 450.512 784.837 453.002 782.669C455.493 780.501 457.294 777.651 458.189 774.477L458.395 773.736C458.964 771.473 460.036 769.385 461.544 767.602C463.052 765.819 464.942 764.402 467.08 763.465L467.245 763.383L467.41 763.321C473.212 760.454 482.233 759.164 492.273 759.678L492.275 759.683ZM122.435 766.599C104.817 767.058 87.6381 772.066 72.5236 781.13C59.6696 788.771 52.1636 802.23 53.3 816.654C54.6128 833.273 66.1734 847.681 82.3413 854.134H82.3618L82.3824 854.155C82.5831 854.234 82.7494 854.371 82.8764 854.546C82.9973 854.72 83.0703 854.937 83.0822 855.143L83.3291 859.342L84.667 860.124C87.7822 881.885 98.4049 893.958 104.241 897.707C106.186 898.965 108.265 899.992 110.436 900.774L120.151 904.273L120.994 893.982C121.022 893.648 121.101 893.02 121.221 892.109L121.303 891.594V890.977C121.458 890.037 121.637 889.072 121.859 888.075L121.88 888.012C121.647 889.127 122.271 888.752 122.271 885.522L122.044 887.333C122.265 886.399 122.525 885.488 122.806 884.596L123.156 883.484L123.177 883.443C123.46 882.562 123.797 881.62 124.165 880.644L124.432 879.924C124.92 878.722 125.464 877.456 126.037 876.198L126.243 875.766L126.264 875.704C126.733 874.678 127.28 873.611 127.869 872.452L127.807 872.534L128.425 871.382V871.36C128.902 870.441 129.405 869.525 129.927 868.623L129.948 868.582C130.233 868.095 130.4 867.802 130.401 867.8L130.463 867.696L130.525 867.593C131.281 866.294 132.044 865.031 132.81 863.827L133.757 862.345L133.778 862.263C134.244 861.556 134.691 860.835 135.177 860.122L135.218 860.081L135.959 859.011V858.99C136.651 857.984 137.276 857.032 137.812 856.293L137.853 856.252L138.635 855.203C139.506 854.02 140.399 852.843 141.29 851.704L141.311 851.663C141.336 851.631 141.368 851.612 141.393 851.58L141.456 851.477C142.46 850.233 143.398 849.054 144.316 847.937H144.295L145.139 846.928C145.866 846.048 146.575 845.213 147.28 844.417L147.444 844.232L147.568 844.067C147.67 843.938 147.889 843.684 148.206 843.327L148.227 843.305C149.055 842.38 149.817 841.498 150.553 840.671L150.841 840.362C151.046 840.137 151.266 839.884 151.294 839.848L151.376 839.744C152.414 838.608 153.428 837.52 154.402 836.492V836.471L155.245 835.586L157.571 833.158L158.477 832.231L161.132 829.638L161.749 829.062L161.832 828.98C163.046 827.828 164.013 826.809 164.857 825.995L164.919 825.954L165.578 825.316L167.966 823.052L168.83 822.249L171.053 820.253L171.794 819.574L174.634 817.021L174.099 817.454C174.587 817.086 175.039 816.68 175.457 816.239L174.86 816.816L177.248 814.778L177.968 814.161L179.985 812.473L180.624 811.917L192.561 801.688L183.875 795.904C177.376 791.57 169.804 789.097 161.997 788.783H161.893H161.811C161.592 788.78 161.38 788.718 161.194 788.598C161.008 788.478 160.853 788.319 160.762 788.124L160.741 788.083L160.719 788.042H160.741L160.678 787.877L160.596 787.692C158.861 783.289 156.16 779.34 152.672 776.146C149.216 772.982 145.075 770.659 140.59 769.312C134.76 767.427 128.646 766.498 122.519 766.596H122.478L122.435 766.599ZM122.785 782.406C127.197 782.335 131.576 782.997 135.772 784.361L135.876 784.402L135.979 784.423C138.214 785.083 140.272 786.247 141.989 787.819C143.709 789.394 145.046 791.334 145.899 793.5L145.776 793.15C145.976 793.735 146.196 794.319 146.476 794.9C146.48 794.908 146.493 794.912 146.497 794.921C147.852 797.767 149.965 800.171 152.61 801.877C155.277 803.597 158.389 804.545 161.563 804.594H161.357C162.267 804.631 163.013 805.289 163.909 805.418L161.172 807.887L160.452 808.546L158.167 810.584L157.117 811.551L154.709 813.836L153.989 814.535L153.968 814.557C152.788 815.69 151.818 816.696 150.88 817.582L150.839 817.603L150.119 818.324L147.34 821.02L146.229 822.152L143.759 824.725L142.874 825.671C141.752 826.858 140.675 828.038 139.622 829.191L139.581 829.232L139.54 829.273C139.21 829.646 139.156 829.698 139.375 829.479L139.21 829.644L139.087 829.808C138.129 830.876 137.231 831.9 136.432 832.793L136.411 832.814C136.099 833.165 135.655 833.641 135.155 834.275C134.398 835.139 133.664 836.007 132.953 836.868L132.109 837.898H132.088C130.997 839.224 130.014 840.5 129.021 841.726L128.857 841.911L128.63 842.24C127.701 843.434 126.791 844.631 125.913 845.822L125.09 846.913L125.069 846.934C124.199 848.127 123.475 849.248 122.928 850.042H122.949L122.167 851.153L122.146 851.174C121.246 852.492 120.37 853.837 119.491 855.208L117.927 857.637L117.948 857.863C117.592 858.458 117.217 859.071 116.878 859.654C116.609 860.102 116.373 860.5 116.301 860.621L116.28 860.642V860.663C115.626 861.793 115 862.941 114.407 864.08L113.79 865.233L113.769 865.295C113.148 866.515 112.516 867.767 111.896 869.123L111.67 869.576L111.648 869.638C110.971 871.125 110.337 872.601 109.776 873.981L109.734 874.063L109.364 875.071C108.93 876.22 108.507 877.407 108.108 878.653V878.674L107.903 879.332C104.068 875.164 99.8695 868.652 98.9716 854.258L98.704 850.08L97.0369 849.092C96.5257 847.826 96.486 846.38 95.6785 845.263C93.7912 842.657 91.1983 840.647 88.2072 839.459L88.166 839.438C77.1686 835.031 69.8284 825.333 69.0453 815.419C68.367 806.81 72.0663 799.782 80.5918 794.714L80.6124 794.693H80.6329C93.3973 787.035 107.905 782.803 122.785 782.405L122.785 782.406ZM394.016 787.839C387.509 788.156 381.162 789.679 375.327 791.771C363.658 795.954 353.695 802.44 347.13 807.804L338.732 814.658L348.241 820.812C349.074 821.356 349.84 821.878 350.588 822.417L351.123 822.808C352.027 823.509 352.827 824.161 353.551 824.805L353.798 825.031L353.82 825.072C354.453 825.657 355.124 826.316 355.816 827.028L356.331 827.583C356.975 828.311 357.56 828.991 358.08 829.641L358.162 829.786L358.286 829.95C358.833 830.688 359.358 831.443 359.85 832.214L359.891 832.276L359.932 832.339C360.143 832.655 360.249 832.844 360.159 832.688L360.241 832.792L360.303 832.915C360.582 833.36 360.88 833.916 361.167 834.438L361.702 835.55C362.097 836.355 362.493 837.26 362.896 838.246L362.917 838.308L362.938 838.349C363.01 838.517 363.071 838.714 363.103 838.802L363.124 838.864L363.165 838.926C363.519 839.859 363.831 840.769 364.112 841.684C364.194 841.996 364.105 841.336 364.112 841.437L364.194 841.931C364.196 841.937 364.192 841.946 364.194 841.952L371.007 887.007L377.778 931.649V931.773L377.841 932.267C378.012 933.654 378.121 934.998 378.211 936.342V937.083L378.232 937.412C378.319 938.467 378.335 939.663 378.335 941.055V941.835C378.316 942.965 378.267 944.092 378.171 945.169L378.13 945.519V946.074C378.029 947.171 377.9 948.163 377.739 949.1L377.635 949.717V949.78C377.533 950.305 377.428 950.845 377.326 951.261L374.918 961.161L385.106 961.038C406.788 960.769 431.643 951.19 444.198 927.942C444.284 927.782 444.419 927.66 444.568 927.551C444.714 927.447 444.87 927.358 445.042 927.325L445.124 927.303L452.286 927.241L452.472 925.039C457.692 924.325 463.473 924.108 472.004 919.338C483.548 912.883 494.93 899.586 494.5 878.976L494.521 878.997C494.492 877.42 494.377 876.494 494.377 876.054V875.766L494.356 875.457C493.127 859.505 481.365 845.317 468.052 832.194C454.778 819.108 439.29 807.524 428.061 799.962L427.979 799.9C423.557 796.82 418.951 794.004 414.189 791.482L413.921 791.338L413.633 791.214C407.193 788.419 400.526 787.523 394.019 787.839L394.016 787.839ZM211.7 799.283C205.195 799.779 198.694 801.521 192.641 805.108L192.558 805.149L192.455 805.211C187.682 808.226 179.368 815.185 168.827 825.299C158.286 835.414 146.341 848.185 137.233 861.462C136.359 862.719 135.584 863.926 134.846 865.064H134.825V865.085C133.258 867.511 131.793 869.946 130.461 872.433V872.454C125.871 881.063 122.702 889.79 123.134 898.737V898.758V898.779C123.228 900.479 123.361 901.399 123.361 901.455V901.866L123.402 902.299C125.586 922.933 138.73 934.676 151.064 939.593C163.398 944.511 174.97 944.022 178.13 943.833L177.656 943.854H178.438C178.451 943.854 178.471 943.853 178.479 943.854L178.583 943.876L178.686 943.897C178.799 943.914 178.912 943.949 179.015 944L179.386 944.535C194.449 965.698 219.787 972.105 241.07 969.995L250.723 969.044L247.821 959.782C245.308 951.732 244.543 943.227 245.578 934.857L245.619 934.61L246.01 927.921L248.027 849.318V849.256C248.027 849.247 248.024 849.233 248.027 849.215V849.194C249.434 840.099 254.23 831.873 261.447 826.162L270.235 819.206L260.726 813.257C253.56 808.779 242.884 803.598 230.779 800.888C224.727 799.534 218.204 798.787 211.7 799.283H211.7ZM394.613 803.667C399.079 803.435 403.33 804.071 407.168 805.705C411.247 807.886 415.21 810.262 419.002 812.908L419.065 812.949L419.127 812.991C429.715 820.114 444.718 831.388 456.957 843.452C469.195 855.516 477.982 868.803 478.588 876.672C478.622 877.822 478.703 878.851 478.712 879.306C479.028 894.478 472.356 901.014 464.284 905.528C456.212 910.041 446.591 911.141 444.463 911.291L437.692 911.764L437.527 913.781C436.772 914.177 435.892 914.303 435.201 914.81C433.175 916.299 431.502 918.214 430.303 920.429C422.72 934.471 408.426 940.7 394.078 943.069C394.089 942.704 394.134 942.317 394.141 941.958V941.896V941.052C394.141 939.84 394.118 938.344 394.017 936.75V935.804L393.996 935.536C393.901 934.068 393.763 932.54 393.584 930.987V930.452L386.628 884.636L379.836 839.665L379.918 840.838C379.918 838.234 379.325 837.371 379.403 837.668L379.362 837.524L379.321 837.401C378.912 836.037 378.463 834.743 377.983 833.469C377.826 833.031 377.665 832.645 377.51 832.276C377.297 831.755 377.022 831.204 376.789 830.67L376.83 830.217L375.801 828.242C375.221 827.122 374.574 825.934 373.825 824.722L373.702 824.516C373.469 824.134 373.27 823.863 373.167 823.713L373.085 823.569C372.491 822.645 371.862 821.742 371.212 820.853L370.985 820.523L370.841 820.276L370.635 820.029C369.737 818.889 368.852 817.879 368.001 816.921L367.939 816.839L367.198 816.057L367.157 816.016C366.822 815.672 366.424 815.302 366.066 814.946C370.755 811.949 374.829 808.741 380.659 806.651C385.358 804.966 390.088 803.901 394.613 803.667L394.613 803.667ZM304.648 814.473C296.651 814.906 285.764 816.225 275.586 820.832C265.402 825.443 255.558 834.316 253.152 848.042L253.07 848.474L248.459 928.189L248.151 940.538V940.62C248.151 951.634 250.333 960.784 256.034 967.624L256.075 967.665L256.096 967.706C256.152 967.771 256.194 967.852 256.219 967.932L256.919 970.155L258.73 971.637C268.92 980.072 285.172 982.037 306.296 981.517V982.237L314.631 981.764C342.394 980.173 361.893 974.598 370.985 960.482V960.461C375.784 952.971 376.845 943.638 375.513 932.716L375.492 932.592L361.887 842.69L361.723 842.134C358.251 830.978 349.274 822.689 337.209 818.465L337.086 818.424L336.962 818.383C326.526 815.109 315.585 813.776 304.669 814.472L304.648 814.473ZM213.099 815.069C217.622 814.74 222.447 815.213 227.321 816.304C233.657 817.722 238.407 820.539 243.581 823.055C238.117 830.037 233.809 837.854 232.426 846.745C232.302 847.528 232.226 848.33 232.22 849.133L230.203 927.262L229.853 933.437L229.894 932.923C229.045 939.79 230.68 946.556 231.726 953.361C217.075 952.993 202.018 948.507 192.62 935.598L192.332 935.207C191.008 933.337 189.319 931.772 187.372 930.576V930.555C185.445 929.374 183.289 928.61 181.053 928.27C180.189 928.128 179.31 928.044 178.439 928.044H177.41L177.184 928.065C175.281 928.179 165.558 928.364 156.91 924.916C148.262 921.468 140.735 915.818 139.127 900.629L139.168 901.453C139.168 899.526 138.954 898.467 138.921 897.974V897.953C138.713 893.549 140.579 887.079 144.417 879.882C145.499 877.863 146.733 875.785 148.101 873.666V873.645C148.843 872.501 149.556 871.438 150.242 870.455V870.434L150.263 870.413C158.381 858.578 169.729 846.321 179.757 836.699C189.743 827.118 199.172 819.718 200.812 818.669C204.44 816.542 208.614 815.395 213.1 815.068L213.099 815.069ZM305.513 830.259H305.554H305.595C314.539 829.681 323.507 830.766 332.064 833.429C340.667 836.462 344.465 840.323 346.492 846.622L359.808 934.631C360.896 943.557 359.847 948.538 357.668 951.94C353.778 957.953 339.567 964.388 314.116 965.916L313.725 965.937C289.575 967.358 275.045 964.073 269.35 959.68C268.919 958.977 268.71 958.151 268.177 957.519C265.61 954.439 263.961 949.617 263.957 940.641C263.957 940.631 263.957 940.631 263.957 940.62L264.266 928.847L268.794 850.635C270.234 842.719 274.946 838.484 282.111 835.24C289.323 831.975 298.606 830.633 305.513 830.259H305.513ZM563.637 784.811C563.286 776.749 560.846 768.915 556.557 762.079C560.228 736.523 563.193 694.407 547.581 674.055C545.162 670.791 542.096 668.06 538.573 666.037C535.05 664.014 531.147 662.74 527.108 662.296C522.702 661.71 518.221 662.07 513.965 663.35C509.708 664.629 505.772 666.8 502.419 669.718L553.269 128.404C554.759 114.048 553.389 99.5389 549.24 85.7153C545.089 71.8917 538.24 59.0279 529.088 47.8673C519.935 36.7067 508.663 27.4706 495.919 20.693C483.177 13.9154 469.217 9.73058 454.847 8.38045C440.477 7.03042 425.982 8.54178 412.2 12.8273C398.417 17.1128 385.621 24.0874 374.551 33.348C363.479 42.6087 354.355 53.9717 347.702 66.7802C341.049 79.5888 337.001 93.5892 335.792 107.971L310.417 377.933C242.523 256.768 155.488 191.901 88.7235 215.077C45.2763 230.144 17.381 279.844 10.1804 354.999C3.24112 427.612 16.2313 516.362 46.9307 604.77C57.2685 634.771 69.4895 664.09 83.5198 692.552C77.2845 690.051 70.4095 689.626 63.9138 691.341C59.9684 692.265 56.2579 693.998 53.0154 696.428C49.7728 698.858 47.0688 701.933 45.075 705.46C32.1048 727.648 40.335 769.018 47.092 793.928C43.684 801.252 42.2382 809.335 42.8968 817.386C44.3489 835.702 56.0272 852.382 73.1525 861.237C76.6617 890.222 92.5362 902.808 99.4944 907.004C104.078 909.852 109.239 911.645 114.603 912.248C121.823 941.455 147.843 954.163 173.661 954.163H173.903C189.374 972.9 212.227 980.383 233.467 980.383C239.436 980.386 245.391 979.777 251.237 978.569C261.665 987.786 277.459 992.103 301.099 992.103C305.495 992.103 310.155 991.962 315.217 991.659C345.312 989.863 364.797 983.127 375.85 970.581C378.432 970.823 381.074 970.965 383.777 970.965C407.84 970.965 435.353 960.98 450.683 936.795C476.38 933.648 500.746 917.755 504.295 887.782C509.532 886.522 514.42 884.103 518.596 880.701C524.991 875.679 539.169 861.217 539.028 832.01C554.964 821.078 564.484 803.065 563.617 784.71L563.637 784.811ZM525.132 680.389C526.737 680.546 528.29 681.05 529.682 681.864C531.075 682.679 532.276 683.786 533.2 685.109C541.57 696.041 542.377 722.102 540.158 746.164C538.169 744.981 536.107 743.924 533.986 742.997C519.261 736.696 503.41 733.45 487.392 733.457C490.519 727.406 493.323 721.113 496.066 714.84C505.788 692.491 512.625 678.997 525.192 680.389H525.132ZM353.905 109.666C356.165 85.6327 367.879 63.4821 386.471 48.0866C405.064 32.6911 429.009 25.3117 453.042 27.5718C477.075 29.832 499.225 41.5466 514.621 60.1385C530.016 78.7304 537.396 102.677 535.135 126.709L480.938 703.867L479.304 707.578C474.443 718.733 469.44 730.23 463.168 737.229C460.771 738.03 458.427 738.98 456.149 740.073C446.588 744.557 439.069 752.48 435.091 762.261C424.913 765.047 415.833 770.882 409.07 778.982C404.412 777.895 399.631 777.427 394.85 777.59C395.254 775.614 395.637 773.597 396 771.539C397.344 763.942 398.434 756.089 399.268 747.98C399.449 746.386 399.611 744.793 399.751 743.179C399.751 742.534 399.751 741.889 399.914 741.162V740.658L444.288 699.168C449.587 693.945 452.634 686.859 452.782 679.422C452.929 671.984 450.165 664.783 445.079 659.354C439.993 653.926 432.986 650.699 425.555 650.363C418.123 650.028 410.854 652.608 405.299 657.556L399.57 662.901C395.749 620.153 387.84 577.872 375.951 536.633L375.406 534.737C374.68 532.237 373.954 529.715 373.207 527.214L371.937 522.998L370.061 516.947C369.415 514.93 368.75 512.812 368.043 510.755C367.54 509.242 367.076 507.73 366.571 506.216C365.362 502.56 364.124 498.908 362.86 495.264C361.515 491.391 360.171 487.532 358.826 483.686C358.382 482.476 357.919 481.286 357.475 480.076C356.506 477.454 355.458 474.832 354.55 472.229C353.985 470.777 353.42 469.325 352.835 467.893C351.928 465.553 351.02 463.214 350.092 460.873C349.467 459.32 348.821 457.768 348.176 456.194C347.289 454.015 346.402 451.817 345.473 449.659C344.807 448.025 344.102 446.432 343.456 444.818C342.569 442.801 341.682 440.622 340.773 438.565C340.047 436.891 339.281 435.236 338.555 433.583C337.648 431.566 336.759 429.549 335.852 427.532C334.945 425.515 334.259 424.143 333.471 422.448C332.685 420.755 331.697 418.637 330.789 416.74C329.881 414.844 329.095 413.291 328.248 411.556C327.4 409.822 326.856 408.672 326.231 407.24L353.905 109.666ZM400.942 686.541L417.643 670.909C419.639 669.036 422.295 668.033 425.031 668.12C427.766 668.207 430.354 669.377 432.226 671.373C434.099 673.367 435.101 676.025 435.015 678.76C434.927 681.495 433.758 684.084 431.763 685.956L401.265 714.537C401.265 713.851 401.265 713.145 401.265 712.52C401.265 710.201 401.265 707.86 401.265 705.501C401.265 703.141 401.265 700.962 401.265 698.643C401.265 696.323 401.163 693.923 401.103 691.563C401.103 689.889 401.103 688.256 400.962 686.581L400.942 686.541ZM28.3132 356.653C34.7878 288.981 58.3466 244.788 94.6743 232.181C156.274 210.821 244.197 285.188 308.48 413.01C318.969 433.885 328.651 455.771 337.264 478.321C340.155 485.838 342.925 493.428 345.574 501.094C346.798 504.643 348.001 508.207 349.185 511.784L350.516 515.817C351.202 517.976 351.908 520.134 352.533 522.272L354.167 527.557L355.679 532.599C356.305 534.616 356.91 536.734 357.495 538.791L358.523 542.362C359.209 544.843 359.915 547.324 360.54 549.805V549.906C372.218 592.207 379.484 635.603 382.223 679.4L382.345 681.417C382.345 682.748 382.446 684.059 382.506 685.451C382.647 688.658 382.748 691.846 382.828 694.991V697.332C382.828 701.447 382.828 705.521 382.828 709.555C382.828 709.897 382.828 710.241 382.828 710.584C382.728 719.156 382.385 727.527 381.78 735.616C380.74 750.543 378.609 765.374 375.406 779.99L375.285 780.475C375.285 780.615 375.285 780.716 375.285 780.857C364.743 784.25 354.79 789.25 345.776 795.683C341.268 798.774 337.122 802.36 333.411 806.373C323.832 804.19 313.993 803.368 304.184 803.933C293.825 804.303 283.6 806.396 273.928 810.125C269.767 806.625 265.227 803.601 260.394 801.108C251.398 796.248 222.192 782.471 195.728 792.294C188.005 785.099 178.262 780.445 167.812 778.962C162.678 769.848 154.316 762.989 144.374 759.739C112.525 714.456 85.5568 660.319 64.2163 598.799C34.4042 512.853 21.6774 426.886 28.3943 356.753L28.3132 356.653ZM60.8683 714.759C61.6049 713.334 62.6408 712.084 63.9043 711.096C65.1678 710.107 66.6295 709.403 68.1902 709.03C80.4944 706.106 88.9459 718.631 101.39 739.589C104.9 745.479 108.451 751.449 112.303 756.976C96.4152 758.971 81.0992 764.173 67.2828 772.265C65.2975 773.454 63.3848 774.761 61.5544 776.179C56.3496 752.579 53.889 726.619 60.8483 714.739L60.8683 714.759ZM90.9829 854.682C90.8838 852.96 90.2926 851.301 89.282 849.904C88.2704 848.506 86.8793 847.427 85.2744 846.795C71.6793 841.369 62.2193 829.307 61.1708 816.034C60.2634 804.517 65.8707 794.271 76.5605 787.917C90.5108 779.548 106.387 774.928 122.651 774.504C127.934 774.42 133.196 775.21 138.222 776.843C141.608 777.844 144.72 779.601 147.324 781.986C149.928 784.37 151.955 787.315 153.249 790.6C153.352 790.902 153.473 791.199 153.612 791.487C154.335 793.023 155.476 794.324 156.901 795.244C158.328 796.164 159.984 796.664 161.68 796.692C168.036 796.948 174.199 798.951 179.491 802.48L175.457 805.929L174.852 806.454L172.835 808.148L172.088 808.794L169.728 810.811C169.61 810.935 169.482 811.05 169.345 811.153L166.48 813.735L165.754 814.401L163.495 816.418L162.548 817.305L160.147 819.585L159.441 820.251C158.413 821.239 157.424 822.268 156.314 823.316L155.629 823.982L152.906 826.624L151.898 827.653L149.497 830.154L148.65 831.062C147.581 832.191 146.532 833.341 145.463 834.511C145.302 834.693 145.14 834.894 144.959 835.076C144.071 836.064 143.184 837.093 142.317 838.061C141.994 838.425 141.671 838.787 141.368 839.171C140.582 840.058 139.815 840.965 139.049 841.894L138.202 842.922C137.173 844.173 136.185 845.423 135.156 846.694L135.055 846.835C134.108 848.046 133.179 849.276 132.272 850.506L131.465 851.595C130.759 852.563 130.073 853.612 129.448 854.52L128.682 855.63C127.814 856.9 126.967 858.171 126.14 859.462C126.145 859.502 126.145 859.543 126.14 859.583C125.293 860.914 124.485 862.266 123.699 863.617C123.498 863.939 123.316 864.283 123.114 864.625C122.522 865.647 121.958 866.676 121.42 867.712L120.815 868.862C120.21 870.051 119.625 871.221 119.08 872.412L118.838 872.916C118.213 874.288 117.628 875.659 117.103 876.95L116.761 877.857C116.357 878.926 115.974 879.995 115.631 881.065L115.268 882.214C114.925 883.303 114.623 884.413 114.36 885.522C114.36 885.765 114.219 886.026 114.158 886.288C113.856 887.64 113.594 888.991 113.392 890.322C113.392 890.585 113.392 890.827 113.392 891.069C113.291 891.836 113.171 892.582 113.11 893.328C111.495 892.746 109.951 891.982 108.511 891.048C103.771 888.003 92.5562 878.342 91.084 854.742L90.9829 854.682ZM185.885 939.78C185.18 938.785 184.28 937.943 183.24 937.304C182.2 936.666 181.041 936.246 179.833 936.069C179.374 935.989 178.908 935.949 178.442 935.949H177.655C172.593 936.251 135.055 937.28 131.263 901.457C131.263 900.448 131.081 899.44 131.021 898.35C130.699 891.674 133.219 884.07 137.436 876.163C138.645 873.904 139.997 871.645 141.47 869.365C142.216 868.216 142.962 867.066 143.749 865.936C160.974 840.824 190.322 815.914 196.676 811.9C216.08 800.402 243.633 811.9 256.542 819.968C247.763 826.915 241.935 836.922 240.223 847.985C240.16 848.385 240.127 848.79 240.123 849.195L238.106 927.597L237.743 933.891C236.57 943.377 237.436 953.005 240.285 962.129C221.162 964.025 198.874 958.277 185.824 939.942L185.885 939.78ZM314.189 973.829C288.834 975.321 272.315 972.638 263.762 965.559C263.418 964.463 262.855 963.447 262.109 962.573C257.974 957.612 256.058 950.632 256.058 940.628L256.36 928.526L260.939 849.397C264.751 827.653 290.186 823.175 305.092 822.369C315.064 821.724 325.067 822.927 334.601 825.918C345.029 829.569 351.424 835.66 354.167 844.475L367.661 933.669C368.871 943.593 367.822 950.754 364.333 956.2C357.837 966.285 340.955 972.336 314.189 973.869V973.829ZM444.994 919.408C444.505 919.413 444.019 919.466 443.542 919.569C442.216 919.827 440.966 920.375 439.877 921.173C438.789 921.972 437.892 923.002 437.249 924.189C426.357 944.359 404.451 952.892 385.008 953.133C385.209 952.307 385.37 951.48 385.531 950.612C385.531 950.612 385.531 950.511 385.531 950.451C385.754 949.16 385.915 947.848 386.036 946.417V945.872C386.157 944.52 386.217 943.169 386.237 941.839V941.051C386.237 939.659 386.237 938.227 386.116 936.755C386.116 936.513 386.116 936.271 386.116 936.049C386.016 934.496 385.875 932.922 385.673 931.289C385.673 931.289 385.673 931.128 385.673 931.047L378.815 885.825L372.017 840.844C372.017 840.462 371.856 840.058 371.755 839.674C371.392 838.465 370.989 837.295 370.545 836.124C370.444 835.843 370.323 835.539 370.202 835.258C369.758 834.168 369.294 833.099 368.791 832.07C368.786 832.01 368.786 831.949 368.791 831.889C368.226 830.799 367.641 829.731 366.995 828.702C366.854 828.46 366.672 828.197 366.511 827.956C365.919 827.028 365.294 826.12 364.635 825.233L364.433 824.93C363.687 823.982 362.901 823.075 362.094 822.167L361.489 821.522C360.743 820.754 359.976 819.988 359.189 819.262L358.806 818.899C357.898 818.092 356.95 817.325 355.962 816.559L355.216 816.014C354.348 815.389 353.461 814.785 352.533 814.18L352.129 813.917C363.929 804.275 389.848 789.511 410.482 798.466C414.99 800.854 419.349 803.515 423.532 806.434C445.357 821.118 484.629 852.241 486.465 876.062C486.465 877.111 486.586 878.079 486.606 879.149C487.352 914.931 450.48 918.783 445.014 919.167L444.994 919.408ZM525.454 819.181C523.939 820.014 522.692 821.259 521.861 822.775C521.028 824.289 520.645 826.009 520.754 827.734C522.267 851.434 512.343 862.407 508.006 866.057C506.699 867.162 505.271 868.115 503.751 868.902V868.659C503.522 867.718 503.28 866.771 503.024 865.816C502.962 865.637 502.908 865.456 502.863 865.271C502.6 864.424 502.339 863.577 502.037 862.729L501.854 862.205C501.492 861.257 501.128 860.289 500.705 859.34C500.705 859.159 500.563 858.978 500.483 858.797C500.1 857.929 499.696 857.062 499.293 856.215C499.218 856.077 499.15 855.936 499.091 855.791C498.608 854.823 498.103 853.874 497.578 852.907L497.276 852.382C496.792 851.495 496.267 850.628 495.743 849.739L495.561 849.437C494.976 848.489 494.351 847.521 493.726 846.573L493.383 846.069C492.758 845.14 492.133 844.233 491.467 843.346C491.471 843.298 491.471 843.251 491.467 843.205C490.761 842.236 490.055 841.289 489.329 840.36L488.945 839.857C487.473 837.98 485.94 836.124 484.326 834.289L483.903 833.805C482.309 831.97 480.635 830.154 478.92 828.379L478.497 827.935C476.762 826.16 475.008 824.406 473.213 822.691L472.769 822.268C471.861 821.4 470.954 820.553 470.025 819.726L467.343 817.305L466.879 816.903L463.874 814.522L463.672 814.341L461.07 812.142L460.626 811.779L457.863 809.52L457.54 809.257L455.059 807.24L454.615 806.878L451.932 804.861L451.429 804.437L449.109 802.682L448.645 802.319L446.084 800.443L445.579 800.06L443.361 798.385L442.937 798.083L440.557 796.389L439.952 795.966L437.935 794.614L437.491 794.311L435.312 792.839L434.707 792.436L432.952 791.246L432.549 791.003L430.532 789.733L429.967 789.349L428.374 788.32L428.051 788.119L426.377 787.071C426.311 787.012 426.236 786.964 426.155 786.929C430.948 782.725 436.813 779.931 443.098 778.86C444.844 778.62 446.482 777.876 447.811 776.719C449.141 775.562 450.103 774.042 450.582 772.346C450.582 772.165 450.683 772.002 450.723 771.821C451.587 768.389 453.226 765.199 455.511 762.497C457.798 759.794 460.672 757.651 463.914 756.23C479.062 748.746 504.76 750.178 526.443 759.538C537.859 764.499 544.697 773.959 545.241 785.497C545.866 798.789 537.98 811.94 525.172 819.02M146.269 603.197C142.136 603.122 136.85 604.013 133.694 608.816C130.536 613.619 131.796 618.825 133.508 622.586C135.22 626.347 137.816 629.833 141.103 633.515C147.678 640.878 157.197 648.829 168.601 656.34C180.015 663.858 191.122 669.451 200.482 672.559C205.163 674.113 209.375 675.085 213.49 675.173C217.606 675.26 222.818 674.446 226.025 669.678L226.046 669.636L226.067 669.595C229.222 664.795 227.961 659.608 226.252 655.846C224.543 652.085 221.963 648.601 218.678 644.917C212.108 637.551 202.585 629.572 191.18 622.051C179.768 614.523 168.673 608.927 159.299 605.811C154.612 604.254 150.403 603.274 146.27 603.198L146.269 603.197ZM150.777 620.054C152.055 620.344 152.735 620.29 154.317 620.816C161.785 623.298 172.021 628.349 182.473 635.244C192.934 642.143 201.644 649.56 206.884 655.435C207.974 656.657 208.197 657.272 208.962 658.316C207.693 658.026 207.026 658.074 205.463 657.555C197.996 655.075 187.758 650.031 177.307 643.147C166.847 636.258 158.141 628.85 152.897 622.977C151.79 621.737 151.549 621.11 150.777 620.054ZM219.47 665.26C223.302 659.431 208.699 643.073 186.834 628.651C164.969 614.229 144.132 607.331 140.301 613.16C136.468 618.99 151.092 635.348 172.956 649.75C194.821 664.151 215.617 670.989 219.47 665.26V665.26ZM119.327 525.459C115.194 525.382 109.909 526.276 106.752 531.078C103.595 535.881 104.854 541.086 106.566 544.847C108.278 548.608 110.874 552.074 114.161 555.756C120.736 563.119 130.255 571.09 141.659 578.602C153.068 586.117 164.175 591.721 173.541 594.841C178.223 596.401 182.441 597.393 186.569 597.476C190.697 597.559 195.957 596.676 199.124 591.877V591.856C202.28 587.056 201.018 581.869 199.309 578.107C197.6 574.346 195.02 570.862 191.735 567.178C185.165 559.811 175.641 551.834 164.237 544.312C152.825 536.785 141.73 531.188 132.356 528.072C127.669 526.515 123.46 525.535 119.327 525.458V525.459ZM123.835 542.316C125.113 542.605 125.793 542.552 127.375 543.077C134.843 545.559 145.078 550.611 155.531 557.505C165.992 564.405 174.702 571.821 179.942 577.696C181.046 578.934 181.27 579.564 182.041 580.619C180.768 580.328 180.094 580.381 178.521 579.857C171.055 577.37 160.821 572.296 150.365 565.409C139.905 558.519 131.199 551.112 125.955 545.238C124.848 543.998 124.608 543.372 123.835 542.316V542.316ZM192.527 587.522C196.36 581.693 181.756 565.335 159.892 550.912C138.027 536.491 117.191 529.593 113.358 535.421C109.527 541.251 124.15 557.609 146.015 572.01C167.879 586.413 188.695 593.331 192.527 587.522ZM92.4059 447.906C88.274 447.826 82.9868 448.723 79.8303 453.524C76.6743 458.325 77.9356 463.532 79.645 467.294C81.3545 471.055 83.9338 474.52 87.2192 478.202C93.79 485.567 103.311 493.536 114.717 501.048C126.132 508.568 137.25 514.162 146.619 517.267C151.304 518.82 155.508 519.797 159.627 519.881C163.746 519.964 168.989 519.113 172.182 514.324H172.203V514.303C175.374 509.497 174.1 504.292 172.388 500.533C170.677 496.775 168.102 493.287 164.814 489.604C158.24 482.239 148.702 474.271 137.296 466.758C125.887 459.244 114.802 453.637 105.434 450.519C100.751 448.961 96.5378 447.984 92.4059 447.906ZM96.9134 464.762C98.188 465.052 98.8573 464.999 100.433 465.524C107.898 468.008 118.154 473.065 128.61 479.952C139.069 486.841 147.775 494.267 153.02 500.143C154.108 501.361 154.313 501.982 155.078 503.024C153.81 502.735 153.141 502.78 151.579 502.263C144.107 499.786 133.872 494.738 123.423 487.855C112.963 480.966 104.252 473.557 99.0128 467.685C97.9089 466.448 97.6843 465.816 96.9134 464.762ZM165.607 509.946C169.44 504.137 154.816 487.759 132.951 473.357C111.086 458.955 90.2705 452.036 86.4378 457.866C82.6051 463.695 97.2087 480.053 119.074 494.455C140.938 508.857 161.774 515.694 165.607 509.946ZM320.27 642.447C315.324 640.804 310.692 642.732 307.489 645.02C304.285 647.308 301.656 650.311 299.071 653.932C293.9 661.174 289.121 671.02 285.342 682.397C281.566 693.77 279.493 704.502 279.291 713.394C279.19 717.84 279.498 721.827 280.691 725.579C281.883 729.33 284.43 733.65 289.377 735.293C294.321 736.936 298.935 734.989 302.137 732.7C305.34 730.411 307.972 727.429 310.555 723.808C315.722 716.568 320.517 706.717 324.304 695.343C328.093 683.968 330.156 673.241 330.355 664.347C330.456 659.9 330.15 655.913 328.956 652.162C327.761 648.411 325.215 644.091 320.27 642.447ZM314.24 660.601C314.361 661.775 314.584 662.382 314.548 663.976C314.4 670.608 312.672 680.236 309.3 690.363C305.927 700.491 301.546 709.207 297.692 714.608C296.762 715.911 296.21 716.27 295.407 717.14C295.287 715.965 295.062 715.359 295.098 713.764C295.249 707.13 296.983 697.508 300.347 687.378C303.709 677.254 308.079 668.532 311.934 663.132C312.867 661.827 313.435 661.471 314.24 660.601ZM291.87 727.788C298.486 729.986 309.64 714.354 316.8 692.852C323.961 671.35 324.384 652.149 317.769 649.95C311.153 647.751 299.978 663.384 292.838 684.885C285.697 706.387 285.254 725.59 291.87 727.788ZM183.111 688.037C179.194 688.201 174.388 689.478 171.482 693.82C168.561 698.187 169.273 703.172 170.659 706.849C172.045 710.526 174.27 713.848 177.101 717.284C182.764 724.155 191.02 731.338 201.038 737.928C211.047 744.511 220.899 749.27 229.441 751.759C233.713 753.004 237.631 753.734 241.564 753.55C245.498 753.365 250.328 752.02 253.193 747.663C256.056 743.308 255.383 738.34 253.996 734.655C252.608 730.971 250.387 727.648 247.554 724.22C241.887 717.363 233.625 710.221 223.617 703.638L223.576 703.7C213.58 697.119 203.755 692.364 195.234 689.869C190.967 688.62 187.029 687.873 183.111 688.037L183.111 688.037ZM187.516 704.482C188.667 704.673 189.296 704.601 190.788 705.038C197.171 706.906 206.002 711.044 214.911 716.913L214.952 716.872C223.85 722.729 231.147 729.176 235.369 734.285C236.387 735.517 236.588 736.147 237.221 737.146C236.053 736.959 235.403 737.038 233.867 736.59C227.493 734.733 218.635 730.576 209.724 724.714C200.822 718.859 193.517 712.354 189.286 707.219C188.312 706.038 188.139 705.453 187.516 704.482L187.516 704.482ZM219.265 710.32C200.347 697.855 181.89 692.489 178.058 698.217C174.225 703.946 186.469 718.872 205.389 731.317C224.309 743.763 242.764 749.147 246.597 743.319C250.43 737.489 238.185 722.684 219.265 710.239M212.358 331.184C207.409 329.54 202.78 331.467 199.577 333.757C196.374 336.048 193.744 339.067 191.159 342.69C185.989 349.936 181.209 359.778 177.431 371.155C173.654 382.527 171.582 393.259 171.379 402.152C171.278 406.598 171.587 410.585 172.779 414.336C173.971 418.088 176.518 422.387 181.465 424.03C186.409 425.673 191.023 423.746 194.226 421.458C197.428 419.169 200.06 416.166 202.644 412.545C207.811 405.305 212.605 395.474 216.392 384.101C220.181 372.725 222.244 361.982 222.444 353.084C222.544 348.635 222.238 344.652 221.044 340.899C219.85 337.147 217.307 332.829 212.358 331.184V331.184ZM206.328 349.338C206.45 350.516 206.672 351.133 206.637 352.734C206.488 359.372 204.76 368.974 201.388 379.1C198.015 389.228 193.634 397.965 189.78 403.366C188.852 404.666 188.296 405.008 187.495 405.877C187.375 404.704 187.15 404.092 187.186 402.501C187.337 395.867 189.071 386.265 192.435 376.136C195.797 366.011 200.166 357.275 204.023 351.869C204.955 350.563 205.523 350.21 206.328 349.338ZM183.958 416.54C190.574 418.738 201.728 403.106 208.889 381.604C216.049 360.102 216.473 340.88 209.857 338.682C203.241 336.483 192.067 352.136 184.926 373.637C177.786 395.139 177.342 414.341 183.958 416.54ZM75.261 376.897C71.3274 377.084 66.5166 378.428 63.6527 382.784C60.791 387.138 61.4654 392.105 62.85 395.792C64.2347 399.478 66.4392 402.795 69.2717 406.227C74.9366 413.09 83.2283 420.244 93.2498 426.829C103.266 433.411 113.093 438.171 121.632 440.661C125.902 441.905 129.843 442.636 133.776 442.451C137.709 442.267 142.521 440.919 145.384 436.565C148.247 432.21 147.574 427.262 146.187 423.577C144.8 419.893 142.578 416.572 139.745 413.142C134.079 406.284 125.813 399.132 115.808 392.54C105.797 385.944 95.9494 381.175 87.4045 378.688C83.132 377.444 79.1947 376.71 75.261 376.897ZM79.6244 393.281C80.7935 393.467 81.4422 393.41 82.9793 393.857C89.3507 395.711 98.1925 399.863 107.102 405.733C116.015 411.606 123.332 418.089 127.56 423.207C128.574 424.435 128.78 425.051 129.413 426.047C128.247 425.861 127.589 425.938 126.058 425.492C119.686 423.634 110.839 419.48 101.915 413.616C92.9964 407.755 85.7005 401.28 81.4768 396.162C80.4516 394.92 80.2592 394.285 79.6244 393.281ZM138.789 432.231C142.621 426.401 130.377 411.596 111.458 399.131C92.5383 386.665 74.082 381.301 70.2493 387.129C66.4177 392.959 78.6407 407.784 97.5807 420.229C116.521 432.675 134.956 438.061 138.789 432.231ZM297.115 552.03C291.666 550.225 286.954 552.783 283.758 555.406C280.561 558.029 277.865 561.406 275.154 565.532C269.733 573.785 264.495 585.066 260.191 598.031C255.888 610.992 253.343 623.148 252.74 633C252.439 637.926 252.559 642.243 253.543 646.255C254.527 650.268 256.743 655.132 262.188 656.958L264.719 649.466L262.208 656.958C267.664 658.771 272.372 656.225 275.566 653.603C278.76 650.981 281.456 647.581 284.169 643.456C289.595 635.205 294.838 623.943 299.153 610.977C303.467 598.013 306.026 585.846 306.624 575.988C306.923 571.059 306.792 566.728 305.801 562.712C304.81 558.697 302.569 553.837 297.115 552.03H297.115ZM290.673 571.398C290.723 572.711 290.939 573.351 290.838 575.021C290.361 582.877 288.104 594.091 284.149 605.976C280.193 617.862 275.282 628.191 270.956 634.77C270.046 636.154 269.49 636.533 268.671 637.549C268.625 636.245 268.405 635.619 268.506 633.968C268.987 626.11 271.248 614.901 275.195 603.012C279.141 591.127 284.047 580.795 288.368 574.218C289.289 572.815 289.846 572.422 290.673 571.398ZM264.708 649.466C271.323 651.664 283.385 633.33 291.655 608.479C299.925 583.63 301.257 561.724 294.621 559.526C287.984 557.328 275.942 575.662 267.693 600.513C259.443 625.362 258.092 647.248 264.708 649.466V649.466ZM270.215 474.395C264.759 472.582 260.071 475.148 256.877 477.77C253.684 480.392 250.987 483.771 248.274 487.897C242.848 496.148 237.584 507.41 233.27 520.375C228.955 533.339 226.419 545.513 225.819 555.365C225.519 560.29 225.635 564.608 226.622 568.619C227.609 572.631 229.854 577.49 235.307 579.302C240.763 581.114 245.451 578.568 248.645 575.947C251.838 573.326 254.535 569.924 257.248 565.8C262.674 557.552 267.917 546.297 272.232 533.342C276.547 520.386 279.103 508.211 279.703 498.352C280.003 493.423 279.866 489.111 278.88 485.097C277.893 481.084 275.675 476.209 270.215 474.395H270.215ZM263.752 493.804C263.799 495.111 264.017 495.748 263.917 497.405C263.438 505.267 261.203 516.467 257.248 528.34C253.293 540.216 248.361 550.537 244.034 557.114C243.123 558.499 242.57 558.876 241.75 559.893C241.703 558.593 241.485 557.958 241.585 556.311C242.064 548.458 244.318 537.262 248.274 525.377C252.23 513.491 257.141 503.162 261.467 496.582C262.377 495.199 262.933 494.82 263.752 493.804V493.804ZM237.792 571.81C244.408 574.008 256.47 555.674 264.74 530.844C273.01 506.014 274.341 484.089 267.726 481.89C261.11 479.692 249.048 498.027 240.778 522.877C232.508 547.727 231.177 569.612 237.792 571.81V571.81ZM243.293 396.759C237.837 394.946 233.129 397.513 229.935 400.134C226.742 402.756 224.045 406.137 221.332 410.261C215.906 418.509 210.663 429.764 206.348 442.719C202.033 455.677 199.492 467.849 198.898 477.708C198.6 482.638 198.732 486.971 199.721 490.984C200.71 494.997 202.927 499.852 208.386 501.666C213.842 503.479 218.53 500.932 221.723 498.311C224.917 495.69 227.615 492.289 230.327 488.164C235.75 479.915 241.005 468.663 245.31 455.706C249.614 442.753 252.158 430.593 252.761 420.737C253.062 415.809 252.942 411.475 251.958 407.462C250.974 403.448 248.754 398.574 243.293 396.759H243.293ZM236.83 416.168C236.878 417.475 237.097 418.112 236.995 419.77C236.514 427.633 234.252 438.848 230.306 450.725C226.361 462.599 221.457 472.902 217.133 479.478C216.217 480.872 215.652 481.257 214.828 482.278C214.779 480.965 214.563 480.322 214.664 478.655C215.138 470.795 217.378 459.592 221.332 447.72C225.288 435.845 230.219 425.524 234.546 418.947C235.457 417.561 236.01 417.185 236.83 416.168V416.168ZM210.879 494.174C217.495 496.373 229.557 478.039 237.807 453.208C246.056 428.378 247.407 406.454 240.791 404.255C234.176 402.056 222.114 420.391 213.844 445.221C205.574 470.051 204.264 491.976 210.879 494.174V494.174ZM120.912 307.824C118.087 308.808 116.5 311.083 115.849 312.537C115.198 313.992 115.064 315.027 114.964 315.974C114.764 317.869 114.868 319.472 115.067 321.367C115.466 325.157 116.372 329.92 117.722 335.918C120.422 347.915 124.96 364.661 130.998 385.192C143.073 426.253 161.161 482.302 182.474 543.777C203.787 605.252 224.273 660.47 240.206 700.18C248.173 720.035 254.987 735.999 260.294 747.087C262.948 752.631 265.194 756.914 267.231 760.136C268.249 761.747 269.148 763.073 270.483 764.438C271.15 765.12 271.886 765.861 273.302 766.599C274.718 767.336 277.38 768.133 280.197 767.154C283.017 766.174 284.609 763.895 285.261 762.441C285.914 760.984 286.045 759.931 286.145 758.983C286.346 757.088 286.241 755.506 286.042 753.611C285.644 749.823 284.737 745.057 283.387 739.06C280.687 727.066 276.17 710.317 270.132 689.786C258.057 648.725 239.949 592.666 218.636 531.181C197.322 469.695 176.839 414.484 160.903 374.777C152.935 354.924 146.121 338.977 140.815 327.891C138.162 322.349 135.933 318.063 133.899 314.842C132.882 313.232 131.979 311.904 130.647 310.541C129.982 309.859 129.222 309.118 127.807 308.379C126.392 307.641 123.736 306.84 120.912 307.824H120.912ZM146.002 380.129C146.093 380.356 146.136 380.435 146.228 380.664C162.02 420.015 182.447 475.076 203.693 536.367C224.94 597.66 242.996 653.538 254.963 694.232C255.048 694.518 255.064 694.626 255.148 694.911C255.043 694.648 254.987 694.559 254.881 694.294C239.091 654.94 218.662 599.893 197.416 538.611C176.17 477.328 158.134 421.44 146.166 380.746C146.089 380.486 146.078 380.387 146.002 380.129L146.002 380.129ZM277.608 759.68C283.458 757.663 253.727 656.549 211.167 533.771C168.607 410.994 129.356 313.248 123.506 315.285C117.657 317.322 147.389 418.437 189.948 541.194C232.508 663.952 271.739 761.718 277.608 759.68ZM454.404 347.012C449.543 346.915 444.717 347.785 440.202 349.585C435.687 351.384 431.582 354.077 428.12 357.488L369.235 412.628C362.193 419.226 358.052 428.36 357.73 438.006C357.405 447.651 360.942 457.028 367.527 464.083V464.104C374.136 471.146 383.291 475.276 392.946 475.589C402.599 475.902 411.991 472.37 419.044 465.771L477.908 410.632L477.93 410.611C481.55 407.382 484.489 403.446 486.574 399.064C488.663 394.676 489.854 389.925 490.073 385.068C490.292 380.214 489.536 375.366 487.85 370.805C486.165 366.246 483.598 362.064 480.276 358.517C476.952 354.97 472.942 352.117 468.503 350.141C464.06 348.162 459.263 347.109 454.404 347.012H454.404ZM454.095 362.799C456.849 362.853 459.568 363.47 462.081 364.589C464.595 365.709 466.847 367.315 468.729 369.323C470.61 371.332 472.076 373.698 473.03 376.28C473.984 378.859 474.41 381.598 474.286 384.348C474.162 387.096 473.493 389.788 472.31 392.272C471.128 394.757 469.446 396.987 467.391 398.817L467.329 398.879L408.238 454.245C404.238 457.987 398.933 459.98 393.46 459.802C387.993 459.625 382.82 457.283 379.073 453.298C375.341 449.299 373.352 444.007 373.536 438.541C373.719 433.081 376.057 427.913 380.04 424.175L439.152 368.809L439.214 368.747C441.173 366.816 443.491 365.279 446.047 364.26C448.603 363.241 451.345 362.744 454.095 362.799ZM453.704 365.701C451.31 365.625 448.942 366.009 446.706 366.853C444.468 367.698 442.399 368.983 440.655 370.62L381.646 425.903L387.059 431.666L381.502 426.027C378.11 429.359 376.167 433.905 376.068 438.664C375.97 443.421 377.734 448.034 380.987 451.507C384.242 454.979 388.727 457.04 393.481 457.25C398.235 457.46 402.9 455.793 406.447 452.619L406.51 452.557L465.601 397.191C467.347 395.553 468.753 393.584 469.738 391.407C470.72 389.231 471.267 386.884 471.343 384.492C471.419 382.098 471.014 379.711 470.17 377.473C469.324 375.232 468.055 373.183 466.424 371.443C464.786 369.697 462.821 368.291 460.64 367.306C458.458 366.319 456.093 365.776 453.704 365.7L453.704 365.701ZM453.21 381.487C453.53 381.497 453.828 381.583 454.116 381.713C454.398 381.841 454.663 382.023 454.877 382.249C455.098 382.485 455.281 382.757 455.392 383.051C455.504 383.349 455.546 383.663 455.536 383.977C455.526 384.293 455.462 384.61 455.33 384.904C455.198 385.195 455.005 385.449 454.774 385.665L395.91 440.846C395.905 440.85 395.894 440.841 395.888 440.846C395.417 441.261 394.808 441.491 394.18 441.463C393.545 441.435 392.947 441.165 392.513 440.702C392.078 440.238 391.841 439.63 391.854 438.993C391.867 438.36 392.139 437.754 392.595 437.306L451.481 382.146C451.713 381.927 451.986 381.764 452.283 381.652C452.582 381.539 452.893 381.477 453.21 381.487L453.21 381.487ZM373.296 458.697C378.474 464.215 385.63 467.453 393.195 467.699C400.758 467.944 408.11 465.178 413.636 460.008L472.654 404.72C475.498 402.189 477.804 399.115 479.44 395.678C481.075 392.241 482.007 388.512 482.179 384.71C482.351 380.907 481.76 377.109 480.441 373.538C479.123 369.968 477.102 366.698 474.5 363.92C471.897 361.142 468.765 358.915 465.288 357.367C461.811 355.817 458.059 354.982 454.253 354.906C450.448 354.83 446.666 355.517 443.13 356.926C439.595 358.335 436.376 360.437 433.666 363.109L374.647 418.397C369.13 423.565 365.889 430.711 365.637 438.267C365.383 445.823 368.137 453.17 373.296 458.697V458.697ZM387.051 431.668L446.07 376.381C447.059 375.454 448.219 374.731 449.487 374.253C450.754 373.774 452.103 373.55 453.458 373.593C454.813 373.636 456.145 373.945 457.38 374.504C458.614 375.061 459.726 375.857 460.654 376.845C461.58 377.834 462.304 378.994 462.782 380.262C463.261 381.529 463.485 382.879 463.442 384.233C463.399 385.587 463.089 386.919 462.532 388.154C461.973 389.388 461.177 390.501 460.189 391.429L401.171 446.735C399.16 448.534 396.526 449.474 393.831 449.355C391.137 449.236 388.595 448.067 386.751 446.1C384.906 444.131 383.905 441.519 383.961 438.822C384.017 436.126 385.127 433.558 387.051 431.668V431.668ZM470.314 106.469C465.531 106.313 460.774 107.109 456.297 108.795C451.822 110.481 447.707 113.037 444.216 116.307L385.186 171.591V171.612C378.157 178.223 374.015 187.346 373.701 196.99C373.388 206.633 376.914 216.014 383.498 223.067L383.519 223.088C390.128 230.13 399.263 234.26 408.918 234.573C418.571 234.887 427.963 231.354 435.016 224.755L494.045 169.472C497.536 166.201 500.345 162.282 502.319 157.925C504.292 153.567 505.395 148.854 505.551 144.074C505.705 139.294 504.912 134.535 503.225 130.057C501.539 125.58 498.984 121.467 495.712 117.976C492.441 114.483 488.521 111.675 484.166 109.702C479.808 107.729 475.095 106.626 470.314 106.47L470.314 106.469ZM469.799 122.276C472.507 122.365 475.172 122.991 477.641 124.108C480.11 125.227 482.336 126.805 484.186 128.78C486.037 130.756 487.471 133.078 488.426 135.613C489.38 138.146 489.831 140.85 489.743 143.558C489.655 146.266 489.028 148.934 487.911 151.4C486.793 153.868 485.216 156.093 483.239 157.945L424.21 213.229C420.212 216.961 414.898 218.963 409.432 218.786C403.965 218.608 398.812 216.267 395.066 212.282C391.331 208.281 389.331 202.974 389.508 197.504C389.686 192.043 392.017 186.886 395.992 183.138L396.013 183.116L455.042 127.833C457.018 125.982 459.341 124.548 461.875 123.593C464.411 122.638 467.094 122.187 469.8 122.276L469.799 122.276ZM469.696 124.684C464.867 124.53 460.169 126.298 456.647 129.603L397.617 184.887L408.423 196.413L467.452 141.129H467.473C467.941 140.69 468.539 140.45 469.182 140.471C469.825 140.492 470.429 140.763 470.869 141.232C471.311 141.704 471.548 142.316 471.528 142.961C471.507 143.605 471.236 144.208 470.767 144.649L411.737 199.933C411.266 200.374 410.651 200.612 410.008 200.591H409.987C409.346 200.571 408.761 200.299 408.32 199.83C407.882 199.363 407.641 198.746 407.661 198.101C407.682 197.455 407.953 196.854 408.423 196.413L397.597 184.887C394.077 188.192 392.009 192.76 391.855 197.586V197.607C391.702 202.431 393.487 207.113 396.794 210.636C400.099 214.158 404.666 216.226 409.494 216.378C414.322 216.532 419.022 214.762 422.543 211.459L481.572 156.175C485.094 152.871 487.181 148.302 487.335 143.476C487.488 138.65 485.697 133.948 482.395 130.427C479.091 126.907 474.522 124.839 469.696 124.685L469.696 124.684ZM389.28 217.681C394.458 223.199 401.614 226.437 409.179 226.682C416.742 226.928 424.094 224.162 429.62 218.992L488.639 163.705C491.372 161.143 493.575 158.068 495.12 154.656C496.665 151.244 497.523 147.56 497.645 143.816C497.767 140.071 497.15 136.34 495.83 132.835C494.509 129.329 492.511 126.117 489.949 123.383C487.389 120.65 484.314 118.448 480.902 116.902C477.488 115.358 473.805 114.5 470.061 114.378C466.317 114.255 462.585 114.873 459.079 116.193C455.574 117.514 452.362 119.512 449.629 122.072L390.591 177.36C385.082 182.541 381.852 189.693 381.607 197.25C381.361 204.806 384.12 212.154 389.28 217.681V217.681ZM403.015 190.652L462.054 135.365C464.049 133.492 466.707 132.489 469.442 132.577C472.177 132.664 474.765 133.834 476.638 135.829C478.509 137.825 479.513 140.481 479.426 143.217C479.339 145.952 478.169 148.54 476.173 150.412L417.135 205.699C415.139 207.572 412.482 208.575 409.747 208.487C407.012 208.401 404.424 207.231 402.551 205.235C400.679 203.241 399.676 200.583 399.763 197.848C399.85 195.113 401.02 192.524 403.015 190.652V190.652Z" fill="black"/>
</svg>
