<?xml version="1.0" encoding="UTF-8" standalone="no"?>
<svg
   width="1000"
   height="1000"
   viewBox="0 0 1000 1000"
   fill="none"
   version="1.1"
   id="svg51"
   sodipodi:docname="boulangeriePain.svg"
   inkscape:version="1.2.1 (9c6d41e, 2022-07-14)"
   xmlns:inkscape="http://www.inkscape.org/namespaces/inkscape"
   xmlns:sodipodi="http://sodipodi.sourceforge.net/DTD/sodipodi-0.dtd"
   xmlns="http://www.w3.org/2000/svg"
   xmlns:svg="http://www.w3.org/2000/svg">
  <sodipodi:namedview
     id="namedview2687"
     pagecolor="#ffffff"
     bordercolor="#111111"
     borderopacity="1"
     inkscape:showpageshadow="0"
     inkscape:pageopacity="0"
     inkscape:pagecheckerboard="1"
     inkscape:deskcolor="#d1d1d1"
     showgrid="false"
     inkscape:zoom="0.19703293"
     inkscape:cx="-667.40112"
     inkscape:cy="312.13056"
     inkscape:window-width="1309"
     inkscape:window-height="737"
     inkscape:window-x="265"
     inkscape:window-y="1182"
     inkscape:window-maximized="0"
     inkscape:current-layer="svg51" />
  <defs
     id="defs55" />
  <g
     id="g182"
     transform="matrix(10.53803,0,0,10.53803,214.44514,-0.00193593)">
    <g
       id="path17" />
    <g
       id="path23" />
    <g
       id="path29" />
    <g
       id="path39" />
    <g
       id="path41" />
    <g
       id="path43" />
    <g
       id="path45" />
    <path
       id="path49"
       style="color:#000000;fill:#000000;stroke-miterlimit:10;-inkscape-stroke:none"
       d="m 43.189453,0.04882812 c -1.462352,-0.1373777 -2.937404,0.01702606 -4.339844,0.453125 C 37.447081,0.93804622 36.14605,1.6474713 35.019531,2.5898438 33.892905,3.5322269 32.96408,4.6887959 32.287109,5.9921875 31.611388,7.2931732 31.200012,8.7150259 31.076172,10.175781 v 0.002 l -2.212891,23.53511 C 25.891166,28.84718 22.644597,24.862943 19.300781,22.396484 15.517577,19.605925 11.598825,18.497324 8.1308594,19.701172 3.619489,21.265691 0.8755786,26.331632 0.17773437,33.615234 v 0.002 c -0.67243715,7.03644 0.58267747,15.543187 3.52539063,24.017579 h -0.00195 c 0.8599315,2.495554 1.9178327,4.914587 3.0449218,7.300781 -0.3062579,0.0021 -0.6044469,-0.134924 -0.9042968,-0.05664 -0.4715239,0.111948 -0.9150386,0.316871 -1.3027344,0.607422 -0.3886664,0.291279 -0.7131944,0.661388 -0.953125,1.083984 -0.7507778,1.287141 -0.8323814,2.920207 -0.7050781,4.533204 0.1236026,1.566107 0.4768057,3.1033 0.796875,4.298828 -0.2687071,0.713904 -0.458941,1.46114 -0.3964844,2.224609 0.1490192,1.871307 1.3156429,3.48459 2.9453125,4.478516 0.4398933,2.765333 2.0084038,4.136143 2.7773438,4.601562 5.287e-4,3.29e-4 0.00142,-3.28e-4 0.00195,0 0.3905124,0.242416 0.8413195,0.343625 1.2871096,0.447266 0.901495,2.7304 3.429466,4.039595 5.923828,4.111328 1.622424,1.739207 3.830747,2.517578 5.896484,2.517578 0.529074,7.3e-5 1.055504,-0.0682 1.576172,-0.160156 1.164719,0.854736 2.714353,1.271484 4.841797,1.271484 0.433259,0 0.888936,-0.01346 1.382812,-0.04297 2.706469,-0.161489 4.591535,-0.802373 5.863282,-1.992187 0.197025,0.01392 0.393504,0.0293 0.599609,0.0293 2.392578,0 5.10769,-0.987369 6.757813,-3.330078 2.438684,-0.404442 4.73825,-2.007018 5.287109,-4.798828 0.427568,-0.15775 0.859357,-0.312887 1.214844,-0.601563 0.707355,-0.556934 2.096305,-2.111684 2.1875,-4.912109 1.493987,-1.187951 2.449517,-2.93218 2.365234,-4.804688 h 0.0039 c -1.18e-4,-0.0027 -0.0018,-0.0051 -0.002,-0.0078 -6e-5,-0.0013 6.2e-5,-0.0026 0,-0.0039 h -0.002 c -0.0016,-0.03534 -0.0289,-0.06435 -0.03125,-0.09961 l 0.02148,-0.002 -0.002,-0.0098 -0.02148,0.002 c -0.04934,-0.720384 -0.298823,-1.400062 -0.634766,-2.037109 0.171672,-1.226874 0.332185,-2.793417 0.259766,-4.361328 -0.07468,-1.616885 -0.358969,-3.228433 -1.263672,-4.410156 -0.290171,-0.389778 -0.656548,-0.716859 -1.078125,-0.958985 -0.421517,-0.242091 -0.889843,-0.393073 -1.373047,-0.447265 -0.520542,-0.06782 -1.05,-0.02623 -1.552734,0.125 -8.57e-4,2.57e-4 -0.0011,0.0017 -0.002,0.002 l 4.695312,-49.976563 -0.002,0.0059 C 53.356709,10.800854 53.217204,9.3246353 52.794922,7.9179687 52.372531,6.5113065 51.677444,5.2021285 50.746094,4.0664062 49.814774,2.9307213 48.66595,1.9904829 47.369141,1.3007812 46.072448,0.61109583 44.651718,0.18621844 43.189453,0.04882812 Z M 43.050781,1.5429687 c 1.264932,0.1188495 2.493529,0.4873711 3.615235,1.0839844 1.121787,0.5966171 2.114243,1.4081521 2.919921,2.390625 0.805648,0.9824357 1.40803,2.1151362 1.773438,3.3320313 0.365317,1.2169108 0.486638,2.4940796 0.355469,3.7578126 l -0.002,0.0039 -5,53.238281 1.414062,-1.230468 c 0.237913,-0.207034 0.516381,-0.36236 0.818359,-0.453125 0.301924,-0.09082 0.621081,-0.115778 0.933594,-0.07422 l 0.0078,0.002 h 0.0078 c 0.280526,0.03081 0.552138,0.119205 0.796875,0.259766 0.244606,0.140485 0.4589,0.329786 0.626953,0.55664 l 0.002,0.0059 0.0039,0.0039 c 0.574712,0.749162 0.891138,2.101395 0.958984,3.570312 0.06785,1.468918 -0.08396,3.037409 -0.253906,4.220703 l -0.03906,0.271485 0.146485,0.232422 c 0.336503,0.536338 0.527704,1.152706 0.55664,1.785156 0.069,1.460228 -0.699568,2.935163 -2.009765,3.833984 l -0.326172,0.226563 0.002,0.396484 c 0.01222,2.527571 -1.172029,3.650089 -1.652344,4.027344 l -0.0059,0.0039 -0.0059,0.0039 c -0.309159,0.251822 -0.670785,0.430192 -1.058593,0.523438 l -0.507813,0.123047 -0.06055,0.519531 c -0.293305,2.476982 -2.240742,3.725621 -4.433593,3.994141 l -0.353516,0.04297 -0.189453,0.300782 c -1.287434,2.031113 -3.638813,2.892578 -5.714844,2.892578 -0.230379,0 -0.459007,-0.01212 -0.683594,-0.0332 l -0.378906,-0.03516 -0.253906,0.28711 c -0.847927,0.962395 -2.470699,1.581191 -5.234375,1.746094 -0.466923,0.02789 -0.893782,0.04102 -1.294922,0.04102 -2.152004,0 -3.441212,-0.392905 -4.236328,-1.095703 l -0.28125,-0.248047 -0.367188,0.07617 c -0.504627,0.104346 -1.017806,0.156432 -1.533203,0.15625 -1.839338,0 -3.774572,-0.64272 -5.074219,-2.216797 L 16.814453,89.794922 H 16.4375 c -2.203896,0 -4.280334,-0.994907 -4.876953,-3.408203 l -0.125,-0.50586 -0.519531,-0.05859 c -0.398074,-0.04474 -0.78061,-0.177102 -1.1210941,-0.388672 l -0.00391,-0.0039 -0.00391,-0.002 C 9.2627352,85.111506 7.9482067,84.145005 7.6445312,81.636719 L 7.5957031,81.242187 7.2441406,81.060547 C 5.8368152,80.332853 4.8909852,78.963794 4.7753906,77.505859 v -0.002 c -0.051901,-0.634442 0.063458,-1.27048 0.3320313,-1.847656 l 0.1152343,-0.248 -0.072266,-0.265625 C 4.837113,73.987672 4.4926276,72.451982 4.3769531,70.986328 4.2612787,69.520674 4.4047973,68.139956 4.8828125,67.322266 l 0.00195,-0.0039 0.00391,-0.0059 c 0.138132,-0.244432 0.3239747,-0.456488 0.5488281,-0.625 0.03768,-0.02824 0.087535,-0.03311 0.1269531,-0.05859 L 5.083985,67.445282 c -0.00379,0.0065 -1.677e-4,0.01694 -0.00391,0.02344 -0.00284,0.0054 -0.00893,0.0083 -0.011719,0.01367 l 0.00977,-0.002 c -0.4549333,0.797482 -0.533648,1.77875 -0.4941406,2.86914 0.039991,1.10374 0.2283699,2.314845 0.4824218,3.466797 l 0.2558594,1.15625 0.9355469,-0.724609 c 0.147883,-0.114509 0.3026647,-0.219996 0.4628906,-0.316406 l 0.00391,-0.002 c 0.00124,-7.43e-4 0.00267,-0.0012 0.00391,-0.002 1.2214989,-0.714053 2.5764441,-1.175279 3.9804679,-1.351562 l 1.230469,-0.154297 -0.708984,-1.017578 c -0.34384,-0.493284 -0.673019,-1.044954 -1.00586,-1.603516 l -0.002,-0.002 C 9.6283587,68.798032 9.1282621,67.970786 8.5390625,67.361328 7.9493225,66.751311 7.1116032,66.349352 6.2558594,66.552734 h -0.00195 v 0.002 c -0.1800668,0.04304 -0.3359255,0.143387 -0.4941406,0.238282 L 5.5859375,66.617187 c 0.1903243,-0.119794 0.3878221,-0.231763 0.6074219,-0.283203 l 0.00977,-0.002 0.011719,-0.002 c 0.4605894,-0.121573 0.9465192,-0.09139 1.3886719,0.08594 L 9.421875,67.144531 8.5566406,65.388672 C 7.2391875,62.716065 6.0918129,59.961596 5.1210937,57.144531 h -0.00195 v -0.002 C 2.2354596,48.838187 1.0253603,40.504512 1.6699219,33.759766 2.3386762,26.779782 4.8886255,22.414218 8.6230469,21.119141 c 2.8676281,-0.995451 6.2461711,-0.127485 9.7871091,2.484375 3.540939,2.61186 7.167119,6.947491 10.34961,12.626953 l 1.175781,2.097656 2.634765,-28.015625 v -0.0039 c 0.106397,-1.2659994 0.4632,-2.4974723 1.048829,-3.6250003 0.585627,-1.1275259 1.388709,-2.1281643 2.363281,-2.9433593 0.974479,-0.8151858 2.101184,-1.4293946 3.314453,-1.8066407 1.213158,-0.3772403 2.488861,-0.509467 3.753906,-0.390625 z m -0.03125,0.3261719 c -2.478343,-0.233066 -4.947965,0.5295696 -6.865234,2.1171875 -1.917289,1.5876341 -3.126278,3.8712586 -3.359375,6.3496099 v 0.002 l -2.644531,28.429687 0.07813,0.177734 c 0.06436,0.147498 0.122966,0.269395 0.205078,0.4375 0.0832,0.170333 0.155996,0.316458 0.238281,0.488282 0.08376,0.175007 0.17593,0.373645 0.25,0.533203 0.07967,0.171505 0.142377,0.296149 0.222656,0.474609 0.0845,0.187834 0.168155,0.379253 0.25586,0.574219 0.07204,0.163857 0.14377,0.316995 0.207031,0.462891 v 0.002 l 0.002,0.002 c 0.08007,0.18132 0.163774,0.388865 0.253906,0.59375 0.06448,0.159657 0.128797,0.305063 0.183594,0.439453 l 0.002,0.0078 0.0039,0.0059 c 0.08359,0.194325 0.165227,0.399214 0.25,0.607422 h 0.002 c 0.0622,0.15174 0.122611,0.297579 0.179688,0.439453 0.08637,0.217787 0.170067,0.436996 0.255859,0.658203 l 0.002,0.0059 0.0039,0.0059 c 0.05231,0.128088 0.104603,0.262591 0.158203,0.40039 0.09104,0.258508 0.187177,0.504178 0.271484,0.732422 0.04533,0.123652 0.09043,0.236882 0.128906,0.341797 0.126077,0.360666 0.250888,0.722857 0.376954,1.085938 0.118797,0.342333 0.235937,0.685707 0.349609,1.029296 v 0.002 c 0.04407,0.132107 0.0891,0.274885 0.140625,0.429687 v 0.0039 l 0.002,0.002 c 0.06269,0.182649 0.123398,0.380169 0.185547,0.574219 l 0.175781,0.564453 0.119141,0.396485 c 0.06928,0.23192 0.137992,0.469253 0.207031,0.707031 l 0.05078,0.177734 c 1.114924,3.86725 1.856511,7.833027 2.214844,11.841797 l 0.136719,1.529297 1.654297,-1.542969 c 0.381286,-0.339556 0.87857,-0.517143 1.388672,-0.49414 0.510022,0.02307 0.990847,0.244688 1.339843,0.617187 0.349167,0.372676 0.53747,0.866458 0.527344,1.376953 -0.01011,0.509868 -0.219191,0.993238 -0.582031,1.351563 -4.43e-4,4.37e-4 4.43e-4,0.0015 0,0.002 l -4.433594,4.146484 v 0.373047 l 0.01758,-0.164062 c -0.03594,0.161018 -0.0332,0.294169 -0.0332,0.355468 l 0.002,-0.06445 c -0.01266,0.145786 -0.02643,0.290186 -0.04297,0.435547 l -0.002,0.0039 v 0.0039 c -0.07734,0.752359 -0.178475,1.479615 -0.302734,2.18164 -0.03324,0.188729 -0.06855,0.373951 -0.105469,0.554688 l -0.189453,0.93164 0.951172,-0.03125 c 0.387911,-0.01317 0.774525,0.02515 1.152344,0.113282 l 0.451172,0.103515 0.294921,-0.353515 c 0.543719,-0.651141 1.273634,-1.119768 2.091797,-1.34375 l 0.357422,-0.09766 0.138672,-0.34375 c 0.119113,-0.292876 0.436204,-0.421679 0.630859,-0.664062 -0.260676,0.328152 -0.465833,0.698241 -0.568359,1.105469 l -0.0039,0.0098 -0.002,0.01172 c 0.0012,-0.0057 -0.0029,0.01286 -0.002,0.0078 -0.0059,0.02079 -0.01718,0.0388 -0.0332,0.05273 -0.01589,0.01383 -0.03739,0.02247 -0.05859,0.02539 l -0.01172,0.002 -0.01172,0.002 c -0.733265,0.124895 -1.417566,0.450994 -1.976562,0.941406 l -0.888672,0.78125 1.03125,0.447266 0.134765,0.08398 0.02734,0.01758 0.138672,0.08984 0.05664,0.03711 0.208984,0.132813 0.02734,0.01563 0.152344,0.103515 0.05664,0.03906 0.205078,0.136719 0.04297,0.0293 0.1875,0.126953 0.04883,0.0332 0.222656,0.158203 0.03125,0.02344 0.201172,0.152344 0.05273,0.03906 0.240234,0.175781 0.03906,0.03125 0.208984,0.158203 0.04883,0.04102 0.257813,0.193359 0.03125,0.02539 0.236328,0.193359 0.03125,0.02344 0.259765,0.21289 0.03711,0.03125 0.234375,0.197266 0.0293,0.02539 0.289062,0.230469 0.02539,0.02148 0.251953,0.226562 0.002,0.002 c 0.0794,0.07075 0.157995,0.144138 0.240234,0.222656 l 0.04297,0.04102 c 0.162053,0.154821 0.32181,0.314196 0.482422,0.478516 l 0.03516,0.03906 0.002,0.002 c 0.154625,0.160042 0.304057,0.321725 0.445313,0.484375 l 0.002,0.002 0.04102,0.04687 c 0.143283,0.163032 0.280398,0.328179 0.412109,0.496094 l 0.0332,0.04297 0.002,0.0039 c 0.0074,0.0095 0.01602,0.01971 0.02344,0.0293 l -0.002,0.01367 0.173828,0.228516 c 0.05105,0.06802 0.101839,0.144777 0.158203,0.228515 l 0.002,0.002 0.0332,0.04883 c 0.05439,0.08269 0.108079,0.16416 0.15625,0.242188 l 0.01367,0.02344 c 0.05037,0.08536 0.09497,0.160405 0.128906,0.222657 l 0.0039,0.0078 0.0332,0.05664 c 0.04402,0.08138 0.08572,0.159639 0.123046,0.234375 0.0099,0.0211 0.01868,0.0429 0.0293,0.0625 0.01573,0.03329 0.02983,0.06673 0.04492,0.09961 l 0.06445,0.146485 c 0.02783,0.06231 0.0582,0.139507 0.09375,0.232421 l 0.0098,0.03125 0.002,0.0039 c 0.02165,0.06066 0.04177,0.129127 0.06641,0.208984 l -0.0098,-0.04102 c 0.0056,0.02276 0.01084,0.04415 0.01758,0.06641 0.01592,0.05935 0.03025,0.117277 0.04492,0.175781 v 1.154297 l 1.09375,-0.564453 c 0.193763,-0.100241 0.375876,-0.222175 0.542968,-0.363282 0.546691,-0.460202 1.632436,-1.786015 1.47461,-4.257812 -0.0014,-0.02171 0.0033,-0.04364 0.01367,-0.0625 0.01019,-0.01858 0.02568,-0.03435 0.04492,-0.04492 l -0.01367,-0.02539 c 1.4375,-0.800853 2.353351,-2.288166 2.279297,-3.863281 -0.06473,-1.370946 -0.931858,-2.549163 -2.234375,-3.115234 l -0.002,-0.002 c -2.22365,-0.959879 -4.772029,-1.168363 -6.544921,-0.300782 -0.360091,0.160235 -0.666573,0.410459 -0.935547,0.697266 0.279154,-0.29956 0.454632,-0.69801 0.832031,-0.875 l 0.002,-0.002 0.0039,-0.002 c 0.188274,-0.09031 0.382403,-0.168338 0.580078,-0.234375 l 0.1875,-0.0625 0.132813,-0.148438 c 0.734774,-0.819954 1.197376,-1.954194 1.658203,-3.011718 l 0.002,-0.002 0.203125,-0.460937 5.154297,-54.890625 C 51.71943,9.6154796 50.956713,7.145763 49.369141,5.2285156 47.781473,3.3112845 45.49788,2.102218 43.019531,1.8691406 Z m -0.140625,1.4941407 c 2.082847,0.1958822 4.001608,1.2109602 5.335938,2.8222656 1.334224,1.6112891 1.973241,3.6848531 1.777343,5.7675781 l -5.130859,54.648437 -0.107422,0.242188 v 0.002 c -0.443206,1.016983 -0.908318,1.981958 -1.347656,2.509766 -0.161702,0.06211 -0.32434,0.120606 -0.480469,0.195312 -0.965213,0.45266 -1.700999,1.246799 -2.175781,2.19336 -0.845858,0.285305 -1.595379,0.768818 -2.21875,1.40625 -0.07512,-0.01199 -0.15107,-0.01241 -0.226563,-0.02148 0.113821,-0.671264 0.214023,-1.355061 0.28711,-2.064453 v -0.0078 c 0.01752,-0.154517 0.03317,-0.310941 0.04687,-0.46875 l 0.0039,-0.03125 v -0.0332 c 0,-0.0613 0.0012,-0.05036 -0.0039,-0.02734 l 0.01953,-0.08203 v 0.195313 l 3.978516,-3.720703 0.0078,-0.0078 c 0.64194,-0.632746 1.011423,-1.491469 1.029297,-2.392578 0.01787,-0.901103 -0.317361,-1.773917 -0.933594,-2.43164 -0.616202,-0.6577 -1.464858,-1.049115 -2.365234,-1.089844 -0.694817,-0.03133 -1.348355,0.203509 -1.933594,0.5625 -0.402534,-3.655487 -1.068683,-7.277254 -2.08789,-10.8125 l -0.05078,-0.181641 c -0.06858,-0.236216 -0.138599,-0.478589 -0.210937,-0.720703 l -0.121094,-0.404297 -0.181641,-0.580078 v -0.0039 c -0.05986,-0.186908 -0.124829,-0.390018 -0.195312,-0.595703 l -0.002,-0.0059 c -0.04347,-0.13089 -0.08569,-0.270857 -0.136719,-0.423828 -0.115928,-0.350409 -0.234266,-0.699562 -0.355469,-1.048828 -0.127779,-0.368017 -0.255043,-0.734126 -0.382812,-1.099609 l -0.002,-0.0059 -0.002,-0.0059 c -0.04553,-0.12416 -0.09028,-0.236381 -0.128907,-0.341797 v -0.002 c -0.09656,-0.261407 -0.194772,-0.507012 -0.273437,-0.732422 l -0.0039,-0.01172 -0.0059,-0.01172 c -0.05215,-0.134066 -0.105199,-0.272402 -0.162109,-0.41211 l -0.0039,-0.01172 c -0.08465,-0.218261 -0.169838,-0.438372 -0.257813,-0.660156 l -0.002,-0.002 c -0.06129,-0.152356 -0.123606,-0.300939 -0.183594,-0.447266 v -0.002 c -0.08161,-0.200442 -0.165783,-0.409191 -0.255859,-0.61914 l -0.0059,-0.01367 c -0.06646,-0.162283 -0.13063,-0.309042 -0.183593,-0.441406 l -0.0039,-0.01172 -0.0059,-0.01172 c -0.07774,-0.176715 -0.162306,-0.3822 -0.253906,-0.589844 l -0.002,-0.0039 c -0.07314,-0.168507 -0.144664,-0.324232 -0.208985,-0.470703 l -0.002,-0.0039 v -0.002 c -0.0845,-0.187834 -0.170108,-0.379253 -0.257812,-0.574219 -0.09192,-0.204339 -0.158789,-0.342093 -0.228516,-0.492188 -0.07513,-0.161842 -0.171324,-0.364036 -0.259766,-0.548828 -0.09012,-0.188175 -0.164587,-0.33918 -0.242187,-0.498047 -0.04419,-0.09047 -0.06907,-0.147219 -0.09961,-0.21289 l 2.607421,-28.035156 h -0.002 C 34.483012,8.3936778 35.498067,6.474888 37.109375,5.140625 38.720702,3.8063458 40.796054,3.1674077 42.878906,3.3632813 Z M 11.246094,20.9375 c -0.876286,-0.02242 -1.7303675,0.10223 -2.5507815,0.386719 -1.932647,0.670677 -3.4960422,2.181453 -4.6269531,4.302734 -1.130911,2.121282 -1.8559825,4.865194 -2.1699219,8.146484 l -0.029297,0.304688 0.029297,0.03516 c -0.5843581,6.741104 0.6313117,14.84252 3.4453125,22.955078 2.044566,5.894016 4.631665,11.094766 7.701172,15.458985 l 0.142578,0.203125 0.238281,0.07813 c 0.765317,0.250157 1.407475,0.776914 1.802735,1.478515 l 0.18164,0.322266 0.367188,0.05273 c 0.839743,0.119238 1.621593,0.492062 2.242187,1.070313 l 0.339844,0.316406 0.433594,-0.162109 c 2.128045,-0.789935 4.739613,0.374636 5.517578,0.794922 l 0.0078,0.002 0.0059,0.0039 c 0.408971,0.210906 0.792367,0.467511 1.144531,0.763672 l 0.339844,0.285156 0.414062,-0.160156 c 0.840158,-0.32387 1.727138,-0.504888 2.626953,-0.53711 h 0.0078 l 0.0098,-0.002 c 0.860369,-0.04954 1.722239,0.02331 2.5625,0.214844 l 0.423829,0.0957 0.292968,-0.318359 c 0.314209,-0.33982 0.665375,-0.642679 1.046875,-0.904297 l 0.0059,-0.0039 0.0059,-0.0039 c 0.792485,-0.565597 1.668851,-1.006452 2.595703,-1.304687 l 0.519531,-0.166016 v -0.492187 l -0.0059,0.02344 c 0.311716,-1.422672 0.519851,-2.867322 0.621094,-4.320312 l -0.002,0.0039 c 0.05869,-0.784908 0.0919,-1.594043 0.101562,-2.421875 v -0.0039 -0.103516 -1.158203 -0.232422 -0.0098 c -0.0077,-0.30114 -0.01763,-0.608246 -0.03125,-0.917969 v -0.002 c -0.0064,-0.146879 -0.01367,-0.261804 -0.01367,-0.34961 v -0.02148 l -0.01367,-0.214844 v -0.002 C 36.716005,60.25796 36.024225,56.132825 34.921922,52.107309 v -0.02734 l -0.02344,-0.08984 c -0.06306,-0.250313 -0.131225,-0.490821 -0.195312,-0.722656 l -0.002,-0.0039 -0.09766,-0.339844 v -0.0039 c -0.05466,-0.192235 -0.114143,-0.394721 -0.175782,-0.59375 l -0.002,-0.0078 -0.142578,-0.474609 -0.152344,-0.494141 -0.0039,-0.0098 c -0.06299,-0.21473 -0.130551,-0.421551 -0.193359,-0.619141 v -0.0039 l -0.12886,-0.38661 C 33.691429,47.987783 33.576115,47.646429 33.458984,47.306641 33.204986,46.571723 32.939261,45.84382 32.662109,45.123047 v -0.002 C 31.835834,42.957869 30.906703,40.858387 29.900391,38.855469 26.814909,32.720266 23.16202,27.849205 19.474609,24.730469 16.709052,22.391416 13.874952,21.00476 11.246094,20.9375 Z m -0.0098,1.505859 c 2.168058,0.06875 4.666519,1.23202 7.269531,3.433594 3.470683,2.935433 7.040076,7.658059 10.054688,13.652344 0.984023,1.958555 1.893011,4.012934 2.701172,6.128906 v 0.002 c 0.271211,0.705268 0.530696,1.417418 0.779297,2.136719 0.114862,0.333234 0.228696,0.667989 0.339843,1.003906 l 0.126953,0.382813 c 0.06549,0.205888 0.12955,0.402974 0.183594,0.58789 l 0.002,0.0059 0.15625,0.503906 0.142578,0.478516 0.002,0.0039 c 0.05588,0.180068 0.110678,0.375685 0.166015,0.570312 l 0.09961,0.341797 -0.0039,-0.0078 c 0.05862,0.212043 0.114902,0.413931 0.166016,0.611328 v 0.0059 l 0.02539,0.09766 c 1.094322,3.964191 1.776434,8.030324 2.033203,12.134766 l 0.01172,0.189453 c 0.0019,0.14097 0.0092,0.267511 0.01367,0.371094 0.01313,0.298204 0.02373,0.597158 0.03125,0.892578 l -0.002,-0.01953 v 0.222656 1.158203 0.09766 c -0.0095,0.796353 -0.03979,1.572537 -0.0957,2.320313 l -0.002,0.002 v 0.002 c -0.09048,1.2985 -0.285158,2.585693 -0.552734,3.859375 -0.894764,0.334802 -1.769894,0.727465 -2.548829,1.283203 -0.361193,0.248648 -0.67884,0.551468 -0.992187,0.857422 -0.844161,-0.157499 -1.700193,-0.261847 -2.558594,-0.21289 -0.914407,0.03388 -1.805231,0.257888 -2.671875,0.546875 -0.348407,-0.264153 -0.701218,-0.525244 -1.089844,-0.726563 -0.882693,-0.476863 -3.574781,-1.746439 -6.322265,-0.958984 -0.703106,-0.56401 -1.517963,-0.954392 -2.402344,-1.132813 -0.51713,-0.769062 -1.23572,-1.357433 -2.091797,-1.71289 C 11.261818,67.346448 8.7498641,62.313171 6.7597656,56.576172 3.9598559,48.504237 2.7751553,40.433575 3.3984375,33.925781 l 0.011719,-0.123047 C 3.7170496,30.719185 4.4035798,28.187123 5.3925781,26.332031 6.39489,24.451967 7.6728504,23.267809 9.1875,22.742187 c 0.6409596,-0.22226 1.326142,-0.321743 2.048828,-0.298828 z m 29.078125,40.208985 c -0.458178,-0.01465 -0.904176,0.153331 -1.238281,0.466797 l -1.992188,1.865234 0.179688,0.357422 c 0.0036,0.08891 0.0059,0.17297 0.0059,0.283203 v 0.0098 0.0098 c 0.0059,0.232379 0.01563,0.454052 0.01563,0.652344 v 0.652344 0.666015 1.921875 l 4.158203,-3.896484 c 0.334051,-0.313581 0.53028,-0.747116 0.544922,-1.205078 v -0.002 c 0.01447,-0.457795 -0.154935,-0.902028 -0.46875,-1.236328 -0.313493,-0.333419 -0.747572,-0.530465 -1.205078,-0.544922 z m 9.474609,1.162109 -0.002,0.02539 c -0.834726,-0.05034 -1.584102,0.411045 -2.074218,1.064453 -0.509291,0.678969 -0.904214,1.562121 -1.369141,2.630859 -0.258657,0.59152 -0.517749,1.174908 -0.800781,1.722656 l -0.566407,1.09375 h 1.232422 c 1.418455,-6.53e-4 2.821056,0.285704 4.125,0.84375 0.171503,0.07509 0.33778,0.160481 0.498047,0.25586 l 1.021485,0.607422 0.109375,-1.183594 c 0.108337,-1.174637 0.144933,-2.397998 0.04687,-3.498047 C 51.91209,66.282207 51.712902,65.306948 51.154211,64.570311 51.00617,64.363604 50.819353,64.187131 50.599523,64.058593 50.378705,63.929378 50.133169,63.8515 49.87882,63.824218 v -0.0039 c -0.0022,-2.38e-4 -0.0037,0.0022 -0.0059,0.002 -0.0035,-3.66e-4 -0.0062,-0.0036 -0.0098,-0.0039 v 0.0059 c -0.0251,-0.0026 -0.04538,0.01526 -0.07031,0.01367 l 0.002,-0.02344 z m -9.521484,0.335938 c 0.06088,0.0019 0.116395,0.0277 0.158203,0.07227 h 0.002 c 0.04158,0.0443 0.06248,0.102858 0.06055,0.164063 -0.002,0.06124 -0.02772,0.118337 -0.07227,0.160156 l -1.636719,1.533203 c -0.0032,-0.155563 -0.006,-0.312286 -0.0098,-0.455078 v -0.01758 c 9e-6,-0.04266 -0.0036,-0.09722 -0.0039,-0.142578 l 1.337891,-1.251953 c 0.04469,-0.04193 0.103041,-0.06445 0.164062,-0.0625 z m 9.478516,0.552734 -0.0293,0.609375 c 0.04427,0.0043 0.08843,0.01847 0.126953,0.04102 0.03852,0.02253 0.07199,0.05311 0.09766,0.08984 l 0.0078,0.01367 0.0098,0.01172 c 0.229345,0.299536 0.470474,1.074367 0.556641,2.041016 0.05916,0.663726 0.005,1.451924 -0.03125,2.216796 -1.025669,-0.393588 -2.109194,-0.555663 -3.201172,-0.65625 0.144577,-0.312878 0.300344,-0.626339 0.435547,-0.935546 v -0.002 c 0.457672,-1.052059 0.849475,-1.86967 1.193359,-2.328125 0.343884,-0.458454 0.482908,-0.529353 0.800782,-0.49414 z M 6.6015625,68.013672 c 0.311855,-0.07412 0.4590379,-0.02146 0.8574219,0.390625 0.398384,0.412082 0.888725,1.175448 1.4746094,2.162109 h 0.00195 C 9.1070274,70.854181 9.3024266,71.14633 9.484375,71.439453 8.41376,71.675654 7.3588128,71.973566 6.390625,72.492187 6.2590599,71.737511 6.1061618,70.960916 6.0820312,70.294922 6.047127,69.331577 6.1885316,68.545668 6.3769531,68.216797 l 0.023437,-0.04492 c 0.020336,-0.03933 0.049044,-0.07423 0.083984,-0.101563 0.034234,-0.02678 0.07458,-0.04608 0.1171875,-0.05664 z m 40.0703125,4.076172 c 0.95272,0.04882 2.002717,0.268893 2.945312,0.675781 0.86215,0.375646 1.29341,0.990656 1.332032,1.808594 0.04431,0.942419 -0.532277,1.945619 -1.517578,2.490234 l 0.01367,0.02734 c -0.260624,0.147348 -0.478603,0.361744 -0.623046,0.625 -0.146988,0.268133 -0.216646,0.573865 -0.197266,0.878906 0.08778,1.374813 -0.227768,2.039883 -0.541016,2.478516 -0.02271,-0.04933 -0.04592,-0.09938 -0.06836,-0.146485 l -0.002,-0.002 c -0.0015,-0.0037 -0.0024,-0.0064 -0.0039,-0.0098 l -0.0039,-0.0059 -0.0039,-0.0098 -0.01172,-0.02539 c -0.05164,-0.103388 -0.104596,-0.201659 -0.15625,-0.296875 l -0.0039,-0.0078 -0.02539,-0.04297 -0.0078,-0.01563 c -0.05332,-0.09677 -0.106135,-0.182748 -0.150391,-0.257813 l -0.002,-0.002 -0.02148,-0.03516 -0.002,-0.0039 c -0.06093,-0.09869 -0.123579,-0.196967 -0.185547,-0.291016 l -0.0039,-0.0039 -0.0332,-0.04883 -0.002,-0.0039 c -0.02142,-0.0318 -0.04768,-0.06679 -0.07031,-0.09961 l -0.002,-0.02344 -0.123047,-0.167968 c -0.06817,-0.09351 -0.139066,-0.188566 -0.212891,-0.283203 v -0.002 c -0.0017,-0.0022 -0.0041,-0.0037 -0.0059,-0.0059 l -0.0332,-0.04492 -0.0039,-0.0039 c -0.14713,-0.187573 -0.300653,-0.373914 -0.46289,-0.558594 l -0.002,-0.002 -0.03906,-0.04297 h 0.002 c -0.159938,-0.184162 -0.32664,-0.363551 -0.496093,-0.539062 l -0.0039,-0.0039 -0.03906,-0.04297 -0.0039,-0.002 c -0.168588,-0.17248 -0.340985,-0.345047 -0.519532,-0.515625 l -0.04297,-0.04102 c -0.08917,-0.08513 -0.179758,-0.170559 -0.275391,-0.255859 l -0.0039,-0.002 -0.25586,-0.232422 -0.0625,-0.05469 -0.279297,-0.220703 -0.01172,-0.0098 -0.259766,-0.220703 -0.04687,-0.03711 -0.261719,-0.214844 -0.0332,-0.02539 -0.234375,-0.191407 -0.05273,-0.04297 -0.25,-0.189454 -0.04687,-0.03906 -0.230469,-0.173828 -0.04883,-0.03906 -0.248047,-0.179687 -0.04297,-0.0332 -0.21875,-0.166016 -0.04883,-0.03516 -0.228515,-0.16211 -0.06641,-0.04687 -0.195312,-0.130859 -0.03711,-0.02344 c 0.08388,-0.02345 0.146043,-0.09662 0.232422,-0.111329 l -0.02344,0.0039 c 0.309997,-0.04268 0.601578,-0.175094 0.83789,-0.38086 0.236379,-0.20566 0.407251,-0.476136 0.492188,-0.777343 l 0.01953,-0.07031 c 0.05405,-0.214696 0.155756,-0.412904 0.298828,-0.582031 0.143162,-0.169221 0.322502,-0.303695 0.525391,-0.392578 l 0.01563,-0.0078 0.01563,-0.0059 c 0.550654,-0.272071 1.406655,-0.394519 2.359375,-0.345703 z m -35.095703,0.65625 C 9.9042877,72.789643 8.2741262,73.26488 6.8398437,74.125 5.6200716,74.850081 4.9077889,76.127289 5.015625,77.496094 c 0.1245821,1.576997 1.2216136,2.944298 2.7558594,3.55664 h 0.00195 l 0.00195,0.002 c 0.019043,0.0075 0.034826,0.02047 0.046875,0.03711 0.011473,0.01646 0.018407,0.03709 0.019531,0.05664 l 0.023437,0.398438 0.1269531,0.07422 c 0.2956189,2.065003 1.3036532,3.210605 1.8574219,3.566406 0.1845916,0.1194 0.3819366,0.216808 0.5878906,0.291016 l 0.921875,0.332031 0.08008,-0.976563 c 0.0026,-0.03165 0.01007,-0.09129 0.02149,-0.177734 l 0.0078,-0.04883 v -0.05859 c 0.01469,-0.08922 0.03167,-0.180754 0.05273,-0.275391 l 0.002,-0.0059 c -0.02205,0.105725 0.03711,0.07017 0.03711,-0.236328 l -0.02148,0.171875 c 0.02097,-0.08867 0.04562,-0.175074 0.07226,-0.259766 l 0.0332,-0.105468 0.002,-0.0039 c 0.02688,-0.08363 0.05882,-0.173062 0.09375,-0.265625 L 11.765625,83.5 c 0.04636,-0.11403 0.09799,-0.234183 0.152344,-0.353516 l 0.01953,-0.04102 0.002,-0.0059 c 0.04452,-0.09731 0.09643,-0.198623 0.152344,-0.308593 l -0.0059,0.0078 0.05859,-0.109375 v -0.002 c 0.04533,-0.0872 0.09307,-0.174182 0.142578,-0.259766 l 0.002,-0.0039 c 0.02707,-0.04622 0.04285,-0.07403 0.04297,-0.07422 l 0.0059,-0.0098 0.0059,-0.0098 c 0.07175,-0.12331 0.144072,-0.243178 0.216797,-0.357422 l 0.08984,-0.140625 0.002,-0.0078 c 0.04427,-0.06708 0.08662,-0.13545 0.132812,-0.203125 l 0.0039,-0.0039 0.07031,-0.101562 v -0.002 c 0.06563,-0.09539 0.124905,-0.185771 0.175781,-0.25586 l 0.0039,-0.0039 0.07422,-0.09961 c 0.08269,-0.11217 0.16739,-0.223952 0.251953,-0.332031 l 0.002,-0.0039 c 0.0024,-0.003 0.0054,-0.0048 0.0078,-0.0078 l 0.0059,-0.0098 c 0.09532,-0.118005 0.184313,-0.22992 0.271485,-0.335937 h -0.002 l 0.08008,-0.0957 c 0.06894,-0.08354 0.13621,-0.162756 0.203125,-0.238282 l 0.01563,-0.01758 0.01172,-0.01563 c 0.0097,-0.01224 0.03046,-0.03636 0.06055,-0.07031 l 0.002,-0.002 c 0.07859,-0.08781 0.150851,-0.171544 0.220703,-0.25 l 0.02734,-0.0293 c 0.01941,-0.02134 0.04033,-0.04542 0.04297,-0.04883 l 0.0078,-0.0098 c 0.09846,-0.107791 0.194766,-0.211065 0.287109,-0.308594 v -0.002 l 0.08008,-0.08398 0.220703,-0.230469 0.08594,-0.08789 0.251953,-0.246093 0.05859,-0.05469 0.0078,-0.0078 c 0.115198,-0.109306 0.206957,-0.205935 0.28711,-0.283204 l 0.0059,-0.0039 0.0625,-0.06055 0.226562,-0.214843 0.08203,-0.07617 0.210937,-0.189453 0.07031,-0.06445 0.269531,-0.242187 -0.05078,0.04102 c 0.04635,-0.03494 0.08925,-0.07346 0.128906,-0.115235 l -0.05664,0.05469 0.226563,-0.19336 0.06836,-0.05859 0.191406,-0.160157 0.06055,-0.05273 1.132813,-0.970703 -0.824219,-0.548828 c -0.616803,-0.411325 -1.33534,-0.645932 -2.076172,-0.675782 h -0.0098 -0.0078 c -0.0208,-3.22e-4 -0.0409,-0.0062 -0.05859,-0.01758 -0.0176,-0.01135 -0.03231,-0.02643 -0.04101,-0.04492 l -0.002,-0.0039 -0.002,-0.0039 c 0,0 0.002,0 0.002,0 l -0.0059,-0.01563 -0.0078,-0.01758 C 15.032808,74.329869 14.77649,73.955186 14.445486,73.652045 14.117504,73.351804 13.724589,73.131386 13.299001,73.003607 12.745708,72.82471 12.165572,72.736518 11.584157,72.745795 h -0.0039 z m 0.0332,1.5 c 0.418696,-0.0067 0.834234,0.05613 1.232422,0.185547 l 0.0098,0.0039 0.0098,0.002 c 0.212103,0.06265 0.407353,0.173089 0.570313,0.322266 0.163195,0.149458 0.290125,0.333541 0.371093,0.539062 l -0.01172,-0.0332 c 0.01896,0.05553 0.0399,0.110955 0.06641,0.166016 3.77e-4,7.83e-4 0.0016,0.0012 0.002,0.002 0.128635,0.270096 0.329069,0.498197 0.580078,0.660156 0.253104,0.163191 0.54841,0.253135 0.84961,0.257812 h -0.01953 c 0.08633,0.0035 0.157149,0.06595 0.242188,0.07813 l -0.259766,0.234375 -0.06836,0.0625 -0.216797,0.19336 -0.09961,0.0918 -0.228516,0.216797 -0.06836,0.06641 -0.002,0.002 c -0.111908,0.107552 -0.204017,0.203058 -0.292968,0.287109 l -0.0039,0.002 -0.06836,0.06836 -0.263672,0.255859 -0.105469,0.107422 -0.234375,0.244141 -0.08398,0.08984 c -0.106501,0.112581 -0.208679,0.224611 -0.308594,0.333985 l -0.0039,0.0039 -0.0039,0.0039 c -0.03133,0.03542 -0.03645,0.04036 -0.01563,0.01953 l -0.01563,0.01563 -0.01172,0.01563 c -0.09093,0.101293 -0.176108,0.198511 -0.251953,0.283203 l -0.002,0.002 c -0.02958,0.03336 -0.07168,0.07848 -0.119141,0.138672 -0.07184,0.08195 -0.141511,0.164328 -0.208984,0.246093 l -0.08008,0.09766 h -0.002 c -0.103535,0.125917 -0.196854,0.246929 -0.291016,0.363281 l -0.01563,0.01758 -0.02148,0.03125 c -0.08821,0.113298 -0.174553,0.226896 -0.257813,0.339844 l -0.07813,0.103515 -0.002,0.002 c -0.08257,0.113259 -0.1513,0.219587 -0.203125,0.294921 h 0.002 l -0.07422,0.105469 -0.002,0.002 c -0.08544,0.125099 -0.168586,0.252718 -0.251953,0.382813 l -0.148437,0.230469 0.002,0.02148 c -0.03377,0.05642 -0.0694,0.114647 -0.101563,0.169922 -0.02555,0.04256 -0.04791,0.08026 -0.05469,0.0918 l -0.002,0.002 v 0.002 c -0.0621,0.107177 -0.12153,0.216099 -0.177735,0.324219 l -0.05859,0.109375 -0.002,0.0059 c -0.05889,0.11583 -0.118857,0.234594 -0.177734,0.363281 l -0.02148,0.04297 -0.002,0.0059 c -0.06425,0.141067 -0.124491,0.28114 -0.177734,0.41211 l -0.0039,0.0078 -0.03516,0.0957 c -0.04114,0.109014 -0.08128,0.221613 -0.119141,0.339844 v 0.002 l -0.01953,0.0625 C 9.8332015,83.048321 9.4348173,82.430403 9.3496094,81.064453 L 9.3242188,80.667969 9.1660156,80.574219 C 9.1175077,80.454073 9.1137402,80.316894 9.0371094,80.210937 8.8580137,79.963562 8.6119642,79.77287 8.328125,79.660156 l -0.00391,-0.002 C 7.28063,79.239947 6.5840824,78.31963 6.5097656,77.378906 6.4454019,76.561913 6.7964429,75.89498 7.6054687,75.414062 l 0.00195,-0.002 h 0.00195 c 1.211272,-0.72669 2.5879283,-1.128228 4.0000003,-1.166015 z m 25.738281,0.515625 c -0.617486,0.03001 -1.219776,0.174537 -1.773437,0.373047 -1.107323,0.397018 -2.052783,1.012425 -2.675782,1.521484 l -0.796875,0.650391 0.902344,0.583984 c 0.07904,0.05163 0.151678,0.101201 0.222656,0.152344 l 0.05078,0.03711 c 0.08578,0.06649 0.161751,0.128398 0.230468,0.189453 l 0.02344,0.02148 0.002,0.0039 c 0.06009,0.05549 0.123814,0.118054 0.189453,0.185547 l 0.04883,0.05273 c 0.06113,0.06907 0.116702,0.133579 0.166016,0.195313 l 0.0078,0.01367 0.01172,0.01563 c 0.05198,0.07003 0.101731,0.141626 0.148438,0.214844 l 0.0039,0.0059 0.0039,0.0059 c 0.02003,0.02998 0.03009,0.04797 0.02148,0.0332 l 0.0078,0.0098 0.0059,0.01172 c 0.02649,0.04218 0.05474,0.09498 0.08203,0.144532 l 0.05078,0.105468 c 0.03742,0.07641 0.07506,0.162296 0.113281,0.25586 l 0.002,0.0059 0.002,0.0039 c 0.0068,0.01589 0.01262,0.03459 0.01563,0.04297 l 0.002,0.0059 0.0039,0.0059 c 0.03357,0.08851 0.06315,0.174841 0.08984,0.261719 0.0078,0.02955 -6.85e-4,-0.03303 0,-0.02344 l 0.0078,0.04687 c 1.75e-4,5.82e-4 -1.74e-4,0.0014 0,0.002 l 0.646484,4.275391 0.642579,4.236328 v 0.01172 l 0.0059,0.04687 c 0.01631,0.131626 0.02659,0.25918 0.03516,0.386719 v 0.07031 l 0.002,0.03125 c 0.0082,0.100064 0.0098,0.213603 0.0098,0.345703 V 89.375 c -0.0018,0.107292 -0.0065,0.214183 -0.01563,0.316406 l -0.0039,0.0332 v 0.05273 c -0.0095,0.104028 -0.0218,0.198216 -0.03711,0.287109 l -0.0098,0.05859 v 0.0059 c -0.0097,0.04987 -0.01966,0.101055 -0.0293,0.140625 l -0.228516,0.939453 0.966797,-0.01172 c 2.057477,-0.02554 4.416076,-0.934515 5.607422,-3.140625 0.0082,-0.01517 0.02104,-0.02674 0.03516,-0.03711 0.01388,-0.0099 0.02867,-0.01833 0.04492,-0.02148 l 0.0078,-0.002 0.679687,-0.0059 0.01758,-0.208984 c 0.49536,-0.06771 1.043928,-0.08835 1.853516,-0.541016 1.095424,-0.612482 2.175545,-1.874324 2.134765,-3.830078 l 0.002,0.002 c -0.0028,-0.14965 -0.01367,-0.237585 -0.01367,-0.279297 v -0.02734 l -0.002,-0.0293 C 46.75273,81.562353 45.63658,80.216017 44.373295,78.970694 43.113635,77.728945 41.6439,76.629641 40.578373,75.9121 l -0.0078,-0.0059 C 40.150947,75.613893 39.71387,75.346732 39.26198,75.107372 l -0.02539,-0.01367 -0.02734,-0.01172 C 38.598086,74.816742 37.965409,74.73166 37.347922,74.76167 Z m -17.300781,1.085937 c -0.617231,0.04707 -1.234137,0.212328 -1.808594,0.552735 l -0.0078,0.0039 -0.0098,0.0059 c -0.452993,0.286144 -1.24191,0.946446 -2.242187,1.90625 -1.000277,0.959804 -2.133796,2.171693 -2.998047,3.431641 -0.08301,0.119301 -0.156504,0.233838 -0.226563,0.341797 h -0.002 v 0.002 c -0.148703,0.230239 -0.287713,0.461295 -0.414062,0.697265 v 0.002 c -0.435646,0.816957 -0.736324,1.645093 -0.695313,2.49414 v 0.002 0.002 c 0.0089,0.161282 0.02149,0.248593 0.02149,0.253907 v 0.03906 l 0.0039,0.04102 c 0.207246,1.958069 1.454542,3.072387 2.625,3.539062 1.170457,0.466675 2.268526,0.420257 2.568359,0.402344 l -0.04492,0.002 h 0.07422 c 0.0012,0 0.0031,-1.37e-4 0.0039,0 l 0.0098,0.002 0.0098,0.002 c 0.0107,0.0016 0.02147,0.005 0.03125,0.0098 l 0.03516,0.05078 c 1.429386,2.008229 3.833863,2.616245 5.853515,2.416016 L 23.75,91.957031 23.474609,91.078125 c -0.238473,-0.763945 -0.31109,-1.570993 -0.21289,-2.365234 l 0.0039,-0.02344 0.03711,-0.634766 0.191407,-7.458984 v -0.0059 c 6e-6,-8.31e-4 -2.68e-4,-0.0022 0,-0.0039 v -0.002 c 0.133514,-0.863076 0.588598,-1.643595 1.273437,-2.185547 l 0.833984,-0.660156 -0.902343,-0.564453 C 24.019146,76.748796 23.006083,76.257093 21.857422,76 21.283091,75.871453 20.664106,75.800589 20.046875,75.847656 Z m 17.357422,0.416016 c 0.423852,-0.02198 0.827193,0.03834 1.191406,0.193359 0.387061,0.206979 0.763127,0.432466 1.123047,0.683594 l 0.0059,0.0039 0.0059,0.0039 c 1.004748,0.67601 2.428481,1.745776 3.589843,2.890625 1.161363,1.14485 1.995193,2.405657 2.052735,3.152344 0.0032,0.109209 0.01091,0.206776 0.01172,0.25 0.03002,1.439743 -0.603142,2.05999 -1.369141,2.488281 -0.765999,0.428292 -1.678952,0.532707 -1.880859,0.546875 l -0.642579,0.04492 -0.01563,0.191407 c -0.07169,0.03757 -0.155174,0.04957 -0.220703,0.09766 -0.192282,0.141231 -0.351056,0.322976 -0.464843,0.533203 -0.719597,1.332535 -2.075997,1.923571 -3.4375,2.148437 0.001,-0.03467 0.0053,-0.07141 0.0059,-0.105468 v -0.0059 -0.08008 c 0,-0.115035 -0.0021,-0.25694 -0.01172,-0.408203 v -0.08984 l -0.002,-0.02539 c -0.009,-0.139329 -0.02206,-0.284263 -0.03906,-0.431641 v -0.05078 l -0.660157,-4.347656 -0.644531,-4.267579 0.0078,0.111329 c 0,-0.247044 -0.05626,-0.328943 -0.04883,-0.300782 l -0.0039,-0.01367 -0.0039,-0.01172 c -0.03878,-0.129425 -0.0814,-0.252172 -0.126953,-0.373047 -0.01491,-0.04163 -0.03014,-0.0782 -0.04492,-0.113281 -0.02018,-0.04939 -0.04628,-0.101661 -0.06836,-0.152344 l 0.0039,-0.04297 -0.09766,-0.1875 c -0.05509,-0.10628 -0.116421,-0.218979 -0.1875,-0.333984 l -0.01172,-0.01953 c -0.02214,-0.03622 -0.04102,-0.06195 -0.05078,-0.07617 l -0.0078,-0.01367 c -0.05636,-0.08776 -0.116035,-0.173409 -0.177734,-0.257813 l -0.02148,-0.03125 -0.01367,-0.02344 -0.01953,-0.02344 c -0.08523,-0.108218 -0.169285,-0.204092 -0.25,-0.294922 l -0.0059,-0.0078 -0.07031,-0.07422 -0.0039,-0.0039 c -0.03178,-0.03267 -0.06956,-0.06778 -0.103516,-0.101563 0.444978,-0.284393 0.831588,-0.588773 1.384766,-0.787109 0.44595,-0.15989 0.894841,-0.260938 1.324219,-0.283203 z m -8.53711,1.02539 c -0.758904,0.04114 -1.791995,0.166254 -2.757812,0.603516 -0.96647,0.437558 -1.90058,1.279494 -2.128906,2.582031 l -0.0078,0.04102 -0.4375,7.564453 -0.0293,1.171875 v 0.0078 c 0,1.045143 0.207108,1.913483 0.748047,2.5625 l 0.0039,0.0039 0.002,0.0039 c 0.0053,0.0062 0.0093,0.01385 0.01172,0.02148 l 0.06641,0.210938 0.171875,0.140625 c 0.966989,0.800423 2.509162,0.986844 4.513671,0.9375 v 0.06836 l 0.791016,-0.04492 c 2.634499,-0.150913 4.484877,-0.680011 5.347656,-2.019531 v -0.002 c 0.455371,-0.710769 0.556032,-1.59642 0.429688,-2.632812 l -0.002,-0.01172 -1.291016,-8.53125 -0.01563,-0.05273 c -0.32943,-1.058656 -1.181298,-1.845225 -2.326172,-2.246093 l -0.01172,-0.0039 -0.01172,-0.0039 C 30.94324,77.349436 29.904964,77.222977 28.869138,77.28901 Z m -8.6875,0.05664 c 0.429153,-0.0313 0.887004,0.01365 1.34961,0.117188 0.601236,0.134568 1.051914,0.401865 1.542969,0.640625 -0.518511,0.662509 -0.927299,1.404277 -1.058594,2.248046 -0.01173,0.07431 -0.01894,0.150394 -0.01953,0.226563 l -0.191407,7.414062 -0.0332,0.585938 0.0039,-0.04883 c -0.08058,0.651714 0.07457,1.2937 0.173829,1.939453 -1.390275,-0.03485 -2.819084,-0.460596 -3.710938,-1.685547 l -0.02734,-0.03711 C 18.08336,88.568642 17.923092,88.420111 17.738281,88.306641 v -0.002 c -0.18282,-0.112063 -0.387424,-0.184598 -0.599609,-0.216796 -0.08195,-0.01352 -0.165437,-0.02148 -0.248047,-0.02148 h -0.09766 l -0.02148,0.002 c -0.180566,0.01079 -1.103187,0.02837 -1.923828,-0.298828 -0.82064,-0.327199 -1.534946,-0.86336 -1.6875,-2.304687 l 0.0039,0.07813 c -10e-7,-0.182857 -0.02033,-0.283332 -0.02344,-0.330078 v -0.002 c -0.01976,-0.417925 0.15731,-1.031914 0.521484,-1.714843 0.10271,-0.191645 0.219801,-0.388787 0.34961,-0.589844 v -0.002 c 0.07045,-0.108553 0.138092,-0.209407 0.203125,-0.302735 v -0.002 l 0.002,-0.002 c 0.770347,-1.12305 1.847257,-2.28615 2.798828,-3.199219 0.947603,-0.909261 1.842415,-1.611455 1.998047,-1.710937 0.344252,-0.20193 0.740339,-0.310752 1.166015,-0.341797 z m 8.769532,1.441406 h 0.0039 0.0039 c 0.848703,-0.05489 1.699719,0.0481 2.511719,0.300782 0.816394,0.287801 1.176817,0.654199 1.369141,1.251953 l 1.263671,8.351562 c 0.103257,0.847006 0.0037,1.319749 -0.203125,1.642578 -0.369133,0.570535 -1.717702,1.18125 -4.132812,1.326172 l -0.03711,0.002 c -2.29171,0.134874 -3.670519,-0.176815 -4.210938,-0.59375 -0.04087,-0.06666 -0.06069,-0.14503 -0.111328,-0.205078 -0.24358,-0.292246 -0.400032,-0.749797 -0.400391,-1.601562 0,-9.78e-4 0,-9.75e-4 0,-0.002 l 0.0293,-1.117188 0.429688,-7.421875 c 0.136648,-0.751252 0.583716,-1.153096 1.263672,-1.460937 0.684428,-0.309867 1.565252,-0.437208 2.220703,-0.472657 z m 24.494506,-4.312737 c -0.0333,-0.7651 -0.2648,-1.5085 -0.6718,-2.1572 0.3483,-2.4251 0.6297,-6.4217 -0.8518,-8.3529 -0.2295,-0.3098 -0.5205,-0.5689 -0.8548,-0.7609 -0.3343,-0.192 -0.7047,-0.3129 -1.088,-0.355 -0.4181,-0.0556 -0.8433,-0.0215 -1.2472,0.1 -0.4039,0.1214 -0.7774,0.3274 -1.0956,0.6043 l 4.8254,-51.3677 c 0.1414,-1.3623 0.0114,-2.7391 -0.3824,-4.05089 -0.3939,-1.31178 -1.0438,-2.53248 -1.9123,-3.59156 -0.8685,-1.05908 -1.9382,-1.93553 -3.1475,-2.57869 -1.2092,-0.64315 -2.5339,-1.04027003 -3.8975,-1.16839003 -1.3637,-0.12811 -2.7392,0.01531 -4.047,0.42198003 -1.3079,0.40667 -2.5222,1.06852 -3.5727,1.9473 -1.0506,0.87879 -1.9165,1.95707 -2.5478,3.17253 -0.6313,1.21546 -1.0155,2.54402 -1.1302,3.90882 l -2.4079,25.6178 c -6.4428,-11.4978 -14.7019,-17.6534 -21.0375002,-15.4541 -4.1229,1.4298 -6.77,6.146 -7.45329997,13.2778 -0.6585,6.8906 0.57419997,15.3125 3.48739997,23.7019 0.981,2.8469 2.1407,5.6291 3.4721,8.33 -0.5917,-0.2373 -1.2441,-0.2776 -1.8605,-0.1149 -0.3744,0.0877 -0.7265,0.2521 -1.0342,0.4827 -0.3077,0.2306 -0.5643,0.5224 -0.7535,0.8571 -1.2308,2.1055 -0.4498,6.0313 0.1914,8.3951 -0.3234,0.695 -0.4606,1.4621 -0.3981,2.2261 0.1378,1.738 1.246,3.3209 2.8711,4.1612 0.333,2.7505 1.8394,3.9448 2.4997,4.343 0.435,0.2703 0.9247002,0.4404 1.4337002,0.4976 0.6852,2.7716 3.1543,3.9775 5.6043,3.9775 h 0.023 c 1.4681,1.7781 3.6367,2.4882 5.6522,2.4882 0.5665,2e-4 1.1316,-0.0575 1.6863,-0.1722 0.9896,0.8747 2.4883,1.2843 4.7316,1.2843 0.4172,0 0.8594,-0.0134 1.3398,-0.0421 2.8558,-0.1704 4.7048,-0.8097 5.7537,-2.0002 0.245,0.023 0.4957,0.0364 0.7522,0.0364 2.2835,0 4.8943,-0.9475 6.349,-3.2425 2.4385,-0.2986 4.7507,-1.8068 5.0875,-4.6511 0.497,-0.1195 0.9608,-0.3491 1.3571,-0.6719 0.6068,-0.4766 1.9523,-1.8489 1.9389,-4.6205 1.5122,-1.0374 2.4156,-2.7467 2.3333,-4.4885 z m -3.6539,-9.9091 c 0.1523,0.0149 0.2997,0.0627 0.4318,0.14 0.1322,0.0773 0.2461,0.1824 0.3338,0.3079 0.7943,1.0374 0.8709,3.5104 0.6603,5.7938 -0.1887,-0.1123 -0.3844,-0.2126 -0.5857,-0.3005 -1.3973,-0.598 -2.9015,-0.906 -4.4215,-0.9053 0.2967,-0.5742 0.5628,-1.1714 0.8231,-1.7667 0.9226,-2.1208 1.5714,-3.4013 2.7639,-3.2692 z m -16.2485,-54.1584 c 0.2145,-2.28062 1.3261,-4.38259 3.0904,-5.84354 1.7643,-1.46095 4.0366,-2.16121 6.3172,-1.94674 2.2806,0.21448 4.3825,1.32613 5.8435,3.0904 1.4609,1.76427 2.1612,4.03668 1.9467,6.31718 l -5.143,54.769 -0.1551,0.3522 c -0.4613,1.0585 -0.936,2.1495 -1.5312,2.8137 -0.2275,0.076 -0.4499,0.1662 -0.6661,0.2699 -0.9073,0.4255 -1.6208,1.1773 -1.9983,2.1055 -0.9658,0.2644 -1.8274,0.8181 -2.4692,1.5867 -0.442,-0.1031 -0.8957,-0.1475 -1.3494,-0.1321 0.0383,-0.1875 0.0747,-0.3789 0.1091,-0.5742 0.1276,-0.7209 0.231,-1.4661 0.3101,-2.2356 0.0172,-0.1512 0.0326,-0.3024 0.0459,-0.4556 0,-0.0612 0,-0.1224 0.0154,-0.1914 v -0.0478 l 4.2109,-3.9372 c 0.5028,-0.4956 0.792,-1.168 0.806,-1.8738 0.014,-0.7058 -0.2483,-1.3891 -0.731,-1.9043 -0.4826,-0.5151 -1.1475,-0.8213 -1.8527,-0.8532 -0.7052,-0.0318 -1.395,0.2131 -1.9222,0.6826 l -0.5436,0.5072 c -0.3626,-4.0565 -1.1131,-8.0688 -2.2413,-11.9821 l -0.0517,-0.1799 c -0.0689,-0.2373 -0.1378,-0.4766 -0.2087,-0.7139 l -0.1205,-0.4001 -0.178,-0.5742 c -0.0613,-0.1914 -0.1245,-0.3924 -0.1915,-0.5876 -0.0478,-0.1436 -0.0918,-0.2871 -0.1397,-0.4307 -0.1148,-0.347 -0.2322,-0.6935 -0.3522,-1.0393 -0.1276,-0.3675 -0.2552,-0.7337 -0.3828,-1.0987 -0.0421,-0.1148 -0.0861,-0.2277 -0.1282,-0.3426 -0.0919,-0.2488 -0.1914,-0.4976 -0.2776,-0.7446 -0.0536,-0.1378 -0.1072,-0.2756 -0.1627,-0.4115 -0.0861,-0.222 -0.1722,-0.444 -0.2603,-0.6661 -0.0593,-0.1474 -0.1206,-0.2947 -0.1818,-0.444 -0.0842,-0.2068 -0.1684,-0.4154 -0.2565,-0.6202 -0.0632,-0.155 -0.1301,-0.3062 -0.1914,-0.4594 -0.0842,-0.1914 -0.1684,-0.3981 -0.2546,-0.5933 -0.0689,-0.1589 -0.1416,-0.3159 -0.2105,-0.4728 -0.0861,-0.1914 -0.1704,-0.3828 -0.2565,-0.5742 -0.0861,-0.1914 -0.1512,-0.3216 -0.2259,-0.4824 -0.0746,-0.1607 -0.1684,-0.3617 -0.2545,-0.5417 -0.0862,-0.1799 -0.1608,-0.3273 -0.2412,-0.4919 -0.0804,-0.1646 -0.1321,-0.2737 -0.1914,-0.4096 z m 4.4636,54.7422 1.5848,-1.4834 c 0.1894,-0.1777 0.4415,-0.2729 0.7011,-0.2646 0.2595,0.0082 0.5051,0.1192 0.6828,0.3086 0.1777,0.1893 0.2728,0.4415 0.2646,0.701 -0.0083,0.2596 -0.1193,0.5052 -0.3086,0.6829 l -2.8941,2.7122 c 0,-0.0651 0,-0.1321 0,-0.1914 0,-0.2201 0,-0.4422 0,-0.6661 0,-0.224 0,-0.4307 0,-0.6508 0,-0.2201 -0.0096,-0.4479 -0.0153,-0.6718 0,-0.1589 0,-0.3139 -0.0134,-0.4728 z M 2.6445218,33.844571 c 0.6144,-6.4217 2.85,-10.6154 6.2973,-11.8117 5.8455002,-2.027 14.1889002,5.0301 20.2890002,17.1596 0.9953,1.981 1.9141,4.0578 2.7314,6.1977 0.2743,0.7133 0.5372,1.4336 0.7886,2.161 0.1161,0.3368 0.2303,0.675 0.3426,1.0144 l 0.1263,0.3828 c 0.0651,0.2048 0.1321,0.4096 0.1914,0.6125 l 0.1551,0.5015 0.1435,0.4785 c 0.0594,0.1914 0.1168,0.3924 0.1723,0.5876 l 0.0976,0.3388 c 0.0651,0.2355 0.1321,0.4709 0.1914,0.7063 v 0.0096 c 1.1081,4.0141 1.7976,8.1322 2.0576,12.2883 l 0.0115,0.1914 c 0,0.1263 0.0096,0.2507 0.0153,0.3828 0.0134,0.3043 0.023,0.6068 0.0306,0.9053 v 0.2221 c 0,0.3905 0,0.7771 0,1.1599 0,0.0325 0,0.0651 0,0.0976 -0.0095,0.8135 -0.0421,1.6078 -0.0995,2.3754 -0.0987,1.4165 -0.3009,2.8239 -0.6048,4.2109 l -0.0115,0.046 c 0,0.0133 0,0.0229 0,0.0363 -1.0004,0.3219 -1.9449,0.7964 -2.8003,1.4069 -0.4277,0.2933 -0.8212,0.6336 -1.1733,1.0144 -0.909,-0.2072 -1.8427,-0.2852 -2.7735,-0.2316 -0.983,0.0352 -1.9533,0.2338 -2.8711,0.5876 -0.3949,-0.3321 -0.8257,-0.6191 -1.2843,-0.8556 -0.8537,-0.4612 -3.6252,-1.7686 -6.1365,-0.8364 -0.7328,-0.6828 -1.6574,-1.1244 -2.649,-1.2652 -0.4872,-0.8648 -1.2807,-1.5157 -2.2242,-1.8241 -3.0223,-4.2971 -5.5814002,-9.4344 -7.6065002,-15.2723 -2.829,-8.1558 -4.0367,-16.3136 -3.3993,-22.9688 z m 3.0893,33.9822 c 0.0699,-0.1352 0.1682,-0.2538 0.2881,-0.3476 0.1199,-0.0938 0.2586,-0.1606 0.4067,-0.196 1.1676,-0.2775 1.9696,0.9111 3.1505,2.8999 0.3331,0.5589 0.6700002,1.1254 1.0356002,1.6499 -1.5077002,0.1893 -2.9611002,0.6829 -4.2722002,1.4508 -0.1884,0.1129 -0.3699,0.2369 -0.5436,0.3714 -0.4939,-2.2395 -0.7274,-4.7029 -0.067,-5.8303 z m 2.8577,13.2779 c -0.0094,-0.1634 -0.0655,-0.3208 -0.1614,-0.4534 -0.096,-0.1326 -0.228,-0.235 -0.3803,-0.295 -1.2901,-0.5149 -2.1878,-1.6595 -2.2873,-2.919 -0.0861,-1.0929 0.446,-2.0652 1.4604,-2.6682 1.3238,-0.7942 2.8304002,-1.2326 4.3737002,-1.2728 0.5014,-0.008 1.0007,0.067 1.4776,0.222 0.3213,0.0949 0.6167,0.2617 0.8638,0.488 0.2471,0.2262 0.4394,0.5057 0.5622,0.8174 0.0098,0.0287 0.0213,0.0569 0.0345,0.0842 0.0686,0.1457 0.1768,0.2692 0.3121,0.3565 0.1354,0.0873 0.2925,0.1348 0.4535,0.1374 0.6031,0.0243 1.1879,0.2144 1.6901,0.5493 l -0.3828,0.3273 -0.0574,0.0498 -0.1914,0.1607 -0.0709,0.0613 -0.2239,0.1914 c -0.0112,0.0118 -0.0234,0.0227 -0.0364,0.0325 l -0.2718,0.245 -0.0689,0.0632 -0.2144,0.1914 -0.0899,0.0842 -0.2278,0.2163 -0.067,0.0632 c -0.0976,0.0938 -0.1914,0.1914 -0.2967,0.2909 l -0.065,0.0632 -0.2584,0.2507 -0.0957,0.0976 -0.2278,0.2374 -0.0804,0.0861 c -0.1015,0.1072 -0.201,0.2163 -0.3024,0.3273 -0.0153,0.0173 -0.0307,0.0364 -0.0479,0.0536 -0.0842,0.0938 -0.1684,0.1914 -0.2507,0.2833 -0.0306,0.0345 -0.0613,0.0689 -0.09,0.1053 -0.0746,0.0842 -0.1474,0.1703 -0.2201,0.2584 l -0.0804,0.0976 c -0.0976,0.1187 -0.1914,0.2373 -0.289,0.3579 l -0.0096,0.0134 c -0.0899,0.1149 -0.178,0.2316 -0.2641,0.3484 l -0.0766,0.1033 c -0.067,0.0919 -0.1321,0.1914 -0.1914,0.2776 l -0.0727,0.1053 c -0.0823,0.1205 -0.1627,0.2411 -0.2412,0.3636 5e-4,0.0038 5e-4,0.0077 0,0.0115 -0.0804,0.1263 -0.157,0.2546 -0.2316,0.3828 -0.0191,0.0306 -0.0364,0.0632 -0.0555,0.0957 -0.0562,0.097 -0.1097,0.1946 -0.1608,0.2929 l -0.0574,0.1091 c -0.0574,0.1129 -0.1129,0.2239 -0.1646,0.3369 l -0.023,0.0478 c -0.0593,0.1302 -0.1148,0.2603 -0.1646,0.3828 l -0.0325,0.0861 c -0.0383,0.1015 -0.0747,0.2029 -0.1072,0.3044 l -0.0345,0.1091 c -0.0325,0.1033 -0.0612,0.2086 -0.0861,0.3139 0,0.023 -0.0134,0.0478 -0.0192,0.0727 -0.0287,0.1283 -0.0535,0.2565 -0.0727,0.3828 0,0.0249 0,0.0479 0,0.0709 -0.0096,0.0727 -0.021,0.1435 -0.0268,0.2143 -0.1532,-0.0552 -0.2997,-0.1277 -0.4364,-0.2163 -0.4498002,-0.289 -1.5140002,-1.2058 -1.6537002,-3.4453 z m 9.0057002,8.0754 c -0.0669,-0.0945 -0.1523,-0.1744 -0.251,-0.235 -0.0987,-0.0605 -0.2087,-0.1004 -0.3233,-0.1172 -0.0436,-0.0076 -0.0878,-0.0114 -0.132,-0.0114 h -0.0747 c -0.4804,0.0287 -4.0425,0.1263 -4.4023,-3.2731 0,-0.0957 -0.0173,-0.1914 -0.023,-0.2948 -0.0306,-0.6335 0.2086,-1.3551 0.6087,-2.1054 0.1148,-0.2144 0.2431,-0.4288 0.3828,-0.6451 0.0708,-0.1091 0.1416,-0.2182 0.2163,-0.3254 1.6346,-2.383 4.4195,-4.7468 5.0225,-5.1277 1.8413,-1.0911 4.4559,0 5.6809,0.7656 -0.833,0.6592 -1.3861,1.6088 -1.5485,2.6586 -0.006,0.038 -0.0092,0.0764 -0.0095,0.1149 l -0.1914,7.4399 -0.0345,0.5972 c -0.1113,0.9002 -0.0291,1.8138 0.2412,2.6797 -1.8146,0.1799 -3.9296,-0.3656 -5.168,-2.1055 z m 12.1753,3.231 c -2.406,0.1416 -3.9736,-0.113 -4.7852,-0.7848 -0.0327,-0.104 -0.0861,-0.2004 -0.1569,-0.2833 -0.3924,-0.4708 -0.5742,-1.1331 -0.5742,-2.0825 l 0.0287,-1.1484 0.4345,-7.5089 c 0.3617,-2.0634 2.7754,-2.4883 4.1899,-2.5648 0.9462,-0.0612 1.8955,0.053 2.8002,0.3368 0.9896,0.3465 1.5964,0.9245 1.8567,1.761 l 1.2805,8.464 c 0.1148,0.9417 0.0153,1.6212 -0.3158,2.138 -0.6164,0.957 -2.2184,1.5312 -4.7584,1.6767 z m 12.4127,-5.1642 c -0.0464,4e-4 -0.0925,0.0055 -0.1378,0.0153 -0.1258,0.0244 -0.2445,0.0764 -0.3478,0.1522 -0.1032,0.0758 -0.1884,0.1735 -0.2494,0.2862 -1.0336,1.914 -3.1123,2.7237 -4.9574,2.7466 0.0191,-0.0784 0.0344,-0.1569 0.0497,-0.2392 0,0 0,-0.0096 0,-0.0153 0.0211,-0.1225 0.0364,-0.247 0.0479,-0.3828 v -0.0517 c 0.0115,-0.1283 0.0172,-0.2565 0.0191,-0.3828 v -0.0747 c 0,-0.1321 0,-0.268 -0.0115,-0.4077 0,-0.023 0,-0.0459 0,-0.067 -0.0095,-0.1474 -0.0229,-0.2967 -0.0421,-0.4517 0,0 0,-0.0153 0,-0.023 l -0.6507,-4.2913 -0.6451,-4.2684 c 0,-0.0363 -0.0153,-0.0746 -0.0249,-0.111 -0.0344,-0.1148 -0.0727,-0.2258 -0.1148,-0.3369 -0.0096,-0.0267 -0.0211,-0.0555 -0.0326,-0.0822 -0.0421,-0.1034 -0.0861,-0.2049 -0.1339,-0.3025 -4e-4,-0.0057 -4e-4,-0.0115 0,-0.0172 -0.0536,-0.1034 -0.1091,-0.2048 -0.1704,-0.3024 -0.0134,-0.023 -0.0306,-0.0479 -0.0459,-0.0708 -0.0562,-0.0881 -0.1155,-0.1742 -0.178,-0.2584 l -0.0192,-0.0288 c -0.0708,-0.0899 -0.1454,-0.176 -0.222,-0.2622 l -0.0574,-0.0612 c -0.0708,-0.0728 -0.1436,-0.1455 -0.2182,-0.2144 l -0.0364,-0.0345 c -0.0861,-0.0765 -0.1761,-0.1493 -0.2699,-0.222 l -0.0708,-0.0517 c -0.0823,-0.0593 -0.1665,-0.1167 -0.2546,-0.1741 l -0.0383,-0.0249 c 1.1198,-0.915 3.5793,-2.316 5.5374,-1.4662 0.4278,0.2266 0.8414,0.4791 1.2384,0.7561 2.071,1.3934 5.7977,4.3468 5.9719,6.6073 0,0.0995 0.0115,0.1914 0.0134,0.2929 0.0708,3.3955 -3.4281,3.7611 -3.9468,3.7975 z m 7.6352,-9.511 c -0.1438,0.079 -0.2621,0.1972 -0.341,0.341 -0.079,0.1437 -0.1154,0.3069 -0.105,0.4706 0.1436,2.249 -0.7982,3.2903 -1.2097,3.6367 -0.1241,0.1048 -0.2596,0.1953 -0.4038,0.2699 v -0.023 c -0.0217,-0.0893 -0.0447,-0.1792 -0.069,-0.2698 -0.0059,-0.017 -0.011,-0.0342 -0.0153,-0.0517 -0.0249,-0.0804 -0.0497,-0.1608 -0.0784,-0.2412 l -0.0173,-0.0498 c -0.0344,-0.0899 -0.0689,-0.1818 -0.1091,-0.2718 0,-0.0172 -0.0134,-0.0344 -0.021,-0.0516 -0.0364,-0.0823 -0.0747,-0.1646 -0.113,-0.245 -0.0071,-0.0131 -0.0135,-0.0265 -0.0191,-0.0402 -0.0459,-0.0919 -0.0938,-0.1819 -0.1436,-0.2737 l -0.0287,-0.0498 c -0.0459,-0.0842 -0.0957,-0.1665 -0.1454,-0.2508 l -0.0173,-0.0287 c -0.0555,-0.0899 -0.1148,-0.1818 -0.1741,-0.2718 l -0.0326,-0.0478 c -0.0593,-0.0881 -0.1186,-0.1742 -0.1818,-0.2584 4e-4,-0.0045 4e-4,-0.009 0,-0.0134 -0.067,-0.0919 -0.134,-0.1818 -0.2029,-0.2699 l -0.0364,-0.0478 c -0.1397,-0.1781 -0.2852,-0.3542 -0.4383,-0.5283 l -0.0402,-0.046 c -0.1512,-0.1741 -0.3101,-0.3464 -0.4728,-0.5149 l -0.0402,-0.0421 c -0.1646,-0.1684 -0.3311,-0.3349 -0.5014,-0.4976 l -0.0421,-0.0402 c -0.0862,-0.0823 -0.1723,-0.1627 -0.2604,-0.2412 l -0.2545,-0.2297 -0.0441,-0.0382 -0.2851,-0.2259 -0.0192,-0.0172 -0.2469,-0.2087 -0.0421,-0.0344 -0.2622,-0.2144 -0.0307,-0.0249 -0.2354,-0.1914 -0.0421,-0.0344 -0.2546,-0.1914 -0.0478,-0.0402 -0.2201,-0.1666 -0.0441,-0.0344 -0.243,-0.178 -0.0479,-0.0364 -0.2105,-0.1589 -0.0402,-0.0287 -0.2259,-0.1607 -0.0574,-0.0402 -0.1914,-0.1283 -0.0421,-0.0287 -0.2068,-0.1397 -0.0574,-0.0383 -0.1665,-0.1129 -0.0383,-0.023 -0.1914,-0.1206 -0.0536,-0.0364 -0.1512,-0.0976 -0.0306,-0.0191 -0.1589,-0.0995 c -0.0062,-0.0056 -0.0134,-0.0101 -0.021,-0.0134 0.4548,-0.399 1.0113,-0.6641 1.6078,-0.7657 0.1656,-0.0228 0.3211,-0.0934 0.4472,-0.2032 0.1262,-0.1098 0.2175,-0.254 0.2629,-0.415 0,-0.0172 0.0096,-0.0326 0.0134,-0.0498 0.082,-0.3257 0.2375,-0.6284 0.4544,-0.8848 0.217,-0.2565 0.4897,-0.4599 0.7974,-0.5947 1.4374,-0.7102 3.876,-0.5743 5.9336,0.3139 1.0833,0.4708 1.7322,1.3685 1.7839,2.4634 0.0593,1.2613 -0.6891,2.5093 -1.9045,3.1811 M 13.837891,57.240234 c -0.39222,-0.0072 -0.893805,0.07744 -1.19336,0.533203 -0.299647,0.455774 -0.180028,0.949747 -0.01758,1.306641 0.16245,0.356894 0.408727,0.687729 0.720703,1.037109 0.623953,0.698761 1.527183,1.453213 2.609375,2.166016 1.083125,0.713383 2.137136,1.244132 3.025391,1.539063 0.444128,0.147465 0.843858,0.239703 1.234375,0.248046 0.390517,0.0083 0.885119,-0.06898 1.189453,-0.521484 l 0.002,-0.0039 0.002,-0.0039 c 0.299419,-0.455552 0.179777,-0.947752 0.01758,-1.304688 -0.162198,-0.356935 -0.407025,-0.687583 -0.71875,-1.037109 -0.623449,-0.699053 -1.527182,-1.456162 -2.609375,-2.169922 -1.082933,-0.714335 -2.135828,-1.245385 -3.02539,-1.541016 -0.444782,-0.147815 -0.844109,-0.240813 -1.236328,-0.248047 z m 0.427734,1.59961 c 0.121299,0.02751 0.185873,0.02239 0.335938,0.07227 0.708685,0.235519 1.68001,0.714877 2.671874,1.369141 0.992706,0.654739 1.819183,1.358495 2.316407,1.916016 0.103444,0.115988 0.124613,0.174335 0.197265,0.273437 -0.120431,-0.02754 -0.183734,-0.02303 -0.332031,-0.07227 -0.708568,-0.235268 -1.680102,-0.713972 -2.671875,-1.367187 -0.992605,-0.653795 -1.818735,-1.356724 -2.316406,-1.914063 -0.105064,-0.11766 -0.127844,-0.17714 -0.201172,-0.277344 z m 6.518597,4.289827 c 0.3636,-0.5532 -1.0221,-2.1055 -3.097,-3.474 -2.0748,-1.3686 -4.0521,-2.0232 -4.4157,-1.47 -0.3637,0.5532 1.024,2.1055 3.0988,3.4721 2.0749,1.3666 4.0483,2.0155 4.4139,1.4719 z M 11.28125,49.863281 c -0.392204,-0.0073 -0.893724,0.07753 -1.193359,0.533203 -0.2995927,0.455816 -0.1800404,0.949765 -0.01758,1.306641 0.162461,0.356876 0.408722,0.685779 0.720703,1.035156 0.62396,0.698754 1.527182,1.455166 2.609375,2.167969 1.082638,0.713149 2.136677,1.244945 3.02539,1.541016 0.444357,0.148035 0.844562,0.242144 1.236328,0.25 0.391767,0.0079 0.890913,-0.07584 1.191407,-0.53125 v -0.002 c 0.299482,-0.455522 0.179773,-0.947737 0.01758,-1.304687 -0.162195,-0.35695 -0.407027,-0.687578 -0.71875,-1.037109 -0.623446,-0.699063 -1.527248,-1.456119 -2.609375,-2.169922 -1.082971,-0.714273 -2.135842,-1.24539 -3.025391,-1.541016 -0.444775,-0.147813 -0.844124,-0.240796 -1.236328,-0.248047 z m 0.427734,1.59961 c 0.121304,0.02751 0.18587,0.02239 0.335938,0.07227 0.708699,0.235524 1.679947,0.714915 2.671875,1.369141 0.992671,0.654795 1.819178,1.35848 2.316406,1.916015 0.104768,0.117475 0.126054,0.177271 0.199219,0.277344 -0.120815,-0.02761 -0.18478,-0.02256 -0.333985,-0.07227 -0.70856,-0.236054 -1.679714,-0.717544 -2.671874,-1.371094 -0.992606,-0.653795 -1.818718,-1.356717 -2.316407,-1.914063 -0.105067,-0.117661 -0.127839,-0.177137 -0.201172,-0.277343 z m 6.518538,4.28988 c 0.3637,-0.5532 -1.0221,-2.1055 -3.0969,-3.4741 -2.0749,-1.3685 -4.0521,-2.0231 -4.4158,-1.47 -0.3636,0.5532 1.0241,2.1055 3.0989,3.4721 2.0748,1.3667 4.0501,2.0232 4.4138,1.472 z M 8.7265625,42.503906 c -0.3920967,-0.0075 -0.8938228,0.0776 -1.1933594,0.533203 -0.2994824,0.455523 -0.1797936,0.949696 -0.017578,1.306641 0.1622155,0.356945 0.4069833,0.685723 0.71875,1.035156 0.6235334,0.698867 1.5270416,1.455107 2.6093749,2.167969 1.083266,0.713563 2.138256,1.244392 3.027344,1.539062 0.444544,0.147336 0.8435,0.240099 1.234375,0.248047 0.390874,0.0079 0.888425,-0.07291 1.191406,-0.527343 h 0.002 v -0.002 c 0.300906,-0.456033 0.180007,-0.949945 0.01758,-1.30664 -0.162429,-0.356695 -0.406803,-0.687638 -0.71875,-1.03711 -0.623893,-0.698942 -1.528957,-1.45503 -2.611328,-2.167968 C 11.903701,43.579879 10.851789,43.047821 9.9628906,42.751953 9.5184416,42.604019 9.1186592,42.51137 8.7265625,42.503906 Z m 0.4277344,1.59961 c 0.1209496,0.02754 0.1844667,0.0225 0.3339844,0.07227 0.7083757,0.235782 1.6816577,0.715632 2.6738277,1.369141 0.992527,0.65376 1.818651,1.358384 2.316407,1.916015 0.103204,0.11562 0.122689,0.174562 0.195312,0.273438 C 14.553479,47.70692 14.48994,47.71121 14.341797,47.66211 13.632662,47.427081 12.661454,46.948058 11.669922,46.294922 10.677357,45.641185 9.8506812,44.938091 9.3535156,44.380859 9.2487612,44.263449 9.2274506,44.203545 9.1542969,44.103516 Z m 6.5186251,4.287655 c 0.3637,-0.5512 -1.024,-2.1054 -3.0989,-3.4721 -2.0748,-1.3666 -4.0501002,-2.0232 -4.4138002,-1.47 -0.3637,0.5532 1.0221,2.1055 3.0970002,3.4721 2.0748,1.3667 4.052,2.0155 4.4157,1.47 z m 14.676687,12.573673 c -0.469326,-0.155944 -0.90888,0.02701 -1.21289,0.24414 -0.304011,0.217126 -0.553491,0.502094 -0.798828,0.845703 -0.490674,0.687219 -0.944188,1.62151 -1.302735,2.701172 -0.358382,1.079166 -0.555047,2.097587 -0.574219,2.941407 -0.0096,0.421909 0.01964,0.800247 0.132813,1.15625 0.113168,0.356002 0.354827,0.765934 0.824219,0.921875 0.469213,0.155906 0.907065,-0.02889 1.210937,-0.246094 0.303873,-0.2172 0.55368,-0.500195 0.798828,-0.84375 0.490297,-0.687111 0.94527,-1.621913 1.304688,-2.701172 0.359495,-1.07949 0.5553,-2.097395 0.574219,-2.941406 0.0095,-0.422006 -0.01946,-0.800291 -0.132813,-1.15625 -0.113357,-0.355959 -0.354984,-0.765887 -0.824219,-0.921875 z M 29.777344,62.6875 c 0.01148,0.111446 0.03269,0.169016 0.0293,0.320312 -0.01411,0.629313 -0.178043,1.542998 -0.498047,2.503907 -0.320082,0.961139 -0.735835,1.788243 -1.101563,2.300781 -0.08823,0.123641 -0.140652,0.157699 -0.216797,0.240234 -0.01143,-0.111475 -0.03274,-0.168963 -0.0293,-0.320312 0.0143,-0.629529 0.17883,-1.542675 0.498047,-2.503906 0.319053,-0.960736 0.733735,-1.788352 1.09961,-2.300782 0.08845,-0.123874 0.142429,-0.157618 0.21875,-0.240234 z m -2.122722,6.375671 c 0.6278,0.2086 1.6862,-1.2748 2.3657,-3.3152 0.6795,-2.0404 0.7197,-3.8625 0.0919,-4.0712 -0.6278,-0.2086 -1.6882,1.2748 -2.3658,3.3152 -0.6776,2.0404 -0.7197,3.8626 -0.0918,4.0712 z M 17.333984,65.291016 c -0.371727,0.01561 -0.827798,0.136731 -1.103515,0.548828 -0.27726,0.414403 -0.209659,0.887429 -0.07813,1.236328 0.131533,0.348899 0.342663,0.664202 0.611328,0.990234 0.537329,0.652064 1.320834,1.333655 2.271484,1.958985 0.949747,0.624736 1.884688,1.076272 2.695313,1.3125 0.405312,0.118113 0.777122,0.187436 1.15039,0.169921 0.373269,-0.01751 0.831649,-0.145149 1.103516,-0.558593 0.271678,-0.413232 0.207834,-0.884717 0.07617,-1.234375 C 23.928885,69.365185 23.718095,69.049938 23.449219,68.724609 22.911466,68.073951 22.12745,67.3962 21.177734,66.771484 l -0.0039,0.0059 c -0.948498,-0.624478 -1.880856,-1.075754 -2.689453,-1.3125 -0.404889,-0.118546 -0.778663,-0.189443 -1.150391,-0.173828 z m 0.417969,1.560546 c 0.109236,0.01816 0.168945,0.01128 0.310547,0.05273 0.605671,0.177332 1.443692,0.56995 2.289062,1.126953 l 0.0039,-0.0039 c 0.84444,0.555808 1.536811,1.167527 1.9375,1.652343 0.09663,0.116924 0.115657,0.176739 0.175781,0.271485 -0.110903,-0.01771 -0.172599,-0.01026 -0.318359,-0.05273 -0.604799,-0.176246 -1.445365,-0.57069 -2.291016,-1.126953 -0.844748,-0.555668 -1.537908,-1.172871 -1.939453,-1.660156 -0.09238,-0.112103 -0.108809,-0.167585 -0.167969,-0.259766 z m 3.012869,0.554009 c -1.7953,-1.1829 -3.5467,-1.6921 -3.9104,-1.1485 -0.3637,0.5436 0.7982,1.96 2.5936,3.141 1.7954,1.181 3.5467,1.692 3.9104,1.1389 0.3637,-0.5532 -0.7982,-1.9581 -2.5936,-3.1391 M 20.109375,31.427734 c -0.469649,-0.156051 -0.908952,0.02679 -1.212891,0.244141 -0.303939,0.217348 -0.553541,0.503845 -0.798828,0.847656 -0.490574,0.687623 -0.944209,1.621576 -1.302734,2.701172 -0.358382,1.079166 -0.555033,2.097598 -0.574219,2.941406 -0.0096,0.421905 0.01967,0.800259 0.132813,1.15625 0.113142,0.355992 0.354816,0.763953 0.824218,0.919922 0.469219,0.155908 0.907058,-0.02695 1.210938,-0.24414 0.303879,-0.217195 0.553665,-0.502148 0.798828,-0.845704 0.490325,-0.687111 0.945266,-1.619949 1.304687,-2.699218 0.359519,-1.07956 0.555304,-2.09893 0.574219,-2.94336 0.0095,-0.422215 -0.0195,-0.800179 -0.132812,-1.15625 -0.113309,-0.35607 -0.354601,-0.765834 -0.824219,-0.921875 z m -0.572266,1.722657 c 0.01155,0.111783 0.0327,0.170361 0.0293,0.322265 -0.01411,0.629869 -0.178065,1.541115 -0.498047,2.501953 -0.320078,0.961129 -0.735813,1.790197 -1.101562,2.302735 -0.08803,0.123354 -0.140777,0.155834 -0.216797,0.238281 -0.01137,-0.111293 -0.03273,-0.1694 -0.0293,-0.320313 0.01431,-0.62954 0.17883,-1.540721 0.498047,-2.501953 0.319074,-0.960801 0.733635,-1.789758 1.099609,-2.302734 0.08847,-0.124006 0.142397,-0.157501 0.21875,-0.240234 z m -2.122787,6.37708 c 0.6278,0.2086 1.6863,-1.2748 2.3658,-3.3152 0.6795,-2.0404 0.7197,-3.8645 0.0919,-4.0731 -0.6278,-0.2086 -1.6882,1.2767 -2.3658,3.3171 -0.6776,2.0404 -0.7197,3.8626 -0.0919,4.0712 z M 7.0996094,35.765625 c -0.3732828,0.01774 -0.8297949,0.145301 -1.1015625,0.558594 -0.2715614,0.413167 -0.2075664,0.884569 -0.076172,1.234375 0.1313945,0.349805 0.34059,0.66457 0.609375,0.990234 0.53757,0.651328 1.3244033,1.330188 2.2753906,1.955078 0.9504834,0.62456 1.8829955,1.076255 2.6933595,1.3125 0.405182,0.118123 0.779126,0.187453 1.152344,0.169922 0.373217,-0.01753 0.829895,-0.145379 1.101562,-0.558594 0.271678,-0.413231 0.207815,-0.882762 0.07617,-1.232422 C 13.698435,39.845653 13.487579,39.530495 13.21875,39.205078 12.681092,38.554245 11.896753,37.875605 10.947266,37.25 9.9972849,36.624105 9.0628156,36.171563 8.2519531,35.935547 7.8465219,35.817539 7.4728921,35.747882 7.0996094,35.765625 Z m 0.4140625,1.554687 c 0.110935,0.01764 0.1724979,0.01223 0.3183593,0.05469 0.6046113,0.175983 1.4436449,0.569949 2.2890628,1.126953 0.845811,0.557294 1.540215,1.172563 1.941406,1.658203 0.09624,0.116504 0.115741,0.175007 0.175781,0.269531 -0.110618,-0.01772 -0.173069,-0.01038 -0.318359,-0.05273 C 11.315337,40.200699 10.475721,39.806439 9.6289063,39.25 8.7825954,38.693892 8.0902572,38.079371 7.6894531,37.59375 7.5921676,37.475877 7.5739041,37.415608 7.5136719,37.320312 Z m 5.6143501,3.696159 c 0.3637,-0.5532 -0.7982,-1.9581 -2.5935,-3.141 -1.7954002,-1.1829 -3.5468002,-1.692 -3.9105002,-1.1389 -0.3636,0.5532 0.7963,1.96 2.5936,3.141 1.7973002,1.181 3.5467002,1.6921 3.9104002,1.1389 z m 15.024322,11.368295 c -0.5171,-0.171272 -0.964248,0.07141 -1.267578,0.320312 -0.303331,0.248906 -0.559166,0.569359 -0.816407,0.960938 -0.514481,0.783157 -1.011519,1.853664 -1.419922,3.083984 -0.408338,1.229919 -0.649801,2.383468 -0.707031,3.318359 -0.02861,0.467446 -0.01719,0.877045 0.07617,1.257813 0.09336,0.380767 0.303635,0.842384 0.820313,1.015625 l 0.240234,-0.710938 -0.238281,0.710938 c 0.517716,0.172022 0.9645,-0.06957 1.267578,-0.31836 0.303078,-0.248785 0.558964,-0.571407 0.816406,-0.96289 0.514884,-0.782966 1.01243,-1.851712 1.421875,-3.082031 0.409387,-1.230248 0.652251,-2.384845 0.708984,-3.320313 0.02837,-0.467734 0.01593,-0.878747 -0.07813,-1.259766 -0.09405,-0.381018 -0.306715,-0.842238 -0.824218,-1.013671 z m -0.611328,1.83789 c 0.0047,0.124592 0.02524,0.185278 0.01563,0.34375 -0.04522,0.745556 -0.259454,1.80965 -0.634766,2.9375 -0.375354,1.127879 -0.841388,2.10809 -1.251953,2.732422 -0.08632,0.131272 -0.139065,0.167255 -0.216797,0.263672 -0.0044,-0.123691 -0.02522,-0.183147 -0.01563,-0.339844 0.04565,-0.745656 0.260205,-1.809321 0.634766,-2.9375 0.374397,-1.127878 0.839981,-2.10828 1.25,-2.732422 0.08742,-0.133071 0.140217,-0.170403 0.21875,-0.267578 z m -2.463994,7.408215 c 0.6278,0.2086 1.7724,-1.5312 2.5572,-3.8894 0.7847,-2.3581 0.9111,-4.4368 0.2814,-4.6454 -0.6298,-0.2086 -1.7725,1.5312 -2.5553,3.8894 -0.7829,2.3581 -0.9111,4.4349 -0.2833,4.6454 z m 0.522587,-16.613293 c -0.517733,-0.172028 -0.962551,0.07152 -1.265625,0.320313 -0.303073,0.248792 -0.558966,0.56945 -0.816406,0.960937 -0.514879,0.782974 -1.014383,1.851766 -1.423828,3.082031 -0.409425,1.230206 -0.650052,2.385453 -0.707031,3.320313 -0.02849,0.46743 -0.01748,0.877139 0.07617,1.257812 0.09365,0.380674 0.306732,0.841726 0.824218,1.013672 0.517717,0.172023 0.962558,-0.06963 1.265625,-0.318359 0.303068,-0.248734 0.558967,-0.571543 0.816407,-0.962891 0.514879,-0.782696 1.01242,-1.850722 1.421875,-3.080078 0.409503,-1.229449 0.652013,-2.384803 0.708984,-3.320312 0.02848,-0.467755 0.01546,-0.876949 -0.07813,-1.257813 -0.09358,-0.380864 -0.304132,-0.843464 -0.822266,-1.015625 z m -0.613281,1.841797 c 0.0045,0.124054 0.0252,0.184494 0.01563,0.341797 -0.04543,0.745989 -0.257517,1.808799 -0.632812,2.935547 -0.375345,1.126942 -0.843337,2.106341 -1.253907,2.730468 -0.08646,0.131429 -0.138966,0.16719 -0.216797,0.263672 -0.0044,-0.123368 -0.02515,-0.183616 -0.01563,-0.339843 0.04542,-0.745214 0.259392,-1.807655 0.634766,-2.935547 0.375354,-1.127832 0.841384,-2.108072 1.251953,-2.732422 0.08633,-0.131275 0.139064,-0.167251 0.216797,-0.263672 z m -2.463406,7.402396 c 0.6278,0.2086 1.7724,-1.5312 2.5572,-3.8875 0.7848,-2.3562 0.9111,-4.4368 0.2833,-4.6454 -0.6278,-0.2086 -1.7724,1.5313 -2.5572,3.8894 -0.7848,2.3581 -0.9111,4.4349 -0.2833,4.6435 z m 0.522,-16.61138 c -0.517734,-0.172028 -0.964515,0.07157 -1.267578,0.320312 -0.303064,0.248741 -0.558969,0.569586 -0.816407,0.960938 -0.514875,0.782703 -1.01242,1.850776 -1.421875,3.080078 -0.409506,1.229615 -0.650597,2.384708 -0.707031,3.320312 -0.02822,0.467802 -0.01571,0.878955 0.07813,1.259766 0.09383,0.380811 0.30424,0.841547 0.822266,1.013672 0.517717,0.172022 0.962565,-0.0696 1.265625,-0.31836 0.30306,-0.248762 0.559069,-0.571497 0.816406,-0.96289 0.514675,-0.782787 1.013357,-1.850558 1.421875,-3.080078 0.408362,-1.229154 0.649822,-2.383056 0.707031,-3.31836 0.0286,-0.467652 0.0172,-0.878897 -0.07617,-1.259765 -0.09337,-0.380869 -0.30409,-0.843368 -0.822265,-1.015625 z m -0.613281,1.841796 c 0.0045,0.124077 0.02525,0.184473 0.01563,0.341797 -0.04564,0.74617 -0.260328,1.810456 -0.634766,2.9375 -0.374381,1.126778 -0.839701,2.104479 -1.25,2.728516 -0.08696,0.132266 -0.140545,0.168779 -0.21875,0.265625 -0.0047,-0.124516 -0.02517,-0.185587 -0.01563,-0.34375 0.04499,-0.745894 0.25762,-1.808965 0.632812,-2.935547 0.375345,-1.126895 0.843333,-2.106323 1.253907,-2.730469 0.08646,-0.131432 0.138965,-0.167185 0.216797,-0.263672 z m -2.462619,7.402384 c 0.6278,0.2086 1.7724,-1.5312 2.5553,-3.8875 0.7828,-2.3562 0.911,-4.4367 0.2832,-4.6454 -0.6278,-0.2086 -1.7724,1.5313 -2.5572,3.8875 -0.7847,2.3562 -0.9091,4.4368 -0.2813,4.6454 z M 11.431641,29.210937 c -0.268119,0.09337 -0.418713,0.309236 -0.480469,0.447266 -0.06176,0.138031 -0.07449,0.236293 -0.08398,0.326172 -0.01898,0.179758 -0.0091,0.331878 0.0098,0.511719 0.0378,0.359682 0.123839,0.811646 0.251953,1.380859 0.256228,1.138427 0.686811,2.727527 1.259766,4.675781 1.14591,3.896508 2.862297,9.21519 4.884765,15.048828 2.022526,5.833659 3.966569,11.073563 5.478516,14.841797 0.755974,1.884117 1.402621,3.399045 1.90625,4.451172 0.251815,0.526064 0.46498,0.932514 0.658203,1.238281 0.09661,0.152884 0.181985,0.278752 0.308594,0.408204 0.0633,0.06472 0.133217,0.135117 0.267578,0.205078 0.134362,0.06996 0.386919,0.145573 0.654297,0.05273 0.267592,-0.09298 0.4186,-0.309303 0.480469,-0.447266 0.062,-0.138263 0.07448,-0.238224 0.08398,-0.328125 0.01901,-0.1798 0.0091,-0.330006 -0.0098,-0.509765 -0.0378,-0.359518 -0.123843,-0.811772 -0.251953,-1.38086 -0.256218,-1.138174 -0.684865,-2.727534 -1.257812,-4.675781 -1.145894,-3.896494 -2.864204,-9.2162 -4.886719,-15.050781 -2.022544,-5.834664 -3.96633,-11.073815 -5.478515,-14.841797 -0.756093,-1.883991 -1.402739,-3.397294 -1.90625,-4.449219 -0.251756,-0.525962 -0.463241,-0.932657 -0.65625,-1.238281 -0.09651,-0.152812 -0.182224,-0.278816 -0.308594,-0.408203 -0.06318,-0.06469 -0.135234,-0.135 -0.269531,-0.205078 -0.134298,-0.07008 -0.386301,-0.146058 -0.654297,-0.05273 z m 2.380859,6.861329 c 0.0087,0.0216 0.01278,0.02908 0.02148,0.05078 1.498612,3.73416 3.436973,8.959166 5.453125,14.77539 2.016181,5.816308 3.729581,11.118796 4.865235,14.980469 0.008,0.02717 0.0096,0.03742 0.01758,0.06445 -0.01004,-0.025 -0.01531,-0.03346 -0.02539,-0.05859 -1.498375,-3.734409 -3.436954,-8.958108 -5.453125,-14.773438 -2.016128,-5.81535 -3.727619,-11.118809 -4.863281,-14.980469 -0.0073,-0.02466 -0.0084,-0.03405 -0.01563,-0.05859 z m 12.488722,36.017305 c 0.5551,-0.1914 -2.2662,-9.7866 -6.3049,-21.4375 -4.0387,-11.6509 -7.7634,-20.9264 -8.3185,-20.7331 -0.5551,0.1933 2.2663,9.7885 6.3049,21.4375 4.0387,11.649 7.7615,20.9265 8.3185,20.7331 z M 43.078125,32.929687 c -0.461228,-0.0092 -0.919179,0.07339 -1.347656,0.244141 -0.428442,0.170738 -0.817996,0.426237 -1.146485,0.75 l -5.58789,5.232422 c -0.668241,0.626116 -1.06116,1.492931 -1.091797,2.408203 -0.03077,0.915292 0.304862,1.805108 0.929687,2.474609 v 0.002 c 0.627149,0.668244 1.495923,1.060104 2.41211,1.089843 0.916041,0.02974 1.807272,-0.305489 2.476562,-0.93164 l 5.585938,-5.232422 0.002,-0.002 c 0.34361,-0.306405 0.622487,-0.679914 0.820312,-1.095703 0.198195,-0.416438 0.311212,-0.867283 0.332032,-1.328125 0.02081,-0.460669 -0.05098,-0.920666 -0.210938,-1.353516 -0.159871,-0.432622 -0.40351,-0.829453 -0.71875,-1.166016 -0.315447,-0.336647 -0.695937,-0.607344 -1.117187,-0.794922 -0.421561,-0.187786 -0.876801,-0.287683 -1.337891,-0.296875 z m -0.0293,1.498047 c 0.26131,0.0052 0.519374,0.06371 0.757813,0.169922 0.238549,0.106223 0.452306,0.258667 0.630859,0.449219 0.17856,0.190637 0.317674,0.415179 0.408203,0.660156 0.09045,0.244749 0.130929,0.504695 0.119141,0.765625 -0.01178,0.260758 -0.07529,0.516192 -0.1875,0.751953 -0.11218,0.23578 -0.271753,0.447448 -0.466797,0.621094 l -0.0059,0.0059 -5.607421,5.253907 c -0.379509,0.355047 -0.882987,0.544204 -1.402344,0.527343 -0.518795,-0.01684 -1.009686,-0.239054 -1.365235,-0.617187 -0.354173,-0.379498 -0.542825,-0.881684 -0.52539,-1.400391 0.01734,-0.518109 0.23925,-1.0085 0.617187,-1.363281 l 5.609375,-5.253906 0.0059,-0.0059 c 0.185911,-0.183236 0.405879,-0.329119 0.648437,-0.425781 0.242522,-0.09665 0.502701,-0.143875 0.763672,-0.138673 z m -0.03711,0.275391 c -0.227131,-0.0072 -0.45184,0.02928 -0.664063,0.109375 -0.21237,0.08015 -0.408688,0.202126 -0.574219,0.357422 l -5.599609,5.246094 0.513672,0.546875 -0.527344,-0.535157 c -0.321889,0.316249 -0.50627,0.747559 -0.515625,1.199219 -0.0093,0.451425 0.158041,0.889175 0.466797,1.21875 0.308808,0.329454 0.734408,0.524985 1.185547,0.544922 0.451153,0.01994 0.893808,-0.138258 1.230469,-0.439453 l 0.0059,-0.0059 5.607422,-5.253906 c 0.165689,-0.155443 0.299094,-0.34228 0.392578,-0.548828 0.09322,-0.206527 0.145099,-0.429196 0.152344,-0.65625 0.0072,-0.227132 -0.03119,-0.453665 -0.111328,-0.666016 -0.08028,-0.21271 -0.200664,-0.40707 -0.355469,-0.572265 -0.155444,-0.165689 -0.341903,-0.2991 -0.548828,-0.392578 -0.207112,-0.09366 -0.431538,-0.145112 -0.658203,-0.152344 z m -0.04687,1.498047 c 0.03033,9.68e-4 0.05865,0.0091 0.08594,0.02148 0.02679,0.0121 0.05193,0.02941 0.07227,0.05078 0.02099,0.0224 0.0383,0.04828 0.04883,0.07617 0.01066,0.02825 0.01463,0.05802 0.01367,0.08789 -9.56e-4,0.02995 -0.007,0.06002 -0.01953,0.08789 -0.01252,0.02765 -0.03082,0.05171 -0.05273,0.07227 l -5.585937,5.236328 c -4.75e-4,4.25e-4 -0.0015,-4.2e-4 -0.002,0 -0.04474,0.03937 -0.1025,0.06123 -0.16211,0.05859 -0.06026,-0.0027 -0.117011,-0.02832 -0.158203,-0.07227 -0.04124,-0.04402 -0.06375,-0.101734 -0.0625,-0.162109 0.0012,-0.06014 0.027,-0.117605 0.07031,-0.160156 l 5.58789,-5.234375 c 0.02207,-0.0207 0.04794,-0.03622 0.07617,-0.04687 0.02838,-0.01071 0.05782,-0.01658 0.08789,-0.01563 z m -7.583423,7.326799 c 0.4914,0.5236 1.1705,0.8309 1.8883,0.8542 0.7177,0.0233 1.4154,-0.2392 1.9398,-0.7298 l 5.6005,-5.2465 c 0.2698,-0.2402 0.4887,-0.5319 0.6439,-0.8581 0.1552,-0.3261 0.2436,-0.68 0.2599,-1.0408 0.0163,-0.3608 -0.0397,-0.7213 -0.1649,-1.0601 -0.1251,-0.3388 -0.3169,-0.6491 -0.5638,-0.9127 -0.247,-0.2636 -0.5442,-0.475 -0.8741,-0.6219 -0.33,-0.147 -0.686,-0.2263 -1.0472,-0.2335 -0.3611,-0.0072 -0.72,0.058 -1.0555,0.1917 -0.3355,0.1337 -0.6409,0.3332 -0.8981,0.5867 l -5.6006,5.2465 c -0.5235,0.4905 -0.831,1.1686 -0.855,1.8856 -0.0241,0.717 0.2373,1.4142 0.7268,1.9387 z m 1.3053,-2.5649 5.6006,-5.2464 c 0.0938,-0.088 0.2039,-0.1566 0.3242,-0.202 0.1203,-0.0454 0.2483,-0.0667 0.3769,-0.0626 0.1285,0.0041 0.2549,0.0334 0.3721,0.0864 0.1171,0.0529 0.2227,0.1284 0.3107,0.2222 0.0879,0.0938 0.1566,0.2039 0.202,0.3242 0.0454,0.1203 0.0667,0.2484 0.0626,0.3769 -0.0041,0.1285 -0.0335,0.2549 -0.0864,0.3721 -0.053,0.1171 -0.1285,0.2227 -0.2223,0.3107 l -5.6005,5.2483 c -0.1908,0.1707 -0.4408,0.2599 -0.6965,0.2486 -0.2557,-0.0113 -0.4969,-0.1222 -0.6719,-0.3089 -0.175,-0.1868 -0.27,-0.4347 -0.2647,-0.6906 0.0053,-0.2559 0.1106,-0.4996 0.2932,-0.6789 z m 7.901169,-30.859555 c -0.453877,-0.01482 -0.905297,0.06072 -1.330079,0.220703 -0.424715,0.160002 -0.815211,0.402562 -1.146484,0.71289 l -5.601562,5.246094 v 0.002 c -0.667064,0.627374 -1.06011,1.493086 -1.089844,2.408203 -0.02973,0.915122 0.304866,1.805249 0.929687,2.47461 l 0.002,0.002 c 0.627149,0.668244 1.49397,1.060104 2.410157,1.089844 0.916041,0.02974 1.807272,-0.30549 2.476562,-0.931641 l 5.601563,-5.246094 c 0.331233,-0.31042 0.597852,-0.68228 0.785156,-1.095703 0.187235,-0.413551 0.29183,-0.860822 0.306641,-1.314453 0.01468,-0.453599 -0.06064,-0.905206 -0.220704,-1.330078 -0.160001,-0.424841 -0.40239,-0.815165 -0.71289,-1.146484 -0.310453,-0.331406 -0.682397,-0.597905 -1.095703,-0.785157 -0.413528,-0.187166 -0.860818,-0.29183 -1.314453,-0.30664 z m -0.04883,1.5 c 0.256964,0.0084 0.509869,0.06779 0.744141,0.173828 0.234293,0.106148 0.445548,0.255965 0.621094,0.443359 0.175699,0.18748 0.311746,0.407879 0.402344,0.648438 0.09054,0.240327 0.133318,0.496905 0.125,0.753906 -0.0084,0.256968 -0.06786,0.510092 -0.173829,0.744141 -0.106095,0.234176 -0.255793,0.445314 -0.443359,0.621093 l -5.601562,5.246094 c -0.37935,0.354212 -0.88362,0.544184 -1.402344,0.527344 -0.518795,-0.01684 -1.007733,-0.239055 -1.363281,-0.617188 -0.354378,-0.379638 -0.54421,-0.883266 -0.527344,-1.402344 0.01684,-0.518185 0.238091,-1.007606 0.615234,-1.363281 l 0.002,-0.002 5.601563,-5.246094 c 0.187527,-0.175671 0.407954,-0.311746 0.648437,-0.402343 0.240618,-0.09062 0.495231,-0.133382 0.751953,-0.125 z m -0.0098,0.228515 c -0.458185,-0.01465 -0.904083,0.153078 -1.238281,0.466797 l -5.601563,5.246094 1.025391,1.09375 5.601562,-5.246094 h 0.002 c 0.0444,-0.04168 0.101095,-0.06445 0.16211,-0.0625 0.06107,0.002 0.118337,0.02772 0.160156,0.07227 0.04193,0.04472 0.06443,0.102862 0.0625,0.164062 -0.002,0.06107 -0.0277,0.118348 -0.07227,0.160157 l -5.601562,5.246093 c -0.04469,0.04193 -0.103041,0.06445 -0.164063,0.0625 h -0.002 c -0.06088,-0.0019 -0.116394,-0.0277 -0.158203,-0.07227 -0.04158,-0.0443 -0.06443,-0.102858 -0.0625,-0.164063 0.002,-0.06124 0.02772,-0.118337 0.07227,-0.160156 L 37.6875,17.544922 C 37.353449,17.858503 37.15722,18.292038 37.142578,18.75 v 0.002 c -0.01447,0.457795 0.154935,0.902028 0.46875,1.236328 0.313591,0.334239 0.746957,0.530446 1.205078,0.544922 0.458179,0.01465 0.904176,-0.153331 1.238281,-0.466797 L 45.65625,14.82036 c 0.334238,-0.313592 0.532228,-0.747147 0.546875,-1.205079 0.01447,-0.457998 -0.155481,-0.904198 -0.46875,-1.238281 -0.313581,-0.334051 -0.747146,-0.530275 -1.205078,-0.544922 z m -7.631039,8.82484 c 0.4914,0.5236 1.1705,0.8309 1.8883,0.8542 0.7177,0.0233 1.4154,-0.2392 1.9398,-0.7298 l 5.6005,-5.2464 c 0.2594,-0.2431 0.4684,-0.5349 0.6151,-0.8587 0.1466,-0.3238 0.228,-0.6734 0.2396,-1.0287 0.0115,-0.3553 -0.047,-0.7094 -0.1723,-1.042 -0.1253,-0.3327 -0.3149,-0.6375 -0.558,-0.8969 -0.243,-0.2594 -0.5348,-0.4683 -0.8586,-0.615 -0.3239,-0.1466 -0.6734,-0.228 -1.0287,-0.2396 -0.3553,-0.0116 -0.7094,0.047 -1.0421,0.1723 -0.3326,0.1253 -0.6374,0.3149 -0.8968,0.5579 l -5.6024,5.2465 c -0.5227,0.4916 -0.8292,1.1703 -0.8525,1.8874 -0.0233,0.7171 0.2385,1.4143 0.7281,1.9388 z m 1.3034,-2.5649 5.6025,-5.2464 c 0.1893,-0.1777 0.4415,-0.2729 0.7011,-0.2646 0.2595,0.0083 0.5051,0.1193 0.6828,0.3086 0.1776,0.1894 0.2728,0.4415 0.2646,0.7011 -0.0083,0.2595 -0.1193,0.5051 -0.3087,0.6828 l -5.6024,5.2464 c -0.1894,0.1777 -0.4415,0.2729 -0.7011,0.2646 -0.2595,-0.0082 -0.5051,-0.1192 -0.6828,-0.3086 -0.1777,-0.1893 -0.2728,-0.4415 -0.2646,-0.701 0.0083,-0.2596 0.1193,-0.5052 0.3086,-0.6829 z" />
  </g>
</svg>
