<?xml version="1.0" encoding="UTF-8" standalone="no"?>
<svg
   width="1000"
   height="1000"
   viewBox="0 0 1000 1000"
   fill="none"
   version="1.1"
   id="svg11"
   sodipodi:docname="cadena.svg"
   inkscape:version="1.2.1 (9c6d41e, 2022-07-14)"
   xmlns:inkscape="http://www.inkscape.org/namespaces/inkscape"
   xmlns:sodipodi="http://sodipodi.sourceforge.net/DTD/sodipodi-0.dtd"
   xmlns="http://www.w3.org/2000/svg"
   xmlns:svg="http://www.w3.org/2000/svg">
  <sodipodi:namedview
     id="namedview2823"
     pagecolor="#ffffff"
     bordercolor="#111111"
     borderopacity="1"
     inkscape:showpageshadow="0"
     inkscape:pageopacity="0"
     inkscape:pagecheckerboard="1"
     inkscape:deskcolor="#d1d1d1"
     showgrid="false"
     inkscape:zoom="2.4988635"
     inkscape:cx="39.017737"
     inkscape:cy="47.221466"
     inkscape:window-width="1309"
     inkscape:window-height="456"
     inkscape:window-x="241"
     inkscape:window-y="1324"
     inkscape:window-maximized="0"
     inkscape:current-layer="svg11" />
  <defs
     id="defs15" />
  <g
     id="g176"
     transform="matrix(10.588357,0,0,10.588357,84.479402,-6.8558154e-7)">
    <g
       id="path9">
      <path
         id="path182"
         style="color:#000000;fill:#000000;stroke-miterlimit:10;-inkscape-stroke:none"
         d="M 39.242187,0 C 22.81397,0 9.4101563,13.403816 9.4101563,29.832031 v 7.371094 C 7.0250792,37.434601 4.7495823,38.342215 3.0410156,40.050781 1.0975176,41.994279 0.00309567,44.632397 0,47.380859 v 36.69336 c 0.00309585,2.74837 1.0974498,5.386884 3.0410156,7.330078 1.9436794,1.943308 4.5816627,3.036709 7.3300784,3.039062 h 57.763672 0.0039 c 2.744549,-0.0084 5.375826,-1.104285 7.314453,-3.046875 1.938744,-1.942583 3.030107,-4.577896 3.033203,-7.322265 v -36.69336 c -0.0031,-2.748462 -1.097518,-5.38658 -3.041016,-7.330078 -1.708915,-1.708915 -3.985472,-2.616468 -6.371093,-2.847656 V 29.832031 C 69.074219,13.395267 55.669606,0 39.242187,0 Z m -0.0078,5.9160156 c 13.202236,0 23.917969,10.7104954 23.917969,23.9160154 v 7.179688 h -3.021485 v -5.283203 c 0,-5.519078 -2.193175,-10.81427 -6.095703,-14.716797 -3.902617,-3.902617 -9.197746,-6.095703 -14.716797,-6.095703 -5.51905,0 -10.814253,2.193049 -14.716797,6.095703 -3.902653,3.902543 -6.095703,9.197746 -6.095703,14.716797 v 5.283203 h -3.191406 v -7.179688 c 0,-13.205529 10.717686,-23.9160154 23.919922,-23.9160154 z m 0.08398,10.9218754 c 3.950242,0 7.736014,1.568044 10.529297,4.361328 2.793157,2.793157 4.361328,6.579167 4.361328,10.529297 v 5.283203 h -29.78125 v -5.283203 c 0,-3.95013 1.568171,-7.73614 4.361328,-10.529297 2.793155,-2.793243 6.579168,-4.361328 10.529297,-4.361328 z M 10.353516,42.933594 h 57.759765 c 1.180212,0.0018 2.309866,0.470022 3.144531,1.304687 0.834666,0.834666 1.304745,1.964037 1.306641,3.144531 v 36.6875 c -0.0014,1.181072 -0.471554,2.311398 -1.306641,3.146485 -0.834665,0.834665 -1.964319,1.304814 -3.144531,1.30664 h -57.757812 -0.002 C 9.1733037,88.521611 8.0436888,88.051501 7.2089844,87.216797 6.373835,86.381717 5.9056783,85.251384 5.9042969,84.070312 v -36.6875 c 0.0019,-1.180494 0.4699596,-2.309872 1.3046875,-3.144531 0.8347042,-0.834704 1.9643196,-1.30286 3.1445316,-1.304687 z M 68.1141,39.01103 H 67.075 v -9.179 C 67.075,14.47993 54.5859,2 39.243,2 23.9001,2 11.411,14.48913 11.411,29.83203 v 9.179 h -1.0391 c -2.2196,0.0025 -4.3476,0.8853 -5.9171,2.4548 -1.5695,1.5695 -2.4523,3.6975 -2.4548,5.9171 v 36.69 c 0.0025,2.2194 0.8854,4.3472 2.4549,5.9164 1.5696,1.5693 3.6976,2.4517 5.917,2.4536 h 57.7607 c 2.2163,-0.0068 4.3395,-0.8914 5.905,-2.4601 1.5656,-1.5687 2.4459,-3.6937 2.4484,-5.9099 v -36.69 c -0.0025,-2.2196 -0.8853,-4.3476 -2.4548,-5.9171 -1.5695,-1.5695 -3.6975,-2.4523 -5.9171,-2.4548 z m -54.7994,-9.179 c 0,-14.2908 11.6319,-25.91533 25.919,-25.91533 14.2871,0 25.9191,11.62453 25.9191,25.91533 v 9.179 h -7.0211 v -7.2827 c 0,-4.9894 -1.9821,-9.7745 -5.5101,-13.3025 -3.5281,-3.5281 -8.3131,-5.5101 -13.3025,-5.5101 -4.9894,0 -9.7745,1.982 -13.3025,5.5101 -3.5281,3.528 -5.5101,8.3131 -5.5101,13.3025 v 7.2827 h -7.1918 z m 9.1122,9.179 v -7.2827 c 0,-4.4798 1.7796,-8.7762 4.9473,-11.9439 3.1677,-3.1678 7.4641,-4.9474 11.9439,-4.9474 4.4799,0 8.7762,1.7796 11.944,4.9474 3.1677,3.1677 4.9473,7.4641 4.9473,11.9439 v 7.2827 z m 52.1368,45.0619 c -0.002,1.7099 -0.6821,3.3493 -1.8912,4.5584 -1.2091,1.2091 -2.8485,1.8893 -4.5584,1.8912 H 10.3533 C 8.6434,90.52063 7.0041,89.84043 5.795,88.63133 4.5858,87.42223 3.9057,85.78283 3.9037,84.07293 v -36.69 c 0.002,-1.71 0.6821,-3.3493 1.8913,-4.5584 1.2091,-1.2091 2.8484,-1.8893 4.5583,-1.8912 h 57.7608 c 1.7099,0.0019 3.3493,0.6821 4.5584,1.8912 1.2091,1.2091 1.8892,2.8484 1.8912,4.5584 z" />
    </g>
  </g>
</svg>
