<svg viewBox="0 0 832 1000" xmlns="http://www.w3.org/2000/svg">
<path d="M415.99 0C242.042 0 100.118 141.924 100.118 315.872V393.92C74.8635 396.371 50.7698 405.981 32.6789 424.072C12.1004 444.65 0.51227 472.584 0.479492 501.685V890.208C0.512272 919.309 12.0997 947.246 32.6789 967.821C53.2592 988.398 81.1911 999.975 110.292 1000H721.915H721.956C751.016 999.911 778.877 988.307 799.404 967.739C819.932 947.17 831.488 919.266 831.521 890.208V501.685C831.488 472.584 819.9 444.65 799.321 424.072C781.227 405.977 757.122 396.368 731.862 393.92V315.872C731.862 141.834 589.929 0 415.99 0ZM415.907 62.6409C555.697 62.6409 669.159 176.047 669.159 315.872V391.893H637.167V335.953C637.167 277.515 613.944 221.448 572.623 180.126C531.301 138.804 475.234 115.583 416.796 115.583C358.359 115.583 302.291 138.803 260.97 180.126C219.647 221.448 196.426 277.515 196.426 335.953V391.893H162.635V315.872C162.635 176.047 276.117 62.6409 415.907 62.6409V62.6409ZM416.796 178.286C458.623 178.286 498.708 194.889 528.284 224.465C557.859 254.04 574.464 294.127 574.464 335.953V391.893H259.129V335.953C259.129 294.127 275.733 254.04 305.308 224.465C334.883 194.889 374.971 178.286 416.796 178.286ZM110.106 454.596H721.687C734.184 454.615 746.145 459.573 754.983 468.411C763.82 477.248 768.798 489.207 768.818 501.706V890.166C768.803 902.672 763.825 914.64 754.983 923.483C746.145 932.32 734.184 937.298 721.687 937.318H110.127H110.106C97.6097 937.298 85.6489 932.321 76.8108 923.483C67.9679 914.64 63.0109 902.672 62.9963 890.166V501.706C63.0164 489.207 67.9724 477.248 76.8108 468.411C85.6489 459.573 97.6097 454.616 110.106 454.596ZM721.696 413.063H710.694V315.872C710.694 153.319 578.454 21.1767 415.998 21.1767C253.542 21.1767 121.303 153.416 121.303 315.872V413.063H110.301C86.799 413.089 64.2669 422.437 47.6485 439.055C31.0301 455.673 21.6827 478.205 21.6562 501.707V890.194C21.6827 913.694 31.0311 936.224 47.6496 952.839C64.269 969.455 86.8011 978.799 110.301 978.819H721.892C745.359 978.747 767.84 969.38 784.416 952.77C800.993 936.16 810.314 913.66 810.341 890.194V501.707C810.314 478.205 800.967 455.673 784.348 439.055C767.73 422.437 745.198 413.089 721.696 413.063V413.063ZM141.46 315.872C141.46 164.556 264.623 41.4714 415.9 41.4714C567.177 41.4714 690.341 164.556 690.341 315.872V413.063H615.999V335.951C615.999 283.121 595.012 232.455 557.656 195.099C520.299 157.742 469.634 136.756 416.804 136.756C363.975 136.756 313.308 157.742 275.953 195.099C238.596 232.455 217.61 283.121 217.61 335.951V413.063H141.46V315.872ZM237.944 413.063V335.951C237.944 288.517 256.787 243.025 290.327 209.485C323.868 175.943 369.36 157.1 416.794 157.1C464.228 157.1 509.719 175.943 543.261 209.485C576.802 243.025 595.645 288.517 595.645 335.951V413.063H237.944ZM789.987 890.194C789.965 908.299 782.764 925.658 769.962 938.46C757.159 951.263 739.801 958.465 721.696 958.485H110.104C91.9989 958.465 74.6414 951.263 61.839 938.46C49.0356 925.658 41.8344 908.299 41.8133 890.194V501.707C41.8344 483.601 49.0356 466.244 61.839 453.441C74.6414 440.639 91.9989 433.437 110.104 433.417H721.696C739.801 433.437 757.159 440.639 769.962 453.441C782.764 466.244 789.965 483.601 789.987 501.707V890.194Z" fill="black"/>
</svg>
