<?xml version="1.0" encoding="UTF-8" standalone="no"?>
<svg
   width="1000"
   height="1000"
   viewBox="0 0 1000 1000"
   fill="none"
   version="1.1"
   id="svg33"
   sodipodi:docname="clickAndCollect.svg"
   inkscape:version="1.2.1 (9c6d41e, 2022-07-14)"
   xmlns:inkscape="http://www.inkscape.org/namespaces/inkscape"
   xmlns:sodipodi="http://sodipodi.sourceforge.net/DTD/sodipodi-0.dtd"
   xmlns="http://www.w3.org/2000/svg"
   xmlns:svg="http://www.w3.org/2000/svg">
  <sodipodi:namedview
     id="namedview2952"
     pagecolor="#ffffff"
     bordercolor="#111111"
     borderopacity="1"
     inkscape:showpageshadow="0"
     inkscape:pageopacity="0"
     inkscape:pagecheckerboard="1"
     inkscape:deskcolor="#d1d1d1"
     showgrid="false"
     inkscape:zoom="2.5825212"
     inkscape:cx="46.65983"
     inkscape:cy="45.691784"
     inkscape:window-width="1309"
     inkscape:window-height="456"
     inkscape:window-x="317"
     inkscape:window-y="1277"
     inkscape:window-maximized="0"
     inkscape:current-layer="svg33" />
  <defs
     id="defs37" />
  <g
     id="g155"
     transform="matrix(9.6106113,0,0,9.6106113,50.000002,60.877746)">
    <path
       id="path31"
       style="color:#000000;fill:#000000;stroke-miterlimit:10;-inkscape-stroke:none"
       d="m 76.177734,50.289062 c -0.310487,-1.9e-5 -0.618316,0.06053 -0.90625,0.179688 -0.288826,0.119137 -0.549481,0.293894 -0.769531,0.513672 l 0.0039,0.0059 -3.326172,3.316406 -0.01367,0.01563 c -0.423892,0.44841 -0.657144,1.045914 -0.648438,1.66211 0.0087,0.616423 0.257512,1.20673 0.693359,1.642578 0.435848,0.435848 1.026156,0.684651 1.642579,0.693359 0.61663,0.0087 1.214327,-0.223715 1.662109,-0.646484 l 0.01563,-0.01563 3.320312,-3.318359 c 0.219398,-0.219127 0.394295,-0.480701 0.513672,-0.767579 0.119465,-0.287367 0.181387,-0.596834 0.181641,-0.908203 v -0.002 c 1.8e-5,-0.309843 -0.06139,-0.61751 -0.179688,-0.904297 v -0.002 c -0.11877,-0.287099 -0.29323,-0.548316 -0.511718,-0.767578 -0.22054,-0.221086 -0.482251,-0.396356 -0.769532,-0.515625 -0.287366,-0.119464 -0.594883,-0.181386 -0.90625,-0.181641 z m -0.608554,1.758738 -3.3139,3.3027 c -0.1556,0.1646 -0.2408,0.3835 -0.2376,0.61 0.0032,0.2265 0.0946,0.4428 0.2548,0.603 0.1602,0.1602 0.3765,0.2516 0.603,0.2548 0.2265,0.0032 0.4453,-0.0821 0.61,-0.2376 l 3.3064,-3.3046 c 0.0809,-0.0808 0.1451,-0.1767 0.1889,-0.2823 0.0439,-0.1056 0.0665,-0.2188 0.0665,-0.3331 1e-4,-0.1143 -0.0223,-0.2275 -0.066,-0.3332 -0.0436,-0.1056 -0.1077,-0.2016 -0.1885,-0.2825 -0.0807,-0.0809 -0.1767,-0.1451 -0.2822,-0.1889 -0.1056,-0.0439 -0.2188,-0.0665 -0.3331,-0.0665 -0.1143,-1e-4 -0.2276,0.0223 -0.3332,0.066 -0.1057,0.0436 -0.2017,0.1077 -0.2826,0.1885 m -6.339024,-4.299959 c -0.311501,-0.01529 -0.621362,0.03199 -0.914062,0.136718 -0.292822,0.104774 -0.563986,0.267166 -0.794922,0.476563 -0.229816,0.208634 -0.417668,0.460413 -0.550781,0.742187 -0.133103,0.281448 -0.209378,0.585859 -0.22461,0.896485 l 1.738281,0.08594 1.257813,0.06055 c -1.63e-4,0.0033 -0.0017,0.0064 -0.002,0.0098 l -1.253906,-0.0625 c 9.7e-5,-0.0027 -0.0021,-0.0051 -0.002,-0.0078 v 0.0078 l -1.738281,-0.08789 -0.232422,4.669922 0.002,-0.002 c -0.0155,0.310488 0.02999,0.622423 0.134766,0.916015 0.104868,0.293819 0.265518,0.563657 0.472656,0.792969 h 0.002 c 0.20928,0.231382 0.459992,0.419674 0.740235,0.552735 h 0.002 c 0.28165,0.1336 0.585867,0.209105 0.896484,0.224609 l 0.03711,0.002 H 68.875 c 0.606513,-5.44e-4 1.190947,-0.233937 1.630859,-0.652344 0.440061,-0.418275 0.703363,-0.989866 0.734375,-1.595703 v -0.002 l 0.234375,-4.679687 c 0.01523,-0.310472 -0.03181,-0.620865 -0.136718,-0.914063 C 71.233117,49.021632 71.070725,48.750468 70.861328,48.519531 70.652621,48.289356 70.4005,48.101811 70.119141,47.96875 69.83864,47.836238 69.534154,47.759415 69.222656,47.744141 Z m -0.985676,2.333159 -0.232,4.6683 c -0.0057,0.1142 0.0111,0.2284 0.0495,0.336 0.0383,0.1077 0.0976,0.2067 0.1742,0.2915 0.0767,0.0848 0.1694,0.1536 0.2726,0.2026 0.1033,0.049 0.2152,0.0771 0.3294,0.0828 h 0.0427 c 0.2229,-2e-4 0.4373,-0.0859 0.5989,-0.2396 0.1616,-0.1536 0.258,-0.3634 0.2694,-0.5861 l 0.2338,-4.6776 c 0.0056,-0.1142 -0.0113,-0.2283 -0.0498,-0.3359 -0.0385,-0.1076 -0.0978,-0.2066 -0.1746,-0.2913 -0.0768,-0.0847 -0.1694,-0.1534 -0.2728,-0.2023 -0.1033,-0.0488 -0.2152,-0.0769 -0.3294,-0.0825 -0.1141,-0.0056 -0.2283,0.0114 -0.3359,0.0499 -0.1076,0.0385 -0.2066,0.0978 -0.2913,0.1746 -0.0846,0.0767 -0.1534,0.1694 -0.2022,0.2727 -0.0489,0.1034 -0.0769,0.2153 -0.0825,0.3295 m -4.553386,9.016037 -4.638672,0.464844 c -5.98e-4,5.6e-5 -0.0014,-5.6e-5 -0.002,0 -0.606958,0.05671 -1.170715,0.346152 -1.570313,0.806641 -0.399842,0.46077 -0.608064,1.059984 -0.578125,1.669922 v 0.002 c 0.03019,0.609339 0.29646,1.183714 0.740235,1.603515 0.443379,0.419032 1.033044,0.651971 1.642578,0.648438 h 0.152343 l 4.691407,-0.46875 c 6.32e-4,-4.8e-5 0.0013,4.9e-5 0.002,0 0.314857,-0.0242 0.620209,-0.111968 0.90039,-0.255859 0.281493,-0.144698 0.531698,-0.343813 0.734375,-0.585938 0.203171,-0.242441 0.356236,-0.523498 0.449219,-0.826172 0.09282,-0.301874 0.123364,-0.619287 0.0918,-0.933594 v -0.002 c -0.0318,-0.313864 -0.126471,-0.617519 -0.277347,-0.894531 v -0.002 c -0.15123,-0.277165 -0.356267,-0.519707 -0.603515,-0.716797 v -0.002 c -0.246603,-0.196359 -0.531103,-0.342042 -0.835938,-0.427734 -0.291989,-0.08208 -0.596222,-0.100839 -0.896484,-0.06836 z m 0.15625,1.5625 0.02148,0.175782 h -0.0039 z m 0.02344,0.179688 0.154297,1.246094 c -0.01167,0.0015 -0.02342,-0.0028 -0.03516,-0.002 l -0.125,-1.242188 c 0.0021,-2.77e-4 0.0038,-0.0017 0.0059,-0.002 z m -0.0308,-0.248825 -4.6498,0.4657 c -0.2234,0.0207 -0.4301,0.1268 -0.5771,0.2962 -0.147,0.1694 -0.223,0.389 -0.212,0.6131 0.0111,0.224 0.1082,0.4352 0.2711,0.5893 0.1629,0.1542 0.3791,0.2395 0.6034,0.2382 h 0.0872 l 4.6516,-0.4658 c 0.1157,-0.0088 0.2285,-0.0407 0.3317,-0.0937 0.1033,-0.0531 0.1948,-0.1263 0.2693,-0.2153 0.0745,-0.0889 0.1305,-0.1919 0.1646,-0.3029 0.0341,-0.1109 0.0457,-0.2275 0.0341,-0.343 -0.0117,-0.1155 -0.0463,-0.2274 -0.1018,-0.3293 -0.0556,-0.1019 -0.131,-0.1917 -0.2217,-0.264 -0.0908,-0.0723 -0.1951,-0.1258 -0.3068,-0.1572 -0.1117,-0.0314 -0.2286,-0.0401 -0.3438,-0.0257 m -2.949668,-8.434509 c -0.313072,-0.04453 -0.63257,-0.02633 -0.939453,0.05469 -0.306675,0.08089 -0.593083,0.222505 -0.84375,0.416016 h -0.002 c -0.250987,0.194031 -0.459736,0.436753 -0.615234,0.71289 -0.155256,0.275981 -0.253372,0.581261 -0.289063,0.896485 -0.03568,0.314874 -0.0081,0.632653 0.08203,0.9375 0.0897,0.303619 0.23984,0.586552 0.441406,0.832031 0.200976,0.244762 0.449602,0.448323 0.730469,0.595703 l -0.04102,-0.02148 4.068359,2.292968 c 5.42e-4,3.08e-4 0.0014,-3.06e-4 0.002,0 l 0.002,0.002 c 0.270048,0.152417 0.568644,0.251304 0.876953,0.289062 0.309909,0.03793 0.623482,0.0145 0.921875,-0.06836 v -0.002 h 0.002 c 0.300702,-0.08385 0.581401,-0.22596 0.826172,-0.417969 0.245801,-0.192817 0.449077,-0.431647 0.601562,-0.703125 0.30678,-0.546383 0.385228,-1.195034 0.216797,-1.798828 -0.168486,-0.603992 -0.569598,-1.117177 -1.115234,-1.425782 h -0.002 l -4.072266,-2.296875 0.03516,0.02148 c -0.271181,-0.163196 -0.5706,-0.271408 -0.884769,-0.316406 z M 65.39998,57.2321 c 0.1128,-0.2009 0.1414,-0.4383 0.0795,-0.6602 -0.0619,-0.2219 -0.2093,-0.4102 -0.4098,-0.5236 l -4.0728,-2.2971 c -0.0997,-0.06 -0.2105,-0.0995 -0.3257,-0.116 -0.1153,-0.0164 -0.2327,-0.0096 -0.3452,0.0201 -0.1126,0.0297 -0.2181,0.0817 -0.3102,0.1528 -0.0921,0.0712 -0.169,0.1602 -0.2261,0.2616 -0.0571,0.1015 -0.0933,0.2134 -0.1064,0.3291 -0.0131,0.1156 -0.0029,0.2328 0.0301,0.3444 0.033,0.1117 0.088,0.2156 0.1619,0.3056 0.0739,0.09 0.165,0.1642 0.2681,0.2183 l 4.0709,2.2953 c 0.0995,0.0564 0.2091,0.0926 0.3226,0.1065 0.1136,0.014 0.2287,0.0053 0.3389,-0.0253 0.1101,-0.0307 0.2131,-0.0829 0.3031,-0.1535 0.09,-0.0706 0.1651,-0.1583 0.2211,-0.258 z m 3.260176,-2.032881 c -0.663256,0.02597 -1.305495,0.242525 -1.849609,0.623047 -0.544446,0.381098 -0.968995,0.912479 -1.220703,1.527343 -0.251594,0.614928 -0.320241,1.288086 -0.199219,1.941407 l 3.986328,21.523437 c 0.105458,0.570595 0.352933,1.106642 0.71875,1.556641 0.36593,0.449997 0.83986,0.799913 1.376953,1.019531 0.537007,0.21978 1.118905,0.300858 1.695313,0.236328 0.576556,-0.06453 1.12852,-0.272691 1.603515,-0.605469 l 3.871094,-2.708984 6.708984,9.59375 v 0.002 c 0.527139,0.751791 1.332057,1.262546 2.236329,1.421875 0.904249,0.159301 1.83749,-0.04597 2.589843,-0.572266 L 91.6875,89.697266 c 0.751418,-0.527117 1.263997,-1.330582 1.423828,-2.234375 v -0.002 c 0.06009,-0.340078 0.01941,-0.678715 -0.02148,-1.015625 h 0.55664 l -1.101562,-1.572265 -6.712891,-9.585938 3.820313,-2.675781 c 0.475579,-0.33261 0.85935,-0.779077 1.117187,-1.298828 0.257959,-0.519853 0.380335,-1.095921 0.357422,-1.675781 -0.02278,-0.579837 -0.190169,-1.144647 -0.488281,-1.642578 -0.297937,-0.49778 -0.716512,-0.912878 -1.216797,-1.207032 L 70.554687,55.675781 C 69.982222,55.338458 69.324152,55.17321 68.660156,55.199219 Z m 0.509766,4.011718 17.980469,10.582032 -6.533204,4.574218 8.701172,12.425782 -1.052734,0.738281 -8.703125,-12.419922 -6.59375,4.611328 z m 20.36914,27.421875 0.002,0.0039 -0.0078,0.0059 c 0.0031,-0.0024 0.0027,-0.0075 0.0059,-0.0098 z m 2.187318,-1.186612 -7.2864,-10.4055 4.6386,-3.2489 c 0.3383,-0.2366 0.6117,-0.5544 0.7951,-0.9241 0.1835,-0.3698 0.2711,-0.7797 0.2548,-1.1922 -0.0162,-0.4124 -0.1358,-0.8142 -0.3478,-1.1683 -0.212,-0.3542 -0.5095,-0.6495 -0.8653,-0.8587 L 70.04708,56.538 c -0.4073,-0.24 -0.875,-0.3578 -1.3473,-0.3393 -0.4724,0.0185 -0.9295,0.1724 -1.3167,0.4435 -0.3873,0.2711 -0.6884,0.6479 -0.8675,1.0854 -0.179,0.4375 -0.2284,0.9172 -0.1423,1.382 l 3.9874,21.5235 c 0.075,0.4058 0.2508,0.7862 0.5111,1.1064 0.2603,0.3201 0.5969,0.5698 0.9789,0.726 0.3819,0.1563 0.797,0.2141 1.207,0.1682 0.4101,-0.0459 0.8021,-0.1941 1.1401,-0.4309 l 4.6906,-3.2842 7.2827,10.4148 c 0.3752,0.5351 0.9475,0.8994 1.5911,1.0128 0.6437,0.1134 1.306,-0.0333 1.8415,-0.4079 l 1.5104,-1.0595 c 0.535,-0.3753 0.8993,-0.9474 1.0131,-1.5909 0.1137,-0.6435 -0.0324,-1.3058 -0.4064,-1.8417 z m -1.6031,2.0039 -1.5122,1.0594 c -0.1586,0.1089 -0.3539,0.1504 -0.543,0.1156 -0.1892,-0.0347 -0.3569,-0.143 -0.4664,-0.3011 l -8.2847,-11.8212 -6.123,4.2824 c -0.0995,0.0698 -0.2149,0.1135 -0.3357,0.127 -0.1208,0.0136 -0.243,-0.0034 -0.3555,-0.0494 -0.1125,-0.046 -0.2116,-0.1195 -0.2883,-0.2138 -0.0766,-0.0943 -0.1284,-0.2063 -0.1505,-0.3258 l -3.9874,-21.5234 c -0.0257,-0.1369 -0.0114,-0.2783 0.0413,-0.4073 0.0527,-0.1289 0.1414,-0.24 0.2556,-0.3197 0.1143,-0.0797 0.2491,-0.1248 0.3883,-0.1298 0.1392,-0.005 0.2769,0.0303 0.3965,0.1016 l 18.8683,11.1031 c 0.1045,0.0618 0.1918,0.1488 0.2539,0.2531 0.0622,0.1043 0.0971,0.2225 0.1017,0.3438 0.0047,0.1213 -0.0212,0.2418 -0.0753,0.3505 -0.054,0.1087 -0.1344,0.2021 -0.2339,0.2717 l -6.0637,4.2453 8.2847,11.8323 c 0.1088,0.1586 0.1503,0.3538 0.1156,0.543 -0.0348,0.1892 -0.1431,0.3568 -0.3012,0.4664 M 45.673828,0 C 43.564834,0 41.538966,0.83000063 40.035156,2.3085938 38.531416,3.7872516 37.668329,5.7975812 37.632812,7.90625 V 7.9199219 32.998047 H 8.0917969 c -2.1457063,0 -4.2034905,0.853918 -5.7207031,2.371094 C 0.85383037,36.886367 0,38.946144 0,41.091797 c 0,2.145652 0.85383037,4.20543 2.3710938,5.722656 1.5172126,1.517176 3.5749968,2.369141 5.7207031,2.369141 H 7.6152344 l 3.8281246,20.787109 c 0.467758,2.545485 1.813958,4.845719 3.802735,6.501953 1.988834,1.656302 4.495883,2.564916 7.083984,2.564453 h 43.017578 c 0.628186,0 1.233555,-0.251133 1.677735,-0.695312 0.443962,-0.443963 0.693359,-1.047668 0.693359,-1.675781 0,-0.628113 -0.249397,-1.231819 -0.693359,-1.675782 -0.44418,-0.444179 -1.049549,-0.693359 -1.677735,-0.693359 H 22.330078 c -1.480053,2.43e-4 -2.91328,-0.517842 -4.050781,-1.464844 -0.8769,-0.730043 -1.447897,-1.716074 -1.826172,-2.779297 h 21.068359 l -0.07031,-0.002 c 0.321046,0.01503 0.641849,-0.03644 0.941406,-0.148437 h 0.002 c 0.299154,-0.112115 0.572534,-0.284072 0.804688,-0.50586 0.231046,-0.220758 0.416931,-0.48663 0.542968,-0.78125 v -0.002 c 0.125426,-0.293773 0.189454,-0.609575 0.189454,-0.929687 0,-0.320831 -0.0651,-0.63869 -0.191407,-0.933594 -0.126239,-0.294703 -0.309692,-0.560528 -0.541015,-0.78125 -0.232154,-0.221787 -0.505534,-0.393745 -0.804688,-0.505859 h -0.002 C 38.093023,65.350802 37.77222,65.299331 37.451174,65.314359 H 15.40625 l -1.333984,-7.242187 h 15.046875 l -0.06836,-0.002 c 0.320222,0.01472 0.637943,-0.03644 0.9375,-0.148437 0.30075,-0.11244 0.575199,-0.285025 0.806641,-0.505859 h 0.002 c 0.231797,-0.221447 0.415147,-0.487376 0.541016,-0.78125 0.126054,-0.294581 0.191406,-0.61081 0.191406,-0.931641 0,-0.320758 -0.06548,-0.63932 -0.191406,-0.933594 -0.126006,-0.294467 -0.309663,-0.560228 -0.541016,-0.78125 -0.231751,-0.221402 -0.507245,-0.393685 -0.806641,-0.505859 h -0.002 c -0.300394,-0.112297 -0.618774,-0.163085 -0.9375,-0.148438 l 0.06836,-0.002 H 13.201172 l -0.765625,-4.148437 h 21.77539 l 5.88086,7.208984 c 0.675743,0.827283 1.527012,1.493339 2.492187,1.951172 0.965106,0.45774 2.019699,0.695312 3.087891,0.695312 1.068266,0 2.122824,-0.23753 3.087891,-0.695312 0.96535,-0.457856 1.816502,-1.12396 2.492187,-1.951172 h 0.002 l 5.88086,-7.208984 h 2.83789 c 0.628113,0 1.231819,-0.249397 1.675781,-0.69336 0.443963,-0.443962 0.695313,-1.047668 0.695313,-1.675781 0,-0.628113 -0.251133,-1.233555 -0.695313,-1.677734 -0.240095,-0.240095 -0.594074,-0.257149 -0.90625,-0.375 l 5.730469,-7.023438 h 16.794922 0.01367 c 0.445938,-0.0087 0.88828,0.07173 1.302734,0.236328 0.414724,0.164742 0.79297,0.410447 1.111328,0.722657 0.318499,0.312347 0.571492,0.684564 0.744141,1.095703 0.172694,0.411245 0.261719,0.85284 0.261719,1.298828 0,0.445988 -0.08909,0.887814 -0.261719,1.298828 -0.172649,0.411138 -0.425642,0.783356 -0.744141,1.095703 -0.318437,0.312287 -0.696891,0.558098 -1.111328,0.722656 -0.414454,0.164594 -0.856796,0.245036 -1.302734,0.236328 h -0.01367 -4.046875 c -0.628113,0 -1.231819,0.249397 -1.675781,0.69336 -0.443963,0.443962 -0.695313,1.047668 -0.695313,1.675781 0,0.628113 0.251134,1.233555 0.695313,1.677734 0.365704,0.36548 0.873999,0.499137 1.380859,0.570313 l -0.783203,4.257812 c -0.05708,0.306716 -0.05274,0.621693 0.01172,0.925782 v 0.002 c 0.06488,0.304761 0.189154,0.59364 0.365234,0.849609 0.176963,0.256979 0.402998,0.475479 0.664063,0.644531 l 0.002,0.002 c 0.259728,0.167741 0.550007,0.281442 0.853515,0.33789 0.145481,0.02782 0.292289,0.04177 0.4375,0.04102 0.55249,-0.0015 1.087429,-0.195207 1.511719,-0.548828 0.424259,-0.353368 0.713289,-0.845049 0.814453,-1.388672 v -0.002 l 0.919922,-4.998047 h -0.476562 c 2.145618,0 4.205409,-0.853724 5.722656,-2.371094 1.517185,-1.517185 2.371094,-3.57495 2.371094,-5.720703 0,-2.145675 -0.853909,-4.205471 -2.371094,-5.722656 C 87.451503,33.853724 85.391712,33 83.246094,33 H 53.714844 V 7.9199219 7.90625 C 53.679328,5.7976395 52.816397,3.7872849 51.3125,2.3085938 49.808761,0.82995024 47.782823,0 45.673828,0 Z m -0.002,4.5351562 c 0.439163,0 0.874474,0.08779 1.279297,0.2578125 0.404897,0.1700321 0.770808,0.4189588 1.078125,0.7324219 0.307398,0.3134696 0.548798,0.6854925 0.710937,1.09375 0.162028,0.4081509 0.24102,0.8441042 0.232422,1.2832031 V 7.9179687 32.998047 H 42.371094 V 7.9179687 7.9023437 c -0.0086,-0.4390989 0.07039,-0.8750522 0.232422,-1.2832031 0.161955,-0.4079669 0.403482,-0.7801527 0.710937,-1.09375 0.307113,-0.313185 0.67389,-0.562404 1.078125,-0.7324219 0.405001,-0.1700685 0.840265,-0.2578125 1.279297,-0.2578125 z M 8.0917969,37.738281 H 24.871094 l 5.472656,6.707031 H 8.0917969 C 7.6509162,44.445658 7.214276,44.359843 6.8066406,44.191406 6.3990818,44.022932 6.0288352,43.774438 5.7167969,43.462891 5.4046604,43.151183 5.1573303,42.782261 4.9882812,42.375 4.8197623,41.969086 4.7313125,41.533385 4.7304687,41.09375 c 1e-6,-6.51e-4 -1.3e-6,-0.0013 0,-0.002 -8e-7,-6.44e-4 5e-7,-0.0013 0,-0.002 0.00238,-0.889536 0.3567424,-1.740805 0.9863282,-2.369141 0.6305849,-0.629395 1.4841532,-0.982768 2.375,-0.982422 z m 22.8964841,0 h 9.013672 20.355469 L 47.580078,53.396484 v 0.002 c -0.230692,0.283193 -0.521761,0.511267 -0.851562,0.667969 -0.329967,0.156781 -0.691568,0.236328 -1.056641,0.236328 -0.365073,0 -0.724655,-0.07952 -1.054688,-0.236328 -0.329801,-0.156702 -0.62087,-0.384776 -0.851562,-0.667969 v -0.002 z M 65.34858,75.796 h -43.0191 c -1.8305,3e-4 -3.6032,-0.6409 -5.01,-1.8121 -1.4068,-1.1712 -2.3587,-2.7983 -2.6902,-4.5986 l -0.154,-0.8331 h 23.0468 c 0.1175,0.0055 0.2349,-0.013 0.3451,-0.0542 0.1102,-0.0413 0.2109,-0.1044 0.296,-0.1857 0.0851,-0.0812 0.1529,-0.1789 0.1991,-0.2871 0.0463,-0.1082 0.0702,-0.2246 0.0702,-0.3423 0,-0.1176 -0.0239,-0.2341 -0.0702,-0.3422 -0.0462,-0.1082 -0.114,-0.2059 -0.1991,-0.2871 -0.0851,-0.0813 -0.1858,-0.1444 -0.296,-0.1857 -0.1102,-0.0412 -0.2276,-0.0597 -0.3451,-0.0542 h -23.3659 l -1.8852,-10.2422 h 16.8477 c 0.1175,0.0054 0.2349,-0.0131 0.3451,-0.0543 0.1102,-0.0412 0.2109,-0.1044 0.296,-0.1856 0.0851,-0.0813 0.1528,-0.179 0.1991,-0.2871 0.0463,-0.1082 0.0702,-0.2247 0.0702,-0.3423 0,-0.1177 -0.0239,-0.2341 -0.0702,-0.3423 -0.0463,-0.1082 -0.114,-0.2058 -0.1991,-0.2871 -0.0851,-0.0813 -0.1858,-0.1444 -0.296,-0.1856 -0.1102,-0.0413 -0.2276,-0.0597 -0.3451,-0.0543 h -17.1668 l -1.3174,-7.1491 h 24.2881 l 6.3308,7.7595 c 0.5351,0.6551 1.2092,1.1831 1.9734,1.5456 0.7643,0.3625 1.5996,0.5506 2.4454,0.5506 0.8459,0 1.6812,-0.1881 2.4454,-0.5506 0.7643,-0.3625 1.4383,-0.8905 1.9734,-1.5456 l 6.3309,-7.7595 h 3.5514 c 0.2308,0 0.4521,-0.0917 0.6153,-0.2549 0.1632,-0.1632 0.2549,-0.3845 0.2549,-0.6153 0,-0.2308 -0.0917,-0.4522 -0.2549,-0.6154 -0.1632,-0.1632 -0.3845,-0.2549 -0.6153,-0.2549 h -2.132 l 7.9192,-9.7041 h 17.4915 c 0.6453,-0.0126 1.2866,0.1036 1.8864,0.3418 0.5999,0.2383 1.1462,0.5937 1.607,1.0456 0.4608,0.4519 0.8269,0.9911 1.0768,1.5862 0.2499,0.5951 0.3786,1.234 0.3786,1.8794 0,0.6454 -0.1287,1.2844 -0.3786,1.8794 -0.2499,0.5951 -0.616,1.1343 -1.0768,1.5862 -0.4608,0.4519 -1.0071,0.8074 -1.607,1.0456 -0.5998,0.2382 -1.2411,0.3544 -1.8864,0.3418 h -4.032 c -0.2308,0 -0.4521,0.0917 -0.6153,0.2549 -0.1632,0.1632 -0.2549,0.3845 -0.2549,0.6153 0,0.2308 0.0917,0.4522 0.2549,0.6154 0.1632,0.1631 0.3845,0.2548 0.6153,0.2548 h 1.4844 l -1.0873,5.9097 c -0.0209,0.1123 -0.0194,0.2277 0.0043,0.3395 0.0238,0.1118 0.0694,0.2177 0.1342,0.3119 0.0649,0.0941 0.1476,0.1745 0.2435,0.2366 0.096,0.062 0.2032,0.1045 0.3157,0.1251 0.0519,0.0104 0.1047,0.0153 0.1577,0.0148 0.2033,-4e-4 0.4,-0.0719 0.5561,-0.202 0.1562,-0.1301 0.2621,-0.3106 0.2993,-0.5105 l 1.1466,-6.2251 h 0.7719 c 1.7484,0 3.4253,-0.6945 4.6616,-1.9309 1.2363,-1.2363 1.9309,-2.9131 1.9309,-4.6616 0,-1.7484 -0.6946,-3.4252 -1.9309,-4.6615 -1.2363,-1.2364 -2.9132,-1.9309 -4.6616,-1.9309 H 52.21548 V 7.93221 C 52.18658,6.21639 51.48478,4.58062 50.26108,3.37743 49.03748,2.17425 47.39018,1.5 45.67408,1.5 c -1.7161,0 -3.3634,0.67425 -4.5871,1.87743 -1.2236,1.20319 -1.9255,2.83896 -1.9544,4.55478 V 34.4988 H 8.09248 c -1.74844,0 -3.42526,0.6946 -4.66159,1.9309 C 2.19456,37.666 1.5,39.3429 1.5,41.0913 c 0,1.7484 0.69456,3.4252 1.93089,4.6616 1.23633,1.2363 2.91315,1.9309 4.66159,1.9309 h 0.77187 l 4.05423,22.0151 c 0.4044,2.2007 1.5675,4.1901 3.2869,5.622 1.7195,1.432 3.8864,2.2159 6.124,2.2155 h 43.0191 c 0.2307,0 0.4521,-0.0917 0.6153,-0.2549 0.1632,-0.1632 0.2549,-0.3845 0.2549,-0.6153 0,-0.2308 -0.0917,-0.4521 -0.2549,-0.6153 -0.1632,-0.1632 -0.3846,-0.2549 -0.6153,-0.2549 z M 40.87118,7.93221 c -0.0125,-0.63842 0.1024,-1.27293 0.338,-1.86641 0.2356,-0.59348 0.5873,-1.134 1.0343,-1.58993 0.4471,-0.45594 0.9806,-0.81813 1.5693,-1.06539 0.5888,-0.24725 1.2209,-0.37461 1.8594,-0.37461 0.6386,0 1.2707,0.12736 1.8594,0.37461 0.5888,0.24726 1.1223,0.60945 1.5693,1.06539 0.4471,0.45593 0.7987,0.99645 1.0344,1.58993 0.2356,0.59348 0.3505,1.22799 0.338,1.86641 V 34.4988 h -9.6021 z m -0.8702,28.30699 h 23.5144 l -14.7733,18.1057 c -0.3713,0.4558 -0.8394,0.8232 -1.3704,1.0755 -0.531,0.2523 -1.1116,0.3833 -1.6995,0.3833 -0.5879,0 -1.1684,-0.131 -1.6994,-0.3833 -0.531,-0.2523 -0.9991,-0.6197 -1.3704,-1.0755 L 27.82908,36.2392 Z M 3.23115,41.0913 c 0.00196,-1.2879 0.51507,-2.5223 1.42658,-3.432 0.91152,-0.9098 2.1469,-1.4205 3.43475,-1.4201 h 17.4915 l 7.9191,9.706 H 8.09248 C 7.45456,45.9457 6.8228,45.8205 6.23326,45.5769 5.64372,45.3332 5.10795,44.9758 4.65654,44.5251 4.20512,44.0743 3.8469,43.5391 3.60233,42.9499 3.35776,42.3608 3.23164,41.7292 3.23115,41.0913 Z" />
  </g>
</svg>
