<svg viewBox="0 0 900 880" xmlns="http://www.w3.org/2000/svg">
<path d="M732.115 484.186C729.131 484.186 726.172 484.768 723.405 485.913C720.629 487.058 718.124 488.738 716.009 490.85L716.047 490.907L684.08 522.779L683.949 522.93C679.875 527.239 677.633 532.981 677.717 538.903C677.801 544.828 680.192 550.501 684.381 554.69C688.569 558.878 694.243 561.27 700.167 561.353C706.093 561.437 711.837 559.203 716.141 555.14L716.291 554.99L748.201 523.098C750.31 520.992 751.99 518.479 753.138 515.722C754.286 512.96 754.881 509.986 754.883 506.993V506.974C754.884 503.996 754.293 501.039 753.157 498.283V498.264C752.015 495.505 750.338 492.994 748.239 490.887C746.119 488.762 743.604 487.078 740.843 485.931C738.081 484.783 735.126 484.188 732.133 484.186L732.115 484.186ZM726.266 501.089L694.417 532.83C692.922 534.412 692.103 536.515 692.134 538.692C692.165 540.869 693.043 542.948 694.583 544.487C696.122 546.027 698.201 546.905 700.378 546.936C702.555 546.967 704.658 546.147 706.24 544.653L738.017 512.894C738.794 512.117 739.411 511.195 739.832 510.18C740.254 509.166 740.471 508.078 740.471 506.979C740.472 505.881 740.257 504.793 739.837 503.777C739.418 502.762 738.802 501.839 738.026 501.062C737.25 500.284 736.327 499.667 735.313 499.246C734.299 498.825 733.211 498.607 732.112 498.607C731.014 498.606 729.925 498.822 728.91 499.242C727.894 499.661 726.971 500.277 726.194 501.053M665.272 459.728C662.278 459.581 659.3 460.035 656.487 461.042C653.673 462.049 651.067 463.61 648.848 465.622C646.639 467.627 644.834 470.047 643.554 472.755C642.275 475.46 641.542 478.385 641.396 481.371L658.102 482.197L670.19 482.779C670.188 482.81 670.174 482.84 670.171 482.873L658.12 482.272C658.121 482.246 658.1 482.223 658.101 482.197V482.272L641.395 481.427L639.161 526.308L639.18 526.289C639.031 529.273 639.468 532.271 640.475 535.092C641.483 537.916 643.027 540.51 645.018 542.713H645.037C647.048 544.937 649.458 546.747 652.151 548.025H652.17C654.877 549.309 657.801 550.035 660.786 550.184L661.143 550.203H661.931C667.76 550.198 673.377 547.955 677.604 543.934C681.834 539.914 684.364 534.421 684.662 528.598V528.579L686.915 483.604C687.061 480.621 686.609 477.637 685.601 474.82C684.594 472.006 683.033 469.399 681.021 467.18C679.015 464.968 676.592 463.165 673.888 461.887C671.192 460.613 668.266 459.875 665.272 459.728V459.728ZM655.799 482.151L653.569 527.016C653.515 528.114 653.676 529.211 654.045 530.246C654.413 531.281 654.983 532.232 655.719 533.047C656.456 533.862 657.347 534.523 658.339 534.994C659.332 535.465 660.407 535.735 661.505 535.79H661.915C664.057 535.788 666.118 534.964 667.671 533.487C669.224 532.011 670.151 529.995 670.26 527.854L672.507 482.9C672.561 481.802 672.399 480.706 672.029 479.672C671.659 478.638 671.089 477.686 670.351 476.872C669.612 476.058 668.722 475.398 667.729 474.928C666.736 474.459 665.661 474.189 664.563 474.135C663.466 474.081 662.369 474.244 661.335 474.614C660.301 474.984 659.349 475.554 658.535 476.293C657.722 477.03 657.061 477.921 656.592 478.913C656.122 479.907 655.853 480.982 655.799 482.08M612.038 568.73L567.458 573.197C567.452 573.198 567.444 573.197 567.439 573.197C561.605 573.742 556.187 576.524 552.347 580.949C548.504 585.378 546.503 591.136 546.791 596.998V597.018C547.081 602.874 549.64 608.394 553.905 612.428C558.166 616.455 563.833 618.694 569.691 618.66H571.155L616.242 614.155C616.249 614.155 616.255 614.156 616.262 614.155C619.288 613.923 622.222 613.079 624.915 611.696C627.62 610.306 630.025 608.392 631.973 606.065C633.925 603.735 635.396 601.034 636.29 598.125C637.182 595.224 637.476 592.173 637.172 589.153V589.133C636.867 586.117 635.957 583.199 634.507 580.536V580.517C633.053 577.853 631.083 575.523 628.707 573.628V573.609C626.337 571.722 623.602 570.322 620.673 569.498C617.867 568.709 614.943 568.529 612.057 568.841L612.038 568.73ZM613.54 583.746L613.746 585.436H613.709L613.54 583.746ZM613.765 585.473L615.248 597.449C615.136 597.463 615.023 597.422 614.91 597.43L613.709 585.491C613.729 585.489 613.745 585.475 613.766 585.472L613.765 585.473ZM613.469 583.082L568.782 587.557C566.635 587.756 564.648 588.776 563.235 590.404C561.823 592.032 561.092 594.143 561.198 596.296C561.305 598.449 562.238 600.479 563.803 601.96C565.369 603.442 567.447 604.262 569.603 604.249H570.441L615.145 599.773C616.257 599.688 617.341 599.381 618.333 598.872C619.326 598.362 620.205 597.658 620.921 596.803C621.637 595.948 622.175 594.959 622.503 593.892C622.831 592.826 622.942 591.705 622.831 590.595C622.718 589.485 622.386 588.41 621.852 587.431C621.318 586.451 620.594 585.588 619.722 584.893C618.849 584.199 617.847 583.684 616.773 583.383C615.7 583.081 614.576 582.997 613.469 583.136M585.121 502.075C582.112 501.647 579.042 501.822 576.092 502.6C573.145 503.378 570.392 504.739 567.983 506.599H567.964C565.552 508.463 563.546 510.796 562.051 513.45C560.559 516.102 559.616 519.036 559.273 522.066C558.93 525.092 559.195 528.146 560.062 531.076C560.924 533.994 562.367 536.713 564.304 539.072C566.235 541.424 568.625 543.381 571.324 544.797L570.93 544.591L610.029 566.627C610.035 566.63 610.043 566.624 610.049 566.627L610.068 566.647C612.663 568.111 615.533 569.062 618.496 569.425C621.474 569.789 624.488 569.564 627.356 568.768V568.748H627.375C630.265 567.943 632.962 566.577 635.315 564.732C637.677 562.878 639.631 560.583 641.096 557.974C644.045 552.723 644.798 546.489 643.18 540.686C641.561 534.881 637.706 529.949 632.462 526.984H632.442L593.306 504.909L593.643 505.116C591.037 503.547 588.16 502.507 585.14 502.075H585.121ZM628.534 550.913C629.618 548.982 629.893 546.701 629.298 544.568C628.703 542.436 627.286 540.626 625.359 539.536L586.217 517.46C585.259 516.883 584.194 516.503 583.087 516.345C581.979 516.187 580.851 516.252 579.77 516.538C578.687 516.823 577.673 517.323 576.788 518.006C575.903 518.691 575.164 519.546 574.615 520.521C574.067 521.496 573.719 522.571 573.593 523.683C573.467 524.794 573.565 525.921 573.882 526.993C574.199 528.067 574.728 529.065 575.438 529.93C576.148 530.795 577.024 531.508 578.015 532.028L617.138 554.088C618.095 554.63 619.148 554.977 620.239 555.111C621.331 555.246 622.437 555.162 623.496 554.868C624.554 554.573 625.544 554.071 626.409 553.393C627.274 552.714 627.996 551.871 628.534 550.913V550.913ZM659.866 531.376C653.492 531.625 647.319 533.707 642.09 537.364C636.858 541.026 632.778 546.133 630.358 552.042C627.94 557.952 627.281 564.422 628.444 570.701L666.755 777.554C667.768 783.038 670.147 788.189 673.663 792.514C677.179 796.839 681.734 800.202 686.896 802.313C692.057 804.425 697.649 805.204 703.189 804.584C708.73 803.964 714.035 801.963 718.6 798.765L755.803 772.73L820.281 864.932V864.951C825.347 872.176 833.083 877.085 841.773 878.616C850.464 880.147 859.433 878.174 866.663 873.116L881.173 862.923C888.394 857.857 893.321 850.136 894.857 841.45V841.43C895.434 838.162 895.043 834.907 894.65 831.67H900L889.413 816.559L824.898 724.432L861.614 698.716C866.184 695.52 869.873 691.229 872.351 686.234C874.83 681.238 876.006 675.701 875.786 670.129C875.567 664.556 873.958 659.128 871.093 654.342C868.23 649.559 864.207 645.569 859.399 642.742L678.074 535.956C672.572 532.714 666.247 531.126 659.866 531.376ZM664.765 569.931L837.568 671.631L774.78 715.592L858.404 835.011L848.287 842.106L764.644 722.743L701.274 767.061L664.765 569.931ZM860.525 833.472L860.544 833.509L860.469 833.566C860.499 833.543 860.495 833.494 860.526 833.472H860.525ZM881.547 822.068L811.52 722.065L856.1 690.841C859.351 688.567 861.978 685.513 863.741 681.96C865.505 678.406 866.346 674.466 866.19 670.502C866.034 666.538 864.885 662.677 862.847 659.274C860.81 655.87 857.951 653.032 854.531 651.021L673.195 544.242C669.281 541.936 664.786 540.804 660.247 540.982C655.707 541.159 651.314 542.638 647.593 545.244C643.87 547.849 640.977 551.471 639.255 555.675C637.535 559.88 637.06 564.49 637.888 568.957L676.209 775.811C676.93 779.711 678.619 783.367 681.121 786.444C683.623 789.521 686.858 791.92 690.529 793.422C694.199 794.924 698.189 795.479 702.129 795.038C706.07 794.597 709.838 793.173 713.086 790.897L758.166 759.334L828.157 859.426C831.763 864.569 837.263 868.07 843.448 869.16C849.634 870.25 856 868.84 861.146 865.24L875.662 855.057C880.804 851.45 884.305 845.952 885.399 839.768C886.491 833.583 885.087 827.218 881.493 822.068H881.547ZM866.14 841.327L851.607 851.508C850.082 852.555 848.205 852.953 846.388 852.619C844.57 852.286 842.958 851.245 841.906 849.725L762.285 736.116L703.439 777.273C702.483 777.944 701.374 778.364 700.213 778.493C699.052 778.624 697.877 778.461 696.796 778.019C695.715 777.577 694.762 776.87 694.025 775.964C693.289 775.058 692.791 773.981 692.579 772.833L654.257 565.98C654.01 564.664 654.148 563.305 654.654 562.065C655.161 560.826 656.013 559.759 657.111 558.993C658.209 558.227 659.505 557.793 660.843 557.745C662.181 557.697 663.504 558.037 664.653 558.722L845.989 665.429C846.994 666.023 847.833 666.859 848.429 667.862C849.027 668.864 849.363 670 849.407 671.166C849.452 672.332 849.203 673.49 848.683 674.534C848.164 675.579 847.391 676.477 846.435 677.146L788.159 717.946L867.78 831.661C868.826 833.185 869.225 835.061 868.891 836.88C868.557 838.698 867.516 840.309 865.997 841.362M438.953 0.877686C418.685 0.877686 399.215 8.8545 384.762 23.0647C370.31 37.2755 362.016 56.596 361.674 76.8616V76.993V318.009H77.7671C57.1456 318.009 37.369 326.216 22.7877 340.797C8.20583 355.378 0 375.174 0 395.795C0 416.416 8.20583 436.212 22.7877 450.793C37.369 465.374 57.1456 473.562 77.7671 473.562H73.1871L109.978 673.339C114.473 697.803 127.411 719.909 146.524 735.827C165.638 751.745 189.732 760.477 214.606 760.473H628.031C634.068 760.473 639.886 758.059 644.155 753.79C648.422 749.523 650.819 743.721 650.819 737.685C650.819 731.648 648.422 725.846 644.155 721.58C639.886 717.311 634.068 714.916 628.031 714.916H214.606C200.381 714.918 186.607 709.939 175.675 700.838C167.248 693.822 161.76 684.345 158.125 674.127H360.604L359.929 674.108C363.014 674.252 366.097 673.758 368.976 672.681H368.995C371.87 671.604 374.498 669.951 376.729 667.82C378.949 665.698 380.736 663.143 381.947 660.312V660.292C383.153 657.469 383.768 654.434 383.768 651.357C383.768 648.274 383.142 645.219 381.928 642.385C380.715 639.553 378.952 636.998 376.729 634.877C374.498 632.745 371.87 631.093 368.995 630.015H368.976C366.097 628.939 363.014 628.444 359.929 628.589H148.063L135.243 558.987H279.853L279.196 558.968C282.273 559.109 285.327 558.617 288.206 557.541C291.096 556.46 293.734 554.802 295.958 552.679H295.977C298.205 550.551 299.967 547.995 301.177 545.171C302.388 542.34 303.016 539.301 303.016 536.217C303.016 533.135 302.387 530.073 301.177 527.245C299.966 524.415 298.201 521.861 295.977 519.737C293.75 517.609 291.102 515.953 288.225 514.875H288.206C285.319 513.796 282.259 513.308 279.196 513.449L279.853 513.429H126.871L119.513 473.56H328.788L385.307 542.843C391.801 550.794 399.982 557.195 409.258 561.595C418.533 565.994 428.669 568.277 438.935 568.277C449.201 568.277 459.336 565.995 468.611 561.595C477.889 557.195 486.069 550.793 492.563 542.843H492.582L549.1 473.56H576.374C582.411 473.56 588.213 471.163 592.48 466.897C596.746 462.63 599.162 456.828 599.162 450.791C599.162 444.755 596.748 438.936 592.48 434.667C590.172 432.36 586.77 432.196 583.77 431.063L638.843 363.564H800.253H800.384C804.67 363.48 808.921 364.253 812.904 365.835C816.89 367.418 820.525 369.78 823.585 372.78C826.646 375.782 829.077 379.359 830.736 383.311C832.396 387.263 833.252 391.507 833.252 395.793C833.252 400.079 832.395 404.326 830.736 408.276C829.077 412.227 826.646 415.804 823.585 418.806C820.524 421.807 816.887 424.17 812.904 425.751C808.921 427.333 804.67 428.106 800.384 428.022H800.253H761.36C755.323 428.022 749.521 430.419 745.255 434.686C740.988 438.953 738.572 444.755 738.572 450.791C738.572 456.828 740.986 462.647 745.255 466.915C748.769 470.428 753.654 471.712 758.525 472.396L750.998 513.317C750.45 516.264 750.491 519.292 751.111 522.214V522.233C751.735 525.162 752.929 527.938 754.621 530.398C756.322 532.868 758.494 534.968 761.003 536.593L761.022 536.612C763.519 538.224 766.308 539.317 769.225 539.859C770.623 540.127 772.034 540.261 773.43 540.254C778.74 540.239 783.881 538.378 787.958 534.979C792.036 531.583 794.813 526.858 795.786 521.633V521.614L804.627 473.58H800.047C820.667 473.58 840.463 465.375 855.045 450.792C869.626 436.211 877.833 416.434 877.833 395.812C877.833 375.191 869.626 355.395 855.045 340.814C840.462 326.233 820.667 318.028 800.046 318.028H516.232V76.993V76.8616C515.891 56.5965 507.598 37.2758 493.144 23.0647C478.693 8.85401 459.222 0.877686 438.953 0.877686ZM438.934 44.4633C443.155 44.4633 447.338 45.307 451.229 46.941C455.12 48.5752 458.637 50.9675 461.59 53.9801C464.545 56.9927 466.865 60.5681 468.423 64.4917C469.98 68.4143 470.739 72.604 470.657 76.824V76.9742V318.009H407.212V76.9742V76.824C407.129 72.604 407.889 68.4143 409.446 64.4917C411.002 60.5709 413.324 56.9939 416.278 53.9801C419.23 50.9702 422.755 48.575 426.64 46.941C430.532 45.3066 434.715 44.4633 438.935 44.4633H438.934ZM77.7671 363.566H239.026L291.622 428.024H77.7671C73.53 428.028 69.3336 427.203 65.416 425.584C61.4991 423.965 57.9408 421.577 54.9419 418.583C51.9421 415.587 49.5651 412.041 47.9404 408.127C46.3209 404.226 45.4708 400.039 45.4627 395.814C45.4627 395.807 45.4627 395.801 45.4627 395.795C45.4627 395.788 45.4627 395.782 45.4627 395.775C45.4856 387.226 48.8912 379.045 54.9419 373.006C61.0022 366.958 69.2055 363.561 77.7671 363.565V363.566ZM297.816 363.566H384.443H580.072L457.274 514.051V514.07C455.057 516.791 452.259 518.983 449.09 520.489C445.918 521.996 442.443 522.761 438.935 522.761C435.426 522.761 431.97 521.996 428.798 520.489C425.629 518.983 422.831 516.791 420.614 514.07V514.051L297.816 363.566ZM628.04 729.324H214.6C197.008 729.326 179.971 723.164 166.451 711.908C152.931 700.652 143.782 685.015 140.596 667.713L139.116 659.706H360.61C361.739 659.759 362.868 659.581 363.927 659.185C364.986 658.788 365.954 658.182 366.771 657.401C367.589 656.62 368.241 655.681 368.685 654.641C369.13 653.602 369.36 652.483 369.36 651.352C369.36 650.221 369.13 649.102 368.685 648.063C368.241 647.023 367.589 646.084 366.771 645.304C365.954 644.522 364.986 643.916 363.927 643.519C362.868 643.123 361.739 642.945 360.61 642.998H136.05L117.932 544.564H279.848C280.978 544.616 282.106 544.438 283.165 544.043C284.224 543.647 285.192 543.039 286.01 542.259C286.828 541.477 287.478 540.538 287.923 539.5C288.368 538.46 288.598 537.34 288.598 536.21C288.598 535.079 288.368 533.96 287.923 532.92C287.478 531.88 286.828 530.942 286.01 530.161C285.192 529.38 284.224 528.773 283.165 528.377C282.106 527.98 280.978 527.803 279.848 527.855H114.865L102.204 459.148H335.627L396.47 533.722C401.613 540.018 408.091 545.092 415.436 548.576C422.781 552.06 430.809 553.867 438.938 553.867C447.067 553.867 455.095 552.06 462.439 548.576C469.785 545.092 476.262 540.018 481.405 533.722L542.249 459.148H576.38C578.598 459.148 580.725 458.267 582.293 456.698C583.862 455.13 584.743 453.003 584.743 450.785C584.743 448.567 583.862 446.439 582.293 444.871C580.725 443.302 578.598 442.421 576.38 442.421H555.89L631.998 349.159H800.102C806.304 349.037 812.467 350.154 818.232 352.443C823.997 354.734 829.247 358.149 833.676 362.492C838.105 366.835 841.623 372.017 844.025 377.737C846.427 383.456 847.663 389.596 847.663 395.799C847.663 402.002 846.427 408.143 844.025 413.861C841.623 419.58 838.105 424.762 833.676 429.105C829.247 433.448 823.997 436.865 818.232 439.154C812.467 441.443 806.304 442.56 800.102 442.439H761.352C759.134 442.439 757.007 443.32 755.439 444.889C753.871 446.457 752.989 448.584 752.989 450.802C752.989 453.02 753.871 455.148 755.439 456.717C757.007 458.284 759.134 459.165 761.352 459.165H775.618L765.169 515.961C764.968 517.041 764.982 518.15 765.21 519.224C765.439 520.299 765.877 521.316 766.5 522.222C767.124 523.126 767.918 523.899 768.84 524.495C769.763 525.091 770.793 525.5 771.874 525.698C772.373 525.798 772.88 525.845 773.39 525.84C775.344 525.836 777.234 525.149 778.734 523.899C780.235 522.648 781.253 520.914 781.611 518.992L792.63 459.165H800.049C816.852 459.165 832.968 452.491 844.849 440.608C856.731 428.727 863.407 412.612 863.407 395.807C863.407 379.004 856.731 362.889 844.849 351.008C832.968 339.125 816.852 332.451 800.049 332.451H501.823V77.1111C501.545 60.621 494.8 44.9002 483.04 33.3369C471.28 21.7736 455.449 15.2936 438.956 15.2936C422.463 15.2936 406.631 21.7736 394.871 33.3369C383.111 44.9002 376.366 60.621 376.088 77.1111V332.432H77.7737C60.9701 332.432 44.8548 339.108 32.9729 350.989C21.0911 362.871 14.4159 378.987 14.4159 395.79C14.4159 412.593 21.0911 428.708 32.9729 440.591C44.8548 452.473 60.9701 459.148 77.7737 459.148H85.1918L124.155 670.727C128.042 691.877 139.22 710.996 155.745 724.758C172.27 738.52 193.095 746.054 214.6 746.05H628.04C630.257 746.05 632.385 745.169 633.953 743.6C635.522 742.032 636.403 739.905 636.403 737.687C636.403 735.469 635.522 733.342 633.953 731.773C632.385 730.205 630.257 729.324 628.04 729.324V729.324ZM392.797 77.1111C392.677 70.9755 393.781 64.8774 396.045 59.1737C398.31 53.47 401.69 48.2753 405.986 43.8935C410.283 39.5117 415.41 36.0308 421.068 33.6545C426.726 31.2783 432.801 30.0543 438.938 30.0543C445.075 30.0543 451.15 31.2783 456.808 33.6545C462.466 36.0308 467.594 39.5117 471.889 43.8935C476.186 48.2753 479.565 53.47 481.831 59.1737C484.095 64.8774 485.199 70.9755 485.079 77.1111V332.432H392.797V77.1111ZM384.434 349.159H610.422L468.441 523.165C464.873 527.546 460.374 531.077 455.271 533.502C450.168 535.926 444.588 537.185 438.938 537.185C433.287 537.185 427.708 535.926 422.605 533.502C417.502 531.077 413.003 527.546 409.435 523.165L267.454 349.159H384.434ZM31.0533 395.79C31.0722 383.413 36.0035 371.549 44.7636 362.807C53.5239 354.063 65.3966 349.155 77.7737 349.159H245.878L321.985 442.439H77.7737C71.6429 442.444 65.5713 441.241 59.9054 438.9C54.2396 436.557 49.0905 433.123 44.7522 428.791C40.4138 424.459 36.9711 419.315 34.6206 413.652C32.2701 407.991 31.058 401.921 31.0533 395.79Z" fill="black"/>
</svg>
