<svg viewBox="0 0 900 674" xmlns="http://www.w3.org/2000/svg">
<path d="M639.636 439.732C626.81 444.903 622.481 452.318 623.076 458.96C623.362 462.116 624.759 464.838 626.547 466.66C628.172 468.314 630.851 469.88 633.498 468.813C635.28 468.095 637.137 467.705 638.525 467.731C639.67 467.753 639.939 468 639.967 468.032C641.704 472.874 644.329 475.277 647.47 475.812C650.229 476.282 652.865 475.083 653.649 474.814C656.373 473.881 659.152 472.392 660.559 469.713C662.01 466.953 661.627 463.684 659.845 460.08C659.837 460.037 659.816 459.781 660.188 459.27C660.75 458.495 662.158 457.257 665.4 455.95C666.753 455.405 667.542 454.245 667.97 453.208C668.413 452.136 668.598 450.898 668.578 449.652C668.55 447.158 667.667 444.229 665.646 441.766C661.399 436.573 653.014 434.337 639.63 439.733L639.636 439.732ZM723.212 441.369C705.004 448.789 687.108 457.779 676.171 463.806C675.003 464.449 674.586 465.914 675.228 467.08C675.882 468.242 677.336 468.668 678.503 468.025C689.308 462.071 707.032 453.171 725.035 445.833C734.036 442.165 743.077 438.9 751.328 436.594C759.615 434.278 766.951 432.973 772.62 433.108C773.951 433.14 775.059 432.084 775.093 430.751C775.15 429.421 774.079 428.316 772.74 428.288C766.362 428.136 758.478 429.589 750.027 431.951C741.54 434.322 732.321 437.657 723.216 441.368L723.212 441.369ZM573.415 502.002C564.282 505.643 555.328 509.635 547.568 513.813C539.843 517.973 533.155 522.393 528.667 526.927C527.73 527.873 527.73 529.397 528.684 530.334C529.629 531.272 531.163 531.265 532.099 530.318C536.089 526.289 542.288 522.138 549.864 518.059C557.407 513.997 566.176 510.081 575.205 506.481C593.263 499.281 612.204 493.4 624.117 490.195C625.402 489.849 626.167 488.529 625.822 487.244C625.485 485.953 624.159 485.193 622.871 485.539C610.812 488.782 591.685 494.719 573.421 502.001L573.415 502.002ZM689.11 466.277C685.452 467.736 682.139 469.109 679.274 470.344C678.048 470.87 677.494 472.285 678.028 473.506C678.551 474.731 679.99 475.286 681.216 474.76C692.539 469.882 711.04 462.737 729.675 457.174C738.992 454.392 748.299 452.015 756.745 450.515C765.227 449.009 772.683 448.417 778.331 449.095C779.659 449.254 780.847 448.314 780.998 446.994C781.141 445.675 780.198 444.476 778.87 444.317C772.517 443.555 764.52 444.243 755.87 445.78C747.184 447.323 737.676 449.754 728.253 452.568C714.118 456.787 700.079 461.9 689.107 466.277L689.11 466.277ZM615.254 496.285C604.314 500.742 590.655 506.795 577.546 513.559C568.805 518.068 560.271 522.91 552.943 527.824C545.646 532.716 539.408 537.766 535.359 542.722C534.513 543.757 534.656 545.279 535.684 546.125C536.707 546.971 538.218 546.823 539.063 545.789C542.662 541.384 548.446 536.648 555.602 531.85C562.726 527.073 571.076 522.321 579.717 517.863C597.001 508.946 615.286 501.271 626.827 496.931C628.072 496.463 628.712 495.069 628.25 493.818C627.778 492.572 626.405 491.926 625.157 492.394C622.236 493.492 618.897 494.801 615.251 496.286L615.254 496.285ZM681.334 477.973C680.072 478.387 679.395 479.745 679.826 481.008C680.243 482.275 681.637 482.953 682.901 482.54C694.624 478.712 713.704 473.278 732.787 469.426C742.328 467.5 751.826 465.975 760.388 465.245C768.988 464.511 776.475 464.589 782.058 465.77C783.366 466.047 784.649 465.219 784.906 463.92C785.163 462.622 784.315 461.349 783.006 461.071C776.727 459.742 768.676 459.704 759.908 460.452C751.102 461.204 741.409 462.764 731.759 464.712C712.46 468.607 693.198 474.098 681.334 477.973H681.334ZM628.971 499.326C617.736 504.763 600.051 514.168 583.447 524.747C575.145 530.036 567.079 535.635 560.215 541.201C553.379 546.743 547.607 552.355 544.004 557.668C543.253 558.776 543.521 560.284 544.612 561.038C545.701 561.792 547.197 561.502 547.948 560.394C551.151 555.67 556.49 550.422 563.194 544.986C569.869 539.574 577.769 534.085 585.978 528.855C602.396 518.395 619.911 509.075 631.011 503.703C632.208 503.124 632.727 501.675 632.165 500.466C631.585 499.263 630.168 498.747 628.973 499.326L628.971 499.326ZM557.55 396.575C548.427 400.253 544.185 410.932 547.956 420.286C551.727 429.64 562.193 434.399 571.316 430.722C580.438 427.044 584.668 416.36 580.897 407.006C577.126 397.652 566.672 392.898 557.55 396.575ZM559.352 401.048C565.955 398.386 573.587 401.773 576.424 408.809C579.26 415.844 576.115 423.587 569.512 426.249C562.909 428.911 555.264 425.517 552.428 418.483C549.592 411.448 552.748 403.71 559.352 401.048ZM558.452 398.811C554.677 400.333 551.685 403.355 550.136 407.213C548.588 411.071 548.608 415.449 550.193 419.384C550.978 421.334 552.124 423.115 553.566 424.628C555.007 426.14 556.715 427.354 558.593 428.199C560.471 429.044 562.482 429.504 564.51 429.553C566.539 429.603 568.545 429.24 570.415 428.485C574.19 426.962 577.179 423.938 578.725 420.079C580.272 416.22 580.249 411.842 578.662 407.907C577.075 403.975 574.055 400.808 570.265 399.102C566.476 397.396 562.227 397.292 558.452 398.811V398.811ZM557.673 402.974C559.475 402.248 561.518 403.191 562.243 404.991C562.968 406.791 562.157 408.896 560.352 409.622C558.55 410.348 556.495 409.399 555.77 407.6C555.042 405.8 555.855 403.699 557.672 402.974L557.673 402.974ZM665.991 352.858C656.869 356.535 652.626 367.214 656.397 376.568C660.168 385.923 670.635 390.682 679.757 387.004C688.879 383.327 693.11 372.642 689.338 363.288C685.567 353.934 675.113 349.18 665.991 352.858ZM667.793 357.33C674.396 354.668 682.029 358.056 684.865 365.091C687.701 372.126 684.557 379.87 677.953 382.532C671.35 385.193 663.705 381.8 660.869 374.765C658.033 367.73 661.189 359.992 667.793 357.33V357.33ZM666.894 355.094C663.118 356.615 660.127 359.637 658.578 363.495C657.029 367.353 657.049 371.732 658.634 375.667C659.42 377.616 660.566 379.398 662.007 380.91C663.448 382.422 665.157 383.636 667.035 384.481C668.913 385.326 670.923 385.787 672.952 385.836C674.98 385.885 676.987 385.522 678.856 384.768C682.631 383.244 685.62 380.22 687.167 376.361C688.713 372.502 688.69 368.124 687.103 364.19C685.516 360.257 682.496 357.09 678.707 355.384C674.917 353.679 670.668 353.574 666.894 355.094V355.094ZM666.114 359.257C667.916 358.53 669.958 359.474 670.684 361.273C671.412 363.073 670.598 365.179 668.793 365.904C666.991 366.631 664.936 365.682 664.211 363.883C663.485 362.083 664.296 359.982 666.113 359.257H666.114ZM691.33 234.318C682.634 236.578 674.932 241.003 669.92 247.133C664.972 253.188 662.736 261.122 665.107 269.881C666.324 274.374 669.23 279.108 673.295 283.844C677.336 288.55 682.414 293.084 687.92 296.948C693.431 300.815 699.285 303.962 704.898 305.885C710.556 307.823 715.741 308.482 720.12 307.344C728.565 305.15 733.554 298.335 735.542 289.956C737.547 281.505 736.787 271.583 734.36 262.66C731.949 253.752 725.569 245.62 717.53 240.157C709.484 234.689 699.988 232.069 691.332 234.318L691.33 234.318ZM692.541 238.988C699.457 237.191 707.646 239.271 714.817 244.144C721.979 249.01 727.658 256.393 729.695 263.919C731.94 272.206 732.585 281.515 730.849 288.843C729.121 296.123 725.532 300.953 718.908 302.674C715.928 303.449 711.557 303.071 706.462 301.325C701.408 299.594 695.894 296.645 690.695 292.997C685.5 289.351 680.688 285.051 676.955 280.704C673.199 276.329 670.678 272.022 669.757 268.617C667.766 261.251 669.529 255.238 673.656 250.177C677.841 245.057 684.669 241.035 692.543 238.988L692.541 238.988ZM667.431 269.249C668.499 273.199 671.211 277.718 675.12 282.274C679.008 286.8 683.957 291.219 689.308 294.974C694.663 298.731 700.348 301.774 705.681 303.601C711.058 305.443 715.835 305.967 719.514 305.011C727.048 303.053 731.335 297.232 733.192 289.402C735.063 281.512 734.363 271.896 732.027 263.29C729.799 255.074 723.776 247.314 716.177 242.149C708.568 236.978 699.725 234.629 691.938 236.652C683.653 238.805 676.388 243.029 671.79 248.655C667.248 254.213 665.25 261.187 667.433 269.249L667.431 269.249ZM468.46 326.299C459.493 329.914 452.97 337.814 449.467 346.772C445.964 355.73 445.401 365.856 448.81 374.313C452.064 382.384 457.312 390.354 464.14 395.613C470.968 400.871 479.684 403.299 488.703 399.663C498.123 395.866 505.367 384.635 509.911 372.468C514.456 360.302 516.33 347.13 512.759 338.267C509.342 329.79 502.318 324.883 494.247 323.205C486.176 321.528 477.027 322.847 468.461 326.299L468.46 326.299ZM470.262 330.772C478.106 327.61 486.417 326.504 493.264 327.927C500.11 329.35 505.461 333.068 508.284 340.07C510.951 346.685 509.663 359.338 505.391 370.777C501.118 382.217 493.889 392.373 486.9 395.191C479.509 398.17 472.968 396.331 467.08 391.797C461.193 387.264 456.269 379.918 453.283 372.51C450.452 365.489 450.841 356.484 453.951 348.528C457.062 340.572 462.819 333.772 470.261 330.772H470.262ZM469.362 328.536C452.953 335.151 444.808 357.933 451.048 373.411C457.288 388.89 471.394 404.042 487.803 397.427C504.212 390.812 516.762 354.647 510.522 339.168C504.282 323.689 485.771 321.92 469.362 328.536V328.536ZM518.932 313.551L514.877 310.94V310.94L518.932 313.551ZM647.34 262.096L647.714 257.288L647.34 262.096ZM650.022 260.025L654.766 260.892V260.892L650.022 260.025ZM715.744 225.096L714.064 229.617L714.09 229.632L715.744 225.096ZM742.109 321.419L737.96 318.961L742.109 321.419ZM741.994 323.792L746.292 321.605L741.994 323.792ZM722.351 471.548L724.533 475.848L724.534 475.848L722.351 471.548ZM721.1 473.004L725.692 474.478L721.1 473.004ZM607.236 519.435L610.464 515.853L607.236 519.435ZM604.848 518.879L603.497 514.25L604.848 518.879ZM490.506 432.784L495.078 431.25L490.506 432.784ZM489.741 431.672L492.711 427.873L489.741 431.672ZM438.641 336.805L434.112 335.153L434.106 335.19L434.101 335.227L438.641 336.805ZM515.677 314.464L513.594 318.813L515.677 314.464ZM522.974 316.163C535.503 296.713 576.079 261.255 646.945 266.903L647.719 257.289C573.076 251.341 529.194 288.709 514.874 310.941L522.974 316.163ZM654.755 260.892C656.446 251.65 661.307 240.001 670.488 232.645C679.321 225.567 692.992 221.79 714.054 229.617L717.413 220.576C693.777 211.793 676.403 215.546 664.457 225.118C652.859 234.412 647.209 248.533 645.268 259.158L654.755 260.892ZM714.087 229.629C722.839 232.808 736.285 242.809 743.758 258.226C751.058 273.287 752.823 293.857 737.951 318.961L746.248 323.877C762.711 296.09 761.2 272.097 752.437 254.019C743.846 236.297 728.442 224.582 717.38 220.564L714.087 229.629ZM737.695 325.979C746.441 343.167 756.295 371.733 756.662 399.496C757.021 427.124 748.054 453.092 720.167 467.248L724.533 475.848C756.861 459.437 766.692 429.162 766.305 399.371C765.923 369.718 755.494 339.688 746.291 321.605L737.695 325.979ZM716.507 471.528C711.034 488.57 707.118 499.582 701.28 507.844C695.642 515.822 687.965 521.536 674.172 527.097L677.778 536.042C692.659 530.043 702.115 523.374 709.156 513.409C715.997 503.728 720.306 491.238 725.69 474.478L716.507 471.528ZM674.172 527.097C665.787 530.477 655.824 532.998 645.063 532.064C634.391 531.136 622.59 526.783 610.463 515.853L604.006 523.017C617.619 535.287 631.372 540.555 644.228 541.672C656.996 542.781 668.533 539.769 677.778 536.042L674.172 527.097ZM603.501 514.249C591.203 517.83 571.249 518.184 550.871 507.23C530.592 496.33 509.407 473.959 495.079 431.25L485.936 434.318C500.874 478.85 523.44 503.435 546.305 515.725C569.071 527.963 591.654 527.744 606.198 523.509L603.501 514.249ZM492.717 427.873C487.332 423.662 479.6 419.691 472.396 415.549C464.916 411.25 457.431 406.485 451.313 400.315C445.262 394.213 440.58 386.766 438.671 377.028C436.752 367.236 437.557 354.717 443.207 338.381L434.095 335.229C428.049 352.714 426.882 367 429.21 378.882C431.549 390.816 437.333 399.911 444.467 407.105C451.534 414.232 459.952 419.518 467.592 423.91C475.508 428.46 482.113 431.822 486.779 435.47L492.717 427.873ZM443.179 338.457C445.943 330.88 452.762 320.785 464.062 315.176C475.123 309.686 491.255 308.112 513.6 318.813L517.766 310.115C493.263 298.38 473.971 299.491 459.774 306.537C445.817 313.465 437.543 325.759 434.118 335.153L443.179 338.457ZM495.086 431.25C494.686 430.027 493.915 428.806 492.715 427.873L486.775 435.47C486.304 435.104 486.058 434.666 485.941 434.317L495.086 431.25ZM720.173 467.249C718.482 468.106 717.121 469.638 716.513 471.529L725.696 474.478C725.496 475.123 725.065 475.583 724.54 475.849L720.173 467.249ZM737.956 318.961C736.751 320.995 736.511 323.64 737.699 325.979L746.295 321.605C746.723 322.437 746.594 323.297 746.266 323.877L737.956 318.961ZM610.469 515.853C608.613 514.177 605.988 513.527 603.508 514.249L606.204 523.51C605.398 523.744 604.576 523.525 604.013 523.017L610.469 515.853ZM646.951 266.903C650.728 267.204 654.089 264.571 654.761 260.892L645.274 259.158C645.474 258.016 646.514 257.193 647.716 257.289L646.951 266.903ZM514.872 310.94C515.511 309.95 516.74 309.623 517.765 310.115L513.599 318.813C516.919 320.403 520.963 319.292 522.979 316.163L514.872 310.94ZM624.155 169.865C498.298 169.865 396.06 272.046 396.06 397.904C396.06 523.761 498.298 625.943 624.155 625.943C750.012 625.943 852.194 523.761 852.194 397.904C852.194 272.046 750.012 169.865 624.155 169.865ZM624.155 184.982C741.845 184.982 837.077 280.214 837.077 397.904C837.077 515.593 741.845 610.826 624.155 610.826C506.466 610.826 411.177 515.593 411.177 397.904C411.177 280.214 506.466 184.982 624.155 184.982ZM624.155 122.059C471.891 122.059 348.255 245.64 348.255 397.904C348.255 550.168 471.891 673.749 624.155 673.749C776.419 673.749 900 550.168 900 397.904C900 245.64 776.419 122.059 624.155 122.059V122.059ZM624.155 137.176C768.251 137.176 884.883 253.808 884.883 397.904C884.883 542 768.251 658.687 624.155 658.687C480.059 658.687 363.372 542 363.372 397.904C363.372 253.808 480.059 137.176 624.155 137.176ZM282.593 0.251465C126.624 0.251465 0 126.831 0 282.8C0 438.77 126.624 565.394 282.593 565.394C321.169 565.394 357.948 557.629 391.456 543.609C388.866 539.26 386.395 534.841 384.048 530.356C352.767 543.181 318.517 550.266 282.593 550.266C134.792 550.266 15.128 430.602 15.128 282.8C15.128 134.999 134.792 15.3648 282.593 15.3648C382.114 15.3648 468.865 69.6059 514.917 150.16C519.501 148.06 524.142 146.087 528.835 144.242C480.358 58.3181 388.224 0.251465 282.593 0.251465V0.251465ZM282.593 52.2922C155.359 52.2922 52.0554 155.566 52.0554 282.8C52.0554 410.035 155.359 513.338 282.593 513.338C313.136 513.338 342.305 507.38 368.993 496.572C367.22 491.86 365.576 487.101 364.064 482.3C338.937 492.558 311.43 498.225 282.593 498.225C163.527 498.225 67.1688 401.867 67.1688 282.8C67.1688 163.734 163.527 67.3613 282.593 67.3613C362.7 67.3613 432.528 110.977 469.65 175.782C473.776 172.923 477.979 170.176 482.255 167.546C442.366 98.6702 367.852 52.2922 282.593 52.2922V52.2922ZM396.947 135.239C392.952 135.31 389.114 135.951 385.45 137.054C372.081 141.077 362.04 150.997 356.079 159.753C291.472 128.318 238.662 144.761 216.28 159.636C198.388 140.725 180.575 134.824 165.155 136.022C149.619 137.228 137.352 145.548 130.663 152.98L130.648 153.009L130.633 153.037H130.618C118.474 166.994 112.047 179.8 109.764 191.691C107.47 203.634 109.439 214.231 113.365 223.571C117.254 232.823 123.079 240.875 128.522 247.806C133.944 254.707 138.639 260.137 141.629 265.103C139.053 310.833 150.34 341.582 166.453 361.451C158.804 362.44 151.9 363.923 146.647 366.189C145.424 366.716 144.849 368.124 145.377 369.347C145.904 370.57 147.343 371.144 148.565 370.616C153.772 368.371 161.06 366.844 169.612 365.893C169.809 365.872 170.02 365.856 170.217 365.833C173.103 368.965 176.105 371.756 179.161 374.261C175.606 374.811 172.124 375.398 168.83 376.091C160.233 377.9 152.55 380.255 146.942 383.338C145.772 383.981 145.348 385.447 145.983 386.614C146.615 387.781 148.06 388.217 149.23 387.574C154.214 384.834 161.359 382.603 169.789 380.829C174.42 379.854 179.408 379.033 184.563 378.335C188.399 381.002 192.271 383.242 196.105 385.079C187.172 386.798 178.385 388.819 170.571 391.219C162.159 393.804 154.705 396.848 149.377 400.429C148.265 401.176 147.955 402.673 148.683 403.779C149.411 404.886 150.908 405.19 152.019 404.443C156.756 401.26 163.664 398.388 171.914 395.854C180.129 393.33 189.517 391.185 199.086 389.404C200.825 389.08 202.568 388.788 204.311 388.489C209.366 390.248 214.19 391.318 218.568 391.854C226.543 407.648 237.085 417.363 248.322 423.069C259.749 428.872 271.577 430.405 281.545 430.405C297.589 430.405 308.851 427.745 319.107 421.136C328.878 414.84 337.446 405.09 348.39 391.957C349.735 391.826 351.057 391.646 352.36 391.455C352.424 388.182 352.547 384.91 352.728 381.64C350.746 381.983 348.718 382.269 346.618 382.452C331.226 380.044 316.5 378.535 306.547 377.862C305.22 377.773 304.08 378.788 304.008 380.12C303.934 381.452 304.97 382.599 306.296 382.688C314.925 383.272 327.265 384.511 340.434 386.408C329.651 399.322 322.079 407.751 313.882 413.033C305.671 418.325 296.416 420.752 281.545 420.752C272.504 420.752 262.321 419.37 252.691 414.479C243.14 409.629 233.816 401.183 226.656 386.511C226.447 386.086 226.198 385.688 225.918 385.315C235.284 384.157 243.811 383.345 250.255 382.91C251.582 382.821 252.599 381.674 252.528 380.342C252.454 379.009 251.315 378.008 249.99 378.098C241.431 378.677 229.271 379.894 216.265 381.743C211.507 380.836 206.198 379.178 200.709 376.593C218.992 375.05 237.276 374.798 248.898 375.072C250.228 375.104 251.35 374.043 251.392 372.711C251.429 371.379 250.389 370.263 249.06 370.231C245.941 370.157 242.341 370.128 238.404 370.143C226.591 370.186 211.663 370.69 196.975 372.061C195.697 372.181 194.426 372.327 193.152 372.46C189.741 370.33 186.333 367.829 183.013 364.888C187.715 364.683 192.561 364.603 197.447 364.623C216.888 364.697 236.651 366.328 248.897 367.811C250.219 367.971 251.424 367.022 251.584 365.7C251.747 364.378 250.81 363.189 249.488 363.029C237.091 361.528 217.124 359.872 197.462 359.796C190.954 359.772 184.491 359.942 178.305 360.328C177.057 359.021 175.818 357.669 174.615 356.225C159.883 338.533 148.6 309.863 151.281 264.895C151.355 263.61 151.103 262.193 150.351 260.881C146.931 254.962 141.241 248.391 136.108 241.856C130.779 235.071 125.617 227.846 122.249 219.835C118.919 211.914 117.367 203.266 119.239 193.52C121.117 183.738 126.527 172.439 137.835 159.426C143.231 153.432 153.329 146.618 165.907 145.641C178.219 144.685 193.77 149.263 210.494 167.544C212.979 170.26 217.138 170.739 220.176 168.592C239.069 155.237 289.97 137.521 353.584 169.256C356.974 170.947 361.075 169.76 363.074 166.599C368.096 158.659 376.958 149.666 388.224 146.276C399.06 143.014 413.167 144.639 429.771 159.765L429.786 159.78H429.8C436.286 165.608 444.342 178.524 446.301 194.169C449.085 191.676 451.919 189.241 454.802 186.863C451.487 171.64 443.5 159.147 436.265 152.637C422.287 139.899 408.931 135.019 396.946 135.236L396.947 135.239ZM400.283 155.208C393.724 155.242 387.467 156.644 382.262 159.503C375.408 163.268 370.379 169.797 369.303 178.808C368.752 183.43 369.68 188.909 371.679 194.821C373.667 200.696 376.681 206.801 380.343 212.444C384.008 218.09 388.254 223.188 392.74 227.07C397.264 230.984 401.833 233.543 406.319 234.125C407.147 234.233 407.953 234.265 408.755 234.273C416.819 223.729 425.634 213.78 435.13 204.504C435.601 202.342 435.964 200.158 436.221 197.995C437.315 188.832 434.447 178.911 429.033 170.839C423.615 162.758 415.793 156.771 406.924 155.621C404.696 155.332 402.469 155.196 400.282 155.208H400.283ZM165.819 157.599C156.151 157.599 147.15 162.496 140.551 169.495C133.952 176.493 129.644 185.673 129.644 194.792C129.644 203.494 131.535 212.851 135.902 220.281C140.269 227.711 147.446 233.21 157.17 233.21C167.327 233.21 178.234 225.512 186.998 215.927C195.762 206.342 202.436 194.829 202.436 185.272C202.436 176.133 197.753 168.947 190.895 164.373C184.036 159.8 175.054 157.599 165.819 157.599V157.599ZM222.169 256.087C212.334 256.087 204.414 264.406 204.414 274.491C204.414 284.577 212.334 292.911 222.169 292.911C232.005 292.911 239.925 284.577 239.925 274.491C239.925 264.406 232.005 256.087 222.169 256.087ZM339.091 256.087C329.255 256.087 321.336 264.406 321.336 274.491C321.336 284.577 329.255 292.911 339.091 292.911C348.926 292.911 356.846 284.577 356.846 274.491C356.846 264.406 348.926 256.087 339.091 256.087ZM219.896 262.079C221.837 262.079 223.38 263.71 223.38 265.65C223.38 267.591 221.838 269.237 219.896 269.237C217.955 269.237 216.398 267.591 216.398 265.65C216.398 263.71 217.955 262.079 219.896 262.079ZM336.818 262.079C338.76 262.079 340.301 263.71 340.301 265.65C340.301 267.591 338.759 269.237 336.818 269.237C334.876 269.237 333.32 267.591 333.32 265.65C333.32 263.71 334.877 262.079 336.818 262.079ZM282.165 326.812C268.337 326.812 261.559 332.075 259.628 338.457C258.711 341.49 258.978 344.527 259.953 346.885C260.838 349.027 262.752 351.49 265.605 351.49C267.527 351.49 269.39 351.817 270.668 352.36C271.723 352.81 271.878 353.145 271.893 353.187C271.693 358.328 273.223 361.538 275.937 363.208C278.322 364.677 281.219 364.552 282.047 364.596C284.924 364.75 288.049 364.399 290.356 362.441C292.731 360.424 293.614 357.256 293.308 353.246C293.317 353.203 293.397 352.946 293.928 352.611C294.739 352.103 296.499 351.49 299.994 351.49C301.452 351.49 302.62 350.712 303.403 349.911C304.212 349.082 304.859 348.003 305.307 346.841C306.204 344.513 306.477 341.468 305.53 338.428C303.533 332.024 296.596 326.813 282.166 326.813L282.165 326.812ZM355.238 359.637C336.849 359.891 318.64 361.392 307.049 362.795C305.728 362.955 304.794 364.159 304.953 365.481C305.116 366.803 306.316 367.737 307.639 367.577C318.947 366.208 336.664 364.742 354.618 364.463C354.81 362.852 355.017 361.243 355.238 359.637V359.637ZM318.133 369.924C314.196 369.909 310.611 369.952 307.492 370.027C306.161 370.058 305.104 371.159 305.145 372.491C305.182 373.824 306.308 374.87 307.639 374.838C318.725 374.578 335.877 374.807 353.304 376.167C353.467 374.576 353.644 372.987 353.835 371.399C341.051 370.396 328.41 369.961 318.133 369.923L318.133 369.924Z" fill="black"/>
</svg>
