<?xml version="1.0" encoding="UTF-8" standalone="no"?>
<!-- Created with Inkscape (http://www.inkscape.org/) -->

<svg
   width="1000"
   height="1000"
   viewBox="0 0 264.58333 264.58333"
   version="1.1"
   id="svg5"
   xml:space="preserve"
   inkscape:version="1.2.1 (9c6d41e, 2022-07-14)"
   sodipodi:docname="coin.svg"
   xmlns:inkscape="http://www.inkscape.org/namespaces/inkscape"
   xmlns:sodipodi="http://sodipodi.sourceforge.net/DTD/sodipodi-0.dtd"
   xmlns="http://www.w3.org/2000/svg"
   xmlns:svg="http://www.w3.org/2000/svg"><sodipodi:namedview
     id="namedview7"
     pagecolor="#ffffff"
     bordercolor="#111111"
     borderopacity="1"
     inkscape:showpageshadow="0"
     inkscape:pageopacity="0"
     inkscape:pagecheckerboard="1"
     inkscape:deskcolor="#d1d1d1"
     inkscape:document-units="px"
     showgrid="false"
     inkscape:zoom="0.1053289"
     inkscape:cx="194.62845"
     inkscape:cy="1576.0157"
     inkscape:window-width="1309"
     inkscape:window-height="716"
     inkscape:window-x="186"
     inkscape:window-y="1238"
     inkscape:window-maximized="0"
     inkscape:current-layer="layer1" /><defs
     id="defs2" /><g
     inkscape:label="Layer 1"
     inkscape:groupmode="layer"
     id="layer1"
     transform="translate(-65.392391,-48.464742)"><g
       id="g13313"
       transform="matrix(7.5566793,0,0,7.5566793,-415.52777,-274.57416)"><g
         id="g8747" /><g
         id="g13296"
         transform="translate(-23.353562,0.53429439)"><path
           id="path13320"
           style="fill:#000000;stroke-width:0.168843"
           d="m 111.14164,63.318067 c -0.44906,0.181036 -0.60066,0.440669 -0.5798,0.67322 0.01,0.110489 0.0589,0.205807 0.12151,0.269595 0.0569,0.05793 0.15069,0.112763 0.24337,0.0754 0.0624,-0.02516 0.12742,-0.03881 0.17602,-0.03789 0.0401,7.56e-4 0.0495,0.0094 0.0505,0.01053 0.0608,0.169554 0.15274,0.253692 0.26271,0.272408 0.0966,0.01646 0.18887,-0.02553 0.21632,-0.03494 0.0954,-0.03266 0.19269,-0.0848 0.24195,-0.178614 0.0508,-0.09661 0.0374,-0.21108 -0.025,-0.337288 -2.8e-4,-0.0015 -0.001,-0.01046 0.012,-0.02834 0.0197,-0.02713 0.069,-0.07047 0.18249,-0.116233 0.0474,-0.0191 0.075,-0.05972 0.09,-0.09602 0.0155,-0.03752 0.022,-0.0809 0.0213,-0.124497 -0.001,-0.08733 -0.0319,-0.18989 -0.10269,-0.276118 -0.14867,-0.181841 -0.44227,-0.260107 -0.91087,-0.0712 z m 2.92626,0.05729 c -0.63751,0.259815 -1.26413,0.574591 -1.64705,0.785606 -0.0409,0.02251 -0.0555,0.07382 -0.033,0.114645 0.0229,0.04068 0.0738,0.05558 0.11467,0.03306 0.3783,-0.208466 0.99887,-0.52006 1.62921,-0.776985 0.31515,-0.128452 0.63171,-0.242757 0.92062,-0.323501 0.29015,-0.08109 0.54699,-0.126797 0.74548,-0.122043 0.0466,0.0011 0.0854,-0.03587 0.0866,-0.08254 0.002,-0.04656 -0.0355,-0.08526 -0.0824,-0.08624 -0.22332,-0.0053 -0.49936,0.04554 -0.79525,0.128244 -0.29714,0.08303 -0.61995,0.199813 -0.93874,0.32973 z m -5.24487,2.122964 c -0.31975,0.127502 -0.63328,0.267263 -0.90496,0.413541 -0.2705,0.145651 -0.50466,0.300418 -0.66181,0.459173 -0.0328,0.03311 -0.0328,0.08649 5.9e-4,0.119301 0.0331,0.03283 0.0868,0.03258 0.11959,-5.77e-4 0.1397,-0.141079 0.35673,-0.28641 0.62199,-0.429245 0.26411,-0.142199 0.57115,-0.279305 0.88727,-0.405347 0.63229,-0.252102 1.29545,-0.458038 1.71256,-0.570229 0.045,-0.01212 0.0718,-0.05833 0.0597,-0.10335 -0.0118,-0.04519 -0.0582,-0.0718 -0.10332,-0.0597 -0.42221,0.113574 -1.0919,0.321434 -1.7314,0.576401 z m 4.05084,-1.250845 c -0.12805,0.05108 -0.24406,0.09915 -0.34439,0.142396 -0.0429,0.01844 -0.0623,0.06797 -0.0436,0.110715 0.0183,0.04289 0.0687,0.06233 0.11161,0.0439 0.39647,-0.170799 1.04423,-0.420941 1.6967,-0.615744 0.32624,-0.09739 0.65209,-0.180609 0.94781,-0.233126 0.29699,-0.05275 0.55804,-0.07347 0.75578,-0.04975 0.0465,0.0056 0.0881,-0.02731 0.0934,-0.07355 0.005,-0.04618 -0.028,-0.08817 -0.0745,-0.09373 -0.22246,-0.02669 -0.50247,-0.0026 -0.80531,0.05123 -0.30414,0.05402 -0.63703,0.13913 -0.96697,0.237653 -0.49492,0.147746 -0.98645,0.326774 -1.37061,0.480021 z m -2.58591,1.05069 c -0.38304,0.156034 -0.86129,0.367982 -1.32029,0.604799 -0.30604,0.157879 -0.60485,0.327427 -0.86142,0.499459 -0.25549,0.171303 -0.47392,0.348121 -0.61568,0.521638 -0.0296,0.03622 -0.0246,0.08953 0.0114,0.119152 0.0358,0.02963 0.0887,0.02445 0.11829,-0.01178 0.126,-0.15422 0.32853,-0.320056 0.57908,-0.488037 0.24945,-0.167263 0.54181,-0.333632 0.84436,-0.489736 0.60515,-0.312203 1.24539,-0.580946 1.64947,-0.732883 0.0436,-0.0164 0.066,-0.0652 0.0498,-0.108992 -0.0165,-0.04364 -0.0646,-0.06626 -0.10829,-0.04986 -0.10227,0.03842 -0.21918,0.08426 -0.34684,0.136271 z m 2.31366,-0.641181 c -0.0442,0.01452 -0.0679,0.06207 -0.0528,0.106268 0.0146,0.04438 0.0634,0.0681 0.10768,0.05366 0.41043,-0.134048 1.07851,-0.324313 1.74665,-0.459177 0.33406,-0.06742 0.66663,-0.120825 0.96642,-0.146402 0.30109,-0.02569 0.56324,-0.02296 0.75873,0.0184 0.0458,0.0097 0.0907,-0.01931 0.0997,-0.06476 0.009,-0.04545 -0.0207,-0.09005 -0.0665,-0.09976 -0.21988,-0.04653 -0.50175,-0.04789 -0.80876,-0.02169 -0.30832,0.02632 -0.64771,0.08095 -0.98558,0.149148 -0.67572,0.136389 -1.35013,0.328633 -1.76555,0.464309 z m -1.8334,0.747642 c -0.39337,0.190372 -1.01256,0.519655 -1.59393,0.890056 -0.29069,0.185205 -0.57309,0.381242 -0.81343,0.576116 -0.23936,0.19405 -0.44145,0.390536 -0.56759,0.576557 -0.0263,0.03879 -0.0169,0.09161 0.0213,0.118008 0.0381,0.02641 0.0905,0.01625 0.11678,-0.02254 0.11215,-0.165399 0.29909,-0.349166 0.53382,-0.53948 0.2337,-0.189489 0.51033,-0.381692 0.79775,-0.564811 0.57485,-0.366247 1.18808,-0.692553 1.57673,-0.880639 0.0419,-0.02027 0.0601,-0.07101 0.0404,-0.113338 -0.0203,-0.04215 -0.0699,-0.0602 -0.11175,-0.03994 z m -2.50068,-3.597624 c -0.3194,0.128765 -0.46794,0.502669 -0.3359,0.830187 0.13203,0.327518 0.49849,0.494157 0.8179,0.365393 0.31938,-0.128762 0.4675,-0.502852 0.33547,-0.830369 -0.13204,-0.327517 -0.49807,-0.493973 -0.81747,-0.365211 z m 0.0631,0.156594 c 0.23119,-0.0932 0.49843,0.02541 0.59774,0.271748 0.0993,0.246314 -0.0108,0.517435 -0.242,0.610639 -0.23119,0.0932 -0.49888,-0.02563 -0.59818,-0.271927 -0.0993,-0.246314 0.0112,-0.517259 0.24244,-0.61046 z m -0.0315,-0.0783 a 0.56013635,0.53744377 68.043395 0 0 -0.28918,0.720323 0.56013635,0.53744377 68.043395 0 0 0.70804,0.318659 0.56013635,0.53744377 68.043395 0 0 0.28874,-0.720505 0.56013635,0.53744377 68.043395 0 0 -0.7076,-0.318477 z m -0.0273,0.145756 c 0.0631,-0.02543 0.13463,0.0076 0.16002,0.0706 0.0254,0.06302 -0.003,0.13675 -0.0662,0.162153 -0.0631,0.02543 -0.13504,-0.0078 -0.16044,-0.07079 -0.0255,-0.06302 0.003,-0.136578 0.0666,-0.161968 z m 3.79258,-1.754743 c -0.31939,0.128761 -0.46794,0.50267 -0.33591,0.830187 0.13204,0.327517 0.49851,0.494153 0.81791,0.365392 0.31938,-0.128761 0.4675,-0.502851 0.33546,-0.830368 -0.13203,-0.327518 -0.49807,-0.493973 -0.81746,-0.365211 z m 0.0631,0.156594 c 0.23119,-0.0932 0.49844,0.02541 0.59774,0.271744 0.0993,0.246314 -0.0108,0.51744 -0.24201,0.610642 -0.23119,0.0932 -0.49886,-0.02563 -0.59816,-0.271929 -0.0993,-0.246316 0.0112,-0.517256 0.24243,-0.610457 z m -0.0315,-0.0783 a 0.56013635,0.53744377 68.043395 0 0 -0.28918,0.720323 0.56013635,0.53744377 68.043395 0 0 0.70804,0.318658 0.56013635,0.53744377 68.043395 0 0 0.28874,-0.720503 0.56013635,0.53744377 68.043395 0 0 -0.7076,-0.318478 z m -0.0273,0.145757 c 0.0631,-0.02543 0.13461,0.0076 0.16002,0.0706 0.0255,0.06302 -0.003,0.136751 -0.0662,0.162153 -0.0631,0.02543 -0.13506,-0.0078 -0.16046,-0.07078 -0.0254,-0.06302 0.003,-0.136578 0.0666,-0.161972 z m 0.88288,-4.374497 c -0.30446,0.07913 -0.57413,0.234047 -0.74962,0.448695 -0.17325,0.212003 -0.25154,0.489811 -0.16851,0.796483 0.0426,0.157309 0.14437,0.323059 0.28669,0.488879 0.14147,0.164766 0.31929,0.323526 0.51208,0.458816 0.19293,0.135378 0.3979,0.245579 0.59443,0.312902 0.19811,0.06788 0.37965,0.09093 0.53296,0.0511 0.29569,-0.07684 0.47039,-0.315427 0.53999,-0.608813 0.0702,-0.295883 0.0436,-0.643292 -0.0414,-0.955739 -0.0844,-0.311891 -0.3078,-0.59662 -0.58927,-0.787878 -0.28171,-0.191455 -0.61421,-0.283201 -0.91727,-0.204436 z m 0.0424,0.163522 c 0.24216,-0.06293 0.52891,0.0099 0.77999,0.180497 0.25073,0.170401 0.44957,0.42888 0.52091,0.69241 0.0786,0.290132 0.1012,0.616077 0.0404,0.872649 -0.0605,0.254914 -0.18618,0.424023 -0.41809,0.484293 -0.10435,0.02712 -0.25737,0.01387 -0.43577,-0.04726 -0.17695,-0.06061 -0.37003,-0.163858 -0.55206,-0.291584 -0.1819,-0.127633 -0.35039,-0.278222 -0.48107,-0.430421 -0.13152,-0.153164 -0.2198,-0.303972 -0.25203,-0.42321 -0.0697,-0.25788 -0.008,-0.468433 0.13653,-0.645629 0.14651,-0.179274 0.38558,-0.320101 0.66127,-0.39175 z m -0.87917,1.059529 c 0.0374,0.138274 0.13236,0.296513 0.26923,0.456024 0.13613,0.158464 0.30942,0.31321 0.49677,0.444668 0.18749,0.131553 0.38652,0.238112 0.57327,0.302076 0.18825,0.06449 0.3555,0.08285 0.48432,0.04937 0.26381,-0.06856 0.41389,-0.272389 0.47893,-0.546541 0.0655,-0.276225 0.041,-0.612942 -0.0408,-0.914236 -0.078,-0.287699 -0.28891,-0.559394 -0.55498,-0.74024 -0.26641,-0.181045 -0.57603,-0.263302 -0.84866,-0.192452 -0.29008,0.07539 -0.54446,0.223271 -0.70544,0.420251 -0.15904,0.194598 -0.22899,0.438801 -0.15256,0.721073 z m -6.96661,1.997504 c -0.31394,0.126567 -0.54233,0.403147 -0.66499,0.716809 -0.12267,0.313663 -0.14237,0.668191 -0.023,0.964305 0.11392,0.282583 0.29769,0.561653 0.53675,0.745766 0.23906,0.184104 0.54425,0.269128 0.86003,0.141819 0.32983,-0.132968 0.58345,-0.526191 0.74256,-0.952173 0.15911,-0.425976 0.22473,-0.887188 0.0997,-1.197517 -0.11965,-0.296792 -0.36557,-0.468606 -0.64816,-0.527336 -0.28257,-0.05873 -0.60293,-0.01257 -0.90283,0.108323 z m 0.0631,0.156594 c 0.27463,-0.110717 0.56564,-0.149436 0.80537,-0.09961 0.23972,0.04983 0.42706,0.179991 0.52589,0.425157 0.0934,0.231633 0.0483,0.674639 -0.10129,1.075176 -0.14961,0.400538 -0.4027,0.756134 -0.64741,0.854788 -0.25877,0.10432 -0.48783,0.03992 -0.69396,-0.118815 -0.20613,-0.158737 -0.37852,-0.415923 -0.48309,-0.675307 -0.0991,-0.245846 -0.0855,-0.561119 0.0234,-0.839685 0.10892,-0.278569 0.31047,-0.516642 0.57107,-0.621702 z m -0.0315,-0.0783 c -0.57454,0.231621 -0.85974,1.029284 -0.64124,1.571249 0.21848,0.541965 0.71237,1.07248 1.28691,0.840857 0.57453,-0.231622 1.01395,-1.497863 0.79545,-2.039827 -0.21848,-0.54196 -0.86658,-0.603902 -1.44112,-0.372279 z m 1.73558,-0.524648 -0.14197,-0.09142 v 2e-6 z m 4.49599,-1.801613 0.0131,-0.168343 v 0 z m 0.0939,-0.07252 0.16609,0.03036 v -2e-6 z m 2.30113,-1.222949 -0.0588,0.158273 8.9e-4,5.33e-4 z m 0.92312,3.372556 -0.14525,-0.08606 v 0 z m -0.004,0.08309 0.15048,-0.07658 v 0 z m -0.68778,5.173413 0.0764,0.150558 2e-5,-7e-6 z m -0.0438,0.05096 0.16077,0.05163 v 0 z m -3.98675,1.625701 0.11304,-0.125424 v 0 z m -0.0836,-0.01945 -0.0473,-0.162096 v 0 z m -4.00348,-3.014461 0.16009,-0.05371 z m -0.0268,-0.03896 0.10399,-0.133 v 0 z m -1.78914,-3.321588 -0.15861,-0.05785 -1.8e-4,0.0013 -1.9e-4,0.0013 z m 2.69724,-0.782235 -0.0729,0.152283 v 0 z m 0.25549,0.05949 c 0.43868,-0.680996 1.85939,-1.922472 4.34063,-1.72474 l 0.0271,-0.336603 c -2.61347,-0.208276 -4.14992,1.100094 -4.65133,1.878505 z m 4.61409,-1.935204 c 0.0592,-0.323601 0.22942,-0.731451 0.55087,-0.989023 0.30927,-0.247815 0.78794,-0.380054 1.52536,-0.106015 l 0.11763,-0.316535 c -0.82757,-0.30754 -1.43588,-0.176128 -1.85415,0.159027 -0.40608,0.325389 -0.60391,0.819811 -0.67189,1.19183 z m 2.0774,-1.094608 c 0.30644,0.11131 0.77722,0.461467 1.03886,1.001253 0.25562,0.527344 0.3174,1.247578 -0.20331,2.126546 l 0.29052,0.172133 c 0.57641,-0.972932 0.52351,-1.812998 0.21669,-2.445959 -0.30082,-0.620511 -0.84014,-1.030691 -1.22746,-1.171364 z m 0.8266,3.373529 c 0.30622,0.601774 0.65122,1.601978 0.66407,2.574052 0.0126,0.967355 -0.30138,1.876549 -1.27779,2.372222 l 0.15288,0.301102 c 1.13189,-0.574596 1.4761,-1.634632 1.46257,-2.677704 -0.0134,-1.038233 -0.37853,-2.089679 -0.70076,-2.722846 z m -0.74186,5.096131 c -0.19165,0.596682 -0.32875,0.982242 -0.53317,1.271513 -0.19739,0.279358 -0.46619,0.479418 -0.94911,0.674106 l 0.12626,0.313193 c 0.52101,-0.210044 0.8521,-0.443532 1.09864,-0.792422 0.23952,-0.338961 0.39039,-0.776311 0.57889,-1.363115 z m -1.48228,1.945619 c -0.29359,0.118359 -0.64245,0.206641 -1.0192,0.173914 -0.37366,-0.03247 -0.78687,-0.184883 -1.21147,-0.567606 l -0.22609,0.250838 c 0.47665,0.429629 0.95819,0.614083 1.40832,0.653185 0.44704,0.03884 0.85099,-0.06663 1.1747,-0.197138 z m -2.47442,-0.449836 c -0.4306,0.125383 -1.12926,0.137783 -1.84275,-0.245753 -0.71003,-0.381655 -1.45179,-1.164928 -1.95344,-2.660304 l -0.32015,0.107406 c 0.52304,1.559228 1.31315,2.420006 2.11372,2.850338 0.79711,0.428485 1.58781,0.420817 2.09703,0.272547 z m -3.87892,-3.024289 c -0.18853,-0.147434 -0.45926,-0.286498 -0.7115,-0.431501 -0.26189,-0.150546 -0.52396,-0.317363 -0.73818,-0.533398 -0.21185,-0.213646 -0.3758,-0.474383 -0.44262,-0.815363 -0.0672,-0.34283 -0.039,-0.781161 0.15881,-1.353154 l -0.31905,-0.110367 c -0.21167,0.612228 -0.25253,1.112416 -0.17104,1.52844 0.0819,0.417852 0.28444,0.736296 0.53422,0.988188 0.24742,0.249529 0.54217,0.434615 0.80966,0.588395 0.27716,0.159317 0.50842,0.277007 0.6718,0.404764 z m -1.73448,-3.130744 c 0.0968,-0.26529 0.33553,-0.618745 0.73118,-0.815133 0.3873,-0.192234 0.95212,-0.247357 1.73451,0.127338 l 0.14585,-0.304563 c -0.85794,-0.410872 -1.53342,-0.371974 -2.0305,-0.125253 -0.48868,0.242568 -0.77835,0.673009 -0.89829,1.001916 z m 1.81743,3.248986 c -0.014,-0.04283 -0.041,-0.0856 -0.083,-0.118252 l -0.20799,0.266011 c -0.0165,-0.01284 -0.0251,-0.02818 -0.0292,-0.04037 z m 7.88103,1.260416 c -0.0592,0.03 -0.10688,0.08367 -0.12814,0.149862 l 0.32152,0.103279 c -0.007,0.02258 -0.0221,0.03866 -0.0405,0.04797 z m 0.62263,-5.192006 c -0.0422,0.07119 -0.0506,0.163825 -0.009,0.245716 l 0.30096,-0.15317 c 0.015,0.02914 0.0105,0.05926 -10e-4,0.07956 z m -4.46372,6.893791 c -0.065,-0.05868 -0.1569,-0.08143 -0.24375,-0.05614 l 0.0944,0.324227 c -0.0282,0.0082 -0.057,5.38e-4 -0.0767,-0.01724 z m 1.27735,-8.716513 c 0.13222,0.01052 0.24992,-0.08167 0.27346,-0.210465 l -0.33218,-0.06072 c 0.007,-0.03997 0.0434,-0.06879 0.0855,-0.06544 z m -4.62452,1.541867 c 0.0224,-0.03468 0.0654,-0.04612 0.1013,-0.0289 l -0.14585,0.304563 c 0.11625,0.05568 0.25784,0.01677 0.3284,-0.09279 z m 3.82636,-4.939497 c -4.40666,0 -7.98633,3.577712 -7.98633,7.984375 0,4.406662 3.57967,7.984375 7.98633,7.984375 4.40666,0 7.98437,-3.577713 7.98437,-7.984375 0,-4.406663 -3.57771,-7.984375 -7.98437,-7.984375 z m 0,0.529296 c 4.12068,0 7.45508,3.334399 7.45508,7.455079 0,4.120679 -3.3344,7.455078 -7.45508,7.455078 -4.12068,0 -7.45703,-3.334399 -7.45703,-7.455078 0,-4.12068 3.33635,-7.455079 7.45703,-7.455079 z m 0,-2.203125 c -5.33124,0 -9.66016,4.326966 -9.66016,9.658204 0,5.331237 4.32892,9.658203 9.66016,9.658203 5.33124,0 9.6582,-4.326966 9.6582,-9.658203 0,-5.331238 -4.32696,-9.658204 -9.6582,-9.658204 z m 0,0.529297 c 5.04525,0 9.12891,4.083652 9.12891,9.128907 0,5.045254 -4.08366,9.130859 -9.12891,9.130859 -5.04525,0 -9.13086,-4.085605 -9.13086,-9.130859 0,-5.045255 4.08561,-9.128907 9.13086,-9.128907 z M 98.64044,47.930448 c -5.460985,0 -9.894487,4.431951 -9.894487,9.892936 0,5.460985 4.433502,9.894487 9.894487,9.894487 1.350652,0 2.63841,-0.271869 3.81165,-0.762744 a 9.6590557,9.6590557 0 0 1 -0.25941,-0.464055 c -1.09524,0.449042 -2.294449,0.697115 -3.55224,0.697115 -5.175002,0 -9.364803,-4.1898 -9.364803,-9.364803 0,-5.175002 4.189801,-9.363769 9.364803,-9.363769 3.48455,0 6.52198,1.89915 8.13439,4.719608 a 9.6590557,9.6590557 0 0 1 0.48731,-0.207222 c -1.69731,-3.008455 -4.92322,-5.041553 -8.6217,-5.041553 z m 0,1.822111 c -4.454878,0 -8.071859,3.615948 -8.071859,8.070825 0,4.454878 3.616981,8.071859 8.071859,8.071859 1.069398,0 2.09071,-0.208598 3.02514,-0.587044 a 9.6590557,9.6590557 0 0 1 -0.1726,-0.499711 c -0.87978,0.359171 -1.842886,0.557588 -2.85254,0.557588 -4.168895,0 -7.542692,-3.373797 -7.542692,-7.542692 0,-4.168895 3.373797,-7.543208 7.542692,-7.543208 2.80478,0 5.2497,1.52712 6.54947,3.79615 a 9.6590557,9.6590557 0 0 1 0.44132,-0.288354 c -1.39664,-2.411574 -4.00561,-4.035413 -6.99079,-4.035413 z m 4.00389,2.904216 c -0.13987,0.0025 -0.27425,0.02495 -0.40256,0.06356 -0.46808,0.140861 -0.81966,0.488175 -1.02836,0.794783 -2.262105,-1.100668 -4.111136,-0.524945 -4.894792,-0.0041 -0.626468,-0.662141 -1.250177,-0.868756 -1.790072,-0.826823 -0.543945,0.04224 -0.97346,0.333558 -1.207678,0.593762 l -5.17e-4,10e-4 -5.17e-4,0.001 h -5.17e-4 c -0.425216,0.488677 -0.650247,0.937072 -0.730188,1.353406 -0.08029,0.418157 -0.01138,0.789195 0.126091,1.116211 0.136181,0.323944 0.340114,0.605882 0.530717,0.848527 0.189827,0.241647 0.35422,0.431774 0.458887,0.605648 -0.09017,1.601134 0.305011,2.677759 0.869197,3.373437 -0.267821,0.03462 -0.509551,0.08654 -0.693498,0.165882 -0.04282,0.01846 -0.06295,0.06776 -0.04444,0.110587 0.01844,0.04282 0.06882,0.06291 0.111621,0.04444 0.182312,-0.07861 0.43748,-0.132069 0.736906,-0.165364 0.0069,-7.62e-4 0.01429,-0.0013 0.02119,-0.0021 0.101038,0.109629 0.206139,0.207366 0.313159,0.295073 -0.124486,0.01926 -0.246391,0.0398 -0.361735,0.06408 -0.301007,0.06335 -0.570015,0.145807 -0.766361,0.253731 -0.04097,0.02253 -0.0558,0.07385 -0.03359,0.114722 0.02214,0.04086 0.07273,0.05612 0.113688,0.03359 0.174533,-0.09592 0.424684,-0.174043 0.719853,-0.236161 0.162146,-0.03413 0.336801,-0.06288 0.517281,-0.08733 0.134303,0.09338 0.269892,0.171838 0.40411,0.236161 -0.312754,0.06018 -0.620416,0.13092 -0.894003,0.214974 -0.294549,0.09048 -0.555535,0.197095 -0.742073,0.322461 -0.03893,0.02615 -0.04981,0.07856 -0.02429,0.117306 0.02546,0.03875 0.07788,0.04938 0.116789,0.02325 0.165854,-0.111471 0.40774,-0.212013 0.696598,-0.300757 0.287607,-0.08836 0.616329,-0.163456 0.951363,-0.225826 0.06087,-0.01133 0.121932,-0.02155 0.182935,-0.03204 0.177013,0.06161 0.345888,0.09906 0.499194,0.117822 0.279213,0.553007 0.648333,0.893156 1.041797,1.092957 0.400092,0.203169 0.814201,0.256831 1.163236,0.256831 0.561755,0 0.956055,-0.09313 1.315166,-0.324528 0.342113,-0.220454 0.642083,-0.561814 1.025263,-1.021643 0.0471,-0.0046 0.0934,-0.01089 0.13901,-0.01757 a 9.6590557,9.6590557 0 0 1 0.0129,-0.343648 c -0.0694,0.01201 -0.1404,0.02201 -0.21394,0.02842 -0.53891,-0.08431 -1.054515,-0.137137 -1.403019,-0.160714 -0.04646,-0.0031 -0.08638,0.03242 -0.08888,0.07906 -0.0026,0.04664 0.03366,0.08678 0.0801,0.08992 0.302142,0.02044 0.734189,0.06382 1.195279,0.130225 -0.37754,0.452192 -0.64266,0.747319 -0.929662,0.932243 -0.287518,0.185289 -0.611553,0.270268 -1.132231,0.270268 -0.316547,0 -0.673076,-0.0484 -1.010274,-0.219625 -0.334409,-0.169823 -0.660875,-0.465546 -0.911572,-0.979269 -0.0073,-0.01487 -0.01602,-0.0288 -0.02584,-0.04186 0.327951,-0.04055 0.626513,-0.06898 0.852144,-0.08423 0.04646,-0.0031 0.08206,-0.04328 0.07958,-0.08992 -0.0026,-0.04665 -0.04248,-0.08169 -0.08888,-0.07855 -0.299676,0.02026 -0.725452,0.06287 -1.180806,0.12764 -0.16662,-0.03176 -0.352491,-0.08982 -0.54467,-0.18035 0.640136,-0.05401 1.280325,-0.06282 1.687236,-0.05323 0.04658,0.0011 0.08588,-0.03603 0.08733,-0.08268 0.0013,-0.04665 -0.0351,-0.08572 -0.08165,-0.08682 -0.109206,-0.0026 -0.235239,-0.0036 -0.373104,-0.0031 -0.41359,0.0015 -0.9363,0.01916 -1.450557,0.06718 -0.04476,0.0042 -0.08925,0.0093 -0.133842,0.01395 -0.119447,-0.07458 -0.238782,-0.162126 -0.355017,-0.2651 0.16463,-0.0072 0.334329,-0.01 0.505395,-0.0093 0.680694,0.0026 1.372644,0.05972 1.801441,0.111621 0.04627,0.0056 0.08845,-0.02762 0.09405,-0.0739 0.0057,-0.0463 -0.02709,-0.08793 -0.07338,-0.09354 -0.434042,-0.05253 -1.133155,-0.110537 -1.821594,-0.113171 -0.227853,-8.61e-4 -0.454146,0.0051 -0.67076,0.0186 -0.0437,-0.04574 -0.08708,-0.09309 -0.129191,-0.14366 -0.515815,-0.619451 -0.910869,-1.623257 -0.817005,-3.197738 0.0026,-0.04498 -0.0062,-0.0946 -0.03256,-0.14056 -0.119742,-0.207238 -0.318949,-0.437309 -0.498677,-0.666109 -0.186601,-0.237545 -0.367337,-0.490547 -0.485242,-0.771012 -0.116609,-0.277359 -0.170945,-0.580158 -0.10542,-0.921391 0.06576,-0.342502 0.255186,-0.73812 0.651123,-1.193726 0.188917,-0.209877 0.542493,-0.448453 0.982886,-0.482657 0.431074,-0.03348 0.975593,0.12682 1.561145,0.766878 0.08701,0.09511 0.232612,0.111889 0.338997,0.03669 0.661499,-0.467575 2.443699,-1.087877 4.671037,0.02325 0.11869,0.05921 0.26229,0.01765 0.33227,-0.09302 0.17585,-0.278016 0.48612,-0.592887 0.88057,-0.711585 0.37943,-0.114181 0.87335,-0.05731 1.45469,0.472323 l 5.2e-4,5.17e-4 h 5.2e-4 c 0.22709,0.204051 0.50917,0.656293 0.57774,1.204061 a 9.6590557,9.6590557 0 0 1 0.29766,-0.255799 c -0.11607,-0.533001 -0.39575,-0.970432 -0.64906,-1.198376 -0.48941,-0.445999 -0.95705,-0.616859 -1.37666,-0.609265 z m 0.11679,0.699182 c -0.22964,0.0012 -0.44872,0.05028 -0.63097,0.150378 -0.23995,0.131843 -0.41606,0.360456 -0.45372,0.675928 -0.0193,0.161831 0.0132,0.353681 0.0832,0.560689 0.0696,0.205712 0.17511,0.419456 0.30334,0.617017 0.12831,0.197697 0.27698,0.376193 0.43408,0.512113 0.15837,0.137029 0.31834,0.22664 0.47543,0.247014 0.029,0.0038 0.0572,0.0049 0.0853,0.0052 a 9.6590557,9.6590557 0 0 1 0.92345,-1.042313 c 0.0165,-0.0757 0.0292,-0.152171 0.0382,-0.227893 0.0383,-0.320841 -0.0621,-0.668218 -0.25166,-0.950847 -0.1897,-0.282937 -0.46358,-0.492547 -0.77412,-0.532817 -0.078,-0.01011 -0.15599,-0.01488 -0.23254,-0.01447 z m -8.20932,0.08372 c -0.338492,0 -0.653645,0.171467 -0.8847,0.416512 -0.231048,0.245045 -0.381889,0.566459 -0.381889,0.885734 0,0.30468 0.06622,0.632312 0.219108,0.892452 0.152894,0.260139 0.40418,0.452685 0.744657,0.452685 0.355614,0 0.737534,-0.269541 1.044381,-0.605131 0.306841,-0.335589 0.540536,-0.738719 0.540536,-1.073319 0,-0.320003 -0.163981,-0.571608 -0.40411,-0.731739 -0.240129,-0.160129 -0.554626,-0.237194 -0.877983,-0.237194 z m 1.973006,3.448368 c -0.344369,0 -0.621667,0.291274 -0.621667,0.644405 0,0.353131 0.277298,0.644922 0.621667,0.644922 0.344377,0 0.621668,-0.291791 0.621668,-0.644922 0,-0.353131 -0.277291,-0.644405 -0.621668,-0.644405 z m 4.093804,0 c -0.34437,0 -0.621664,0.291274 -0.621664,0.644405 0,0.353131 0.277294,0.644922 0.621664,0.644922 0.34437,0 0.62167,-0.291791 0.62167,-0.644922 0,-0.353131 -0.2773,-0.644405 -0.62167,-0.644405 z m -4.173385,0.209806 c 0.06796,0 0.121956,0.05712 0.121956,0.125057 0,0.06794 -0.05399,0.125574 -0.121956,0.125574 -0.06796,0 -0.122473,-0.05763 -0.122473,-0.125574 0,-0.06794 0.0545,-0.125057 0.122473,-0.125057 z m 4.093805,0 c 0.068,0 0.12196,0.05712 0.12196,0.125057 0,0.06794 -0.054,0.125574 -0.12196,0.125574 -0.068,0 -0.12247,-0.05763 -0.12247,-0.125574 0,-0.06794 0.0545,-0.125057 0.12247,-0.125057 z m -1.913577,2.266529 c -0.484175,0 -0.721475,0.184246 -0.789099,0.407727 -0.0321,0.106185 -0.02277,0.212508 0.01137,0.295072 0.03101,0.075 0.09803,0.161231 0.197921,0.161231 0.06727,0 0.132522,0.01146 0.17725,0.03049 0.03695,0.01574 0.04238,0.02747 0.04289,0.02894 -0.007,0.179994 0.04658,0.292405 0.141593,0.350883 0.08353,0.05142 0.184962,0.04705 0.21394,0.04858 0.100732,0.0054 0.210162,-0.0069 0.290939,-0.07545 0.08316,-0.07063 0.114054,-0.181553 0.103353,-0.321945 3.06e-4,-0.0015 0.0031,-0.0105 0.0217,-0.02222 0.0284,-0.0178 0.09,-0.03927 0.21239,-0.03927 0.05105,0 0.09195,-0.02723 0.119372,-0.05529 0.02833,-0.02901 0.05098,-0.06679 0.06666,-0.107487 0.0314,-0.0815 0.04097,-0.188118 0.0078,-0.294556 -0.06992,-0.224241 -0.312809,-0.406693 -0.818038,-0.406693 z m 2.558497,1.149283 c -0.64386,0.0089 -1.281403,0.06147 -1.687232,0.110588 -0.04627,0.0056 -0.07897,0.04777 -0.07338,0.09405 0.0057,0.04628 0.04773,0.07898 0.09405,0.07338 0.395914,-0.04792 1.016242,-0.09926 1.644862,-0.109038 a 9.6590557,9.6590557 0 0 1 0.0217,-0.168982 z m -1.299142,0.360185 c -0.137866,-5.06e-4 -0.263374,10e-4 -0.372587,0.0036 -0.04658,0.0011 -0.08361,0.03965 -0.08217,0.0863 0.0013,0.04665 0.04073,0.08327 0.08733,0.08217 0.38814,-0.0091 0.988689,-0.0011 1.598869,0.04651 a 9.6590557,9.6590557 0 0 1 0.0186,-0.166914 c -0.4476,-0.03513 -0.89023,-0.05036 -1.250053,-0.05168 z" /></g></g></g></svg>
