<svg viewBox="0 0 900 613" xmlns="http://www.w3.org/2000/svg">
<path d="M50.994 269.276L44.9914 257.039L23.9941 266.219L50.994 198.901L77.994 266.219L56.9884 257.039L50.994 269.276ZM51.003 198.902L45 189.722L51.003 174.419L56.9974 189.722L51.003 198.902ZM51.0026 198.902L42.0026 205.016L27 198.902L42.0026 192.779L51.0026 198.902ZM50.994 198.902L59.994 192.779L74.9884 198.902L59.994 205.016L50.994 198.902ZM50.994 97.9153L44.9914 85.6782L23.9941 94.8582L50.994 27.5405L77.994 94.8582L56.9884 85.6782L50.994 97.9153ZM51.003 27.5417L45 18.3616L51.003 3.05859L56.9974 18.3616L51.003 27.5417ZM51.0026 27.5419L42.0026 33.6561L27 27.5419L42.0026 21.419L51.0026 27.5419ZM50.994 27.5419L59.994 21.419L74.9884 27.5419L59.994 33.6561L50.994 27.5419ZM101.988 186.659L95.9854 174.421L74.9884 183.601L101.988 116.284L128.988 183.601L107.983 174.421L101.988 186.659ZM101.997 116.285L95.994 107.105L101.997 91.8018L107.991 107.105L101.997 116.285ZM101.997 116.285L92.997 122.399L77.994 116.285L92.997 110.162L101.997 116.285ZM101.988 116.285L110.988 110.162L125.983 116.285L110.988 122.399L101.988 116.285ZM153 269.276L146.997 257.039L126 266.219L153 198.901L180 266.219L158.994 257.039L153 269.276ZM153.009 198.902L147.006 189.722L153.009 174.419L159.003 189.722L153.009 198.902ZM153.009 198.902L144.009 205.016L129.006 198.902L144.009 192.779L153.009 198.902ZM153 198.902L162 192.779L176.994 198.902L162 205.016L153 198.902ZM153 97.9153L146.997 85.6782L126 94.8582L153 27.5405L180 94.8582L158.994 85.6782L153 97.9153ZM153.009 27.5417L147.006 18.3616L153.009 3.05859L159.003 18.3616L153.009 27.5417ZM153.009 27.5419L144.009 33.6561L129.006 27.5419L144.009 21.419L153.009 27.5419ZM153 27.5419L162 21.419L176.994 27.5419L162 33.6561L153 27.5419ZM203.994 186.659L197.991 174.421L176.994 183.601L203.994 116.284L230.994 183.601L209.988 174.421L203.994 186.659ZM204.003 116.285L198 107.105L204.003 91.8018L209.997 107.105L204.003 116.285ZM204.003 116.285L195.003 122.399L180 116.285L195.003 110.162L204.003 116.285ZM203.994 116.285L212.994 110.162L227.988 116.285L212.994 122.399L203.994 116.285ZM257.994 99.5281L251.991 87.291L230.994 96.471L257.994 29.1533L284.994 96.471L263.988 87.291L257.994 99.5281ZM258.003 29.1545L252 19.9744L258.003 4.6714L263.997 19.9744L258.003 29.1545ZM258.003 29.1547L249.003 35.269L234 29.1547L249.003 23.0318L258.003 29.1547ZM257.994 29.1547L266.994 23.0318L281.988 29.1547L266.994 35.269L257.994 29.1547ZM356.994 97.9153L350.991 85.6782L329.994 94.8582L356.994 27.5405L383.994 94.8582L362.988 85.6782L356.994 97.9153ZM357.003 27.5417L351 18.3616L357.003 3.05859L362.999 18.3616L357.003 27.5417ZM357.003 27.5419L348.003 33.6561L333 27.5419L348.003 21.419L357.003 27.5419ZM356.994 27.5419L365.994 21.419L380.988 27.5419L365.994 33.6561L356.994 27.5419ZM254.988 269.276L248.985 257.039L227.988 266.219L254.988 198.901L281.988 266.219L260.983 257.039L254.988 269.276ZM254.997 198.902L248.994 189.722L254.997 174.419L260.991 189.722L254.997 198.902ZM254.997 198.902L245.997 205.016L230.994 198.902L245.997 192.779L254.997 198.902ZM254.988 198.902L263.988 192.779L278.983 198.902L263.988 205.016L254.988 198.902ZM356.994 269.276L350.991 257.039L329.994 266.219L356.994 198.901L383.994 266.219L362.988 257.039L356.994 269.276ZM357.003 198.902L351 189.722L357.003 174.419L362.999 189.722L357.003 198.902ZM357.003 198.902L348.003 205.016L333 198.902L348.003 192.779L357.003 198.902ZM356.994 198.902L365.994 192.779L380.988 198.902L365.994 205.016L356.994 198.902ZM306 186.659L299.997 174.421L279 183.601L306 116.284L333 183.601L311.994 174.421L306 186.659ZM306.009 116.285L300.006 107.105L306.009 91.8018L312.003 107.105L306.009 116.285ZM306.009 116.285L297.009 122.399L282.006 116.285L297.009 110.162L306.009 116.285ZM306 116.285L315 110.162L329.994 116.285L315 122.399L306 116.285ZM900 550.807H0V612.007H900V550.807ZM900 413.104H0V474.304H900V413.104ZM900 275.401H0V336.601H900V275.401ZM900 137.703H408.006V198.903H900V137.703ZM900 0H408.006V61.2H900V0Z" fill="black"/>
</svg>
