<?xml version="1.0" encoding="UTF-8" standalone="no"?>
<svg
   width="1000"
   height="1000"
   viewBox="0 0 1000 1000"
   fill="none"
   version="1.1"
   id="svg247"
   sodipodi:docname="drapeauBreton.svg"
   inkscape:version="1.2.1 (9c6d41e, 2022-07-14)"
   xmlns:inkscape="http://www.inkscape.org/namespaces/inkscape"
   xmlns:sodipodi="http://sodipodi.sourceforge.net/DTD/sodipodi-0.dtd"
   xmlns="http://www.w3.org/2000/svg"
   xmlns:svg="http://www.w3.org/2000/svg">
  <sodipodi:namedview
     id="namedview365"
     pagecolor="#ffffff"
     bordercolor="#111111"
     borderopacity="1"
     inkscape:showpageshadow="0"
     inkscape:pageopacity="0"
     inkscape:pagecheckerboard="1"
     inkscape:deskcolor="#d1d1d1"
     showgrid="false"
     inkscape:zoom="0.19420365"
     inkscape:cx="288.35709"
     inkscape:cy="1019.5483"
     inkscape:window-width="1680"
     inkscape:window-height="1050"
     inkscape:window-x="0"
     inkscape:window-y="0"
     inkscape:window-maximized="0"
     inkscape:current-layer="svg247" />
  <g
     id="g623"
     transform="matrix(36,0,0,36,50,194)">
    <g
       clip-path="url(#clip0_2890_63317)"
       id="g240">
      <path
         id="path724"
         d="M 1.4165,7.47988 1.24976,7.13996 0.666504,7.39496 1.4165,5.52502 2.1665,7.39496 1.58301,7.13996 Z M 1.41675,5.52506 1.25,5.27005 1.41675,4.84497 1.58326,5.27005 Z m -10e-6,0 -0.25,0.16984 L 0.75,5.52506 1.16674,5.35498 Z m -2.4e-4,0 0.25,-0.17008 L 2.08301,5.52506 1.6665,5.6949 Z m 0,-2.80519 L 1.24976,2.37995 0.666504,2.63495 1.4165,0.765015 2.1665,2.63495 1.58301,2.37995 Z M 1.41675,0.765048 1.25,0.510045 1.41675,0.0849609 1.58326,0.510045 Z m -10e-6,4e-6 -0.25,0.169841 L 0.75,0.765052 1.16674,0.594971 Z m -2.4e-4,0 0.25,-0.170081 L 2.08301,0.765052 1.6665,0.934893 Z M 2.83301,5.18496 2.66626,4.84503 2.08301,5.10004 2.83301,3.2301 3.58301,5.10004 2.99952,4.84503 Z M 2.83325,3.23014 2.6665,2.97513 2.83325,2.55005 2.99976,2.97513 Z m 0,0 -0.25,0.16984 L 2.1665,3.23014 2.58325,3.06006 Z m -2.4e-4,0 0.25,-0.17008 0.41651,0.17008 -0.41651,0.16984 z M 4.25,7.47988 4.08325,7.13996 3.5,7.39496 4.25,5.52502 5,7.39496 4.41651,7.13996 Z M 4.25024,5.52506 4.0835,5.27005 4.25024,4.84497 4.41675,5.27005 Z m 0,0 -0.25,0.16984 L 3.5835,5.52506 4.00024,5.35498 Z m -2.4e-4,0 L 4.5,5.35498 4.91651,5.52506 4.5,5.6949 Z M 4.25,2.71987 4.08325,2.37995 3.5,2.63495 4.25,0.765015 5,2.63495 4.41651,2.37995 Z M 4.25024,0.765048 4.0835,0.510045 4.25024,0.0849609 4.41675,0.510045 Z m 0,4e-6 -0.25,0.169841 L 3.5835,0.765052 4.00024,0.594971 Z m -2.4e-4,0 L 4.5,0.594971 4.91651,0.765052 4.5,0.934893 Z M 5.6665,5.18496 5.49976,4.84504 4.9165,5.10004 5.6665,3.2301 6.4165,5.10004 5.83301,4.84504 Z M 5.66675,3.23014 5.5,2.97513 5.66675,2.55005 5.83325,2.97513 Z m 0,0 -0.25,0.16984 L 5,3.23014 5.41675,3.06006 Z m -2.5e-4,0 0.25,-0.17008 0.41651,0.17008 -0.41651,0.16984 z m 1.5,-0.46547 -0.16674,-0.33992 -0.58326,0.255 0.75,-1.869936 0.75,1.869936 -0.58349,-0.255 z M 7.16675,0.809847 7,0.554845 7.16675,0.129761 7.33325,0.554845 Z m 0,5e-6 -0.25,0.169842 L 6.5,0.809852 6.91675,0.639771 Z m -2.5e-4,0 0.25,-0.170081 0.41651,0.170081 -0.41651,0.169842 z m 2.75,1.910018 -0.16674,-0.33992 -0.58326,0.255 0.75,-1.869935 0.75,1.869935 -0.5835,-0.255 z M 9.91675,0.765048 9.75,0.510045 9.91675,0.0849609 10.0833,0.510045 Z m 0,4e-6 -0.25,0.169841 L 9.25,0.765052 9.66675,0.594971 Z m -2.5e-4,0 0.25,-0.170081 0.4165,0.170081 -0.4165,0.169841 z M 7.08301,7.47988 6.91626,7.13996 l -0.58325,0.255 0.75,-1.86994 0.75,1.86994 -0.58349,-0.255 z M 7.08325,5.52506 6.9165,5.27005 7.08325,4.84497 7.24976,5.27005 Z m 0,0 -0.25,0.16984 L 6.4165,5.52506 6.83325,5.35498 Z m -2.4e-4,0 0.25,-0.17008 L 7.74952,5.52506 7.33301,5.6949 Z M 9.9165,7.47989 9.74976,7.13996 l -0.58326,0.255 0.75,-1.86994 0.75,1.86994 -0.5835,-0.255 z M 9.91675,5.52506 9.75,5.27005 9.91675,4.84497 10.0833,5.27005 Z m 0,0 -0.25,0.16984 L 9.25,5.52506 9.66675,5.35498 Z m -2.5e-4,0 0.25,-0.17008 0.4165,0.17008 -0.4165,0.16984 z M 8.5,5.18496 8.33325,4.84504 7.75,5.10004 8.5,3.2301 9.25,5.10004 8.66651,4.84504 Z M 8.50024,3.23014 8.3335,2.97513 8.50024,2.55005 8.66675,2.97513 Z m 0,0 -0.25,0.16984 L 7.8335,3.23014 8.25024,3.06006 Z M 8.5,3.23014 8.75,3.06006 9.16651,3.23014 8.75,3.39998 Z M 25,15.3002 H 0 v 1.7 h 25 z m 0,-3.8251 H 0 v 1.7 H 25 Z M 25,7.65002 H 0 v 1.7 H 25 Z M 25,3.82507 H 11.3335 v 1.7 H 25 Z M 25,0 H 11.3335 V 1.7 H 25 Z"
         style="fill:#000000" />
    </g>
  </g>
  <defs
     id="defs245">
    <clipPath
       id="clip0_2890_63317">
      <rect
         width="25"
         height="17"
         fill="#ffffff"
         id="rect242"
         x="0"
         y="0" />
    </clipPath>
  </defs>
</svg>
