<?xml version="1.0" encoding="UTF-8" standalone="no"?>
<svg
   width="1000"
   height="1000"
   viewBox="0 0 1000 1000"
   fill="none"
   version="1.1"
   id="svg39"
   sodipodi:docname="epicerie.svg"
   inkscape:version="1.2.1 (9c6d41e, 2022-07-14)"
   xmlns:inkscape="http://www.inkscape.org/namespaces/inkscape"
   xmlns:sodipodi="http://sodipodi.sourceforge.net/DTD/sodipodi-0.dtd"
   xmlns="http://www.w3.org/2000/svg"
   xmlns:svg="http://www.w3.org/2000/svg">
  <sodipodi:namedview
     id="namedview3954"
     pagecolor="#ffffff"
     bordercolor="#111111"
     borderopacity="1"
     inkscape:showpageshadow="0"
     inkscape:pageopacity="0"
     inkscape:pagecheckerboard="1"
     inkscape:deskcolor="#d1d1d1"
     showgrid="false"
     inkscape:zoom="0.1531069"
     inkscape:cx="-2191.2794"
     inkscape:cy="52.251074"
     inkscape:window-width="1309"
     inkscape:window-height="456"
     inkscape:window-x="246"
     inkscape:window-y="1228"
     inkscape:window-maximized="0"
     inkscape:current-layer="svg39" />
  <defs
     id="defs43" />
  <g
     id="g235"
     transform="matrix(10.489211,0,0,10.489211,87.784782,1.5888604e-5)">
    <g
       id="path9" />
    <g
       id="path11" />
    <path
       id="path37"
       style="color:#000000;fill:#000000;stroke-linecap:round;stroke-miterlimit:10;-inkscape-stroke:none"
       d="m 28.052734,75.103516 a 1.5,1.5 0 0 0 -1.5,1.5 1.5,1.5 0 0 0 1.5,1.5 h 14.136719 a 1.5,1.5 0 0 0 1.5,-1.5 1.5,1.5 0 0 0 -1.5,-1.5 z M 18.576172,17.310547 a 1.5,1.5 0 0 0 -1.5,1.5 1.5,1.5 0 0 0 1.5,1.5 h 18.701172 a 1.5,1.5 0 0 0 1.5,-1.5 1.5,1.5 0 0 0 -1.5,-1.5 z m 10.255859,64.707031 a 1.5,1.5 0 0 0 -1.5,1.5 1.5,1.5 0 0 0 1.5,1.5 h 10.498047 a 1.5,1.5 0 0 0 1.5,-1.5 1.5,1.5 0 0 0 -1.5,-1.5 z M 16.763672,10.005859 a 1.5,1.5 0 0 0 -1.5,1.5 1.5,1.5 0 0 0 1.5,1.5 h 24.714844 a 1.5,1.5 0 0 0 1.5,-1.5 1.5,1.5 0 0 0 -1.5,-1.5 z m 21.132812,21.248047 v 32.259766 h 3 V 31.253906 Z m -4.617187,0 v 32.259766 h 3 V 31.253906 Z m -4.523438,0.34961 v 32.246093 h 3 V 31.603516 Z m 15.433594,-0.962891 a 1.5,1.5 0 0 0 -1.5,1.5 v 6.255859 a 1.5,1.5 0 0 0 1.5,1.5 1.5,1.5 0 0 0 1.5,-1.5 v -6.255859 a 1.5,1.5 0 0 0 -1.5,-1.5 z M 23.869141,30.103516 v 11.810546 a 1.5,1.5 0 0 0 1.5,1.5 1.5,1.5 0 0 0 1.5,-1.5 v -8.810546 h 3.386718 4.523438 4.61914 3.785157 a 1.5,1.5 0 0 0 1.5,-1.5 1.5,1.5 0 0 0 -1.5,-1.5 h -3.785157 -4.61914 -4.523438 z M 26.5625,61.798828 a 1.5,1.5 0 0 0 -1.5,1.5 1.5,1.5 0 0 0 1.5,1.5 h 3.691406 4.525391 4.617187 1.919922 a 1.5,1.5 0 0 0 1.5,-1.5 1.5,1.5 0 0 0 -1.5,-1.5 H 39.396484 34.779297 30.253906 Z M 44.189453,46.052734 a 1.5,1.5 0 0 0 -1.5,1.5 v 1.179688 a 1.5,1.5 0 0 0 1.5,1.5 1.5,1.5 0 0 0 1.5,-1.5 v -1.179688 a 1.5,1.5 0 0 0 -1.5,-1.5 z M 37.279297,0 34.638672,3.2382813 31.654297,0.10742187 28.925781,3.4746094 25.914062,0.17578125 22.90625,3.3476563 19.853516,0.24023438 15.263672,4.890625 v 6.798828 l 1.798828,7.302734 v 15.484375 a 1.5,1.5 0 0 0 1.5,1.5 1.5,1.5 0 0 0 1.5,-1.5 V 18.626953 L 18.263672,11.324219 V 6.1210937 l 1.583984,-1.6054687 3.097656,3.1503906 2.925782,-3.0859375 3.189453,3.4941407 2.77539,-3.4277344 2.976563,3.125 2.460937,-3.015625 2.689454,3.3203125 3.179687,-3.4960938 2.9375,3.0820313 3.09375,-3.1464844 0.982422,0.9960937 a 1.5,1.5 0 0 0 2.123047,0.015625 1.5,1.5 0 0 0 0.01367,-2.1230468 L 49.167969,0.24023438 46.113281,3.3496094 43.089844,0.17578125 40.09375,3.4726563 Z m -2.789063,86.998047 -2.763672,3.144531 -1.074218,-1.179687 a 1.5,1.5 0 0 0 -2.119141,-0.09766 1.5,1.5 0 0 0 -0.09961,2.119141 l 3.330078,3.654297 2.738281,-3.111328 2.755859,3.101562 3.177735,-3.466797 a 1.5,1.5 0 0 0 -0.0918,-2.11914 1.5,1.5 0 0 0 -2.121094,0.0918 l -0.93164,1.017578 z M 9.9804688,33.476562 c -1.2559555,0.0044 -2.4596046,0.504653 -3.3476563,1.392579 -0.8879252,0.888051 -1.3901013,2.093654 -1.3945313,3.349609 v 0.002 2.759766 h -1.4902343 -0.00781 c -0.486725,0.0073 -0.952966,0.205133 -1.296875,0.548828 -0.3436946,0.343909 -0.5395786,0.808207 -0.546875,1.294922 v 0.0078 5.09961 0.0039 c 0.00386,0.486669 0.2016313,0.950453 0.5449219,1.294922 0.1270524,0.131803 0.2868581,0.222841 0.4472656,0.310547 v 0.84375 0.002 c 0.00119,0.733115 0.1970162,1.452641 0.5664062,2.085937 0.2327352,0.400291 0.6147823,0.67022 0.9609375,0.972656 L 0.00585938,92.96875 v 0.01758 c -0.03754572,0.501504 0.12150416,1.00008 0.44335937,1.386719 l 0.0214844,0.02539 0.0214844,0.02344 c 0.18800702,0.197545 0.42732204,0.332902 0.68164055,0.425781 0.228187,0.100365 0.4707939,0.167255 0.7207031,0.166016 H 29.033203 c 0.258041,7.2e-4 0.509999,-0.06442 0.744141,-0.171875 0.24177,-0.09969 0.46464,-0.243527 0.640625,-0.4375 l 0.01563,-0.01563 0.01367,-0.01563 c 0.321606,-0.386588 0.48068,-0.885461 0.443359,-1.386719 l -0.002,-0.01758 L 30.537109,89.863281 29.826172,83.40625 29.046875,76.490234 27.556641,63.1875 26.464844,53.380859 c 0.355671,-0.302146 0.75023,-0.567672 0.986328,-0.974609 0.371719,-0.626404 0.57823,-1.336174 0.595703,-2.064453 v -0.01172 -0.998047 c 0.142522,-0.08167 0.327305,-0.06949 0.445312,-0.1875 0.343936,-0.343936 0.539583,-0.808497 0.546875,-1.294922 v -0.0078 -5.076172 -0.0078 c -0.0073,-0.486425 -0.202939,-0.952939 -0.546875,-1.296875 -0.343935,-0.343935 -0.810449,-0.539582 -1.296875,-0.546875 h -0.0078 -1.53125 v -2.693359 -0.002 C 25.651862,36.962839 25.151775,35.757209 24.263684,34.869118 23.375666,33.9811 22.169956,33.48097 20.914074,33.476539 H 9.9824219 Z m 13.0527342,2.605469 0.0078,0.0098 c -4.42e-4,-4.43e-4 -0.0015,4.42e-4 -0.002,0 -0.0027,-0.0027 -0.0031,-0.0071 -0.0059,-0.0098 z M 9.984375,37.208984 h 10.927734 c 0.267924,8.99e-4 0.525259,0.107039 0.714844,0.296875 l 0.0039,0.0039 0.0059,0.0039 c 0.09257,0.09033 0.165108,0.198504 0.214843,0.318359 0.04975,0.119891 0.07554,0.248974 0.07422,0.378906 v 0.0059 2.763672 H 8.9707031 v -2.757813 c 0,-0.269355 0.1065609,-0.526533 0.296875,-0.716797 v -0.002 C 9.4578418,37.313592 9.7150197,37.208984 9.984375,37.208984 Z M 5.6269531,44.630859 H 25.28125 v 1.371094 H 5.6269531 Z m 0.9941406,5.277344 H 24.273437 v 0.412109 l 0.002,0.0039 c 3.63e-4,0.05729 -0.01137,0.114436 -0.0332,0.167968 -0.02077,0.05093 -0.05179,0.09508 -0.08984,0.134766 -0.08444,0.08137 -0.195443,0.12726 -0.3125,0.126953 H 7.0566406 c -0.055285,5.9e-5 -0.1108727,-0.01202 -0.1621094,-0.0332 -0.051496,-0.02128 -0.097659,-0.05081 -0.1367187,-0.08984 l -0.00391,-0.0039 -0.00195,-0.002 c -0.040985,-0.04026 -0.07505,-0.08894 -0.097656,-0.142578 -0.022319,-0.05306 -0.032802,-0.109313 -0.033203,-0.166016 v -0.002 z M 24.359375,52.541016 24.375,52.6875 h -0.376953 c 0.133855,-0.0096 0.232014,-0.115501 0.361328,-0.146484 z M 6.5195312,52.646484 c 0.067642,0.01566 0.1343627,0.03123 0.203125,0.04102 H 6.515625 Z M 8.0332031,54.6875 H 22.876953 l 1.548828,13.894531 H 6.5214844 Z M 6.125,72.3125 h 18.683594 l 0.492187,4.400391 0.751953,6.912109 0.738282,6.714844 0.117187,1.033203 -22.9101561,-0.05859 z m 23.418414,17.661208 -0.7115,-6.4572 -0.7786,-6.9137 -1.4902,-13.3039 -1.1411,-10.243 c 0.4856,-0.2734 0.889,-0.6721 1.168,-1.1545 0.2858,-0.48 0.443,-1.0256 0.4564,-1.5841 v -1.6244 h 0.1343 c 0.2268,-0.0035 0.4433,-0.0951 0.6037,-0.2555 0.1604,-0.1604 0.252,-0.3769 0.2554,-0.6037 v -5.0611 c -0.0034,-0.2268 -0.095,-0.4433 -0.2554,-0.6037 -0.1604,-0.1604 -0.3769,-0.252 -0.6037,-0.2554 h -2.5239 v -3.6918 c -0.0035,-0.9923 -0.3992,-1.9429 -1.1009,-2.6446 -0.7016,-0.7016 -1.6523,-1.0974 -2.6445,-1.1009 H 9.9837145 c -0.9923,0.0035 -1.9429,0.3993 -2.6446,1.1009 -0.7016,0.7017 -1.0974,1.6523 -1.1009,2.6446 v 3.7589 h -2.4836 c -0.2267,0.0034 -0.4433,0.0951 -0.6037,0.2554 -0.1603,0.1604 -0.252,0.377 -0.2554,0.6038 v 5.0879 c 0.0018,0.2272 0.0935,0.4444 0.255,0.6041 0.0772,0.0825 0.1709,0.1479 0.275,0.1918 0.104,0.0439 0.2162,0.0655 0.3291,0.0633 h 0.1343 v 1.5975 c 9e-4,0.5567 0.1491,1.1032 0.4296,1.5841 0.2761,0.4756 0.6688,0.8729 1.1411,1.1545 l -4.457,39.9384 c -0.0182,0.2431 0.0588,0.4838 0.2148,0.6712 0.0887,0.0932 0.1996,0.1624 0.3222,0.2014 0.1085,0.0536 0.228,0.0812 0.349,0.0806 H 29.033314 c 0.121,6e-4 0.2405,-0.027 0.349,-0.0806 0.113,-0.0429 0.2142,-0.1119 0.2954,-0.2014 0.1559,-0.1874 0.2329,-0.4281 0.2148,-0.6712 z m -21.5733995,-51.752 c 0,-0.5341 0.2121,-1.0463 0.5898,-1.4239 0.3776,-0.3777 0.8898,-0.5898 1.4239,-0.5898 H 20.911414 c 0.5338,4e-4 1.0457,0.2129 1.423,0.5907 0.1895,0.1849 0.3395,0.4064 0.441,0.651 0.1015,0.2446 0.1524,0.5072 0.1497,0.772 v 3.7589 H 7.9700145 Z m -3.3428,8.7797 v -3.3696 H 26.281214 v 3.3696 z m 20.6471995,1.9063 v 1.4096 c 0.0012,0.1891 -0.035,0.3765 -0.1064,0.5516 -0.0714,0.1751 -0.1767,0.3344 -0.3098,0.4687 -0.2721,0.2675 -0.6387,0.4171 -1.0203,0.4161 H 7.0571145 c -0.1869,2e-4 -0.3721,-0.0365 -0.5448,-0.1079 -0.1728,-0.0714 -0.3298,-0.1761 -0.462,-0.3082 -0.1356,-0.1332 -0.2433,-0.292 -0.3171,-0.4671 -0.0737,-0.1752 -0.112,-0.3632 -0.1125,-0.5532 v -1.4096 z m -18.1366995,4.7792 H 23.770814 l 1.7721,15.8948 H 5.4059145 Z m -4.2557,38.6227 2.3494,-20.9962 H 25.704014 l 0.5906,5.2894 0.7518,6.9137 0.7384,6.7123 0.2416,2.1479 z M 55.439453,0.11523437 C 54.740603,0.1141352 54.048457,0.25119786 53.402344,0.51757812 52.755638,0.78420275 52.167152,1.1760611 51.671875,1.6699219 50.967319,2.37271 50.471192,3.2569424 50.238281,4.2246094 l -0.002,0.00977 -0.002,0.00977 c -0.08462,0.3860458 -0.128671,0.7805638 -0.130859,1.1757813 v 0.00195 2.171875 h -0.664063 -0.002 c -3.148336,-0.00427 -6.196515,1.1108091 -8.599609,3.1445313 l -0.0059,0.0039 c -6.89e-4,5.84e-4 -0.0013,0.0014 -0.002,0.002 L 40.5,11.019531 l -0.01367,0.01172 c -2.210534,1.98825 -3.685502,4.664314 -4.191406,7.59375 -0.0701,0.311468 -0.121313,0.627024 -0.148438,0.945312 -0.346471,3.28438 0.538022,6.582157 2.482422,9.251954 1.064414,1.478778 2.429449,2.714403 4.003906,3.630859 0.354246,0.231878 0.729186,0.430946 1.119141,0.595703 0.668083,0.31933 1.383766,0.513482 2.095703,0.712891 v 3.460937 H 45.21875 c -0.460476,-0.0042 -0.917956,0.07567 -1.351563,0.230469 -0.605627,0.199353 -1.157749,0.535665 -1.607421,0.988281 -0.386764,0.387422 -0.693193,0.847475 -0.902344,1.353516 -0.209075,0.506043 -0.316933,1.048163 -0.316406,1.595703 v 3.167969 c 10e-4,1.01645 0.370231,2.000009 1.039062,2.765625 h 0.002 v 0.002 c 0.340835,0.387351 0.81292,0.60563 1.269531,0.83789 -0.0085,0.01435 -0.0149,0.02259 -0.02344,0.03711 -2.007933,3.203267 -3.163974,6.867129 -3.359375,10.642578 l -0.002,0.02344 v 0.02539 c -0.0055,1.526139 0.118057,3.050334 0.363281,4.556641 0.336819,2.392528 1.21299,4.65809 2.447266,6.728515 -0.330155,0.27311 -0.724949,0.471906 -0.958985,0.835938 l -0.0059,0.0078 -0.0059,0.0098 c -0.406889,0.660018 -0.624451,1.417799 -0.63086,2.193359 v 0.0039 3.388671 0.01563 c 0.0096,0.318059 0.177464,0.598832 0.257813,0.904297 -0.760985,0.351557 -1.463832,0.817144 -1.982422,1.488282 -0.732048,0.941729 -1.131333,2.100159 -1.134766,3.292968 v 0.002 8.927735 0.01367 c 0.02772,1.090127 0.480762,2.127423 1.261719,2.888672 0.780993,0.761284 1.829302,1.185941 2.919922,1.185546 h 29.736328 0.002 c 1.098939,-0.0034 2.151826,-0.442555 2.929688,-1.21875 2.63e-4,-2.58e-4 0.0017,2.59e-4 0.002,0 0.390415,-0.383999 0.700438,-0.840474 0.912109,-1.345703 0.212766,-0.507527 0.323194,-1.053194 0.322266,-1.603515 v -0.002 -8.914063 -0.0039 c -0.0071,-1.183183 -0.407866,-2.329717 -1.136719,-3.261719 -0.521569,-0.66683 -1.221751,-1.1338 -1.980469,-1.488281 0.08181,-0.327382 0.256021,-0.630603 0.257813,-0.970703 v -0.002 -3.31836 l -0.002,0.0098 c 0.0086,-0.78594 -0.204311,-1.557531 -0.617188,-2.226563 l -0.0098,-0.01563 -0.0098,-0.01367 c -0.242693,-0.364329 -0.636444,-0.573271 -0.972656,-0.847656 1.229895,-2.018566 2.777343,-5.516922 2.777343,-11.257812 0,-4.36465 -1.949277,-8.177672 -3.410156,-10.615235 0.48427,-0.237938 0.928969,-0.551353 1.291016,-0.96289 0.6835,-0.756227 1.061136,-1.740256 1.058593,-2.759766 v -0.002 -3.138672 c 0,-1.105125 -0.439274,-2.165837 -1.220703,-2.947266 -0.781428,-0.781428 -1.84214,-1.220703 -2.947265,-1.220703 h -0.62294 V 33.6875 c 2.868743,-0.821042 5.442068,-2.463838 7.201172,-4.894531 1.9291,-2.665442 2.808218,-5.950132 2.466797,-9.222657 -0.341424,-3.272546 -1.878676,-6.30388 -4.316407,-8.513671 C 71.771257,8.8468523 68.602755,7.6133123 65.3125,7.59375 H 65.3086 64.628912 V 5.421875 5.4199219 C 64.624599,4.7190878 64.481024,4.024541 64.208984,3.3789063 63.936777,2.7331647 63.539503,2.1486459 63.041016,1.65625 62.542479,1.1639148 61.951916,0.77393035 61.302734,0.50976562 60.655445,0.2463087 59.964355,0.11166358 59.265625,0.11523437 h -3.824219 z m 6.3125,2.73437503 0.04883,0.044922 c -0.0091,-0.00914 -0.02209,-0.012453 -0.03125,-0.021484 -0.0073,-0.00658 -0.01017,-0.016916 -0.01758,-0.023437 z m -6.3125,0.984375 h 3.820313 c 0.421561,0.00206 0.824035,0.1715737 1.121093,0.4707031 l 0.02344,0.023437 0.02539,0.021484 c 0.157789,0.1389383 0.285401,0.3096219 0.375,0.5 0.0884,0.1878178 0.137039,0.3922892 0.144532,0.5996093 V 7.59375 H 53.833984 V 5.4453125 c 0.0083,-0.4279382 0.18008,-0.8358883 0.478516,-1.1425781 0.299735,-0.2988545 0.703467,-0.4674779 1.126953,-0.46875 z M 44.164062,10.636719 c -0.0029,0.0014 -0.0049,0.0044 -0.0078,0.0059 -0.0037,0.0019 -0.008,0.002 -0.01172,0.0039 z m 5.300782,0.701172 h 15.80664 c 2.497619,0.08871 4.862134,1.143084 6.597657,2.941406 1.735622,1.79833 2.705078,4.199935 2.705078,6.699219 0,2.499283 -0.969456,4.898935 -2.705078,6.697265 -1.735523,1.798322 -4.100038,2.852691 -6.597657,2.941406 H 49.441406 49.4375 c -2.557076,-0.009 -5.005891,-1.033812 -6.808594,-2.847656 -1.803587,-1.81193 -2.821462,-4.259983 -2.835937,-6.816406 -4e-6,-6.5e-4 3e-6,-0.0013 0,-0.002 0.0018,-0.645212 0.06993,-1.287098 0.205078,-1.917969 L 40,19.029297 v -0.0039 c 0.380056,-1.843578 1.293857,-3.534352 2.626953,-4.863282 v -0.002 c 0.705984,-0.705353 1.524171,-1.288703 2.419922,-1.728515 l 0.0098,-0.0059 0.0078,-0.0039 c 1.360051,-0.704699 2.868659,-1.077118 4.400391,-1.083984 z m 22.880859,0.876953 c 0.160115,0.129973 0.366005,0.183095 0.519531,0.322265 0.02904,0.02633 0.04157,0.0652 0.07031,0.0918 -0.176122,-0.168539 -0.40443,-0.257654 -0.589844,-0.414062 z m 1.949219,2.195312 c 0.438982,0.608177 0.896819,1.180672 1.207031,1.861328 -0.301124,-0.675727 -0.780568,-1.251426 -1.207031,-1.861328 z m 1.667969,3.425781 c 0.189741,0.650489 0.501063,1.258937 0.572265,1.941407 0.02508,0.240432 -0.06634,0.470722 -0.05664,0.710937 -0.0398,-0.912732 -0.268784,-1.784802 -0.515625,-2.652344 z m 0.386718,4.298829 c -0.0907,0.852852 -0.203625,1.673436 -0.482422,2.482421 0.266039,-0.800775 0.395228,-1.635404 0.482422,-2.482421 z m -1.380859,4.371093 c -0.204698,0.360271 -0.284217,0.774655 -0.529297,1.113282 v 0.002 c -0.139739,0.193089 -0.359019,0.301417 -0.509766,0.484375 0.397885,-0.50412 0.731726,-1.041587 1.039063,-1.59961 z m -3.111328,3.576172 c -0.257075,0.186828 -0.495796,0.37445 -0.767578,0.539063 0.264193,-0.168689 0.516961,-0.348874 0.767578,-0.539063 z m -5,2.183594 v 0.05664 h -0.248047 c 0.08464,-0.01268 0.163826,-0.04212 0.248047,-0.05664 z m -19.009766,0.03125 c 0.04367,0.0063 0.08514,0.01955 0.128906,0.02539 h -0.128906 z m 1.757813,2.025391 h 15.478515 v 2.886718 H 49.605469 Z m -4.386719,6.603515 h 24.304687 c 0.121963,0.0013 0.238289,0.0506 0.324219,0.136719 0.03951,0.04038 0.07047,0.08835 0.0918,0.140625 0.02178,0.05341 0.03161,0.110678 0.03125,0.167969 v 0.002 3.175781 0.002 c 3.64e-4,0.05729 -0.0094,0.114436 -0.03125,0.167969 -0.02009,0.04927 -0.04962,0.09399 -0.08594,0.132812 -2.47e-4,2.64e-4 -0.0017,-2.62e-4 -0.002,0 -0.08466,0.08254 -0.196512,0.129216 -0.314453,0.128907 h -0.002 -24.328125 -0.0039 c -0.05764,3.66e-4 -0.114861,-0.0096 -0.167969,-0.03125 -0.05377,-0.02197 -0.101975,-0.05351 -0.142578,-0.09375 l -0.002,-0.002 v -0.002 c -0.04123,-0.04053 -0.07535,-0.08763 -0.09766,-0.140625 v -0.002 c -0.02187,-0.05193 -0.03252,-0.107359 -0.0332,-0.164062 v -0.0039 -3.15625 c 0.0011,-0.121815 0.04853,-0.235997 0.134765,-0.322266 0.08627,-0.08624 0.202405,-0.135607 0.324219,-0.136719 z m 2.238281,7.78711 h 19.822266 c 1.058711,1.577196 3.765625,5.947343 3.765625,10.169921 0,6.244504 -1.983036,9.191737 -2.736328,10.15625 H 46.412109 c -1.237343,-1.746745 -2.078394,-3.744341 -2.359375,-5.871093 l -0.002,-0.01758 -0.0039,-0.01563 c -0.233994,-1.398504 -0.347685,-2.814586 -0.345703,-4.232422 0.06347,-2.053097 0.536967,-4.071792 1.396484,-5.9375 l 0.0059,-0.01172 0.0039,-0.01172 c 0.638649,-1.484611 1.451746,-2.885615 2.349609,-4.228515 z m -5.386719,14.716796 c 2.72e-4,0.0021 0.0017,0.0038 0.002,0.0059 0.0016,0.0097 3.35e-4,0.01963 0.002,0.0293 z m 3.283204,9.339844 h 0.002 24.033203 0.002 c 0.113407,-2.97e-4 0.219482,0.04654 0.302734,0.123047 0.08099,0.08745 0.130263,0.198708 0.13086,0.318359 v 3.316407 0.0039 c 5.37e-4,0.05643 -0.01,0.112059 -0.03125,0.164062 -0.02113,0.05174 -0.05401,0.09894 -0.09375,0.138672 -0.03991,0.03991 -0.08641,0.07238 -0.138672,0.09375 -0.05243,0.02141 -0.108157,0.03178 -0.164063,0.03125 h -0.0039 -24.03125 c -0.122421,-6.1e-4 -0.237969,-0.04826 -0.326172,-0.132812 -0.06369,-0.06337 -0.100266,-0.148262 -0.101562,-0.238281 l -0.002,-0.195313 -0.01172,-0.02734 v -3.154297 c 5.93e-4,-0.119023 0.05067,-0.229133 0.130859,-0.316406 0.0835,-0.07761 0.188466,-0.125299 0.302735,-0.125 z m -2.419922,3.847656 c 3.71e-4,0.02575 0.02808,0.04272 0.0293,0.06836 0.01397,0.104015 0.0095,0.211556 0.05078,0.308594 z M 71.125,78.230469 v 0.466797 c -0.01418,-2.39e-4 -0.02682,-0.0077 -0.04102,-0.0078 h -0.002 -0.628906 c 0.239467,-0.117328 0.471035,-0.252285 0.660156,-0.441406 0.005,-0.005 0.0067,-0.01251 0.01172,-0.01758 z m -27.208984,0.142578 c 0.228966,0.172484 0.50349,0.232133 0.77539,0.316406 h -0.589844 z m -0.263672,2.316406 h 27.421875 c 0.01912,9.5e-5 0.03175,0.02071 0.05078,0.02148 v 1.195313 l 0.544922,-0.966797 c 0.176655,0.07917 0.386159,0.08052 0.52539,0.220703 l 0.0059,0.0059 0.0039,0.0059 c 0.145556,0.142041 0.262272,0.311076 0.341797,0.498047 0.07959,0.187046 0.121715,0.388676 0.123047,0.591797 v 8.927734 0.0078 c 9.11e-4,0.05812 -0.0095,0.115774 -0.03125,0.169921 -0.02177,0.05405 -0.05468,0.103141 -0.0957,0.144532 l -0.002,0.002 v 0.002 c -0.04026,0.04099 -0.08894,0.0731 -0.142579,0.0957 -0.05306,0.02232 -0.109312,0.0328 -0.166015,0.0332 h -29.71288 c -0.120927,-0.0011 -0.236295,-0.04764 -0.322265,-0.132812 -0.08606,-0.08526 -0.134496,-0.199253 -0.136719,-0.320313 v -8.912109 c 0.01023,-0.419398 0.179234,-0.817694 0.46875,-1.121094 0.299546,-0.296927 0.70116,-0.467465 1.123047,-0.46875 z m 28.47347,-2.596545 c 0.2701,-0.4796 0.4133,-1.0202 0.4162,-1.5707 v -3.3159 c 0.0065,-0.5969 -0.1564,-1.1835 -0.4699,-1.6915 -0.3348,-0.5026 -0.7984,-0.9059 -1.3425,-1.1679 1.1546,-1.6915 2.9803,-5.3699 2.9803,-11.4915 0,-4.5778 -2.4433,-9.0214 -3.8394,-11.1962 0.7638,-0.0954 1.4661,-0.4681 1.9734,-1.0471 0.5205,-0.5731 0.8078,-1.3201 0.8055,-2.0943 v -3.1413 c 0,-0.8403 -0.3338,-1.6461 -0.928,-2.2403 -0.5942,-0.5942 -1.4,-0.928 -2.2403,-0.928 h -1.6243 v -5.1684 c 2.9749,-0.6462 5.607,-2.3672 7.3918,-4.8334 1.7849,-2.4662 2.5972,-5.5042 2.2813,-8.5321 -0.3159,-3.0279 -1.7379,-5.8329 -3.9934,-7.8775 -2.2555,-2.0446002 -5.1861,-3.1852402 -8.2304,-3.2033402 h -1.6781 v -3.16822 c -0.0035,-0.56944 -0.1192,-1.13261 -0.3403,-1.65735 -0.2212,-0.52474 -0.5436,-1.00079 -0.9487,-1.40094 -0.4052,-0.40016 -0.8851,-0.7166 -1.4126,-0.93125 -0.5274,-0.21466 -1.092,-0.32331 -1.6614,-0.31978 h -3.826 c -0.5681,-0.0011 -1.1309,0.10979 -1.6561,0.32632 -0.5252,0.21653 -1.0025,0.53445 -1.4048,0.9356 -0.5739,0.57246 -0.9782,1.29268 -1.1679,2.08082 -0.0696,0.31753 -0.1056,0.64151 -0.1074,0.96658 v 3.16822 h -1.6647 c -2.9152,-0.00438 -5.7369,1.02824 -7.9608,2.9131402 l -0.3222,0.2685 c -2.0476,1.8417 -3.4145,4.3201 -3.8797,7.0345 -0.0654,0.2828 -0.1103,0.5699 -0.1343,0.8592 -0.3226,3.0408 0.4955,6.0931 2.2957,8.5649 0.9876,1.3733 2.255,2.5217 3.7186,3.3696 0.318,0.2103 0.6551,0.3901 1.0068,0.537 0.8552,0.4108 1.7567,0.7172 2.685,0.9129 v 5.1685 h -1.6378 c -0.3478,-0.0032 -0.6934,0.0559 -1.0203,0.1745 -0.4612,0.1498 -0.8801,0.4075 -1.2217,0.7518 -0.294,0.2945 -0.5272,0.6441 -0.6862,1.0288 -0.1589,0.3846 -0.2405,0.7969 -0.2401,1.2131 v 3.1682 c 8e-4,0.7752 0.2821,1.5239 0.7921,2.1077 0.3605,0.4097 0.824,0.7156 1.3425,0.886 0.205,0.0697 0.4163,0.1192 0.6309,0.1477 -0.1879,0.3087 -0.4027,0.6444 -0.6309,1.0337 -1.9175,3.059 -3.0219,6.557 -3.2085,10.1624 -0.0053,1.4749 0.1114,2.9477 0.349,4.4033 0.3549,2.5335 1.2723,4.9554 2.6849,7.0882 -0.5494,0.2538 -1.0151,0.6589 -1.3424,1.168 -0.3112,0.5048 -0.4784,1.0851 -0.4833,1.6781 v 3.3696 c 0.0159,0.5291 0.1635,1.0459 0.4296,1.5035 -0.9388,0.2264 -1.7723,0.7662 -2.3628,1.5304 -0.5977,0.7676 -0.9235,1.7121 -0.9263,2.685 v 8.9139 c 0.0211,0.8298 0.3655,1.6185 0.9599,2.1979 0.5944,0.5794 1.3917,0.9035 2.2218,0.9032 h 29.7356 c 0.8359,-0.0026 1.637,-0.3356 2.2285,-0.9263 0.2983,-0.292 0.5352,-0.6409 0.6965,-1.0259 0.1614,-0.385 0.2441,-0.7985 0.2432,-1.216 v -8.914 c -0.0058,-0.9621 -0.3305,-1.8951 -0.9232,-2.653 -0.5928,-0.7579 -1.42,-1.2979 -2.3524,-1.5354 z M 52.834614,5.4252478 c 0.0132,-0.68384 0.2869,-1.33685 0.7652,-1.82576 0.4874,-0.48871 1.1489,-0.76393 1.8392,-0.7652 h 3.826 c 0.6859,0.00335 1.3424,0.27853 1.8257,0.7652 0.2605,0.22938 0.4711,0.50976 0.6189,0.8238 0.1478,0.31403 0.2296,0.65505 0.2403,1.00196 v 3.16822 h -9.1153 z m -10.9143,23.0501602 c -1.989,-1.9982 -3.1125,-4.6985 -3.1279,-7.5178 0.0014,-0.7176 0.0779,-1.433 0.2282,-2.1346 0.4196,-2.0354 1.4279,-3.9026 2.8997,-5.3698 0.7836,-0.7829 1.6907,-1.4315 2.685,-1.9197 1.5021,-0.7783 3.1679,-1.1879 4.8597,-1.1948 h 15.8411 c 2.7562,0.0979 5.3669,1.2617 7.2821,3.2462 1.9153,1.9845 2.9856,4.6348 2.9856,7.3928 0,2.758 -1.0703,5.4083 -2.9856,7.3928 -1.9152,1.9845 -4.5259,3.1483 -7.2821,3.2462 h -15.868 c -2.8233,-0.0088 -5.5275,-1.1387 -7.5178,-3.1413 z m 24.1644,4.8463 v 4.8865 h -17.4789 v -4.8865 z m -21.8956,12.2433 c -0.1355,-0.1332 -0.2433,-0.292 -0.317,-0.4671 -0.0738,-0.1752 -0.112,-0.3632 -0.1126,-0.5532 v -3.1682 c 0.0035,-0.3835 0.1574,-0.7502 0.4285,-1.0214 0.2712,-0.2711 0.6379,-0.425 1.0214,-0.4285 h 24.3254 c 0.3833,0.0041 0.7496,0.1583 1.0203,0.4296 0.1331,0.1343 0.2384,0.2936 0.3098,0.4686 0.0714,0.1751 0.1076,0.3626 0.1064,0.5517 v 3.1682 c 0.0012,0.1891 -0.035,0.3765 -0.1064,0.5516 -0.0714,0.1751 -0.1767,0.3344 -0.3098,0.4687 -0.2721,0.2675 -0.6387,0.4171 -1.0203,0.4161 h -24.3254 c -0.1891,0.0012 -0.3766,-0.0349 -0.5517,-0.1063 -0.175,-0.0715 -0.3343,-0.1767 -0.4686,-0.3098 z m -1.1277,17.7339 c -0.2442,-1.4595 -0.3655,-2.9369 -0.3624,-4.4167 0.0663,-2.1907 0.573,-4.3457 1.4901,-6.3364 0.7301,-1.6972 1.6296,-3.3164 2.6849,-4.8329 h 20.9828 c 0.9263,1.3425 4.1884,6.2693 4.1884,11.1693 0,6.8734 -2.4432,10.2833 -3.1682,11.1559 h -23.0367 c -1.4973,-1.9661 -2.4552,-4.2891 -2.7789,-6.7392 z m 0.8592,13.2233 v -3.3159 c 0.0019,-0.381 0.151,-0.7466 0.4162,-1.0202 0.272,-0.2676 0.6386,-0.4172 1.0202,-0.4162 h 24.0302 c 0.3816,-0.001 0.7482,0.1486 1.0202,0.4162 0.2652,0.2736 0.4143,0.6392 0.4162,1.0202 v 3.3159 c 0.0018,0.1892 -0.0341,0.3767 -0.1057,0.5518 -0.0715,0.1751 -0.1773,0.3342 -0.311,0.4679 -0.1338,0.1338 -0.2928,0.2395 -0.4679,0.3111 -0.1751,0.0715 -0.3627,0.1075 -0.5518,0.1057 h -24.0302 c -0.381,-0.0019 -0.7466,-0.151 -1.0202,-0.4162 -0.253,-0.2479 -0.3977,-0.5856 -0.4028,-0.9397 -0.0108,-0.0254 -0.0154,-0.053 -0.0134,-0.0806 z m 29.3329,15.6934 c -0.1332,0.1356 -0.292,0.2433 -0.4671,0.3171 -0.1752,0.0737 -0.3632,0.112 -0.5532,0.1125 h -29.7222 c -0.3811,-0.0034 -0.7459,-0.1554 -1.0167,-0.4237 -0.2708,-0.2683 -0.4262,-0.6316 -0.4332,-1.0127 v -8.9543 c 0.0164,-0.6726 0.2847,-1.3146 0.7518,-1.7989 0.4875,-0.4887 1.149,-0.7639 1.8392,-0.7652 h 27.4266 c 0.6859,0.0034 1.3424,0.2786 1.8257,0.7652 0.2402,0.2344 0.4315,0.5141 0.5628,0.8228 0.1314,0.3088 0.2002,0.6406 0.2024,0.9761 v 8.9274 c 0.003,0.1914 -0.0323,0.3814 -0.1037,0.5589 -0.0715,0.1775 -0.1777,0.3389 -0.3124,0.4748 z" />
  </g>
</svg>
