<svg viewBox="0 0 826 1000" xmlns="http://www.w3.org/2000/svg">
<path d="M295.035 787.777C290.863 787.777 286.861 789.434 283.91 792.385C280.959 795.336 279.302 799.338 279.302 803.51C279.302 807.683 280.959 811.685 283.91 814.636C286.861 817.587 290.863 819.244 295.035 819.244H443.318C447.491 819.244 451.493 817.587 454.444 814.636C457.395 811.685 459.052 807.683 459.052 803.51C459.052 799.338 457.395 795.336 454.444 792.385C451.493 789.434 447.491 787.777 443.318 787.777H295.035ZM195.634 181.574C191.461 181.574 187.459 183.232 184.508 186.182C181.558 189.133 179.9 193.135 179.9 197.308C179.9 201.481 181.558 205.483 184.508 208.433C187.459 211.384 191.461 213.042 195.634 213.042H391.794C395.967 213.042 399.969 211.384 402.92 208.433C405.87 205.483 407.528 201.481 407.528 197.308C407.528 193.135 405.87 189.133 402.92 186.182C399.969 183.232 395.967 181.574 391.794 181.574H195.634ZM303.21 860.3C299.037 860.3 295.035 861.957 292.084 864.908C289.133 867.859 287.476 871.861 287.476 876.034C287.476 880.206 289.133 884.208 292.084 887.159C295.035 890.11 299.037 891.767 303.21 891.767H413.326C417.499 891.767 421.501 890.11 424.451 887.159C427.402 884.208 429.06 880.206 429.06 876.034C429.06 871.861 427.402 867.859 424.451 864.908C421.501 861.957 417.499 860.3 413.326 860.3H303.21ZM176.622 104.954C172.449 104.954 168.447 106.611 165.497 109.562C162.546 112.513 160.888 116.515 160.888 120.687C160.888 124.86 162.546 128.862 165.497 131.813C168.447 134.764 172.449 136.421 176.622 136.421H435.861C440.034 136.421 444.036 134.764 446.987 131.813C449.937 128.862 451.595 124.86 451.595 120.687C451.595 116.515 449.937 112.513 446.987 109.562C444.036 106.611 440.034 104.954 435.861 104.954H176.622ZM398.289 327.829V666.208H429.756V327.829H398.289ZM349.858 327.829V666.208H381.326V327.829H349.858ZM302.411 331.496V669.732H333.878V331.496H302.411ZM464.297 321.396C460.124 321.396 456.122 323.054 453.171 326.004C450.221 328.955 448.563 332.957 448.563 337.13V402.749C448.563 406.922 450.221 410.924 453.171 413.874C456.122 416.825 460.124 418.483 464.297 418.483C468.47 418.483 472.472 416.825 475.422 413.874C478.373 410.924 480.031 406.922 480.031 402.749V337.13C480.031 332.957 478.373 328.955 475.422 326.004C472.472 323.054 468.47 321.396 464.297 321.396ZM251.153 315.762V439.645C251.153 443.818 252.81 447.82 255.761 450.771C258.712 453.722 262.714 455.379 266.887 455.379C271.059 455.379 275.061 453.722 278.012 450.771C280.963 447.82 282.62 443.818 282.62 439.645V347.23H318.144H365.592H414.043H453.746C457.919 347.23 461.921 345.572 464.872 342.621C467.822 339.671 469.48 335.669 469.48 331.496C469.48 327.323 467.822 323.321 464.872 320.37C461.921 317.42 457.919 315.762 453.746 315.762H414.043H365.592H318.144H251.153ZM279.404 648.221C275.231 648.221 271.229 649.879 268.279 652.829C265.328 655.78 263.67 659.782 263.67 663.955C263.67 668.128 265.328 672.13 268.279 675.08C271.229 678.031 275.231 679.689 279.404 679.689H318.124H365.592H414.022H434.161C438.334 679.689 442.336 678.031 445.286 675.08C448.237 672.13 449.895 668.128 449.895 663.955C449.895 659.782 448.237 655.78 445.286 652.829C442.336 649.879 438.334 648.221 434.161 648.221H414.022H365.592H318.124H279.404ZM464.297 483.057C460.124 483.057 456.122 484.715 453.171 487.665C450.221 490.616 448.563 494.618 448.563 498.791V511.165C448.563 515.338 450.221 519.339 453.171 522.29C456.122 525.241 460.124 526.898 464.297 526.898C468.47 526.898 472.472 525.241 475.422 522.29C478.373 519.339 480.031 515.338 480.031 511.165V498.791C480.031 494.618 478.373 490.616 475.422 487.665C472.472 484.715 468.47 483.057 464.297 483.057ZM391.815 0L364.117 33.967L332.813 1.12677L304.193 36.4459L272.602 1.84381L241.053 35.1143L209.032 2.51987L160.888 51.2988V122.613L179.756 199.213V361.632C179.756 365.805 181.414 369.807 184.365 372.757C187.315 375.708 191.317 377.366 195.49 377.366C199.663 377.366 203.665 375.708 206.616 372.757C209.566 369.807 211.224 365.805 211.224 361.632V195.382L192.356 118.782V64.2054L208.971 47.3653L241.463 80.4105L272.152 48.0414L305.607 84.6922L334.718 48.738L365.94 81.5167L391.753 49.8852L419.964 84.7127L453.316 48.0414L484.128 80.3695L516.579 47.3653L526.884 57.8136C528.334 59.2881 530.061 60.4622 531.966 61.2686C533.871 62.075 535.916 62.4979 537.984 62.5131C540.053 62.5283 542.104 62.1356 544.02 61.3573C545.937 60.579 547.681 59.4305 549.153 57.9775C550.626 56.5256 551.799 54.7974 552.603 52.892C553.408 50.9865 553.829 48.941 553.842 46.8727C553.855 44.8043 553.461 42.7536 552.681 40.8379C551.901 38.9222 550.751 37.1791 549.296 35.7084L516.518 2.51987L484.476 35.1348L452.763 1.84381L421.336 36.4254L391.815 0ZM362.56 912.541L333.571 945.525L322.303 933.151C320.911 931.624 319.232 930.386 317.361 929.508C315.491 928.63 313.465 928.13 311.401 928.035C309.337 927.939 307.275 928.252 305.331 928.954C303.388 929.656 301.602 930.734 300.075 932.126C298.547 933.517 297.308 935.195 296.428 937.065C295.548 938.935 295.046 940.96 294.949 943.024C294.852 945.088 295.162 947.151 295.862 949.095C296.563 951.039 297.639 952.826 299.03 954.354L333.96 992.685L362.683 960.05L391.589 992.583L424.921 956.219C427.741 953.143 429.223 949.074 429.043 944.905C428.862 940.737 427.033 936.811 423.958 933.99C422.435 932.591 420.651 931.506 418.708 930.797C416.765 930.088 414.701 929.769 412.634 929.859C410.568 929.948 408.539 930.444 406.665 931.318C404.79 932.193 403.107 933.428 401.71 934.953L391.938 945.627L362.56 912.541ZM105.472 351.143C92.2976 351.189 79.6723 356.436 70.3573 365.75C61.0437 375.065 55.7762 387.711 55.7298 400.885V400.906V429.853H40.0984H40.0165C34.9111 429.93 30.0206 432.005 26.4133 435.61C22.8082 439.217 20.7535 444.087 20.677 449.193V449.275V502.765V502.806C20.7175 507.911 22.7919 512.776 26.3928 516.389C27.7255 517.772 29.4017 518.727 31.0842 519.646V528.497V528.518C31.0967 536.208 33.1508 543.755 37.0254 550.398C39.4666 554.596 43.474 557.428 47.1049 560.6L0.845784 975.169V975.353C0.451959 980.614 2.12027 985.843 5.49627 989.899L5.72163 990.165L5.94698 990.411C7.91903 992.483 10.4293 993.903 13.0969 994.877C15.4904 995.93 18.0351 996.632 20.6565 996.619H305.32C308.026 996.626 310.669 995.943 313.125 994.816C315.661 993.77 317.999 992.261 319.845 990.227L320.009 990.063L320.152 989.899C323.526 985.844 325.194 980.611 324.803 975.353L324.782 975.169L321.095 942.595L313.637 874.866L305.463 802.322L289.832 662.787L278.38 559.923C282.11 556.754 286.249 553.969 288.725 549.7C292.624 543.13 294.791 535.685 294.974 528.046V527.923V517.454C296.469 516.597 298.407 516.725 299.645 515.487C303.253 511.88 305.305 507.007 305.381 501.905V501.823V448.578V448.496C305.305 443.394 303.253 438.5 299.645 434.893C296.037 431.285 291.144 429.233 286.042 429.156H285.96H269.898V400.905V400.884C269.852 387.711 264.607 375.065 255.291 365.75C245.977 356.435 233.33 351.189 220.156 351.142H105.492L105.472 351.143ZM242.384 378.472L242.466 378.575C242.462 378.57 242.451 378.579 242.445 378.575C242.417 378.547 242.413 378.5 242.383 378.472H242.384ZM105.513 390.293H220.136C222.946 390.302 225.645 391.416 227.634 393.407L227.675 393.448L227.737 393.489C228.708 394.436 229.469 395.571 229.99 396.828C230.512 398.086 230.783 399.44 230.769 400.802V400.864V429.853H94.8799V400.926C94.8799 398.1 95.9977 395.403 97.9939 393.407V393.386C99.9896 391.39 102.687 390.293 105.513 390.293ZM59.8066 468.143H265.965V482.524H59.8066V468.143ZM70.2344 523.498H255.394V527.82L255.414 527.861C255.418 528.462 255.295 529.062 255.066 529.623C254.848 530.157 254.523 530.62 254.124 531.037C253.238 531.89 252.074 532.372 250.846 532.368H74.8029C74.223 532.369 73.64 532.242 73.1025 532.02C72.5624 531.797 72.0782 531.487 71.6684 531.078L71.6274 531.037L71.607 531.016C71.1771 530.594 70.8198 530.083 70.5826 529.52C70.3485 528.964 70.2386 528.374 70.2344 527.779V527.758L70.2344 523.498ZM256.295 551.114L256.459 552.65H252.505C253.909 552.55 254.939 551.439 256.295 551.114ZM69.1691 552.22C69.8786 552.384 70.5784 552.548 71.2997 552.65H69.1281L69.1691 552.22ZM85.0463 573.629H240.746L256.991 719.371H69.1896L85.0463 573.629ZM65.0307 758.501H261.007L266.17 804.658L274.057 877.16L281.801 947.594L283.03 958.431L42.7207 957.817L65.0307 758.501ZM310.671 943.753L303.208 876.022L295.041 803.503L279.41 663.956L267.441 556.515C272.535 553.647 276.766 549.465 279.693 544.405C282.69 539.37 284.339 533.647 284.48 527.789V510.75H285.889C288.268 510.713 290.538 509.753 292.221 508.07C293.903 506.388 294.864 504.117 294.9 501.738V448.651C294.864 446.272 293.903 444.001 292.221 442.319C290.538 440.636 288.268 439.675 285.889 439.64H259.415V400.916C259.378 390.507 255.228 380.536 247.867 373.176C240.508 365.817 230.536 361.665 220.129 361.628H105.506C95.0972 361.665 85.1261 365.817 77.7658 373.176C70.4066 380.536 66.255 390.507 66.2183 400.916V440.343H40.1673C37.7894 440.379 35.5174 441.341 33.8349 443.022C32.1535 444.705 31.1916 446.977 31.156 449.356V502.724C31.1749 505.107 32.1367 507.385 33.8307 509.06C34.6405 509.926 35.6233 510.612 36.7153 511.072C37.8061 511.533 38.983 511.759 40.1673 511.736H41.576V528.493C41.5854 534.332 43.1399 540.064 46.0821 545.109C48.9782 550.097 53.0973 554.265 58.0514 557.218L11.301 976.141C11.1101 978.691 11.9177 981.215 13.554 983.181C14.4844 984.159 15.6477 984.885 16.9337 985.294C18.0717 985.856 19.3252 986.145 20.5944 986.139H305.321C306.59 986.145 307.844 985.856 308.982 985.294C310.167 984.844 311.228 984.12 312.08 983.181C313.715 981.215 314.523 978.691 314.333 976.141L310.671 943.753ZM84.3835 400.916C84.3835 395.313 86.6082 389.941 90.57 385.98C94.5307 382.018 99.9033 379.793 105.506 379.793H220.129C225.728 379.798 231.097 382.027 235.055 385.989C237.042 387.929 238.616 390.252 239.68 392.818C240.745 395.384 241.279 398.138 241.251 400.916V440.343H84.3835V400.916ZM49.3202 493.008V457.663H276.454V493.008H49.3202ZM265.893 513.003V527.789C265.906 529.772 265.526 531.738 264.777 533.575C264.028 535.411 262.923 537.082 261.527 538.491C258.673 541.297 254.828 542.866 250.825 542.856H74.8079C72.8475 542.858 70.9049 542.473 69.0934 541.724C67.2808 540.975 65.634 539.877 64.2474 538.491C62.825 537.094 61.6953 535.428 60.9212 533.591C60.1482 531.754 59.7464 529.782 59.7412 527.789V513.003H265.893ZM75.6533 563.133H250.121L268.709 729.857H57.4881L75.6533 563.133ZM31.0144 968.255L55.6577 748.021H270.399L276.594 803.503L284.48 876.022L292.225 946.429L294.759 968.959L31.0144 968.255ZM582.3 1.20872C574.97 1.19719 567.71 2.63487 560.933 5.42899C554.149 8.22567 547.977 12.336 542.782 17.5162C535.391 24.8879 530.187 34.1628 527.744 44.3128L527.723 44.4153L527.702 44.5178C526.815 48.5671 526.353 52.7053 526.33 56.8508V56.8713V79.6525H519.364H519.343C486.32 79.6077 454.347 91.304 429.14 112.636L429.078 112.677C429.071 112.683 429.065 112.692 429.057 112.698L425.597 115.586L425.454 115.709C402.267 136.564 386.796 164.634 381.489 195.362C380.754 198.629 380.217 201.939 379.932 205.277C376.298 239.728 385.576 274.319 405.971 302.323C417.136 317.834 431.454 330.795 447.969 340.408C451.685 342.84 455.617 344.928 459.708 346.656C466.715 350.006 474.222 352.042 481.69 354.134V390.436H475.093C470.263 390.392 465.465 391.23 460.917 392.854C454.564 394.945 448.773 398.472 444.056 403.22C439.999 407.284 436.785 412.109 434.591 417.417C432.398 422.725 431.267 428.412 431.272 434.155V467.384C431.283 478.046 435.156 488.363 442.171 496.394H442.192V496.415C445.767 500.478 450.719 502.767 455.509 505.203C455.419 505.354 455.352 505.44 455.263 505.593C434.201 539.193 422.075 577.624 420.025 617.225L420.004 617.471V617.737C419.947 633.745 421.243 649.733 423.815 665.533C427.348 690.629 436.538 714.393 449.485 736.11C446.022 738.974 441.881 741.06 439.426 744.878L439.364 744.96L439.302 745.062C435.034 751.986 432.752 759.934 432.685 768.069V768.11V803.654V803.818C432.786 807.155 434.546 810.1 435.389 813.304C427.407 816.991 420.035 821.875 414.595 828.915C406.917 838.793 402.728 850.944 402.692 863.455V863.476V957.121V957.265C402.983 968.699 407.735 979.58 415.927 987.565C424.119 995.55 435.115 1000 446.554 1000H758.465H758.486C770.013 999.964 781.057 995.358 789.216 987.216C789.219 987.214 789.234 987.219 789.237 987.216C793.332 983.188 796.584 978.4 798.804 973.101C801.036 967.777 802.194 962.054 802.185 956.281V956.26V862.759V862.718C802.11 850.307 797.907 838.281 790.261 828.505C784.791 821.511 777.446 816.612 769.488 812.894C770.346 809.46 772.173 806.28 772.192 802.712V802.691V767.884L772.171 767.987C772.261 759.743 770.028 751.65 765.697 744.632L765.595 744.468L765.492 744.325C762.946 740.503 758.816 738.312 755.289 735.434C768.19 714.26 784.422 677.565 784.422 617.348C784.422 571.566 763.975 531.571 748.652 506.003C753.731 503.507 758.396 500.219 762.193 495.903C769.363 487.97 773.324 477.649 773.297 466.955V466.934V434.012C773.297 422.42 768.69 411.294 760.493 403.097C752.296 394.901 741.17 390.293 729.579 390.293H723.044V353.355C753.135 344.743 780.127 327.512 798.579 302.016C818.814 274.057 828.035 239.603 824.454 205.277C820.872 170.951 804.748 139.154 779.178 115.975C753.608 92.7965 720.373 79.8576 685.861 79.6524H685.82H678.691V56.8712V56.8507C678.645 49.4995 677.139 42.2143 674.286 35.4421C671.431 28.6687 667.264 22.5376 662.035 17.3728C656.806 12.2085 650.611 8.11792 643.802 5.34704C637.012 2.58358 629.763 1.17126 622.434 1.20872H582.321H582.3ZM648.514 29.8902L649.026 30.3614C648.93 30.2655 648.794 30.2307 648.698 30.136C648.621 30.067 648.591 29.9586 648.514 29.8902V29.8902ZM582.3 40.2155H622.373C626.794 40.2371 631.016 42.0151 634.132 45.1528L634.378 45.3986L634.644 45.624C636.299 47.0813 637.638 48.8717 638.578 50.8686C639.505 52.8386 640.015 54.9834 640.094 57.158V79.6524H565.46V57.117C565.547 52.6283 567.349 48.3492 570.48 45.1323C573.624 41.9975 577.858 40.2288 582.3 40.2155V40.2155ZM464.031 111.571C464 111.585 463.979 111.617 463.949 111.633C463.91 111.653 463.865 111.654 463.826 111.674L464.031 111.571ZM519.632 118.926H685.431C711.629 119.856 736.431 130.916 754.635 149.779C772.84 168.642 783.009 193.833 783.009 220.048C783.009 246.264 772.84 271.434 754.635 290.297C736.431 309.16 711.629 320.22 685.431 321.15H519.386H519.345C492.523 321.056 466.837 310.306 447.928 291.28C429.01 272.275 418.333 246.597 418.181 219.782C418.181 219.775 418.181 219.768 418.181 219.761C418.2 212.993 418.915 206.26 420.332 199.643L420.353 199.602V199.561C424.339 180.224 433.924 162.489 447.907 148.549V148.528C455.313 141.13 463.895 135.011 473.291 130.398L473.393 130.336L473.475 130.295C487.741 122.903 503.565 118.997 519.632 118.925L519.632 118.926ZM759.634 128.124C761.313 129.487 763.473 130.045 765.083 131.504C765.388 131.781 765.519 132.188 765.821 132.467C763.973 130.699 761.579 129.765 759.634 128.124V128.124ZM780.079 151.151C784.684 157.53 789.486 163.535 792.74 170.675C789.582 163.587 784.553 157.549 780.079 151.151V151.151ZM797.575 187.085C799.565 193.908 802.831 200.29 803.578 207.449C803.841 209.971 802.882 212.386 802.984 214.906C802.566 205.332 800.164 196.185 797.575 187.085V187.085ZM801.632 232.176C800.68 241.122 799.496 249.729 796.571 258.215C799.362 249.815 800.717 241.061 801.632 232.176ZM787.147 278.026C785 281.805 784.166 286.151 781.595 289.703V289.724C780.13 291.749 777.83 292.886 776.248 294.805C780.422 289.517 783.924 283.879 787.147 278.026V278.026ZM754.512 315.537C751.815 317.496 749.311 319.464 746.461 321.191C749.232 319.422 751.883 317.532 754.512 315.537ZM702.066 338.441V339.035H699.464C700.352 338.902 701.183 338.593 702.066 338.441ZM502.669 338.769C503.127 338.835 503.562 338.974 504.021 339.035H502.669V338.769ZM521.107 360.013H683.464V390.293H521.107V360.013ZM475.093 429.279H730.03C731.31 429.293 732.53 429.81 733.431 430.713C733.846 431.137 734.17 431.64 734.394 432.188C734.622 432.749 734.726 433.349 734.722 433.95V433.971V467.283V467.304C734.726 467.904 734.623 468.504 734.394 469.065C734.183 469.582 733.874 470.051 733.493 470.459C733.49 470.461 733.475 470.456 733.472 470.459C732.584 471.324 731.41 471.814 730.173 471.811H730.152H474.969H474.929C474.324 471.814 473.724 471.71 473.167 471.483C472.603 471.252 472.097 470.922 471.671 470.499L471.65 470.478V470.458C471.218 470.032 470.86 469.538 470.626 468.982V468.961C470.396 468.417 470.285 467.835 470.278 467.241V467.2V434.093C470.289 432.815 470.787 431.618 471.691 430.713C472.596 429.808 473.814 429.29 475.092 429.279L475.093 429.279ZM498.571 510.96H706.491C717.596 527.503 745.99 573.343 745.99 617.634C745.99 683.134 725.189 714.048 717.288 724.165H487.611C474.632 705.843 465.81 684.89 462.863 662.582L462.842 662.398L462.801 662.234C460.346 647.565 459.154 632.711 459.175 617.839C459.84 596.304 464.807 575.129 473.823 555.559L473.885 555.436L473.926 555.314C480.624 539.741 489.153 525.046 498.571 510.96L498.571 510.96ZM442.069 665.327C442.072 665.349 442.087 665.367 442.09 665.389C442.106 665.491 442.093 665.595 442.111 665.697L442.069 665.327ZM476.507 763.295H476.528H728.617H728.638C729.828 763.292 730.94 763.783 731.814 764.586C732.663 765.503 733.18 766.67 733.186 767.925V802.711V802.752C733.192 803.344 733.081 803.928 732.858 804.473C732.637 805.016 732.292 805.511 731.875 805.928C731.456 806.346 730.969 806.687 730.421 806.911C729.871 807.136 729.286 807.245 728.7 807.239H728.659H476.59C475.306 807.233 474.094 806.733 473.169 805.846C472.501 805.181 472.117 804.291 472.103 803.346L472.082 801.298L471.959 801.011V767.925C471.966 766.677 472.491 765.522 473.332 764.606C474.208 763.792 475.309 763.292 476.507 763.295H476.507ZM451.124 803.654C451.128 803.924 451.418 804.102 451.431 804.371C451.578 805.462 451.531 806.59 451.964 807.608L451.124 803.654ZM746.829 820.576V825.472C746.681 825.47 746.548 825.391 746.399 825.39H746.378H739.781C742.293 824.16 744.722 822.744 746.706 820.76C746.758 820.708 746.776 820.629 746.829 820.576L746.829 820.576ZM461.429 822.071C463.83 823.881 466.71 824.506 469.562 825.39H463.375L461.429 822.071ZM458.663 846.369H746.297C746.497 846.37 746.63 846.586 746.829 846.594V859.132L752.545 848.991C754.398 849.821 756.596 849.836 758.056 851.306L758.118 851.368L758.159 851.43C759.686 852.92 760.91 854.693 761.744 856.654C762.579 858.616 763.021 860.731 763.035 862.861V956.506V956.588C763.044 957.198 762.935 957.802 762.707 958.37C762.479 958.937 762.134 959.452 761.703 959.886L761.682 959.907V959.928C761.26 960.358 760.749 960.695 760.187 960.932C759.63 961.166 759.04 961.276 758.445 961.28H446.781C445.512 961.269 444.302 960.781 443.4 959.887C442.498 958.993 441.99 957.797 441.966 956.528V863.047C442.074 858.647 443.846 854.47 446.883 851.287C450.025 848.173 454.238 846.384 458.663 846.37V846.369ZM757.327 819.133C760.16 814.102 761.662 808.432 761.693 802.658V767.876C761.761 761.615 760.052 755.462 756.764 750.134C753.252 744.862 748.389 740.632 742.682 737.884C754.793 720.141 773.943 681.558 773.943 617.347C773.943 569.329 748.315 522.719 733.671 499.907C741.683 498.907 749.049 494.997 754.37 488.924C759.83 482.913 762.844 475.077 762.819 466.957V434.007C762.819 425.193 759.318 416.741 753.085 410.508C746.853 404.275 738.401 400.774 729.586 400.774H712.549V346.562C743.753 339.783 771.362 321.731 790.083 295.863C808.805 269.994 817.326 238.128 814.012 206.368C810.698 174.608 795.783 145.185 772.124 123.739C748.466 102.293 717.726 90.3286 685.794 90.1387H668.192V56.9066C668.155 50.9336 666.942 45.0264 664.623 39.5223C662.302 34.0182 658.921 29.0248 654.671 24.8275C650.421 20.6302 645.387 17.311 639.854 15.0594C634.322 12.8078 628.4 11.6682 622.428 11.7052H582.296C576.337 11.6937 570.434 12.8568 564.925 15.128C559.416 17.3993 554.409 20.734 550.189 24.9417C544.17 30.9464 539.929 38.5009 537.939 46.7679C537.209 50.0985 536.831 53.4968 536.813 56.9066V90.1387H519.351C488.773 90.0928 459.176 100.924 435.849 120.695L432.469 123.512C410.991 142.83 396.654 168.826 391.774 197.298C391.088 200.264 390.617 203.276 390.365 206.31C386.981 238.206 395.563 270.222 414.445 296.149C424.805 310.554 438.099 322.6 453.451 331.494C456.786 333.7 460.322 335.586 464.011 337.126C472.981 341.435 482.438 344.649 492.175 346.702V400.916H474.995C471.347 400.882 467.722 401.502 464.293 402.746C459.456 404.317 455.062 407.02 451.479 410.632C448.395 413.721 445.949 417.388 444.281 421.423C442.614 425.457 441.758 429.782 441.762 434.147V467.379C441.771 475.511 444.721 483.364 450.071 489.488C453.852 493.785 458.714 496.994 464.153 498.781C466.303 499.512 468.519 500.031 470.77 500.33C468.799 503.568 466.546 507.089 464.153 511.173C444.04 543.259 432.455 579.951 430.498 617.768C430.442 633.239 431.667 648.688 434.159 663.956C437.881 690.53 447.504 715.934 462.321 738.305C456.559 740.967 451.674 745.217 448.241 750.557C444.976 755.852 443.223 761.938 443.171 768.159V803.503C443.338 809.053 444.886 814.474 447.677 819.274C437.83 821.648 429.087 827.31 422.893 835.326C416.624 843.378 413.207 853.285 413.177 863.49V956.99C413.399 965.694 417.011 973.966 423.246 980.044C429.481 986.121 437.844 989.521 446.551 989.518H758.454C767.222 989.49 775.625 985.997 781.829 979.801C784.958 976.739 787.443 973.079 789.135 969.041C790.828 965.002 791.695 960.665 791.686 956.286V862.785C791.625 852.693 788.219 842.907 782.002 834.957C775.784 827.007 767.107 821.343 757.327 818.852V819.133ZM554.978 56.9066C555.116 49.7336 557.987 42.8841 563.004 37.7558C568.117 32.6296 575.055 29.7428 582.296 29.7294H622.428C629.622 29.7646 636.508 32.651 641.578 37.7558C644.31 40.1618 646.519 43.1028 648.07 46.3968C649.62 49.6907 650.478 53.2678 650.59 56.9066V90.1387H554.978V56.9066ZM440.495 298.685C419.632 277.725 407.848 249.401 407.686 219.829C407.701 212.302 408.503 204.798 410.08 197.438C414.481 176.089 425.057 156.503 440.495 141.114C448.715 132.902 458.229 126.098 468.659 120.977C484.415 112.814 501.888 108.517 519.633 108.445H685.794C714.704 109.472 742.088 121.679 762.177 142.495C782.267 163.311 793.494 191.11 793.494 220.04C793.494 248.969 782.267 276.768 762.177 297.584C742.088 318.4 714.704 330.607 685.794 331.634H519.351C489.737 331.542 461.372 319.69 440.495 298.685ZM693.961 349.518V400.774H510.621V349.518H693.961ZM464.293 477.941C462.872 476.544 461.741 474.878 460.968 473.041C460.194 471.204 459.793 469.232 459.787 467.239V434.007C459.824 429.984 461.438 426.138 464.282 423.293C467.126 420.45 470.973 418.835 474.995 418.799H730.15C734.17 418.842 738.012 420.459 740.852 423.305C742.248 424.713 743.352 426.384 744.101 428.22C744.85 430.057 745.23 432.023 745.217 434.007V467.239C745.23 469.222 744.85 471.188 744.101 473.025C743.352 474.861 742.248 476.532 740.852 477.941C737.998 480.747 734.152 482.316 730.15 482.306H474.995C473.012 482.318 471.045 481.939 469.209 481.191C467.373 480.441 465.702 479.337 464.293 477.941V477.941ZM452.465 663.956C449.903 648.647 448.631 633.15 448.663 617.628C449.359 594.649 454.674 572.045 464.293 551.164C471.951 533.362 481.387 516.378 492.456 500.471H712.549C722.265 514.553 756.482 566.231 756.482 617.628C756.482 689.724 730.855 725.492 723.25 734.645H481.613C465.908 714.022 455.86 689.655 452.465 663.956ZM461.477 802.658V767.876C461.497 763.88 463.061 760.045 465.843 757.175C468.696 754.368 472.541 752.799 476.544 752.81H728.601C732.604 752.799 736.45 754.368 739.303 757.175C742.084 760.045 743.648 763.88 743.668 767.876V802.658C743.687 804.642 743.31 806.609 742.559 808.446C741.809 810.282 740.7 811.951 739.297 813.353C737.894 814.757 736.226 815.866 734.389 816.617C732.553 817.367 730.585 817.744 728.601 817.725H476.544C472.547 817.705 468.712 816.142 465.843 813.36C463.189 810.759 461.671 807.217 461.617 803.503C461.504 803.237 461.456 802.947 461.477 802.658V802.658ZM769.156 967.269C767.759 968.691 766.093 969.821 764.256 970.595C762.419 971.368 760.447 971.77 758.454 971.775H446.691C442.694 971.74 438.867 970.145 436.027 967.331C433.186 964.517 431.556 960.706 431.483 956.708V862.785C431.655 855.73 434.469 848.996 439.369 843.916C444.482 838.79 451.421 835.903 458.661 835.889H746.344C753.539 835.925 760.425 838.812 765.494 843.916C768.014 846.374 770.02 849.308 771.397 852.546C772.776 855.785 773.497 859.266 773.521 862.785V956.426C773.552 958.434 773.182 960.427 772.433 962.289C771.683 964.151 770.569 965.843 769.156 967.269V967.269Z" fill="black"/>
</svg>
