<?xml version="1.0" encoding="UTF-8" standalone="no"?>
<!-- Created with Inkscape (http://www.inkscape.org/) -->

<svg
   width="1000"
   height="1000"
   viewBox="0 0 264.58334 264.58333"
   version="1.1"
   id="svg3977"
   inkscape:version="1.2.1 (9c6d41e, 2022-07-14)"
   sodipodi:docname="hermine.svg"
   xmlns:inkscape="http://www.inkscape.org/namespaces/inkscape"
   xmlns:sodipodi="http://sodipodi.sourceforge.net/DTD/sodipodi-0.dtd"
   xmlns="http://www.w3.org/2000/svg"
   xmlns:svg="http://www.w3.org/2000/svg">
  <sodipodi:namedview
     id="namedview3979"
     pagecolor="#ffffff"
     bordercolor="#111111"
     borderopacity="1"
     inkscape:showpageshadow="0"
     inkscape:pageopacity="0"
     inkscape:pagecheckerboard="1"
     inkscape:deskcolor="#d1d1d1"
     inkscape:document-units="mm"
     showgrid="false"
     inkscape:zoom="0.13731291"
     inkscape:cx="1977.2358"
     inkscape:cy="560.763"
     inkscape:window-width="1309"
     inkscape:window-height="456"
     inkscape:window-x="253"
     inkscape:window-y="1276"
     inkscape:window-maximized="0"
     inkscape:current-layer="layer1" />
  <defs
     id="defs3974" />
  <g
     inkscape:label="Layer 1"
     inkscape:groupmode="layer"
     id="layer1"
     transform="translate(-36.665533,-271.92679)">
    <g
       id="g3016"
       transform="matrix(3.3034572,0,0,3.3034572,40.952336,295.20264)"
       style="fill:#000000">
      <path
         id="path6401"
         style="fill:#000000"
         d="m 38.66205,42.12396 c -2.867595,0 -4.275282,1.090465 -4.675782,2.414062 -0.1903,0.628899 -0.131984,1.261002 0.07031,1.75 0.183899,0.4442 0.578323,0.953125 1.169922,0.953125 0.398399,0 0.785881,0.06894 1.050781,0.181641 0.21894,0.09321 0.251036,0.161209 0.253906,0.169922 -0.04142,1.066042 0.276948,1.731781 0.839844,2.078125 0.494698,0.304499 1.094025,0.278009 1.265625,0.287109 0.596598,0.0317 1.246211,-0.03901 1.724609,-0.445313 0.492545,-0.418295 0.672749,-1.076715 0.609375,-1.908203 0.0018,-0.009 0.01812,-0.05951 0.128907,-0.128906 0.168299,-0.1054 0.534867,-0.234375 1.259765,-0.234375 0.3025,0 0.544632,-0.161925 0.707031,-0.328125 0.168,-0.171799 0.299879,-0.39572 0.392579,-0.636719 0.185899,-0.482699 0.245325,-1.113742 0.04883,-1.74414 -0.414099,-1.328098 -1.85341,-2.408203 -4.845702,-2.408203 z m 15.947265,6.794921 c -4.077296,0.0156 -8.216412,0.35687 -10.787109,0.667969 -0.2741,0.0332 -0.468647,0.282541 -0.435547,0.556641 0.0332,0.2741 0.282441,0.468747 0.556641,0.435547 2.539597,-0.3074 6.638425,-0.644757 10.669921,-0.660157 2.015598,-0.0077 4.00764,0.06542 5.773438,0.261719 1.773398,0.1971 3.285435,0.514769 4.365234,0.980469 0.2536,0.1093 0.548904,-0.0081 0.658203,-0.261719 0.1094,-0.253499 -0.0081,-0.54685 -0.261718,-0.65625 -1.214899,-0.523899 -2.843846,-0.855641 -4.652344,-1.05664 -1.816098,-0.2019 -3.847921,-0.275278 -5.886719,-0.267579 z m -33.511719,0.04687 c -2.038698,-0.0078 -4.07052,0.06568 -5.886718,0.267579 -1.808499,0.200999 -3.437445,0.532641 -4.652344,1.05664 -0.2535,0.1093 -0.371019,0.402651 -0.261719,0.65625 0.1094,0.2536 0.404704,0.371119 0.658203,0.261719 1.079799,-0.4656 2.59379,-0.783269 4.367188,-0.980469 1.765698,-0.1962 3.755886,-0.269418 5.771484,-0.261719 4.031496,0.0154 8.130325,0.352757 10.669922,0.660157 0.2742,0.0332 0.523441,-0.161447 0.556641,-0.435547 0.0332,-0.2742 -0.161447,-0.523441 -0.435547,-0.556641 -2.570698,-0.311099 -6.709714,-0.652369 -10.78711,-0.667969 z m 25.021485,2.09961 c -0.816524,-0.003 -1.560207,0.0043 -2.207031,0.01953 -0.2758,0.0065 -0.492875,0.235419 -0.484375,0.511719 0.0086,0.2763 0.239725,0.494781 0.515625,0.488281 2.555997,-0.0602 6.668197,2e-4 10.683593,0.375 2.007698,0.1875 3.981958,0.45196 5.722657,0.818359 1.748198,0.3679 3.228019,0.832192 4.261718,1.400391 0.2427,0.1334 0.544382,0.04483 0.675782,-0.197266 0.131399,-0.241999 0.04143,-0.546287 -0.201172,-0.679687 -1.162899,-0.639199 -2.754412,-1.126754 -4.53711,-1.501953 -1.790298,-0.3768 -3.807292,-0.646438 -5.83789,-0.835938 -3.045822,-0.284399 -6.142225,-0.389465 -8.591797,-0.398436 z m -16.53125,0.04492 c -2.449554,0.009 -5.54605,0.114038 -8.591797,0.398437 -2.030698,0.1895 -4.047593,0.459138 -5.837891,0.835938 -1.782798,0.375199 -3.37421,0.862754 -4.537109,1.501953 -0.2427,0.1334 -0.332572,0.437588 -0.201172,0.679687 0.1313,0.242 0.433182,0.330666 0.675781,0.197266 1.033699,-0.568099 2.513521,-1.030538 4.261719,-1.398438 1.740698,-0.366399 3.715058,-0.632812 5.722656,-0.820312 4.015496,-0.3748 8.127497,-0.433247 10.683594,-0.373047 0.2758,0.0065 0.507025,-0.211981 0.515625,-0.488281 0.0086,-0.2763 -0.208575,-0.507172 -0.484375,-0.513672 -0.646799,-0.01525 -1.390513,-0.02252 -2.207031,-0.01953 z m 14.128906,1.601562 c -0.275,-0.0186 -0.510591,0.190597 -0.525391,0.466797 -0.0147,0.2762 0.197657,0.514603 0.472657,0.533203 2.551397,0.1726 6.642532,0.606904 10.611328,1.345703 1.984298,0.3694 3.929414,0.812538 5.632812,1.335938 1.710799,0.525599 3.144754,1.121151 4.126953,1.78125 0.2304,0.1549 0.540507,0.09473 0.691407,-0.134766 0.150899,-0.2294 0.08587,-0.540412 -0.144532,-0.695312 -1.104798,-0.7425 -2.650133,-1.374157 -4.394531,-1.910157 C 58.435542,54.896307 56.450298,54.444825 54.4433,54.071225 50.429504,53.324026 46.299234,52.88655 43.716737,52.71185 Z m -11.726562,0.04687 c -2.582398,0.1746 -6.712867,0.612176 -10.726563,1.359375 -2.006998,0.3736 -3.992342,0.825082 -5.744141,1.363281 -1.744498,0.5359 -3.289732,1.167657 -4.394531,1.910157 -0.2304,0.1549 -0.295431,0.465812 -0.144531,0.695312 0.151,0.2295 0.461006,0.289566 0.691406,0.134766 0.982299,-0.660199 2.416155,-1.255651 4.126953,-1.78125 1.703399,-0.5233 3.648515,-0.966538 5.632813,-1.335938 3.968796,-0.738799 8.05993,-1.173203 10.611328,-1.345703 0.275,-0.0186 0.487356,-0.257003 0.472656,-0.533203 -0.0147,-0.2763 -0.250391,-0.485397 -0.52539,-0.466797 z M 26.220703,27.458984 c -2.039599,0 -3.683594,1.724937 -3.683594,3.816407 0,2.091469 1.643995,3.818359 3.683594,3.818359 2.0396,0 3.681641,-1.72689 3.681641,-3.818359 0,-2.09147 -1.642041,-3.816407 -3.681641,-3.816407 z m 0,1 c 1.476341,0 2.681641,1.243482 2.681641,2.816407 0,1.572924 -1.2053,2.818359 -2.681641,2.818359 -1.476341,0 -2.683594,-1.245435 -2.683594,-2.818359 0,-1.572925 1.207253,-2.816407 2.683594,-2.816407 z m 0,-0.5 a 3.18309,3.3174901 0 0 0 -3.183594,3.316407 3.18309,3.3174901 0 0 0 3.183594,3.318359 3.18309,3.3174901 0 0 0 3.181641,-3.318359 3.18309,3.3174901 0 0 0 -3.181641,-3.316407 z m -0.472656,0.740235 c 0.402504,0 0.722656,0.339812 0.722656,0.742187 0,0.402377 -0.320152,0.744141 -0.722656,0.744141 -0.402506,0 -0.724609,-0.341764 -0.724609,-0.744141 0,-0.402375 0.322103,-0.742187 0.724609,-0.742187 z m 24.71875,-1.240235 c -2.0396,0 -3.683594,1.724937 -3.683594,3.816407 0,2.091469 1.643994,3.818359 3.683594,3.818359 2.039599,0 3.68164,-1.72689 3.68164,-3.818359 0,-2.09147 -1.642041,-3.816407 -3.68164,-3.816407 z m 0,1 c 1.476341,0 2.681641,1.243482 2.68164,2.816407 0,1.572924 -1.205299,2.818359 -2.68164,2.818359 -1.476341,0 -2.683594,-1.245435 -2.683594,-2.818359 0,-1.572925 1.207253,-2.816407 2.683594,-2.816407 z m 0,-0.5 a 3.18309,3.3174901 0 0 0 -3.183594,3.316407 3.18309,3.3174901 0 0 0 3.183594,3.318359 3.18309,3.3174901 0 0 0 3.181641,-3.318359 3.18309,3.3174901 0 0 0 -3.181641,-3.316407 z m -0.472656,0.740235 c 0.402504,0 0.722656,0.339812 0.722656,0.742187 0,0.402377 -0.320152,0.744141 -0.722656,0.744141 -0.402506,0 -0.72461,-0.341764 -0.72461,-0.744141 0,-0.402375 0.322104,-0.742187 0.72461,-0.742187 z M 64.53125,6.625 c -1.847679,-0.2395979 -3.67209,0.013875 -5.111328,0.8046875 -1.421162,0.7808602 -2.466406,2.1335208 -2.689453,4.0019535 -0.114461,0.958463 0.07738,2.094278 0.492187,3.320312 0.412218,1.218355 1.037401,2.484212 1.796875,3.654297 0.759979,1.170892 1.641806,2.230147 2.572266,3.035156 0.937957,0.811571 1.884069,1.340266 2.814453,1.460938 1.794374,0.232689 3.282386,-0.690981 4.314453,-2.148438 1.040849,-1.46985 1.661469,-3.438313 1.888672,-5.341797 0.226891,-1.900228 -0.36976,-3.958902 -1.492188,-5.6328121 C 67.993689,8.1037567 66.370483,6.8634977 64.53125,6.625 Z m -0.128906,0.9921875 c 1.469564,0.1905619 2.883466,1.2254534 3.884765,2.7187505 0.999971,1.491287 1.519834,3.351462 1.328125,4.957031 -0.210996,1.767712 -0.808388,3.608265 -1.710937,4.882812 -0.896732,1.266341 -1.961718,1.916886 -3.369141,1.734375 -0.633214,-0.08213 -1.444421,-0.493781 -2.289062,-1.224609 -0.837739,-0.72479 -1.669699,-1.719513 -2.386719,-2.824219 -0.716524,-1.103913 -1.308671,-2.304244 -1.689453,-3.429687 -0.383187,-1.132564 -0.534005,-2.156478 -0.447266,-2.882813 0.187553,-1.5711041 0.991852,-2.5914821 2.179688,-3.2441405 1.201759,-0.6603261 2.826882,-0.9044616 4.5,-0.6875 z M 57.2266,11.4903 c -0.1006,0.8424 0.0701,1.9219 0.4691,3.1012 0.3965,1.1719 1.0061,2.4057 1.7441,3.5427 0.7385,1.1378 1.5959,2.1639 2.48,2.9288 0.8913,0.7712 1.7693,1.2424 2.5511,1.3438 1.6009,0.2076 2.8767,-0.5797 3.8411,-1.9416 0.9717,-1.3722 1.5809,-3.2769 1.8,-5.1125 0.2093,-1.7529 -0.3481,-3.7126 -1.4093,-5.2952 C 67.6403,8.47308 66.1216,7.33554 64.4672,7.12101 62.7068,6.89273 60.982,7.14169 59.6615,7.86726 58.357,8.58402 57.4319,9.77053 57.2266,11.4903 Z M 14.535156,7.0351562 c -2.004799,10e-8 -3.8718,1.0135271 -5.2402341,2.4648438 -1.3684338,1.451317 -2.2617188,3.355137 -2.2617188,5.246094 0,1.804517 0.3913512,3.744442 1.296875,5.285156 0.9055238,1.540714 2.3936369,2.683594 4.4101559,2.683594 2.106212,0 4.370165,-1.598359 6.1875,-3.585938 1.817336,-1.987579 3.199219,-4.3757 3.199219,-6.357422 0,-1.895265 -0.970393,-3.3836366 -2.392578,-4.3320309 C 18.31219,7.4910588 16.450257,7.0351562 14.535156,7.0351562 Z m 0,1.0000001 c 1.753793,0 3.438045,0.4317743 4.644531,1.2363281 1.206487,0.8045536 1.947266,1.9344126 1.947266,3.4999996 0,1.479172 -1.228703,3.812768 -2.9375,5.681641 -1.708796,1.868873 -3.886537,3.261719 -5.449219,3.261719 -1.652392,0 -2.7680668,-0.861019 -3.5488277,-2.189453 -0.780761,-1.328435 -1.1582032,-3.122922 -1.1582032,-4.779297 0,-1.569937 0.7729652,-3.271622 1.9882809,-4.560547 1.215316,-1.2889253 2.849579,-2.1503907 4.513672,-2.1503907 z m 0,-0.5000001 c -3.668896,10e-8 -7.0019529,3.7500408 -7.0019529,7.2109378 0,3.460896 1.5381149,7.46875 5.2070309,7.46875 3.668897,0 8.886719,-5.982463 8.886719,-9.44336 0,-3.4608562 -3.4229,-5.2363278 -7.091797,-5.2363278 z M 25.2307,8.4967 24.6535,7.6801 v 10e-6 z m 28.6864,0.06001 0.4464,-0.89484 v 0 z m 0.6767,-0.19025 0.8451,0.53457 v -10e-6 z M 69.9423,6.74459 69.2687,7.48373 69.2742,7.48868 Z M 67.5445,27.3145 66.9372,26.5201 v 0 z m -0.2042,0.4482 0.9962,-0.0874 v 0 z m -15.2345,26.8948 0.0864,0.9963 h 1e-4 z m -0.3535,0.1829 0.7687,0.6396 v 0 z m -25.4996,0.1014 0.8987,-0.4386 v 0 z M 25.8371,54.65 25.9368,53.655 v 0 z M 10.5213,29.2257 11.5196,29.2852 Z M 10.46,28.9523 11.3258,28.452 v 0 z M 7.98795,6.74459 7.24471,6.07556 7.23909,6.08181 7.23357,6.08816 Z m 16.54835,1.67618 -0.7378,0.675 v 0 z M 25.8079,9.3133 C 29.7257,6.54401 40.279,2.87069 53.4707,9.45154 L 54.3635,7.66187 C 40.4687,0.730263 29.1316,4.51476 24.6535,7.6801 Z m 29.631,-0.41228 c 1.0415,-1.64659 2.88,-3.50986 5.2162,-4.21287 2.2476,-0.67637 5.1698,-0.34275 8.6136,2.79556 L 70.6158,6.00546 C 66.751,2.48347 63.1185,1.85824 60.0787,2.77299 57.1275,3.66111 54.946,5.93892 53.7487,7.83191 Z M 69.2742,7.48868 c 1.4368,1.29004 3.2474,4.25602 3.4893,7.80052 0.2362,3.4628 -1.0193,7.5559 -5.8263,11.2309 l 1.2147,1.5889 c 5.3208,-4.0679 6.8905,-8.7996 6.6069,-12.9559 -0.278,-4.0747 -2.3325,-7.52217 -4.1485,-9.15261 z M 66.3441,27.8502 c 0.3497,3.9837 0.0312,10.2419 -2.0525,15.61 -2.0733,5.3415 -5.8111,9.6406 -12.2722,10.2011 l 0.1729,1.9925 c 7.49,-0.6497 11.7282,-5.7103 13.9638,-11.4699 2.2252,-5.7329 2.5483,-12.317 2.1804,-16.5086 z M 50.9836,54.2007 c -2.3741,2.8532 -3.981,4.6675 -5.7445,5.8038 -1.7029,1.0974 -3.6225,1.6011 -6.7063,1.6011 v 2 c 3.3271,0 5.6628,-0.5494 7.7897,-1.9199 2.0663,-1.3315 3.8636,-3.3998 6.1985,-6.2057 z m -12.4508,7.4049 c -1.8748,0 -3.9866,-0.2876 -5.9837,-1.3017 -1.9806,-1.0058 -3.9129,-2.7581 -5.3977,-5.8007 l -1.7974,0.8772 c 1.6668,3.4155 3.9035,5.4951 6.2895,6.7067 2.3696,1.2033 4.8221,1.5185 6.8893,1.5185 z M 25.9368,53.655 c -2.6429,-0.2648 -6.5082,-1.7439 -9.5781,-5.4307 -3.055,-3.6688 -5.395,-9.614 -4.8391,-18.9391 l -1.99649,-0.119 c -0.57962,9.7232 1.85409,16.2012 5.29869,20.3379 3.4297,4.1189 7.7901,5.8278 10.9156,6.141 z M 11.3258,28.452 C 10.6166,27.2246 9.43748,25.8612 8.37302,24.5061 7.26782,23.0992 6.19767,21.6025 5.49935,19.9414 4.80874,18.2987 4.48562,16.5034 4.87368,14.4824 5.26382,12.4505 6.38937,10.1051 8.74234,7.40101 L 7.23357,6.08816 C 4.71513,8.98242 3.383,11.6395 2.90955,14.1053 c -0.47553,2.4766 -0.06817,4.6744 0.74611,6.6112 0.80657,1.9186 2.01572,3.588 3.14458,5.0251 1.16959,1.4889 2.17932,2.6475 2.79393,3.7111 z M 8.7312,7.41361 c 1.1189,-1.24304 3.2133,-2.65579 5.8216,-2.85837 2.5531,-0.19829 5.7777,0.7497 9.2457,4.54053 L 25.2741,7.74578 C 21.4713,3.58893 17.6747,2.30675 14.3979,2.56125 11.1763,2.81146 8.63192,4.53446 7.24471,6.07556 Z m 2.7884,21.87159 c 0.0158,-0.2664 -0.0365,-0.561 -0.1938,-0.8332 L 9.59417,29.4526 C 9.53232,29.3456 9.51858,29.2421 9.52311,29.1662 Z m 40.4998,24.3761 c -0.3918,0.034 -0.7724,0.2229 -1.0358,0.5394 L 52.521,55.48 c -0.0898,0.1079 -0.2074,0.1633 -0.3288,0.1738 z M 66.9372,26.5201 c -0.3894,0.2977 -0.6406,0.7879 -0.5931,1.3301 l 1.9924,-0.1749 c 0.0169,0.1932 -0.0736,0.3488 -0.1846,0.4337 z M 27.1514,54.5032 C 26.9237,54.0368 26.4699,53.7084 25.9368,53.655 l -0.1995,1.99 C 25.5644,55.6277 25.4228,55.5215 25.354,55.3804 Z M 53.4707,9.45154 c 0.703,0.3507 1.5537,0.1049 1.9682,-0.55051 L 53.7487,7.8319 C 53.8773,7.62851 54.1391,7.54993 54.3635,7.66187 Z M 24.6535,7.68011 c 0.1994,-0.14097 0.4613,-0.10847 0.6206,0.06567 l -1.4756,1.34999 c 0.5153,0.56328 1.3793,0.66292 2.0094,0.21753 z" />
    </g>
  </g>
</svg>
