<svg viewBox="0 0 900 766" xmlns="http://www.w3.org/2000/svg">
<path d="M448.917 496.911C413.114 496.911 395.538 510.526 390.538 527.052C388.162 534.904 388.89 542.796 391.416 548.901C393.712 554.447 398.636 560.801 406.023 560.801C410.997 560.801 415.835 561.662 419.142 563.069C421.876 564.233 422.277 565.082 422.312 565.191C421.795 578.501 425.77 586.813 432.798 591.137C438.975 594.939 446.458 594.608 448.6 594.722C456.049 595.118 464.16 594.235 470.133 589.162C476.283 583.939 478.533 575.719 477.741 565.337C477.764 565.225 477.968 564.594 479.351 563.728C481.452 562.412 486.029 560.801 495.08 560.801C498.856 560.801 501.88 558.78 503.907 556.705C506.005 554.56 507.651 551.764 508.809 548.755C511.13 542.728 511.872 534.849 509.418 526.978C504.248 510.396 486.278 496.911 448.917 496.911ZM648.027 581.749C597.12 581.944 545.441 586.205 513.345 590.089C509.922 590.503 507.493 593.616 507.907 597.039C508.321 600.461 511.433 602.891 514.856 602.477C546.565 598.639 597.741 594.427 648.076 594.234C673.242 594.138 698.113 595.051 720.16 597.502C742.302 599.963 761.18 603.929 774.662 609.744C777.829 611.108 781.516 609.643 782.88 606.476C784.246 603.311 782.779 599.648 779.613 598.282C764.444 591.741 744.106 587.599 721.526 585.09C698.851 582.569 673.483 581.653 648.027 581.749V581.749ZM229.616 582.334C204.162 582.237 178.794 583.154 156.118 585.675C133.538 588.184 113.199 592.325 98.0307 598.868C94.8657 600.232 93.3984 603.895 94.763 607.061C96.129 610.228 99.816 611.695 102.981 610.329C116.463 604.516 135.366 600.549 157.508 598.087C179.553 595.638 204.402 594.723 229.568 594.82C279.903 595.012 331.079 599.224 362.787 603.062C366.21 603.476 369.322 601.046 369.737 597.624C370.151 594.2 367.721 591.088 364.299 590.674C332.202 586.79 280.525 582.529 229.616 582.334ZM542.022 608.549C531.827 608.511 522.542 608.602 514.466 608.793C511.023 608.874 508.312 611.732 508.419 615.182C508.526 618.631 511.412 621.359 514.856 621.278C546.769 620.526 598.112 621.281 648.247 625.96C673.314 628.301 697.963 631.603 719.697 636.178C741.524 640.771 760 646.568 772.907 653.662C775.937 655.328 779.703 654.222 781.344 651.199C782.985 648.178 781.861 644.379 778.832 642.713C764.313 634.732 744.442 628.645 722.184 623.961C699.831 619.256 674.648 615.889 649.295 613.523C611.267 609.973 572.606 608.661 542.022 608.549V608.549ZM335.621 609.11C305.037 609.222 266.376 610.533 228.348 614.084C202.994 616.45 177.812 619.817 155.459 624.521C133.2 629.206 113.33 635.293 98.8111 643.274C95.7809 644.94 94.6588 648.738 96.2993 651.76C97.9387 654.782 101.708 655.889 104.737 654.223C117.643 647.13 136.119 641.356 157.947 636.763C179.68 632.188 204.331 628.862 229.397 626.521C279.532 621.841 330.873 621.112 362.787 621.863C366.23 621.944 369.117 619.217 369.225 615.767C369.332 612.317 366.621 609.435 363.177 609.353C355.101 609.163 345.816 609.072 335.621 609.11V609.11ZM512.028 629.106C508.594 628.874 505.653 631.486 505.468 634.934C505.284 638.383 507.936 641.359 511.369 641.591C543.225 643.746 594.305 649.169 643.857 658.393C668.632 663.005 692.918 668.538 714.186 675.073C735.546 681.635 753.449 689.071 765.713 697.313C768.589 699.247 772.461 698.496 774.345 695.63C776.229 692.766 775.417 688.883 772.541 686.949C758.747 677.678 739.452 669.792 717.673 663.1C695.799 656.38 671.013 650.743 645.954 646.078C595.84 636.749 544.271 631.287 512.028 629.106V629.106ZM365.616 629.691C333.373 631.871 281.802 637.334 231.689 646.664C206.631 651.328 181.843 656.965 159.971 663.685C138.19 670.376 118.897 678.264 105.103 687.534C102.226 689.468 101.414 693.35 103.298 696.215C105.183 699.081 109.054 699.831 111.931 697.898C124.195 689.655 142.098 682.221 163.458 675.658C184.726 669.125 209.011 663.591 233.786 658.978C283.339 649.754 334.419 644.33 366.274 642.177C369.708 641.944 372.359 638.968 372.175 635.519C371.992 632.07 369.049 629.459 365.616 629.691ZM293.581 313.811C268.115 313.811 247.589 335.348 247.589 361.461C247.589 387.574 268.115 409.135 293.581 409.135C319.046 409.135 339.548 387.574 339.548 361.461C339.548 335.348 319.046 313.811 293.581 313.811ZM293.581 326.297C312.014 326.297 327.062 341.822 327.062 361.461C327.062 381.1 312.014 396.65 293.581 396.65C275.148 396.65 260.075 381.1 260.075 361.461C260.075 341.822 275.148 326.297 293.581 326.297ZM293.581 320.054C283.042 320.052 272.933 324.413 265.479 332.179C258.025 339.944 253.836 350.477 253.832 361.461C253.831 366.902 254.858 372.29 256.855 377.317C258.852 382.344 261.78 386.912 265.471 390.759C269.162 394.607 273.545 397.658 278.368 399.74C283.191 401.822 288.36 402.893 293.581 402.892C304.12 402.887 314.225 398.52 321.675 390.75C329.125 382.98 333.308 372.445 333.305 361.461C333.302 350.481 329.116 339.952 321.667 332.188C314.218 324.423 304.116 320.059 293.581 320.054V320.054ZM287.68 329.296C292.705 329.296 296.702 333.539 296.702 338.563C296.702 343.587 292.705 347.854 287.68 347.854C282.654 347.854 278.632 343.587 278.632 338.563C278.632 333.539 282.654 329.296 287.68 329.296ZM596.306 313.811C570.84 313.811 550.314 335.348 550.314 361.461C550.314 387.574 570.84 409.135 596.306 409.135C621.771 409.135 642.273 387.574 642.273 361.461C642.273 335.348 621.771 313.811 596.306 313.811ZM596.306 326.297C614.739 326.297 629.787 341.822 629.787 361.461C629.787 381.1 614.739 396.65 596.306 396.65C577.873 396.65 562.8 381.1 562.8 361.461C562.8 341.822 577.873 326.297 596.306 326.297ZM596.306 320.054C585.766 320.052 575.658 324.413 568.204 332.179C560.75 339.944 556.56 350.477 556.557 361.461C556.556 366.902 557.583 372.29 559.58 377.317C561.577 382.344 564.504 386.912 568.196 390.759C571.887 394.607 576.269 397.658 581.093 399.74C585.916 401.822 591.085 402.893 596.306 402.892C606.845 402.887 616.95 398.52 624.4 390.75C631.849 382.98 636.033 372.445 636.03 361.461C636.027 350.481 631.84 339.952 624.392 332.188C616.943 324.423 606.841 320.059 596.306 320.054V320.054ZM590.404 329.296C595.43 329.296 599.427 333.539 599.427 338.563C599.427 343.587 595.43 347.854 590.404 347.854C585.379 347.854 581.357 343.587 581.357 338.563C581.357 333.539 585.379 329.296 590.404 329.296ZM771.907 53.6883C748.838 50.6968 726.06 53.8615 708.09 63.7352C690.346 73.4846 677.296 90.3733 674.511 113.702C673.082 125.669 675.477 139.85 680.656 155.157C685.803 170.369 693.608 186.174 703.091 200.783C712.58 215.402 723.59 228.628 735.207 238.679C746.918 248.812 758.73 255.413 770.347 256.919C792.75 259.824 811.329 248.292 824.215 230.095C837.21 211.743 844.959 187.166 847.796 163.4C850.629 139.674 843.179 113.971 829.165 93.0713C815.138 72.1513 794.871 56.666 771.907 53.6883ZM770.298 66.0762C788.646 68.4555 806.3 81.3767 818.801 100.021C831.286 118.641 837.777 141.866 835.384 161.912C832.749 183.983 825.29 206.963 814.022 222.877C802.826 238.688 789.529 246.81 771.956 244.531C764.05 243.506 753.922 238.366 743.376 229.241C732.917 220.192 722.529 207.772 713.577 193.98C704.631 180.197 697.237 165.21 692.483 151.158C687.699 137.018 685.816 124.233 686.899 115.165C689.24 95.5487 699.283 82.8088 714.113 74.66C729.118 66.4155 749.408 63.3674 770.298 66.0762ZM680.705 114.434C679.449 124.952 681.58 138.43 686.562 153.154C691.513 167.786 699.124 183.19 708.338 197.386C717.559 211.592 728.264 224.404 739.302 233.954C750.431 243.583 761.393 249.466 771.154 250.732C791.142 253.324 807.071 243.494 819.112 226.49C831.244 209.358 838.85 185.576 841.586 162.658C844.199 140.772 837.24 116.304 823.99 96.5448C810.726 76.7625 791.764 62.5597 771.108 59.8812C749.128 57.031 727.593 60.1394 711.106 69.1985C694.819 78.1476 683.269 92.9618 680.705 114.434ZM147.681 58.8093C122.65 58.8093 99.3395 71.4637 82.2539 89.5841C65.1683 107.705 54.0152 131.475 54.0152 155.084C54.0152 177.615 58.9014 201.836 70.2073 221.072C81.5133 240.309 100.093 254.578 125.27 254.578C151.568 254.578 179.834 234.622 202.524 209.806C225.215 184.99 242.468 155.173 242.468 130.43C242.468 106.767 230.352 88.1838 212.596 76.3426C194.839 64.5015 171.592 58.8093 147.681 58.8093ZM147.681 71.2948C169.578 71.2948 190.607 76.6857 205.67 86.731C220.734 96.7762 229.983 110.883 229.983 130.43C229.983 148.898 214.642 178.035 193.307 201.368C171.971 224.702 144.781 242.093 125.27 242.093C104.639 242.093 90.7097 231.342 80.9615 214.756C71.2133 198.17 66.5007 175.765 66.5007 155.084C66.5007 135.483 76.1516 114.236 91.3254 98.1435C106.499 82.0506 126.904 71.2948 147.681 71.2948ZM147.681 65.052C101.873 65.052 60.258 111.873 60.258 155.084C60.258 198.295 79.4621 248.335 125.27 248.335C171.078 248.335 236.226 173.641 236.226 130.43C236.226 87.2197 193.489 65.052 147.681 65.052V65.052ZM281.22 77.0574L274.014 66.8617V66.8619L281.22 77.0574ZM639.384 77.8067L644.958 66.6341L639.384 77.8067ZM647.833 75.4313L658.385 82.1057V82.1055L647.833 75.4313ZM839.467 55.1814L831.057 64.41L831.126 64.4718L839.467 55.1814ZM809.529 312.007L801.947 302.089L809.529 312.007ZM806.98 317.603L819.418 316.512L806.98 317.603ZM616.769 653.398L617.848 665.838H617.849L616.769 653.398ZM612.356 655.682L621.953 663.668L612.356 655.682ZM293.98 656.948L305.201 651.472L293.98 656.948ZM288.791 653.305L290.036 640.882L288.791 653.305ZM97.5659 335.869L110.03 336.612L97.5659 335.869ZM96.8005 332.456L107.61 326.209L96.8005 332.456ZM65.9357 55.1814L56.656 46.8282L56.5858 46.9063L56.5169 46.9856L65.9357 55.1814ZM272.55 76.1094L263.338 84.5371L272.55 76.1094ZM288.427 87.2531C337.343 52.6771 469.106 6.81381 633.811 88.9791L644.958 66.6341C471.474 -19.9105 329.925 27.3409 274.014 66.8617L288.427 87.2531ZM658.385 82.1055C671.389 61.547 694.343 38.2832 723.512 29.5057C751.574 21.0609 788.059 25.2263 831.057 64.4097L847.876 45.953C799.622 1.97917 754.269 -5.82714 716.315 5.59398C679.468 16.6826 652.231 45.1222 637.282 68.7572L658.385 82.1055ZM831.126 64.4718C849.065 80.5786 871.671 117.61 874.691 161.865C877.64 205.1 861.965 256.204 801.947 302.089L817.113 321.927C883.546 271.137 903.144 212.059 899.604 160.166C896.133 109.291 870.481 66.2478 847.807 45.891L831.126 64.4718ZM794.542 318.696C798.908 368.434 794.931 446.571 768.915 513.594C743.029 580.286 696.361 633.962 615.691 640.96L617.849 665.838C711.366 657.726 764.282 594.542 792.195 522.63C819.977 451.052 824.011 368.846 819.418 316.512L794.542 318.696ZM602.758 647.695C573.116 683.319 553.053 705.971 531.035 720.158C509.774 733.86 485.806 740.149 447.304 740.149V765.12C488.844 765.12 518.007 758.26 544.562 741.149C570.361 724.525 592.801 698.701 621.953 663.668L602.758 647.695ZM447.304 740.149C423.896 740.149 397.529 736.558 372.594 723.897C347.865 711.339 323.74 689.46 305.201 651.472L282.76 662.424C303.57 705.068 331.497 731.033 361.287 746.161C390.873 761.185 421.494 765.12 447.304 765.12V740.149ZM290.036 640.882C257.038 637.576 208.778 619.108 170.449 573.077C132.306 527.27 103.089 453.041 110.03 336.612L85.103 335.127C77.8661 456.526 108.252 537.407 151.26 589.056C194.081 640.482 248.523 661.819 287.547 665.729L290.036 640.882ZM107.61 326.209C98.7557 310.885 84.0338 293.862 70.7435 276.943C56.9445 259.377 43.5831 240.69 34.8643 219.95C26.2416 199.44 22.2073 177.025 27.0525 151.792C31.9236 126.423 45.9766 97.1391 75.3546 63.3772L56.5169 46.9856C25.0729 83.1219 8.44056 116.297 2.5293 147.084C-3.40794 178.005 1.67816 205.446 11.8449 229.628C21.9153 253.582 37.0121 274.426 51.1065 292.369C65.7095 310.958 78.3164 325.424 85.9902 338.704L107.61 326.209ZM75.2156 63.5345C89.1856 48.0145 115.335 30.3756 147.901 27.8463C179.778 25.3705 220.039 37.2067 263.338 84.5371L281.762 67.6818C234.282 15.7814 186.88 -0.227262 145.967 2.9503C105.744 6.0743 73.976 27.5868 56.656 46.8282L75.2156 63.5345ZM110.03 336.612C110.227 333.286 109.574 329.608 107.61 326.209L85.9902 338.702C85.2179 337.367 85.0464 336.074 85.103 335.127L110.03 336.612ZM615.691 640.96C610.799 641.385 606.047 643.743 602.758 647.695L621.953 663.668C620.832 665.015 619.364 665.707 617.848 665.838L615.691 640.96ZM801.947 302.089C797.085 305.806 793.949 311.926 794.542 318.696L819.418 316.512C819.629 318.924 818.499 320.867 817.113 321.927L801.947 302.089ZM305.201 651.472C302.358 645.649 296.692 641.548 290.036 640.882L287.545 665.728C285.387 665.512 283.619 664.186 282.76 662.424L305.201 651.472ZM633.811 88.9791C642.588 93.3577 653.21 90.2888 658.385 82.1057L637.282 68.757C638.888 66.2176 642.156 65.2365 644.958 66.6341L633.811 88.9791ZM274.014 66.8619C276.503 65.1018 279.773 65.5076 281.762 67.6818L263.338 84.5371C269.772 91.5699 280.56 92.814 288.427 87.2531L274.014 66.8619Z" fill="black"/>
</svg>
