<?xml version="1.0" encoding="UTF-8" standalone="no"?>
<svg
   width="1000"
   height="1000"
   viewBox="0 0 1000 1000"
   fill="none"
   version="1.1"
   id="svg136"
   sodipodi:docname="horticulture.svg"
   inkscape:version="1.2.1 (9c6d41e, 2022-07-14)"
   xmlns:inkscape="http://www.inkscape.org/namespaces/inkscape"
   xmlns:sodipodi="http://sodipodi.sourceforge.net/DTD/sodipodi-0.dtd"
   xmlns="http://www.w3.org/2000/svg"
   xmlns:svg="http://www.w3.org/2000/svg">
  <sodipodi:namedview
     id="namedview4477"
     pagecolor="#ffffff"
     bordercolor="#111111"
     borderopacity="1"
     inkscape:showpageshadow="0"
     inkscape:pageopacity="0"
     inkscape:pagecheckerboard="1"
     inkscape:deskcolor="#d1d1d1"
     showgrid="false"
     inkscape:zoom="2.5437287"
     inkscape:cx="24.570231"
     inkscape:cy="46.388596"
     inkscape:window-width="1309"
     inkscape:window-height="456"
     inkscape:window-x="207"
     inkscape:window-y="1238"
     inkscape:window-maximized="0"
     inkscape:current-layer="svg136" />
  <defs
     id="defs140" />
  <g
     id="g2008"
     transform="matrix(10.778803,0,0,10.778803,232.90254,-0.02869994)">
    <path
       id="path134"
       style="color:#000000;fill:#000000;stroke-miterlimit:10;-inkscape-stroke:none"
       d="m 22.9375,0.03320312 c -0.19567,0.03177705 -0.384368,0.09848352 -0.552734,0.20312501 -0.171018,0.10619616 -0.317737,0.24584242 -0.433594,0.41015624 -0.115895,0.16435126 -0.197629,0.35020021 -0.240235,0.54687503 -0.04276,0.1967025 -0.04532,0.3999028 -0.0078,0.5976562 0.223234,1.2350238 0.04076,2.4843347 -0.152344,3.7558594 -0.222992,1.4795401 -0.482696,3.0753862 0.09375,4.601563 0.543129,1.437966 1.937451,2.685875 4.455078,3.634765 -0.01756,2.077514 -0.286743,4.14709 -0.875,6.140625 l -0.02344,0.08008 0.002,0.02344 c -0.005,0.02052 -0.01375,0.03964 -0.01758,0.06055 l 0.01172,-0.05078 c -0.350887,1.189878 -0.794394,2.348747 -1.230469,3.509766 -0.137238,-0.432062 -0.247469,-0.87231 -0.41211,-1.294922 1.101491,-2.527631 1.257957,-5.369424 0.353516,-7.980469 v -0.002 c -1.070452,-3.07372 -3.329712,-4.1202 -5.511774,-5.0780867 h -0.002 C 17.056279,8.5967888 15.740696,8.0053267 14.380859,6.9160156 l 0.01172,0.00977 C 14.126296,6.6997428 13.79223,6.5689301 13.443359,6.5546875 13.09448,6.5404385 12.750535,6.6422988 12.466797,6.8457031 l -0.0059,0.00391 -0.0059,0.00391 C 12.340532,6.9402211 11.947731,7.2816485 11.747966,7.9589919 11.5482,8.6363352 11.439578,9.6888876 11.5507,11.494149 c 0.134712,2.1859 0.554817,4.376846 1.177735,6.0625 0.890266,2.434798 2.669199,3.920206 4.404296,4.800781 1.571093,0.797339 3.036225,1.086185 3.947266,1.216797 1.221956,3.353028 0.902243,5.060146 0.888672,5.113281 -2e-5,7.9e-5 1.9e-5,0.0038 0,0.0039 -0.716739,1.705652 -1.327029,3.454017 -1.816406,5.238281 l -0.002,0.0059 -0.002,0.0059 c -0.04155,0.16562 -0.06419,0.335276 -0.101562,0.501953 -0.184488,-0.323067 -0.353774,-0.65428 -0.552734,-0.96875 C 20.98272,29.476359 19.366599,24.841906 16.705078,22.365234 14.65644,20.462861 12.679225,20.084429 10.753906,19.726562 9.1571598,19.429798 7.5856975,19.141599 5.5449219,18.013672 h -0.00195 c -0.8675875,-0.477997 -1.9313221,-0.278197 -2.4785156,0.513672 -0.4437836,0.643792 -0.5026059,1.536999 -0.3984375,2.595703 0.1041684,1.058703 0.4086008,2.291734 0.8808594,3.576172 0.9445171,2.568875 2.5591004,5.338161 4.7109375,7.162109 3.1930373,2.707021 7.0839733,3.035304 8.8398433,3.0625 1.711036,2.703861 2.307034,4.868116 2.396485,5.253906 0.08312,4.864684 1.300875,9.216736 2.050781,11.509766 -7.720088,0.721541 -12.8086296,5.464458 -14.2343749,6.992187 h -3.5234375 -0.00391 c -0.9938918,0.01815 -1.9437008,0.420034 -2.6484375,1.121094 -0.70462829,0.701067 -1.1094895,1.646929 -1.13281247,2.640625 -0.02332345,0.993832 0.33872189,1.958095 1.00976557,2.691406 0.5758945,0.629334 1.3570088,0.992015 2.1894532,1.138672 l 4.2460937,22.667969 c 0.2034717,1.077539 0.7752068,2.051546 1.6191407,2.751953 0.8438933,0.700486 1.9072152,1.084484 3.0039072,1.085938 H 34.75 c 1.10003,5.59e-4 2.165358,-0.383098 3.011719,-1.085938 0.846277,-0.702751 1.421473,-1.680358 1.623047,-2.761719 l 4.248046,-22.667968 c 0.832329,-0.146703 1.613714,-0.507555 2.189454,-1.136719 0.671232,-0.733277 1.033089,-1.69965 1.009765,-2.693359 -0.02321,-0.993821 -0.430019,-1.939555 -1.134765,-2.640625 -0.704737,-0.701061 -1.654546,-1.102942 -2.648438,-1.121094 h -0.0039 -3.539063 c -1.473562,-1.57526 -6.874882,-6.661542 -15.074218,-7.074219 -0.525236,-1.545159 -0.972065,-3.117941 -1.31836,-4.712891 0.07091,-0.62657 0.642785,-3.999791 4.861328,-6.96289 1.161558,0.270717 2.345732,0.439549 3.539063,0.439453 2.67546,0 6.177229,-0.719423 9.037109,-3.650391 1.893758,-1.936879 2.839638,-4.377127 3.201172,-6.693359 0.361409,-2.315427 0.149582,-4.508354 -0.310547,-6.046875 v -0.002 C 43.03629,22.586455 42.409748,21.639849 41.443365,21.425734 h -0.002 -0.002 c -0.309314,-0.06651 -0.631132,-0.04743 -0.929687,0.05664 -0.298879,0.104135 -0.56289,0.288913 -0.763672,0.533203 l 0.01172,-0.01367 c -2.353069,2.66329 -4.070133,3.283277 -5.871093,3.953125 -1.426274,0.530302 -3.014002,1.125955 -4.527344,2.748047 h -0.002 c -3.659164,3.923259 -3.60374,7.503734 -3.291016,9.1875 -1.702849,1.249874 -2.820166,2.548052 -3.660156,3.796875 -0.172341,-2.35437 -0.15259,-4.801019 0.425781,-7.082031 0.535077,-2.101012 1.429747,-4.291851 2.388672,-6.632813 0.912058,-2.222966 1.875057,-4.579288 2.589844,-7.082031 0.02513,-0.06141 0.842971,-1.81479 3.580078,-3.208984 0.879493,0.520199 2.387003,1.179687 4.763672,1.179687 h 0.002 0.002 c 1.346096,-0.01279 2.685588,-0.199055 3.984375,-0.552734 3.186177,-0.840423 5.572073,-2.764246 6.720703,-3.832031 h 0.002 c 0.240341,-0.224186 0.477815,-0.553662 0.765625,-0.970704 0.287811,-0.417042 0.600846,-0.905914 0.886719,-1.36914 0.285873,-0.463226 0.543248,-0.899528 0.71875,-1.216797 0.08775,-0.158635 0.153772,-0.283627 0.201172,-0.388672 0.0237,-0.05252 0.04605,-0.06297 0.06836,-0.210937 0.0047,-0.03096 0.0049,-0.08675 -0.0059,-0.160157 0.0071,-0.05218 0.06359,-0.101409 0.05859,-0.146484 C 49.537658,9.8247633 49.468779,9.7008337 49.404297,9.5976563 49.275332,9.3913014 49.095507,9.2036844 49.125,9.2421875 48.954549,9.0196599 48.774533,9.0147746 48.664062,9.0039063 c -0.11047,-0.010868 -0.195427,-0.00318 -0.273437,0.00586 -0.03854,0.00446 -0.0366,0.00802 -0.07031,0.013672 -0.01724,-0.00407 -0.04371,-0.011871 -0.05664,-0.013672 -0.01734,-0.00242 -0.02998,-0.00322 -0.04297,-0.00391 -0.0076,-4.014e-4 -0.01608,9.39e-5 -0.02344,0 -0.0033,-3.823e-4 -0.0065,3.606e-4 -0.0098,0 -0.0066,-7.275e-4 -0.01294,0.00259 -0.01953,0.00195 -0.0089,4.116e-4 -0.01746,-9.695e-4 -0.02734,0 -0.0042,4.088e-4 -0.01122,0.00339 -0.01563,0.00391 -0.0016,1.832e-4 -0.0043,-2.013e-4 -0.0059,0 -0.174009,-0.011094 -0.348117,-0.00402 -0.515625,0.044922 l 0.01563,-0.00586 C 45.699593,9.5376954 43.609194,9.4598565 41.480469,9.3984375 39.166144,9.331431 36.763314,9.2478933 34.6875,9.9746094 c -2.020882,0.7074856 -3.675196,2.2815746 -4.435547,5.1796876 -0.545283,0.267425 -1.040786,0.618541 -1.542969,0.958984 0.09402,-0.89314 0.187891,-1.78713 0.175782,-2.685547 1.015586,-0.882858 2.554575,-2.867454 1.810546,-6.5644528 C 30.246107,4.6255065 28.708956,2.8672225 27.123047,1.6914062 26.330092,1.1034981 25.520522,0.65952762 24.800781,0.37304688 24.083357,0.0874881 23.482551,-0.06689645 22.9375,0.03320312 Z m 0.177734,0.98046878 c 0.150258,-0.0280717 0.688783,0.037294 1.316407,0.2871093 0.627623,0.249815 1.371296,0.6562737 2.095703,1.1933594 1.448813,1.0741715 2.806006,2.6659452 3.1875,4.5664063 0.717816,3.5667551 -0.830747,5.1926491 -1.63086,5.8242191 l -0.195312,0.154297 0.0059,0.25 c 0.02532,1.232474 -0.05489,2.464396 -0.238281,3.683593 l -0.189453,1.261719 0.996094,-0.796875 c 0.741543,-0.593311 1.550124,-1.097154 2.410156,-1.5 l 0.21875,-0.101562 0.05664,-0.234375 c 0.669484,-2.800614 2.051312,-4.046512 3.871094,-4.683594 1.819782,-0.637083 4.119724,-0.586525 6.433594,-0.519531 2.120471,0.06118 4.302661,0.158131 6.412109,-0.376954 l 0.0098,-0.0039 0.0078,-0.002 c 0.04494,-0.01313 0.09223,-0.01147 0.138672,-0.01172 l 0.134766,0.07813 0.195312,-0.05078 c 0,0 0.05969,-0.01085 0.109375,-0.01953 0.0094,0.01085 0.02313,0.02726 0.03125,0.03711 v 0.136719 c -0.02961,0.06034 -0.06598,0.132709 -0.130859,0.25 -0.163103,0.294855 -0.416261,0.723608 -0.695312,1.175781 -0.279052,0.452173 -0.58603,0.93009 -0.859375,1.326172 -0.273346,0.396082 -0.536088,0.725527 -0.623047,0.806641 -1.079168,1.003212 -3.356106,2.82248 -6.294922,3.597656 l -0.002,0.002 h -0.002 c -1.215979,0.331613 -2.470074,0.505105 -3.730469,0.517578 -2.399836,0 -3.867147,-0.726619 -4.542969,-1.167969 L 31.375,16.539062 31.121094,16.662109 c -3.177385,1.528939 -4.122416,3.575968 -4.234375,3.84961 l -0.01172,0.02539 -0.0078,0.02734 c -0.696264,2.452945 -1.651573,4.790046 -2.570312,7.029297 -0.958873,2.340833 -1.873871,4.567841 -2.433594,6.765625 -0.73958,2.9168 -0.714725,6.048903 -0.382812,8.888672 l 0.189453,1.609375 0.75,-1.4375 c 0.787493,-1.505263 2.133674,-3.285574 4.457031,-4.923828 l 0.273438,-0.191407 -0.07422,-0.326171 c -0.297932,-1.325542 -0.614284,-4.703952 3.013672,-8.59375 1.361655,-1.459505 2.72076,-1.962091 4.146484,-2.492188 1.801237,-0.669951 3.804959,-1.436811 6.271484,-4.228516 l 0.0059,-0.0059 0.0059,-0.0078 c 0.08442,-0.10271 0.194991,-0.178992 0.320313,-0.222657 0.124195,-0.04329 0.258222,-0.05228 0.386718,-0.02539 0.415162,0.09198 0.895365,0.618413 1.25586,1.847656 v 0.002 0.002 c 0.408537,1.365098 0.618365,3.447633 0.28125,5.607422 -0.337115,2.159789 -1.211496,4.39312 -2.927735,6.148438 -2.633106,2.699255 -5.822483,3.349609 -8.322265,3.349609 -1.205623,9.7e-5 -2.407172,-0.150307 -3.576172,-0.445313 l -0.21875,-0.05469 -0.185547,0.126953 c -4.675336,3.204832 -5.349907,7.066547 -5.433594,7.847656 l -0.0098,0.08008 0.01758,0.07813 c 0.377795,1.760922 0.862514,3.495935 1.453125,5.197266 l 0.113281,0.326172 0.34375,0.0098 c 8.2154,0.246392 13.679218,5.630882 14.919922,6.982421 l 0.148437,0.16211 h 3.945313 c 0.736306,0.01345 1.438875,0.310739 1.960937,0.830078 0.522053,0.519329 0.822653,1.2189 0.839844,1.955078 0.01728,0.736089 -0.25088,1.451019 -0.748047,1.994141 -0.497117,0.543246 -1.185112,0.872092 -1.919922,0.919922 l -0.386718,0.02539 -4.376953,23.351563 c -0.158827,0.852038 -0.610623,1.622133 -1.277344,2.175781 -0.666838,0.553759 -1.506279,0.855909 -2.373047,0.855469 H 12.070313 C 11.206206,91.776198 10.369982,91.473788 9.7050781,90.921875 9.0406585,90.370453 8.5902973,89.60424 8.4296875,88.755859 v -0.002 L 4.0546875,65.40425 3.6679688,65.37886 C 2.9331922,65.330988 2.2451275,65.00219 1.7480469,64.458984 1.2508917,63.915697 0.98272349,63.20101 1,62.464844 1.017277,61.728742 1.3198264,61.029098 1.8417969,60.509766 2.363859,59.990427 3.0644748,59.693135 3.8007813,59.679687 H 7.7324219 L 7.8808594,59.517578 C 9.0896466,58.196346 14.319405,53.053449 22.197266,52.564453 l 0.65039,-0.04102 -0.208984,-0.61914 c -0.711842,-2.10534 -2.088423,-6.825549 -2.15625,-11.839844 v -0.05469 l -0.01172,-0.05078 C 20.358285,39.47306 19.741857,37.125528 17.839844,34.193359 L 17.691406,33.964844 H 17.421875 C 15.915837,33.963016 11.937317,33.67097 8.9042969,31.099609 6.9485381,29.441861 5.380706,26.791335 4.484375,24.353516 4.0362095,23.134606 3.755022,21.969698 3.6621094,21.025391 c -0.092913,-0.944307 0.039647,-1.658531 0.2265625,-1.929688 0.2834057,-0.41013 0.6498639,-0.49268 1.171875,-0.205078 v -0.002 c 2.1702201,1.19947 3.913716,1.525631 5.5097661,1.822265 1.925677,0.357934 3.585566,0.652497 5.453124,2.386719 2.403235,2.236324 3.957484,6.706224 2.486329,10.277344 l -0.09961,0.242187 0.142578,0.21875 c 0.464396,0.720588 0.889952,1.465744 1.273438,2.232422 l 0.699219,1.398438 0.240234,-1.544922 c 0.09089,-0.580543 0.209215,-1.157616 0.351562,-1.726563 0.484281,-1.765681 1.084622,-3.496832 1.796875,-5.183593 l 0.01367,-0.03516 0.0098,-0.03516 c 0.0827,-0.321113 0.447505,-2.23254 -0.986328,-5.974609 l -0.107422,-0.28125 -0.298828,-0.03711 c -0.78022,-0.09514 -2.38127,-0.379947 -3.960938,-1.18164 -1.579667,-0.801693 -3.127476,-2.095924 -3.916015,-4.253906 v -0.002 C 13.09272,15.654093 12.678148,13.531389 12.54886,11.433494 12.441783,9.693958 12.56135,8.7361429 12.707063,8.2420875 12.851286,7.753073 12.921231,7.7575711 13.056673,7.65615 c 0.101332,-0.070433 0.222333,-0.1085543 0.345703,-0.1035156 0.126329,0.00516 0.247432,0.053004 0.34375,0.1347656 l 0.0039,0.00391 0.0059,0.00586 c 1.46866,1.1764855 2.89354,1.8124432 4.234375,2.408203 h 0.002 v 0.002 c 2.177656,0.955926 4.018309,1.749725 4.972657,4.490234 h -0.002 c 0.847273,2.446006 0.713152,5.125725 -0.375,7.47461 l -0.08984,0.195312 0.08008,0.199219 c 0.359241,0.901763 0.652395,1.827574 0.878906,2.771484 l 0.363281,1.509766 0.585938,-1.4375 c 0.667481,-1.633314 1.252883,-3.297857 1.751953,-4.990235 l 0.0059,-0.02539 0.0059,-0.02734 c 0.0012,-0.0067 0.0032,-0.01222 0.0059,-0.01953 l 0.02539,-0.07227 0.002,-0.07422 c 4.81e-4,-0.01059 3.1e-5,-0.02093 0,-0.03125 0.616035,-2.134341 0.944356,-4.342573 0.935547,-6.564453 l -0.002,-0.357421 -0.337891,-0.113282 C 24.130891,12.127253 23.036731,11.003938 22.580078,9.7949219 22.123425,8.585906 22.316055,7.1769025 22.539062,5.6972656 22.732363,4.4244131 22.947437,3.0527754 22.685547,1.609375 v -0.00195 -0.00195 c -0.01249,-0.065846 -0.01228,-0.1337415 0.002,-0.1992187 0.0142,-0.065525 0.04137,-0.1287053 0.08008,-0.1835938 0.03874,-0.054946 0.0895,-0.101335 0.146484,-0.1367187 0.05695,-0.035396 0.119146,-0.057973 0.185547,-0.068359 l 0.0078,-0.00195 z m 0.429688,0.71875 0.01758,0.7910156 c 0.02301,1.0559578 -0.06872,2.1104215 -0.251953,3.1503906 l -0.01953,0.1289063 c -0.20008,1.3237793 -0.398125,2.4822533 -0.03711,3.5683594 0.361012,1.0861062 1.303534,1.9636922 3.058594,2.6621092 l 0.78125,0.310547 -0.09961,-0.833984 C 26.877157,10.538979 26.685127,9.5778793 26.419922,8.6367188 l -0.002,-0.00586 -0.002,-0.00586 c -0.01512,-0.049265 -0.02075,-0.09946 -0.01563,-0.1503906 0.0051,-0.050939 0.02044,-0.1015488 0.04492,-0.1464844 0.02437,-0.044793 0.05766,-0.083316 0.09766,-0.1152344 0.04006,-0.031968 0.08756,-0.05644 0.136718,-0.070312 0.04948,-0.013961 0.09988,-0.017983 0.150391,-0.011719 0.05067,0.00628 0.09973,0.023094 0.144531,0.048828 0.04412,0.025342 0.084,0.05857 0.115235,0.099609 0.03087,0.040514 0.05362,0.087093 0.06641,0.1367187 v 0.00586 l 0.002,0.00586 c 0.223989,0.7970778 0.397928,1.6068389 0.519531,2.4257819 l 0.232422,1.570312 0.708985,-1.419922 c 0.420792,-0.84385 0.678933,-2.0931315 0.335937,-3.8027344 v -0.00195 C 28.408536,4.4483253 25.738972,2.7172088 24.267578,2.0566406 Z m 0.945312,1.6660156 c 1.314502,0.7379521 3.108125,2.1006547 3.484375,3.9980469 0.04233,0.2106956 0.0084,0.3366887 0.03125,0.5273437 -0.04035,-0.083766 -0.06442,-0.1756232 -0.121093,-0.25 C 27.773204,7.5272672 27.632934,7.4045579 27.472656,7.3125 27.313061,7.220834 27.136456,7.1613923 26.953125,7.1386719 c -0.183292,-0.022735 -0.367598,-0.00902 -0.544922,0.041016 -0.17764,0.050128 -0.34414,0.1349686 -0.488281,0.25 -0.144205,0.1150817 -0.263329,0.2596686 -0.351563,0.421875 -0.08779,0.1616207 -0.143701,0.3386485 -0.162109,0.5214844 -0.01848,0.1836688 6.12e-4,0.3707403 0.05469,0.546875 l -0.0039,-0.011719 c 0.156897,0.5567946 0.237498,1.1302517 0.339844,1.6992187 C 24.940003,10.121791 24.39238,9.6260156 24.203125,9.0566406 23.953542,8.3057685 24.082504,7.2943206 24.277344,6 l 0.0059,-0.027344 c 0.155932,-0.8486779 0.180504,-1.7126129 0.207031,-2.5742187 z m -11.128906,5.0039063 -0.0625,0.8515625 c -0.122243,1.6692337 0.110063,5.0329827 1.076172,7.6738277 1.155521,3.156045 4.279845,4.313496 6.142578,4.736328 l 1.017578,0.232422 -0.457031,-0.9375 c -0.889542,-1.823327 -1.914946,-3.577705 -3.066406,-5.248046 l -0.002,-0.0059 -0.0039,-0.0039 c -0.03027,-0.04195 -0.05101,-0.08874 -0.0625,-0.138672 -0.01153,-0.05033 -0.01277,-0.101994 -0.0039,-0.152344 0.0089,-0.05081 0.02677,-0.09942 0.05469,-0.142578 0.02784,-0.04307 0.0648,-0.08042 0.107421,-0.109375 0.04223,-0.02872 0.0901,-0.04853 0.140625,-0.05859 0.05016,-0.01003 0.102152,-0.01036 0.152344,0 0.05068,0.01045 0.09848,0.03151 0.140625,0.06055 0.04232,0.02915 0.07783,0.06605 0.105469,0.109375 l 0.0059,0.0078 0.0039,0.0059 c 1.069689,1.557637 2.034073,3.184877 2.886718,4.871094 l 0.607422,1.201172 0.324219,-1.304688 c 0.427413,-1.721815 0.346179,-3.530734 -0.234375,-5.207031 v -0.002 c -0.408883,-1.173245 -1.045014,-1.986719 -1.832031,-2.589844 -0.787017,-0.603125 -1.705453,-1.007364 -2.730469,-1.464844 l -0.0059,-0.0039 -0.0059,-0.002 C 16.406352,10.261477 15.204095,9.6239511 14.072266,8.875 Z m 34.958984,0.6894531 0.154297,0.019531 c -2.81e-4,-1.599e-4 0.01162,0.012399 0.01172,0.011719 0.0012,-0.00824 0.02125,-0.055212 0.134766,0.1484375 0.01536,0.027558 0.0451,0.1080576 0.04492,0.1074219 -1.77e-4,-6.358e-4 0.01559,0.1645867 0.01563,0.1640625 3.4e-5,-5.243e-4 -0.05099,0.1898753 -0.05078,0.1894531 2.11e-4,-4.223e-4 -0.103866,0.1409548 -0.103515,0.140625 2.27e-4,-2.135e-4 -0.03574,0.026701 -0.06641,0.048828 -0.0042,0.00305 -0.0062,0.00327 -0.0098,0.00586 -0.0347,-0.012785 -0.04721,-0.00395 -0.09961,-0.0625 -0.05333,-0.1221895 -0.15625,-0.359375 -0.15625,-0.359375 -6e-5,-3.06e-5 0.09618,-0.3173938 0.125,-0.4140625 z m 0.04492,0.7988281 c 0.0219,0.027069 0.03051,0.039227 0.04883,0.060547 -0.003,0.00141 -0.01209,0.00637 -0.01953,0.00977 -5.24e-4,-0.0012 -0.0211,-0.051529 -0.0293,-0.070312 z m -0.0039,0.083984 c -0.0074,0.00305 -0.01256,0.00616 -0.01758,0.00781 -0.01428,0.00469 -0.02139,0.00298 -0.0332,0.00586 0.02277,-0.00645 0.03102,-0.00806 0.05078,-0.013672 z M 48.125,10.001953 c 0.0173,0.0025 0.03808,0.0048 0.07422,0.0039 -0.01029,1.15e-4 -0.02054,5.66e-4 -0.03125,0 -0.01206,-6.37e-4 -0.02635,-0.0016 -0.04297,-0.0039 z m -33.796875,0.136719 c 0.954337,0.576428 1.918516,1.139122 2.949219,1.566406 1.017756,0.454308 1.862365,0.839223 2.515625,1.339844 0.656656,0.503224 1.143177,1.1143 1.496093,2.126953 0.357718,1.03367 0.422639,2.119405 0.351563,3.201172 -0.681338,-1.235942 -1.35746,-2.476402 -2.15625,-3.640625 l -0.002,-0.002 c -0.09936,-0.155078 -0.229142,-0.290012 -0.38086,-0.394531 -0.152655,-0.105167 -0.324743,-0.177496 -0.505859,-0.214844 -0.181407,-0.03744 -0.36699,-0.03832 -0.548828,-0.002 -0.181478,0.03614 -0.354444,0.108606 -0.507813,0.21289 -0.153176,0.104048 -0.284208,0.237044 -0.384765,0.392578 -0.100682,0.155643 -0.169113,0.329531 -0.201172,0.511719 -0.03213,0.18245 -0.02565,0.368563 0.01563,0.548828 v 0.002 c 0.04152,0.180473 0.118431,0.350147 0.226562,0.5 0.854464,1.240272 1.56778,2.567827 2.275391,3.896485 -1.591846,-0.558762 -3.383822,-1.489897 -4.15625,-3.59961 -0.776783,-2.123325 -1.001185,-4.786526 -0.986328,-6.445312 z m 35.142578,0.09766 0.01953,0.0078 -0.138672,0.294922 c 0.07399,-0.08954 0.09193,-0.192309 0.119141,-0.302735 z m -1.767578,0.660156 -1.25,0.154297 c -1.636917,0.204106 -3.345241,0.157115 -5.033203,0.107422 -2.265774,-0.06433 -4.140928,-0.08526 -5.683594,0.330078 -1.542665,0.415344 -2.748572,1.340058 -3.4375,2.984375 l -0.412109,0.980469 1.017578,-0.308594 c 1.180309,-0.358562 2.391512,-0.609464 3.617187,-0.748047 h 0.0098 l 0.01172,-0.002 c 0.0515,-0.008 0.102361,-0.0068 0.152343,0.0059 0.0503,0.01269 0.09747,0.03516 0.138672,0.06641 0.04119,0.03127 0.07602,0.07051 0.101563,0.115234 v 0.002 c 0.02568,0.04489 0.04279,0.09326 0.04883,0.144532 0.006,0.05122 9.27e-4,0.104379 -0.01367,0.154297 -0.0147,0.04923 -0.04001,0.09546 -0.07227,0.134765 -0.03293,0.04013 -0.07334,0.07371 -0.11914,0.09766 -0.04597,0.02399 -0.09525,0.03695 -0.146485,0.04102 l -0.0098,0.002 h -0.0078 c -1.05604,0.120427 -2.09983,0.32596 -3.123047,0.613281 l -1.626953,0.457032 1.613282,0.501953 c 1.303127,0.405587 3.343205,0.62299 6.208984,-0.13086 v -0.002 c 3.381874,-0.889579 5.958502,-3.217559 7.210937,-4.730468 z m -2.492188,1.177735 c -1.307632,1.321112 -3.2366,2.888247 -5.779296,3.55664 v 0.002 c -0.825503,0.21703 -1.420891,0.218864 -2.087891,0.285156 0.119157,-0.07739 0.237695,-0.155432 0.328125,-0.265625 0.118184,-0.144047 0.205454,-0.309949 0.257812,-0.488281 v -0.002 c 0.0522,-0.178482 0.06865,-0.365805 0.04687,-0.550781 -0.02177,-0.184928 -0.08131,-0.363684 -0.173828,-0.52539 h 0.002 c -0.09246,-0.161878 -0.21702,-0.301533 -0.365234,-0.414063 -0.148402,-0.112554 -0.317744,-0.194729 -0.498047,-0.240234 -0.180617,-0.04559 -0.369031,-0.05398 -0.552734,-0.02539 -0.85421,0.09739 -1.684087,0.321771 -2.519531,0.521484 0.539692,-0.707353 1.184766,-1.218984 2.126953,-1.472656 1.331281,-0.358431 3.141209,-0.360848 5.394531,-0.296875 1.243913,0.03662 2.53629,-0.01482 3.820312,-0.08398 z M 4.3925781,19.404297 4.375,20.205078 c -0.021491,1.002913 0.3582553,2.751347 1.1699219,4.705078 0.8116665,1.953732 2.0630847,4.072122 3.859375,5.595703 l 0.140625,0.117188 H 9.625 c 2.147051,1.722198 4.722263,2.313617 6.439453,2.486328 l 1.177734,0.119141 -0.736328,-0.927735 c -1.730096,-2.179698 -3.781286,-4.083754 -6.083984,-5.646484 -0.08105,-0.05886 -0.135272,-0.145282 -0.152344,-0.244141 v -0.002 c -0.01705,-0.09869 0.0039,-0.198562 0.06055,-0.28125 0.05658,-0.08263 0.144013,-0.140417 0.242188,-0.160156 0.09842,-0.01979 0.199051,3.69e-4 0.283203,0.05469 2.445486,1.656745 4.616784,3.684108 6.435547,6.011719 l 0.667968,0.857422 0.214844,-1.066406 C 18.787118,28.781963 17.463654,25.467585 15.5,23.644531 13.830937,22.092651 12.240648,21.782304 10.431641,21.447266 h -0.002 C 8.8768462,21.166112 7.203604,20.856864 5.1054687,19.771484 Z m 1.1875,1.625 c 1.7826626,0.77894 3.3525253,1.163814 4.6699219,1.402344 1.808589,0.334961 3.077379,0.557195 4.570313,1.945312 1.440724,1.337566 2.477593,3.798276 2.421874,6.128906 C 15.527598,28.493023 13.600868,26.67186 11.408203,25.1875 l -0.0059,-0.0039 -0.0039,-0.002 C 11.09559,24.986159 10.728176,24.915318 10.375,24.986328 c -0.353425,0.07106 -0.6655203,0.278801 -0.8691406,0.576172 -0.2029115,0.297017 -0.2838933,0.663122 -0.2226563,1.017578 0.061328,0.355141 0.2592302,0.671074 0.5507813,0.882813 l 0.00586,0.0059 0.00781,0.0039 c 1.8003636,1.220209 3.3879596,2.706916 4.8339846,4.326172 -1.48992,-0.303904 -3.162834,-0.819814 -4.621094,-2.056641 l -0.03906,-0.0332 C 8.4181752,28.335756 7.2328106,26.366485 6.46875,24.527344 5.8430322,23.021202 5.6775441,21.887439 5.5800781,21.029297 Z m 35.6015629,2.05664 -0.509766,0.544922 c -2.44716,2.617176 -4.35769,3.314585 -6.167969,3.986328 h -0.002 c -1.400467,0.522265 -2.631271,0.984922 -3.851562,2.298829 -2.802771,3.005136 -3.089368,5.732809 -2.939454,7.205078 l 0.07813,0.761718 0.666016,-0.378906 c 0.316117,-0.17966 0.646432,-0.357396 0.990234,-0.529297 2.574761,-1.28738 4.398431,-2.944676 5.582032,-4.289062 1.183601,-1.344386 1.713683,-2.34683 1.753906,-2.423828 l -0.0039,0.0098 c 0.04833,-0.08744 0.126918,-0.1524 0.222656,-0.18164 0.09581,-0.02922 0.199968,-0.02022 0.289062,0.02539 0.08891,0.04554 0.155281,0.124095 0.1875,0.21875 0.03137,0.09231 0.02405,0.192601 -0.01563,0.28125 -0.0662,0.129325 -2.20946,4.238972 -7.480468,6.947266 l -1.525391,0.783203 1.707031,0.160156 c 2.404628,0.223923 6.19744,-0.0374 9.126953,-3.033203 2.669888,-2.730651 2.940639,-6.335793 2.875,-8.238281 -0.05561,-1.614355 -0.369277,-2.803642 -0.673828,-3.470703 z m -0.46875,1.78711 c 0.188651,0.582587 0.411164,1.233032 0.451171,2.394531 0.06076,1.761108 -0.208689,5.068516 -2.591796,7.505859 -2.047047,2.093364 -4.429468,2.535583 -6.5,2.611329 4.252723,-2.752389 6.175289,-6.107195 6.285156,-6.322266 l 0.0039,-0.0059 0.0039,-0.0078 c 0.153639,-0.324957 0.174159,-0.696981 0.05859,-1.037109 -0.11578,-0.340144 -0.359798,-0.623252 -0.679687,-0.78711 -0.319905,-0.163785 -0.691569,-0.196577 -1.035157,-0.0918 -0.343662,0.104961 -0.632772,0.339738 -0.80664,0.654297 l -0.0039,0.0059 -0.002,0.0059 c 0.01922,-0.0368 -0.502493,0.956273 -1.61914,2.224609 -1.116647,1.268337 -2.843063,2.838524 -5.279297,4.056641 -0.06777,0.03389 -0.128544,0.06925 -0.195313,0.103516 0.02157,-1.328178 0.372592,-3.2217 2.578125,-5.585938 l 0.002,-0.002 c 1.076506,-1.15909 2.067021,-1.518281 3.46875,-2.041016 1.636096,-0.607109 3.610763,-1.521857 5.861329,-3.68164 z M 23.410156,53.277344 c -6.515389,0 -11.373343,3.463854 -13.6855466,5.517578 l -0.984375,0.875 H 23.404297 l 14.673828,-0.002 -0.984375,-0.875 C 34.781746,56.739423 29.931083,53.277344 23.410156,53.277344 Z m 0,1 c 5.349794,0 9.445881,2.451051 11.908203,4.390625 l -11.914062,0.002 H 11.5 c 2.463347,-1.939871 6.565623,-4.392578 11.910156,-4.392578 z M 3.7851563,60.4375 c -0.5537467,0 -1.0850229,0.221742 -1.4765625,0.613281 -0.3916083,0.391608 -0.6132813,0.922827 -0.6132813,1.476563 0,0.553667 0.2215641,1.084977 0.6132813,1.476562 0.3915461,0.391678 0.9228158,0.611328 1.4765625,0.611328 H 43.023437 c 0.553098,-0.0013 1.083541,-0.222344 1.47461,-0.613281 0.391046,-0.391046 0.611968,-0.921591 0.613281,-1.474609 v -0.002 C 45.110671,61.971934 44.891273,61.442054 44.5,61.050781 44.108727,60.659508 43.576894,60.438157 43.023437,60.4375 Z m 0,1 H 43.023437 c 0.288265,8.35e-4 0.565647,0.116428 0.769532,0.320312 0.203883,0.203884 0.317522,0.479316 0.318359,0.767579 -6.86e-4,0.28898 -0.115959,0.565178 -0.320312,0.769531 -0.204531,0.204462 -0.48063,0.319626 -0.769532,0.320312 H 3.7851563 c -0.2888526,0 -0.565278,-0.114037 -0.7695313,-0.318359 -0.2042823,-0.204214 -0.3203125,-0.4806 -0.3203125,-0.769531 0,-0.289063 0.1159213,-0.56514 0.3203125,-0.769532 C 3.2198848,61.553553 3.4963037,61.4375 3.7851563,61.4375 Z m 1.0468749,3.945312 4.3515626,23.220704 v 0.002 c 0.1267484,0.67314 0.4846779,1.281336 1.0117192,1.71875 0.527041,0.437294 1.190046,0.675299 1.875,0.675781 H 34.75 c 0.685166,-1.2e-4 1.349731,-0.238317 1.876953,-0.675781 0.527263,-0.437498 0.885431,-1.047209 1.011719,-1.720703 l 4.34375,-23.220704 z m 1.2050782,1 H 40.777344 l -4.123047,22.03711 h 0.002 c -0.08331,0.444305 -0.320033,0.846064 -0.667969,1.134765 C 35.640304,89.843423 35.202233,89.99992 34.75,90 H 12.070313 C 11.618267,89.999682 11.181942,89.841439 10.833984,89.552734 10.486756,89.264032 10.24956,88.863613 10.166016,88.419922 Z M 48.992923,10.246192 c 0.2356,-0.1991 -0.1829,-0.5926998 -0.2644,-0.6990998 -0.0815,-0.1064 -0.5,0 -0.5,0 -0.1166,-0.0662 0.0445,-0.0289 -0.0887,-0.0444 -0.1332,-0.0156 -0.2681,-0.0042 -0.3968,0.0334 -2.0145,0.5109998 -4.1516,0.423 -6.2762,0.3617 -4.6282,-0.134 -9.4057,-0.266 -10.8049,5.5871998 -0.8958,0.4196 -1.7388,0.9439 -2.5112,1.5619 0.1876,-1.2472 0.2689,-2.508 0.243,-3.7688 0.8996,-0.7101 2.563,-2.5783 1.8107,-6.3163998 -0.8307,-4.13824 -5.7881,-6.69925997 -7.1815,-6.43893997 -0.1326,0.02074 -0.2596,0.06791 -0.3735,0.1387 -0.114,0.07079 -0.2125,0.16376 -0.2898,0.27339 -0.0773,0.10961997 -0.1318,0.23366997 -0.1602,0.36476997 -0.0285,0.13109 -0.0303,0.26657 -0.0053,0.39837 0.2431,1.33984 0.044,2.65098 -0.1493,3.92383 -0.446,2.95918 -0.9073,6.0139798 4.5937,7.8859798 0.0088,2.2196 -0.3058,4.4286 -0.934,6.5575 2e-4,0.0045 2e-4,0.009 0,0.0134 -0.0116,0.0324 -0.0206,0.0657 -0.0268,0.0996 -0.4943,1.6762 -1.0731,3.3263 -1.7342,4.944 -0.2321,-0.9672 -0.5334,-1.9165 -0.9015,-2.8405 1.1425,-2.4662 1.2839,-5.2794 0.3943,-7.8476 -1.0125,-2.9075 -3.0625,-3.8282 -5.2426,-4.7851998 -1.3398,-0.5953 -2.7103,-1.2097 -4.1248,-2.3428 -0.1813,-0.1539 -0.4088,-0.2427 -0.6464,-0.2524 -0.2375,-0.0097 -0.4715,0.0603 -0.6647,0.1988 -0.2527,0.1914 -0.9264,0.6661 -0.7082,4.2108998 0.132,2.1419 0.5493,4.299 1.1484,5.9202 1.6786,4.5938 6.6533,5.5623 8.286,5.7614 1.403,3.6616 1.0163,5.4857 0.9685,5.6713 -0.7208,1.707 -1.3283,3.4596 -1.8184,5.2465 -0.1474,0.5876 -0.2679,1.1829 -0.3617,1.782 -0.3916,-0.7829 -0.8255,-1.5439 -1.2997,-2.2797 1.5715,-3.8147 -0.0459,-8.4487 -2.6088,-10.8336 -1.9581,-1.8183 -3.7765,-2.1552 -5.702,-2.5131 -1.5963996,-0.2967 -3.2538996,-0.603 -5.3593996,-1.7667 -0.6948,-0.3828 -1.4107,-0.2412 -1.826,0.3598 -1.2614,1.8299 0.9972,9.1875 5.1048,12.6692 3.1810996,2.6969 7.2733996,2.9821 8.8390996,2.984 1.8624,2.8711 2.4615,5.168 2.5629,5.6063 0.069,5.101 1.4605,9.8593 2.1821,11.9935 -8.0793,0.5015 -13.3984996,5.7422 -14.6540996,7.1146 h -3.719 c -0.8651,0.0158 -1.6906,0.3653 -2.304,0.9755 -0.61330002,0.6102 -0.96710002,1.4339 -0.98740002,2.2988 -0.0203,0.865 0.2946,1.7043 0.87870002,2.3426 0.5841,0.6383 1.3924,1.026 2.2557,1.0823 l 4.3028,22.9688 c 0.1819,0.9633 0.6941,1.8331 1.4485,2.4592 0.7543996,0.6262 1.7035996,0.9695 2.6839996,0.9708 h 22.6797 c 0.9834,5e-4 1.936,-0.3431 2.6926,-0.9714 0.7565,-0.6282 1.2693,-1.5015 1.4495,-2.4682 l 4.3047,-22.9688 c 0.8634,-0.0562 1.6716,-0.444 2.2557,-1.0823 0.5842,-0.6382 0.899,-1.4776 0.8787,-2.3425 -0.0202,-0.865 -0.374,-1.6887 -0.9874,-2.2989 -0.6134,-0.6102 -1.4389,-0.9597 -2.304,-0.9755 h -3.7343 c -1.2862,-1.4011 -6.8466,-6.8906 -15.2723,-7.1433 -0.5839,-1.682 -1.064,-3.3983 -1.4375,-5.1392 0.0728,-0.6795 0.6795,-4.3756 5.2197,-7.4878 1.209,0.3051 2.4511,0.4594 3.698,0.4593 2.5878,0 5.9336,-0.6833 8.6802,-3.4989 3.61,-3.6922 3.6368,-9.3463 2.7678,-12.25 -0.3828,-1.3053 -0.936,-2.0423 -1.627,-2.1954 -0.2195,-0.0472 -0.4478,-0.033 -0.6598,0.0409 -0.2121,0.0739 -0.3996,0.2048 -0.5422,0.3783 -2.4098,2.7275 -4.2703,3.4204 -6.0714,4.0903 -1.426,0.5302 -2.8998,1.0796 -4.3373,2.6204 -3.7382,4.008 -3.4587,7.6046 -3.1352,9.0439 -2.3888,1.6844 -3.7899,3.5315 -4.611,5.101 -0.3273,-2.8003 -0.3484,-5.8762 0.3694,-8.7071 0.5474,-2.1494 1.4528,-4.3583 2.4117,-6.6992 0.9188,-2.2394 1.8835,-4.5937 2.5898,-7.082 0.0689,-0.1684 0.934,-2.1189 3.9889,-3.5889 0.7445,0.4862 2.3141,1.2499 4.8157,1.2499 1.3052,-0.0124 2.6034,-0.1925 3.8626,-0.5359 3.0625,-0.8078 5.3939,-2.6797 6.5078,-3.7152 0.6546,-0.6106 2.7048,-4.0636 2.4692,-3.8702 z m -17.9769,20.0096 c 1.1484,-1.2365 2.2605,-1.648 3.6616,-2.1705 1.8107,-0.6719 3.8511,-1.4318 6.3585,-4.1134 0.2622,0.5743 0.5742,1.7227 0.6278,3.2788 0.0632,1.8318 -0.2067,5.2886 -2.7332,7.8726 -2.7888,2.8519 -6.4007,3.1007 -8.7224,2.8845 5.4129,-2.7812 7.6122,-6.9921 7.7041,-7.172 0.0982,-0.2077 0.1117,-0.4454 0.0378,-0.6629 -0.074,-0.2174 -0.2297,-0.3976 -0.4341,-0.5023 -0.2045,-0.1047 -0.4416,-0.1257 -0.6613,-0.0587 -0.2197,0.0671 -0.4047,0.217 -0.5158,0.418 -0.021,0.0402 -2.1055,3.9928 -7.1165,6.4983 -0.3522,0.1761 -0.691,0.3579 -1.0144,0.5417 -0.1378,-1.3533 0.0938,-3.9047 2.8079,-6.8141 z m -21.2881996,-0.1321 c -3.4166,-2.8979 -4.8885,-8.2132 -4.8522,-9.9072 2.161,1.1179 3.9105,1.4413 5.4646996,1.7227 1.8088,0.335 3.2386,0.601 4.8196,2.071 1.8184,1.6882 3.095,4.8866 2.5247,7.7156 -1.8529,-2.3713 -4.0656,-4.438 -6.5576,-6.125 -0.1935,-0.1249 -0.4281,-0.1693 -0.6539,-0.1239 -0.2258,0.0454 -0.425,0.1772 -0.5550996,0.3672 -0.1302,0.19 -0.1811,0.4233 -0.1419,0.6502 0.0392,0.227 0.1654,0.4297 0.3516996,0.565 2.2663,1.536 4.2852,3.4084 5.9872,5.5527 -1.7131,-0.1723 -4.3104,-0.735 -6.3775996,-2.4883 z m 27.4188996,58.3885 c -0.1048,0.5589 -0.4018,1.0635 -0.8394,1.4267 -0.4376,0.3632 -0.9883,0.5619 -1.557,0.562 h -22.6797 c -0.5685,-4e-4 -1.1191,-0.1994 -1.5566,-0.5624 -0.4375,-0.3631 -0.7345996,-0.8676 -0.8397996,-1.4263 l -4.2396,-22.63 H 41.380723 Z m 7.4649,-25.9853 c -0.001,0.421 -0.1687,0.8245 -0.4664,1.1222 -0.2978,0.2977 -0.7013,0.4655 -1.1223,0.4665 H 3.7846234 c -0.4213,0 -0.8254,-0.1674 -1.1233,-0.4654 -0.298,-0.2979 -0.4653,-0.702 -0.4653,-1.1233 0,-0.4214 0.1673,-0.8254 0.4653,-1.1234 0.2979,-0.2979 0.702,-0.4653 1.1233,-0.4653 H 43.022923 c 0.4212,5e-4 0.825,0.1681 1.1228,0.4659 0.2978,0.2978 0.4654,0.7016 0.4659,1.1228 z m -21.2078,-3.3573 h -13.3468 c 2.2605,-2.0078 7.0151,-5.3919 13.3525,-5.3919 6.3432,0 11.092,3.3822 13.3525,5.39 z m -8.5597,-42.4137 c -0.9264,-2.5323 -1.1618,-5.8972 -1.047,-7.4647998 1.1585,0.7665998 2.3879,1.4202998 3.6712,1.9522998 2.0499,0.9149 3.5314,1.5772 4.2932,3.7631 0.5489,1.5849 0.6261,3.295 0.222,4.9229 -0.8627,-1.7061 -1.8385,-3.3527 -2.9208,-4.9287 -0.0636,-0.0997 -0.1466,-0.1857 -0.244,-0.2528 -0.0974,-0.0671 -0.2073,-0.1139 -0.3232,-0.1378 -0.1158,-0.0239 -0.2353,-0.0243 -0.3513,-0.0011 -0.116,0.0231 -0.2262,0.0692 -0.324,0.1357 -0.0979,0.0665 -0.1814,0.1519 -0.2456,0.2512 -0.0643,0.0994 -0.1079,0.2106 -0.1284,0.3271 -0.0205,0.1164 -0.0174,0.2359 0.009,0.3512 0.0265,0.1152 0.0759,0.224 0.1451,0.3199 1.1373,1.6498 2.1495,3.3824 3.0281,5.1833 -1.7877,-0.4058 -4.7163,-1.5045 -5.7843,-4.4215 z m 8.9482,-10.8737698 c 0.2041,-1.11084 0.2945,-2.23958 0.2699,-3.36875 1.3686,0.61442 3.9124,2.3141 4.4024,4.78512 0.3253,1.6193 0.0784,2.7370998 -0.2929,3.4816998 -0.1247,-0.8397998 -0.3024,-1.6708998 -0.5321,-2.4882998 -0.0294,-0.1141 -0.0813,-0.2212 -0.1527,-0.3149 -0.0714,-0.0938 -0.1607,-0.1724 -0.2629,-0.2311 -0.1022,-0.0587 -0.215,-0.0965 -0.332,-0.111 -0.1169,-0.0145 -0.2356,-0.0054 -0.349,0.0266 -0.1134,0.032 -0.2193,0.0864 -0.3114,0.1599 -0.0921,0.0735 -0.1686,0.1647 -0.2249,0.2682 -0.0564,0.1035 -0.0915,0.2172 -0.1033,0.3344 -0.0118,0.1173 0,0.2357 0.0346,0.3484 0.2582,0.9163 0.445,1.8511998 0.5589,2.7963998 -3.3668,-1.3398 -3.1123,-3.0432998 -2.7122,-5.6904998 z m 15.7681,10.2344698 c -2.7869,0.7331 -4.722,0.513 -5.9336,0.1359 0.9975,-0.2801 2.0158,-0.4798 3.0453,-0.5972 0.1185,-0.0094 0.234,-0.0427 0.3394,-0.0977 0.1054,-0.0551 0.1986,-0.1309 0.2741,-0.2229 0.0754,-0.0919 0.1315,-0.1982 0.165,-0.3123 0.0334,-0.1142 0.0435,-0.2339 0.0296,-0.352 -0.0139,-0.1181 -0.0515,-0.2322 -0.1106,-0.3355 -0.059,-0.1033 -0.1383,-0.1936 -0.233,-0.2655 -0.0948,-0.0719 -0.2031,-0.1239 -0.3184,-0.153 -0.1153,-0.0291 -0.2353,-0.0346 -0.3529,-0.0163 -1.2559,0.142 -2.4962,0.3983 -3.7056,0.7657 1.2767,-3.0472 4.1267,-3.1353 8.6458,-3.007 1.6882,0.0497 3.4205,0.0995 5.1087,-0.111 -1.1963,1.4451 -3.7229,3.7171 -6.9557,4.5669" />
  </g>
</svg>
