<svg viewBox="0 0 536 1000" xmlns="http://www.w3.org/2000/svg">
<path d="M248.141 0.32921C246.032 0.671729 243.998 1.39074 242.183 2.51865C240.34 3.66332 238.759 5.16854 237.51 6.93965C236.261 8.71116 235.38 10.7144 234.92 12.8343C234.46 14.9545 234.432 17.1448 234.836 19.2763C237.243 32.5884 235.276 46.0545 233.194 59.76C230.791 75.7077 227.991 92.909 234.205 109.359C240.059 124.859 255.088 138.31 282.225 148.538C282.036 170.931 279.134 193.238 272.794 214.726L272.541 215.59L272.563 215.842C272.509 216.063 272.414 216.269 272.373 216.495L272.499 215.947C268.717 228.773 263.937 241.264 259.236 253.779C257.757 249.121 256.569 244.376 254.794 239.821C266.667 212.576 268.354 181.945 258.605 153.801V153.779C247.067 120.648 222.715 109.369 199.195 99.0437H199.173C184.749 92.6344 170.568 86.2592 155.911 74.5177L156.037 74.623C153.167 72.1865 149.566 70.7765 145.806 70.623C142.045 70.4694 138.338 71.5673 135.28 73.7598L135.216 73.802L135.152 73.8441C133.919 74.7786 129.685 78.4588 127.532 85.7597C125.378 93.0607 124.207 104.406 125.405 123.864C126.857 147.426 131.385 171.042 138.1 189.211C147.696 215.455 166.871 231.466 185.573 240.958C202.507 249.552 218.3 252.665 228.12 254.073C241.291 290.215 237.845 308.616 237.698 309.188C237.698 309.189 237.699 309.229 237.698 309.23C229.973 327.615 223.395 346.461 218.12 365.693L218.098 365.756L218.077 365.82C217.629 367.605 217.385 369.434 216.982 371.23C214.993 367.748 213.169 364.178 211.024 360.788C227.071 317.691 209.651 267.737 180.963 241.042C158.881 220.536 137.569 216.457 116.817 212.6C99.6057 209.401 82.6672 206.295 60.6701 194.137H60.6491C51.2976 188.985 39.8318 191.139 33.9337 199.674C29.1502 206.613 28.5162 216.241 29.639 227.652C30.7618 239.064 34.0432 252.355 39.1336 266.199C49.3144 293.889 66.7176 323.738 89.9119 343.398C124.329 372.577 166.269 376.115 185.195 376.408C203.638 405.553 210.062 428.881 211.026 433.039C211.922 485.475 225.048 532.385 233.131 557.101C149.918 564.878 95.0693 616.001 79.7015 632.468H41.723H41.6809C30.9679 632.664 20.7301 636.996 13.1339 644.552C5.53886 652.109 1.17494 662.304 0.923544 673.015C0.672145 683.727 4.57456 694.121 11.8076 702.025C18.0151 708.809 26.4345 712.718 35.4073 714.299L81.1751 958.632C83.3683 970.247 89.5309 980.745 98.6275 988.295C107.724 995.845 119.185 999.984 131.006 1000H375.466C387.323 1000.01 398.806 995.871 407.929 988.295C417.051 980.72 423.25 970.183 425.423 958.527L471.212 714.193C480.184 712.612 488.606 708.722 494.812 701.941C502.047 694.037 505.947 683.621 505.696 672.91C505.446 662.197 501.061 652.004 493.464 644.447C485.868 636.89 475.63 632.559 464.917 632.363H464.875H426.728C410.845 615.383 352.625 560.559 264.246 556.111C258.585 539.456 253.769 522.504 250.036 505.312C250.8 498.558 256.965 462.199 302.435 430.26C314.956 433.178 327.72 434.998 340.582 434.997C369.42 434.997 407.165 427.243 437.991 395.65C458.404 374.773 468.599 348.47 472.496 323.504C476.392 298.546 474.109 274.909 469.149 258.326V258.304C464.782 243.426 458.029 233.223 447.612 230.915H447.591H447.569C444.235 230.198 440.766 230.404 437.548 231.526C434.327 232.648 431.481 234.64 429.317 237.273L429.443 237.126C404.08 265.833 385.572 272.515 366.16 279.735C350.786 285.452 333.673 291.872 317.361 309.356H317.339C277.898 351.644 278.495 390.237 281.866 408.386C263.511 421.859 251.468 435.851 242.414 449.312C240.556 423.935 240.769 397.563 247.003 372.976C252.771 350.33 262.414 326.715 272.75 301.483C282.581 277.522 292.961 252.123 300.665 225.147C300.936 224.485 309.752 205.585 339.254 190.558C348.734 196.165 364.983 203.273 390.601 203.273H390.623H390.644C405.154 203.136 419.592 201.128 433.591 197.316C467.934 188.257 493.651 167.52 506.032 156.011H506.054C508.644 153.594 511.204 150.043 514.306 145.548C517.409 141.053 520.783 135.783 523.864 130.79C526.945 125.797 529.72 121.094 531.611 117.675C532.557 115.965 533.269 114.617 533.78 113.485C534.035 112.919 534.276 112.806 534.517 111.211C534.567 110.878 534.569 110.276 534.453 109.485C534.529 108.923 535.138 108.392 535.084 107.906C534.859 105.871 534.117 104.535 533.422 103.423C532.032 101.198 530.093 99.176 530.411 99.591C528.574 97.1925 526.634 97.1398 525.443 97.0227C524.252 96.9055 523.336 96.9884 522.496 97.0858C522.08 97.1339 522.101 97.1723 521.738 97.2332C521.552 97.1893 521.267 97.1052 521.127 97.0858C520.94 97.0597 520.804 97.0511 520.664 97.0437C520.582 97.0393 520.491 97.0447 520.411 97.0437C520.376 97.0396 520.341 97.0476 520.306 97.0437C520.235 97.0358 520.166 97.0716 520.095 97.0647C519.999 97.0691 519.907 97.0542 519.801 97.0647C519.755 97.0691 519.68 97.1012 519.632 97.1068C519.615 97.1088 519.586 97.1047 519.568 97.1068C517.693 96.9872 515.816 97.0635 514.011 97.591L514.179 97.5279C493.489 102.776 470.957 101.937 448.012 101.275C423.067 100.553 397.167 99.6525 374.792 107.486C353.01 115.112 335.178 132.078 326.982 163.316C321.105 166.199 315.764 169.984 310.351 173.653C311.364 164.026 312.376 154.39 312.246 144.706C323.193 135.19 339.781 113.798 331.761 73.9493C326.919 49.8287 310.351 30.8765 293.256 18.2027C284.709 11.8657 275.983 7.08024 268.225 3.99232C260.492 0.914337 254.016 -0.749743 248.141 0.32921ZM250.057 10.8975C251.677 10.5949 257.481 11.2995 264.246 13.9922C271.011 16.6849 279.027 21.066 286.836 26.8552C302.452 38.4335 317.081 55.5909 321.193 76.0756C328.93 114.521 312.239 132.046 303.614 138.854L301.509 140.517L301.573 143.212C301.846 156.496 300.981 169.775 299.004 182.916L296.962 196.516L307.699 187.927C315.692 181.532 324.407 176.101 333.677 171.758L336.035 170.664L336.646 168.137C343.862 137.95 358.757 124.521 378.372 117.654C397.987 110.787 422.777 111.332 447.718 112.054C470.574 112.713 494.096 113.759 516.833 107.991L516.939 107.949L517.023 107.927C517.507 107.786 518.017 107.804 518.517 107.801L519.97 108.643L522.075 108.096C522.075 108.096 522.719 107.979 523.254 107.885C523.355 108.002 523.503 108.179 523.591 108.285V109.759C523.272 110.409 522.88 111.189 522.18 112.454C520.422 115.632 517.694 120.253 514.686 125.127C511.678 130.001 508.369 135.152 505.423 139.422C502.476 143.691 499.644 147.242 498.707 148.116C487.075 158.93 462.532 178.539 430.855 186.895L430.834 186.916H430.812C417.705 190.491 404.188 192.361 390.602 192.495C364.735 192.495 348.919 184.663 341.634 179.906L339.087 178.243L336.351 179.569C302.102 196.049 291.916 218.114 290.709 221.063L290.583 221.337L290.499 221.631C282.994 248.071 272.697 273.262 262.794 297.399C252.458 322.63 242.596 346.635 236.563 370.324C228.591 401.764 228.859 435.524 232.436 466.133L234.478 483.481L242.563 467.986C251.051 451.761 265.561 432.572 290.604 414.913L293.551 412.85L292.751 409.334C289.54 395.046 286.13 358.631 325.235 316.704C339.912 300.972 354.562 295.555 369.929 289.841C389.344 282.62 410.942 274.354 437.528 244.263L437.592 244.199L437.656 244.115C438.565 243.008 439.757 242.186 441.108 241.715C442.447 241.248 443.891 241.152 445.277 241.441C449.751 242.433 454.927 248.107 458.813 261.357V261.378V261.4C463.217 276.114 465.478 298.561 461.845 321.841C458.211 345.121 448.786 369.194 430.287 388.114C401.905 417.209 367.528 424.219 340.583 424.219C327.588 424.22 314.637 422.599 302.036 419.419L299.678 418.83L297.678 420.198C247.284 454.742 240.013 496.367 239.111 504.786L239.005 505.649L239.195 506.492C243.267 525.472 248.492 544.174 254.858 562.512L256.079 566.028L259.784 566.133C348.336 568.789 407.229 626.827 420.603 641.395L422.203 643.143H464.729C472.665 643.288 480.238 646.492 485.865 652.09C491.492 657.688 494.732 665.228 494.918 673.163C495.104 681.098 492.213 688.804 486.855 694.658C481.496 700.513 474.08 704.058 466.16 704.573L461.992 704.847L414.813 956.549C413.101 965.733 408.232 974.034 401.045 980.001C393.857 985.97 384.809 989.227 375.467 989.222H131.006C121.692 989.209 112.678 985.949 105.512 980C98.35 974.057 93.4956 965.798 91.7644 956.653V956.632L44.6072 704.951L40.4388 704.677C32.5188 704.161 25.1023 700.617 19.7444 694.762C14.3856 688.906 11.4951 681.203 11.6813 673.268C11.8675 665.333 15.1286 657.792 20.7549 652.194C26.3821 646.596 33.9339 643.392 41.8704 643.247H84.2488L85.8487 641.5C98.878 627.258 155.249 571.824 240.162 566.553L247.173 566.111L244.92 559.437C237.247 536.744 222.41 485.866 221.678 431.818V431.229L221.552 430.681C220.34 425.444 213.696 400.14 193.195 368.535L191.595 366.072H188.689C172.456 366.052 129.572 362.904 96.8802 335.188C75.7994 317.319 58.9001 288.75 49.2387 262.473C44.408 249.335 41.3771 236.778 40.3757 226.6C39.3742 216.421 40.803 208.723 42.8177 205.8C45.8725 201.379 49.8225 200.49 55.4491 203.59V203.568C78.8415 216.497 97.6343 220.013 114.838 223.21C135.594 227.068 153.486 230.243 173.616 248.936C199.52 273.041 216.273 321.221 200.416 359.713L199.342 362.324L200.879 364.682C205.884 372.449 210.471 380.481 214.605 388.745L222.142 403.818L224.731 387.166C225.711 380.908 226.986 374.688 228.521 368.555C233.74 349.523 240.211 330.864 247.889 312.682L248.036 312.303L248.142 311.924C249.033 308.463 252.965 287.86 237.51 247.525L236.352 244.494L233.131 244.094C224.721 243.068 207.464 239.998 190.437 231.357C173.41 222.716 156.727 208.766 148.227 185.505V185.484C142.026 168.704 137.558 145.823 136.164 123.211C135.01 104.461 136.299 94.1365 137.869 88.8112C139.424 83.5402 140.178 83.5886 141.638 82.4955C142.73 81.7363 144.034 81.3254 145.364 81.3797C146.726 81.4353 148.031 81.951 149.069 82.8323L149.111 82.8744L149.175 82.9376C165.005 95.6187 180.364 102.474 194.816 108.895H194.838V108.917C218.311 119.22 238.151 127.777 248.437 157.316H248.416C257.548 183.681 256.103 212.565 244.374 237.883L243.405 239.989L244.268 242.136C248.141 251.856 251.3 261.835 253.742 272.009L257.658 288.283L263.973 272.788C271.168 255.183 277.478 237.241 282.857 218.999L282.921 218.726L282.985 218.431C282.998 218.359 283.019 218.299 283.048 218.221L283.322 217.442L283.343 216.642C283.349 216.527 283.344 216.416 283.343 216.305C289.984 193.299 293.522 169.497 293.427 145.548L293.406 141.695L289.764 140.474C261.005 130.689 249.211 118.581 244.289 105.549C239.367 92.5171 241.443 77.3297 243.847 61.381C245.93 47.6612 248.248 32.8766 245.426 17.3185V17.2974V17.2764C245.291 16.5667 245.293 15.8348 245.447 15.1291C245.6 14.4228 245.893 13.7418 246.31 13.1502C246.728 12.5579 247.275 12.0579 247.889 11.6765C248.503 11.295 249.173 11.0516 249.889 10.9397L249.973 10.9186L250.057 10.8975ZM254.689 18.6448L254.878 27.171C255.126 38.5529 254.137 49.9188 252.162 61.1284L251.952 62.5179C249.795 76.7866 247.66 89.2736 251.552 100.98C255.443 112.687 265.602 122.147 284.52 129.675L292.941 133.022L291.867 124.033C290.606 113.569 288.536 103.209 285.678 93.0648L285.656 93.0016L285.635 92.9385C285.472 92.4075 285.411 91.8664 285.466 91.3175C285.521 90.7684 285.686 90.2229 285.95 89.7385C286.213 89.2557 286.572 88.8405 287.003 88.4964C287.435 88.1519 287.947 87.8881 288.477 87.7386C289.01 87.5881 289.553 87.5447 290.098 87.6122C290.644 87.6799 291.173 87.8612 291.655 88.1385C292.131 88.4117 292.561 88.7699 292.898 89.2122C293.23 89.6489 293.476 90.151 293.613 90.6859V90.749L293.635 90.8122C296.049 99.4038 297.924 108.132 299.235 116.959L301.74 133.885L309.382 118.58C313.918 109.485 316.7 96.0188 313.003 77.5913V77.5703C307.113 47.9189 278.338 29.2596 262.478 22.1394L254.689 18.6448ZM264.878 36.6024C279.047 44.5566 298.38 59.245 302.435 79.6966C302.892 81.9676 302.526 83.3257 302.772 85.3807C302.337 84.4778 302.078 83.4877 301.467 82.686C300.264 81.1062 298.752 79.7836 297.025 78.7913C295.305 77.8033 293.401 77.1626 291.425 76.9177C289.449 76.6726 287.463 76.8204 285.551 77.3598C283.637 77.9001 281.842 78.8146 280.288 80.0545C278.734 81.2949 277.45 82.8534 276.499 84.6018C275.553 86.3438 274.95 88.252 274.751 90.2227C274.552 92.2025 274.758 94.2189 275.341 96.1174L275.299 95.9911C276.99 101.993 277.859 108.174 278.962 114.307C269.726 109.072 263.823 103.728 261.783 97.5911C259.093 89.4976 260.483 78.5954 262.583 64.6441L262.647 64.3494C264.328 55.2017 264.592 45.8895 264.878 36.6024L264.878 36.6024ZM144.922 90.5385L144.248 99.7174C142.93 117.71 145.434 153.967 155.848 182.432C168.303 216.45 201.979 228.926 222.057 233.484L233.026 235.989L228.099 225.884C218.511 206.231 207.459 187.321 195.047 169.316L195.026 169.253L194.984 169.211C194.657 168.759 194.434 168.254 194.31 167.716C194.186 167.174 194.172 166.617 194.268 166.074C194.364 165.526 194.557 165.002 194.857 164.537C195.158 164.073 195.556 163.67 196.015 163.358C196.471 163.049 196.986 162.835 197.531 162.727C198.072 162.619 198.632 162.615 199.173 162.727C199.719 162.839 200.235 163.066 200.689 163.379C201.145 163.694 201.528 164.091 201.826 164.558L201.889 164.642L201.931 164.706C213.461 181.495 223.856 199.035 233.047 217.211L239.594 230.158L243.089 216.095C247.696 197.536 246.82 178.038 240.562 159.969V159.948C236.155 147.301 229.298 138.533 220.815 132.032C212.332 125.531 202.433 121.174 191.384 116.243L191.321 116.201L191.257 116.179C177.743 110.578 164.784 103.706 152.585 95.6332L144.922 90.5385ZM521.738 97.97L523.401 98.1805C523.398 98.1788 523.526 98.3142 523.527 98.3068C523.54 98.218 523.756 97.7117 524.98 99.9068C525.145 100.204 525.466 101.072 525.464 101.065C525.462 101.058 525.632 102.839 525.632 102.833C525.633 102.827 525.083 104.88 525.085 104.875C525.087 104.871 523.966 106.395 523.969 106.391C523.972 106.389 523.584 106.679 523.253 106.917C523.208 106.95 523.187 106.953 523.148 106.98C522.774 106.843 522.639 106.938 522.074 106.307C521.499 104.99 520.39 102.433 520.39 102.433C520.389 102.433 521.427 99.012 521.737 97.97L521.738 97.97ZM522.222 106.58C522.458 106.872 522.551 107.003 522.748 107.233C522.716 107.248 522.618 107.302 522.538 107.338C522.532 107.325 522.31 106.783 522.222 106.58V106.58ZM522.18 107.486C522.1 107.519 522.044 107.552 521.99 107.57C521.836 107.62 521.76 107.602 521.632 107.633C521.878 107.563 521.967 107.546 522.18 107.486V107.486ZM519.632 107.78C519.819 107.807 520.043 107.832 520.432 107.822C520.321 107.824 520.211 107.829 520.096 107.822C519.966 107.816 519.812 107.805 519.632 107.78ZM155.343 109.254C165.629 115.467 176.022 121.532 187.132 126.138C198.102 131.035 207.206 135.184 214.247 140.58C221.325 146.004 226.569 152.591 230.373 163.506C234.229 174.648 234.929 186.351 234.163 198.011C226.819 184.689 219.531 171.318 210.921 158.769L210.899 158.748C209.828 157.076 208.429 155.622 206.794 154.495C205.149 153.361 203.294 152.582 201.341 152.179C199.386 151.776 197.386 151.766 195.426 152.158C193.47 152.547 191.605 153.328 189.952 154.452C188.301 155.574 186.889 157.007 185.805 158.684C184.72 160.362 183.982 162.236 183.636 164.2C183.29 166.166 183.36 168.172 183.805 170.115V170.137C184.252 172.082 185.081 173.911 186.247 175.526C195.457 188.895 203.146 203.204 210.773 217.526C193.615 211.503 174.299 201.466 165.974 178.726C157.601 155.839 155.182 127.133 155.342 109.254L155.343 109.254ZM534.137 110.307L534.348 110.391L532.853 113.57C533.651 112.605 533.844 111.497 534.137 110.307V110.307ZM515.085 117.422L501.612 119.086C483.968 121.286 465.554 120.779 447.36 120.243C422.937 119.55 402.725 119.324 386.097 123.801C369.469 128.278 356.471 138.246 349.045 155.969L344.603 166.538L355.571 163.211C368.294 159.346 381.349 156.642 394.56 155.148H394.666L394.792 155.127C395.347 155.04 395.896 155.053 396.434 155.19C396.977 155.327 397.485 155.569 397.929 155.906C398.373 156.243 398.749 156.666 399.024 157.148V157.17C399.301 157.654 399.485 158.175 399.55 158.728C399.615 159.28 399.56 159.853 399.403 160.391C399.244 160.921 398.972 161.42 398.624 161.843C398.269 162.276 397.833 162.638 397.34 162.896C396.844 163.155 396.313 163.294 395.761 163.338L395.655 163.36H395.571C384.188 164.658 372.937 166.873 361.908 169.97L344.372 174.896L361.761 180.307C375.807 184.679 397.797 187.022 428.686 178.896V178.875C465.139 169.286 492.912 144.193 506.412 127.886L515.085 117.422ZM488.222 130.117C474.128 144.357 453.336 161.249 425.928 168.453V168.475C417.03 170.814 410.613 170.834 403.423 171.549C404.708 170.714 405.986 169.873 406.96 168.685C408.234 167.133 409.175 165.345 409.739 163.422V163.401C410.302 161.477 410.479 159.458 410.244 157.464C410.01 155.471 409.368 153.544 408.371 151.801H408.392C407.396 150.056 406.053 148.551 404.455 147.338C402.856 146.125 401.031 145.239 399.087 144.748C397.14 144.257 395.109 144.167 393.129 144.475C383.922 145.524 374.977 147.943 365.972 150.096C371.789 142.471 378.742 136.956 388.898 134.222C403.247 130.359 422.756 130.333 447.044 131.022C460.452 131.417 474.383 130.863 488.223 130.117L488.222 130.117ZM48.2492 209.126L48.0598 217.758C47.8281 228.568 51.9213 247.414 60.6701 268.473C69.4189 289.532 82.9077 312.366 102.27 328.788L103.785 330.051H104.648C127.791 348.614 155.549 354.989 174.058 356.851L186.753 358.135L178.816 348.135C160.168 324.641 138.058 304.117 113.238 287.273C112.364 286.638 111.78 285.707 111.596 284.641V284.62C111.412 283.556 111.638 282.479 112.248 281.588C112.858 280.697 113.801 280.075 114.859 279.862C115.92 279.648 117.004 279.866 117.911 280.451C144.271 298.309 167.675 320.162 187.279 345.25L194.479 354.492L196.795 342.998C203.405 310.206 189.14 274.481 167.974 254.831C149.983 238.104 132.842 234.758 113.343 231.147H113.322C96.5843 228.117 78.5487 224.783 55.9333 213.084L48.2492 209.126ZM61.0491 226.642C80.264 235.038 97.1853 239.186 111.385 241.758C130.88 245.368 144.556 247.763 160.648 262.726C176.177 277.143 187.353 303.667 186.753 328.788C168.271 307.092 147.504 287.462 123.869 271.462L123.806 271.42L123.764 271.399C120.5 269.292 116.539 268.529 112.733 269.294C108.923 270.06 105.559 272.299 103.364 275.504C101.177 278.706 100.304 282.652 100.964 286.473C101.625 290.301 103.759 293.706 106.901 295.988L106.964 296.052L107.048 296.094C126.454 309.246 143.567 325.271 159.153 342.725C143.093 339.449 125.061 333.888 109.343 320.557L108.922 320.199C91.6404 305.397 78.8635 284.17 70.6279 264.347C63.8834 248.112 62.0996 235.892 61.0491 226.642ZM444.791 248.81L439.297 254.684C412.919 282.894 392.326 290.411 372.813 297.652H372.792C357.696 303.281 344.43 308.268 331.277 322.43C301.066 354.822 297.977 384.223 299.593 400.092L300.435 408.303L307.614 404.219C311.021 402.282 314.582 400.366 318.287 398.513C346.04 384.637 365.697 366.773 378.455 352.282C391.213 337.792 396.926 326.986 397.36 326.156L397.318 326.262C397.839 325.32 398.686 324.619 399.718 324.304C400.751 323.989 401.873 324.086 402.834 324.578C403.792 325.069 404.507 325.915 404.855 326.936C405.193 327.931 405.114 329.012 404.686 329.967C403.973 331.361 380.871 375.658 324.056 404.85L307.614 413.292L326.013 415.019C351.933 417.432 392.814 414.616 424.391 382.324C453.169 352.891 456.088 314.032 455.38 293.526C454.781 276.125 451.4 263.306 448.117 256.116L444.791 248.81ZM439.739 268.073C441.772 274.353 444.171 281.364 444.602 293.883C445.257 312.866 442.352 348.516 416.665 374.787C394.601 397.351 368.921 402.118 346.603 402.934C392.442 373.267 413.165 337.106 414.35 334.788L414.392 334.724L414.434 334.64C416.09 331.138 416.311 327.128 415.065 323.461C413.817 319.795 411.187 316.744 407.739 314.977C404.291 313.212 400.285 312.858 396.581 313.988C392.877 315.119 389.761 317.65 387.887 321.04L387.845 321.104L387.823 321.168C388.03 320.771 382.407 331.475 370.371 345.146C358.335 358.817 339.726 375.742 313.466 388.872C312.736 389.237 312.081 389.618 311.361 389.988C311.593 375.672 315.377 355.262 339.15 329.778L339.172 329.756C350.775 317.263 361.452 313.391 376.561 307.757C394.196 301.213 415.48 291.353 439.739 268.073L439.739 268.073ZM253.236 574.237C183.008 574.237 130.645 611.574 105.722 633.71L95.1118 643.142H253.173L411.339 643.12L400.729 633.689C375.808 611.554 323.524 574.237 253.236 574.237ZM253.236 585.016C310.9 585.016 355.051 611.436 381.592 632.342L253.173 632.363H124.859C151.411 611.454 195.628 585.017 253.236 585.017V585.016ZM41.702 651.415C35.7332 651.415 30.0067 653.805 25.7864 658.026C21.5653 662.247 19.1759 667.973 19.1759 673.941C19.1759 679.909 21.5641 685.636 25.7864 689.857C30.0068 694.079 35.7332 696.446 41.702 696.446H464.644C470.605 696.432 476.323 694.05 480.538 689.836C484.753 685.621 487.134 679.902 487.149 673.941V673.92C487.142 667.955 484.777 662.243 480.559 658.026C476.342 653.808 470.609 651.422 464.644 651.415H41.702ZM41.702 662.194H464.644C467.751 662.203 470.741 663.449 472.938 665.647C475.136 667.844 476.361 670.813 476.37 673.92C476.362 677.035 475.12 680.012 472.917 682.215C470.713 684.419 467.737 685.66 464.623 685.667H41.702C38.5885 685.667 35.6089 684.438 33.4073 682.236C31.2054 680.035 29.9547 677.056 29.9547 673.941C29.9547 670.826 31.2042 667.85 33.4073 665.647C35.609 663.445 38.5885 662.194 41.702 662.194ZM52.986 704.72L99.8907 955.011V955.033C101.257 962.288 105.115 968.844 110.796 973.559C116.477 978.272 123.623 980.838 131.006 980.843H375.466C382.851 980.842 390.014 978.274 395.697 973.559C401.38 968.843 405.241 962.271 406.602 955.012L453.423 704.72L52.986 704.72ZM65.9753 715.499H440.433L395.992 953.032H396.014C395.116 957.821 392.564 962.152 388.814 965.264C385.062 968.376 380.34 970.063 375.466 970.064H131.006C126.134 970.06 121.43 968.354 117.68 965.243C113.937 962.131 111.38 957.815 110.48 953.032L65.9753 715.499ZM528.988 110.413C531.527 108.267 527.016 104.024 526.138 102.878C525.259 101.731 520.748 102.878 520.748 102.878C519.491 102.164 521.228 102.566 519.792 102.399C518.356 102.231 516.902 102.354 515.515 102.759C493.801 108.267 470.766 107.318 447.865 106.658C397.979 105.213 346.483 103.791 331.401 166.881C321.746 171.404 312.659 177.055 304.334 183.716C306.356 170.273 307.232 156.683 306.953 143.093C316.649 135.439 334.579 115.302 326.47 75.01C317.516 30.4048 264.081 2.80003 249.062 5.60596C247.633 5.82952 246.264 6.33795 245.036 7.10098C243.807 7.86401 242.746 8.86612 241.912 10.0478C241.079 11.2294 240.492 12.5665 240.186 13.9796C239.879 15.3926 239.859 16.8529 240.129 18.2735C242.749 32.7154 240.603 46.8479 238.519 60.5677C233.712 92.4641 228.74 125.391 288.034 145.569C288.129 169.494 284.738 193.304 277.966 216.251C277.969 216.3 277.969 216.348 277.966 216.396C277.841 216.745 277.744 217.104 277.678 217.469C272.35 235.537 266.111 253.323 258.985 270.76C256.483 260.334 253.236 250.102 249.268 240.142C261.583 213.56 263.107 183.237 253.518 155.555C242.604 124.215 220.508 114.291 197.009 103.976C182.568 97.5593 167.795 90.9368 152.549 78.7233C150.594 77.0645 148.142 76.1073 145.581 76.0028C143.021 75.8982 140.499 76.6527 138.417 78.1456C135.693 80.2086 128.431 85.3253 130.783 123.534C132.206 146.621 136.704 169.872 143.161 187.347C161.255 236.862 214.876 247.302 232.475 249.448C247.597 288.915 243.429 308.577 242.914 310.578C235.144 328.977 228.596 347.868 223.314 367.129C221.725 373.462 220.426 379.879 219.415 386.336C215.194 377.898 210.517 369.695 205.406 361.764C222.345 320.646 204.911 270.697 177.286 244.991C156.18 225.392 136.58 221.76 115.825 217.902C98.618 214.704 80.7521 211.403 58.0574 198.86C50.5682 194.733 42.8517 196.26 38.3753 202.738C24.7789 222.462 49.1239 301.768 93.3989 339.297C127.687 368.366 171.797 371.44 188.674 371.461C208.748 402.408 215.206 427.165 216.299 431.89C217.043 486.872 232.041 538.161 239.819 561.165C152.734 566.571 95.3994 623.059 81.8656 637.852H41.7792C32.4545 638.022 23.5566 641.79 16.9448 648.367C10.3342 654.944 6.52066 663.823 6.30185 673.145C6.08304 682.469 9.47729 691.515 15.7732 698.396C22.0691 705.276 30.7816 709.455 40.0869 710.062L86.466 957.638C88.4266 968.021 93.9475 977.396 102.079 984.145C110.211 990.895 120.442 994.595 131.009 994.609H375.469C386.069 994.614 396.337 990.911 404.492 984.138C412.647 977.367 418.174 967.954 420.116 957.534L466.516 709.958C475.822 709.352 484.534 705.172 490.83 698.292C497.127 691.413 500.52 682.365 500.301 673.043C500.083 663.719 496.27 654.841 489.658 648.263C483.046 641.686 474.148 637.919 464.824 637.749H424.572C410.709 622.647 350.774 563.476 259.955 560.752C253.661 542.623 248.486 524.123 244.461 505.358C245.245 498.034 251.785 458.194 300.723 424.649C313.754 427.937 327.143 429.6 340.583 429.599C368.476 429.599 404.54 422.234 434.145 391.885C473.056 352.088 473.345 291.143 463.978 259.845C459.852 245.775 453.89 237.831 446.441 236.181C444.075 235.672 441.615 235.825 439.33 236.622C437.043 237.419 435.022 238.83 433.485 240.7C407.51 270.099 387.456 277.567 368.043 284.788C352.672 290.503 336.786 296.425 321.292 313.033C280.999 356.234 284.011 395.001 287.498 410.515C261.75 428.671 246.648 448.581 237.797 465.498C234.269 435.314 234.042 402.16 241.779 371.646C247.679 348.478 257.438 324.669 267.774 299.437C277.678 275.298 288.076 249.922 295.689 223.101C296.432 221.286 305.756 200.262 338.685 184.417C346.709 189.658 363.628 197.889 390.592 197.889C404.661 197.756 418.654 195.815 432.226 192.113C465.236 183.406 490.366 163.229 502.373 152.068C509.428 145.486 531.527 108.267 528.988 110.352V110.413ZM335.218 326.093C347.596 312.765 359.584 308.329 374.686 302.697C394.203 295.455 416.196 287.264 443.223 258.36C446.049 264.55 449.412 276.928 449.99 293.701C450.671 313.446 447.762 350.706 420.529 378.558C390.469 409.298 351.537 411.98 326.512 409.65C384.857 379.672 408.562 334.283 409.553 332.344C410.612 330.105 410.757 327.543 409.96 325.199C409.163 322.856 407.485 320.913 405.281 319.785C403.077 318.656 400.522 318.43 398.153 319.152C395.785 319.875 393.791 321.491 392.594 323.658C392.367 324.091 369.899 366.695 315.886 393.702C312.09 395.6 308.438 397.559 304.952 399.54C303.467 384.953 305.963 357.452 335.218 326.093V326.093ZM105.757 324.669C68.9299 293.433 53.0646 236.14 53.4559 217.881C76.7489 229.931 95.6064 233.416 112.359 236.45C131.856 240.06 147.267 242.928 164.308 258.772C183.909 276.969 197.669 311.444 191.522 341.937C171.55 316.378 147.699 294.101 120.838 275.917C118.753 274.571 116.224 274.092 113.79 274.582C111.356 275.071 109.209 276.492 107.807 278.54C106.404 280.588 105.855 283.102 106.277 285.548C106.7 287.995 108.06 290.18 110.068 291.638C134.496 308.194 156.258 328.377 174.603 351.49C156.138 349.632 128.142 343.567 105.86 324.669H105.757ZM401.3 954.027C400.17 960.051 396.969 965.49 392.252 969.405C387.535 973.32 381.599 975.462 375.469 975.463H131.009C124.882 975.458 118.947 973.313 114.231 969.401C109.515 965.487 106.313 960.049 105.179 954.027L59.4812 710.102H446.937L401.3 954.027ZM481.762 673.936C481.752 678.474 479.944 682.824 476.735 686.032C473.525 689.241 469.176 691.05 464.638 691.061H41.6962C37.1551 691.061 32.7994 689.256 29.5884 686.044C26.3763 682.833 24.573 678.478 24.573 673.936C24.573 669.394 26.3763 665.04 29.5884 661.827C32.7994 658.616 37.1551 656.812 41.6962 656.812H464.638C469.178 656.817 473.531 658.624 476.741 661.834C479.95 665.044 481.757 669.396 481.762 673.936ZM253.168 637.749H109.305C133.671 616.107 184.92 579.63 253.229 579.63C321.601 579.63 372.788 616.087 397.153 637.728L253.168 637.749ZM160.904 180.58C150.919 153.285 148.382 117.015 149.619 100.118C162.106 108.381 175.358 115.427 189.19 121.162C211.286 131.023 227.254 138.162 235.466 161.723C241.382 178.807 242.214 197.239 237.859 214.786C228.56 196.397 218.042 178.648 206.376 161.661C205.69 160.586 204.796 159.659 203.746 158.936C202.696 158.213 201.511 157.708 200.262 157.451C199.014 157.193 197.726 157.189 196.476 157.439C195.225 157.688 194.037 158.185 192.983 158.901C191.928 159.618 191.028 160.539 190.336 161.609C189.643 162.68 189.173 163.879 188.952 165.135C188.731 166.389 188.764 167.678 189.049 168.92C189.335 170.162 189.867 171.335 190.613 172.368C202.872 190.151 213.782 208.827 223.252 228.238C203.983 223.864 172.416 212.022 160.904 180.58V180.58ZM257.355 63.3736C259.555 51.4 260.53 39.2336 260.264 27.0625C275.016 33.6852 302.435 52.0057 307.717 78.6403C311.223 96.0944 308.562 108.143 304.56 116.169C303.216 107.117 301.3 98.1586 298.825 89.348C298.508 88.1181 297.948 86.9637 297.179 85.9537C296.409 84.9427 295.446 84.0955 294.345 83.4628C293.243 82.83 292.027 82.4226 290.766 82.2663C289.506 82.11 288.227 82.2081 287.005 82.553C285.782 82.898 284.641 83.4843 283.648 84.2766C282.655 85.0688 281.831 86.0518 281.224 87.1674C280.616 88.283 280.238 89.5086 280.11 90.7719C279.983 92.0362 280.11 93.3124 280.483 94.5272C283.266 104.404 285.28 114.481 286.508 124.669C250.218 110.228 252.961 91.8659 257.273 63.3323L257.355 63.3736ZM427.317 173.689C397.277 181.591 376.419 179.218 363.359 175.154C374.111 172.135 385.087 169.982 396.184 168.717C397.461 168.615 398.706 168.256 399.842 167.664C400.979 167.07 401.983 166.253 402.797 165.261C403.61 164.27 404.214 163.125 404.575 161.895C404.935 160.664 405.044 159.374 404.894 158.101C404.745 156.828 404.339 155.598 403.702 154.484C403.066 153.371 402.212 152.398 401.191 151.623C400.169 150.848 399.002 150.287 397.759 149.973C396.516 149.66 395.223 149.6 393.955 149.798C380.418 151.328 367.049 154.091 354.013 158.051C367.774 125.206 398.494 124.256 447.204 125.639C465.401 126.175 484.073 126.712 502.27 124.443C489.375 140.019 462.142 164.509 427.296 173.668" fill="black"/>
</svg>
