<svg viewBox="0 0 900 834" xmlns="http://www.w3.org/2000/svg">
<path d="M805.217 42.5913C795.358 42.1668 785.448 45.0224 776.723 51.2545C762.807 61.1066 756.575 73.2806 755.557 84.9799C754.537 96.6895 757.979 107.498 760.788 116.85C765.367 132.081 768.318 143.842 761.419 158.052C735.346 160.045 711.327 169.868 690.721 188.698C668.634 208.881 650.028 238.232 634.55 276.461H634.531C633.054 280.119 633.051 284.209 634.512 287.87C635.972 291.533 638.791 294.488 642.377 296.125L642.451 296.162L642.525 296.199C643.721 296.716 644.983 297.05 646.198 297.517C643.434 303.53 640.658 309.567 637.98 315.511C622.038 350.775 605.649 386.839 585.073 414.776C557.331 452.446 525.545 482.946 497.18 510.22C479.001 527.644 463.718 543.866 449.263 560.493C450.76 538.334 464.632 516.872 481.3 499.628C491.566 489.008 502.393 480.162 510.685 473.972C518.924 467.821 523.969 464.721 524.783 464.214C528.109 462.207 530.556 458.988 531.61 455.254C532.662 451.52 532.245 447.517 530.46 444.068C529.371 441.96 514.629 413.229 482.821 406.224H482.802C478.816 405.359 474.746 406.15 470.689 406.076C479.362 390.737 485.968 374.376 486.958 357.009C488.178 335.598 481.81 313.321 465.123 292.879C442.783 265.525 418.133 255.077 397.005 253.161C378.096 251.447 363.099 256.271 353.262 260.433C347.705 255.074 341.824 249.991 334.767 246.799C326.087 242.872 316.669 240.822 307.145 240.788H307.126C287.265 240.788 273.144 249.865 263.865 257.539C250.862 247.483 231.201 238.389 207.007 246.168C193.734 250.424 184.786 258.893 179.292 267.761C174.862 274.911 173.455 281.656 172.168 287.777C155.432 288.911 134.208 295.82 123.899 319.444C113.307 343.731 122.899 364.525 130.466 376.543C130.284 376.82 130.107 377.099 129.928 377.378C122.107 374.83 112.689 371.795 100.915 370.588C86.8291 369.144 71.1693 370.024 58.1736 378.213C44.8055 386.598 37.9712 398.555 36.0054 410.324C34.4864 419.418 35.9526 427.986 38.2129 435.831C30.275 438.667 22.1382 442.638 15.2304 449.466C6.35512 458.239 -0.0404918 471.119 0.000193006 487.7C0.0595727 511.46 10.0378 529.613 21.9458 542.295C32.1562 553.169 43.1692 559.664 51.7013 563.944C48.5905 578.172 46.5761 600.45 61.7373 622.379H61.7188C79.7843 648.559 106.382 657.605 123.92 661.595C120.047 683.595 122.548 714.365 149.835 735.242C177.967 756.766 207.873 757.007 224.038 755.518C227.898 762.978 232.359 770.19 238.935 775.479C246.895 781.881 256.347 786.163 266.409 787.926C266.415 787.927 266.421 787.925 266.428 787.926C270.482 788.665 274.603 789.057 278.727 789.058C299.736 789.058 315.125 779.805 323.935 773.382C342.857 780.66 394.222 796.801 454.143 782.973C470.578 799.564 489.986 812.952 511.651 821.744C530.786 829.589 551.259 833.656 571.941 833.728H571.96H571.979C595.43 833.715 618.562 828.309 639.578 817.904L639.597 817.885C725.097 775.89 796.589 691.401 836.607 586.167C870.002 498.304 886.72 415.782 886.082 344.839C886.573 344.795 887.06 345.006 887.547 344.913V344.932C889.964 344.474 892.239 343.43 894.17 341.909C896.103 340.387 897.629 338.416 898.641 336.176C899.652 333.936 900.113 331.489 899.977 329.034V329.015C895.848 256.867 881.857 211.708 852.633 185.507C873.52 127.596 861.463 76.3005 833.377 53.5734H833.358C824.871 46.7087 815.077 43.0157 805.217 42.5913ZM804.679 56.4116C811.318 56.7099 817.961 59.4418 824.399 64.6482C846.259 82.3374 859.808 129.325 838.238 184.765L835.511 191.758C835.483 191.739 835.464 191.703 835.437 191.684L834.991 191.388L834.491 191.146C834.356 191.08 834.231 190.999 834.12 190.905L833.767 190.608L833.396 190.367C827.233 186.406 820.597 183.244 813.639 180.943C800.319 176.234 786.338 173.608 772.215 173.171L772.104 173.152H771.139C751.837 172.865 733.458 179.323 717.379 189.773L716.73 188.512C732.329 178.475 748.757 171.647 767.244 171.13L771.269 171.018L773.236 167.512C784.593 147.41 779.275 128.89 774.423 112.75C771.613 103.395 769.049 94.2516 769.748 86.2225C770.447 78.1934 773.65 70.8627 784.96 62.867L784.979 62.8485L784.998 62.83C791.417 58.245 798.042 56.1131 804.68 56.4114L804.679 56.4116ZM807.555 59.0087C801.053 57.9705 793.356 59.4462 786.221 64.4998L783.216 66.6331V67.5792C776.932 73.0251 772.631 79.2361 771.937 86.2228C771.12 94.4528 773.547 102.343 776.482 112.101C781.1 127.465 785.946 143.608 778.281 162.077L774.682 170.759L783.995 171.89C794.313 173.139 804.475 175.462 814.307 178.828H814.326C818.886 180.375 823.323 182.274 827.59 184.505L834.788 188.271L837.57 180.628C855.995 130.109 846.695 85.3457 823.137 66.2992L823.1 66.2807L823.081 66.2622C819.229 63.1968 814.056 60.047 807.555 59.0087V59.0087ZM805.31 73.0888C808.42 73.5855 811.562 75.3181 814.196 77.4112C814.2 77.4147 814.21 77.4076 814.215 77.4112C829.236 89.5968 839.023 125.413 825.939 168.347C823.593 167.36 821.339 166.161 818.927 165.342H818.908C810.382 162.424 801.503 160.783 792.621 159.313C797.781 139.553 794.172 121.428 790.135 108.001C787.253 98.4163 785.7 91.7603 786.11 87.6327C786.52 83.505 787.938 80.7999 794.458 76.1868L794.588 76.094C799.021 72.9995 802.232 72.5972 805.31 73.0888V73.0888ZM770.935 187.399H770.991H771.789C784.476 187.792 797.02 190.152 808.983 194.393L809.057 194.43L809.132 194.449C814.963 196.374 820.532 199.031 825.697 202.351L824.955 201.813C825.955 202.652 827.052 203.356 828.22 203.928L827.293 203.39C845.601 216.138 859.467 242.713 866.212 299.205C858.643 291.96 851.906 283.904 847.253 274.421L847.216 274.365L847.179 274.309C845.895 271.811 843.955 269.712 841.558 268.243C839.162 266.776 836.412 265.987 833.6 265.98H833.581C830.782 265.978 828.038 266.756 825.641 268.206C823.243 269.656 821.299 271.736 820.002 274.217H819.983C816.568 280.76 812.828 287.529 809.019 294.103C808.047 295.759 807.097 297.357 806.144 298.945L806.107 299.001L806.088 299.057C805.681 299.763 805.225 300.502 804.734 301.302L804.715 301.321L804.696 301.358C799.673 309.667 794.682 317.317 790.374 323.266C788.286 326.151 787.428 326.774 785.755 328.702C783.87 325.992 782.568 324.465 780.079 320.391C775.577 313.025 770.325 303.839 764.997 294.086V294.067C760.164 285.193 755.244 275.845 750.75 267.001C749.739 265.01 748.306 263.263 746.557 261.881C744.81 260.502 742.791 259.51 740.621 258.987L740.51 258.968L740.417 258.931C739.319 258.701 738.198 258.589 737.077 258.597C736.673 258.6 736.275 258.657 735.872 258.69H735L734.369 258.802C732.865 259.074 731.414 259.586 730.065 260.286L729.843 260.397L729.713 260.49C729.014 260.869 728.36 261.3 727.746 261.77L727.709 261.789L727.672 261.808C708.679 276.713 686.467 276.147 670.628 272.883H670.591C670.415 272.846 670.302 272.791 670.128 272.753C684.416 241.907 700.175 219.28 718.026 205.525L718.638 205.043C733.535 193.347 751.996 187.12 770.933 187.401L770.935 187.399ZM716.099 188.92L709.884 193.669C687.486 210.704 669.015 237.423 653.026 274.569L649.873 281.86L657.46 284.197C660.318 285.079 663.825 286.018 667.7 286.831H667.719C685.855 290.575 713.041 291.378 736.413 273.085L736.469 273.048C736.483 273.039 736.494 273.018 736.506 273.011L736.673 272.918L736.692 272.899H736.711L736.933 272.862C737.018 272.85 737.107 272.844 737.193 272.843C737.238 272.843 737.278 272.858 737.323 272.862C737.467 272.902 737.609 272.954 737.731 273.047C737.864 273.153 737.989 273.287 738.065 273.437C742.622 282.405 747.59 291.882 752.497 300.892V300.911C757.911 310.822 763.251 320.169 767.932 327.829C772.613 335.488 776.395 341.249 779.786 344.988L784.089 349.756L789.265 345.953C793.568 342.794 797.271 338.03 801.917 331.613C806.556 325.206 811.701 317.306 816.869 308.758L816.888 308.721C817.351 307.967 817.848 307.162 818.353 306.291L818.427 306.18C819.407 304.547 820.359 302.921 821.321 301.282L821.34 301.263V301.244C825.24 294.512 829.089 287.566 832.619 280.801C832.71 280.626 832.842 280.494 833.009 280.393C833.172 280.295 833.374 280.229 833.565 280.226C833.762 280.227 833.954 280.29 834.122 280.393C834.29 280.496 834.42 280.642 834.511 280.82L834.455 280.709C842.285 296.667 854.305 310.078 868.904 320.166H864.693L864.359 319.925L863.228 319.09L862.597 318.589L861.521 317.736L860.797 317.161L859.721 316.271L859.017 315.677L857.811 314.601L857.662 314.471C857.668 314.475 857.527 314.374 857.273 314.137L857.254 314.118L855.974 312.95L855.157 312.207L855.028 312.078C854.614 311.733 854.105 311.267 853.544 310.705L853.247 310.408L853.135 310.297C852.655 309.857 852.207 309.41 851.763 308.924L851.651 308.813L851.54 308.701C851.317 308.479 851.215 308.356 851.225 308.367L851.113 308.256L849.759 306.809L849.054 306.011L847.904 304.694L847.181 303.841L846.012 302.45L845.307 301.578L845.27 301.522L845.233 301.485C844.802 300.939 844.423 300.481 844.157 300.131V300.112L843.452 299.184L842.191 297.44L841.727 296.809L841.634 296.68L841.541 296.55C840.85 295.522 840.219 294.673 839.76 293.99L833.285 284.343L827.627 294.491C824.06 300.891 819.364 308.972 814.308 317.011L812.509 319.868L812.49 319.887C812.305 320.182 812.181 320.382 812.1 320.499L812.044 320.573L810.801 322.484L810.152 323.486L809.169 324.951L808.464 326.009L807.573 327.326L806.868 328.346L806.015 329.589L805.347 330.535L804.531 331.648L804.457 331.76C804.254 332.056 804.078 332.313 803.974 332.446L803.918 332.52L803.158 333.559L801.692 335.562L801.544 336.007L800.264 337.677L799.986 338.03L798.984 339.254L798.91 339.347L798.836 339.421L797.908 340.553L797.556 340.942L796.702 341.944L796.665 342C796.507 342.17 796.332 342.317 796.183 342.501L795.608 343.132L795.422 343.336L794.402 344.393L794.309 344.486C793.028 345.793 791.656 347.005 790.209 348.122C790.195 348.133 790.186 348.149 790.172 348.159L788.132 349.365C787.437 349.759 786.697 350.059 785.924 350.274L785.72 350.311H784.644H784.607C784.421 350.309 784.226 350.279 784.032 350.255L783.772 350.236C783.648 350.215 783.517 350.19 783.401 350.162H783.364L783.345 350.143C782.481 349.939 783.048 350.267 781.972 349.475C780.897 348.683 778.735 346.681 775.461 342.426C768.914 333.914 758.012 316.558 740.604 282.618L737.117 275.81L730.568 279.78C729.235 280.59 727.914 281.343 726.599 282.045L726.543 282.082L726.469 282.101C726.33 282.178 725.967 282.363 725.374 282.658C724.359 283.165 723.445 283.635 722.629 284.012L721.07 284.68L721.051 284.699C720.336 285.019 719.491 285.355 718.695 285.663L717.081 286.239L714.614 287.11L713 287.611L710.459 288.335L710.607 288.279C709.908 288.459 709.438 288.589 709.16 288.65L709.049 288.687L708.919 288.706C708.114 288.911 707.363 289.087 706.563 289.244L706.507 289.263L705.042 289.56C704.129 289.735 703.212 289.898 702.203 290.06H702.184L701.127 290.227C698.495 290.596 695.915 290.834 693.317 290.969H692.575H689.588H688.197H685.563H684.264L682.077 290.857L680.667 290.746H680.648C680.493 290.735 679.565 290.504 677.791 290.504L678.515 290.541L677.16 290.412L674.971 290.133L673.209 289.892H667.737L665.826 293.992C661.52 303.15 657.329 312.452 652.933 322.152H652.914C636.625 358.201 619.894 395.058 598.282 424.404C569.693 463.233 537.365 494.275 508.533 521.926C481.771 547.596 457.863 570.429 441.342 595.239L441.268 595.35L441.231 595.424L441.175 595.48L441.026 595.703C419.406 628.417 411.519 665.347 428.487 712.628C435.932 733.682 447.736 752.93 463.121 769.116C478.517 785.311 497.145 798.087 517.809 806.588H517.828L517.847 806.607C555.794 821.988 596.684 820.848 632.417 803.268C714.283 763.034 782.812 681.815 821.357 580.38L808.056 575.334C770.61 673.878 703.991 752.201 626.128 790.468V790.487C594.027 806.28 557.66 807.362 523.227 793.418L523.19 793.399C504.394 785.66 487.442 774.036 473.437 759.303C459.422 744.559 448.677 727.022 441.9 707.843V707.824C426.144 663.917 432.998 633.683 452.901 603.568L452.567 604.032C452.786 603.752 452.999 603.434 453.198 603.123C468.418 580.266 491.644 557.871 518.404 532.203C547.238 504.551 580.289 472.88 609.767 432.845C632.656 401.765 649.614 364.08 665.901 328.033V328.014C669.573 319.912 673.082 312.266 676.605 304.677L677.44 304.751H677.792C677.586 304.751 678.242 304.857 679.629 304.955L681.187 305.066L683.896 305.215H685.565H688.2H689.591H692.577H693.876L694.062 305.196C697.028 305.041 700.038 304.773 703.114 304.342L703.188 304.323L704.468 304.119C705.496 303.954 706.571 303.786 707.733 303.563L707.808 303.544L709.31 303.229L709.421 303.21C710.357 303.025 711.273 302.812 712.204 302.579L712.26 302.56C713.106 302.372 713.756 302.184 714.171 302.078L714.245 302.059L717.046 301.261L719.068 300.63L721.832 299.684L723.78 298.979L723.854 298.942C724.84 298.559 725.867 298.143 726.859 297.699L728.547 296.976L728.622 296.939C729.728 296.427 730.706 295.916 731.627 295.455C746.266 323.33 757.381 342.287 764.165 351.107C767.943 356.019 770.857 358.968 773.533 360.939C776.188 362.894 779.127 363.785 780.026 364C780.032 364.001 780.038 363.998 780.045 364C780.05 364.001 780.077 364.017 780.082 364.019C780.788 364.189 781.49 364.319 782.197 364.408L782.642 364.464H783.161C783.625 364.501 784.084 364.555 784.553 364.558H784.59H785.499L784.812 364.521C785.45 364.581 786.104 364.581 786.742 364.521L786.055 364.558H786.797L787.391 364.464H787.743L789.357 364.112L789.543 364.075C791.56 363.533 793.5 362.726 795.312 361.682L794.589 362.109H794.885L795.702 361.571H795.85L797.668 360.328C797.97 360.121 798.449 359.794 799.004 359.345C800.994 357.802 802.888 356.122 804.643 354.317L804.773 354.187L804.903 354.02L805.756 353.149L806.09 352.778L807.072 351.704L807.146 351.629L807.183 351.611L808.334 350.275L808.76 349.793L809.688 348.661L809.409 348.976C809.757 348.603 810.081 348.211 810.374 347.808L810.133 348.123L811.079 346.973L811.469 346.453L814.344 342.762L814.548 342.094L814.659 341.964L815.216 341.185L815.346 341.018C815.633 340.639 815.876 340.287 816.088 339.979L816.218 339.794L816.941 338.829L817.739 337.697L818.592 336.454L819.334 335.397L820.299 333.95L821.004 332.893L822.061 331.316L822.747 330.24L823.823 328.589L823.935 328.422C824.173 328.067 824.379 327.734 824.528 327.494L824.565 327.438L826.365 324.619V324.6C829.469 319.664 831.837 315.412 834.49 310.853L834.991 311.466L836.234 312.987L837.106 314.007L838.404 315.473L839.239 316.419L840.612 317.884L840.408 317.643C840.854 318.163 841.234 318.544 841.484 318.793C842.121 319.477 842.775 320.142 843.469 320.778L843.488 320.797C843.494 320.803 843.5 320.809 843.507 320.816C844.243 321.552 845.019 322.29 845.9 323.024L846.345 323.45L847.625 324.619C847.879 324.856 848.243 325.196 848.775 325.621L848.478 325.38L849.703 326.456L850.593 327.216L851.78 328.181L852.615 328.867L853.802 329.795L854.6 330.426L855.323 330.964C858.423 399.314 841.936 485.845 807.963 575.241L821.283 580.305C856.312 488.131 873.505 398.65 869.589 326.901L869.255 320.482C869.886 320.914 870.339 321.548 870.98 321.966L871.073 322.022L883.855 329.758L882.742 315.901C877.223 246.69 861.656 212.624 838.33 194.485H841.799C867.618 216.451 881.618 257.653 885.746 329.832C885.756 330.003 885.723 330.16 885.653 330.314C885.582 330.472 885.489 330.618 885.356 330.723C885.223 330.828 885.06 330.895 884.893 330.927C884.729 330.958 884.557 330.958 884.392 330.908L884.28 330.871L884.187 330.834C884.811 331.001 883.446 330.616 881.906 329.999L871.832 325.955L872.148 336.807C874.166 406.949 857.468 491.171 823.286 581.103C784.371 683.437 714.814 765.069 633.288 805.104V805.123H633.269C614.221 814.557 593.252 819.464 571.996 819.482C553.138 819.415 534.476 815.713 517.03 808.555L517.011 808.536H516.992C495.993 800.014 477.082 787.098 461.506 770.637L458.631 767.594L454.587 768.615C395.295 783.613 341.251 765.448 325.51 759.172L321.707 757.651L318.479 760.174C311.85 765.355 297.001 774.811 278.725 774.811C275.453 774.81 272.188 774.508 268.967 773.92H268.948L268.911 773.901C261.204 772.559 253.975 769.29 247.876 764.385C241.779 759.482 237.021 753.113 234.056 745.871L231.997 740.844L226.617 741.493C213.663 743.06 184.336 743.695 158.498 723.926C134.108 705.266 134.057 676.903 138.668 658.479L140.523 651.114L133.047 649.76C118.262 647.045 90.2411 638.589 73.4614 614.272H73.4429C59.8389 594.595 62.9972 572.973 66.0597 561.866L67.6736 556.004L62.1454 553.481C54.6161 550.051 42.392 543.267 32.3343 532.556C22.2765 521.844 14.2969 507.533 14.2472 487.663C14.2152 474.593 18.7291 466.02 25.2293 459.595C31.7296 453.17 40.5427 449.135 48.5106 447.092L56.3205 445.088L53.3709 437.575C50.4292 430.091 48.6626 420.969 50.0503 412.662C51.438 404.354 55.5055 396.701 65.7629 390.271C74.6374 384.679 87.1356 383.497 99.4697 384.761C111.804 386.026 123.705 389.61 130.858 392.144L136.571 394.166L139.484 388.842C140.898 386.261 142.488 383.773 144.233 381.403L147.275 377.285L144.307 373.074C138.028 364.173 128.053 345.564 136.961 325.139C145.662 305.199 164.032 300.641 177.42 300.8L183.616 300.874L184.544 294.752C185.383 289.277 187.333 281.851 191.408 275.274C195.482 268.697 201.435 262.91 211.368 259.729C232.589 252.906 249.707 262.127 259.508 271.063L264.331 275.46L269.136 271.044C276.396 264.361 289.621 255.042 307.109 255.035C314.627 255.062 322.038 256.686 328.888 259.784C335.737 262.883 341.862 267.382 346.845 273.011L350.37 276.999L355.193 274.755C363.073 271.073 378.104 265.755 395.726 267.353C413.348 268.95 433.814 277.072 454.087 301.895C468.733 319.843 473.783 338.067 472.749 356.193C471.716 374.323 464.332 392.455 453.197 408.933L443.569 423.18L460.45 419.933C466.837 418.699 473.402 418.76 479.762 420.137C504.092 425.495 517.734 450.47 517.809 450.616C517.933 450.856 517.958 451.133 517.883 451.396C517.809 451.658 517.65 451.869 517.42 452.008L517.383 452.027L517.326 452.064C517.61 451.887 510.906 456.024 502.17 462.545C493.435 469.066 482.054 478.349 471.061 489.722C449.074 512.468 427.797 544.293 435.87 579.155L439.246 593.755L448.429 581.919C463.967 561.896 484.275 542.308 507.031 520.498H507.05C535.404 493.234 567.891 462.135 596.539 423.236C618.43 393.511 635.023 356.642 650.967 321.373V321.354C654.688 313.095 658.505 304.668 662.339 296.44L665.863 288.89L657.868 286.59C654.612 285.65 651.411 284.515 648.296 283.177L648.277 283.158C648.034 283.04 647.857 282.85 647.757 282.601V282.582C647.653 282.321 647.653 282.042 647.757 281.784C662.691 244.908 680.395 217.432 700.33 199.215C705.31 194.665 710.848 192.349 716.099 188.919L716.099 188.92ZM307.072 257.113C294.116 257.113 283.66 262.463 276.537 267.631C272.976 270.215 270.208 272.785 268.282 274.755C267.319 275.74 266.552 276.568 266.019 277.185C265.486 277.802 264.688 278.815 265.147 278.242L265.091 278.298L265.054 278.372C264.954 278.503 264.831 278.597 264.683 278.669C264.536 278.741 264.381 278.782 264.219 278.781C264.058 278.779 263.895 278.741 263.755 278.669C263.612 278.596 263.481 278.484 263.384 278.354C262.325 276.924 257.83 271.13 249.082 265.943C240.334 260.757 227.167 256.845 211.999 261.714C198.756 265.959 191.934 276.731 188.903 285.57C187.387 289.99 186.695 294.039 186.343 297.072C186.167 298.588 186.068 299.863 186.028 300.782C185.987 301.701 185.99 302.9 185.99 302.34V302.414V302.488C185.994 302.644 185.962 302.791 185.897 302.933C185.835 303.072 185.736 303.203 185.619 303.304C185.5 303.405 185.362 303.487 185.211 303.527C185.065 303.566 184.907 303.577 184.747 303.546L185.118 303.62C183.999 303.345 183.789 303.361 182.744 303.231C181.698 303.101 180.336 302.979 178.7 302.915C175.426 302.789 171.096 302.914 166.308 303.917C156.731 305.923 144.914 312.067 138.89 325.881L138.871 325.9C133.058 339.232 135.944 352.231 140.002 361.295C142.031 365.827 144.35 369.499 146.217 372.11C147.15 373.416 147.979 374.447 148.591 375.19C148.897 375.561 149.139 375.858 149.333 376.08C149.467 376.233 149.573 376.348 149.723 376.507C149.915 376.713 150.007 376.985 150.001 377.267C149.995 377.55 149.888 377.81 149.686 378.009L149.537 378.158L149.408 378.306C144.686 383.525 140.896 389.514 138.221 396.022L137.516 397.766L137.702 399.269C134.667 407.587 132.718 416.299 133.083 425.166C133.735 441.514 140.449 453.159 147.144 460.412C153.839 467.665 160.082 470.618 161.503 471.246L161.429 471.209C161.613 471.293 161.774 471.433 161.892 471.599C162.008 471.761 162.075 471.941 162.096 472.137C162.097 472.142 162.096 472.149 162.096 472.156C162.107 472.33 162.077 472.517 162.003 472.675C161.924 472.844 161.804 472.978 161.651 473.083L161.539 473.176L161.428 473.25C161.512 473.188 158.859 475.13 156.03 477.999C153.201 480.868 149.698 485.028 146.495 490.577C140.087 501.675 135.068 518.499 139.278 540.311C143.228 560.787 156.81 574.095 168.923 581.977C181.039 589.86 191.693 592.677 192.631 592.922C192.773 592.959 192.905 593.019 193.02 593.107H193.039C193.154 593.194 193.244 593.312 193.318 593.441C193.389 593.566 193.447 593.699 193.466 593.849C193.48 593.961 193.466 594.076 193.447 594.183C189.681 606.841 193.522 623.863 206.043 636.998C215.586 647.009 234.297 656.945 263.087 650.095H263.106V650.076C263.305 650.028 263.526 650.041 263.718 650.113V650.132C263.913 650.205 264.08 650.315 264.2 650.485C297.725 697.585 367.517 730.023 426.705 742.423L441.176 745.445L434.535 732.237C431.457 726.122 428.741 719.833 426.428 713.389V713.352L426.409 713.315C421.399 699.803 418.308 685.647 417.208 671.279L416.948 667.958L414.221 666.01C410.569 663.421 406.987 660.81 403.48 658.163L400.326 655.77L400.048 655.882L387.656 645.697C352.826 617.093 325.754 585.864 306.645 552.591C301.477 543.601 296.849 534.305 292.787 524.764L290.784 520.071L285.701 520.442C283.252 520.628 280.838 520.72 278.522 520.72C254.172 520.72 238.124 511.662 227.73 502.578C222.532 498.035 218.813 493.477 216.414 490.074C215.214 488.373 214.337 486.955 213.779 485.993C213.286 485.142 213.227 485.02 213.074 484.713C212.955 484.457 212.942 484.161 213.037 483.897C213.132 483.633 213.32 483.424 213.575 483.303C213.831 483.182 214.105 483.172 214.373 483.266C214.638 483.359 214.844 483.55 214.967 483.804L214.986 483.823L215.005 483.86C216.182 486.247 234.078 519.392 280.155 518.587L289.987 518.42L286.778 509.145C272.267 467.184 270.099 423.203 280.452 377.36V377.341V377.304C280.614 376.561 280.848 375.705 281.12 374.725L282.251 370.663L279.228 367.732C270.017 358.753 264.54 346.651 263.738 333.821C263.767 333.593 263.815 333.356 263.979 333.19C264.167 333 264.415 332.906 264.684 332.893C264.958 332.9 265.211 332.995 265.407 333.19H265.426C265.627 333.389 265.738 333.666 265.742 333.951V334.155L265.761 334.377C266.441 343.922 269.91 353.058 275.741 360.645L282.159 368.993L287.521 359.922C297.263 343.464 314.594 330.821 330.15 328.831C330.288 328.812 330.426 328.813 330.559 328.85H330.578C330.712 328.886 330.837 328.949 330.949 329.035C331.057 329.12 331.139 329.229 331.208 329.35C331.278 329.474 331.32 329.598 331.338 329.74C331.356 329.879 331.355 330.016 331.319 330.148C331.281 330.288 331.216 330.413 331.134 330.519C331.049 330.628 330.939 330.728 330.818 330.797C330.697 330.867 330.566 330.91 330.429 330.927C320.264 332.228 310.04 337.771 301.304 345.916C292.567 354.062 285.335 364.991 282.456 377.749C278.777 393.859 276.659 410.282 276.149 426.798L275.518 447.334L288.726 431.603C310.297 405.913 346.314 394.781 346.846 394.631L346.865 394.612H346.902C347.172 394.533 347.452 394.569 347.7 394.705C347.947 394.84 348.139 395.062 348.219 395.336C348.292 395.604 348.259 395.892 348.126 396.133C347.99 396.381 347.767 396.555 347.495 396.634C346.595 396.892 346.339 396.993 344.805 397.525C343.253 398.063 341.086 398.85 338.461 399.918C333.212 402.053 326.142 405.288 318.556 409.787C303.385 418.785 285.845 432.906 277.707 454.123L277.114 455.718L277.281 457.407C279.376 477.57 284.141 497.373 291.435 516.287L291.806 517.289L292.474 518.123C292.56 518.233 292.6 518.363 292.641 518.494V519.44L293.179 520.739C301.168 540.144 311.415 558.535 323.713 575.538L333.935 589.674L336.532 572.422C341.328 540.581 365.38 521.876 366.677 520.887C366.882 520.783 367.098 520.7 367.326 520.739C367.6 520.786 367.847 520.944 368.013 521.166C368.179 521.389 368.25 521.65 368.217 521.926C368.182 522.205 368.044 522.453 367.827 522.631L368.048 522.464C365.956 524.054 333.398 549.376 338.311 592.567L338.571 594.756L340 596.426C359.692 619.205 381.878 639.721 406.115 657.588L416.151 664.99L417.412 652.579C419.04 636.629 423.895 621.176 431.659 607.148L431.678 607.111V607.092C433.329 604.049 435.143 601.013 437.058 597.947L438.95 594.942L437.67 591.621C437.192 590.369 436.798 589.494 436.538 588.82C424.796 557.944 436.306 529.338 454.551 505.23C472.797 481.122 497.6 462.601 509.48 454.549L515.676 450.356L511.187 444.383C505.707 437.083 495.33 425.721 479.131 422.141C462.825 418.536 445.381 424.521 428.024 438.02L427.727 438.261L427.43 438.54C427.322 438.645 427.2 438.71 427.059 438.762V438.781C426.918 438.833 426.771 438.846 426.614 438.837C426.459 438.828 426.318 438.794 426.187 438.726H426.168C426.033 438.657 425.928 438.545 425.834 438.429H425.815C425.721 438.313 425.651 438.185 425.611 438.04C425.57 437.888 425.569 437.726 425.592 437.576C425.617 437.428 425.681 437.292 425.759 437.168C425.84 437.041 425.931 436.917 426.056 436.834L426.557 436.518L426.984 436.11C435.72 427.926 453.263 409.794 463.399 385.949C473.535 362.103 475.504 331.477 452.398 303.175C429.509 275.151 404.123 268.066 384.762 269.097C365.435 270.127 352.357 278.361 350.573 279.523C350.318 279.687 350.017 279.743 349.719 279.69C349.714 279.688 349.707 279.691 349.7 279.69C349.568 279.658 349.454 279.597 349.348 279.523C349.234 279.443 349.14 279.338 349.07 279.226L348.958 279.059L348.829 278.892C344.093 272.227 337.86 266.779 330.612 262.994C323.364 259.21 315.322 257.19 307.145 257.113H307.108L307.072 257.113ZM138.89 325.881L140.244 323.822L139.372 324.749L138.89 325.881ZM307.035 271.379C312.946 271.441 318.767 272.89 324.009 275.627C329.262 278.37 333.784 282.316 337.217 287.147L336.994 286.813C338.079 288.541 339.504 290.023 341.168 291.191C342.838 292.363 344.712 293.19 346.696 293.621H346.715H346.734C350.71 294.46 354.875 293.689 358.292 291.488H358.311L358.33 291.469C358.564 291.316 369.999 284.152 385.525 283.325C401.051 282.498 420.894 287.129 441.363 312.19C461.18 336.463 459.093 359.646 450.286 380.364C441.479 401.082 425.181 418.27 417.247 425.702L418.175 424.979C416.398 426.162 414.887 427.704 413.741 429.505C412.596 431.304 411.837 433.318 411.515 435.423V435.442C411.194 437.551 411.312 439.693 411.867 441.749C412.424 443.809 413.399 445.728 414.743 447.389C416.085 449.05 417.761 450.42 419.659 451.396V451.377C421.559 452.356 423.635 452.937 425.762 453.065C427.88 453.19 430.017 452.859 432.014 452.119C434.013 451.375 435.845 450.231 437.375 448.742L436.781 449.262C452.148 437.31 465.071 433.622 476.072 436.054C484.272 437.866 490.195 442.893 494.882 447.834C481.22 457.574 460.567 473.693 443.2 496.641C423.418 522.778 409.476 557.082 423.146 593.513C421.793 595.751 420.418 597.961 419.158 600.284L419.195 600.247C412.533 612.283 408.438 625.408 405.764 638.851C386.606 623.844 368.684 607.335 352.634 589.024C349.923 554.884 376.197 534.162 376.676 533.798L376.769 533.724L376.881 533.631C379.92 531.131 381.88 527.559 382.353 523.651C382.827 519.742 381.778 515.786 379.422 512.631C377.067 509.476 373.584 507.352 369.702 506.695C365.818 506.037 361.831 506.905 358.571 509.107L358.404 509.218L358.256 509.329C356.828 510.41 337.507 526.284 327.591 553.462C319.796 541.134 311.911 528.826 306.35 515.321L306.462 515.915C305.992 513.538 305.184 511.223 303.679 509.311L304.718 511.147C298.118 494.032 293.984 476.109 291.918 457.888C298.616 441.947 312.619 429.864 325.829 422.029C332.642 417.988 339.087 415.033 343.823 413.106C346.191 412.143 348.141 411.438 349.481 410.973C350.821 410.508 352.249 410.095 351.448 410.324H351.466H351.485C355.379 409.187 358.663 406.534 360.613 402.977C362.565 399.419 363.026 395.238 361.892 391.346V391.327C360.757 387.435 358.123 384.15 354.565 382.2C351.008 380.248 346.81 379.802 342.915 380.939C340.15 381.722 315.485 389.611 292.809 408.431C293.822 399.224 294.287 389.942 296.352 380.902V380.883C298.474 371.479 304.101 362.778 311.026 356.321C317.952 349.864 326.196 345.833 332.23 345.061C334.226 344.807 336.143 344.167 337.888 343.169C339.632 342.17 341.165 340.827 342.396 339.236C343.628 337.644 344.539 335.828 345.067 333.893C345.595 331.952 345.729 329.931 345.475 327.939C345.22 325.947 344.578 324.023 343.583 322.281C342.585 320.536 341.241 319.003 339.65 317.773C338.061 316.544 336.247 315.629 334.307 315.101C332.365 314.571 330.348 314.437 328.353 314.693C310.917 316.924 295.611 328.651 283.738 343.28C282.403 339.963 280.229 336.96 279.972 333.355L279.991 333.782C279.943 329.757 278.304 325.914 275.443 323.08C272.583 320.245 268.729 318.636 264.702 318.627H264.665H264.628C260.58 318.656 256.698 320.292 253.85 323.172C251.002 326.053 249.417 329.956 249.435 334.006V334.192V334.377C250.287 349.27 256.733 363.008 266.576 374.094C266.561 374.156 266.552 374.199 266.539 374.261C256.547 418.532 258.2 461.642 270.379 502.856C239.386 499.106 228.002 477.991 227.786 477.552L227.805 477.608C226.048 473.971 222.913 471.178 219.104 469.835C215.296 468.494 211.102 468.698 207.454 470.429C203.807 472.162 200.993 475.272 199.626 479.074C198.258 482.874 198.456 487.083 200.164 490.742L200.201 490.816L200.238 490.89C200.091 490.595 200.713 491.843 201.462 493.135C202.211 494.426 203.297 496.193 204.764 498.273C207.698 502.435 212.126 507.884 218.343 513.318C230.778 524.186 250.569 534.967 278.522 534.967C279.618 534.967 280.791 534.871 281.917 534.837C285.699 543.29 289.673 551.646 294.29 559.677C311.579 589.78 336.125 617.622 365.229 643.749C360.129 643.597 355.003 644.303 349.961 643.434L350.073 643.453C346.086 642.705 341.957 643.573 338.608 645.864C335.262 648.155 332.956 651.688 332.208 655.678C331.458 659.668 332.33 663.794 334.62 667.142C336.911 670.491 340.446 672.795 344.433 673.542H344.489L344.545 673.561C352.747 674.957 361.047 675.654 369.366 675.657C378.015 675.657 387.85 674.058 397.211 671.224C399.38 672.84 401.576 674.453 403.797 676.047C405.221 690.418 408.017 704.642 413.035 718.194C413.037 718.2 413.033 718.208 413.035 718.213C413.802 720.351 414.879 722.358 415.725 724.465C362.458 710.612 303.219 680.731 275.814 642.229C274.045 639.745 271.567 637.842 268.709 636.775C265.857 635.708 262.748 635.525 259.787 636.237H259.768C235.089 642.102 223.12 634.278 216.34 627.166C207.373 617.758 205.358 604.167 207.12 598.245V598.208L207.139 598.152C207.693 596.183 207.854 594.129 207.603 592.105C207.352 590.081 206.693 588.128 205.674 586.354V586.335C204.657 584.566 203.311 583.03 201.685 581.79C200.068 580.553 198.2 579.652 196.231 579.137L196.212 579.118C196.708 579.247 186.803 576.603 176.697 570.028C166.58 563.445 156.285 553.275 153.267 537.601C149.697 519.109 153.855 506.321 158.833 497.698C161.321 493.387 164.051 490.154 166.179 487.996C168.306 485.839 169.324 485.139 169.944 484.676L169.722 484.824C171.96 483.285 173.762 481.179 174.916 478.721V478.702C176.066 476.242 176.539 473.52 176.289 470.818V470.799C176.031 468.103 175.059 465.507 173.487 463.305C171.913 461.102 169.794 459.36 167.329 458.241L167.292 458.222L167.255 458.203C167.73 458.413 162.475 456.018 157.608 450.746C152.741 445.473 147.824 437.42 147.312 424.589C146.991 416.783 148.388 408.984 151.394 401.771L151.802 400.825C153.832 396.097 156.51 391.676 159.964 387.858L159.686 388.155C162.521 385.36 164.161 381.562 164.249 377.581C164.338 373.6 162.877 369.74 160.168 366.822L160.075 366.71L160.056 366.691C160.156 366.805 160.893 367.528 159.982 366.617C159.881 366.501 159.756 366.355 159.574 366.135C159.15 365.621 158.532 364.824 157.811 363.816C156.37 361.8 154.539 358.89 153.007 355.468C149.947 348.635 148.166 340.301 151.931 331.63C151.936 331.618 151.925 331.606 151.931 331.593L151.95 331.574C155.979 322.336 162.59 319.236 169.221 317.847C172.536 317.152 175.76 317.05 178.144 317.142C179.335 317.188 180.327 317.281 181 317.364C181.674 317.448 182.547 317.664 181.705 317.458L181.891 317.495L182.076 317.532C184.31 317.955 186.622 317.89 188.829 317.309C191.033 316.731 193.08 315.663 194.821 314.192C196.56 312.723 197.945 310.888 198.883 308.813C199.824 306.736 200.284 304.469 200.238 302.19C200.237 301.875 200.252 301.934 200.275 301.411C200.302 300.788 200.347 299.857 200.479 298.721C200.742 296.449 201.308 293.342 202.389 290.188C204.553 283.879 208.257 277.864 216.34 275.273H216.359C227.296 271.762 235.528 274.45 241.829 278.185C248.13 281.921 252.325 287.351 251.939 286.83C253.344 288.727 255.177 290.282 257.282 291.356C259.399 292.435 261.738 293.01 264.108 293.026C266.478 293.042 268.827 292.511 270.954 291.468C273.079 290.424 274.934 288.9 276.371 287.015C276.566 286.771 276.524 286.834 276.816 286.496C277.176 286.079 277.73 285.469 278.467 284.715C279.94 283.208 282.139 281.175 284.904 279.168C290.424 275.163 298.05 271.39 307.035 271.377L307.035 271.379ZM880.274 344.543C880.298 344.55 880.324 344.536 880.348 344.543C880.392 344.555 880.451 344.587 880.496 344.599L880.274 344.543ZM786.221 350.22H786.258H786.332L786.054 350.257L786.221 350.22ZM82.4957 386.653C76.9771 387.357 71.6692 388.956 66.8945 391.94L66.8759 391.959C53.3048 400.496 50.5099 414.706 52.1466 425.258C53.7832 435.81 58.7292 444.009 59.771 445.738L59.7895 445.757L59.8266 445.794C59.9253 445.954 59.9682 446.128 59.975 446.314C59.9819 446.5 59.9496 446.686 59.8637 446.852C59.7776 447.017 59.6464 447.16 59.4927 447.26C59.3364 447.361 59.1596 447.416 58.9733 447.427L58.9176 447.446H58.862C56.7423 447.603 46.7767 448.362 36.7308 453.642C26.685 458.922 16.3435 470.028 16.3435 487.534V487.553C16.4046 511.915 30.0675 528.98 43.1494 539.31C56.2313 549.639 68.3253 553.719 69.6771 554.169H69.6956H69.7141C69.8568 554.216 69.9769 554.294 70.0852 554.392C70.1959 554.492 70.2852 554.61 70.3449 554.744C70.4049 554.879 70.4374 555.023 70.4377 555.171C70.4379 555.317 70.4051 555.479 70.3449 555.616L70.2151 555.911L70.1037 556.226C69.9946 556.553 56.9275 586.613 75.2238 612.955C98.4199 646.494 142.646 648.758 143.046 648.758L142.675 648.739C142.844 648.748 143.011 648.802 143.157 648.887C143.305 648.975 143.421 649.099 143.509 649.24C143.6 649.383 143.663 649.554 143.676 649.722C143.691 649.894 143.648 650.051 143.583 650.204L143.564 650.26L143.545 650.297C143.181 651.203 138.675 662.343 138.462 676.565C138.25 690.788 142.74 709.019 159.814 722.089C176.317 734.723 194.428 738.735 208.306 739.62C215.245 740.062 221.175 739.733 225.429 739.286C227.555 739.062 229.268 738.818 230.474 738.618C230.989 738.532 231.349 738.453 231.662 738.395H231.866L232.663 738.21C232.954 738.142 233.245 738.202 233.498 738.358C233.607 738.426 233.704 738.517 233.776 738.618C233.85 738.721 233.897 738.828 233.925 738.952L233.944 739.045L233.963 739.119C234.331 740.595 241.463 766.588 269.358 771.676H269.377C283.938 774.314 296.743 770.184 305.755 765.573C310.261 763.267 313.864 760.826 316.403 758.913C317.673 757.956 318.679 757.128 319.39 756.52C319.745 756.216 320.038 755.963 320.243 755.778C320.448 755.593 321.009 755.078 320.503 755.536L320.577 755.462L320.651 755.388C320.809 755.236 321.025 755.148 321.245 755.11C321.441 755.076 321.632 755.111 321.82 755.184L321.876 755.203C322.703 755.591 323.151 755.772 324.955 756.502C326.759 757.231 329.331 758.219 332.598 759.359C339.131 761.637 348.405 764.495 359.701 766.927C382.292 771.792 412.992 775.016 445.888 768.337L456.851 766.111L450.21 757.114C448.462 754.751 446.772 752.384 445.146 750.027L443.402 747.522L440.397 747.04C380.21 737.519 301.819 702.701 265.574 655.789L262.921 652.357L258.654 653.136C228.191 658.702 212.055 646.314 204.56 638.425L204.541 638.406L204.522 638.387C194.519 627.971 189.09 612.527 190.127 600.061L190.572 594.7L185.526 592.808C172.103 587.772 143.409 573.409 137.09 540.661C130.767 507.913 143.795 488.077 152.839 478.182L158.035 472.488L151.969 467.758C143.432 461.103 131.765 448.328 130.858 425.22V425.202C130.538 417.514 131.516 409.824 133.733 402.458L135.699 395.928L129.244 393.684C121.293 390.918 110.482 387.895 99.3213 386.727C93.7407 386.143 88.0143 385.949 82.4957 386.653V386.653ZM138.241 396.3C137.884 397.156 138.079 398.139 137.759 399.008C137.756 398.927 137.758 398.848 137.759 398.767L138.241 396.3ZM97.8372 400.9C105.452 401.697 112.627 403.871 119.152 405.872C117.811 412.459 116.349 419.061 116.629 425.796C117.59 450.131 128.95 464.936 139.001 474.195C128.514 487.442 116.593 509.634 123.103 543.352C130.312 580.709 160.073 597.046 176.66 603.865C176.772 619.648 182.561 636.071 194.264 648.257C203.645 658.12 224.572 671.844 257.244 667.346C293.923 712.397 359.861 743.166 418.154 756.278C397.471 757.396 377.882 756.263 362.706 752.995C352.083 750.707 343.355 748.023 337.291 745.909C334.259 744.851 331.902 743.942 330.298 743.293C328.833 742.701 327.827 742.241 328.127 742.384C328.13 742.385 328.105 742.364 328.108 742.365L327.923 742.291L327.756 742.198C324.968 740.939 321.85 740.55 318.833 741.066H318.814C315.798 741.587 313.008 742.991 310.8 745.11C310.823 745.089 310.739 745.158 310.688 745.203C310.569 745.311 310.386 745.486 310.132 745.704C309.623 746.14 308.838 746.782 307.832 747.541C305.818 749.058 302.884 751.058 299.28 752.902C292.071 756.59 282.444 759.576 271.917 757.669C251.963 754.03 247.849 735.954 247.783 735.687L247.839 735.854C247.397 733.875 246.548 731.996 245.371 730.344C244.197 728.697 242.712 727.307 240.993 726.244C237.544 724.11 233.386 723.415 229.436 724.334C229.377 724.345 229.32 724.339 229.251 724.353C228.984 724.402 228.623 724.476 228.138 724.557C227.167 724.718 225.733 724.923 223.927 725.113C220.314 725.492 215.187 725.79 209.216 725.41C197.274 724.649 182.135 721.247 168.478 710.792C155.393 700.775 152.541 688.099 152.71 676.77C152.879 665.441 156.464 656.389 156.773 655.622L156.736 655.715C157.684 653.45 158.068 650.994 157.867 648.554C157.666 646.11 156.89 643.749 155.586 641.672C154.281 639.591 152.483 637.85 150.373 636.607C148.26 635.363 145.883 634.643 143.435 634.511H143.249H143.045C142.645 634.511 105.401 631.557 86.929 604.848C73.4986 585.526 83.5178 561.061 83.6269 560.735L83.3858 561.347C84.2468 559.394 84.6882 557.286 84.6847 555.15C84.6811 553.015 84.2357 550.905 83.3676 548.954C82.4993 547.003 81.2214 545.247 79.6389 543.816C78.058 542.386 76.2044 541.311 74.1849 540.644H74.1664C75.0104 540.924 62.9744 536.822 51.9796 528.14C40.9818 519.457 30.6458 506.663 30.5905 487.533V487.514C30.5977 475.149 36.3787 469.912 43.372 466.236C50.3697 462.558 58.3667 461.769 59.9193 461.654H59.808C62.4531 461.496 65.0237 460.648 67.2469 459.205C69.4725 457.762 71.2751 455.769 72.4968 453.417C73.7188 451.066 74.3195 448.441 74.222 445.793C74.1247 443.144 73.3307 440.571 71.9403 438.317L71.9774 438.373C71.2011 437.085 67.3442 430.293 66.2266 423.087C65.1102 415.89 65.6464 409.583 74.4446 404.035C79.4393 400.914 88.2873 399.901 97.8372 400.9ZM229.437 724.334L231.051 724.148C231.048 724.148 230.194 724.205 230.067 724.223C229.941 724.24 229.879 724.251 229.826 724.26C229.721 724.278 229.66 724.286 229.604 724.297C229.55 724.306 229.491 724.323 229.437 724.334L229.437 724.334ZM398.769 656.364L396.617 657.199C388.557 660.313 378.371 661.408 369.384 661.41C361.9 661.407 354.426 660.785 347.049 659.536C347.04 659.534 347.039 659.519 347.03 659.517C346.762 659.46 346.537 659.318 346.381 659.09C346.22 658.855 346.162 658.569 346.214 658.293C346.266 658.016 346.423 657.786 346.659 657.625C346.889 657.473 347.165 657.407 347.438 657.458H347.494L347.55 657.477C359.608 659.557 371.903 659.812 384.04 658.256L398.769 656.364ZM844.868 187.355C867.283 129.743 854.23 79.6223 828.887 59.1151C813.962 47.0441 796 46.2255 780.856 57.0426C755.604 74.8951 761.985 96.0928 767.603 114.8C772.457 130.944 777.075 146.251 767.04 164.012C713.773 165.503 671.559 204.008 641.145 279.127C640.354 281.085 640.351 283.271 641.133 285.233C641.915 287.193 643.423 288.776 645.344 289.653C648.775 291.135 652.297 292.398 655.888 293.434C652.034 301.706 648.198 310.16 644.472 318.432C628.527 353.701 612.039 390.17 590.804 419.003C562.607 457.289 530.466 488.086 502.105 515.355C479.344 537.171 458.801 556.933 442.803 577.548C428.368 515.21 520.14 458.707 521.103 458.107C522.881 457.034 524.183 455.324 524.747 453.326C525.31 451.327 525.094 449.189 524.139 447.345C523.557 446.217 509.359 419.366 481.289 413.185C473.983 411.6 466.432 411.513 459.092 412.931C482.435 378.389 490.943 335.775 459.601 297.38C416.987 245.203 369.411 260.239 352.177 268.292C346.528 261.911 339.595 256.797 331.831 253.285C324.066 249.773 315.648 247.942 307.127 247.912C287.129 247.912 272.313 258.439 264.313 265.801C253.187 255.657 233.281 245.203 209.193 252.948C185.977 260.384 179.377 281.454 177.505 293.671C162.233 293.489 140.473 299.289 130.437 322.286C120.13 345.919 131.528 367.317 138.491 377.189C136.558 379.814 134.803 382.565 133.237 385.424C118.257 380.116 83.8425 370.462 61.9723 384.243C38.3386 399.059 40.1566 423.438 46.7377 440.182C28.9396 444.745 7.05112 458.035 7.12388 487.686C7.23292 531.317 43.029 552.606 59.1908 559.968C55.8275 572.167 52.3188 596.238 67.5899 618.325C86.0062 645.014 116.021 653.867 131.765 656.758C126.711 676.956 127.002 708.806 154.162 729.586C182.104 750.966 213.483 750.257 227.463 748.566C230.884 756.922 236.369 764.275 243.405 769.934C250.443 775.593 258.799 779.376 267.695 780.926C271.335 781.59 275.029 781.925 278.731 781.926C299.4 781.926 315.544 771.508 322.871 765.782C339.378 772.363 394.736 791.107 456.328 775.526C472.604 792.727 492.38 806.235 514.322 815.14C532.618 822.647 552.194 826.543 571.97 826.612C594.334 826.6 616.395 821.43 636.435 811.505C719.953 770.491 790.473 687.427 829.941 583.638C864.374 493.048 881.318 408.04 879.264 336.611C880.99 337.303 882.063 337.647 882.335 337.721C883.595 338.099 884.926 338.17 886.217 337.925C887.509 337.68 888.723 337.127 889.755 336.314C890.788 335.501 891.609 334.45 892.151 333.252C892.691 332.054 892.935 330.743 892.862 329.431C888.608 255.057 874.191 210.971 844.886 187.355H844.868ZM790.346 70.3142C801.999 62.0604 812.162 66.6774 818.652 71.8405C838.396 87.8029 848.558 129.743 830.887 178.193C826.294 175.792 821.523 173.75 816.616 172.085C806.312 168.557 795.668 166.12 784.855 164.813C793.509 143.96 787.928 125.417 783.31 110.055C777.492 90.7112 775.366 80.9672 790.346 70.3683V70.3142ZM714.245 199.445C730.424 186.742 750.472 179.978 771.039 180.283H772.003C785.426 180.699 798.703 183.195 811.361 187.682C817.763 189.795 823.871 192.709 829.542 196.354C830.097 196.82 830.708 197.217 831.36 197.536C854.048 213.334 869.956 245.094 875.646 316.469L874.864 315.996C860.274 306.479 848.522 293.201 840.85 277.564C840.162 276.226 839.12 275.102 837.838 274.316C836.556 273.531 835.082 273.113 833.577 273.109C832.079 273.108 830.609 273.518 829.327 274.294C828.045 275.069 827 276.181 826.306 277.509C822.833 284.163 819.034 291.017 815.18 297.67C814.198 299.343 813.234 300.979 812.252 302.615C811.78 303.434 811.289 304.233 810.798 305.033C800.599 321.904 790.528 336.193 785.056 340.211C779.929 334.557 769.494 317.159 758.749 297.489C753.878 288.545 748.933 279.127 744.406 270.219C743.863 269.149 743.094 268.209 742.152 267.466C741.21 266.722 740.119 266.191 738.951 265.911C738.354 265.784 737.744 265.724 737.133 265.728C736.726 265.731 736.32 265.762 735.916 265.82H735.643C734.844 265.964 734.072 266.228 733.352 266.601L733.116 266.747C732.753 266.943 732.407 267.168 732.08 267.419C710.882 284.054 686.158 283.362 669.159 279.854C665.523 279.09 662.215 278.2 659.56 277.381C675.25 240.931 693.157 215.334 714.191 199.336L714.245 199.445ZM145.417 328.721C155.471 305.669 182.305 310.269 183.413 310.542C184.61 310.769 185.842 310.727 187.019 310.418C188.196 310.109 189.29 309.541 190.22 308.755C191.151 307.969 191.894 306.986 192.395 305.877C192.898 304.767 193.146 303.56 193.121 302.342C193.121 302.07 192.848 275.327 214.173 268.491C240.28 260.111 256.987 281.691 257.66 282.6C258.413 283.617 259.393 284.445 260.522 285.019C261.65 285.593 262.897 285.896 264.163 285.905C265.429 285.914 266.68 285.628 267.817 285.07C268.954 284.513 269.945 283.698 270.713 282.69C270.859 282.509 285.111 264.238 307.073 264.238C314.124 264.305 321.058 266.042 327.309 269.305C333.56 272.57 338.948 277.269 343.032 283.018C343.61 283.938 344.367 284.734 345.256 285.358C346.146 285.983 347.151 286.423 348.213 286.653C350.356 287.106 352.59 286.694 354.431 285.508C356.412 284.217 403.516 254.602 446.875 307.688C489.797 360.263 438.785 415.294 422.115 430.91C421.164 431.544 420.355 432.369 419.742 433.333C419.128 434.297 418.723 435.378 418.55 436.508C418.378 437.637 418.444 438.79 418.742 439.894C419.04 440.996 419.565 442.025 420.284 442.913C421.002 443.802 421.898 444.53 422.914 445.053C423.93 445.576 425.044 445.881 426.184 445.95C427.325 446.017 428.467 445.847 429.538 445.448C430.609 445.05 431.585 444.433 432.404 443.636C448.766 430.91 463.946 426.074 477.599 429.092C491.252 432.11 500.505 442.018 505.487 448.654C480.998 465.251 404.225 523.9 429.877 591.347C430.24 592.292 430.641 593.165 431.023 594.165C429.059 597.31 427.168 600.473 425.423 603.691C417.193 618.56 412.059 634.942 410.333 651.849C386.523 634.296 364.742 614.143 345.395 591.765C340.924 552.46 371.065 529.117 372.356 528.136C373.984 526.797 375.034 524.883 375.287 522.789C375.541 520.697 374.979 518.588 373.717 516.899C372.457 515.21 370.593 514.071 368.515 513.72C366.437 513.367 364.304 513.83 362.557 515.01C361.212 516.028 334.778 536.244 329.488 571.367C317.518 554.818 307.54 536.915 299.764 518.028C299.764 517.919 299.764 517.81 299.764 517.7C299.564 516.247 298.981 514.873 298.073 513.719C291.006 495.391 286.396 476.208 284.366 456.671C298.91 418.748 348.977 403.623 349.486 403.477C351.569 402.869 353.325 401.459 354.368 399.556C355.412 397.654 355.656 395.415 355.049 393.332C354.441 391.249 353.032 389.493 351.129 388.45C349.227 387.407 346.987 387.162 344.904 387.769C342.977 388.315 306.6 399.241 283.275 427.02C283.771 410.958 285.823 394.982 289.402 379.316C294.401 357.154 315.126 340.066 331.324 337.993C332.391 337.857 333.419 337.513 334.352 336.979C335.285 336.445 336.103 335.733 336.761 334.882C337.418 334.033 337.901 333.062 338.184 332.025C338.466 330.988 338.541 329.906 338.406 328.84C338.269 327.773 337.924 326.745 337.391 325.812C336.857 324.879 336.145 324.061 335.295 323.403C334.445 322.746 333.474 322.262 332.437 321.98C331.4 321.697 330.318 321.622 329.251 321.759C310.781 324.122 292.146 338.12 281.384 356.301C276.404 349.82 273.439 342.018 272.858 333.866C272.834 331.711 271.962 329.651 270.431 328.134C268.9 326.616 266.833 325.763 264.677 325.758C262.511 325.773 260.438 326.646 258.915 328.186C257.391 329.727 256.541 331.809 256.551 333.975C257.392 348.683 263.709 362.543 274.258 372.826C273.985 373.807 273.713 374.789 273.494 375.789C262.877 422.802 265.095 468.252 280.039 511.465C237.334 512.211 222.1 482.141 221.391 480.705C220.452 478.759 218.781 477.264 216.744 476.546C214.705 475.828 212.467 475.945 210.515 476.871C208.564 477.798 207.057 479.459 206.326 481.492C205.595 483.525 205.697 485.764 206.611 487.722C206.829 488.159 226.226 527.845 278.53 527.845C281.02 527.845 283.602 527.754 286.239 527.554C290.411 537.355 295.164 546.897 300.473 556.132C320.071 590.256 347.74 622.125 383.137 651.195C371.704 652.661 360.117 652.409 348.758 650.449C346.625 650.05 344.42 650.513 342.628 651.738C340.837 652.965 339.605 654.852 339.205 656.985C338.805 659.118 339.269 661.324 340.494 663.115C341.72 664.907 343.608 666.138 345.741 666.538C353.548 667.867 361.454 668.536 369.375 668.538C378.9 668.538 389.827 667.466 399.189 663.848C402.753 666.538 406.389 669.199 410.098 671.829C411.249 686.858 414.492 701.654 419.732 715.787C422.143 722.503 424.96 729.066 428.168 735.44C370.374 723.333 301.655 690.826 270.004 646.359C269.059 645.032 267.738 644.018 266.212 643.449C264.687 642.878 263.025 642.777 261.441 643.16C234.699 649.522 219.355 640.65 211.192 632.088C200.448 620.817 197.521 605.509 200.284 596.219C200.581 595.165 200.663 594.063 200.529 592.976C200.394 591.889 200.044 590.84 199.499 589.89C198.954 588.941 198.224 588.109 197.354 587.445C196.484 586.78 195.49 586.296 194.43 586.021C194.012 585.911 153.235 575.112 146.272 538.953C138.491 498.648 164.616 479.76 165.688 478.959C166.886 478.135 167.842 477.007 168.458 475.691C169.076 474.374 169.33 472.917 169.196 471.47C169.058 470.02 168.539 468.635 167.694 467.45C166.848 466.266 165.704 465.325 164.379 464.724C163.434 464.306 141.363 454.053 140.2 424.874C139.836 416.03 141.413 407.212 144.818 399.041V398.913C144.826 398.854 144.826 398.792 144.818 398.732C147.18 392.984 150.52 387.688 154.689 383.079C156.208 381.582 157.084 379.554 157.131 377.422C157.179 375.291 156.394 373.225 154.944 371.663C154.743 371.462 135.8 350.756 145.399 328.74L145.417 328.721ZM324.816 748.693C323.318 748.017 321.651 747.804 320.032 748.083C318.411 748.362 316.912 749.119 315.726 750.257C315.526 750.438 295.728 769.218 270.64 764.674C246.716 760.31 241.097 738.276 240.88 737.404C240.645 736.352 240.203 735.359 239.578 734.481C238.954 733.605 238.16 732.861 237.244 732.295C235.393 731.149 233.165 730.784 231.045 731.277C230.681 731.277 194.303 739.53 164.143 716.442C133.983 693.354 149.49 654.631 150.162 652.958C150.669 651.749 150.876 650.436 150.768 649.13C150.661 647.824 150.241 646.563 149.544 645.453C148.848 644.342 147.894 643.416 146.765 642.751C145.636 642.086 144.363 641.703 143.054 641.632C142.654 641.632 101.913 639.033 81.0796 608.909C65.2083 586.075 76.7524 558.805 76.8616 558.478C77.322 557.433 77.559 556.304 77.5571 555.163C77.5552 554.022 77.3145 552.893 76.8505 551.851C76.3865 550.808 75.7095 549.874 74.8628 549.108C74.0163 548.343 73.0189 547.764 71.9349 547.406C71.444 547.243 23.5765 531.044 23.4675 487.54C23.4675 457.653 55.7184 454.817 59.3907 454.544C60.8064 454.46 62.1759 454.01 63.3656 453.237C64.5553 452.466 65.5245 451.399 66.1784 450.14C66.8323 448.882 67.1486 447.475 67.0965 446.058C67.0444 444.641 66.6256 443.262 65.881 442.054C64.063 439.037 48.2647 412.076 70.6622 397.986C85.2064 388.897 111.803 395.15 126.91 400.405C124.464 408.532 123.395 417.012 123.747 425.493C124.747 450.945 137.927 465.852 147.581 473.378C137.527 484.377 123.311 506.884 130.092 542.007C137.091 578.276 168.542 594.038 183.031 599.474C181.796 614.327 187.922 631.378 199.394 643.323C208.029 652.413 227.099 666.138 259.932 660.139C298.109 709.552 377.446 744.294 439.276 754.075C440.948 756.499 442.681 758.923 444.476 761.346C381.264 774.181 325.488 749.02 324.907 748.747L324.816 748.693ZM814.707 577.858C776.711 677.847 709.137 757.619 629.273 796.87C595.35 813.559 556.718 814.667 520.522 799.997C500.784 791.877 482.981 779.683 468.276 764.215C453.571 748.745 442.296 730.349 435.186 710.224C418.823 664.63 426.204 631.052 446.966 599.637C447.079 599.493 447.183 599.341 447.275 599.182C463.146 575.349 486.707 552.733 513.467 527.064C542.301 499.412 574.988 468.051 604.022 428.619C626.273 398.404 643.126 361.136 659.415 325.085C663.814 315.377 667.995 306.105 672.269 297.016H672.723L674.05 297.198L676.359 297.489L677.795 297.634C678.576 297.634 679.358 297.797 680.159 297.853L681.631 297.961L684.085 298.088H685.557H688.194H689.594C690.575 298.088 691.575 298.088 692.575 298.088H693.684C696.466 297.943 699.265 297.688 702.119 297.288L703.338 297.089C704.356 296.925 705.356 296.761 706.392 296.562L707.937 296.234C708.865 296.053 709.754 295.852 710.682 295.616C711.264 295.489 711.828 295.325 712.391 295.18L715.027 294.434L716.845 293.871L719.463 292.962L721.281 292.308C722.172 291.962 723.099 291.58 723.953 291.198L725.626 290.471C726.608 290.017 727.571 289.526 728.553 289.035C729.026 288.799 729.498 288.581 729.953 288.326C731.382 287.562 732.819 286.745 734.261 285.872C769.276 354.137 778.238 356.264 781.71 357.082C782.165 357.193 782.627 357.278 783.092 357.337H783.183C783.654 357.394 784.127 357.424 784.601 357.427H785.492C785.68 357.445 785.868 357.445 786.056 357.427H786.255L786.856 357.337H787.001L787.691 357.191C789.13 356.805 790.512 356.23 791.8 355.482L792.618 354.992H792.727L793.546 354.446H793.654C793.946 354.246 794.237 354.046 794.527 353.809C796.298 352.446 797.968 350.958 799.527 349.356L799.654 349.21L800.581 348.246L800.854 347.956L801.727 346.992C801.832 346.862 801.948 346.741 802.072 346.629L802.944 345.611L803.326 345.175L804.199 344.119C804.348 343.959 804.488 343.789 804.617 343.611L805.526 342.502L805.872 342.066L807.944 339.393L808.125 338.83L808.907 337.757L809.599 336.812C809.853 336.484 810.108 336.121 810.344 335.775L811.144 334.685L811.871 333.648L812.725 332.394L813.453 331.358L814.38 329.976L815.088 328.922L816.107 327.394L816.779 326.358L817.961 324.54C818.161 324.249 818.343 323.959 818.525 323.667L820.343 320.813C825.488 312.632 830.232 304.452 833.85 297.961C834.486 298.907 835.141 299.78 835.777 300.743L836.413 301.616L837.722 303.434L838.486 304.434C838.886 304.961 839.305 305.469 839.704 305.978L840.504 306.96L841.704 308.414L842.504 309.36L843.722 310.741L844.504 311.614L845.813 313.014C846.031 313.269 846.267 313.505 846.503 313.741C847.085 314.377 847.685 314.978 848.321 315.56L848.503 315.741C849.158 316.396 849.812 317.014 850.467 317.559L851.157 318.195L852.43 319.359C852.684 319.595 852.939 319.832 853.212 320.049L854.357 321.068L855.157 321.74L856.284 322.668L857.066 323.303L858.193 324.194L858.92 324.759L860.139 325.668L860.738 326.103C861.284 326.521 861.847 326.903 862.392 327.285H862.484C866.319 397.568 849.375 486.304 814.616 577.767M494.417 0.573658C471.934 -0.895842 446.129 2.72716 420.046 17.3622H420.027C385.484 36.7711 360.072 72.1489 349.85 114.29C340.915 151.047 345.114 187.096 362.427 213.37C375.549 233.327 397.009 243.098 422.087 244.962V246.52H429.21C444.411 246.52 461.231 243.013 479.056 237.189C490.185 276.621 504.932 303.148 526.936 313.248C533.318 316.207 540.27 317.729 547.305 317.718H547.379H547.472C557.642 317.471 567.592 314.735 576.485 309.797C593.928 300.63 605.407 286.989 608.615 270.154C614.381 239.932 594.284 210.154 574.111 185.229C611.405 155.02 629.748 120.872 622.139 86.9092V86.8907C615.768 58.7702 585.752 30.7715 548.826 14.3013C536.048 8.60078 516.9 2.04316 494.417 0.573658ZM493.86 14.765C514.082 16.1361 531.347 22.098 543.02 27.3054C576.851 42.3953 603.709 70.025 608.245 90.0443C614.682 118.817 599.248 148.999 560.439 178.476L554.503 182.984L559.27 188.716C580.1 213.73 599.127 243.804 594.61 267.483C592.261 279.808 584.57 289.516 569.789 297.257L569.696 297.294L569.621 297.331C562.75 301.157 555.055 303.249 547.194 303.453C542.269 303.446 537.398 302.39 532.928 300.318L532.909 300.299H532.89C515.956 292.532 501.109 269.253 490.242 226.837L488.294 219.25L480.911 221.903C461.655 228.844 444.28 232.242 429.302 232.254H429.209C404.194 232.254 386.17 223.529 374.336 205.523C359.763 183.407 355.501 151.312 363.688 117.647C373.062 79.0021 396.323 47.0338 427.002 29.7906C450.459 16.6287 473.637 13.3934 493.859 14.7645L493.86 14.765ZM485.364 16.6572C465.28 16.5981 445.524 21.7793 428.042 31.6648C397.767 48.6818 374.779 80.898 365.73 118.149H365.767C358.008 150.064 361.386 182.002 376.118 204.373C387.893 222.258 408.166 230.883 432.401 230.214C456.636 229.545 485.355 220.317 517.642 203.112C548.995 186.398 572.856 168.259 588.228 149.314C603.6 130.37 610.565 110.011 606.204 90.5637V90.5452C603.87 80.2856 596.639 69.4429 585.724 58.6192C574.82 47.8066 560.066 37.2646 542.204 29.2903L542.148 29.2718C524.314 21.2007 504.995 16.9081 485.42 16.6758L485.382 16.6572L485.364 16.6572ZM485.253 30.9042C502.877 31.1134 520.269 34.9839 536.323 42.2574L536.342 42.2759H536.361C552.634 49.5331 566.056 59.178 575.689 68.7293C585.313 78.2725 590.984 87.9583 592.292 93.6802C595.494 107.957 590.761 123.566 577.154 140.336C563.547 157.105 541.151 174.433 510.946 190.534C479.913 207.071 452.881 215.391 432.013 215.967C411.144 216.543 396.961 210.111 388.029 196.544C376.255 178.666 372.604 150.33 379.606 121.525L371.166 119.466L379.588 121.506C387.77 87.8276 408.82 58.8029 435.036 44.0753L435.055 44.0568C450.369 35.3968 467.659 30.8621 485.253 30.9042V30.9042ZM552.74 184.227L547.435 187.751C538.71 193.58 529.101 199.313 518.607 204.911C510.789 209.044 503.18 212.717 495.808 215.93L490.28 218.342L491.745 224.204C501.654 263.432 514.359 289.402 533.856 298.389C544.436 303.264 556.668 301.753 568.861 295.365H568.88C581.678 288.635 590.277 279.061 592.551 267.075L594.165 258.616H591.957C591.72 246.622 587.879 234.608 581.624 223.555C573.895 209.895 563.978 197.537 556.841 189.087L552.74 184.227ZM549.438 203.112C555.847 210.927 563.315 220.109 569.232 230.567C576.192 242.868 580.243 255.485 578.545 264.403L578.526 264.497C577.145 271.633 572.634 277.283 562.238 282.751C552.453 287.873 545.891 288.246 539.829 285.459C529.31 280.611 516.921 259.669 507.55 226.078C513.397 223.385 519.245 220.693 525.303 217.489V217.47H525.322C534.046 212.816 541.81 207.975 549.438 203.111V203.112ZM429.213 239.403C445.284 239.403 463.464 235.766 483.335 228.603C494.425 271.89 509.714 297.505 529.929 306.777C535.37 309.3 541.295 310.603 547.291 310.594C556.333 310.374 565.186 307.959 573.088 303.559C589.232 295.105 598.831 283.416 601.613 268.817C606.957 240.802 585.923 209.587 564.743 184.154C604.74 153.775 622.411 120.688 615.193 88.4735C609.739 64.4036 581.306 36.5884 545.928 20.8083C521.476 9.90043 473.063 -4.22522 423.523 23.5717C390.909 41.8969 366.566 75.5657 356.767 115.962C348.204 151.176 352.44 185.245 368.384 209.442C381.528 229.44 402.435 239.384 429.213 239.384V239.403ZM585.559 265.745C583.741 275.325 577.179 282.943 565.562 289.052C554.563 294.814 545.164 295.76 536.838 291.924C521.494 284.852 508.368 260.891 498.66 222.459C506.223 219.162 513.992 215.405 521.967 211.187C532.645 205.491 542.455 199.655 551.4 193.68C565.435 210.296 590.05 242.074 585.541 265.745H585.559ZM372.656 119.834C381.273 84.3646 403.289 53.7316 431.54 37.861C447.947 28.5836 466.486 23.7344 485.334 23.7899C503.944 24.0107 522.304 28.0902 539.255 35.7703C573.415 51.0047 595.613 76.1479 599.249 92.1274C606.812 125.851 575.851 164.01 514.295 196.825C450.974 230.567 402.78 231.913 382.073 200.461C368.82 180.336 365.312 150.194 372.693 119.834" fill="black"/>
</svg>
