<?xml version="1.0" encoding="UTF-8" standalone="no"?>
<svg
   width="1000"
   height="1000"
   viewBox="0 0 1000 999.99999"
   fill="none"
   version="1.1"
   id="svg140"
   sodipodi:docname="legumes.svg"
   inkscape:version="1.2.1 (9c6d41e, 2022-07-14)"
   xmlns:inkscape="http://www.inkscape.org/namespaces/inkscape"
   xmlns:sodipodi="http://sodipodi.sourceforge.net/DTD/sodipodi-0.dtd"
   xmlns="http://www.w3.org/2000/svg"
   xmlns:svg="http://www.w3.org/2000/svg">
  <sodipodi:namedview
     id="namedview4605"
     pagecolor="#ffffff"
     bordercolor="#111111"
     borderopacity="1"
     inkscape:showpageshadow="0"
     inkscape:pageopacity="0"
     inkscape:pagecheckerboard="1"
     inkscape:deskcolor="#d1d1d1"
     showgrid="false"
     inkscape:zoom="2.6894344"
     inkscape:cx="47.035913"
     inkscape:cy="43.875397"
     inkscape:window-width="1309"
     inkscape:window-height="456"
     inkscape:window-x="274"
     inkscape:window-y="1297"
     inkscape:window-maximized="0"
     inkscape:current-layer="svg140" />
  <defs
     id="defs144" />
  <g
     id="g2014"
     transform="matrix(9.4980197,0,0,9.4980197,50.000193,83.277066)">
    <path
       id="path138"
       style="color:#000000;fill:#000000;stroke-miterlimit:10;-inkscape-stroke:none"
       d="m 84.777344,4.4550781 c -1.038066,-0.044691 -2.081354,0.2559612 -3,0.9121094 -1.46513,1.0372821 -2.12131,2.319022 -2.228516,3.5507813 -0.1073,1.2328522 0.255084,2.3708432 0.550781,3.3554692 0.482094,1.603552 0.792839,2.841814 0.06641,4.33789 -2.745047,0.209829 -5.273871,1.24406 -7.44336,3.226563 -2.325502,2.125069 -4.284394,5.215226 -5.914062,9.240234 h -0.002 c -0.155455,0.385086 -0.155771,0.815695 -0.002,1.201172 0.153778,0.385659 0.450542,0.696782 0.828125,0.86914 l 0.0078,0.0039 0.0078,0.0039 c 0.125881,0.05435 0.25877,0.08952 0.386719,0.138672 -0.291054,0.633101 -0.583325,1.268698 -0.865234,1.894531 -1.67846,3.712763 -3.404064,7.509774 -5.570313,10.451172 -2.920885,3.966076 -6.267435,7.177277 -9.253906,10.048828 -1.913901,1.834435 -3.523036,3.542355 -5.044922,5.292969 0.157661,-2.332965 1.618091,-4.592648 3.373047,-6.408203 1.080796,-1.118116 2.22076,-2.049458 3.09375,-2.701172 0.867529,-0.647637 1.398604,-0.97394 1.484375,-1.027344 0.350174,-0.211376 0.607753,-0.550196 0.71875,-0.943359 0.110807,-0.393148 0.06685,-0.814555 -0.121094,-1.177735 -0.114641,-0.221989 -1.666708,-3.246895 -5.015625,-3.984375 h -0.002 c -0.419676,-0.09106 -0.848172,-0.0078 -1.27539,-0.01563 0.913142,-1.614979 1.608642,-3.337513 1.71289,-5.166015 0.128522,-2.25427 -0.541955,-4.599654 -2.298828,-6.751953 -2.352123,-2.879944 -4.947379,-3.979969 -7.171875,-4.181641 -1.990786,-0.180484 -3.569775,0.327403 -4.605469,0.765625 -0.585017,-0.56423 -1.204291,-1.099418 -1.947265,-1.435547 -0.913823,-0.413372 -1.905378,-0.629236 -2.908203,-0.632812 h -0.002 c -2.091003,0 -3.577726,0.955671 -4.554687,1.763671 -1.36905,-1.058846 -3.439032,-2.016265 -5.986328,-1.197265 -1.397478,0.448111 -2.339492,1.339795 -2.917969,2.273437 -0.466409,0.752769 -0.614563,1.462981 -0.75,2.107422 -1.762079,0.119383 -3.996687,0.846815 -5.082031,3.333985 -1.115244,2.557086 -0.105321,4.746389 0.691406,6.011718 -0.01916,0.02914 -0.03784,0.05852 -0.05664,0.08789 -0.823486,-0.268231 -1.815046,-0.587742 -3.054688,-0.714844 -1.483001,-0.152053 -3.1317502,-0.05942 -4.5,0.802735 -1.4074567,0.882838 -2.1270082,2.141789 -2.3339844,3.380859 -0.1599273,0.95741 -0.00556,1.859567 0.2324219,2.685547 C 3.1874882,46.15598 2.3308054,46.574066 1.6035156,47.292969 0.66907885,48.21663 -0.0042835,49.572636 0,51.318359 c 0.0062518,2.501648 1.0568132,4.412855 2.3105469,5.748047 1.0750009,1.144847 2.2345034,1.828766 3.1328125,2.279297 C 5.1158318,60.843755 4.903748,63.189278 6.5,65.498047 H 6.49805 c 1.9020268,2.756377 4.702413,3.708768 6.548828,4.128906 -0.40773,2.316303 -0.144421,5.555903 2.728516,7.753906 2.961815,2.266138 6.110489,2.291542 7.8125,2.134766 0.40634,0.78542 0.876045,1.544758 1.568359,2.101562 0.838078,0.67406 1.833276,1.124897 2.892578,1.310547 6.39e-4,1.17e-4 0.0013,-1.16e-4 0.002,0 0.426921,0.07774 0.860709,0.11903 1.294922,0.119141 2.211914,0 3.832207,-0.974128 4.759766,-1.650391 1.992169,0.766187 7.400211,2.465597 13.708984,1.009766 1.730367,1.746827 3.773741,3.156304 6.054688,4.082031 2.014637,0.82594 4.170134,1.254085 6.347656,1.261719 h 0.002 0.002 c 2.469069,-0.0014 4.904454,-0.570567 7.117188,-1.666016 l 0.002,-0.002 c 9.001837,-4.421472 16.528919,-13.31691 20.742187,-24.396484 3.516052,-9.250635 5.276197,-17.938949 5.208985,-25.408203 0.05175,-0.0047 0.102992,0.01755 0.154296,0.0078 v 0.002 c 0.254389,-0.04826 0.493899,-0.15821 0.697266,-0.318359 0.203459,-0.160221 0.364201,-0.367716 0.470703,-0.603516 0.10645,-0.235911 0.155024,-0.493514 0.140625,-0.751953 v -0.002 C 94.319401,27.015106 92.846382,22.260595 89.769531,19.501953 91.968594,13.404851 90.699234,8.0041617 87.742187,5.6113281 h -0.002 C 86.846601,4.888585 85.81541,4.4997693 84.777344,4.4550781 Z m -0.05664,1.4550781 c 0.698958,0.031404 1.398407,0.319032 2.076172,0.8671875 2.301558,1.862414 3.728055,6.8094723 1.457031,12.6464843 l -0.287109,0.736328 c -0.0029,-0.002 -0.0049,-0.0058 -0.0078,-0.0078 l -0.04687,-0.03125 -0.05273,-0.02539 c -0.01419,-0.007 -0.0273,-0.01552 -0.03906,-0.02539 l -0.03711,-0.03125 -0.03906,-0.02539 c -0.648885,-0.417047 -1.347566,-0.749983 -2.080079,-0.992188 -1.402417,-0.495805 -2.874474,-0.772279 -4.361328,-0.818359 l -0.01172,-0.002 h -0.101563 c -2.03224,-0.03013 -3.967328,0.649761 -5.660156,1.75 l -0.06836,-0.132813 c 1.642366,-1.056704 3.371984,-1.77559 5.31836,-1.830078 l 0.423828,-0.01172 0.207031,-0.36914 c 1.19575,-2.116472 0.635869,-4.066363 0.125,-5.765625 C 81.239379,10.85679 80.96942,9.8941401 81.042994,9.0487941 81.116564,8.2034481 81.453828,7.431641 82.644556,6.5898097 l 0.002,-0.00195 0.002,-0.00195 c 0.675852,-0.4827307 1.373309,-0.707185 2.072266,-0.6757813 z m 0.302734,0.2734375 c -0.684515,-0.1093143 -1.494899,0.046062 -2.246093,0.578125 l -0.316407,0.2246094 v 0.099609 c -0.661573,0.5733649 -1.114439,1.2272951 -1.1875,1.9628906 -0.08606,0.8664929 0.169522,1.6971873 0.478516,2.7246103 0.486259,1.617595 0.996455,3.317154 0.189453,5.261718 l -0.378906,0.914063 0.980469,0.11914 c 1.086382,0.131408 2.156213,0.376053 3.191406,0.730469 h 0.002 c 0.48006,0.162869 0.947263,0.362779 1.396484,0.597656 l 0.757813,0.396485 0.292969,-0.804688 C 90.123549,13.669435 89.144391,8.9564828 86.664062,6.9511719 l -0.0039,-0.00195 -0.002,-0.00195 C 86.252529,6.624531 85.707953,6.2929081 85.023438,6.1835937 Z M 84.78711,7.6660156 c 0.32748,0.052297 0.658208,0.234713 0.935547,0.4550782 4.69e-4,3.721e-4 0.0015,-3.724e-4 0.002,0 1.58147,1.2829671 2.611956,5.0538542 1.234375,9.5742182 -0.246997,-0.103917 -0.484331,-0.230203 -0.738281,-0.316406 h -0.002 C 85.321118,17.071698 84.386352,16.898898 83.451172,16.744141 83.994385,14.66367 83.614406,12.755452 83.189453,11.341797 82.885947,10.332622 82.722462,9.6318464 82.765625,9.1972656 82.808788,8.7626848 82.958056,8.477882 83.644531,7.9921875 l 0.01367,-0.00977 c 0.466772,-0.325809 0.804804,-0.3681641 1.128906,-0.3164063 z M 81.16797,19.701172 h 0.0059 0.08398 c 1.335764,0.0414 2.656423,0.289842 3.916016,0.736328 l 0.0078,0.0039 0.0078,0.002 c 0.613971,0.202684 1.200256,0.482469 1.744141,0.832032 l -0.07813,-0.05664 c 0.105236,0.08833 0.220742,0.162408 0.34375,0.222656 l -0.09766,-0.05664 c 1.927591,1.342164 3.387426,4.140102 4.097657,10.08789 -0.796925,-0.762829 -1.506214,-1.610936 -1.996094,-2.609375 l -0.0039,-0.0059 -0.0039,-0.0059 C 89.060154,28.588526 88.85586,28.367475 88.603516,28.212891 88.351227,28.05834 88.061675,27.975357 87.765625,27.974609 h -0.002 c -0.294663,-1.86e-4 -0.583626,0.08168 -0.835938,0.234375 -0.252493,0.152619 -0.45718,0.37163 -0.59375,0.632813 h -0.002 c -0.359516,0.688942 -0.753325,1.401585 -1.154297,2.09375 -0.102357,0.174317 -0.202335,0.342563 -0.302734,0.509765 l -0.0039,0.0059 -0.002,0.0059 c -0.04284,0.07431 -0.09088,0.152128 -0.142579,0.236328 l -0.002,0.002 -0.002,0.0039 c -0.528849,0.874832 -1.054283,1.680225 -1.507812,2.30664 -0.219881,0.3037 -0.31022,0.369265 -0.486328,0.572266 -0.198529,-0.285268 -0.335549,-0.446113 -0.597657,-0.875 -0.473977,-0.77557 -1.026916,-1.742639 -1.58789,-2.769531 v -0.002 c -0.508831,-0.934268 -1.026872,-1.918542 -1.5,-2.84961 -0.106383,-0.209603 -0.257243,-0.393553 -0.441407,-0.539062 -0.184011,-0.145243 -0.396577,-0.249673 -0.625,-0.304688 l -0.01172,-0.002 -0.0098,-0.0039 c -0.115603,-0.02426 -0.233619,-0.03607 -0.351562,-0.03516 -0.04261,2.98e-4 -0.08444,0.0063 -0.126954,0.0098 h -0.0918 l -0.06641,0.01172 c -0.158351,0.02862 -0.311087,0.08261 -0.453125,0.15625 l -0.02344,0.01172 -0.01367,0.0098 c -0.07356,0.03986 -0.142378,0.08529 -0.207031,0.134766 l -0.0039,0.002 -0.0039,0.002 c -1.999689,1.569252 -4.338274,1.50964 -6.005859,1.166016 h -0.0039 c -0.01857,-0.0039 -0.03043,-0.0097 -0.04883,-0.01367 1.504369,-3.247601 3.163485,-5.629885 5.042969,-7.078125 l 0.06445,-0.05078 c 1.568402,-1.231409 3.512057,-1.886978 5.50586,-1.857422 z m -5.773438,0.160156 -0.654297,0.5 c -2.358181,1.7935 -4.30291,4.606656 -5.986328,8.517578 l -0.332031,0.767578 0.798828,0.246094 c 0.300914,0.0928 0.670172,0.191661 1.078125,0.277344 h 0.002 c 1.909484,0.394124 4.771702,0.47864 7.232422,-1.447266 l 0.0059,-0.0039 c 0.0015,-9.59e-4 0.0027,-0.0032 0.0039,-0.0039 l 0.01758,-0.0098 0.002,-0.002 h 0.002 l 0.02344,-0.0039 c 0.0089,-0.0013 0.01825,-0.0019 0.02734,-0.002 0.0047,-3.7e-5 0.009,0.0016 0.01367,0.002 0.0152,0.0042 0.03013,0.0097 0.04297,0.01953 0.01404,0.01109 0.02714,0.02522 0.03516,0.04102 0.479817,0.94423 1.002828,1.941941 1.519531,2.890625 v 0.002 c 0.570019,1.043496 1.132156,2.027542 1.625,2.833984 0.492845,0.806442 0.891094,1.412987 1.248047,1.806641 l 0.453125,0.501953 0.544922,-0.400391 c 0.453,-0.332614 0.842887,-0.834157 1.332031,-1.509765 0.488409,-0.674591 1.030099,-1.506345 1.574219,-2.40625 l 0.002,-0.0039 c 0.04879,-0.07946 0.101123,-0.164126 0.154297,-0.255859 l 0.0078,-0.01172 c 0.103106,-0.171865 0.203418,-0.343154 0.304687,-0.515625 l 0.002,-0.002 v -0.002 c 0.410628,-0.708834 0.815818,-1.440087 1.1875,-2.152344 0.0096,-0.01842 0.02351,-0.03239 0.04102,-0.04297 0.01716,-0.01039 0.0385,-0.01726 0.05859,-0.01758 0.02075,5.3e-5 0.04088,0.0067 0.05859,0.01758 0.01766,0.01082 0.03137,0.02616 0.04102,0.04492 l -0.0059,-0.01172 c 0.824388,1.680208 2.089827,3.092181 3.626953,4.154296 h -0.44336 l -0.03516,-0.02539 -0.11914,-0.08789 -0.06641,-0.05273 -0.113281,-0.08984 -0.07617,-0.06055 -0.113281,-0.09375 -0.07422,-0.0625 -0.126953,-0.113281 -0.01563,-0.01367 c 5.55e-4,4.43e-4 -0.01422,-0.01026 -0.04102,-0.03516 l -0.002,-0.002 -0.134765,-0.123047 -0.08594,-0.07813 -0.01367,-0.01367 c -0.04356,-0.03629 -0.0971,-0.08538 -0.15625,-0.144531 l -0.03125,-0.03125 -0.01172,-0.01172 c -0.05061,-0.0463 -0.0977,-0.09335 -0.144532,-0.144531 l -0.01172,-0.01172 -0.01172,-0.01172 c -0.02347,-0.02338 -0.03421,-0.03632 -0.0332,-0.03516 l -0.01172,-0.01172 -0.142578,-0.152344 -0.07422,-0.08398 -0.121094,-0.138672 -0.07617,-0.08984 -0.123046,-0.146484 -0.07422,-0.0918 -0.0039,-0.0059 -0.0039,-0.0039 c -0.04531,-0.05743 -0.08526,-0.105639 -0.113281,-0.142579 v -0.002 l -0.07422,-0.09766 -0.132812,-0.183594 -0.04883,-0.06641 -0.0098,-0.01367 -0.0098,-0.01367 c -0.07276,-0.108156 -0.139109,-0.197595 -0.1875,-0.269531 l -0.68164,-1.015625 -0.595703,1.068359 c -0.375615,0.673918 -0.86999,1.524655 -1.402344,2.371094 l -0.189453,0.300781 -0.002,0.002 c -0.01943,0.03107 -0.03249,0.05209 -0.04102,0.06445 l -0.0059,0.0078 -0.13086,0.201172 -0.06836,0.105469 -0.103516,0.154297 -0.07422,0.111328 -0.09375,0.138672 -0.07422,0.107422 -0.08984,0.130859 -0.07031,0.09961 -0.08594,0.117188 -0.0078,0.01172 c -0.02137,0.03124 -0.03992,0.05828 -0.05078,0.07227 l -0.0059,0.0078 -0.08008,0.109375 -0.154297,0.210937 -0.01563,0.04687 -0.134766,0.175781 -0.0293,0.03711 -0.105468,0.128906 -0.0078,0.0098 -0.0078,0.0078 -0.09766,0.119141 -0.03711,0.04102 -0.08984,0.105469 -0.0039,0.0059 c -0.0167,0.01794 -0.03507,0.03334 -0.05078,0.05273 l -0.06055,0.06641 -0.01953,0.02148 -0.107422,0.111328 -0.0098,0.0098 c -0.13483,0.137603 -0.27929,0.265205 -0.43164,0.382813 -0.0015,0.0011 -0.0024,0.0028 -0.0039,0.0039 l -0.214843,0.126953 c -0.07314,0.0415 -0.151037,0.0731 -0.232422,0.0957 l -0.02148,0.0039 h -0.113281 -0.0039 c -0.01962,-2.55e-4 -0.04011,-0.0034 -0.06055,-0.0059 l -0.02734,-0.002 c -0.01306,-0.0022 -0.02687,-0.0048 -0.03906,-0.0078 h -0.0039 l -0.002,-0.002 c -0.09095,-0.02144 -0.03133,0.01304 -0.144531,-0.07031 -0.113201,-0.08336 -0.340899,-0.294133 -0.685547,-0.742188 -0.689296,-0.896109 -1.837089,-2.723535 -3.669922,-6.296875 l -0.367187,-0.716796 -0.689453,0.417968 C 76.777504,29.512772 76.63848,29.592037 76.5,29.666016 l -0.0059,0.0039 -0.0078,0.002 c -0.01455,0.0081 -0.05283,0.02752 -0.115234,0.05859 -0.10686,0.05343 -0.203111,0.102844 -0.289063,0.142578 l -0.164062,0.07031 -0.002,0.002 c -0.07533,0.03369 -0.164291,0.06906 -0.248047,0.101563 l -0.169922,0.06055 -0.259766,0.0918 -0.169922,0.05273 -0.267578,0.07617 0.01563,-0.0059 c -0.07365,0.019 -0.123085,0.03266 -0.152344,0.03906 l -0.01172,0.0039 -0.01367,0.002 c -0.08475,0.0216 -0.163806,0.04017 -0.248047,0.05664 l -0.0059,0.002 -0.154297,0.03125 c -0.09606,0.01847 -0.192628,0.0356 -0.298828,0.05273 h -0.002 l -0.111328,0.01758 c -0.277087,0.03882 -0.548757,0.06384 -0.822265,0.07813 h -0.07813 -0.314453 -0.146485 -0.277344 -0.136718 L 71.8125,30.59375 71.664062,30.582031 h -0.002 c -0.01635,-0.0011 -0.113985,-0.02539 -0.300781,-0.02539 l 0.07617,0.0039 -0.142578,-0.01367 -0.230469,-0.0293 -0.185547,-0.02539 h -0.576172 l -0.201172,0.431641 c -0.453308,0.964251 -0.89459,1.943558 -1.357421,2.964844 h -0.002 c -1.714936,3.795459 -3.476557,7.67595 -5.751953,10.765625 -3.01001,4.088053 -6.413604,7.35636 -9.449218,10.267578 -2.817608,2.702704 -5.334744,5.106622 -7.074219,7.71875 l -0.0078,0.01172 -0.0039,0.0078 -0.0059,0.0059 -0.01563,0.02344 C 44.157235,66.133826 43.32682,70.021925 45.113281,75 c 0.783821,2.216634 2.026621,4.243176 3.646485,5.947266 1.620881,1.70516 3.582164,3.050282 5.757812,3.945312 h 0.002 l 0.002,0.002 c 3.995257,1.619322 8.30033,1.499291 12.0625,-0.351562 8.619217,-4.23606 15.83435,-12.787215 19.892578,-23.466797 l -1.40039,-0.53125 c -3.942563,10.375197 -10.95653,18.621459 -19.154297,22.65039 v 0.002 c -3.379754,1.662718 -7.208657,1.776729 -10.833984,0.308593 l -0.0039,-0.002 c -1.97893,-0.81477 -3.763773,-2.038667 -5.238281,-3.589844 -1.475525,-1.552246 -2.606851,-3.398623 -3.320312,-5.417968 v -0.002 c -1.658935,-4.622716 -0.937234,-7.805943 1.158203,-10.976563 l -0.03516,0.04883 c 0.02311,-0.02951 0.04554,-0.06292 0.06641,-0.0957 1.602521,-2.406467 4.047848,-4.764306 6.865234,-7.466797 3.035779,-2.911376 6.515557,-6.245798 9.619141,-10.460937 2.409862,-3.272262 4.195316,-7.239906 5.910156,-11.035157 v -0.002 c 0.386547,-0.85296 0.755994,-1.657976 1.126953,-2.457031 l 0.08789,0.0078 h 0.03711 c -0.02176,0 0.04735,0.01121 0.193359,0.02148 l 0.164063,0.01172 0.285156,0.01563 h 0.175781 0.277344 0.146485 0.314453 0.136718 l 0.01953,-0.002 c 0.312291,-0.01631 0.629212,-0.04446 0.953125,-0.08984 l 0.0078,-0.002 0.134766,-0.02148 c 0.108199,-0.01746 0.221409,-0.03507 0.34375,-0.05859 l 0.0078,-0.002 0.158203,-0.0332 0.01172,-0.002 c 0.09855,-0.01947 0.194976,-0.04187 0.292969,-0.06641 l 0.0059,-0.002 c 0.08909,-0.01979 0.157515,-0.03952 0.201172,-0.05078 l 0.0078,-0.002 0.294922,-0.08398 0.21289,-0.06641 0.291016,-0.09961 0.205078,-0.07422 0.0078,-0.0039 c 0.103844,-0.0403 0.211938,-0.08414 0.316407,-0.130859 l 0.177734,-0.07617 0.0078,-0.0039 c 0.116521,-0.05387 0.219474,-0.107706 0.316406,-0.15625 1.541318,2.934859 2.711508,4.930795 3.425781,5.859375 0.397764,0.517107 0.704577,0.827685 0.986328,1.035156 0.279483,0.205801 0.588932,0.299626 0.683594,0.322266 6.3e-4,1.54e-4 0.0013,-1.53e-4 0.002,0 5.41e-4,1.29e-4 0.0034,0.0018 0.0039,0.002 0.07433,0.01792 0.148261,0.0316 0.222657,0.04102 l 0.04687,0.0059 h 0.05469 c 0.04883,0.0038 0.09713,0.0095 0.146484,0.0098 h 0.0039 0.0957 l -0.07227,-0.0039 c 0.06713,0.0064 0.136001,0.0064 0.203125,0 l -0.07227,0.0039 h 0.07813 l 0.0625,-0.0098 h 0.03711 l 0.169922,-0.03711 0.01953,-0.0039 c 0.212339,-0.05704 0.416664,-0.141982 0.607422,-0.251953 l -0.07617,0.04492 h 0.03125 l 0.08594,-0.05664 h 0.01563 l 0.191406,-0.130859 c 0.03175,-0.02172 0.08226,-0.05623 0.140625,-0.103516 0.209523,-0.162363 0.408909,-0.339274 0.59375,-0.529296 l 0.01367,-0.01367 0.01367,-0.01758 0.08984,-0.0918 0.03516,-0.03906 L 84.972656,37 l 0.0078,-0.0078 0.0039,-0.002 0.121094,-0.140625 0.04492,-0.05078 0.09766,-0.119141 -0.0293,0.0332 c 0.03655,-0.03934 0.07066,-0.08056 0.101562,-0.123047 l -0.02539,0.0332 0.09961,-0.121094 0.04102,-0.05469 0.302734,-0.388672 0.02148,-0.07031 0.01172,-0.01367 0.05859,-0.08203 0.01367,-0.01758 c 0.03026,-0.03987 0.05581,-0.07695 0.07813,-0.109375 l 0.01367,-0.01953 0.07617,-0.101563 0.08398,-0.11914 0.08984,-0.13086 0.07813,-0.111328 0.101562,-0.152344 0.07422,-0.111328 0.111328,-0.166015 0.07227,-0.113282 0.113281,-0.173828 0.01172,-0.01758 c 0.02513,-0.03735 0.04675,-0.07244 0.0625,-0.09766 l 0.0039,-0.0059 0.189453,-0.296875 v -0.002 c 0.326838,-0.51967 0.576181,-0.967281 0.855469,-1.447265 l 0.05273,0.06445 0.13086,0.160156 0.0918,0.107422 0.136718,0.154297 0.08789,0.09961 0.144531,0.154297 -0.02148,-0.02539 c 0.047,0.05477 0.08696,0.09487 0.113281,0.121094 0.06712,0.07201 0.135966,0.141979 0.208984,0.208985 l 0.002,0.002 c 6.83e-4,6.26e-4 0.0013,0.0013 0.002,0.002 0.07757,0.07745 0.159204,0.155153 0.251953,0.232422 l 0.04687,0.04492 0.134765,0.123046 c 0.02678,0.02493 0.06506,0.06076 0.121094,0.105469 l -0.03125,-0.02539 0.128906,0.113281 0.09375,0.08008 0.125,0.101562 0.08789,0.07227 0.125,0.09766 0.08398,0.06641 0.07617,0.05664 c 0.326302,7.196283 -1.409447,16.306715 -4.986328,25.71875 l 1.402344,0.533203 c 3.688067,-9.704607 5.49826,-19.125585 5.085937,-26.679687 l -0.03516,-0.675781 c 0.0664,0.04543 0.114157,0.11223 0.181641,0.15625 l 0.0098,0.0059 1.345704,0.814453 -0.117188,-1.458984 C 92.358517,25.943602 90.719548,22.356944 88.263672,20.447266 h 0.365234 c 2.718293,2.312703 4.192269,6.650648 4.626953,14.25 0.001,0.01796 -0.0024,0.03449 -0.0098,0.05078 -0.0075,0.0166 -0.01731,0.03199 -0.03125,0.04297 -0.01403,0.01105 -0.03122,0.01814 -0.04883,0.02148 -0.01722,0.0033 -0.03531,0.0033 -0.05273,-0.002 l -0.01172,-0.0039 -0.0098,-0.0039 c 0.06563,0.01761 -0.07804,-0.02294 -0.240235,-0.08789 l -1.060546,-0.425782 0.0332,1.142579 C 92.03662,42.816476 90.278555,51.683824 86.679687,61.152344 82.582535,71.926571 75.259272,80.52121 66.675781,84.736328 v 0.002 h -0.002 c -2.005495,0.993243 -4.213222,1.509883 -6.451172,1.511719 -1.985433,-0.007 -3.950297,-0.396805 -5.787109,-1.150391 l -0.002,-0.002 h -0.002 c -2.210818,-0.897265 -4.201925,-2.257153 -5.841797,-3.990234 l -0.302735,-0.320313 -0.425781,0.107422 C 41.618608,82.473659 35.92859,80.561096 34.271343,79.900391 l -0.40039,-0.160157 -0.339844,0.265625 c -0.697965,0.545506 -2.261348,1.541016 -4.185547,1.541016 -0.344536,-8.8e-5 -0.688285,-0.03192 -1.027344,-0.09375 h -0.002 l -0.0039,-0.002 C 27.500902,81.309753 26.739755,80.965654 26.097656,80.449219 25.455745,79.932951 24.954724,79.262426 24.642578,78.5 l -0.216797,-0.529297 -0.566406,0.06836 c -1.363901,0.16494 -4.451538,0.231769 -7.171875,-1.849609 -2.567905,-1.964632 -2.573277,-4.950813 -2.087891,-6.890625 L 14.794922,68.523438 14.007813,68.38086 C 12.451176,68.095 9.5010183,67.204714 7.734375,64.644531 H 7.732425 C 6.3001206,62.572896 6.632649,60.296385 6.9550781,59.126953 L 7.125,58.509766 6.5429687,58.244141 C 5.7502366,57.882995 4.4632259,57.168746 3.4042969,56.041016 2.3453679,54.913285 1.5052282,53.406501 1.5,51.314453 1.4966235,49.938379 1.9718709,49.035862 2.65625,48.359375 3.3406291,47.682888 4.2685169,47.258037 5.1074219,47.042969 L 5.9296875,46.832031 5.6191406,46.041016 C 5.3094265,45.253019 5.1234302,44.292608 5.2695312,43.417969 c 0.1461011,-0.87464 0.5743483,-1.680404 1.6542969,-2.357422 0.9343579,-0.588749 2.2502295,-0.713225 3.5488279,-0.580078 1.298599,0.133146 2.551604,0.510479 3.304688,0.777343 l 0.601562,0.212891 0.306641,-0.560547 c 0.148883,-0.271764 0.316317,-0.533719 0.5,-0.783203 L 15.505859,39.693359 15.193359,39.25 c -0.661058,-0.937168 -1.711317,-2.896458 -0.773437,-5.046875 0.91613,-2.0994 2.850163,-2.579244 4.259765,-2.5625 l 0.652344,0.0078 0.09766,-0.644531 c 0.08834,-0.576487 0.293632,-1.358349 0.722657,-2.050781 0.429024,-0.692432 1.05573,-1.301743 2.101562,-1.636719 2.23425,-0.71835 4.036542,0.252533 5.06836,1.19336 l 0.507812,0.46289 0.505859,-0.464844 c 0.764461,-0.703645 2.156793,-1.684793 3.998047,-1.685546 0.791574,0.0028 1.571793,0.173772 2.292969,0.5 0.721108,0.326236 1.366009,0.799948 1.890625,1.392578 l 0.371094,0.419922 0.507812,-0.236329 c 0.829621,-0.387674 2.412254,-0.947499 4.267578,-0.779296 1.855325,0.168203 4.01006,1.023268 6.144532,3.636718 1.541996,1.88972 2.073643,3.808468 1.964843,5.716797 -0.108827,1.908827 -0.886239,3.817912 -2.058593,5.552735 l -1.013672,1.5 1.777344,-0.341797 c 0.672462,-0.129916 1.363674,-0.123517 2.033203,0.02148 2.561677,0.564119 3.997901,3.193574 4.005859,3.208984 0.01305,0.02522 0.01561,0.05438 0.0078,0.08203 -0.0078,0.02764 -0.0246,0.04983 -0.04883,0.06445 l -0.0039,0.002 -0.0059,0.0039 c 0.02988,-0.01862 -0.676008,0.416935 -1.595703,1.103516 -0.919696,0.686581 -2.117939,1.663909 -3.275391,2.861328 -2.314903,2.394838 -4.555013,5.745548 -3.705078,9.416016 l 0.355469,1.537109 0.966797,-1.246094 c 1.635962,-2.108208 3.774113,-4.170464 6.169921,-6.466797 h 0.002 c 2.985283,-2.87041 6.405675,-6.144738 9.421875,-10.240234 2.304832,-3.12957 4.051761,-7.011292 5.730468,-10.724609 v -0.002 c 0.391721,-0.869614 0.793627,-1.756785 1.197266,-2.623046 l 0.371094,-0.794922 -0.841797,-0.242188 c -0.34284,-0.09893 -0.679849,-0.218442 -1.007813,-0.359375 l -0.002,-0.002 C 68.22835,29.7707 68.20964,29.75077 68.19917,29.72454 v -0.002 c -0.01098,-0.02752 -0.01095,-0.05687 0,-0.08398 1.572301,-3.882533 3.436297,-6.775399 5.535156,-8.69336 0.524262,-0.479076 1.107343,-0.722864 1.660156,-1.083984 z m -43.064453,7.179688 c -1.364082,0 -2.464889,0.563283 -3.214844,1.107421 -0.374977,0.27207 -0.666353,0.54261 -0.86914,0.75 -0.101394,0.103696 -0.182169,0.190898 -0.238282,0.25586 -0.05611,0.06496 -0.140097,0.171625 -0.0918,0.111328 l -0.0059,0.0059 -0.0039,0.0078 c -0.01051,0.01379 -0.02346,0.02359 -0.03906,0.03125 -0.01544,0.0076 -0.03176,0.01183 -0.04883,0.01172 -0.01698,-1.15e-4 -0.03416,-0.0042 -0.04883,-0.01172 -0.01511,-0.0077 -0.02891,-0.01949 -0.03906,-0.0332 -0.111528,-0.150539 -0.584846,-0.760587 -1.50586,-1.306641 -0.921013,-0.546054 -2.307285,-0.957953 -3.904297,-0.445312 -1.394214,0.446916 -2.112481,1.581053 -2.43164,2.511718 -0.15958,0.465333 -0.232493,0.891628 -0.269531,1.210938 -0.01852,0.159655 -0.02891,0.293879 -0.0332,0.390625 -0.0043,0.09675 -0.0039,0.222975 -0.0039,0.164062 v 0.0078 0.0078 c 3.33e-4,0.01642 -0.003,0.03189 -0.0098,0.04687 -0.0066,0.01458 -0.017,0.02838 -0.0293,0.03906 -0.01249,0.01055 -0.02703,0.01926 -0.04297,0.02344 -0.0154,0.0041 -0.03197,0.0052 -0.04883,0.002 l 0.03906,0.0078 c -0.117818,-0.02897 -0.139901,-0.02733 -0.25,-0.04102 -0.110098,-0.01369 -0.253443,-0.02654 -0.425781,-0.0332 -0.344675,-0.01333 -0.800529,-1.33e-4 -1.304687,0.105469 -1.008318,0.211204 -2.252415,0.858125 -2.886719,2.3125 l -0.002,0.002 c -0.611967,1.4036 -0.308107,2.772267 0.11914,3.726563 0.213624,0.477147 0.457744,0.863772 0.654297,1.138671 0.09828,0.13745 0.185507,0.246044 0.25,0.324219 0.03225,0.03909 0.05763,0.07039 0.07813,0.09375 0.0141,0.01607 0.02521,0.02824 0.04102,0.04492 0.02019,0.02175 0.02996,0.05038 0.0293,0.08008 -6.62e-4,0.02971 -0.01194,0.05717 -0.0332,0.07813 l -0.01563,0.01563 -0.01367,0.01563 c -0.49713,0.549447 -0.896135,1.179975 -1.177735,1.865235 l -0.07422,0.183593 0.01953,0.158203 c -0.31954,0.875733 -0.524723,1.793052 -0.486328,2.726563 0.06863,1.721201 0.775563,2.947302 1.480469,3.710937 0.704905,0.763636 1.362148,1.074484 1.511718,1.140625 l -0.0078,-0.0039 c 0.01942,0.0088 0.03637,0.02358 0.04883,0.04102 0.01219,0.01709 0.0192,0.03609 0.02148,0.05664 6.9e-5,6.23e-4 -5.9e-5,0.0013 0,0.002 0.0011,0.01832 -0.002,0.03809 -0.0098,0.05469 -0.0083,0.01783 -0.02097,0.03187 -0.03711,0.04297 l -0.01172,0.0098 -0.01172,0.0078 c 0.0088,-0.0066 -0.270484,0.197942 -0.56836,0.5 -0.297875,0.302058 -0.666612,0.739971 -1.003906,1.324219 -0.674588,1.168496 -1.203109,2.939782 -0.759765,5.236328 0.415815,2.155729 1.845787,3.556922 3.121093,4.386719 1.275688,0.830045 2.397354,1.126536 2.496094,1.152343 0.01495,0.0039 0.02885,0.01024 0.04102,0.01953 h 0.002 c 0.01209,0.0092 0.02151,0.02161 0.0293,0.03516 0.0075,0.01315 0.01366,0.02717 0.01563,0.04297 0.0015,0.01173 1.7e-5,0.0239 -0.002,0.03516 -0.396488,1.332666 0.0079,3.124877 1.326172,4.507812 1.004761,1.053982 2.974688,2.100096 6.00586,1.378907 h 0.002 v -0.002 c 0.02097,-0.0051 0.04424,-0.0037 0.06445,0.0039 v 0.002 c 0.0205,0.0077 0.03807,0.01927 0.05078,0.03711 3.529663,4.958942 10.877678,8.374214 17.109375,9.679688 L 46.449219,78.455078 45.75,77.064453 c -0.324024,-0.643826 -0.609996,-1.305917 -0.853516,-1.984375 v -0.0039 l -0.002,-0.0039 c -0.527455,-1.422608 -0.85288,-2.912975 -0.96875,-4.425782 l -0.02734,-0.349609 -0.287109,-0.205078 c -0.384481,-0.272632 -0.761647,-0.547492 -1.130859,-0.826172 l -0.332032,-0.251953 -0.0293,0.01172 -1.304688,-1.072266 c -3.667074,-3.011631 -6.517398,-6.299536 -8.529297,-9.802734 -0.544122,-0.946423 -1.031362,-1.92522 -1.458984,-2.929688 l -0.210938,-0.494141 -0.535156,0.03906 c -0.257852,0.0196 -0.511966,0.0293 -0.755859,0.0293 -2.563705,0 -4.253294,-0.953695 -5.347657,-1.910156 -0.547181,-0.478231 -0.938832,-0.95815 -1.191406,-1.316407 -0.126287,-0.179128 -0.2186,-0.328363 -0.277344,-0.429687 -0.05195,-0.08961 -0.05821,-0.102489 -0.07422,-0.134766 -0.01257,-0.02692 -0.01392,-0.0581 -0.0039,-0.08594 0.01,-0.02778 0.02978,-0.04974 0.05664,-0.0625 0.02691,-0.01277 0.05575,-0.01385 0.08398,-0.0039 0.02793,0.0098 0.0496,0.02992 0.0625,0.05664 l 0.002,0.002 0.002,0.0039 c 0.124008,0.251342 2.008164,3.740949 6.859375,3.65625 l 1.035156,-0.01758 -0.337891,-0.976562 c -1.5278,-4.417841 -1.755992,-9.048407 -0.666015,-13.875 v -0.002 -0.0039 c 0.0171,-0.0782 0.04165,-0.168304 0.07031,-0.271484 l 0.119141,-0.427734 -0.31836,-0.308594 c -0.969687,-0.945328 -1.546401,-2.219432 -1.630859,-3.570313 0.0031,-0.02398 0.0081,-0.0489 0.02539,-0.06641 0.0198,-0.02003 0.04597,-0.02993 0.07422,-0.03125 0.02886,7.4e-4 0.0555,0.01076 0.07617,0.03125 h 0.002 c 0.02113,0.02094 0.03287,0.05017 0.0332,0.08008 v 0.02148 l 0.002,0.02344 c 0.07165,1.004932 0.436929,1.966786 1.050781,2.765625 l 0.675781,0.878906 0.564453,-0.955078 c 1.025749,-1.732755 2.850412,-3.063892 4.488282,-3.273437 0.01452,-0.0019 0.02907,-0.0018 0.04297,0.002 h 0.002 c 0.01415,0.0038 0.02734,0.01047 0.03906,0.01953 0.01147,0.0089 0.02004,0.02045 0.02734,0.0332 0.0074,0.01297 0.01176,0.02609 0.01367,0.04102 0.0019,0.01463 0.0018,0.02911 -0.002,0.04297 -0.004,0.01472 -0.01088,0.02789 -0.01953,0.03906 -0.0089,0.01147 -0.02045,0.022 -0.0332,0.0293 -0.01272,0.0073 -0.02655,0.01183 -0.04102,0.01367 -1.070161,0.136923 -2.146595,0.720497 -3.066406,1.578125 -0.919811,0.857628 -1.681324,2.008271 -1.984375,3.351562 -0.387328,1.696048 -0.610387,3.425168 -0.664062,5.164063 l -0.06641,2.162109 1.390625,-1.65625 c 2.271035,-2.704765 6.063122,-3.87673 6.119141,-3.892578 l 0.002,-0.002 h 0.0039 c 0.02847,-0.0083 0.05791,-0.0045 0.08398,0.0098 0.02601,0.01426 0.04628,0.03758 0.05469,0.06641 0.0077,0.02827 0.0042,0.05857 -0.0098,0.08398 -0.01431,0.0261 -0.03778,0.04438 -0.06641,0.05273 -0.09483,0.02712 -0.121757,0.03776 -0.283203,0.09375 -0.163455,0.05669 -0.391646,0.139545 -0.667968,0.251953 -0.552646,0.224817 -1.297063,0.565377 -2.095704,1.039062 -1.597281,0.947372 -3.444034,2.434095 -4.300781,4.667969 l -0.0625,0.167969 0.01758,0.177734 c 0.220646,2.122864 0.722311,4.207839 1.490235,6.199219 l 0.03906,0.105469 0.07031,0.08789 c 0.0091,0.01154 0.0133,0.02524 0.01758,0.03906 v 0.09961 l 0.05664,0.136719 c 0.841165,2.043062 1.92,3.979373 3.214844,5.769531 l 1.076172,1.488281 0.273438,-1.816406 c 0.50495,-3.352345 3.037261,-5.321705 3.173828,-5.425781 0.0216,-0.01098 0.04434,-0.0197 0.06836,-0.01563 0.02883,0.0049 0.05485,0.02158 0.07227,0.04492 0.01755,0.0235 0.02501,0.05101 0.02148,0.08008 -0.0036,0.02932 -0.01821,0.05546 -0.04102,0.07422 L 38.75,54.978516 c -0.220305,0.167458 -3.648219,2.833411 -3.130859,7.380859 l 0.02734,0.230469 0.150391,0.175781 c 2.073343,2.398254 4.409186,4.558288 6.960937,6.439453 l 1.056641,0.779297 0.132813,-1.306641 c 0.171412,-1.679311 0.682537,-3.306298 1.5,-4.783203 l 0.002,-0.0039 v -0.002 c 0.173824,-0.320412 0.364778,-0.640071 0.566406,-0.962891 l 0.199219,-0.316406 -0.134766,-0.349609 c -0.05031,-0.131795 -0.09177,-0.223913 -0.119141,-0.294922 -1.236345,-3.250717 -0.02452,-6.262575 1.896485,-8.800782 1.921001,-2.538206 4.532389,-4.488137 5.783203,-5.335937 l 0.652344,-0.441406 -0.472657,-0.628907 c -0.576952,-0.768609 -1.669514,-1.964843 -3.375,-2.341796 -1.716784,-0.379544 -3.553409,0.250607 -5.380859,1.671875 l -0.03125,0.02539 -0.03125,0.0293 c -0.01137,0.01107 -0.02421,0.01791 -0.03906,0.02344 v 0.002 c -0.01483,0.0055 -0.03034,0.0068 -0.04687,0.0059 -0.0163,-9.77e-4 -0.03118,-0.0046 -0.04492,-0.01172 h -0.002 c -0.0142,-0.0073 -0.02527,-0.01901 -0.03516,-0.03125 h -0.002 c -0.0099,-0.0122 -0.01734,-0.02567 -0.02148,-0.04102 -0.0043,-0.01591 -0.0044,-0.03305 -0.002,-0.04883 0.0026,-0.01553 0.0093,-0.02991 0.01758,-0.04297 0.0085,-0.01338 0.01807,-0.02637 0.03125,-0.03516 l 0.05273,-0.0332 0.04492,-0.04297 c 0.919829,-0.861659 2.766786,-2.770685 3.833984,-5.28125 1.067199,-2.510566 1.274464,-5.735095 -1.158203,-8.714844 -2.409896,-2.950526 -5.082678,-3.696496 -7.121093,-3.587891 -2.034817,0.108414 -3.411774,0.975386 -3.59961,1.097657 -0.02677,0.01725 -0.05848,0.02319 -0.08984,0.01758 -6.08e-4,-1.33e-4 -0.0013,1.42e-4 -0.002,0 -0.01393,-0.0033 -0.02598,-0.0098 -0.03711,-0.01758 -0.012,-0.0084 -0.02186,-0.0194 -0.0293,-0.03125 l -0.01172,-0.01758 -0.01367,-0.01758 c -0.498602,-0.701754 -1.154826,-1.275268 -1.917968,-1.673828 -0.763041,-0.39839 -1.609775,-0.611023 -2.470703,-0.61914 h -0.0039 z m -17.707031,7.240234 0.142578,-0.216797 -0.0918,0.09766 z m 17.703125,-5.738281 c 0.622381,0.0066 1.235228,0.159123 1.787109,0.447265 0.553057,0.28884 1.029229,0.704246 1.390625,1.212891 l -0.02344,-0.03516 c 0.114165,0.18195 0.264257,0.337963 0.439453,0.460937 0.175788,0.123446 0.373072,0.210442 0.582031,0.25586 h 0.002 0.002 c 0.418527,0.08831 0.857087,0.0072 1.216797,-0.22461 h 0.002 l 0.002,-0.002 c 0.02465,-0.01606 1.228601,-0.770327 2.863282,-0.857422 1.634681,-0.08709 3.723807,0.400494 5.878906,3.039063 2.086429,2.555646 1.866678,4.996454 0.939453,7.177734 -0.927224,2.18128 -2.643146,3.990898 -3.478516,4.773438 l 0.09766,-0.07617 c -0.18702,0.124617 -0.346115,0.286946 -0.466797,0.476562 -0.120562,0.189428 -0.200458,0.401467 -0.234375,0.623047 v 0.002 c -0.0338,0.222025 -0.02139,0.447578 0.03711,0.664063 0.05865,0.216858 0.161214,0.418952 0.302735,0.59375 0.141313,0.174959 0.317781,0.319175 0.517578,0.421875 v -0.002 c 0.200058,0.103117 0.418676,0.164311 0.642578,0.177734 0.223014,0.01318 0.447959,-0.02162 0.658203,-0.09961 0.210542,-0.07828 0.403424,-0.198736 0.564453,-0.355469 l -0.0625,0.05469 c 1.617946,-1.258329 2.978506,-1.64668 4.136719,-1.390625 0.863392,0.190831 1.486948,0.720123 1.980469,1.240235 -1.438423,1.025478 -3.612838,2.722596 -5.441407,5.138672 -2.082705,2.751864 -3.550594,6.363529 -2.111328,10.199218 -0.142438,0.23557 -0.287228,0.468296 -0.419922,0.712891 l 0.0039,-0.0039 c -0.701381,1.267179 -1.132563,2.649078 -1.414063,4.064453 -2.017102,-1.580019 -3.903958,-3.318231 -5.59375,-5.246094 -0.285432,-3.594411 2.480799,-5.776104 2.53125,-5.814453 l 0.0098,-0.0078 0.01172,-0.0098 c 0.319998,-0.263242 0.526324,-0.6393 0.576172,-1.050781 0.04988,-0.411528 -0.06055,-0.82806 -0.308593,-1.160157 -0.247979,-0.332258 -0.614669,-0.555875 -1.023438,-0.625 -0.408861,-0.06933 -0.828616,0.02208 -1.171875,0.253907 l -0.01758,0.01172 -0.01563,0.01172 c -0.150315,0.113798 -2.184542,1.785096 -3.228516,4.646484 -0.820667,-1.297957 -1.650907,-2.593725 -2.236328,-4.015625 l 0.01172,0.0625 c -0.04947,-0.250238 -0.134577,-0.494009 -0.292969,-0.695312 l 0.109375,0.193359 c -0.694874,-1.801947 -1.130133,-3.689025 -1.347656,-5.607422 0.705167,-1.678376 2.179474,-2.950463 3.570312,-3.77539 0.717296,-0.425439 1.395881,-0.736602 1.894532,-0.939453 0.249325,-0.101426 0.454643,-0.175686 0.595703,-0.22461 0.14106,-0.04892 0.29138,-0.09244 0.207031,-0.06836 h 0.002 0.002 c 0.409976,-0.119646 0.755646,-0.398939 0.960938,-0.773438 0.205536,-0.374603 0.254151,-0.814887 0.134765,-1.224609 v -0.002 c -0.119587,-0.409774 -0.396893,-0.755595 -0.771484,-0.960938 -0.374527,-0.205494 -0.816433,-0.252503 -1.226562,-0.132812 -0.291162,0.08243 -2.887979,0.913028 -5.275391,2.894531 0.106574,-0.969384 0.155607,-1.946619 0.373047,-2.898437 v -0.002 c 0.223349,-0.990007 0.815784,-1.906093 1.544922,-2.585938 0.729137,-0.679845 1.597185,-1.10427 2.232422,-1.185547 0.21013,-0.02676 0.412018,-0.0941 0.595703,-0.199219 0.183643,-0.105099 0.345075,-0.246529 0.474609,-0.414062 0.129752,-0.167627 0.225666,-0.358816 0.28125,-0.5625 0.05563,-0.204341 0.0697,-0.417187 0.04297,-0.626953 -0.02689,-0.209679 -0.09443,-0.412273 -0.199219,-0.595703 -0.105099,-0.183643 -0.246529,-0.345076 -0.414062,-0.47461 -0.16728,-0.129337 -0.358253,-0.225699 -0.5625,-0.28125 -0.204506,-0.05581 -0.416874,-0.06991 -0.626954,-0.04297 -1.835683,0.234852 -3.447252,1.469554 -4.697265,3.009765 -0.140551,-0.349256 -0.369421,-0.665372 -0.396485,-1.044922 l 0.002,0.04492 C 29.473845,34.689392 29.301266,34.284791 29,33.986328 28.698914,33.687857 28.293087,33.518512 27.869141,33.517578 h -0.0039 -0.0039 c -0.426177,0.003 -0.83484,0.175225 -1.134766,0.478516 -0.299867,0.303232 -0.466713,0.714239 -0.464843,1.140625 v 0.01953 0.01953 c 0.08971,1.567958 0.768378,3.014409 1.804687,4.181641 -0.0015,0.0065 -0.0025,0.01102 -0.0039,0.01758 -1.051961,4.661032 -0.877885,9.19988 0.404297,13.539062 C 25.203792,52.519291 24.005183,50.296132 23.982422,50.25 l 0.002,0.0059 C 23.799479,49.872982 23.469426,49.578855 23.068359,49.4375 22.66739,49.296245 22.225882,49.31777 21.841797,49.5 c -0.38394,0.182437 -0.680216,0.509941 -0.824219,0.910156 -0.143985,0.400167 -0.123192,0.843241 0.05664,1.228516 l 0.0039,0.0078 0.0039,0.0078 c -0.01549,-0.03111 0.05007,0.100341 0.128906,0.236328 0.07884,0.135987 0.193214,0.321951 0.347657,0.541016 0.308885,0.438129 0.775082,1.011866 1.429687,1.583984 1.30921,1.144236 3.392848,2.279297 6.335938,2.279297 0.115354,0 0.238888,-0.01006 0.357422,-0.01367 0.398205,0.88997 0.816632,1.769731 1.302734,2.615234 1.820243,3.16948 4.40462,6.100751 7.46875,8.851563 -0.536895,-0.01597 -1.076592,0.05837 -1.607422,-0.0332 l 0.01172,0.002 c -0.419756,-0.07868 -0.854414,0.01272 -1.207031,0.253906 -0.352341,0.241184 -0.595096,0.613172 -0.673829,1.033203 -0.07894,0.420138 0.01282,0.854564 0.253907,1.207031 0.241239,0.35261 0.613383,0.595136 1.033203,0.673829 h 0.0059 l 0.0059,0.002 c 0.863533,0.146968 1.73735,0.220388 2.613281,0.220703 0.910561,0 1.946028,-0.168343 2.93164,-0.466797 0.228358,0.170133 0.45959,0.339993 0.69336,0.507812 0.149933,1.513086 0.444381,3.010693 0.972656,4.4375 2.02e-4,5.64e-4 -2.02e-4,0.0014 0,0.002 0.08081,0.225072 0.19411,0.436384 0.283203,0.658203 -5.6082,-1.458508 -11.845153,-4.604528 -14.730469,-8.658203 -0.18629,-0.261556 -0.447151,-0.461875 -0.748046,-0.574219 -0.300365,-0.112403 -0.627608,-0.131621 -0.939454,-0.05664 h -0.002 c -2.598301,0.617468 -3.858461,-0.206306 -4.572265,-0.955078 -0.94414,-0.990462 -1.156214,-2.42139 -0.970703,-3.044922 v -0.0039 l 0.002,-0.0059 c 0.05831,-0.207273 0.07528,-0.4236 0.04883,-0.636719 -0.02644,-0.213004 -0.09587,-0.418619 -0.203125,-0.605469 v -0.002 c -0.107015,-0.186251 -0.248809,-0.347939 -0.419922,-0.478516 -0.170337,-0.13017 -0.366925,-0.22507 -0.574219,-0.279297 l -0.002,-0.002 c 0.05216,0.01362 -0.990721,-0.264745 -2.054687,-0.957031 -1.065185,-0.693078 -2.14903,-1.763893 -2.466797,-3.414062 -0.375855,-1.946951 0.06185,-3.29337 0.585937,-4.201172 0.262043,-0.453901 0.549442,-0.794343 0.773438,-1.021485 C 17.72009,51.122468 17.827308,51.048736 17.892578,51 l -0.02344,0.01563 c 0.235644,-0.162017 0.425401,-0.383795 0.546875,-0.642578 v -0.002 c 0.121076,-0.258992 0.170856,-0.545547 0.144531,-0.830078 v -0.002 C 18.53338,49.255109 18.431061,48.981797 18.265625,48.75 18.099886,48.518039 17.876772,48.334587 17.617187,48.216797 l -0.0039,-0.002 -0.0039,-0.002 c 0.05007,0.02214 -0.503181,-0.230018 -1.015625,-0.785157 -0.512444,-0.555138 -1.030117,-1.40301 -1.083984,-2.753906 -0.0338,-0.821841 0.11326,-1.643008 0.429687,-2.402344 l 0.04297,-0.09961 c 0.213723,-0.497782 0.495727,-0.963316 0.859375,-1.365234 l -0.0293,0.03125 c 0.298538,-0.294244 0.471131,-0.694195 0.480469,-1.113282 0.0093,-0.419099 -0.144477,-0.825561 -0.429688,-1.132812 l -0.0098,-0.01172 -0.002,-0.002 c 0.01055,0.01202 0.08811,0.08811 -0.0078,-0.0078 -0.01065,-0.01225 -0.02381,-0.02756 -0.04297,-0.05078 -0.04467,-0.05414 -0.109672,-0.138022 -0.185547,-0.24414 -0.151749,-0.212238 -0.344571,-0.518655 -0.505859,-0.878907 -0.322115,-0.719471 -0.509666,-1.596874 -0.113281,-2.509765 5.68e-4,-0.0013 -5.71e-4,-0.0026 0,-0.0039 l 0.002,-0.002 c 0.424195,-0.972622 1.120278,-1.299091 1.818359,-1.445312 0.349041,-0.07311 0.688504,-0.08392 0.939453,-0.07422 0.125475,0.0049 0.229905,0.01463 0.300782,0.02344 0.07088,0.0088 0.162861,0.03157 0.07422,0.0098 l 0.01953,0.0039 0.01953,0.0039 c 0.235143,0.0446 0.478538,0.03771 0.710937,-0.02344 0.232057,-0.06082 0.447547,-0.173273 0.63086,-0.328125 0.183112,-0.154711 0.328942,-0.347865 0.427734,-0.566406 0.09901,-0.218613 0.147445,-0.457287 0.142578,-0.697266 -4.9e-5,-0.03317 0.0015,-0.02696 0.0039,-0.08203 0.0029,-0.06554 0.0076,-0.163615 0.02148,-0.283203 0.02774,-0.239177 0.08728,-0.566321 0.201172,-0.898438 0.22779,-0.664233 0.617767,-1.297529 1.46875,-1.570312 h 0.002 c 1.151586,-0.369659 2.01828,-0.08666 2.68164,0.306641 0.663361,0.393295 1.105081,0.964994 1.064454,0.910156 0.147892,0.199738 0.340859,0.363487 0.5625,0.476562 0.22293,0.11353 0.469128,0.174096 0.71875,0.175782 0.24953,0.0017 0.496744,-0.05423 0.720703,-0.164063 0.223796,-0.109935 0.419026,-0.270338 0.570312,-0.46875 0.02053,-0.02573 0.01612,-0.01908 0.04687,-0.05469 0.03791,-0.04389 0.09626,-0.108172 0.173828,-0.1875 0.155135,-0.158657 0.386625,-0.372767 0.677735,-0.583985 0.581199,-0.421696 1.384125,-0.818919 2.330078,-0.820312 z m 60.353515,7.703125 c 0.0025,7.59e-4 0.0053,-7.47e-4 0.0078,0 0.0046,0.0013 0.01089,0.0046 0.01563,0.0059 z m -9.902343,0.597656 h 0.0039 0.0078 l -0.0293,0.0039 z M 8.6855469,40.679687 c -0.5810241,0.07407 -1.1398638,0.242463 -1.6425782,0.556641 l -0.00195,0.002 c -1.4288405,0.898827 -1.7230951,2.394918 -1.5507812,3.50586 0.1723139,1.110942 0.6930564,1.974208 0.8027343,2.15625 l 0.00195,0.002 0.00391,0.0039 c 0.010391,0.01685 0.014907,0.03514 0.015625,0.05469 7.214e-4,0.01961 -0.00268,0.03925 -0.011719,0.05664 -0.00907,0.01745 -0.022883,0.03248 -0.039063,0.04297 -0.016452,0.01068 -0.03507,0.01641 -0.054687,0.01758 l -0.00586,0.002 h -0.00586 c -0.2231728,0.01657 -1.2724011,0.09643 -2.3300781,0.652344 -1.057677,0.555914 -2.1464844,1.725241 -2.1464844,3.568359 v 0.002 c 0.00643,2.564988 1.4449351,4.361694 2.8222656,5.449219 1.3773306,1.087525 2.6506398,1.517084 2.7929688,1.564453 h 0.00195 0.00195 c 0.015019,0.0049 0.027667,0.01313 0.039063,0.02344 0.011657,0.01054 0.021058,0.02298 0.027344,0.03711 0.00632,0.01421 0.00974,0.02931 0.00977,0.04492 2.57e-5,0.0154 -0.00343,0.03249 -0.00977,0.04687 L 7.3925781,58.5 7.3808591,58.5332 c -0.011488,0.03439 -1.3872634,3.199208 0.5390625,5.972656 2.4422074,3.531209 7.0985254,3.769532 7.1406254,3.769532 l -0.03906,-0.002 c 0.01784,9.59e-4 0.03546,0.0066 0.05078,0.01563 0.01558,0.0092 0.02785,0.02234 0.03711,0.03711 0.0095,0.0151 0.01613,0.03311 0.01758,0.05078 0.0015,0.01814 -0.003,0.03465 -0.0098,0.05078 l -0.002,0.0059 -0.002,0.0039 c -0.03833,0.09535 -0.512779,1.268166 -0.535156,2.765625 -0.02238,1.497459 0.45038,3.416837 2.248047,4.792969 1.73752,1.330143 3.644269,1.752593 5.105469,1.845703 0.730599,0.04655 1.354905,0.01188 1.802734,-0.03516 0.223914,-0.02352 0.404281,-0.04925 0.53125,-0.07031 0.05418,-0.009 0.09208,-0.01736 0.125,-0.02344 h 0.02148 l 0.08398,-0.01953 c 0.03058,-0.0071 0.06126,-8.54e-4 0.08789,0.01563 0.01146,0.0071 0.0217,0.01667 0.0293,0.02734 0.0077,0.01084 0.01272,0.02214 0.01563,0.03516 l 0.002,0.0098 0.002,0.0078 c 0.03877,0.155425 0.789612,2.89209 3.726563,3.427735 h 0.002 c 1.533044,0.277717 2.881238,-0.157109 3.830078,-0.642578 0.47442,-0.242735 0.853791,-0.499755 1.121094,-0.701172 0.133651,-0.100709 0.239645,-0.187886 0.314453,-0.251953 0.0374,-0.03203 0.06829,-0.05866 0.08984,-0.07813 0.02155,-0.01946 0.08062,-0.07362 0.02734,-0.02539 l 0.0078,-0.0078 0.0078,-0.0078 c 0.01669,-0.01602 0.03943,-0.02533 0.0625,-0.0293 0.02073,-0.0036 0.04077,1e-4 0.06055,0.0078 l 0.0059,0.002 c 0.08707,0.04083 0.134292,0.05993 0.324219,0.136719 0.189926,0.07679 0.460762,0.180833 0.804687,0.300781 0.68785,0.239896 1.664267,0.540771 2.853516,0.796875 2.378497,0.512207 5.610804,0.851664 9.074218,0.148437 l 1.154297,-0.234375 -0.699218,-0.947265 C 47.21631,79.434905 47.038463,79.185708 46.867187,78.9375 l -0.183593,-0.263672 -0.316407,-0.05078 c -6.33677,-1.002444 -14.59012,-4.668242 -18.40625,-9.607422 l -0.279296,-0.361328 -0.449219,0.08203 C 24.025113,69.322343 22.326227,68.018105 21.537109,67.1875 l -0.002,-0.002 -0.002,-0.002 c -1.053192,-1.096617 -1.624812,-2.722727 -1.515625,-4.035157 l 0.04687,-0.564453 -0.53125,-0.199218 c -1.413253,-0.53019 -4.434254,-2.04238 -5.099609,-5.490235 -0.665706,-3.447873 0.705911,-5.536316 1.658203,-6.578125 L 16.638672,49.716797 16,49.21875 c -0.898734,-0.700666 -2.127148,-2.045679 -2.222656,-4.478516 v -0.002 c -0.03363,-0.809346 0.06927,-1.619001 0.302734,-2.394531 l 0.207031,-0.6875 -0.679687,-0.236328 c -0.83708,-0.291131 -1.975288,-0.609419 -3.150391,-0.732422 -0.5875511,-0.0615 -1.1904601,-0.08188 -1.7714841,-0.0078 z m 5.8691411,1.015625 c -0.03758,0.09019 -0.017,0.19369 -0.05078,0.285157 -2.57e-4,-0.0085 -7.7e-5,-0.01691 0,-0.02539 z m -4.253907,0.484375 c 0.801736,0.08392 1.557116,0.312726 2.244141,0.523438 -0.141209,0.69353 -0.295088,1.388573 -0.265625,2.097656 0.101206,2.562172 1.297245,4.120942 2.355469,5.095703 -1.104149,1.394729 -2.359247,3.731281 -1.673828,7.28125 0.758991,3.933076 3.892378,5.65314 5.638671,6.371094 0.01181,1.661731 0.62136,3.390868 1.853516,4.673828 0.987657,1.038406 3.190986,2.48331 6.630859,2.009766 3.861719,4.743235 10.803957,7.982776 16.941407,9.363281 -2.177616,0.117689 -4.240048,-0.0016 -5.837891,-0.345703 -1.118399,-0.240846 -2.03737,-0.52344 -2.675781,-0.746094 -0.319206,-0.111327 -0.567397,-0.207091 -0.736328,-0.27539 -0.154244,-0.06236 -0.260085,-0.110742 -0.228516,-0.0957 3.26e-4,1.56e-4 -0.0023,-0.0021 -0.002,-0.002 l -0.01953,-0.0078 -0.01758,-0.0098 c -0.293529,-0.132525 -0.621772,-0.173519 -0.939453,-0.11914 h -0.002 c -0.317458,0.05488 -0.611267,0.202612 -0.84375,0.425781 0.0025,-0.0022 -0.0064,0.005 -0.01172,0.0098 -0.01259,0.01137 -0.03182,0.02981 -0.05859,0.05273 -0.05354,0.04585 -0.136188,0.113487 -0.242188,0.193359 -0.212,0.159745 -0.520899,0.370289 -0.90039,0.564453 -0.758983,0.38833 -1.772506,0.702736 -2.88086,0.501953 -2.100844,-0.383154 -2.533987,-2.286277 -2.541015,-2.314453 l 0.0059,0.01758 c -0.0465,-0.208378 -0.135883,-0.406115 -0.259766,-0.580078 -0.123669,-0.173408 -0.280005,-0.319777 -0.460937,-0.43164 -0.363168,-0.224721 -0.800981,-0.29786 -1.216797,-0.201172 -0.0062,0.0012 -0.0122,5.86e-4 -0.01953,0.002 -0.0281,0.0052 -0.06608,0.013 -0.117188,0.02148 -0.102224,0.01696 -0.253201,0.03862 -0.443359,0.05859 -0.380317,0.03994 -0.920192,0.07131 -1.548828,0.03125 -1.257273,-0.08012 -2.851186,-0.438308 -4.289063,-1.539062 -1.37773,-1.054666 -1.677979,-2.389268 -1.660156,-3.582032 0.01782,-1.192763 0.395268,-2.145808 0.427734,-2.226562 l -0.0039,0.0098 c 0.09985,-0.238469 0.14025,-0.497044 0.119141,-0.753906 -0.02115,-0.257324 -0.102915,-0.505909 -0.240235,-0.724609 -0.137338,-0.219029 -0.326613,-0.402379 -0.548828,-0.533203 -0.222479,-0.130981 -0.472709,-0.206861 -0.730468,-0.220703 h -0.01953 -0.02148 c -0.0421,0 -3.963415,-0.311062 -5.9082032,-3.123047 -1.414013,-2.034356 -0.3591463,-4.610132 -0.3476563,-4.644532 l -0.025391,0.06445 C 8.8699164,58.866652 8.91639,58.644717 8.9160156,58.419922 8.9156416,58.195137 8.868739,57.972965 8.7773438,57.767578 8.6859297,57.562107 8.5513883,57.377222 8.3847656,57.226562 8.2183246,57.07605 8.0231625,56.962874 7.8105469,56.892578 h -0.00195 C 7.8974596,56.922141 6.6302434,56.49019 5.4726562,55.576172 4.3147473,54.6619 3.2265241,53.314893 3.2207031,51.300781 v -0.002 c 7.551e-4,-1.301835 0.6094096,-1.853239 1.3457031,-2.240234 0.7367512,-0.387236 1.5787207,-0.470288 1.7421875,-0.482422 H 6.296875 c 0.2784817,-0.01663 0.5491356,-0.105891 0.7832031,-0.257813 0.2343205,-0.15191 0.4241037,-0.361828 0.5527344,-0.609375 0.1286604,-0.247603 0.1918992,-0.52394 0.1816406,-0.802734 -0.010242,-0.278853 -0.093846,-0.549757 -0.2402344,-0.787109 l 0.00391,0.0059 C 7.4963931,45.989342 7.0903246,45.274256 6.9726562,44.515625 6.8551177,43.757831 6.9115656,43.093867 7.8378906,42.509766 8.3637503,42.181123 9.2953137,42.074441 10.300781,42.179687 Z m 13.855469,34.052735 0.169922,-0.01953 c -2.99e-4,0 -0.09019,0.006 -0.103516,0.0078 -0.01333,0.0018 -0.01987,0.003 -0.02539,0.0039 -0.01105,0.0019 -0.01752,0.0028 -0.02344,0.0039 -0.0057,10e-4 -0.0119,0.0028 -0.01758,0.0039 z m 17.828125,-7.15625 -0.226563,0.08789 c -0.848602,0.327923 -1.921036,0.443207 -2.867187,0.44336 -0.787914,-2.84e-4 -1.574896,-0.06575 -2.351563,-0.197266 -9.41e-4,-1.76e-4 -0.001,-0.0018 -0.002,-0.002 -0.02818,-0.006 -0.05194,-0.02093 -0.06836,-0.04492 -0.01692,-0.02473 -0.02304,-0.05492 -0.01758,-0.08398 0.0055,-0.02917 0.02202,-0.0533 0.04687,-0.07031 0.02426,-0.01598 0.05324,-0.02297 0.08203,-0.01758 h 0.0059 l 0.0059,0.002 c 1.269494,0.218996 2.563968,0.245834 3.841797,0.08203 z M 88.951948,19.69659 c 2.36,-6.0657 0.9857,-11.3427 -1.6825,-13.5018 -1.5714,-1.2709 -3.4625,-1.35708 -5.057,-0.2182 -2.6586,1.8796 -1.9868,4.1114 -1.3953,6.081 0.511,1.6997 0.9972,3.3113 -0.0593,5.1813 -5.6082,0.157 -10.0527,4.211 -13.2549,12.1199 -0.0832,0.2061 -0.0836,0.4363 -0.0012,0.6428 0.0823,0.2064 0.2411,0.3731 0.4433,0.4654 0.3613,0.156 0.7321,0.289 1.1102,0.3981 -0.4058,0.8709 -0.8097,1.761 -1.202,2.6319 -1.6787,3.7133 -3.4147,7.5529 -5.6504,10.5886 -2.9687,4.031 -6.3527,7.2734 -9.3387,10.1445 -2.3964,2.2969 -4.5593,4.3775 -6.2436,6.548 -1.5198,-6.5633 8.1424,-12.5122 8.2438,-12.5754 0.1872,-0.113 0.3243,-0.293 0.3837,-0.5034 0.0593,-0.2104 0.0365,-0.4355 -0.064,-0.6297 -0.0613,-0.1187 -1.5562,-2.9458 -4.5115,-3.5965 -0.7692,-0.1669 -1.5642,-0.1761 -2.337,-0.0268 2.4576,-3.6367 3.3534,-8.1233 0.0536,-12.1658 -4.4866,-5.4934 -9.4957,-3.9104 -11.3102,-3.0625 -0.5947,-0.6718 -1.3247,-1.2102 -2.1421,-1.58 -0.8175,-0.3698 -1.7038,-0.5625 -2.601,-0.5657 -2.1055,0 -3.6654,1.1083 -4.5076,1.8835 -1.1714,-1.0681 -3.2673,-2.1687 -5.8034,-1.3533 -2.4443,0.7829 -3.1391,3.0013 -3.3362,4.2875 -1.6079,-0.0191 -3.899,0.5915 -4.9556,3.0128 -1.0852,2.4882 0.1149,4.7411 0.848,5.7804 -0.2035,0.2764 -0.3883,0.5661 -0.5532,0.8671 -1.5772,-0.5589 -5.2004999,-1.5753 -7.5031099,-0.1244 -2.48828,1.5599 -2.29687,4.1267 -1.60398,5.8896 -1.87387,0.4804 -4.17840001,1.8796 -4.17074001,5.0014 0.01148,4.5937 3.78027001,6.8351 5.48187001,7.6103 -0.3541,1.2843 -0.72352,3.8186 0.8843,6.1441 1.93896,2.8099 5.0990599,3.742 6.7566599,4.0464 -0.5321,2.1265 -0.5015,5.4799 2.3581,7.6677 2.9419,2.251 6.2456,2.1763 7.7175,1.9983 0.3602,0.8798 0.9377,1.6539 1.6785,2.2497 0.7409,0.5959 1.6207,0.9941 2.5573,1.1573 0.3833,0.0699 0.7722,0.1052 1.1619,0.1053 2.1762,0 3.8759,-1.0968 4.6473,-1.6997 1.738,0.6929 7.5663,2.6663 14.0511,1.0259 1.7136,1.811 3.7957,3.2332 6.1059,4.1708 1.9263,0.7903 3.9873,1.2005 6.0695,1.2078 2.3546,-0.0013 4.6772,-0.5456 6.7872,-1.5906 8.7932,-4.3181 16.2179,-13.0635 20.3733,-23.9909 3.6252,-9.5378 5.4092,-18.4879 5.1929,-26.0083 0.1818,0.0728 0.2947,0.1091 0.3234,0.1168 0.1326,0.0399 0.2728,0.0473 0.4087,0.0215 0.136,-0.0258 0.2638,-0.084 0.3725,-0.1696 0.1087,-0.0856 0.1952,-0.1962 0.2522,-0.3224 0.0569,-0.1261 0.0826,-0.2641 0.0749,-0.4023 -0.4479,-7.8304 -1.9658,-12.472 -5.0512,-14.9584 z m -5.7403,-12.3227 c 1.2269,-0.869 2.2969,-0.3829 2.9802,0.1607 2.0787,1.6806 3.1486,6.0963 1.2881,11.1973 -0.4835,-0.2528 -0.9858,-0.4678 -1.5025,-0.6431 -1.0848,-0.3714 -2.2055,-0.628 -3.3439,-0.7656 0.9111,-2.1955 0.3235,-4.1478 -0.1627,-5.7652 -0.6125,-2.0366 -0.8364,-3.0625 0.7408,-4.1784 z m -8.0123,13.5955 c 1.7034,-1.3374 3.8142,-2.0495 5.9796,-2.0174 h 0.1014 c 1.4133,0.0438 2.8112,0.3066 4.1439,0.779 0.674,0.2225 1.3171,0.5293 1.9141,0.913 0.0585,0.0491 0.1228,0.0909 0.1914,0.1245 2.3888,1.6633 4.0636,5.0071 4.6627,12.5218 l -0.0823,-0.0498 c -1.5361,-1.002 -2.7734,-2.3999 -3.5812,-4.0463 -0.0724,-0.1409 -0.1821,-0.2592 -0.3171,-0.3419 -0.135,-0.0827 -0.2902,-0.1267 -0.4486,-0.1271 -0.1577,-10e-5 -0.3125,0.043 -0.4475,0.1247 -0.135,0.0816 -0.245,0.1987 -0.3181,0.3385 -0.3656,0.7006 -0.7656,1.4222 -1.1714,2.1227 -0.1034,0.1761 -0.2048,0.3484 -0.3082,0.5206 -0.0497,0.0862 -0.1014,0.1704 -0.1531,0.2546 -1.0738,1.7763 -2.1342,3.2807 -2.7103,3.7037 -0.5398,-0.5953 -1.6384,-2.427 -2.7697,-4.498 -0.5129,-0.9417 -1.0335,-1.9332 -1.5101,-2.8711 -0.0572,-0.1127 -0.1382,-0.2116 -0.2373,-0.2899 -0.0992,-0.0783 -0.2141,-0.1342 -0.337,-0.1637 -0.0629,-0.0133 -0.1271,-0.0197 -0.1914,-0.0192 -0.0429,3e-4 -0.0857,0.0035 -0.1282,0.0096 h -0.0287 c -0.0841,0.0152 -0.1654,0.043 -0.2412,0.0823 l -0.0249,0.0153 c -0.0382,0.0207 -0.0746,0.0444 -0.1091,0.0708 -2.2318,1.7514 -4.8349,1.6786 -6.6246,1.3092 -0.3828,-0.0804 -0.7311,-0.1741 -1.0106,-0.2603 1.6519,-3.8377 3.5372,-6.5327 5.7518,-8.217 z m -59.8891,13.6109 c 1.0585,-2.427 3.8837,-1.9427 4.0004,-1.914 0.126,0.0239 0.2557,0.0195 0.3796,-0.0131 0.124,-0.0325 0.2392,-0.0923 0.3371,-0.175 0.098,-0.0828 0.1762,-0.1863 0.229,-0.3031 0.0529,-0.1168 0.079,-0.2439 0.0764,-0.3721 0,-0.0287 -0.0287,-2.8443 2.2165,-3.564 2.7486,-0.8823 4.5076,1.3897 4.5785,1.4854 0.0793,0.1071 0.1824,0.1943 0.3013,0.2547 0.1188,0.0605 0.2501,0.0924 0.3834,0.0933 0.1333,9e-4 0.265,-0.0292 0.3847,-0.0879 0.1197,-0.0587 0.224,-0.1445 0.3049,-0.2506 0.0153,-0.0191 1.5159,-1.9427 3.8281,-1.9427 0.7424,0.007 1.4725,0.1899 2.1306,0.5335 0.6581,0.3437 1.2254,0.8385 1.6554,1.4437 0.0608,0.0969 0.1405,0.1807 0.2341,0.2464 0.0937,0.0658 0.1996,0.1121 0.3114,0.1364 0.2256,0.0476 0.4608,0.0043 0.6546,-0.1206 0.2086,-0.1359 5.168,-3.2539 9.733,2.3352 4.5191,5.5354 -0.8517,11.3293 -2.6069,12.9735 -0.1001,0.0667 -0.1852,0.1536 -0.2498,0.2551 -0.0646,0.1015 -0.1073,0.2153 -0.1255,0.3342 -0.0181,0.1189 -0.0112,0.2403 0.0202,0.3565 0.0314,0.1161 0.0867,0.2244 0.1624,0.3179 0.0756,0.0936 0.1699,0.1703 0.2769,0.2253 0.1069,0.0551 0.2242,0.0872 0.3443,0.0944 0.1201,0.0071 0.2403,-0.0108 0.3531,-0.0528 0.1127,-0.0419 0.2155,-0.1069 0.3017,-0.1908 1.7227,-1.3398 3.3209,-1.849 4.7584,-1.5312 1.4374,0.3177 2.4117,1.3609 2.9362,2.0595 -2.5783,1.7475 -10.6614,7.9223 -7.9606,15.0235 0.0382,0.0995 0.0804,0.1914 0.1206,0.2967 -0.2068,0.3311 -0.4058,0.6641 -0.5896,1.0029 -0.8665,1.5655 -1.407,3.2903 -1.5887,5.0704 -2.5069,-1.8481 -4.8001,-3.9699 -6.837,-6.326 -0.4708,-4.1382 2.7027,-6.5959 2.8386,-6.6992 0.1714,-0.141 0.2819,-0.3425 0.3086,-0.5629 0.0267,-0.2203 -0.0325,-0.4424 -0.1653,-0.6202 -0.1327,-0.1778 -0.3289,-0.2977 -0.5477,-0.3347 -0.2188,-0.0371 -0.4434,0.0116 -0.6273,0.1358 -0.1416,0.1072 -2.9247,2.2357 -3.4817,5.9336 -1.2603,-1.7424 -2.3108,-3.6273 -3.1295,-5.6158 0,-0.0115 0,-0.023 0,-0.0345 -0.021,-0.153 -0.0824,-0.2977 -0.178,-0.4192 -0.7441,-1.9296 -1.2294,-3.9493 -1.4432,-6.0063 1.5313,-3.9927 6.8026,-5.5852 6.8562,-5.6005 0.2193,-0.064 0.4042,-0.2125 0.514,-0.4128 0.1099,-0.2003 0.1356,-0.436 0.0717,-0.6553 -0.064,-0.2193 -0.2124,-0.4042 -0.4127,-0.514 -0.2003,-0.1099 -0.4361,-0.1357 -0.6554,-0.0717 -0.2029,0.0574 -4.0329,1.2078 -6.4886,4.1325 0.0522,-1.6911 0.2682,-3.3731 0.645,-5.0225 0.5264,-2.3333 2.7084,-4.1325 4.4138,-4.3507 0.1123,-0.0143 0.2206,-0.0506 0.3188,-0.1068 0.0982,-0.0562 0.1844,-0.1312 0.2536,-0.2207 0.0692,-0.0894 0.1201,-0.1917 0.1499,-0.3009 0.0297,-0.1091 0.0376,-0.2231 0.0233,-0.3353 -0.0144,-0.1123 -0.0507,-0.2206 -0.1068,-0.3188 -0.0562,-0.0982 -0.1312,-0.1843 -0.2207,-0.2536 -0.0895,-0.0692 -0.1917,-0.1201 -0.3009,-0.1498 -0.1092,-0.0298 -0.2231,-0.0377 -0.3354,-0.0233 -1.9447,0.2488 -3.9066,1.7226 -5.0397,3.6367 -0.5243,-0.6823 -0.8365,-1.5037 -0.8977,-2.362 -0.0025,-0.2269 -0.0943,-0.4438 -0.2555,-0.6035 -0.1612,-0.1598 -0.3788,-0.2497 -0.6058,-0.2502 -0.2281,0.0016 -0.4463,0.0935 -0.6067,0.2557 -0.1604,0.1622 -0.2499,0.3814 -0.2489,0.6095 0.0886,1.5485 0.7537,3.0077 1.8643,4.0904 -0.0287,0.1033 -0.0574,0.2067 -0.0804,0.3119 -1.1178,4.9498 -0.8843,9.735 0.6891,14.2847 -4.4962,0.0785 -6.1002,-3.0874 -6.1748,-3.2386 -0.0989,-0.2048 -0.2748,-0.3622 -0.4893,-0.4378 -0.2146,-0.0756 -0.4503,-0.0633 -0.6558,0.0342 -0.2054,0.0976 -0.364,0.2725 -0.441,0.4865 -0.077,0.214 -0.0662,0.4498 0.03,0.6559 0.0229,0.046 2.0652,4.2244 7.572,4.2244 0.2622,0 0.534,-0.0096 0.8116,-0.0307 0.4393,1.0319 0.9397,2.0366 1.4987,3.0089 2.0633,3.5927 4.9765,6.9481 8.7032,10.0087 -1.2037,0.1543 -2.4236,0.1278 -3.6195,-0.0785 -0.2246,-0.0421 -0.4568,0.0067 -0.6454,0.1357 -0.1886,0.1291 -0.3183,0.3278 -0.3604,0.5524 -0.0422,0.2246 0.0067,0.4568 0.1357,0.6454 0.1291,0.1887 0.3278,0.3183 0.5524,0.3604 0.822,0.1399 1.6544,0.2103 2.4883,0.2106 1.0029,0 2.1533,-0.1129 3.139,-0.4938 0.3752,0.2832 0.758,0.5633 1.1485,0.8402 0.1212,1.5824 0.4627,3.1402 1.0144,4.6282 0.2538,0.7071 0.5504,1.3981 0.8881,2.0691 -6.0848,-1.2747 -13.3199,-4.6971 -16.6523,-9.3789 -0.0995,-0.1397 -0.2385,-0.2464 -0.3992,-0.3064 -0.1606,-0.0601 -0.3356,-0.0707 -0.5023,-0.0304 -2.8156,0.6699 -4.4311,-0.2642 -5.2905,-1.1657 -1.1312,-1.1867 -1.4394,-2.7984 -1.1484,-3.7765 0.0312,-0.1109 0.0399,-0.227 0.0257,-0.3414 -0.0142,-0.1144 -0.051,-0.2249 -0.1084,-0.3249 -0.0574,-0.0999 -0.1342,-0.1875 -0.2258,-0.2574 -0.0916,-0.07 -0.1963,-0.121 -0.3079,-0.15 -0.044,-0.0115 -4.3372,-1.1485 -5.0703,-4.9555 -0.8192,-4.2435 1.9313,-6.2322 2.0442,-6.3165 0.1261,-0.0867 0.2268,-0.2055 0.2917,-0.3441 0.065,-0.1386 0.0918,-0.292 0.0777,-0.4444 -0.0146,-0.1526 -0.0692,-0.2985 -0.1582,-0.4232 -0.0891,-0.1247 -0.2095,-0.2237 -0.349,-0.287 -0.0995,-0.044 -2.4232,-1.1235 -2.5457,-4.1956 -0.0383,-0.9312 0.1277,-1.8596 0.4862,-2.7199 v -0.0134 c 8e-4,-0.0063 8e-4,-0.0128 0,-0.0191 0.2487,-0.6052 0.6003,-1.1628 1.0393,-1.648 0.1599,-0.1576 0.2521,-0.3712 0.2571,-0.5956 0.005,-0.2244 -0.0776,-0.4419 -0.2303,-0.6064 -0.0211,-0.0211 -2.0155,-2.2012 -1.0049,-4.5191 z m 18.888,44.2168 c -0.1577,-0.0712 -0.3332,-0.0936 -0.5037,-0.0642 -0.1706,0.0293 -0.3285,0.109 -0.4533,0.2288 -0.0211,0.0191 -2.1055,1.9964 -4.7469,1.5179 -2.5189,-0.4594 -3.1104,-2.7793 -3.1333,-2.8711 -0.0247,-0.1107 -0.0713,-0.2153 -0.1371,-0.3077 -0.0657,-0.0923 -0.1493,-0.1706 -0.2457,-0.2302 -0.1949,-0.1206 -0.4295,-0.1591 -0.6527,-0.1072 -0.0383,0 -3.8684,0.869 -7.0438,-1.5619 -3.1754,-2.4308 -1.5427,-6.5078 -1.4719,-6.6839 0.0533,-0.1273 0.0751,-0.2655 0.0638,-0.403 -0.0113,-0.1375 -0.0555,-0.2703 -0.1289,-0.3872 -0.0733,-0.1169 -0.1737,-0.2144 -0.2926,-0.2844 -0.1189,-0.07 -0.2529,-0.1104 -0.3907,-0.1178 -0.0421,0 -4.3315,-0.2737 -6.5249999,-3.4453 -1.67101,-2.4041 -0.45558,-5.2752 -0.44409,-5.3096 0.04848,-0.11 0.07343,-0.2289 0.07323,-0.349 -2e-4,-0.1202 -0.02554,-0.239 -0.0744,-0.3488 -0.04885,-0.1098 -0.12013,-0.2081 -0.20927,-0.2887 -0.08913,-0.0806 -0.19414,-0.1416 -0.30827,-0.1792 -0.05168,-0.0172 -5.09141,-1.7227 -5.10289,-6.303 0,-3.1467 3.39554,-3.4453 3.78218,-3.474 0.14905,-0.0089 0.29324,-0.0563 0.4185,-0.1376 0.12525,-0.0812 0.22729,-0.1936 0.29614,-0.3261 0.06885,-0.1325 0.10215,-0.2806 0.09666,-0.4298 -0.00548,-0.1492 -0.04958,-0.2944 -0.12797,-0.4215 -0.19141,-0.3177 -1.85473,-3.1563 0.50339,-4.6397 1.53129,-0.957 4.3314899,-0.2986 5.9220899,0.2546 -0.2576,0.8557 -0.3701,1.7485 -0.333,2.6414 0.1052,2.6797 1.4929,4.2492 2.5093,5.0416 -1.0585,1.158 -2.5553,3.5277 -1.8413,7.2256 0.7369,3.8186 4.0482,5.4781 5.5737,6.0504 -0.1301,1.5638 0.5149,3.3591 1.7227,4.6167 0.9092,0.957 2.917,2.4021 6.3738,1.7705 4.0195,5.2024 12.3725,8.8602 18.8822,9.89 0.1761,0.2552 0.3586,0.5104 0.5475,0.7656 -6.6552,1.3513 -12.5276,-1.2978 -12.5888,-1.3265 z m 51.5782,-17.9864 c -4.0004,10.5273 -11.1149,18.9262 -19.5234,23.0587 -3.5716,1.7571 -7.639,1.8738 -11.4499,0.3292 -2.0781,-0.8549 -3.9525,-2.1387 -5.5007,-3.7673 -1.5482,-1.6287 -2.7353,-3.5656 -3.4839,-5.6844 -1.7227,-4.8004 -0.9456,-8.3357 1.2403,-11.6432 0.0119,-0.0152 0.0228,-0.0312 0.0325,-0.0479 1.671,-2.5093 4.1516,-4.8904 6.9691,-7.593 3.0357,-2.9113 6.4772,-6.2131 9.534,-10.3647 2.3428,-3.1812 4.1171,-7.105 5.8321,-10.9006 0.4632,-1.0221 0.9034,-1.9983 1.3533,-2.9553 h 0.0478 l 0.1397,0.0192 0.2431,0.0306 0.1512,0.0153 c 0.0823,0 0.1646,0.0172 0.2489,0.023 l 0.155,0.0114 0.2584,0.0134 h 0.155 0.2776 0.1474 c 0.1033,0 0.2086,0 0.3139,0 h 0.1167 c 0.2929,-0.0153 0.5876,-0.0421 0.8881,-0.0842 l 0.1283,-0.021 c 0.1072,-0.0173 0.2125,-0.0345 0.3216,-0.0555 l 0.1626,-0.0345 c 0.0977,-0.0191 0.1914,-0.0402 0.2891,-0.0651 0.0612,-0.0134 0.1206,-0.0306 0.1799,-0.0459 l 0.2775,-0.0785 0.1914,-0.0593 0.2757,-0.0957 0.1914,-0.0689 c 0.0938,-0.0364 0.1914,-0.0766 0.2813,-0.1168 l 0.1761,-0.0766 c 0.1034,-0.0478 0.2048,-0.0995 0.3082,-0.1512 0.0498,-0.0248 0.0995,-0.0478 0.1474,-0.0746 0.1505,-0.0804 0.3018,-0.1665 0.4536,-0.2584 3.6865,7.1873 4.6301,7.4112 4.9957,7.4974 0.0479,0.0117 0.0965,0.0206 0.1455,0.0268 h 0.0095 c 0.0496,0.006 0.0994,0.0092 0.1493,0.0095 h 0.0938 c 0.0198,0.0019 0.0396,0.0019 0.0594,0 h 0.021 l 0.0632,-0.0095 h 0.0153 l 0.0727,-0.0153 c 0.1515,-0.0407 0.297,-0.1012 0.4326,-0.18 l 0.0861,-0.0516 h 0.0115 l 0.0862,-0.0575 h 0.0114 c 0.0307,-0.021 0.0613,-0.0421 0.0919,-0.067 0.1864,-0.1435 0.3623,-0.3002 0.5264,-0.4689 l 0.0134,-0.0153 0.0976,-0.1015 0.0287,-0.0306 0.0919,-0.1014 c 0.0111,-0.0137 0.0233,-0.0265 0.0364,-0.0383 l 0.0918,-0.1072 0.0402,-0.0459 0.0919,-0.1111 c 0.0157,-0.0169 0.0304,-0.0348 0.044,-0.0535 l 0.0957,-0.1168 0.0364,-0.0459 0.2182,-0.2814 0.0191,-0.0593 0.0823,-0.113 0.0728,-0.0995 c 0.0268,-0.0345 0.0536,-0.0727 0.0785,-0.1091 l 0.0842,-0.1148 0.0765,-0.1092 0.09,-0.132 0.0766,-0.1091 0.0976,-0.1455 0.0746,-0.111 0.1072,-0.1608 0.0708,-0.1091 0.1244,-0.1914 c 0.0211,-0.0306 0.0402,-0.0612 0.0594,-0.0919 l 0.1914,-0.3005 c 0.5417,-0.8613 1.0412,-1.7226 1.4221,-2.406 0.067,0.0996 0.1359,0.1915 0.2029,0.2929 l 0.067,0.0919 0.1378,0.1914 0.0804,0.1053 c 0.0421,0.0555 0.0862,0.109 0.1283,0.1626 l 0.0842,0.1034 0.1263,0.1531 0.0842,0.0996 0.1283,0.1454 0.0823,0.0919 0.1378,0.1474 c 0.023,0.0268 0.0478,0.0517 0.0727,0.0765 0.0613,0.067 0.1244,0.1302 0.1914,0.1915 l 0.0192,0.0191 c 0.0689,0.0689 0.1378,0.134 0.2067,0.1914 l 0.0727,0.067 0.134,0.1225 c 0.0268,0.0249 0.0536,0.0498 0.0823,0.0727 l 0.1206,0.1072 0.0842,0.0708 0.1187,0.0977 0.0823,0.0669 0.1187,0.0938 0.0765,0.0594 0.1283,0.0957 0.0631,0.0459 c 0.0575,0.044 0.1168,0.0842 0.1742,0.1244 h 0.0096 c 0.4038,7.3998 -1.3801,16.7423 -5.0397,26.372 M 52.054687,0.03125 c -2.367112,-0.15471647 -5.083974,0.22673159 -7.830078,1.7675781 h -0.002 c -3.636875,2.0434734 -6.312399,5.7682295 -7.388672,10.2050779 -0.940648,3.869937 -0.498563,7.665381 1.324219,10.431641 1.381526,2.101162 3.640928,3.129934 6.28125,3.326172 v 0.164062 h 0.75 c 1.600437,0 3.371354,-0.369274 5.248047,-0.982422 1.171754,4.151512 2.724331,6.944467 5.041016,8.007813 0.6719,0.311552 1.403863,0.471759 2.144531,0.470703 h 0.0078 0.0098 c 1.070746,-0.02609 2.118356,-0.314098 3.054687,-0.833984 1.836415,-0.965188 3.045044,-2.401376 3.382813,-4.173829 0.60703,-3.181973 -1.508846,-6.317165 -3.632813,-8.941406 3.926553,-3.180463 5.857791,-6.775747 5.056641,-10.3515622 v -0.00195 C 64.831126,6.1584806 61.67091,3.2106355 57.783203,1.4765625 56.43782,0.87638689 54.4218,0.18596647 52.054687,0.03125 Z m -0.05859,1.4941406 c 2.129032,0.1443533 3.946767,0.7720493 5.175781,1.3203125 3.561886,1.5887437 6.389616,4.4977338 6.867187,6.6054688 0.677727,3.0293631 -0.947227,6.2071071 -5.033203,9.3105471 l -0.625,0.474609 0.501953,0.603516 c 2.19306,2.63356 4.196309,5.799907 3.720704,8.292968 -0.247296,1.29769 -1.057042,2.319794 -2.613282,3.134766 l -0.0098,0.0039 -0.0078,0.0039 c -0.723478,0.402869 -1.533636,0.623041 -2.361328,0.644531 -0.518492,-7.2e-4 -1.031302,-0.111844 -1.501953,-0.330078 l -0.002,-0.002 h -0.002 c -1.782866,-0.817719 -3.346111,-3.26861 -4.490235,-7.734375 l -0.205078,-0.798829 -0.777344,0.279297 c -2.027359,0.730765 -3.856664,1.088553 -5.433593,1.089844 h -0.0098 c -2.633737,0 -4.531367,-0.918657 -5.777344,-2.814453 -1.534312,-2.328477 -1.983028,-5.707564 -1.121093,-9.251953 0.986985,-4.0687673 3.435976,-7.4345556 6.666015,-9.2500001 2.469691,-1.3857506 4.91003,-1.7263845 7.039063,-1.5820313 z M 51.101562,1.7246094 C 48.987078,1.7183865 46.90705,2.2638833 45.066406,3.3046875 41.87895,5.0963201 39.458621,8.4882054 38.505859,12.410156 h 0.0039 c -0.816905,3.360231 -0.461205,6.722817 1.089843,9.078125 1.239756,1.883005 3.374185,2.791159 5.925782,2.720703 2.551596,-0.07046 5.575222,-1.042076 8.974609,-2.853515 3.300931,-1.759665 5.813234,-3.66949 7.431641,-5.664063 1.618406,-1.994572 2.351767,-4.138079 1.892578,-6.1855466 v -0.00195 C 63.578445,8.423735 62.817192,7.2821548 61.667969,6.1425781 60.519931,5.0041774 58.966599,3.8942584 57.085937,3.0546875 l -0.0059,-0.00195 C 55.202453,2.2029745 53.168382,1.7510189 51.107422,1.7265625 l -0.0039,-0.00195 z m -0.01172,1.5 c 1.855566,0.022019 3.686754,0.4295283 5.376953,1.1953125 l 0.002,0.00195 h 0.002 c 1.713312,0.7640781 3.126501,1.7795451 4.140625,2.7851562 1.013255,1.0047489 1.610348,2.0245232 1.748047,2.6269532 0.33711,1.5031287 -0.161134,3.1465107 -1.59375,4.9121097 -1.432616,1.765598 -3.79064,3.589924 -6.970703,5.285156 -3.267306,1.741057 -6.113374,2.617065 -8.310547,2.677734 -2.197173,0.06067 -3.690417,-0.61653 -4.630859,-2.044922 -1.239549,-1.882287 -1.624013,-4.865674 -0.886719,-7.898437 l -0.888672,-0.216797 0.886719,0.214844 c 0.861401,-3.5458743 3.077719,-6.6017518 5.83789,-8.152344 l 0.002,-0.00195 C 47.41714,3.6976027 49.23755,3.2201735 51.089844,3.2246094 Z m 7.105468,16.1425776 -0.558593,0.371094 c -0.918613,0.613677 -1.930327,1.217274 -3.035157,1.806641 -0.823067,0.435185 -1.624267,0.821851 -2.40039,1.160156 l -0.582031,0.253906 0.154296,0.617188 c 1.043287,4.130171 2.380925,6.864451 4.433594,7.810547 1.114004,0.513285 2.401848,0.354197 3.685547,-0.31836 h 0.002 c 1.347434,-0.708584 2.252736,-1.716578 2.492188,-2.978515 l 0.169922,-0.890625 h -0.232422 c -0.02494,-1.262749 -0.429402,-2.527635 -1.087891,-3.691407 -0.81375,-1.438171 -1.857902,-2.739262 -2.609375,-3.628906 z m -0.347656,1.988282 c 0.674786,0.82281 1.461015,1.789627 2.083985,2.890625 0.732798,1.295101 1.15933,2.623504 0.980468,3.5625 l -0.002,0.0098 c -0.145328,0.751379 -0.620266,1.346262 -1.714844,1.921875 -1.030222,0.539331 -1.721093,0.578593 -2.359375,0.285157 -1.107412,-0.510418 -2.411845,-2.715251 -3.398437,-6.251954 0.615634,-0.28348 1.231319,-0.566966 1.869141,-0.904296 v -0.002 h 0.002 c 0.918476,-0.489957 1.735943,-0.999649 2.539062,-1.511718 z M 45.189748,25.17639 c 1.692,0 3.6061,-0.3829 5.6982,-1.137 1.1676,4.5574 2.7773,7.2543 4.9057,8.2305 0.5728,0.2656 1.1966,0.4028 1.8279,0.4019 0.952,-0.0232 1.8841,-0.2774 2.7161,-0.7407 1.6997,-0.8901 2.7103,-2.1208 3.0032,-3.6578 0.5627,-2.9496 -1.6519,-6.236 -3.8818,-8.9138 4.211,-3.1984 6.0715,-6.682 5.3116,-10.0737 -0.5742,-2.5342 -3.5678,-5.46272 -7.2926,-7.12413 -2.5744,-1.14844 -7.6716,-2.63566004 -12.8874,0.29094 -3.4338,1.92937 -5.9967,5.47419 -7.0284,9.72729 -0.9016,3.7075 -0.4556,7.2945 1.2231,9.8421 1.3838,2.1055 3.585,3.1524 6.4044,3.1524 z m 16.4609,2.7734 c -0.1914,1.0087 -0.8823,1.8107 -2.1054,2.4539 -1.158,0.6067 -2.1476,0.7063 -3.0242,0.3024 -1.6155,-0.7446 -2.9975,-3.2673 -4.0196,-7.3136 0.7963,-0.3471 1.6142,-0.7427 2.4539,-1.1868 1.1242,-0.5997 2.1571,-1.2141 3.0988,-1.8432 1.4777,1.7494 4.0693,5.0952 3.5946,7.5873 z m -22.4155,-15.3622 c 0.9072,-3.7344 3.2252,-6.9596 6.1996,-8.63054 1.7274,-0.97677 3.6793,-1.48732 5.6637,-1.48148 1.9593,0.02325 3.8924,0.45276 5.6771,1.26136 3.5965,1.60396 5.9336,4.25116 6.3164,5.93356 0.7963,3.5506 -2.4634,7.5682 -8.9444,11.0231 -6.6667,3.5525 -11.7408,3.6942 -13.921,0.3828 -1.3953,-2.1188 -1.7647,-5.2923 -0.9876,-8.4888" />
  </g>
</svg>
