<svg viewBox="0 0 900 916" xmlns="http://www.w3.org/2000/svg">
<path d="M203.667 253.984C200.038 254.042 196.467 254.832 193.155 256.297H193.135C189.825 257.764 186.842 259.885 184.362 262.528L7.93184 438.959C5.42155 441.468 3.42305 444.454 2.06419 447.731C0.702864 451.014 0 454.534 0 458.09C0 461.647 0.700321 465.163 2.06419 468.45C3.42646 471.735 5.43175 474.709 7.95095 477.222L184.688 653.978C187.194 656.49 190.184 658.486 193.46 659.846C196.756 661.214 200.275 661.917 203.839 661.91V661.872C209.174 661.87 214.4 660.305 218.842 657.342C223.291 654.373 226.77 650.15 228.819 645.206C230.869 640.26 231.413 634.819 230.367 629.571V629.552C229.321 624.304 226.723 619.496 222.932 615.714L92.3725 485.135H575.393L575.679 485.116C582.671 484.848 589.294 481.877 594.142 476.84C598.991 471.801 601.711 465.062 601.711 458.071C601.711 451.086 598.987 444.361 594.142 439.321C589.292 434.28 582.668 431.293 575.679 431.026H575.393H92.3725L222.627 300.773C225.269 298.293 227.371 295.31 228.838 292H228.858C230.323 288.687 231.094 285.097 231.151 281.469C231.209 277.849 230.541 274.258 229.183 270.899V270.88C227.821 267.521 225.799 264.476 223.238 261.916C220.674 259.352 217.614 257.333 214.255 255.972V255.952C210.895 254.594 207.292 253.927 203.667 253.984ZM203.8 632.553C203.813 632.553 203.826 632.553 203.839 632.553L203.819 647.231L203.8 632.553ZM203.821 647.213C206.268 647.216 208.663 646.493 210.699 645.134C212.736 643.775 214.323 641.843 215.261 639.582C216.198 637.32 216.443 634.831 215.964 632.43C215.486 630.03 214.305 627.825 212.572 626.096L56.9291 470.452H575.118C578.317 470.33 581.346 468.971 583.566 466.665C585.787 464.357 587.027 461.28 587.027 458.078C587.027 454.876 585.787 451.798 583.566 449.491C581.346 447.183 578.317 445.826 575.118 445.704H56.9291L212.573 290.078C213.783 288.942 214.753 287.575 215.425 286.058C216.096 284.541 216.457 282.904 216.483 281.244C216.509 279.585 216.202 277.937 215.579 276.399C214.956 274.861 214.031 273.463 212.857 272.29C211.684 271.117 210.287 270.191 208.748 269.567C207.21 268.945 205.562 268.638 203.903 268.664C202.244 268.691 200.607 269.051 199.089 269.722C197.572 270.394 196.205 271.364 195.069 272.575L18.3087 449.335C17.158 450.483 16.2451 451.847 15.6222 453.349C14.9994 454.852 14.6787 456.461 14.6787 458.087C14.6787 459.712 14.9994 461.323 15.6222 462.824C16.2451 464.326 17.158 465.69 18.3087 466.838L195.069 643.599C196.216 644.753 197.58 645.668 199.082 646.291C200.584 646.914 202.195 647.233 203.821 647.23M464.079 1.33132C448.01 0.586042 431.888 0.678191 415.762 1.63713C351.258 5.47287 288.3 22.9382 231.036 52.8787C173.774 82.8195 123.499 124.553 83.5423 175.335H83.5614C79.1202 180.965 77.0832 188.134 77.9231 195.25C78.7627 202.365 82.4097 208.872 88.0338 213.312C93.6628 217.754 100.849 219.791 107.969 218.95C115.085 218.108 121.59 214.467 126.03 208.84L126.05 208.82L126.069 208.782C163.685 160.723 211.782 121.893 266.682 95.2328C321.581 68.5723 381.834 54.7889 442.864 54.9429H442.884H442.903C665.319 54.9429 846.032 235.674 846.032 458.09C846.032 680.506 665.319 861.219 442.903 861.219H442.884H442.864C381.834 861.364 321.58 847.59 266.682 820.929C211.783 794.268 163.69 755.434 126.068 707.38L126.049 707.36L126.029 707.34C123.834 704.554 121.122 702.218 118.021 700.479C114.92 698.738 111.515 697.63 107.987 697.211C104.458 696.789 100.878 697.069 97.4556 698.032C94.0343 698.994 90.847 700.629 88.052 702.83C85.2652 705.025 82.9296 707.737 81.1905 710.838C79.4491 713.94 78.343 717.35 77.9222 720.872C77.5035 724.396 77.781 727.981 78.7441 731.404C79.7054 734.825 81.3211 738.012 83.5223 740.807C122.075 789.764 170.238 830.322 225.034 859.995C279.831 889.668 340.105 907.829 402.173 913.359C464.241 918.889 526.802 911.681 585.981 892.163C645.16 872.646 699.718 841.237 746.319 799.867C792.921 758.497 830.571 708.038 856.963 651.589C883.356 595.14 897.931 533.89 899.795 471.603C901.66 409.317 890.771 347.307 867.8 289.381C844.831 231.455 810.258 178.841 766.215 134.758V134.739C720.521 89.0497 665.655 53.5745 605.247 30.6313C559.942 13.4239 512.288 3.56715 464.079 1.33132ZM755.839 145.127C711.611 100.904 658.513 66.5567 600.044 44.3499C541.576 22.1431 479.064 12.5809 416.63 16.2935C354.196 20.0062 293.258 36.9093 237.833 65.8889C182.408 94.8687 133.754 135.266 95.0796 184.418C93.0471 186.995 92.1223 190.273 92.5069 193.532C92.8915 196.791 94.555 199.764 97.1316 201.795C99.7073 203.828 102.985 204.753 106.244 204.369C109.503 203.983 112.476 202.32 114.508 199.744C153.502 149.925 203.351 109.664 260.261 82.0278C317.169 54.3915 379.636 40.1091 442.9 40.2687C673.278 40.2687 860.714 227.706 860.714 458.085C860.714 688.463 673.278 875.901 442.9 875.901C379.636 876.051 317.173 861.766 260.266 834.13C203.358 806.494 153.507 766.238 114.508 716.426C113.502 715.149 112.256 714.082 110.839 713.287C109.422 712.492 107.862 711.984 106.248 711.792C104.634 711.599 102.999 711.726 101.434 712.167C99.8707 712.606 98.4077 713.35 97.1316 714.356C95.8546 715.361 94.788 716.608 93.9933 718.025C93.1978 719.442 92.6899 721.001 92.4971 722.615C92.3053 724.229 92.4325 725.864 92.8729 727.429C93.3123 728.993 94.056 730.455 95.061 731.732C132.376 779.117 178.984 818.376 232.021 847.096C285.058 875.816 343.407 893.392 403.482 898.745C463.558 904.097 524.095 897.114 581.374 878.223C638.653 859.332 691.467 828.933 736.572 788.89C781.678 748.849 818.122 700.01 843.668 645.373C869.212 590.736 883.321 531.454 885.125 471.166C886.93 410.879 876.392 350.859 854.159 294.792C831.927 238.726 798.468 187.795 755.839 145.127V145.127Z" fill="black"/>
</svg>
