<?xml version="1.0" encoding="UTF-8" standalone="no"?>
<svg
   width="1000"
   height="1000"
   viewBox="0 0 1000 1000"
   fill="none"
   version="1.1"
   id="svg140"
   sodipodi:docname="logout.svg"
   inkscape:version="1.2.1 (9c6d41e, 2022-07-14)"
   xmlns:inkscape="http://www.inkscape.org/namespaces/inkscape"
   xmlns:sodipodi="http://sodipodi.sourceforge.net/DTD/sodipodi-0.dtd"
   xmlns="http://www.w3.org/2000/svg"
   xmlns:svg="http://www.w3.org/2000/svg">
  <sodipodi:namedview
     id="namedview4738"
     pagecolor="#ffffff"
     bordercolor="#111111"
     borderopacity="1"
     inkscape:showpageshadow="0"
     inkscape:pageopacity="0"
     inkscape:pagecheckerboard="1"
     inkscape:deskcolor="#d1d1d1"
     showgrid="false"
     inkscape:zoom="2.5258191"
     inkscape:cx="45.72774"
     inkscape:cy="46.717518"
     inkscape:window-width="1309"
     inkscape:window-height="456"
     inkscape:window-x="208"
     inkscape:window-y="1323"
     inkscape:window-maximized="0"
     inkscape:current-layer="svg140" />
  <defs
     id="defs144" />
  <g
     id="g2014"
     transform="matrix(9.7857854,0,0,9.7857854,50.000001,42.834191)">
    <path
       id="path138"
       style="color:#000000;fill:#000000;stroke-miterlimit:10;-inkscape-stroke:none"
       d="m 20.8125,25.869141 c -0.3708,0.0059 -0.73568,0.08659 -1.074219,0.236328 h -0.002 c -0.338295,0.149941 -0.643057,0.366702 -0.896484,0.636718 L 0.81054688,44.771484 C 0.55402349,45.027882 0.34979786,45.333089 0.2109375,45.667969 0.07182504,46.003456 0,46.363172 0,46.726562 c 0,0.363391 0.07156509,0.722699 0.2109375,1.058594 0.13920921,0.335721 0.34412745,0.639684 0.6015625,0.896485 l 18.060547,18.0625 c 0.256118,0.256628 0.561664,0.460664 0.896484,0.599609 0.336785,0.13976 0.696412,0.211595 1.060547,0.210937 v -0.0039 c 0.545226,-2.13e-4 1.079213,-0.160085 1.533203,-0.46289 0.454563,-0.303406 0.810085,-0.734984 1.019531,-1.240235 0.209514,-0.505412 0.265065,-1.061384 0.158204,-1.597656 v -0.002 C 23.4341,63.711718 23.168622,63.220482 22.78125,62.833984 L 9.4394531,49.490234 H 58.798828 l 0.0293,-0.002 c 0.714441,-0.02732 1.391218,-0.330985 1.886719,-0.845703 0.49551,-0.514946 0.773437,-1.203544 0.773437,-1.917969 0,-0.713798 -0.278338,-1.401014 -0.773437,-1.916015 -0.495671,-0.515113 -1.172583,-0.820349 -1.886719,-0.847657 H 58.798828 9.4394531 L 22.75,30.650391 c 0.270016,-0.253427 0.484824,-0.558189 0.634766,-0.896485 h 0.002 c 0.149734,-0.338539 0.228472,-0.705371 0.234375,-1.076172 0.0059,-0.369853 -0.06237,-0.736838 -0.201172,-1.080078 v -0.002 C 23.280827,27.25249 23.074141,26.941329 22.8125,26.679687 22.550471,26.417659 22.237763,26.211349 21.894531,26.072266 v -0.002 C 21.551196,25.931406 21.183,25.863239 20.8125,25.869141 Z m 0.01367,38.685546 c 0.0013,-2e-6 0.0026,-1.8e-5 0.0039,0 l -0.002,1.5 z m 0.0021,1.498088 c 0.2501,3e-4 0.4948,-0.0736 0.7029,-0.2124 0.2081,-0.1389 0.3703,-0.3363 0.4661,-0.5674 0.0958,-0.2311 0.1208,-0.4855 0.0719,-0.7308 -0.0489,-0.2453 -0.1695,-0.4706 -0.3466,-0.6473 L 5.81753,47.989775 h 52.95326 c 0.3269,-0.0125 0.6364,-0.1513 0.8633,-0.387 0.2269,-0.2358 0.3536,-0.5503 0.3536,-0.8775 0,-0.3272 -0.1267,-0.6417 -0.3536,-0.8775 -0.2269,-0.2358 -0.5364,-0.3745 -0.8633,-0.387 H 5.81753 l 15.90506,-15.9032 c 0.1237,-0.1161 0.2228,-0.2558 0.2915,-0.4108 0.0686,-0.1551 0.1054,-0.3224 0.1081,-0.492 0.0027,-0.1695 -0.0287,-0.3379 -0.0924,-0.4951 -0.0636,-0.1572 -0.1582,-0.3 -0.2781,-0.4199 -0.1199,-0.1199 -0.2627,-0.2145 -0.4199,-0.2782 -0.1572,-0.0636 -0.3256,-0.095 -0.4951,-0.0923 -0.1696,0.0027 -0.3369,0.0395 -0.492,0.1081 -0.155,0.0687 -0.2947,0.1678 -0.4108,0.2915 l -18.06294,18.063 c -0.11759,0.1173 -0.21088,0.2567 -0.27453,0.4102 -0.06365,0.1535 -0.09642,0.318 -0.09642,0.4841 0,0.1661 0.03277,0.3307 0.09642,0.4841 0.06365,0.1535 0.15694,0.2929 0.27453,0.4102 l 18.06294,18.063 c 0.1172,0.1179 0.2566,0.2114 0.4101,0.2751 0.1535,0.0637 0.3181,0.0963 0.4843,0.096 M 47.423828,0.05078125 C 45.781682,-0.025378 44.134244,-0.0159614 42.486328,0.08203125 35.894759,0.47400229 29.461089,2.2587702 23.609375,5.3183594 17.757766,8.3779786 12.62027,12.642664 8.5371094,17.832031 h 0.00195 c -0.453843,0.575334 -0.6619998,1.307912 -0.5761719,2.035156 0.085797,0.726983 0.4584808,1.391963 1.0332032,1.845704 0.5752167,0.453923 1.3095703,0.662034 2.0371093,0.576171 0.727259,-0.08605 1.391944,-0.458193 1.845703,-1.033203 l 0.002,-0.002 0.002,-0.0039 C 16.726831,16.338836 21.641793,12.370868 27.251953,9.6464844 32.86202,6.9220701 39.019212,5.5135627 45.255859,5.5292969 h 0.002 0.002 c 22.72847,0 41.195312,18.4686951 41.195312,41.1972651 0,22.728467 -18.466846,41.195313 -41.195312,41.195313 h -0.002 -0.002 C 39.019223,87.936731 32.861971,86.529096 27.251953,83.804687 21.641898,81.080261 16.727328,77.111775 12.882813,72.201172 l -0.002,-0.002 -0.002,-0.002 C 12.654475,71.912384 12.377362,71.673714 12.060454,71.496 c -0.316939,-0.17795 -0.664812,-0.291126 -1.025391,-0.333985 -0.360591,-0.04308 -0.726465,-0.01443 -1.0761716,0.08398 -0.3496125,0.09823 -0.675328,0.265295 -0.9609375,0.490234 -0.2847874,0.224338 -0.523458,0.501451 -0.7011719,0.818359 -0.17795,0.31694 -0.2909809,0.665428 -0.3339844,1.025391 -0.042793,0.360031 -0.014432,0.726465 0.083984,1.076172 0.098233,0.349613 0.2633418,0.675328 0.4882813,0.960937 3.9396591,5.002887 8.8614031,9.147459 14.4609381,12.179688 C 28.595627,90.829 34.754964,92.68486 41.097656,93.25 47.440344,93.81514 53.83343,93.078511 59.880859,91.083984 65.928275,89.089566 71.503561,85.879952 76.265625,81.652344 81.02779,77.424841 84.87529,72.268473 87.572266,66.5 90.269338,60.73154 91.758704,54.472424 91.949219,48.107422 92.139734,41.742419 91.027041,35.40575 88.679687,29.486328 86.332442,23.566917 82.799483,18.190334 78.298828,13.685547 v -0.002 C 73.629355,9.0146375 68.022639,5.3894624 61.849609,3.0449219 57.219905,1.286513 52.350268,0.27925899 47.423828,0.05078125 Z M 77.23849,14.745075 c -4.5196,-4.5191 -9.9457,-8.0289797 -15.9206,-10.2982697 -5.9748,-2.26929 -12.3628,-3.24644 -18.7429,-2.86705 -6.38,0.37939 -12.6072,2.10671 -18.2711,5.0681 -5.6638,2.96142 -10.6357,7.0896197 -14.5878,12.1124197 -0.2077,0.2633 -0.3022,0.5983 -0.2629,0.9313 0.0393,0.333 0.2093,0.6368 0.4726,0.8444 0.2632,0.2077 0.5982,0.3023 0.9312,0.263 0.333,-0.0394 0.6368,-0.2094 0.8445,-0.4726 3.9847,-5.0909 9.0788,-9.2052 14.8943,-12.0292997 5.8154,-2.82413 12.1988,-4.28363 18.6637,-4.26732 23.5421,0 42.6961,19.1540197 42.6961,42.6962197 0,23.5421 -19.154,42.6962 -42.6961,42.6962 -6.4648,0.0154 -12.8479,-1.4444 -18.6632,-4.2685 -5.8153,-2.8241 -10.9096,-6.9378 -14.8948,-12.0281 -0.1028,-0.1305 -0.2302,-0.2395 -0.375,-0.3207 -0.1448,-0.0813 -0.3042,-0.1332 -0.4691,-0.1528 -0.1649,-0.0197 -0.332,-0.0067 -0.4919,0.0383 -0.1598,0.0449 -0.3093,0.1209 -0.4397,0.2237 -0.1305,0.1027 -0.2395,0.2301 -0.3207,0.3749 -0.0813,0.1448 -0.1332,0.3042 -0.1529,0.4691 -0.0196,0.1649 -0.0066,0.332 0.0384,0.4919 0.0449,0.1598 0.1209,0.3093 0.2236,0.4397 3.8132,4.8423 8.576,8.8541 13.9958,11.789 5.4198,2.9348 11.3824,4.7309 17.5215,5.2779 6.1391,0.547 12.3253,-0.1666 18.1786,-2.0971 5.8533,-1.9304 11.2503,-5.0369 15.8595,-9.1288 4.6093,-4.0918 8.3335,-9.0826 10.944,-14.6659 2.6104,-5.5833 4.0521,-11.6413 4.2365,-17.802 0.1844,-6.1607 -0.8924,-12.2941 -3.1644,-18.0235 -2.2719,-5.7294 -5.691,-10.934 -10.0472,-15.2942 z" />
  </g>
</svg>
