<?xml version="1.0" encoding="UTF-8" standalone="no"?>
<svg
   width="1000"
   height="1000"
   viewBox="0 0 1000 1000"
   fill="none"
   version="1.1"
   id="svg4"
   sodipodi:docname="maPage.svg"
   inkscape:version="1.2.1 (9c6d41e, 2022-07-14)"
   xmlns:inkscape="http://www.inkscape.org/namespaces/inkscape"
   xmlns:sodipodi="http://sodipodi.sourceforge.net/DTD/sodipodi-0.dtd"
   xmlns="http://www.w3.org/2000/svg"
   xmlns:svg="http://www.w3.org/2000/svg">
  <defs
     id="defs8" />
  <sodipodi:namedview
     id="namedview6"
     pagecolor="#ffffff"
     bordercolor="#111111"
     borderopacity="1"
     inkscape:showpageshadow="0"
     inkscape:pageopacity="0"
     inkscape:pagecheckerboard="1"
     inkscape:deskcolor="#d1d1d1"
     showgrid="false"
     inkscape:zoom="2.4842105"
     inkscape:cx="43.675848"
     inkscape:cy="46.694916"
     inkscape:window-width="1309"
     inkscape:window-height="456"
     inkscape:window-x="323"
     inkscape:window-y="1361"
     inkscape:window-maximized="0"
     inkscape:current-layer="svg4" />
  <g
     id="path2"
     transform="matrix(10.242272,0,0,10.242272,50.000704,21.423562)">
    <path
       id="path119"
       style="color:#000000;fill:#000000;stroke-miterlimit:10;-inkscape-stroke:none"
       d="M 7.4472656,0 C 6.9533434,0.00142615 6.4697645,0.14066807 6.0449219,0.42382813 5.6197708,0.70716809 5.2758588,1.1294099 5.1074219,1.6484375 l -0.00195,0.00195 -4.99804683,15.5195315 -0.001953,0.0059 C 0.03750473,17.391582 0.00112357,17.619394 0,17.847656 v 0.002 11.966797 c -0.0070363,1.913595 0.52740805,3.795617 1.5351562,5.462891 0.8518036,1.409189 2.0699303,2.57197 3.4628907,3.535156 v 42.949219 c 0,3.32874 1.7457041,6.309339 4.3964844,8.380859 2.6507797,2.071521 6.2245607,3.304688 10.1347657,3.304688 h 8.193359 c 0.300017,7.17e-4 0.59809,-0.05072 0.882813,-0.154297 0.28534,-0.103648 0.553484,-0.259371 0.789062,-0.466797 0.235983,-0.207782 0.434948,-0.464239 0.574219,-0.761719 h -0.002 c 0.13882,-0.295899 0.215161,-0.6253 0.214844,-0.958984 v -0.0039 L 30.165964,58.1856 c 0,-3.115129 1.397074,-6.119501 3.964843,-8.38086 2.567773,-2.261271 6.105037,-3.564453 9.804688,-3.564453 3.699651,0 7.236915,1.303182 9.804687,3.564453 2.567769,2.261359 3.964844,5.265731 3.964844,8.38086 l -0.01563,32.923828 c -3.17e-4,0.333684 0.07602,0.663085 0.214844,0.958984 h -0.002 c 0.13943,0.297821 0.338712,0.554357 0.574218,0.761719 0.235579,0.207426 0.504514,0.363191 0.789063,0.466797 0.284824,0.103617 0.581125,0.154553 0.878906,0.154297 h 8.197266 c 3.910212,0 7.482035,-1.233141 10.132812,-3.304688 2.650778,-2.071546 4.398438,-5.052119 4.398438,-8.380859 V 38.814453 c 1.392974,-0.963186 2.61106,-2.125987 3.46289,-3.535156 1.007648,-1.667241 1.542252,-3.549248 1.535157,-5.462891 v -0.0059 -11.958985 -0.0039 c -8.94e-4,-0.230071 -0.03773,-0.456775 -0.105469,-0.671875 l -0.002,-0.0059 v -0.0039 l -4.998047,-15.5156254 -0.002,-0.00195 C 82.595235,1.1294099 82.251323,0.70716809 81.826172,0.42382813 81.401329,0.14066807 80.91775,0.00142615 80.423828,0 h -0.002 H 7.4492187 Z M 9.2675781,4.6835937 H 78.603516 l 4.359375,13.5253903 v 11.601563 c 0,1.74808 -0.779897,3.443594 -2.25,4.738281 -1.470067,1.294654 -3.51865,2.054688 -5.666016,2.054688 -2.14748,0 -4.197902,-0.760034 -5.667969,-2.054688 -1.470103,-1.294687 -2.248047,-2.990201 -2.248047,-4.738281 0,-0.673774 -0.314068,-1.302496 -0.789062,-1.720703 -0.474658,-0.417911 -1.062857,-0.619141 -1.666016,-0.619141 -0.603158,0 -1.191358,0.20123 -1.666015,0.619141 -0.474995,0.418207 -0.789063,1.046929 -0.789063,1.720703 0,1.74808 -0.777943,3.443594 -2.248047,4.738281 -1.470066,1.294654 -3.518649,2.054688 -5.666015,2.054688 -2.14748,0 -4.197903,-0.760034 -5.667969,-2.054688 -1.470165,-1.294668 -2.248047,-2.990156 -2.248047,-4.738281 0,-0.673774 -0.314068,-1.302496 -0.789063,-1.720703 -0.474657,-0.417911 -1.062856,-0.619141 -1.666015,-0.619141 -0.603159,0 -1.191358,0.20123 -1.666016,0.619141 -0.474994,0.418207 -0.789062,1.046929 -0.789062,1.720703 0,1.74808 -0.777944,3.443594 -2.248047,4.738281 -1.470067,1.294654 -3.520603,2.054688 -5.667969,2.054688 -2.14748,0 -4.195949,-0.760034 -5.666016,-2.054688 -1.470103,-1.294687 -2.249999,-2.990201 -2.25,-4.738281 10e-7,-0.673774 -0.312114,-1.302496 -0.787109,-1.720703 -0.474658,-0.417911 -1.062857,-0.619141 -1.666016,-0.619141 -0.603158,0 -1.191357,0.20123 -1.666015,0.619141 -0.474549,0.417815 -0.788476,1.045693 -0.789063,1.71875 -0.001,1.016117 -0.266528,2.020456 -0.791015,2.949218 -0.524453,0.928702 -1.296833,1.756832 -2.269532,2.40625 -0.972576,0.649309 -2.117755,1.101476 -3.341796,1.306641 -1.224022,0.205162 -2.492062,0.156117 -3.689453,-0.138672 C 8.9546648,35.914818 7.4859782,35.024103 6.4628906,33.837891 5.4402789,32.652192 4.9104224,31.247478 4.9082031,29.810547 v -0.002 -11.59961 z M 23.193359,36.378906 c 0.949095,1.199152 2.0507,2.286726 3.429688,3.080078 2.079874,1.19647 4.485131,1.824219 6.941406,1.824219 2.456187,0 4.861532,-0.627749 6.941406,-1.824219 1.378506,-0.793075 2.480751,-1.879514 3.429688,-3.078125 0.948847,1.198347 2.051486,2.285183 3.429687,3.078125 2.079895,1.196482 4.485131,1.824219 6.941407,1.824219 2.456187,0 4.859579,-0.627749 6.939453,-1.824219 h 0.002 c 1.377683,-0.792601 2.479068,-1.878485 3.427734,-3.076172 0.948494,1.198839 2.050021,2.286058 3.427735,3.080079 2.079264,1.198233 4.484534,1.827063 6.941406,1.830078 h 0.002 c 0.141324,0 0.319542,-0.0028 0.507812,-0.01172 h 0.01172 0.119141 c 0.221446,0 0.374327,-0.01757 0.509765,-0.03125 h 0.06445 l 0.06641,-0.0059 c 0.199193,-0.01783 0.3824,-0.04016 0.548828,-0.06055 l 0.01758,-0.002 0.115234,-0.01758 0.02734,-0.0039 c 0.147963,-0.01937 0.294955,-0.04286 0.439453,-0.06836 l 0.04297,-0.0059 0.05469,-0.0078 0.02148,-0.0039 c 0.128597,-0.02353 0.248299,-0.05061 0.369141,-0.07617 v 40.765625 c 0,1.812314 -0.949982,3.501666 -2.671875,4.818359 -1.721894,1.316694 -4.194727,2.185547 -6.949219,2.185547 h -5.744233 l 0.01563,-30.57997 v -0.002 c 0,-4.463181 -2.021919,-8.724922 -5.539062,-11.822266 -3.51722,-3.097424 -8.233037,-4.804687 -13.138672,-4.804687 -4.905635,0 -9.621452,1.707263 -13.138672,4.804687 -3.517143,3.097344 -5.539063,7.359085 -5.539063,11.822266 v 0.002 l 0.01563,30.580078 h -5.74414 c -2.755648,0 -5.227653,-0.868932 -6.949219,-2.185547 C 10.858512,85.265416 9.9082031,83.57621 9.9082031,81.763672 V 40.988281 c 0.1209019,0.02546 0.2401329,0.05061 0.3691409,0.07422 l 0.02344,0.0039 0.09766,0.01563 c 0.151727,0.02682 0.300119,0.04993 0.445312,0.07031 h 0.0059 l 0.140625,0.01953 h 0.0059 c 0.164916,0.02021 0.347134,0.04462 0.550781,0.0625 l 0.06641,0.0059 h 0.07813 c 0.146186,0.01198 0.290626,0.02298 0.423828,0.0293 l 0.03516,0.002 h 0.166015 c 0.102625,0 0.273377,0.0098 0.507813,0.0098 h 0.002 c 2.455174,-0.002 4.858402,-0.628274 6.9375,-1.824219 1.378059,-0.792691 2.480236,-1.880531 3.429687,-3.078125 z M 86.335108,17.62593 81.337508,2.11231 c -0.0571,-0.17595 -0.1775,-0.3308 -0.3432,-0.44123 C 80.828608,1.56064 80.626708,1.5006 80.418908,1.5 H 7.4521083 c -0.2078,6e-4 -0.4097,0.06064 -0.5754,0.17108 -0.1657,0.11043 -0.2861,0.26528 -0.3432,0.44123 l -4.99761,15.51362 c -0.0234,0.0743 -0.03544,0.151 -0.03582,0.2282 v 11.9622 c -0.00695,1.6344 0.44582,3.2448 1.31789,4.6876 0.87206,1.4427 2.13626,2.6728 3.67974,3.5804 v 43.6796 c 0,5.6165 5.8466997,10.1846 13.0312997,10.1846 h 8.198 c 0.1254,3e-4 0.2496,-0.0213 0.3656,-0.0635 0.1159,-0.0421 0.2212,-0.104 0.3099,-0.1821 0.0887,-0.0781 0.159,-0.1709 0.2068,-0.273 0.0479,-0.1021 0.0724,-0.2115 0.0721,-0.3219 l -0.0147,-32.9216 c 0,-3.5662 1.6086,-6.9864 4.4721,-9.5082 2.8635,-2.5217 6.7472,-3.9384 10.7967,-3.9384 4.0495,0 7.9332,1.4167 10.7967,3.9384 2.8635,2.5218 4.4721,5.942 4.4721,9.5082 l -0.0147,32.9235 c -3e-4,0.1104 0.0242,0.2198 0.0721,0.3219 0.0478,0.1021 0.1181,0.1948 0.2068,0.2729 0.0887,0.0781 0.194,0.14 0.3099,0.1822 0.116,0.0422 0.2402,0.0637 0.3656,0.0635 h 8.198 c 7.1846,0 13.0313,-4.5682 13.0313,-10.1847 v -43.6814 c 1.5435,-0.9076 2.8077,-2.1377 3.6798,-3.5804 0.872,-1.4428 1.3248,-3.0532 1.3178,-4.6876 v -11.9622 c -3e-4,-0.0772 -0.0124,-0.1539 -0.0358,-0.2282 z m -6.8728,64.138 c 0,4.6887 -4.9891,8.5036 -11.1203,8.5036 h -7.2435 l 0.0147,-32.0811 c 0,-4.0121 -1.8098,-7.8599 -5.0312,-10.6968 -3.2215,-2.837 -7.5907,-4.4308 -12.1465,-4.4308 -4.5558,0 -8.925,1.5938 -12.1465,4.4308 -3.2214,2.8369 -5.0312,6.6847 -5.0312,10.6968 l 0.0147,32.0811 h -7.2435 c -6.1333,0 -11.1202997,-3.8149 -11.1202997,-8.5036 v -42.7612 l 0.0653,0.0223 c 0.1285,0.0464 0.2591,0.0928 0.3897,0.1354 l 0.1117,0.0353 c 0.1559,0.0501 0.3118,0.0965 0.4699,0.141 l 0.0884,0.0223 c 0.1349,0.0371 0.2718,0.0705 0.4088,0.102 l 0.1200997,0.0278 c 0.1622,0.0353 0.3223,0.0687 0.4846,0.0984 l 0.0737,0.0111 c 0.1433,0.026 0.2866,0.0483 0.4319,0.0687 l 0.1264,0.0167 c 0.1665,0.0204 0.3308,0.0408 0.4994,0.0556 h 0.0421 c 0.1559,0.0149 0.3097,0.0242 0.4657,0.0316 h 0.1306 c 0.1685,0 0.3392,0.0111 0.5078,0.0111 2.1991,-0.0018 4.3503,-0.5667 6.1915,-1.6258 1.8412,-1.0591 3.293,-2.5668 4.1787,-4.3395 0.8839,1.7739 2.3353,3.2827 4.1769,4.3422 1.8416,1.0594 3.9936,1.6236 6.1934,1.6236 2.1997,0 4.3517,-0.5642 6.1933,-1.6236 1.8416,-1.0595 3.293,-2.5683 4.1769,-4.3422 0.8839,1.7739 2.3353,3.2827 4.1768,4.3422 1.8416,1.0594 3.9937,1.6236 6.1935,1.6236 2.1997,0 4.3517,-0.5642 6.1933,-1.6236 1.8416,-1.0595 3.293,-2.5683 4.1769,-4.3422 0.8838,1.7748 2.3349,3.2848 4.1762,4.346 1.8413,1.0611 3.9935,1.6277 6.1941,1.6304 0.1685,0 0.3392,0 0.5077,-0.0111 h 0.1307 c 0.1559,0 0.3097,-0.0167 0.4635,-0.0315 h 0.0442 c 0.1665,-0.0149 0.3329,-0.0353 0.4994,-0.0557 l 0.1264,-0.0185 c 0.1453,-0.0186 0.2886,-0.0409 0.4319,-0.0668 l 0.0737,-0.0112 c 0.1623,-0.0297 0.3224,-0.0631 0.4825,-0.0983 l 0.1243,-0.0279 c 0.1405,-0.0321 0.2753,-0.0655 0.4045,-0.1001 l 0.0906,-0.0242 c 0.1581,-0.0445 0.314,-0.0909 0.4699,-0.1391 l 0.1117,-0.0371 c 0.1306,-0.0427 0.2591,-0.0872 0.3876,-0.1355 l 0.0674,-0.0223 z m 4.9998,-51.9532 c 0,2.1992 -0.9921,4.3083 -2.7579,5.8634 -1.7658,1.5551 -4.1607,2.4287 -6.6579,2.4287 -2.4973,0 -4.8922,-0.8736 -6.658,-2.4287 -1.7658,-1.5551 -2.7579,-3.6642 -2.7579,-5.8634 0,-0.2229 -0.1005,-0.4367 -0.2795,-0.5943 -0.179,-0.1576 -0.4218,-0.2462 -0.6749,-0.2462 -0.2531,0 -0.4959,0.0886 -0.6749,0.2462 -0.179,0.1576 -0.2795,0.3714 -0.2795,0.5943 0,2.1992 -0.9921,4.3083 -2.7579,5.8634 -1.7658,1.5551 -4.1607,2.4287 -6.6579,2.4287 -2.4973,0 -4.8922,-0.8736 -6.658,-2.4287 -1.7659,-1.5551 -2.7579,-3.6642 -2.7579,-5.8634 0,-0.2229 -0.1005,-0.4367 -0.2795,-0.5943 -0.179,-0.1576 -0.4218,-0.2462 -0.6749,-0.2462 -0.2531,0 -0.4959,0.0886 -0.6749,0.2462 -0.179,0.1576 -0.2795,0.3714 -0.2795,0.5943 0,2.1992 -0.9921,4.3083 -2.7579,5.8634 -1.7658,1.5551 -4.1607,2.4287 -6.6579,2.4287 -2.4973,0 -4.8922,-0.8736 -6.658,-2.4287 -1.7658,-1.5551 -2.7579,-3.6642 -2.7579,-5.8634 0,-0.2229 -0.1005,-0.4367 -0.2795,-0.5943 -0.179,-0.1576 -0.4218,-0.2462 -0.6749,-0.2462 -0.2531,0 -0.4959,0.0886 -0.6749,0.2462 -0.179,0.1576 -0.2795,0.3714 -0.2795,0.5943 -0.0013,1.2788 -0.3385,2.54 -0.9851,3.685 -0.6466,1.145 -1.5852,2.1428 -2.7424,2.9154 -1.1571,0.7725 -2.5015,1.2989 -3.928,1.538 -1.4265,0.2391 -2.8965,0.1844 -4.295,-0.1599 -1.9778997,-0.4872 -3.7207997,-1.5304 -4.9631197,-2.9708 -1.24228,-1.4404 -1.91584,-3.1989 -1.91804,-5.0077 V 17.97283 L 8.1748083,3.18291 H 79.696208 l 4.7659,14.78992 z" />
  </g>
</svg>
