<svg viewBox="0 0 900 958" xmlns="http://www.w3.org/2000/svg">
<path d="M76.2776 0.423584C71.2187 0.438191 66.2658 1.86434 61.9144 4.76455C57.5599 7.66659 54.0375 11.9913 52.3123 17.3073L52.2923 17.3273L1.10098 176.283L1.08098 176.343C0.384836 178.553 0.0122105 180.886 0.000702557 183.224V183.245V305.812C-0.0713651 325.411 5.40256 344.688 15.7242 361.764C24.4486 376.198 36.925 388.107 51.1921 397.972V837.87C51.1921 871.964 69.072 902.492 96.222 923.709C123.372 944.926 159.976 957.556 200.025 957.556H283.944C287.017 957.564 290.069 957.037 292.986 955.976C295.908 954.914 298.655 953.32 301.067 951.195C303.484 949.067 305.522 946.44 306.949 943.393H306.928C308.35 940.363 309.132 936.989 309.129 933.571V933.531L308.969 596.376C308.969 564.47 323.278 533.699 349.578 510.537C375.877 487.377 412.107 474.029 450 474.029C487.893 474.029 524.122 487.377 550.422 510.537C576.722 533.699 591.031 564.47 591.031 596.376L590.871 933.591C590.868 937.009 591.65 940.383 593.072 943.413H593.051C594.479 946.464 596.52 949.091 598.932 951.215C601.345 953.34 604.1 954.935 607.014 955.996C609.932 957.057 612.966 957.579 616.016 957.576H699.975C740.024 957.576 776.608 944.946 803.758 923.729C830.908 902.512 848.808 871.984 848.808 837.89V397.972C863.075 388.107 875.551 376.197 884.276 361.764C894.596 344.687 900.072 325.411 899.999 305.811V305.751V183.264V183.224C899.99 180.867 899.613 178.545 898.919 176.342L898.898 176.282V176.242L847.707 17.3266L847.687 17.3066C845.963 11.9913 842.441 7.66659 838.087 4.76455C833.735 1.86434 828.782 0.438191 823.723 0.423584H823.703H76.2976H76.2776ZM94.9218 48.3942H805.079L849.729 186.925V305.751C849.729 323.656 841.741 341.022 826.684 354.282C811.627 367.542 790.645 375.327 768.651 375.327C746.656 375.327 725.655 367.542 710.598 354.282C695.541 341.022 687.573 323.656 687.573 305.751C687.573 298.85 684.356 292.411 679.491 288.127C674.63 283.847 668.605 281.786 662.428 281.786C656.25 281.786 650.225 283.847 645.364 288.127C640.499 292.411 637.282 298.85 637.282 305.751C637.282 323.656 629.314 341.022 614.257 354.282C599.2 367.542 578.218 375.327 556.224 375.327C534.229 375.327 513.228 367.542 498.171 354.282C483.113 341.022 475.146 323.656 475.146 305.751C475.146 298.85 471.929 292.411 467.064 288.127C462.203 283.847 456.178 281.786 450 281.786C443.823 281.786 437.798 283.847 432.937 288.127C428.072 292.411 424.855 298.85 424.855 305.751C424.855 323.656 416.887 341.022 401.83 354.282C386.773 367.542 365.771 375.327 343.777 375.327C321.782 375.327 300.801 367.542 285.744 354.282C270.687 341.022 262.699 323.656 262.699 305.751C262.699 298.85 259.502 292.411 254.637 288.127C249.776 283.847 243.751 281.786 237.573 281.786C231.396 281.786 225.371 283.847 220.51 288.127C215.649 292.407 212.434 298.838 212.428 305.731C212.418 316.139 209.698 326.425 204.326 335.938C198.954 345.45 191.044 353.932 181.081 360.583C171.119 367.234 159.39 371.865 146.853 373.966C134.317 376.068 121.329 375.565 109.065 372.546C91.7168 368.273 76.6741 359.15 66.1954 347C55.7215 334.856 50.2946 320.469 50.2719 305.751V305.731V186.924L94.9218 48.3942ZM237.553 373.026C247.274 385.308 258.557 396.448 272.681 404.573C293.984 416.828 318.619 423.257 343.777 423.257C368.934 423.257 393.57 416.828 414.873 404.573C428.992 396.45 440.281 385.323 450 373.046C459.719 385.32 471.012 396.452 485.128 404.573C506.431 416.828 531.066 423.257 556.224 423.257C581.381 423.257 605.997 416.828 627.3 404.573H627.32C641.431 396.455 652.712 385.333 662.428 373.066C672.143 385.345 683.425 396.481 697.536 404.613C718.832 416.886 743.468 423.327 768.632 423.357H768.652C770.1 423.357 771.925 423.329 773.853 423.237H773.973H775.194C777.462 423.237 779.028 423.057 780.415 422.917H781.075L781.755 422.857C783.795 422.674 785.672 422.446 787.376 422.237L787.556 422.216L788.737 422.036L789.017 421.996C790.532 421.798 792.038 421.557 793.518 421.296L793.958 421.236L794.518 421.156L794.738 421.116C796.055 420.875 797.281 420.597 798.519 420.336V837.868C798.519 856.431 788.789 873.733 771.153 887.219C753.517 900.705 728.189 909.604 699.977 909.604H641.143L641.303 596.396V596.375C641.303 550.662 620.594 507.012 584.57 475.288C548.546 443.564 500.245 426.078 450.001 426.078C399.756 426.078 351.455 443.564 315.431 475.288C279.407 507.012 258.698 550.662 258.698 596.375V596.396L258.858 909.605H200.025C171.801 909.605 146.482 900.705 128.849 887.22C111.217 873.735 101.483 856.434 101.483 837.869V420.237C102.722 420.497 103.943 420.755 105.264 420.997L105.504 421.037L106.504 421.197C108.058 421.472 109.578 421.708 111.065 421.917H111.126L112.566 422.117H112.627C114.316 422.324 116.182 422.574 118.268 422.757L118.948 422.818H119.748C121.246 422.94 122.725 423.053 124.089 423.118L124.449 423.138H126.15C127.201 423.138 128.95 423.239 131.351 423.239H131.371C156.518 423.218 181.132 416.804 202.427 404.555C216.542 396.436 227.83 385.294 237.555 373.027L237.553 373.026ZM884.268 180.953L833.082 22.0584C832.497 20.2563 831.264 18.6703 829.566 17.5392C827.869 16.4081 825.801 15.7931 823.673 15.787H76.3272C74.1989 15.7931 72.131 16.4081 70.4338 17.5392C68.7367 18.6703 67.5035 20.2563 66.9187 22.0584L15.7318 180.953C15.4921 181.714 15.3688 182.5 15.3649 183.29V305.811C15.2937 322.551 19.9311 339.045 28.8631 353.822C37.795 368.599 50.7433 381.198 66.552 390.494V837.872C66.552 895.398 126.435 942.185 200.022 942.185H283.988C285.273 942.189 286.545 941.967 287.733 941.535C288.92 941.104 289.998 940.47 290.907 939.67C291.815 938.87 292.535 937.92 293.025 936.874C293.516 935.828 293.767 934.708 293.763 933.577L293.613 596.385C293.613 559.859 310.089 524.828 339.417 498.999C368.746 473.171 408.524 458.661 450 458.661C491.476 458.661 531.254 473.171 560.583 498.999C589.912 524.828 606.387 559.859 606.387 596.385L606.237 933.596C606.234 934.727 606.485 935.848 606.975 936.893C607.465 937.939 608.185 938.888 609.093 939.688C610.002 940.488 611.08 941.122 612.267 941.555C613.455 941.987 614.728 942.207 616.012 942.205H699.978C773.565 942.205 833.448 895.416 833.448 837.891V390.494C849.257 381.198 862.205 368.599 871.138 353.822C880.069 339.045 884.707 322.551 884.635 305.811V183.29C884.632 182.5 884.508 181.714 884.268 180.953V180.953ZM813.875 837.872C813.875 885.895 762.776 924.968 699.978 924.968H625.788L625.939 596.385C625.939 555.292 607.402 515.882 574.408 486.825C541.412 457.768 496.662 441.444 450 441.444C403.338 441.444 358.588 457.768 325.592 486.825C292.598 515.882 274.061 555.292 274.061 596.385L274.212 924.968H200.022C137.203 924.968 86.125 885.895 86.125 837.872V399.9L86.7938 400.129C88.1099 400.604 89.4476 401.079 90.7852 401.515L91.9293 401.877C93.526 402.39 95.1228 402.865 96.7421 403.321L97.6475 403.549C99.0292 403.929 100.431 404.272 101.835 404.594L103.065 404.879C104.726 405.24 106.366 405.583 108.028 405.887L108.783 406C110.251 406.267 111.718 406.495 113.207 406.704L114.501 406.875C116.207 407.084 117.889 407.293 119.616 407.445H120.047C121.644 407.597 123.219 407.692 124.817 407.768H126.155C127.881 407.768 129.629 407.882 131.356 407.882C153.88 407.864 175.913 402.078 194.771 391.23C213.629 380.383 228.499 364.94 237.57 346.784C246.623 364.953 261.489 380.406 280.351 391.258C299.213 402.108 321.255 407.887 343.786 407.887C366.316 407.887 388.357 402.108 407.219 391.258C426.081 380.406 440.947 364.953 450 346.784C459.053 364.953 473.919 380.406 492.78 391.258C511.642 402.108 533.685 407.887 556.216 407.887C578.745 407.887 600.787 402.108 619.649 391.258C638.511 380.406 653.377 364.953 662.43 346.784C671.482 364.962 686.345 380.428 705.204 391.297C724.063 402.165 746.106 407.968 768.645 407.996C770.371 407.996 772.12 407.996 773.845 407.882H775.184C776.781 407.882 778.356 407.711 779.931 407.559H780.384C782.089 407.407 783.794 407.198 785.499 406.989L786.794 406.799C788.282 406.609 789.75 406.38 791.217 406.115L791.972 406C793.634 405.696 795.274 405.354 796.914 404.994L798.187 404.708C799.626 404.379 801.007 404.037 802.33 403.683L803.258 403.435C804.877 402.979 806.474 402.504 808.071 402.01L809.215 401.63C810.553 401.193 811.869 400.737 813.185 400.242L813.875 400.014V837.872ZM865.085 305.753C865.085 328.278 854.923 349.88 836.837 365.808C818.752 381.735 794.222 390.683 768.645 390.683C743.067 390.683 718.538 381.735 700.452 365.808C682.366 349.88 672.205 328.278 672.205 305.753C672.205 303.47 671.176 301.28 669.342 299.666C667.509 298.052 665.022 297.145 662.43 297.145C659.838 297.145 657.351 298.052 655.517 299.666C653.684 301.28 652.655 303.47 652.655 305.753C652.655 328.278 642.493 349.88 624.408 365.808C606.322 381.735 581.793 390.683 556.216 390.683C530.637 390.683 506.108 381.735 488.022 365.808C469.936 349.88 459.775 328.278 459.775 305.753C459.775 303.47 458.746 301.28 456.913 299.666C455.079 298.052 452.592 297.145 450 297.145C447.408 297.145 444.921 298.052 443.088 299.666C441.254 301.28 440.225 303.47 440.225 305.753C440.225 328.278 430.064 349.88 411.978 365.808C393.892 381.735 369.363 390.683 343.786 390.683C318.208 390.683 293.678 381.735 275.593 365.808C257.507 349.88 247.346 328.278 247.346 305.753C247.346 303.47 246.316 301.28 244.483 299.666C242.649 298.052 240.163 297.145 237.57 297.145C234.978 297.145 232.491 298.052 230.658 299.666C228.824 301.28 227.795 303.47 227.795 305.753C227.782 318.851 224.328 331.769 217.705 343.496C211.083 355.223 201.469 365.443 189.617 373.356C177.766 381.268 163.996 386.66 149.385 389.109C134.775 391.558 119.719 390.998 105.395 387.471C85.1366 382.481 67.2853 371.796 54.5612 357.043C41.8374 342.29 34.9386 324.279 34.9161 305.753V184.506L83.7293 33.0238H816.271L865.085 184.506V305.753Z" fill="black"/>
</svg>
