<svg viewBox="0 0 900 780" xmlns="http://www.w3.org/2000/svg">
<path d="M446.022 0.255615C426.317 0.273019 407.393 8.11321 393.46 22.046C379.527 35.9795 371.688 54.8846 371.67 74.5896V74.6082V327.224H78.8339C57.9309 327.224 37.8788 335.539 23.0975 350.322C8.31642 365.103 0 385.174 0 406.077C0 426.98 8.31642 447.032 23.0975 461.813C37.8785 476.594 57.9304 484.911 78.8339 484.911H75.0622L109.643 672.884L113.06 691.089C117.636 715.955 130.778 738.459 150.199 754.649C169.619 770.84 194.096 779.717 219.379 779.744H219.399H680.601H680.621C705.904 779.717 730.381 770.84 749.801 754.649C769.222 738.459 782.364 715.955 786.94 691.089L790.357 672.884L824.938 484.873H821.166C842.07 484.873 862.122 476.557 876.903 461.776C891.683 446.995 900 426.943 900 406.039C900 385.136 891.683 365.066 876.903 350.284C862.122 335.503 842.07 327.187 821.166 327.187H806.826V327.224H528.329V74.5896C528.306 54.8877 520.451 35.9769 506.52 22.046C492.589 8.11515 473.697 0.278819 453.995 0.255615H453.976H446.022ZM446.022 44.9008H453.977C461.856 44.915 469.392 48.0485 474.964 53.6207C480.535 59.1912 483.67 66.7287 483.684 74.6082V327.224H416.315V74.6082C416.329 66.7287 419.464 59.1912 425.035 53.6207C430.607 48.0485 438.143 44.915 446.022 44.9008ZM78.8339 371.869H245.091L300.94 440.266H78.8526H78.8339C69.7654 440.25 61.0846 436.651 54.6721 430.239C48.324 423.891 44.787 415.308 44.7012 406.338V406.077C44.7111 397.009 48.3012 388.33 54.7095 381.915C61.1097 375.508 69.7795 371.899 78.8339 371.869V371.869ZM302.695 371.869H394.002H597.304L469.68 528.268C467.296 531.188 464.29 533.542 460.885 535.158C457.484 536.768 453.762 537.604 450 537.604C446.237 537.604 442.516 536.768 439.114 535.158H439.095C435.695 533.542 432.7 531.184 430.319 528.268L302.695 371.869ZM654.852 371.869H821.109C830.182 371.869 838.874 375.48 845.29 381.896C851.706 388.312 855.298 397.004 855.298 406.077C855.298 415.151 851.706 423.823 845.29 430.239C838.874 436.655 830.182 440.266 821.109 440.266V456.193H821.09V440.266H599.041L654.852 371.869ZM120.529 484.911H337.388L395.794 556.5C402.365 564.548 410.642 571.034 420.031 575.489C429.42 579.945 439.682 582.249 450.074 582.249C460.466 582.249 470.729 579.945 480.118 575.489C489.506 571.034 497.783 564.55 504.354 556.5L562.761 484.911H779.582L771.572 528.043H613.493C607.577 528.043 601.897 530.397 597.715 534.579V534.598C593.538 538.777 591.18 544.46 591.18 550.376C591.18 556.292 593.536 561.972 597.715 566.154C601.9 570.338 607.582 572.689 613.493 572.689H763.393L749.837 646.388H530.495C524.579 646.388 518.899 648.741 514.717 652.923C510.533 657.108 508.182 662.789 508.182 668.701C508.182 674.613 510.535 680.316 514.717 684.498C518.899 688.68 524.579 691.033 530.495 691.033H740.109C736.404 702.289 730.444 712.689 721.25 720.349C709.822 729.871 695.422 735.082 680.545 735.081H219.398C204.522 735.082 190.123 729.872 178.693 720.349C169.499 712.689 163.539 702.289 159.834 691.033H369.504C375.42 691.033 381.1 688.68 385.282 684.498C389.464 680.316 391.817 674.613 391.817 668.701C391.817 662.789 389.466 657.108 385.282 652.923C381.1 648.741 375.42 646.388 369.504 646.388H150.162L136.606 572.689H286.506C292.417 572.689 298.099 570.341 302.284 566.153C306.466 561.971 308.819 556.292 308.819 550.375C308.819 544.466 306.456 538.776 302.284 534.597C298.101 530.411 292.422 528.043 286.506 528.043H128.465L120.529 484.911ZM821.161 341.571H513.983V74.6058C513.964 58.6958 507.636 43.4426 496.385 32.1931C485.136 20.9431 469.883 14.6146 453.973 14.5958H446.026C430.114 14.6099 414.859 20.9369 403.609 32.1874C392.358 43.4387 386.031 58.6939 386.016 74.6058V341.571H78.8376C61.7318 341.571 45.3267 348.366 33.2311 360.462C21.1355 372.558 14.3402 388.963 14.3402 406.068C14.3402 423.174 21.1355 439.579 33.2311 451.675C45.3267 463.77 61.7318 470.565 78.8376 470.565H86.9974L123.752 670.267L127.158 688.502C131.128 710.076 142.527 729.579 159.377 743.625C176.225 757.672 197.461 765.376 219.398 765.399H680.601C702.538 765.376 723.774 757.672 740.623 743.625C757.472 729.579 768.871 710.076 772.841 688.502L776.248 670.267L813.002 470.53H821.161C838.267 470.53 854.672 463.735 866.768 451.639C878.863 439.544 885.659 423.139 885.659 406.033C885.659 388.927 878.863 372.522 866.768 360.426C854.672 348.33 838.267 341.535 821.161 341.535V341.571ZM401.981 74.6058C401.995 62.9281 406.64 51.7331 414.898 43.477C423.155 35.2199 434.349 30.5746 446.026 30.5605H453.973C465.65 30.5746 476.844 35.2199 485.102 43.477C493.359 51.7331 498.004 62.9281 498.018 74.6058V341.571H401.981V74.6058ZM393.999 357.536H627.51L480.794 537.334C477.065 541.901 472.368 545.581 467.042 548.109C461.716 550.636 455.895 551.947 450 551.947C444.104 551.947 438.283 550.636 432.957 548.109C427.631 545.581 422.934 541.901 419.205 537.334L272.489 357.536H393.999ZM30.3582 406.068C30.3722 393.21 35.4826 380.882 44.5697 371.785C53.6569 362.688 65.9795 357.563 78.8376 357.536H251.895L331.151 454.601H78.8376C65.9703 454.587 53.634 449.469 44.5354 440.371C35.4368 431.272 30.319 418.936 30.3049 406.068H30.3582ZM783.485 542.389H613.496C611.379 542.389 609.348 543.23 607.851 544.727C606.355 546.225 605.514 548.254 605.514 550.372C605.514 552.488 606.355 554.519 607.851 556.016C609.348 557.513 611.379 558.354 613.496 558.354H780.611L761.772 660.724H530.497C528.38 660.724 526.35 661.564 524.853 663.061C523.356 664.558 522.515 666.589 522.515 668.705C522.515 670.823 523.356 672.853 524.853 674.35C526.35 675.847 528.38 676.688 530.497 676.688H758.828L757.196 685.557C753.905 703.485 744.435 719.693 730.43 731.36C716.427 743.028 698.775 749.417 680.547 749.416H219.398C201.171 749.417 183.52 743.028 169.515 731.36C155.511 719.693 146.04 703.485 142.749 685.557L141.118 676.688H369.502C371.619 676.688 373.649 675.847 375.146 674.35C376.643 672.853 377.484 670.823 377.484 668.705C377.484 666.589 376.643 664.558 375.146 663.061C373.649 661.564 371.619 660.724 369.502 660.724H138.227L119.388 558.354H286.503C288.62 558.354 290.651 557.513 292.147 556.016C293.644 554.519 294.485 552.488 294.485 550.372C294.485 548.254 293.644 546.225 292.147 544.727C290.651 543.23 288.62 542.389 286.503 542.389H116.515L103.3 470.565H344.189L406.895 547.427C412.122 553.83 418.707 558.99 426.175 562.534C433.642 566.078 441.805 567.917 450.07 567.917C458.336 567.917 466.498 566.078 473.966 562.534C481.433 558.99 488.019 553.83 493.246 547.427L555.952 470.565H796.842L783.485 542.389ZM821.09 454.601H568.848L648.051 357.536H821.109C833.979 357.536 846.324 362.649 855.426 371.751C864.528 380.852 869.641 393.197 869.641 406.068C869.641 418.94 864.528 431.285 855.426 440.386C846.324 449.488 833.979 454.601 821.109 454.601" fill="black"/>
</svg>
