<?xml version="1.0" encoding="UTF-8" standalone="no"?>
<svg
   width="1000"
   height="1000"
   viewBox="0 0 1000 1000"
   fill="none"
   version="1.1"
   id="svg136"
   sodipodi:docname="mesProduits.svg"
   inkscape:version="1.2.1 (9c6d41e, 2022-07-14)"
   xmlns:inkscape="http://www.inkscape.org/namespaces/inkscape"
   xmlns:sodipodi="http://sodipodi.sourceforge.net/DTD/sodipodi-0.dtd"
   xmlns="http://www.w3.org/2000/svg"
   xmlns:svg="http://www.w3.org/2000/svg">
  <sodipodi:namedview
     id="namedview4993"
     pagecolor="#ffffff"
     bordercolor="#111111"
     borderopacity="1"
     inkscape:showpageshadow="0"
     inkscape:pageopacity="0"
     inkscape:pagecheckerboard="1"
     inkscape:deskcolor="#d1d1d1"
     showgrid="false"
     inkscape:zoom="2.894477"
     inkscape:cx="46.813293"
     inkscape:cy="40.767296"
     inkscape:window-width="1309"
     inkscape:window-height="456"
     inkscape:window-x="198"
     inkscape:window-y="1191"
     inkscape:window-maximized="0"
     inkscape:current-layer="svg136" />
  <defs
     id="defs140" />
  <g
     id="g2008"
     transform="matrix(9.5601564,0,0,9.5601564,50.000001,110.25558)">
    <path
       id="path134"
       style="color:#000000;fill:#000000;stroke-miterlimit:10;-inkscape-stroke:none"
       d="M 46.654297,0 C 44.593119,0.00182043 42.613623,0.82191103 41.15625,2.2792969 39.698798,3.736749 38.878811,5.7142364 38.876953,7.7753906 v 0.00195 26.4238284 H 8.2460938 c -2.1864767,0 -4.2839449,0.869772 -5.8300782,2.416015 C 0.86990392,38.163287 0,40.262754 0,42.449219 c 0,2.186542 0.86990392,4.283978 2.4160156,5.830078 1.5461008,1.546088 3.6435456,2.416016 5.8300782,2.416015 H 7.8515625 l 3.6171875,19.66211 0.357422,1.904297 c 0.478668,2.601037 1.853312,4.954926 3.884766,6.648437 2.031384,1.693551 4.591657,2.622119 7.236328,2.625 h 0.002 48.242187 0.002 c 2.644671,-0.0029 5.204944,-0.931449 7.236328,-2.625 2.031454,-1.693511 3.406098,-4.0474 3.884766,-6.648437 l 0.357422,-1.904297 3.617187,-19.666016 h -0.394531 c 2.186548,0 4.283982,-0.869919 5.830078,-2.416015 1.546097,-1.546097 2.416016,-3.64353 2.416016,-5.830079 0,-2.18647 -0.869968,-4.285861 -2.416016,-5.832031 -1.546096,-1.546096 -3.64353,-2.416015 -5.830078,-2.416015 h -1.5 v 0.0039 H 55.263672 V 7.7753906 C 55.261195,5.714557 54.439602,3.7364765 52.982422,2.2792969 51.525189,0.82211364 49.54912,0.00242714 47.488281,0 h -0.002 z m 0,4.6699219 h 0.832031 c 0.824184,0.00149 1.612458,0.3292552 2.195313,0.9121093 0.582741,0.5826741 0.910602,1.3711045 0.912109,2.1953125 V 34.201172 H 43.546875 V 7.7773437 c 0.0015,-0.824208 0.329368,-1.6126384 0.912109,-2.1953125 0.582855,-0.5828541 1.371129,-0.9106228 2.195313,-0.9121093 z M 8.2460938,38.871094 H 25.636719 l 5.841797,7.154297 H 8.2480469 8.2460938 c -0.9485737,-0.0016 -1.8565912,-0.37809 -2.5273438,-1.048829 -0.6640246,-0.66401 -1.0339946,-1.561715 -1.0429688,-2.5 v -0.02734 c 0.00104,-0.948484 0.3765638,-1.856342 1.046875,-2.527344 0.6694627,-0.670223 1.5763362,-1.04771 2.5234376,-1.050781 z m 23.4160152,0 h 9.550782 21.265625 l -13.34961,16.359375 c -0.249407,0.305491 -0.563771,0.551674 -0.919922,0.720703 -0.355838,0.168501 -0.745089,0.255859 -1.138672,0.255859 -0.393582,0 -0.782833,-0.08736 -1.138671,-0.255859 h -0.002 C 45.57407,55.782163 45.260752,55.535559 45.011673,55.230469 Z m 36.835938,0 h 17.390625 c 0.949062,0 1.858252,0.377713 2.529297,1.048828 0.671115,0.671044 1.046875,1.580235 1.046875,2.529297 0,0.949191 -0.37576,1.856299 -1.046875,2.527343 -0.671045,0.671116 -1.580235,1.048829 -2.529297,1.048829 v 1.666015 h -0.002 V 46.025391 H 62.660156 Z M 12.607422,50.695312 h 22.683594 l 6.109375,7.488282 c 0.687359,0.841851 1.553078,1.520246 2.535156,1.986328 0.982076,0.46608 2.055564,0.707031 3.142578,0.707031 1.087014,0 2.160502,-0.240951 3.142578,-0.707031 0.982033,-0.46606 1.84779,-1.144314 2.535156,-1.986328 l 6.109375,-7.488282 h 22.679688 l -0.837891,4.511719 H 64.171875 c -0.618791,0 -1.212935,0.246138 -1.650391,0.683594 v 0.002 c -0.436913,0.437192 -0.683593,1.0316 -0.683593,1.650391 0,0.61887 0.246455,1.212972 0.683593,1.65039 0.437682,0.437682 1.032052,0.683594 1.650391,0.683594 h 15.679687 l -1.417968,7.708984 h -22.94336 c -0.61887,0 -1.212935,0.246139 -1.65039,0.683594 -0.437682,0.437682 -0.683594,1.031973 -0.683594,1.650391 0,0.618339 0.246138,1.214888 0.683594,1.652344 0.437455,0.437455 1.03152,0.683593 1.65039,0.683593 h 21.925782 c -0.387538,1.177341 -1.010955,2.265218 -1.972657,3.066407 -1.195453,0.996075 -2.701665,1.541097 -4.257812,1.541015 H 22.949219 c -1.556029,8.2e-5 -3.062231,-0.544901 -4.257813,-1.541015 -0.961659,-0.801208 -1.585099,-1.889077 -1.972656,-3.066407 h 21.931641 c 0.61887,0 1.212935,-0.246138 1.65039,-0.683593 0.437456,-0.437456 0.683594,-1.034005 0.683594,-1.652344 0,-0.618418 -0.245912,-1.212709 -0.683594,-1.650391 -0.437455,-0.437455 -1.03152,-0.683593 -1.65039,-0.683594 H 15.707031 L 14.289063,59.876953 H 29.96875 c 0.618339,0 1.212593,-0.245516 1.650391,-0.683594 0.437455,-0.437455 0.683593,-1.03152 0.683593,-1.65039 0,-0.618166 -0.247189,-1.213284 -0.683593,-1.650391 -0.437572,-0.437852 -1.0316,-0.685547 -1.650391,-0.685547 H 13.4375 Z M 85.89411,35.70189 H 53.76301 V 7.77709 c -0.002,-1.6642 -0.6639,-3.2597 -1.8407,-4.4364 C 50.74561,2.16393 49.15011,1.50196 47.48591,1.5 h -0.8312 c -1.6644,0.00147 -3.2601,0.66328 -4.4369,1.84009 -1.1769,1.1769 -1.8387,2.7726 -1.8402,4.437 v 27.9248 H 8.24648 c -1.78928,0 -3.50527,0.7107 -4.77048,1.976 -1.26521,1.2652 -1.976,2.9812 -1.976,4.7704 0,1.7893 0.71079,3.5053 1.976,4.7705 1.26521,1.2652 2.9812,1.976 4.77048,1.976 H 9.1 l 3.84451,20.8889 0.3563,1.9074 c 0.4153,2.2567 1.6076,4.2967 3.3701,5.766 1.7624,1.4693 3.9837,2.2751 6.2783,2.2775 h 48.2422 c 2.2946,-0.0024 4.5159,-0.8082 6.2783,-2.2775 1.7625,-1.4693 2.9548,-3.5093 3.3701,-5.766 l 0.3563,-1.9074 3.8445,-20.8926 h 0.8535 c 1.7893,0 3.5053,-0.7108 4.7705,-1.976 1.2652,-1.2652 1.976,-2.9812 1.976,-4.7705 0,-1.7892 -0.7108,-3.5052 -1.976,-4.7705 -1.2652,-1.2652 -2.9812,-1.976 -4.7705,-1.976 z M 42.04751,7.77709 c 0.0015,-1.2215 0.4874,-2.3925 1.3511,-3.2561 0.8637,-0.8637 2.0346,-1.3496 3.2561,-1.35107 h 0.8312 c 1.2215,0.00147 2.3924,0.48737 3.2561,1.35107 0.8637,0.8636 1.3496,2.0346 1.3511,3.2561 v 27.9248 h -10.0456 z m -0.8349,29.5947 h 24.4254 l -15.3466,18.807 c -0.39,0.4777 -0.8813,0.8627 -1.4384,1.1271 -0.5571,0.2643 -1.166,0.4015 -1.7827,0.4015 -0.6167,0 -1.2256,-0.1372 -1.7827,-0.4015 -0.5571,-0.2644 -1.0484,-0.6494 -1.4384,-1.1271 l -15.3466,-18.807 z m -38.03712,5.0765 c 0.00147,-1.3449 0.53602,-2.6345 1.48654,-3.586 0.95052,-0.9516 2.23948,-1.4876 3.58445,-1.4905 h 18.10193 l 8.2903,10.1531 H 8.24648 c -1.34593,-0.0015 -2.63632,-0.5368 -3.58804,-1.4885 -0.95172,-0.9517 -1.48705,-2.2421 -1.48852,-3.5881 z m 78.77762,14.2593 h -17.7809 c -0.2215,0 -0.4339,0.088 -0.5905,0.2446 -0.1565,0.1566 -0.2445,0.3689 -0.2445,0.5904 0,0.2214 0.088,0.4338 0.2445,0.5904 0.1566,0.1566 0.369,0.2445 0.5905,0.2445 h 17.4803 l -1.9705,10.708 h -24.1916 c -0.2214,0 -0.4338,0.0879 -0.5904,0.2445 -0.1566,0.1566 -0.2445,0.369 -0.2445,0.5904 0,0.2215 0.0879,0.4338 0.2445,0.5904 0.1566,0.1566 0.369,0.2446 0.5904,0.2446 h 23.8836 l -0.1707,0.9277 c -0.3442,1.8753 -1.3348,3.5706 -2.7997,4.791 -1.4648,1.2205 -3.3112,1.8888 -5.2178,1.8887 h -48.2366 c -1.9066,10e-5 -3.7529,-0.6682 -5.2178,-1.8887 -1.4648,-1.2204 -2.4555,-2.9157 -2.7997,-4.791 l -0.1707,-0.9277 h 23.8892 c 0.2214,0 0.4338,-0.088 0.5904,-0.2446 0.1566,-0.1566 0.2445,-0.3689 0.2445,-0.5904 0,-0.2214 -0.0879,-0.4338 -0.2445,-0.5904 -0.1566,-0.1566 -0.369,-0.2445 -0.5904,-0.2445 h -24.1916 l -1.9705,-10.708 h 17.4803 c 0.2215,0 0.4339,-0.0879 0.5904,-0.2445 0.1566,-0.1566 0.2446,-0.369 0.2446,-0.5904 0,-0.2215 -0.088,-0.4338 -0.2446,-0.5904 -0.1565,-0.1566 -0.3689,-0.2446 -0.5904,-0.2446 h -17.7809 l -1.3823,-7.5128 h 25.1972 l 6.5591,8.0398 c 0.5468,0.6697 1.2356,1.2095 2.0167,1.5802 0.7811,0.3707 1.6349,0.563 2.4995,0.563 0.8646,0 1.7184,-0.1923 2.4995,-0.563 0.7811,-0.3707 1.47,-0.9105 2.0167,-1.5802 l 6.5591,-8.0398 h 25.1973 z m 3.9336,-9.1827 h -26.3848 l 8.2847,-10.1531 h 18.102 c 1.3463,0 2.6376,0.5348 3.5896,1.4869 0.9521,0.952 1.4869,2.2433 1.4869,3.5896 0,1.3464 -0.5348,2.6377 -1.4869,3.5897 -0.952,0.9521 -2.2433,1.4869 -3.5896,1.4869" />
  </g>
</svg>
