<?xml version="1.0" encoding="UTF-8" standalone="no"?>
<svg
   width="1000"
   height="1000"
   viewBox="0 0 1000 1000"
   fill="none"
   version="1.1"
   id="svg182"
   sodipodi:docname="mesServices.svg"
   inkscape:version="1.2.1 (9c6d41e, 2022-07-14)"
   xmlns:inkscape="http://www.inkscape.org/namespaces/inkscape"
   xmlns:sodipodi="http://sodipodi.sourceforge.net/DTD/sodipodi-0.dtd"
   xmlns="http://www.w3.org/2000/svg"
   xmlns:svg="http://www.w3.org/2000/svg">
  <sodipodi:namedview
     id="namedview5122"
     pagecolor="#ffffff"
     bordercolor="#111111"
     borderopacity="1"
     inkscape:showpageshadow="0"
     inkscape:pageopacity="0"
     inkscape:pagecheckerboard="1"
     inkscape:deskcolor="#d1d1d1"
     showgrid="false"
     inkscape:zoom="2.5888934"
     inkscape:cx="45.772452"
     inkscape:cy="46.544983"
     inkscape:window-width="1309"
     inkscape:window-height="763"
     inkscape:window-x="210"
     inkscape:window-y="1143"
     inkscape:window-maximized="0"
     inkscape:current-layer="svg182" />
  <defs
     id="defs186" />
  <g
     id="g2082"
     transform="matrix(10.012159,0,0,10.012159,50.000004,43.654588)">
    <g
       id="path132" />
    <path
       id="path180"
       style="color:#000000;fill:#000000;stroke-miterlimit:10;-inkscape-stroke:none"
       d="M 10.005859,0 C 9.8283355,0 9.6521819,0.0356728 9.4882813,0.10351562 9.3243638,0.1714311 9.1763124,0.27096905 9.0507813,0.39648438 8.9255669,0.52182557 8.8258066,0.66982941 8.7578125,0.83398438 8.6898486,0.99805058 8.6542969,1.1741528 8.6542969,1.3515625 v 3.8398437 c -2.198e-4,0.1773646 0.034043,0.3520611 0.1015625,0.515625 0.067919,0.1645327 0.1674963,0.3139173 0.2929687,0.4394532 0.1257306,0.1257782 0.2752688,0.2251355 0.4394532,0.2929687 0.1636097,0.067515 0.3404672,0.103642 0.5175777,0.1035156 6.45e-4,1.4e-6 0.0013,-4e-7 0.002,0 0.177067,1.258e-4 0.352017,-0.036002 0.515625,-0.1035156 0.164184,-0.067833 0.313722,-0.1671905 0.439453,-0.2929687 0.125472,-0.1255359 0.225049,-0.2749205 0.292968,-0.4394532 0.06777,-0.1641604 0.10204,-0.3395529 0.101563,-0.5175781 V 1.3515625 c 0,-0.1774097 -0.03555,-0.35351192 -0.103516,-0.51757812 -0.06789,-0.16390058 -0.167357,-0.31192064 -0.292968,-0.4375 C 10.835406,0.27096905 10.687355,0.1714311 10.523438,0.10351562 10.359537,0.0356728 10.183342,0 10.005859,0 Z m 0,1 c 0.04612,0 0.09187,0.00959 0.134766,0.027344 0.04268,0.017684 0.08061,0.043507 0.113281,0.076172 0.03259,0.032581 0.05846,0.070522 0.07617,0.1132813 0.01764,0.042574 0.02734,0.088495 0.02734,0.1347656 v 3.8398437 c 1.23e-4,0.045795 -0.0078,0.092046 -0.02539,0.1347657 -0.01748,0.042347 -0.04344,0.080537 -0.07617,0.1132812 -0.03247,0.032482 -0.07262,0.058565 -0.115234,0.076172 -0.0428,0.01766 -0.08674,0.027443 -0.132812,0.027344 v 0.5 l -0.002,-0.5 C 9.9596251,5.5430678 9.9138901,5.5332852 9.8710938,5.515625 9.828981,5.498226 9.7900442,5.4713969 9.7578125,5.4394531 9.7250851,5.4067092 9.6991215,5.368519 9.6816406,5.3261719 9.6640061,5.2834525 9.6541741,5.2372008 9.6542969,5.1914062 V 1.3515625 c 0,-0.04627 0.00971,-0.092192 0.027344,-0.1347656 0.017606,-0.042505 0.043387,-0.080463 0.076172,-0.1132813 0.032669,-0.032664 0.070599,-0.058487 0.1132813,-0.076172 C 9.9139929,1.0095867 9.9595835,1 10.005859,1 Z m 1.51e-4,5.04229 c 0.1119,2.4e-4 0.2227,-0.02162 0.3262,-0.06433 0.1034,-0.04272 0.1974,-0.10544 0.2765,-0.18457 0.0791,-0.07914 0.1419,-0.17312 0.1846,-0.27656 0.0427,-0.10344 0.0646,-0.21429 0.0643,-0.3262 V 1.35166 c 0,-0.11184 -0.022,-0.22259 -0.0648,-0.32591 -0.0428,-0.10333 -0.1055,-0.19722 -0.1846,-0.2763 -0.0791,-0.07909 -0.173,-0.14182 -0.2763,-0.18462 C 10.22851,0.52203 10.11781,0.5 10.00601,0.5 c -0.1119,0 -0.2226,0.02203 -0.326,0.06483 -0.1033,0.0428 -0.1972,0.10553 -0.2763,0.18462 -0.079,0.07908 -0.1418,0.17297 -0.1846,0.2763 -0.0428,0.10332 -0.0648,0.21407 -0.0648,0.32591 v 3.83897 c -3e-4,0.11191 0.0216,0.22276 0.0643,0.3262 0.0427,0.10344 0.1055,0.19742 0.1846,0.27656 0.0791,0.07913 0.1731,0.14185 0.2765,0.18457 0.1035,0.04271 0.2143,0.06457 0.3263,0.06433 z m 4.814303,2.6120069 c -0.35826,0 -0.701733,0.1411852 -0.955079,0.3945312 -0.253346,0.253346 -0.396484,0.5986659 -0.396484,0.9570309 0,0.358407 0.143212,0.701806 0.396484,0.955079 0.253358,0.253516 0.596819,0.396484 0.955079,0.396484 h 3.841796 c 0.358259,0 0.70172,-0.142968 0.955078,-0.396484 0.253517,-0.253359 0.396485,-0.59682 0.396485,-0.955079 0,-0.3582173 -0.142894,-0.703599 -0.396485,-0.9570309 -0.253346,-0.253346 -0.596819,-0.3945312 -0.955078,-0.3945312 z m 0,1 h 3.841796 c 0.09354,0 0.181994,0.035509 0.248047,0.1015625 v 0.00195 c 0.06601,0.065968 0.103516,0.154665 0.103516,0.2480466 0,0.09354 -0.03743,0.182006 -0.103516,0.248047 -0.06604,0.06608 -0.154506,0.103516 -0.248047,0.103516 h -3.841796 c -0.09354,0 -0.182006,-0.03743 -0.248047,-0.103516 -0.06613,-0.06613 -0.103516,-0.154654 -0.103516,-0.248047 0,-0.093234 0.03746,-0.1839461 0.103516,-0.2499997 0.06605,-0.066054 0.154506,-0.1015625 0.248047,-0.1015625 z m 9.7e-5,1.2028431 h 3.8408 c 0.2259,0 0.4425,-0.0897 0.6022,-0.2495 0.1598,-0.1597 0.2495,-0.3763 0.2495,-0.6022 0,-0.2258 -0.0897,-0.4425 -0.2495,-0.6022 -0.1597,-0.1597 -0.3763,-0.2494 -0.6022,-0.2494 h -3.8408 c -0.2259,0 -0.4425,0.0897 -0.6022,0.2494 -0.1597,0.1597 -0.2495,0.3764 -0.2495,0.6022 0,0.2259 0.0898,0.4425 0.2495,0.6022 0.1597,0.1598 0.3763,0.2495 0.6022,0.2495 z m -4.814551,2.61161 c -0.1774342,0 -0.3536008,0.03564 -0.5175777,0.103516 -0.1640956,0.06799 -0.3120643,0.167533 -0.4375,0.292968 -0.1253945,0.125395 -0.2249779,0.273242 -0.2929688,0.4375 -0.067959,0.164023 -0.1035156,0.340144 -0.1035156,0.517579 v 3.841796 c 0,0.177394 0.035513,0.351497 0.1035156,0.515625 0.067989,0.164096 0.1677807,0.314107 0.2929688,0.439453 0.1255847,0.125585 0.2736588,0.225085 0.4375,0.292969 0.1637226,0.06777 0.3398457,0.103516 0.5175777,0.103516 0.358366,0 0.701777,-0.143342 0.955079,-0.396485 0.253346,-0.253346 0.396484,-0.596819 0.396484,-0.955078 v -3.841796 c 0,-0.177435 -0.03556,-0.353556 -0.103516,-0.517579 -0.06799,-0.164258 -0.167574,-0.312105 -0.292968,-0.4375 -0.125436,-0.125435 -0.273405,-0.224979 -0.4375,-0.292968 -0.163977,-0.06788 -0.340185,-0.103516 -0.517579,-0.103516 z m 0,1 c 0.04621,0 0.09194,0.0096 0.134766,0.02734 0.0425,0.01761 0.08052,0.04341 0.113281,0.07617 0.03261,0.0326 0.05856,0.07074 0.07617,0.113281 0.01764,0.04258 0.02734,0.0884 0.02734,0.134766 v 3.841796 c 0,0.09354 -0.03746,0.181994 -0.103516,0.248047 -0.0663,0.06626 -0.154812,0.103516 -0.248047,0.103516 -0.046067,0 -0.091688,-0.0095 -0.1347652,-0.02734 -0.042759,-0.01772 -0.080666,-0.04356 -0.1132813,-0.07617 -0.032812,-0.03285 -0.058561,-0.07273 -0.076172,-0.115234 -0.017597,-0.04247 -0.027344,-0.08661 -0.027344,-0.132813 v -3.841796 c 0,-0.04637 0.0097,-0.09219 0.027344,-0.134766 0.017609,-0.04254 0.043567,-0.08068 0.076172,-0.113281 0.032764,-0.03276 0.070777,-0.05856 0.1132813,-0.07617 0.042823,-0.01773 0.0884,-0.02734 0.1347652,-0.02734 z m 1.51e-4,5.04419 c 0.2258,0 0.4424,-0.0898 0.6022,-0.2495 0.1597,-0.1597 0.2494,-0.3763 0.2494,-0.6022 v -3.8408 c 0,-0.1119 -0.022,-0.2226 -0.0648,-0.3259 -0.0428,-0.1034 -0.1056,-0.1973 -0.1846,-0.2763 -0.0791,-0.0791 -0.173,-0.1419 -0.2763,-0.1847 -0.1034,-0.0428 -0.2141,-0.0648 -0.3259,-0.0648 -0.1119,0 -0.2226,0.022 -0.326,0.0648 -0.1033,0.0428 -0.1972,0.1056 -0.2763,0.1847 -0.079,0.079 -0.1418,0.1729 -0.1846,0.2763 -0.0428,0.1033 -0.0648,0.214 -0.0648,0.3259 v 3.8408 c 0,0.1118 0.022,0.2226 0.0648,0.3259 0.0428,0.1033 0.1056,0.1972 0.1846,0.2763 0.0791,0.0791 0.173,0.1418 0.2763,0.1846 0.1034,0.0428 0.2141,0.0649 0.326,0.0649 z M 1.3515625,8.6542969 c -0.1774097,0 -0.35352705,0.033611 -0.51757812,0.1015625 C 0.6700838,8.8237481 0.52206374,8.923217 0.39648438,9.0488281 0.27100871,9.1743355 0.17144164,9.3243383 0.10351562,9.4882813 0.03554451,9.652333 0,9.8283768 0,10.005859 c 0,0.177524 0.03558819,0.353632 0.10351562,0.517579 0.0679277,0.164105 0.16728659,0.311944 0.29296876,0.4375 0.12543039,0.125462 0.27334503,0.224974 0.4375,0.292968 0.16405107,0.06795 0.34016842,0.103516 0.51757812,0.103516 h 3.8378906 c 0.1774328,3.17e-4 0.3531481,-0.03368 0.5175781,-0.101563 v -0.002 c 0.1639744,-0.06785 0.3137486,-0.167312 0.4394532,-0.292968 0.1257633,-0.125716 0.2251273,-0.275052 0.2929687,-0.439454 0.067158,-0.163249 0.1036423,-0.339196 0.1035156,-0.515625 1.4e-6,-6.44e-4 -4e-7,-0.0013 0,-0.002 C 6.5430945,9.8268383 6.506967,9.6518889 6.4394531,9.4882813 6.3716131,9.3240421 6.2722477,9.1745438 6.1464844,9.0488281 6.0206913,8.9229238 5.8712989,8.823669 5.7070312,8.7558594 5.5434523,8.6883275 5.3687709,8.654077 5.1914062,8.6542969 Z m 0,1 h 3.8398437 c 0.045794,-1.228e-4 0.092081,0.00777 0.1347657,0.025391 0.042612,0.01759 0.080814,0.043676 0.1132812,0.076172 0.032497,0.032484 0.058592,0.072674 0.076172,0.1152344 0.017176,0.042275 0.027441,0.087379 0.027344,0.1328127 h 0.5 l -0.5,0.002 c 9.89e-5,0.04608 -0.00981,0.09232 -0.027344,0.134766 -0.017578,0.0426 -0.043675,0.0808 -0.076172,0.113281 -0.032555,0.03254 -0.070376,0.05842 -0.1132812,0.07617 -0.04243,0.01752 -0.088379,0.02743 -0.1347657,0.02734 H 1.3515625 c -0.04627,0 -0.092157,-0.0097 -0.1347656,-0.02734 -0.042505,-0.01761 -0.080552,-0.04343 -0.1132813,-0.07617 -0.032478,-0.03245 -0.0585,-0.07059 -0.076172,-0.113281 C 1.0096713,10.097972 1,10.052135 1,10.005859 1,9.959742 1.00971,9.913642 1.027344,9.8710938 1.045018,9.8284368 1.070832,9.7885518 1.103516,9.7558594 1.136097,9.7232704 1.174038,9.6973984 1.2167973,9.6796874 1.2594063,9.6620384 1.3052923,9.6542964 1.3515625,9.6542969 Z M 6.04229,10.00544 C 6.04253,9.89354 6.02067,9.78274 5.97796,9.67924 5.93524,9.57584 5.87252,9.48184 5.79339,9.40274 5.71426,9.32354 5.62027,9.26084 5.51683,9.21814 5.4134,9.17544 5.30254,9.15354 5.19063,9.15384 H 1.35166 c -0.11184,0 -0.22258,0.022 -0.32591,0.0648 -0.10333,0.0428 -0.19722,0.1055 -0.2763,0.1846 -0.07908,0.0791 -0.14182,0.173 -0.18462,0.2763 C 0.52203,9.78284 0.5,9.89364 0.5,10.00544 c 0,0.1119 0.02203,0.2226 0.06483,0.3259 0.0428,0.1034 0.10554,0.1973 0.18462,0.2763 0.07908,0.0791 0.17297,0.1419 0.2763,0.1847 0.10333,0.0428 0.21407,0.0648 0.32591,0.0648 h 3.83897 c 0.11191,2e-4 0.22277,-0.0216 0.3262,-0.0643 0.10344,-0.0428 0.19743,-0.1055 0.27656,-0.1846 0.07913,-0.0791 0.14185,-0.1731 0.18457,-0.2766 0.04271,-0.1034 0.06457,-0.2143 0.06433,-0.3262 z M 65.603516,81.3125 c -0.291334,4.96e-4 -0.571226,0.116148 -0.777344,0.322266 -0.20656,0.206559 -0.324219,0.487288 -0.324219,0.779296 v 1.703125 l 0.002,-0.01172 c -0.007,0.149151 0.01614,0.297778 0.06836,0.4375 0.05223,0.139749 0.131307,0.267018 0.234375,0.375 0.103119,0.108165 0.227988,0.193281 0.365234,0.251953 0.137285,0.05887 0.284328,0.08984 0.433594,0.08984 0.149195,0 0.29628,-0.03101 0.433593,-0.08984 0.137115,-0.05867 0.262115,-0.143788 0.365235,-0.251953 0.103068,-0.107982 0.182147,-0.235251 0.234375,-0.375 0.05243,-0.139954 0.07534,-0.288493 0.06836,-0.4375 l 0.002,0.01172 v -1.703125 c 0,-0.144737 -0.03021,-0.289824 -0.08594,-0.423828 -0.05552,-0.133941 -0.135741,-0.255139 -0.238281,-0.357422 -0.102518,-0.102388 -0.22537,-0.183049 -0.359375,-0.238281 -0.133298,-0.05499 -0.275551,-0.08216 -0.419922,-0.08203 -6.47e-4,10e-7 -0.0013,-2e-6 -0.002,0 z m 0.002,0.5 c 0.07897,-2.12e-4 0.157364,0.01476 0.230468,0.04492 0.07319,0.03017 0.139431,0.07309 0.195313,0.128906 v 0.002 c 0.05606,0.05592 0.100577,0.120301 0.130859,0.19336 v 0.002 c 0.03027,0.0728 0.04687,0.151207 0.04687,0.230468 v 1.708985 0.0059 c 0.0038,0.08159 -0.0105,0.162036 -0.03906,0.238281 -0.02857,0.07645 -0.07062,0.146061 -0.126953,0.205079 h -0.002 c -0.05628,0.05903 -0.12218,0.106543 -0.197266,0.138671 -0.07509,0.03217 -0.156677,0.04883 -0.238281,0.04883 -0.08173,0 -0.161414,-0.0167 -0.236328,-0.04883 h -0.002 c -0.07515,-0.03213 -0.140985,-0.07964 -0.197265,-0.138671 h -0.002 c -0.05633,-0.05902 -0.09838,-0.128628 -0.126953,-0.205079 -0.02858,-0.07648 -0.04288,-0.156832 -0.03906,-0.238281 v -0.0059 -1.708985 c 0,-0.15959 0.06489,-0.312941 0.177734,-0.425781 0.11284,-0.11284 0.266191,-0.175781 0.425782,-0.175781 z m -10e-4,-0.25096 c -0.2258,0 -0.4425,0.0897 -0.6022,0.2494 -0.1597,0.1597 -0.2494,0.3764 -0.2494,0.6022 v 1.7034 c -0.0054,0.1153 0.0127,0.2305 0.0531,0.3386 0.0404,0.1081 0.1023,0.2069 0.182,0.2904 0.0797,0.0836 0.1755,0.15 0.2817,0.1954 0.1061,0.0455 0.2203,0.0689 0.3358,0.0689 0.1154,0 0.2296,-0.0234 0.3358,-0.0689 0.1061,-0.0454 0.2019,-0.1118 0.2816,-0.1954 0.0797,-0.0835 0.1416,-0.1823 0.182,-0.2904 0.0405,-0.1081 0.0585,-0.2233 0.0531,-0.3386 v -1.7034 c 0,-0.112 -0.022,-0.2229 -0.065,-0.3263 -0.0429,-0.1035 -0.1058,-0.1974 -0.1851,-0.2765 -0.0792,-0.0791 -0.1733,-0.1418 -0.2769,-0.1845 -0.1035,-0.0427 -0.2145,-0.0646 -0.3265,-0.0643 z m 2.137677,3.590804 c -0.292079,0 -0.572767,0.115607 -0.779296,0.322265 -0.206659,0.206529 -0.322266,0.487218 -0.322266,0.779297 0,0.292009 0.11557,0.572731 0.322266,0.779297 0.206523,0.206523 0.487217,0.322266 0.779296,0.322266 h 1.703125 c 0.29208,0 0.572774,-0.115743 0.779297,-0.322266 0.206523,-0.206523 0.322266,-0.487214 0.322266,-0.779297 0,-0.292153 -0.11578,-0.572811 -0.322266,-0.779297 -0.206529,-0.206658 -0.487217,-0.322265 -0.779297,-0.322265 z m 0,0.5 h 1.703125 c 0.159721,0 0.312911,0.06284 0.425782,0.175781 0.112913,0.112914 0.175781,0.266135 0.175781,0.425781 0,0.159517 -0.0629,0.312905 -0.175781,0.425781 -0.112877,0.112877 -0.266061,0.175782 -0.425782,0.175782 h -1.703125 c -0.15972,0 -0.312904,-0.06291 -0.425781,-0.175782 -0.112904,-0.112833 -0.175781,-0.26619 -0.175781,-0.425781 0,-0.15972 0.06284,-0.31291 0.175781,-0.425781 0.112871,-0.112941 0.266061,-0.175781 0.425781,-0.175781 z M 69.44561,85.40234 h -1.7033 c -0.2259,0 -0.4425,0.0897 -0.6022,0.2495 -0.1598,0.1597 -0.2495,0.3763 -0.2495,0.6022 0,0.2258 0.0897,0.4425 0.2495,0.6022 0.1597,0.1597 0.3763,0.2494 0.6022,0.2494 h 1.7033 c 0.2259,0 0.4425,-0.0897 0.6022,-0.2494 0.1597,-0.1597 0.2495,-0.3764 0.2495,-0.6022 0,-0.2259 -0.0898,-0.4425 -0.2495,-0.6022 -0.1597,-0.1598 -0.3763,-0.2495 -0.6022,-0.2495 z m -3.840141,1.884769 c -0.292236,6.47e-4 -0.57294,0.117475 -0.779297,0.324219 -0.206267,0.206784 -0.322266,0.489029 -0.322266,0.78125 v 1.708984 0.0059 c 0.01319,0.283371 0.134557,0.550244 0.339844,0.746094 0.205242,0.195936 0.480011,0.304687 0.763672,0.304687 0.283661,0 0.556476,-0.108751 0.761719,-0.304687 0.205325,-0.195887 0.326535,-0.462875 0.339843,-0.746094 v -0.0059 -1.708984 c 0,-0.29258 -0.115349,-0.574334 -0.322265,-0.78125 -0.206874,-0.206744 -0.488667,-0.324219 -0.78125,-0.324219 z m 0,0.5 c 0.160016,0 0.314408,0.06448 0.427734,0.177735 0.113283,0.113283 0.175781,0.267515 0.175781,0.427734 v 1.691406 c -0.0073,0.15518 -0.07327,0.30109 -0.185547,0.408203 -0.112357,0.107263 -0.260676,0.166016 -0.416015,0.166016 -0.155339,0 -0.305612,-0.05875 -0.417969,-0.166016 -0.112313,-0.107149 -0.178333,-0.253174 -0.185547,-0.408203 v -1.691406 c 0,-0.159979 0.06285,-0.314519 0.175781,-0.427734 0.113043,-0.113255 0.265818,-0.177381 0.425782,-0.177735 z m 1.41e-4,-0.249069 c -0.2261,5e-4 -0.4427,0.0907 -0.6024,0.2507 -0.1596,0.16 -0.2493,0.3768 -0.2493,0.6029 v 1.7033 c 0.0102,0.2192 0.1045,0.4261 0.2633,0.5776 0.1588,0.1516 0.3698,0.2361 0.5893,0.2361 0.2195,0 0.4305,-0.0845 0.5893,-0.2361 0.1588,-0.1515 0.253,-0.3584 0.2633,-0.5776 v -1.7033 c 0,-0.2264 -0.0899,-0.4435 -0.25,-0.6036 -0.1601,-0.16 -0.3772,-0.25 -0.6035,-0.25 z m -3.841938,-2.385696 c -0.29208,0 -0.572768,0.115607 -0.779297,0.322265 -0.206658,0.206529 -0.322266,0.487218 -0.322266,0.779297 0,0.292009 0.115571,0.572731 0.322266,0.779297 0.206523,0.206523 0.487217,0.322266 0.779297,0.322266 h 1.705078 c 0.292079,0 0.572709,-0.115808 0.779297,-0.322266 0.20656,-0.20656 0.322265,-0.487288 0.322265,-0.779297 0,-0.292079 -0.115742,-0.572774 -0.322265,-0.779297 -0.206594,-0.206593 -0.487218,-0.322265 -0.779297,-0.322265 z m 0,0.5 h 1.705078 c 0.15972,0 0.312775,0.06278 0.425781,0.175781 0.112877,0.112877 0.175781,0.266061 0.175781,0.425781 0,0.159591 -0.06294,0.312942 -0.175781,0.425781 -0.113012,0.112942 -0.266061,0.175782 -0.425781,0.175782 h -1.705078 c -0.15972,0 -0.312905,-0.06291 -0.425781,-0.175782 -0.112905,-0.112833 -0.175782,-0.26619 -0.175782,-0.425781 0,-0.15972 0.06284,-0.31291 0.175782,-0.425781 0.11287,-0.112941 0.266061,-0.175781 0.425781,-0.175781 z M 63.46891,85.40234 h -1.7051 c -0.2259,0 -0.4425,0.0897 -0.6022,0.2495 -0.1598,0.1597 -0.2495,0.3763 -0.2495,0.6022 0,0.2258 0.0897,0.4425 0.2495,0.6022 0.1597,0.1597 0.3763,0.2494 0.6022,0.2494 h 1.7051 c 0.2259,0 0.4425,-0.0897 0.6023,-0.2494 0.1597,-0.1597 0.2494,-0.3764 0.2494,-0.6022 0,-0.2259 -0.0897,-0.4425 -0.2494,-0.6022 -0.1598,-0.1598 -0.3764,-0.2495 -0.6023,-0.2495 z M 76.853516,66.123047 c -0.17747,-3.17e-4 -0.353184,0.03381 -0.517579,0.101562 v 0.002 c -0.164249,0.06776 -0.313665,0.165546 -0.439453,0.291016 -0.12593,0.125613 -0.224879,0.275339 -0.292968,0.439453 C 75.535498,67.121129 75.5,67.296836 75.5,67.474609 v 3.419922 0.01172 c 0.01617,0.347542 0.166195,0.675815 0.417969,0.916016 0.251587,0.240022 0.587573,0.375 0.935547,0.375 0.347973,0 0.682006,-0.134978 0.933593,-0.375 0.251604,-0.240189 0.401646,-0.568625 0.417969,-0.916016 v -0.01172 -3.425781 -0.002 C 78.202678,67.110001 78.059646,66.766998 77.806641,66.515578 77.553546,66.264228 77.210326,66.123 76.853516,66.123 Z m 0,1 c 0.09299,0 0.181941,0.03787 0.248046,0.103515 0.06599,0.06558 0.102896,0.153044 0.103516,0.246094 v 3.386719 c -0.0043,0.09101 -0.04358,0.177424 -0.109375,0.240234 -0.06584,0.06216 -0.151789,0.09766 -0.242187,0.09766 -0.09103,0 -0.178129,-0.03468 -0.244141,-0.09766 C 76.543549,71.03681 76.504228,70.952185 76.5,70.861328 v -3.386719 c 0,-0.04623 0.0096,-0.09186 0.02734,-0.134765 0.01771,-0.04269 0.0435,-0.0807 0.07617,-0.113282 0.03281,-0.03273 0.07053,-0.05853 0.113281,-0.07617 0.04281,-0.01764 0.09019,-0.02743 0.136719,-0.02734 z m -6e-6,-0.499507 c -0.112,-2e-4 -0.2229,0.0216 -0.3265,0.0643 -0.1035,0.0427 -0.1976,0.1054 -0.2769,0.1845 -0.0793,0.0791 -0.1422,0.1731 -0.1851,0.2765 -0.0429,0.1035 -0.065,0.2144 -0.065,0.3264 v 3.4085 c 0.0102,0.2192 0.1045,0.4261 0.2633,0.5776 0.1588,0.1515 0.3698,0.2361 0.5893,0.2361 0.2195,0 0.4305,-0.0846 0.5893,-0.2361 0.1587,-0.1515 0.253,-0.3584 0.2633,-0.5776 v -3.4141 c -0.0015,-0.2249 -0.0919,-0.4401 -0.2514,-0.5986 -0.1596,-0.1585 -0.3754,-0.2475 -0.6003,-0.2475 z m 4.265631,7.175288 c -0.358218,0 -0.701659,0.143065 -0.955079,0.396484 -0.253419,0.25342 -0.396484,0.596861 -0.396484,0.955079 0,0.358259 0.143268,0.703656 0.396484,0.957031 0.25342,0.25342 0.596861,0.394531 0.955079,0.394531 h 3.414062 c 0.358259,0 0.701732,-0.141185 0.955078,-0.394531 0.253217,-0.253375 0.396485,-0.598772 0.396485,-0.957031 0,-0.358218 -0.143065,-0.701659 -0.396485,-0.955079 -0.253346,-0.253346 -0.596819,-0.396484 -0.955078,-0.396484 z m 0,1 h 3.414062 c 0.09354,0 0.181993,0.03746 0.248047,0.103516 0.06598,0.06598 0.103516,0.154665 0.103516,0.248047 0,0.09354 -0.03733,0.183775 -0.103516,0.25 -0.06605,0.06605 -0.154506,0.101562 -0.248047,0.101562 h -3.414062 c -0.09338,0 -0.182067,-0.03558 -0.248047,-0.101562 -0.06618,-0.06623 -0.103516,-0.15646 -0.103516,-0.25 0,-0.09338 0.03754,-0.182067 0.103516,-0.248047 0.06598,-0.06598 0.154665,-0.103516 0.248047,-0.103516 z M 84.53331,74.29934 h -3.4141 c -0.2258,0 -0.4425,0.0897 -0.6022,0.2494 -0.1597,0.1597 -0.2494,0.3764 -0.2494,0.6022 0,0.2259 0.0897,0.4425 0.2494,0.6023 0.1597,0.1597 0.3764,0.2494 0.6022,0.2494 h 3.4141 c 0.2259,0 0.4425,-0.0897 0.6022,-0.2494 0.1597,-0.1598 0.2494,-0.3764 0.2494,-0.6023 0,-0.2258 -0.0897,-0.4425 -0.2494,-0.6022 -0.1597,-0.1597 -0.3763,-0.2494 -0.6022,-0.2494 z m -7.679794,3.772926 c -0.358301,0 -0.701481,0.143678 -0.955079,0.396484 h -0.002 C 75.642921,78.721838 75.500792,79.065604 75.5,79.423828 v 3.419922 0.01172 c 0.01617,0.347542 0.166195,0.675815 0.417969,0.916015 0.251587,0.240023 0.587573,0.375 0.935547,0.375 0.347973,0 0.682006,-0.134977 0.933593,-0.375 0.251604,-0.240189 0.401646,-0.568624 0.417969,-0.916015 v -0.01172 -3.417969 c 0,-0.3583 -0.141425,-0.701497 -0.394531,-0.955078 -0.252985,-0.253619 -0.596706,-0.397645 -0.955078,-0.398437 l -0.002,0.5 z m -0.002,1 c 6.26e-4,10e-7 0.0013,-5e-6 0.002,0 0.09314,6.96e-4 0.182273,0.03758 0.248046,0.103515 0.06629,0.06642 0.103516,0.156301 0.103516,0.25 v 3.382813 c -0.0043,0.09101 -0.04358,0.177423 -0.109375,0.240234 -0.06584,0.06216 -0.151789,0.09766 -0.242187,0.09766 -0.09103,0 -0.178129,-0.03468 -0.244141,-0.09766 -0.06583,-0.0628 -0.105147,-0.147424 -0.109375,-0.238281 v -3.384766 -0.002 c 6.96e-4,-0.09329 0.03752,-0.182177 0.103516,-0.248047 0.06616,-0.06595 0.155028,-0.103025 0.248046,-0.103515 z m 0.002,-0.499526 c -0.226,0 -0.4428,0.0897 -0.6029,0.2493 -0.16,0.1597 -0.2501,0.3763 -0.2506,0.6024 v 3.4085 c 0.0102,0.2192 0.1045,0.4261 0.2633,0.5776 0.1588,0.1515 0.3698,0.2361 0.5893,0.2361 0.2195,0 0.4305,-0.0846 0.5893,-0.2361 0.1587,-0.1515 0.253,-0.3584 0.2633,-0.5776 v -3.4067 c 0,-0.226 -0.0897,-0.4428 -0.2494,-0.6028 -0.1596,-0.16 -0.3762,-0.2502 -0.6023,-0.2507 z m -7.683588,-4.773912 c -0.358259,0 -0.701732,0.143138 -0.955078,0.396484 -0.25342,0.25342 -0.396485,0.596861 -0.396485,0.955079 0,0.358259 0.143268,0.703656 0.396485,0.957031 0.253346,0.253346 0.596819,0.394531 0.955078,0.394531 h 3.414062 c 0.358218,0 0.701659,-0.141111 0.955078,-0.394531 0.253217,-0.253375 0.396485,-0.598772 0.396485,-0.957031 0,-0.358218 -0.143065,-0.701659 -0.396485,-0.955079 -0.253419,-0.253419 -0.59686,-0.396484 -0.955078,-0.396484 z m 0,1 h 3.414062 c 0.09338,0 0.182067,0.03754 0.248047,0.103516 0.06598,0.06598 0.103516,0.154665 0.103516,0.248047 0,0.09354 -0.03733,0.183775 -0.103516,0.25 -0.06598,0.06598 -0.154665,0.101562 -0.248047,0.101562 h -3.414062 c -0.09354,0 -0.181993,-0.03551 -0.248047,-0.101562 -0.06618,-0.06623 -0.103516,-0.15646 -0.103516,-0.25 0,-0.09338 0.03754,-0.182067 0.103516,-0.248047 0.06605,-0.06605 0.154506,-0.103516 0.248047,-0.103516 z M 72.58411,74.29934 h -3.4141 c -0.2259,0 -0.4425,0.0897 -0.6022,0.2494 -0.1597,0.1597 -0.2494,0.3764 -0.2494,0.6022 0,0.2259 0.0897,0.4425 0.2494,0.6023 0.1597,0.1597 0.3763,0.2494 0.6022,0.2494 h 3.4141 c 0.2258,0 0.4425,-0.0897 0.6022,-0.2494 0.1597,-0.1598 0.2494,-0.3764 0.2494,-0.6023 0,-0.2258 -0.0897,-0.4425 -0.2494,-0.6022 -0.1597,-0.1597 -0.3764,-0.2494 -0.6022,-0.2494 z M 23.419922,15.822266 c -0.04585,6.96e-4 -0.09258,0.0094 -0.138672,0.01367 -6.43e-4,6e-5 -0.0013,-6.1e-5 -0.002,0 h -0.105469 l -0.08984,0.01758 c -0.09711,0.02029 -0.19314,0.04855 -0.285156,0.08398 l -0.02539,0.01172 -0.0039,0.002 h -0.08008 l -0.226562,0.152344 c -0.08163,0.05476 -0.158253,0.115235 -0.228516,0.18164 l -0.03711,0.0332 -0.01953,0.01953 c -0.05449,0.05682 -0.106256,0.118009 -0.154297,0.18164 l -0.0039,0.0078 -16.9374998,23.417968 -0.013672,0.01953 -0.00391,0.0059 c -0.082673,0.119307 -0.1018085,0.171733 -0.083984,0.140625 L 4.851528,40.316471 v 0.09375 c -0.00724,0.02426 -0.017508,0.04755 -0.023437,0.07227 l -0.019531,0.08984 c -0.00434,0.03326 0.015228,-0.09194 0,-0.03125 l -0.02731,0.107356 v 0.08398 c -0.00372,0.01493 -0.00976,0.03706 -0.00977,0.03711 0,0 0.013263,0.0019 0.013672,0.002 0.026277,0.0049 0.8710938,0.166016 0.8710938,0.166016 0,0 0.1833928,0.850081 0.1875,0.869141 -0.049826,0.0012 -0.3536022,0.0097 -0.3535156,0.0098 9.37e-5,1.8e-5 -0.3946145,-0.183661 -0.3945313,-0.183594 8.32e-5,6.8e-5 -0.2149144,-0.250122 -0.2148437,-0.25 1.413e-4,2.46e-4 -0.1094538,-0.31105 -0.109375,-0.310546 2.81e-5,1.8e-4 -0.00215,-0.03002 -0.00391,-0.04883 0.015205,-0.0015 0.8886719,-0.08594 0.8886719,-0.08594 0,0 -0.8598649,-0.09894 -0.8828125,-0.101563 -3.064e-4,-3.5e-5 -0.011719,-0.002 -0.011719,-0.002 0,0 -0.00195,0.01758 -0.00195,0.01758 0,0 -0.00391,0.09961 -0.00391,0.09961 0,0 0.00391,0.07227 0.00391,0.07227 0,0 0.00194,10e-7 0.00195,0 v 0.06055 0.01953 c 0,3.5e-4 0.00639,0.11009 0.00977,0.132812 0.00337,0.02272 0.00569,0.03624 0.00781,0.04687 0.00425,0.02128 0.00744,0.03135 0.00977,0.04102 0.00466,0.01933 0.00655,0.031 0.00977,0.04297 0.00644,0.02394 0.013214,0.04526 0.017578,0.06055 L 4.78125,41.181641 c 0,0.308732 0.07784,0.394459 0.058594,0.328125 0.023969,0.07471 0.055863,0.145838 0.09375,0.208984 L 4.873047,41.597656 c 0.018698,0.04547 0.040222,0.08854 0.0625,0.13086 -0.004,-0.008 0.013271,0.0237 0.011719,0.02148 0.00371,0.0068 0.00598,0.01479 0.00977,0.02148 0.00372,0.01131 -0.00469,0.0022 0.041016,0.07813 l 0.027344,0.04492 0.046875,0.06055 c 0.018273,0.02527 0.036969,0.05029 0.056641,0.07422 0.0056,0.0068 0.00992,0.01479 0.015625,0.02148 0.018295,0.02318 0.036677,0.04594 0.056641,0.06836 l 0.00781,0.0098 41.111328,43.757813 0.09766,-0.02539 0.04102,0.0293 h 0.0918 l 0.109375,0.05469 h 0.09961 0.0039 l 0.126953,0.03906 h 0.158203 0.0332 c 0.04765,0.0041 0.09436,0.01395 0.142578,0.01367 0.04632,1.69e-4 0.09092,-0.0098 0.136719,-0.01367 h 0.0332 0.150391 l 0.138672,-0.03906 0.0957,-0.02734 -0.08008,0.02734 h 0.05664 l 0.09766,-0.04492 0.15625,0.0098 0.302734,-0.238281 0.03711,-0.03125 0.363282,-0.259766 v -0.07227 l -0.261719,0.234375 0.03516,-0.03516 40.947266,-43.341796 0.0039,-0.0059 c 0.01198,-0.01312 0.02168,-0.02927 0.0332,-0.04297 l 0.01758,-0.01758 0.02734,-0.03516 c -0.0034,0.0041 0.03634,-0.0352 0.101562,-0.132812 l 0.002,-0.002 0.02344,-0.0332 0.0098,-0.01953 c 0.06999,-0.116655 0.07736,-0.144242 0.04883,-0.0918 0.02354,-0.04326 0.05513,-0.100601 0.08984,-0.197265 l -0.04297,0.09766 0.105469,-0.208985 V 41.375 c 0.0063,-0.02485 0.01461,-0.0494 0.01953,-0.07422 l 0.01758,-0.08789 v -0.105469 -0.07813 -0.06055 -0.0098 -0.03125 -0.01563 c -0.0014,-0.03968 -0.01074,-0.07917 -0.01563,-0.11914 -2.75e-4,-0.0117 5.94e-4,-0.02346 0,-0.03516 -5.18e-4,-0.01438 -0.0012,-2.71e-4 -0.002,-0.01367 l -0.002,0.01758 c -0.004,-0.02759 -0.0059,-0.05445 -0.01172,-0.08203 l 0.0078,0.128907 -0.01758,0.21289 c 0.03135,-0.117552 0.01459,-0.234615 0,-0.349609 -0.01715,-0.305049 -0.102764,-0.427083 -0.07617,-0.357422 l 0.05859,0.320313 c 0,-0.340061 -0.153067,-0.513335 -0.191406,-0.564454 -0.03232,-0.04309 0.0077,0.0043 0.05664,0.0918 -0.02467,-0.04922 -0.04955,-0.09793 -0.07813,-0.142578 L 89.605469,40 89.582029,39.9668 72.640623,16.5293 l -0.0039,-0.0059 c -0.05178,-0.0693 -0.108611,-0.136165 -0.169922,-0.197265 l -0.0059,-0.0059 -0.0293,-0.0293 -0.01563,-0.01367 c -0.06523,-0.06001 -0.134726,-0.116691 -0.208985,-0.167969 l -0.230469,-0.158203 h -0.08984 -0.01563 c -0.02,-0.0079 -0.03847,-0.02083 -0.05859,-0.02734 -0.07633,-0.02721 -0.153452,-0.05156 -0.230469,-0.06836 l -0.09375,-0.01953 h -0.109375 c -6.46e-4,-6.2e-5 -0.0013,6e-5 -0.002,0 -0.047,-0.0044 -0.09381,-0.01306 -0.140625,-0.01367 h -0.0059 -47.804688 z m 2.113281,3.492187 h 18.03125 L 28.740234,36.988281 Z m 25.552734,0 H 69.125 l -3.207031,17.675781 z m -28.642578,2.603516 3.140625,17.298828 H 9.9316406 Z m 49.771485,0.002 12.507812,17.296875 H 69.074219 Z M 49.074219,22.361328 63.21875,39.216797 H 49.048828 Z m -3.503907,0.02148 -0.02539,16.833985 H 31.443359 Z M 5.4667969,40.056641 c 0,0 -1.7e-6,0.0019 0,0.002 -3.787e-4,9e-6 -0.0036,-8e-6 -0.00391,0 9.15e-5,-4.1e-5 0.00391,-0.002 0.00391,-0.002 z m -0.3125,0.140625 c -0.056324,0.04296 -0.1243041,0.09606 -0.1289063,0.09961 0.018571,-0.01726 0.052734,-0.05078 0.052734,-0.05078 0,0 0.046875,-0.03516 0.046875,-0.03516 0,0 0.024657,-0.01159 0.029297,-0.01367 z M 4.984375,40.337891 c -0.00693,0.0077 -0.00898,0.01 -0.015625,0.01758 0,0 0.00781,-0.0098 0.00781,-0.0098 0,0 0.00781,-0.0078 0.00781,-0.0078 z m 84.832031,0.107421 0.0332,0.212891 c -0.0016,-0.01152 0.0021,-0.02374 0,-0.03516 -0.02317,-0.06592 -0.05753,-0.25695 -0.0332,-0.177735 z m -84.9746091,0.04492 c -0.034524,0.08305 -0.012109,0.06417 -0.023437,0.117188 -7.962e-4,0.0021 -0.00555,0.01325 -0.00586,0.01367 0.00595,-0.04857 -0.00781,-0.04168 0.029297,-0.13086 z m 1.8105468,0.08398 -0.050781,0.175781 -0.00586,0.0098 -0.00391,0.02148 -0.00977,0.03906 c 0.00793,-0.02357 6.145e-4,-0.0037 0.00781,-0.05273 9.946e-4,-0.0031 9.801e-4,-0.0047 0.00195,-0.0078 0.00857,-0.06696 0.011719,0.04352 0.011719,-0.06641 l -0.00586,0.05078 c 0.020522,-0.07322 0.054687,-0.06173 0.054687,-0.169922 z M 89.875,40.712891 l -0.002,0.02148 0.002,0.01563 c -7.02e-4,-0.01235 0.0011,-0.02476 0,-0.03711 z m -83.2988281,0.09766 -0.00781,0.05469 -0.00977,0.03711 c -1.624e-4,-0.0024 1.807e-4,-0.0034 0,-0.0059 1.852e-4,-0.01783 0.014159,-0.06442 0.013672,-0.07422 0.0017,-0.0041 0.00223,-0.0075 0.00391,-0.01172 z m -0.019531,0.09766 c 3.39e-5,6e-4 -3e-5,0.0014 0,0.002 l -0.00195,0.0059 c 6.68e-5,-0.0021 0.00191,-0.0058 0.00195,-0.0078 z m -0.048828,0.304688 c 1.79e-5,7.8e-5 0.00393,0.0019 0.00391,0.002 -0.018186,0.05561 -0.010595,0.03086 -0.00781,0.02344 0.00548,-0.01462 -6.851e-4,-0.0116 0.00391,-0.02539 z m 83.3300781,0.216796 c 0.0017,-0.0073 -0.0023,0.01813 0,0.0098 l -0.01563,0.05273 c 0.0072,-0.02099 0.0095,-0.04159 0.01563,-0.0625 z m -83.6875,0.25 c -0.017637,0.01346 -0.046928,0.03714 -0.046875,0.03711 1.087e-4,-6.2e-5 -0.230571,0.08987 -0.2304687,0.08984 1.5e-6,-1e-6 -0.00568,-4e-6 -0.00586,0 0.033485,-0.01503 0.2287973,-0.102539 0.2832031,-0.126954 z m 4.404297,1.041016 H 26.550781 L 41.3125,75.447266 Z m 19.841796,0 h 15.142578 l -0.05078,33.462891 z m 18.648438,0 H 64.251953 L 48.998047,76.205078 Z m 19.058594,0 H 84.089844 L 53.197266,75.427734 Z m -20.59961,41.357422 0.210938,0.01172 h -0.222657 z m -0.355469,0.208984 0.0039,0.0039 -0.238282,0.214843 V 84.45508 Z M 88.81961,41.49454 c 0.0167,-0.0204 0.0352,-0.0408 0.0501,-0.0631 l 0.0111,-0.0167 c 0.0111,-0.0185 0.0186,-0.039 0.0297,-0.0594 0.0111,-0.0204 0.0241,-0.0464 0.0334,-0.0723 l 0.0093,-0.0186 c 0,-0.0204 0.0111,-0.0427 0.0167,-0.0631 0.0085,-0.0248 0.0153,-0.0503 0.0204,-0.076 v -0.0186 c 0,-0.026 0,-0.052 0,-0.0779 0,-0.026 0,-0.039 0,-0.0594 0,-0.0204 0,0 0,-0.0111 v -0.0149 c -10e-4,-0.0293 -0.0047,-0.0585 -0.0112,-0.0872 0.0019,-0.0222 0.0019,-0.0446 0,-0.0668 8e-4,-0.003 8e-4,-0.0062 0,-0.0093 0,-0.0241 -0.0148,-0.0464 -0.0222,-0.0705 0,-0.0241 -0.0149,-0.0501 -0.0241,-0.0742 0,-0.0185 -0.0204,-0.0334 -0.0297,-0.0519 -0.0124,-0.027 -0.0267,-0.053 -0.0427,-0.078 l -0.0093,-0.013 -16.9348,-23.4308 c -0.0266,-0.0356 -0.0557,-0.069 -0.0873,-0.1002 l -0.0222,-0.0223 c -0.035,-0.0322 -0.0722,-0.062 -0.1113,-0.089 h -0.0167 c -0.0381,-0.0245 -0.0785,-0.045 -0.1206,-0.0613 -0.0075,-0.0048 -0.0156,-0.0085 -0.0242,-0.0111 -0.0464,-0.0179 -0.0942,-0.0321 -0.1428,-0.0427 h -0.0149 -0.0148 c -0.0454,-0.0081 -0.0913,-0.0124 -0.1373,-0.013 h -47.7913 c -0.0461,7e-4 -0.092,0.005 -0.1373,0.013 h -0.0149 -0.013 c -0.0493,0.0103 -0.0977,0.0246 -0.1447,0.0427 l -0.0241,0.0111 c -0.0418,0.0171 -0.0822,0.0376 -0.1206,0.0613 h -0.0149 c -0.0395,0.0265 -0.0767,0.0563 -0.1113,0.089 l -0.0241,0.0223 c -0.0304,0.0317 -0.0589,0.0651 -0.0854,0.1002 l -16.92926,23.4086 -0.00928,0.013 c -0.0167,0.0241 -0.02783,0.0501 -0.04267,0.076 l -0.00928,0.0149 c 0,0.0148 -0.0167,0.0278 -0.02412,0.0445 -0.00998,0.0241 -0.01805,0.0489 -0.02412,0.0742 0,0.0223 -0.0167,0.0446 -0.02227,0.0668 v 0.0093 c 0,0.0204 0,0.0445 -0.00928,0.0668 -0.00927,0.0223 0,0.0575 -0.01113,0.0872 -0.01113,0.0297 0,0 0,0.013 0,0.013 0,0.0093 0,0.013 0,0.0037 0,0.0389 0,0.0594 0,0.0204 0,0.0501 0,0.076 0,0.026 0,0.013 0,0.0186 0,0.0056 0.01299,0.0519 0.02041,0.0779 0,0.0186 0.00928,0.0371 0.01485,0.0538 0.00231,0.0072 0.00543,0.014 0.00927,0.0204 0.01024,0.0249 0.02202,0.049 0.03526,0.0724 0.00927,0.0186 0.0167,0.039 0.02783,0.0575 l 0.01299,0.0167 c 0.01457,0.0227 0.03069,0.0444 0.04824,0.065 0.01319,0.0187 0.02744,0.0367 0.04267,0.0538 l 40.73499,43.3586 c 0.003,-8e-4 0.0062,-8e-4 0.0092,0 l 0.0186,0.0185 0.0093,0.0093 0.0111,0.0093 0.0538,0.0445 0.026,0.0204 0.013,0.0093 h 0.013 c 0.0035,0.0041 0.0079,0.0073 0.013,0.0093 h 0.0111 c 0.0278,0.0167 0.0575,0.0315 0.0872,0.0464 h 0.0111 0.0093 0.0111 l 0.039,0.0129 0.0835,0.026 h 0.0223 0.0352 c 0.0458,0.0091 0.0925,0.0135 0.1392,0.013 0.0461,4e-4 0.0921,-0.004 0.1373,-0.013 h 0.0334 0.0223 l 0.0835,-0.0241 0.0408,-0.0148 h 0.0111 0.0111 c 0.0307,-0.0137 0.0604,-0.0291 0.0891,-0.0464 h 0.013 l 0.013,-0.0093 h 0.0111 l 0.0315,0.0018 0.026,-0.0204 0.0538,-0.0445 0.013,-0.0093 v -0.0111 l 0.0186,-0.0167 0.0093,-0.0093 40.9316,-43.327 c 0.0158,-0.0173 0.0301,-0.0359 0.0427,-0.0557 z m -65.8673,-21.8148 3.7109,20.4362 H 8.17161 Z m 63.5331,20.438 h -18.4897 l 3.7109,-20.4361 z m -40.0429,0 h -16.9311 l 16.9627,-20.2116 z m 1.7349,-20.2246 16.9701,20.2246 h -16.9998 z m -1.7367,21.928 -0.0575,38.5325 -17.3802,-38.5325 z m 1.7052,0 h 17.5044 l -17.5583,38.5417 z m 18.3153,-2.7832 -17.3041,-20.6236 h 21.0466 z m -38.2635,0 -3.7443,-20.6236 h 21.041 z m -1.065,2.7832 17.2187,38.1744 -35.8773,-38.1744 z m 40.3917,0 h 18.653 l -36.0443,38.1614 z" />
  </g>
</svg>
