<svg viewBox="0 0 900 914" xmlns="http://www.w3.org/2000/svg">
<path d="M100.18 0.654541C98.4029 0.654541 96.6392 1.0117 94.9982 1.69096C93.357 2.37094 91.8747 3.36753 90.6179 4.62421C89.3642 5.87914 88.3654 7.36098 87.6846 9.00453C87.0041 10.6472 86.6482 12.4103 86.6482 14.1866V52.6317C86.646 54.4075 86.989 56.1566 87.6651 57.7942C88.3451 59.4416 89.3421 60.9372 90.5983 62.1941C91.8571 63.4534 93.3543 64.4482 94.9982 65.1274C96.6363 65.8033 98.407 66.1651 100.18 66.1638C100.187 66.1638 100.193 66.1638 100.2 66.1638C101.973 66.165 103.725 65.8033 105.363 65.1274C107.007 64.4482 108.504 63.4534 109.763 62.1941C111.019 60.9372 112.016 59.4416 112.696 57.7942C113.374 56.1506 113.718 54.3946 113.713 52.6122V14.1866C113.713 12.4103 113.357 10.6472 112.676 9.00453C111.997 7.36353 111.001 5.88153 109.743 4.62421C108.486 3.36753 107.004 2.37094 105.362 1.69096C103.721 1.0117 101.957 0.654541 100.18 0.654541ZM100.18 10.6667C100.642 10.6667 101.1 10.7627 101.53 10.9405C101.957 11.1175 102.337 11.3761 102.664 11.7031C102.99 12.0293 103.249 12.4092 103.426 12.8373C103.603 13.2636 103.7 13.7233 103.7 14.1866V52.6317C103.701 53.0902 103.622 53.5533 103.446 53.981C103.271 54.405 103.011 54.7874 102.683 55.1152C102.358 55.4404 101.956 55.7016 101.53 55.8779C101.101 56.0547 100.661 56.1526 100.2 56.1516V61.1577L100.18 56.1516C99.7174 56.1526 99.2594 56.0547 98.831 55.8779C98.4093 55.7037 98.0195 55.435 97.6968 55.1152C97.3691 54.7874 97.1092 54.405 96.9341 53.981C96.7576 53.5533 96.6591 53.0902 96.6604 52.6317V14.1866C96.6604 13.7233 96.7576 13.2636 96.9341 12.8373C97.1104 12.4117 97.3685 12.0317 97.6968 11.7031C98.0239 11.3761 98.4036 11.1175 98.831 10.9405C99.2605 10.7627 99.7169 10.6667 100.18 10.6667ZM100.182 61.1509C101.302 61.1533 102.411 60.9344 103.448 60.5068C104.483 60.0791 105.424 59.4511 106.216 58.6589C107.008 57.8665 107.637 56.9256 108.064 55.8899C108.492 54.8543 108.711 53.7444 108.708 52.624V14.1876C108.708 13.0678 108.488 11.959 108.059 10.9245C107.631 9.88996 107.003 8.94992 106.211 8.15815C105.419 7.36629 104.479 6.73823 103.445 6.30971C102.409 5.88119 101.301 5.66062 100.182 5.66062C99.0614 5.66062 97.9531 5.88119 96.9178 6.30971C95.8835 6.73823 94.9434 7.36629 94.1514 8.15815C93.3605 8.94992 92.7317 9.88996 92.3032 10.9245C91.8747 11.959 91.6544 13.0678 91.6544 14.1876V52.624C91.6514 53.7444 91.8707 54.8543 92.2982 55.8899C92.7257 56.9256 93.3545 57.8665 94.1464 58.6589C94.9384 59.4511 95.8795 60.0791 96.9148 60.5068C97.9511 60.9344 99.0604 61.1533 100.182 61.1509ZM148.383 87.3027C144.796 87.3027 141.357 88.7163 138.821 91.2529C136.284 93.7894 134.851 97.2468 134.851 100.835C134.851 104.423 136.285 107.861 138.821 110.397C141.358 112.935 144.796 114.367 148.383 114.367H186.848C190.435 114.367 193.874 112.935 196.41 110.397C198.949 107.861 200.38 104.422 200.38 100.835C200.38 97.2483 198.949 93.7903 196.41 91.2529C193.874 88.7163 190.435 87.3027 186.848 87.3027H148.383ZM148.383 97.3149H186.848C187.785 97.3149 188.67 97.6704 189.331 98.3318V98.3513C189.992 99.0118 190.368 99.8998 190.368 100.835C190.368 101.771 189.993 102.657 189.331 103.318C188.67 103.98 187.785 104.355 186.848 104.355H148.383C147.447 104.355 146.561 103.98 145.9 103.318C145.238 102.656 144.863 101.77 144.863 100.835C144.863 99.9013 145.238 98.9931 145.9 98.3317C146.561 97.6704 147.447 97.3149 148.383 97.3149V97.3149ZM148.384 109.358H186.839C189.101 109.358 191.269 108.46 192.868 106.86C194.468 105.261 195.366 103.092 195.366 100.831C195.366 98.5699 194.468 96.4002 192.868 94.8013C191.269 93.2023 189.101 92.3042 186.839 92.3042H148.384C146.123 92.3042 143.954 93.2023 142.355 94.8013C140.756 96.4002 139.857 98.5699 139.857 100.831C139.857 103.092 140.756 105.261 142.355 106.86C143.954 108.46 146.123 109.358 148.384 109.358V109.358ZM100.18 135.506C98.4038 135.506 96.6399 135.863 94.9982 136.542C93.3552 137.223 91.8737 138.22 90.6179 139.475C89.3624 140.731 88.3654 142.211 87.6846 143.856C87.0042 145.498 86.6482 147.261 86.6482 149.038V187.503C86.6482 189.279 87.0038 191.022 87.6846 192.665C88.3653 194.308 89.3645 195.81 90.6179 197.065C91.8752 198.322 93.3578 199.319 94.9982 199.998C96.6374 200.677 98.4008 201.035 100.18 201.035C103.768 201.035 107.207 199.599 109.743 197.065C112.279 194.528 113.712 191.089 113.712 187.503V149.038C113.712 147.261 113.356 145.498 112.676 143.856C111.995 142.211 110.998 140.731 109.743 139.475C108.487 138.22 107.005 137.223 105.362 136.542C103.721 135.863 101.956 135.506 100.18 135.506V135.506ZM100.18 145.518C100.643 145.518 101.101 145.614 101.53 145.792C101.955 145.968 102.336 146.226 102.664 146.554C102.99 146.881 103.25 147.263 103.426 147.689C103.603 148.115 103.7 148.574 103.7 149.038V187.502C103.7 188.439 103.325 189.325 102.664 189.986C102 190.649 101.114 191.022 100.18 191.022C99.719 191.022 99.2622 190.927 98.8309 190.749C98.4028 190.571 98.0233 190.313 97.6967 189.986C97.3682 189.657 97.1104 189.258 96.9341 188.832C96.7579 188.407 96.6603 187.965 96.6603 187.503V149.038C96.6603 148.574 96.7574 148.115 96.9341 147.689C97.1104 147.263 97.3703 146.881 97.6967 146.554C98.0248 146.226 98.4053 145.968 98.8309 145.792C99.2597 145.614 99.716 145.518 100.18 145.518L100.18 145.518ZM100.182 196.021C102.443 196.021 104.611 195.122 106.211 193.523C107.81 191.924 108.708 189.756 108.708 187.494V149.039C108.708 147.919 108.488 146.81 108.059 145.776C107.631 144.741 107.002 143.801 106.211 143.01C105.419 142.218 104.479 141.589 103.445 141.161C102.409 140.732 101.301 140.512 100.182 140.512C99.0614 140.512 97.9531 140.732 96.9178 141.161C95.8835 141.589 94.9434 142.218 94.1514 143.01C93.3605 143.801 92.7317 144.741 92.3032 145.776C91.8747 146.81 91.6544 147.919 91.6544 149.039V187.494C91.6544 188.613 91.8747 189.723 92.3032 190.757C92.7317 191.791 93.3605 192.731 94.1514 193.523C94.9434 194.315 95.8835 194.943 96.9178 195.371C97.9531 195.8 99.0614 196.021 100.182 196.021ZM13.5321 87.3027C11.7558 87.3027 9.99249 87.6393 8.34998 88.3196C6.70899 88.9993 5.22699 89.9952 3.96966 91.2529C2.71338 92.5095 1.7165 94.0113 1.03641 95.6527C0.355877 97.2952 0 99.0578 0 100.835C0 102.612 0.356315 104.375 1.03641 106.017C1.71652 107.66 2.71131 109.14 3.96966 110.397C5.22549 111.653 6.70644 112.65 8.34998 113.33C9.99249 114.011 11.7558 114.367 13.5321 114.367H51.9576C53.7341 114.37 55.4934 114.03 57.1397 113.35V113.33C58.7814 112.651 60.281 111.655 61.5396 110.397C62.7987 109.138 63.7936 107.643 64.4728 105.997C65.1452 104.362 65.5105 102.601 65.5092 100.834C65.5093 100.828 65.5092 100.821 65.5092 100.814C65.5105 99.0424 65.1488 97.2908 64.4728 95.6527C63.7936 94.0083 62.7987 92.5115 61.5396 91.2529C60.2801 89.9923 58.7844 88.9985 57.1397 88.3196C55.5019 87.6435 53.753 87.3005 51.9772 87.3027H13.5321ZM13.5321 97.3149H51.9772C52.4357 97.3137 52.8991 97.3927 53.3265 97.5691C53.7531 97.7452 54.1356 98.0064 54.4607 98.3318C54.786 98.657 55.0473 99.0594 55.2233 99.4855C55.3953 99.9088 55.4981 100.36 55.4971 100.815H60.5032L55.4971 100.835C55.4981 101.297 55.3989 101.76 55.2233 102.185C55.0473 102.611 54.786 102.994 54.4607 103.319C54.1347 103.645 53.7561 103.904 53.3265 104.081C52.9017 104.257 52.4416 104.356 51.9772 104.355H13.5321C13.0688 104.355 12.6094 104.258 12.1828 104.081C11.7572 103.905 11.3763 103.647 11.0486 103.319C10.7234 102.994 10.4629 102.612 10.2859 102.185C10.109 101.757 10.0122 101.298 10.0122 100.835C10.0122 100.373 10.1094 99.9115 10.2859 99.4855C10.4629 99.0584 10.7213 98.6591 11.0486 98.3318C11.3748 98.0055 11.7547 97.7464 12.1828 97.5691C12.6094 97.3924 13.0688 97.3149 13.5321 97.3149ZM60.4964 100.831C60.4988 99.7102 60.2799 98.6009 59.8523 97.5646C59.4246 96.5294 58.7966 95.5882 58.0043 94.7963C57.2121 94.0033 56.271 93.3755 55.2354 92.948C54.1998 92.5205 53.0899 92.3012 51.9694 92.3042H13.533C12.4133 92.3042 11.3045 92.5245 10.27 92.953C9.23542 93.3816 8.29537 94.0093 7.50361 94.8013C6.71185 95.5932 6.08369 96.5334 5.65517 97.5676C5.22665 98.6019 5.00608 99.7112 5.00608 100.831C5.00608 101.951 5.22665 103.059 5.65517 104.094C6.08369 105.129 6.71185 106.069 7.50361 106.86C8.29537 107.652 9.23542 108.281 10.27 108.709C11.3045 109.138 12.4133 109.358 13.533 109.358H51.9694C53.0899 109.36 54.1998 109.142 55.2354 108.714C56.271 108.286 57.2121 107.658 58.0043 106.866C58.7966 106.074 59.4246 105.133 59.8523 104.097C60.2799 103.061 60.4988 101.951 60.4964 100.831ZM656.833 814.768C653.916 814.773 651.114 815.931 649.05 817.995C646.982 820.063 645.804 822.874 645.804 825.797V842.849L645.824 842.732C645.754 844.225 645.985 845.713 646.508 847.112C647.031 848.511 647.823 849.786 648.855 850.867C649.887 851.95 651.138 852.802 652.512 853.389C653.886 853.979 655.358 854.289 656.853 854.289C658.347 854.289 659.819 853.978 661.194 853.389C662.567 852.802 663.818 851.95 664.851 850.867C665.883 849.786 666.675 848.511 667.197 847.112C667.722 845.711 667.952 844.224 667.882 842.732L667.902 842.849V825.797C667.902 824.348 667.599 822.896 667.041 821.554C666.486 820.213 665.682 818.999 664.656 817.975C663.629 816.95 662.399 816.143 661.058 815.59C659.723 815.039 658.299 814.767 656.853 814.768C656.847 814.768 656.84 814.768 656.833 814.768H656.833ZM656.853 819.774C657.644 819.772 658.428 819.922 659.16 820.224C659.893 820.526 660.556 820.956 661.116 821.515V821.535C661.677 822.095 662.123 822.739 662.426 823.471V823.491C662.729 824.22 662.895 825.005 662.895 825.798V842.909V842.968C662.933 843.785 662.79 844.59 662.504 845.354C662.218 846.119 661.797 846.816 661.233 847.407H661.213C660.65 847.998 659.99 848.474 659.238 848.795C658.486 849.117 657.669 849.284 656.852 849.284C656.034 849.284 655.236 849.117 654.486 848.795H654.466C653.714 848.474 653.055 847.998 652.491 847.407H652.471C651.907 846.816 651.486 846.119 651.2 845.354C650.914 844.588 650.771 843.783 650.809 842.968V842.909V825.798C650.809 824.2 651.459 822.665 652.589 821.535C653.718 820.405 655.254 819.775 656.851 819.775L656.853 819.774ZM656.843 817.262C654.582 817.262 652.413 818.16 650.814 819.759C649.215 821.358 648.316 823.527 648.316 825.788V842.843C648.262 843.997 648.444 845.151 648.848 846.233C649.253 847.315 649.872 848.304 650.67 849.14C651.468 849.977 652.427 850.642 653.491 851.097C654.553 851.552 655.696 851.787 656.853 851.787C658.008 851.787 659.152 851.552 660.215 851.097C661.277 850.642 662.236 849.977 663.034 849.14C663.832 848.304 664.452 847.315 664.857 846.233C665.262 845.151 665.442 843.997 665.388 842.843V825.788C665.388 824.667 665.168 823.556 664.737 822.521C664.308 821.485 663.678 820.545 662.884 819.753C662.091 818.961 661.149 818.333 660.112 817.905C659.076 817.478 657.964 817.259 656.843 817.262V817.262ZM678.246 853.213C675.321 853.213 672.511 854.371 670.443 856.44C668.374 858.508 667.217 861.318 667.217 864.242C667.217 867.166 668.374 869.977 670.443 872.045C672.511 874.113 675.321 875.271 678.246 875.271H695.298C698.222 875.271 701.032 874.113 703.1 872.045C705.168 869.977 706.327 867.167 706.327 864.242C706.327 861.317 705.167 858.507 703.1 856.44C701.032 854.371 698.222 853.213 695.298 853.213H678.246ZM678.246 858.219H695.298C696.897 858.219 698.431 858.849 699.561 859.979C700.691 861.11 701.321 862.644 701.321 864.242C701.321 865.84 700.691 867.375 699.561 868.505C698.43 869.636 696.897 870.265 695.298 870.265H678.246C676.647 870.265 675.113 869.635 673.983 868.505C672.852 867.376 672.223 865.84 672.223 864.242C672.223 862.643 672.852 861.109 673.983 859.979C675.113 858.849 676.647 858.219 678.246 858.219ZM695.301 855.716H678.247C675.985 855.716 673.816 856.614 672.217 858.214C670.617 859.813 669.719 861.982 669.719 864.244C669.719 866.505 670.617 868.674 672.217 870.273C673.816 871.872 675.985 872.77 678.247 872.77H695.301C697.562 872.77 699.731 871.872 701.33 870.273C702.929 868.674 703.828 866.505 703.828 864.244C703.828 861.982 702.929 859.813 701.33 858.214C699.731 856.614 697.562 855.716 695.301 855.716ZM656.852 874.587C653.926 874.593 651.116 875.763 649.05 877.833C646.985 879.903 645.823 882.729 645.823 885.655V902.766V902.825C645.955 905.662 647.171 908.334 649.226 910.295C651.281 912.257 654.032 913.345 656.872 913.345C659.712 913.345 662.443 912.257 664.498 910.295C666.554 908.334 667.768 905.66 667.901 902.825V902.766V885.655C667.901 882.726 666.746 879.905 664.674 877.833C662.603 875.763 659.782 874.587 656.852 874.587ZM656.852 879.593C658.455 879.593 660 880.239 661.135 881.373C662.269 882.507 662.895 884.051 662.895 885.655V902.59C662.822 904.143 662.161 905.604 661.037 906.677C659.912 907.751 658.427 908.339 656.872 908.339C655.317 908.339 653.812 907.751 652.687 906.677C651.563 905.604 650.902 904.142 650.829 902.59V885.655C650.829 884.053 651.459 882.506 652.589 881.373C653.721 880.239 655.251 879.597 656.852 879.593ZM656.854 877.099C654.59 877.104 652.421 878.007 650.823 879.609C649.225 881.211 648.326 883.382 648.326 885.646V902.699C648.429 904.894 649.373 906.966 650.963 908.482C652.553 910 654.665 910.846 656.863 910.846C659.06 910.846 661.173 910 662.763 908.482C664.353 906.966 665.296 904.894 665.399 902.699V885.646C665.399 883.379 664.499 881.205 662.896 879.602C661.293 878 659.12 877.099 656.854 877.099V877.099ZM618.388 853.213C615.463 853.213 612.653 854.371 610.585 856.44C608.516 858.508 607.359 861.318 607.359 864.242C607.359 867.166 608.516 869.977 610.585 872.045C612.653 874.113 615.463 875.271 618.388 875.271H635.459C638.384 875.271 641.193 874.112 643.262 872.045C645.33 869.977 646.488 867.166 646.488 864.242C646.488 861.318 645.329 858.508 643.262 856.44C641.193 854.372 638.384 853.213 635.459 853.213H618.388ZM618.388 858.219H635.459C637.058 858.219 638.591 858.848 639.722 859.979C640.852 861.11 641.482 862.643 641.482 864.242C641.482 865.84 640.852 867.376 639.722 868.505C638.591 869.636 637.058 870.265 635.459 870.265H618.388C616.789 870.265 615.255 869.635 614.125 868.505C612.994 867.376 612.365 865.84 612.365 864.242C612.365 862.643 612.994 861.109 614.125 859.979C615.255 858.849 616.789 858.219 618.388 858.219ZM635.461 855.716H618.389C616.127 855.716 613.959 856.614 612.36 858.214C610.76 859.813 609.862 861.982 609.862 864.244C609.862 866.505 610.76 868.674 612.36 870.273C613.959 871.872 616.127 872.77 618.389 872.77H635.461C637.723 872.77 639.891 871.872 641.491 870.273C643.09 868.674 643.988 866.505 643.988 864.244C643.988 861.982 643.09 859.813 641.491 858.214C639.891 856.614 637.723 855.716 635.461 855.716V855.716ZM769.47 662.689C767.693 662.686 765.934 663.028 764.288 663.706V663.726C762.643 664.404 761.147 665.383 759.888 666.64C758.627 667.897 757.636 669.396 756.954 671.039C756.273 672.682 755.918 674.441 755.918 676.221V710.462V710.579C756.08 714.059 757.582 717.346 760.103 719.751C762.622 722.154 765.986 723.505 769.47 723.505C772.954 723.505 776.298 722.154 778.817 719.751C781.336 717.346 782.838 714.057 783.002 710.579V710.462V676.162V676.142C782.978 672.571 781.546 669.136 779.012 666.619C776.478 664.103 773.042 662.689 769.47 662.689V662.689ZM769.47 672.701C770.401 672.701 771.291 673.08 771.953 673.738C772.614 674.394 772.983 675.27 772.99 676.202V710.11C772.946 711.021 772.553 711.886 771.894 712.515C771.235 713.138 770.375 713.493 769.47 713.493C768.558 713.493 767.686 713.146 767.025 712.515C766.366 711.886 765.973 711.039 765.93 710.129V676.221C765.93 675.758 766.026 675.301 766.204 674.872C766.381 674.444 766.639 674.064 766.967 673.738C767.295 673.41 767.673 673.152 768.101 672.975C768.529 672.798 769.004 672.7 769.47 672.701L769.47 672.701ZM769.47 667.7C768.348 667.698 767.238 667.916 766.201 668.344C765.164 668.771 764.222 669.399 763.428 670.191C762.634 670.983 762.005 671.924 761.575 672.959C761.145 673.996 760.924 675.106 760.924 676.227V710.354C761.026 712.549 761.971 714.62 763.56 716.137C765.15 717.654 767.263 718.501 769.461 718.501C771.658 718.501 773.771 717.654 775.361 716.137C776.95 714.62 777.894 712.549 777.997 710.354V676.171C777.982 673.92 777.077 671.765 775.48 670.178C773.882 668.591 771.721 667.7 769.47 667.7V667.7ZM812.178 739.54C808.591 739.54 805.153 740.973 802.615 743.51C800.078 746.047 798.646 749.486 798.646 753.072C798.646 756.659 800.08 760.117 802.615 762.654C805.153 765.191 808.591 766.604 812.178 766.604H846.36C849.947 766.604 853.386 765.191 855.922 762.654C858.458 760.117 859.892 756.659 859.892 753.072C859.892 749.486 858.46 746.047 855.922 743.51C853.386 740.973 849.947 739.54 846.36 739.54H812.178ZM812.178 749.552H846.36C847.296 749.552 848.182 749.927 848.843 750.589C849.504 751.249 849.88 752.137 849.88 753.072C849.88 754.009 849.506 754.912 848.843 755.575C848.182 756.237 847.296 756.592 846.36 756.592H812.178C811.243 756.592 810.355 756.236 809.694 755.575C809.032 754.912 808.658 754.009 808.658 753.072C808.658 752.137 809.034 751.249 809.694 750.589C810.355 749.928 811.243 749.552 812.178 749.552ZM846.361 744.551H812.178C809.918 744.551 807.748 745.449 806.149 747.048C804.55 748.647 803.652 750.817 803.652 753.078C803.652 755.339 804.55 757.508 806.149 759.108C807.748 760.707 809.918 761.605 812.178 761.605H846.361C848.623 761.605 850.791 760.707 852.39 759.108C853.989 757.508 854.887 755.339 854.887 753.078C854.887 750.817 853.989 748.647 852.39 747.048C850.791 745.449 848.623 744.551 846.361 744.551ZM769.47 782.327C765.882 782.327 762.446 783.765 759.907 786.296H759.887C757.349 788.83 755.926 792.272 755.918 795.859V830.099V830.217C756.08 833.696 757.582 836.983 760.103 839.388C762.622 841.791 765.986 843.143 769.47 843.143C772.954 843.143 776.298 841.791 778.817 839.388C781.336 836.983 782.838 833.695 783.002 830.217V830.099V795.878C783.002 792.291 781.586 788.855 779.052 786.316C776.519 783.776 773.077 782.334 769.489 782.327L769.469 787.333L769.47 782.327ZM769.45 792.339C769.456 792.339 769.463 792.339 769.47 792.339C770.402 792.346 771.295 792.715 771.953 793.375C772.617 794.04 772.99 794.94 772.99 795.878V829.747C772.946 830.659 772.553 831.524 771.894 832.153C771.235 832.775 770.375 833.13 769.47 833.13C768.558 833.13 767.686 832.783 767.025 832.153C766.366 831.524 765.973 830.677 765.93 829.767V795.878V795.858C765.937 794.924 766.306 794.034 766.967 793.375C767.629 792.714 768.519 792.343 769.45 792.338L769.45 792.339ZM769.47 787.337C767.207 787.337 765.036 788.235 763.433 789.833C761.831 791.432 760.929 793.601 760.924 795.865V829.991C761.026 832.186 761.971 834.257 763.56 835.774C765.15 837.291 767.263 838.138 769.461 838.138C771.658 838.138 773.771 837.291 775.361 835.774C776.95 834.257 777.894 832.186 777.997 829.991V795.883C777.997 793.62 777.099 791.449 775.5 789.847C773.902 788.245 771.733 787.342 769.47 787.337V787.337ZM692.54 739.54C688.953 739.54 685.515 740.973 682.978 743.51C680.441 746.047 679.008 749.486 679.008 753.072C679.008 756.659 680.443 760.117 682.978 762.654C685.515 765.191 688.953 766.604 692.54 766.604H726.722C730.309 766.604 733.748 765.191 736.285 762.654C738.82 760.117 740.255 756.659 740.255 753.072C740.255 749.486 738.822 746.047 736.285 743.51C733.748 740.973 730.309 739.54 726.722 739.54H692.54ZM692.54 749.552H726.722C727.657 749.552 728.545 749.928 729.206 750.589C729.867 751.249 730.242 752.137 730.242 753.072C730.242 754.009 729.869 754.912 729.206 755.575C728.545 756.236 727.657 756.592 726.722 756.592H692.54C691.604 756.592 690.718 756.237 690.057 755.575C689.394 754.912 689.02 754.009 689.02 753.072C689.02 752.137 689.396 751.249 690.057 750.589C690.718 749.927 691.604 749.552 692.54 749.552ZM726.724 744.551H692.541C690.279 744.551 688.111 745.449 686.512 747.048C684.913 748.647 684.015 750.817 684.015 753.078C684.015 755.339 684.913 757.508 686.512 759.108C688.111 760.707 690.279 761.605 692.541 761.605H726.724C728.984 761.605 731.154 760.707 732.753 759.108C734.352 757.508 735.25 755.339 735.25 753.078C735.25 750.817 734.352 748.647 732.753 747.048C731.154 745.449 728.984 744.551 726.724 744.551ZM234.484 159.07C234.025 159.077 233.557 159.164 233.096 159.206C233.089 159.207 233.083 159.206 233.076 159.206H232.02L231.12 159.382C230.148 159.586 229.186 159.869 228.265 160.223L228.011 160.341L227.972 160.361H227.17L224.902 161.886C224.084 162.434 223.317 163.04 222.614 163.705L222.242 164.037L222.047 164.233C221.501 164.801 220.983 165.414 220.502 166.051L220.463 166.129L50.8818 400.594L50.7449 400.789L50.7058 400.848C49.878 402.043 49.6864 402.568 49.8649 402.256L48.5743 404.309V405.248C48.5018 405.491 48.399 405.724 48.3396 405.972L48.1441 406.871C48.1006 407.204 48.2965 405.951 48.1441 406.558L47.8706 407.633V408.474C47.8334 408.623 47.7729 408.845 47.7728 408.846C47.7728 408.846 47.9056 408.865 47.9097 408.866C48.1728 408.915 56.6312 410.528 56.6312 410.528C56.6312 410.528 58.4674 419.039 58.5085 419.23C58.0096 419.242 54.9682 419.327 54.9691 419.328C54.97 419.328 51.0181 417.489 51.0189 417.49C51.0198 417.49 48.8672 414.985 48.8679 414.987C48.8693 414.989 47.772 411.872 47.7728 411.877C47.7731 411.879 47.7513 411.577 47.7337 411.388C47.8859 411.373 56.6312 410.528 56.6312 410.528C56.6312 410.528 48.0221 409.537 47.7923 409.511C47.7893 409.511 47.675 409.491 47.675 409.491L47.6555 409.667L47.6163 410.665L47.6555 411.388C47.6555 411.388 47.6749 411.388 47.675 411.388V411.994V412.19C47.675 412.193 47.739 413.292 47.7728 413.52C47.8066 413.747 47.8298 413.882 47.851 413.989C47.8936 414.202 47.9255 414.303 47.9488 414.4C47.9955 414.593 48.0144 414.71 48.0467 414.83C48.1111 415.069 48.179 415.283 48.2227 415.436L47.8706 412.972C47.8706 416.063 48.65 416.921 48.4573 416.257C48.6973 417.005 49.0166 417.717 49.3959 418.349L48.7897 417.137C48.9769 417.592 49.1924 418.023 49.4155 418.447C49.3754 418.367 49.5484 418.684 49.5328 418.662C49.57 418.73 49.5927 418.81 49.6306 418.877C49.6679 418.99 49.5837 418.899 50.0413 419.659L50.3151 420.109L50.7844 420.715C50.9673 420.968 51.1545 421.219 51.3515 421.459C51.4076 421.527 51.4508 421.607 51.5079 421.674C51.6911 421.906 51.8751 422.134 52.075 422.358L52.1532 422.456L463.766 860.566L464.744 860.312L465.155 860.605H466.074L467.169 861.153H468.166H468.205L469.476 861.544H471.06H471.393C471.87 861.585 472.338 861.684 472.82 861.681C473.284 861.683 473.731 861.583 474.189 861.544H474.522H476.027L477.416 861.153L478.374 860.879L477.572 861.153H478.139L479.117 860.703L480.681 860.801L483.712 858.416L484.084 858.103L487.721 855.502V854.778L485.101 857.125L485.453 856.773L895.423 422.828L895.463 422.769C895.582 422.638 895.68 422.476 895.795 422.339L895.971 422.163L896.245 421.811C896.211 421.852 896.608 421.458 897.261 420.481L897.281 420.461L897.516 420.129L897.614 419.933C898.315 418.765 898.389 418.489 898.103 419.014C898.339 418.581 898.655 418.007 899.003 417.039L898.573 418.017L899.628 415.924V414.908C899.692 414.659 899.775 414.413 899.824 414.165L900 413.285V412.229V411.446V410.84V410.742V410.429V410.273C899.986 409.875 899.892 409.48 899.844 409.08C899.841 408.963 899.849 408.845 899.844 408.728C899.838 408.584 899.832 408.725 899.823 408.591L899.803 408.767C899.763 408.491 899.744 408.222 899.686 407.946L899.764 409.236L899.588 411.368C899.902 410.191 899.734 409.019 899.588 407.867C899.417 404.813 898.559 403.591 898.826 404.289L899.412 407.496C899.412 404.091 897.88 402.356 897.496 401.844C897.172 401.413 897.573 401.887 898.063 402.764C897.816 402.271 897.567 401.783 897.281 401.336L897.144 401.141L896.91 400.809L727.29 166.149L727.25 166.089C726.732 165.396 726.163 164.726 725.549 164.114L725.49 164.055L725.197 163.762L725.04 163.625C724.387 163.024 723.691 162.457 722.948 161.943L720.64 160.359H719.741H719.584C719.384 160.28 719.199 160.151 718.998 160.086C718.234 159.813 717.461 159.569 716.69 159.401L715.752 159.206H714.657C714.65 159.205 714.644 159.206 714.637 159.206C714.166 159.162 713.697 159.075 713.229 159.069H713.17H234.541L234.484 159.07ZM255.642 194.034H436.174L287.752 370.987L255.642 194.034ZM511.481 194.034H692.091L659.981 371.007L511.481 194.034ZM224.706 220.101L256.151 393.299H99.4372L224.706 220.101ZM723.027 220.121L848.257 393.3H691.582L723.027 220.121ZM491.339 224.54L632.956 393.299H491.085L491.339 224.54ZM456.257 224.755L456.003 393.299H314.816L456.257 224.755ZM54.7344 401.708C54.7344 401.708 54.7344 401.727 54.7344 401.728C54.7306 401.728 54.6984 401.728 54.6953 401.728C54.6962 401.728 54.7344 401.708 54.7344 401.708ZM51.6056 403.116C51.0417 403.546 50.3611 404.078 50.315 404.113C50.5009 403.94 50.843 403.605 50.843 403.605L51.3123 403.253C51.3123 403.253 51.5592 403.137 51.6056 403.116H51.6056ZM49.9044 404.524C49.835 404.601 49.8144 404.624 49.7479 404.7L49.8261 404.602L49.9043 404.524L49.9044 404.524ZM899.256 405.599L899.589 407.731C899.573 407.616 899.61 407.493 899.589 407.379C899.357 406.719 899.013 404.806 899.256 405.599V405.599ZM48.4768 406.049C48.1312 406.881 48.3556 406.692 48.2422 407.223C48.2342 407.244 48.1866 407.355 48.1835 407.359C48.2431 406.873 48.1053 406.942 48.4768 406.049V406.049ZM66.6043 406.89L66.0959 408.65L66.0372 408.748L65.9981 408.963L65.9003 409.354C65.9797 409.118 65.9064 409.317 65.9785 408.826C65.9884 408.795 65.9883 408.779 65.998 408.748C66.0838 408.078 66.1153 409.184 66.1153 408.083L66.0566 408.592C66.2621 407.859 66.6042 407.974 66.6042 406.89L66.6043 406.89ZM899.843 408.278L899.823 408.494L899.843 408.65C899.836 408.526 899.854 408.402 899.843 408.278ZM65.8417 409.256L65.7635 409.804L65.6657 410.175C65.664 410.151 65.6675 410.141 65.6657 410.116C65.6675 409.938 65.8074 409.471 65.8026 409.373C65.8196 409.332 65.8249 409.298 65.8417 409.256L65.8417 409.256ZM65.6461 410.234C65.6465 410.24 65.6458 410.248 65.6461 410.254L65.6266 410.313C65.6273 410.292 65.6457 410.255 65.6461 410.235V410.234ZM65.1573 413.285C65.1574 413.285 65.1966 413.304 65.1964 413.305C65.0143 413.861 65.0903 413.614 65.1182 413.539C65.1731 413.393 65.1114 413.423 65.1574 413.285L65.1573 413.285ZM899.471 415.455C899.488 415.382 899.448 415.637 899.471 415.553L899.315 416.081C899.387 415.871 899.41 415.665 899.471 415.456V415.455ZM61.5787 417.958C61.4021 418.093 61.1088 418.33 61.1094 418.33C61.1105 418.329 58.8009 419.23 58.8019 419.229C58.8019 419.229 58.745 419.229 58.7432 419.229C59.0785 419.079 61.034 418.203 61.5787 417.958L61.5787 417.958ZM105.675 428.381H265.831L413.627 756.045L105.675 428.381ZM304.334 428.381H455.944L455.436 763.417L304.334 428.381ZM491.046 428.381H643.301L490.576 763.632L491.046 428.381ZM681.863 428.381H841.921L532.62 755.849L681.863 428.381ZM475.617 842.458L477.729 842.576H475.499L475.617 842.458ZM472.058 844.551L472.097 844.59L469.711 846.741V846.232L472.058 844.551ZM889.276 416.104C889.443 415.9 889.629 415.696 889.778 415.473L889.889 415.306C890 415.12 890.075 414.915 890.186 414.711C890.297 414.507 890.427 414.246 890.521 413.987L890.614 413.801C890.614 413.596 890.725 413.373 890.781 413.169C890.866 412.921 890.934 412.665 890.985 412.408V412.222C890.985 411.961 890.985 411.701 890.985 411.442C890.985 411.181 890.985 411.051 890.985 410.847C890.985 410.643 890.985 410.847 890.985 410.736V410.587C890.975 410.293 890.938 410.001 890.873 409.714C890.892 409.491 890.892 409.267 890.873 409.045C890.881 409.015 890.881 408.983 890.873 408.952C890.873 408.711 890.725 408.487 890.651 408.246C890.651 408.005 890.502 407.744 890.409 407.503C890.409 407.318 890.205 407.169 890.112 406.983C889.988 406.713 889.845 406.453 889.685 406.202L889.591 406.072L720.038 171.479C719.771 171.123 719.48 170.789 719.163 170.476L718.941 170.253C718.591 169.931 718.218 169.632 717.827 169.362H717.66C717.278 169.117 716.874 168.911 716.452 168.748C716.377 168.7 716.296 168.663 716.21 168.637C715.745 168.458 715.267 168.316 714.78 168.209H714.631H714.483C714.028 168.128 713.569 168.085 713.108 168.079H234.614C234.152 168.086 233.693 168.129 233.239 168.209H233.09H232.96C232.466 168.313 231.982 168.456 231.511 168.637L231.27 168.748C230.851 168.919 230.447 169.125 230.062 169.362H229.913C229.518 169.627 229.145 169.926 228.799 170.253L228.558 170.476C228.253 170.794 227.968 171.128 227.703 171.479L58.2042 405.85L58.1113 405.98C57.9441 406.221 57.8326 406.482 57.6841 406.741L57.5911 406.89C57.5911 407.038 57.4239 407.169 57.3497 407.336C57.2497 407.577 57.1689 407.825 57.1082 408.079C57.1082 408.302 56.941 408.525 56.8852 408.748V408.841C56.8852 409.045 56.8852 409.286 56.7923 409.509C56.6995 409.733 56.7923 410.085 56.6808 410.383C56.5694 410.68 56.6808 410.383 56.6808 410.513C56.6808 410.643 56.6808 410.606 56.6808 410.643C56.6808 410.68 56.6808 411.032 56.6808 411.238C56.6808 411.442 56.6808 411.739 56.6808 411.998C56.6808 412.259 56.6808 412.129 56.6808 412.185C56.6808 412.241 56.8109 412.704 56.8852 412.965C56.8852 413.151 56.9781 413.336 57.0339 413.503C57.057 413.575 57.0882 413.643 57.1267 413.708C57.2292 413.957 57.3471 414.198 57.4797 414.432C57.5725 414.619 57.6469 414.823 57.7583 415.008L57.8884 415.175C58.0343 415.403 58.1957 415.62 58.3714 415.826C58.5034 416.013 58.6461 416.194 58.7986 416.365L466.644 850.478C466.674 850.47 466.706 850.47 466.736 850.478L466.922 850.663L467.015 850.756L467.126 850.849L467.665 851.295L467.925 851.499L468.056 851.592H468.186C468.221 851.633 468.265 851.665 468.316 851.685H468.427C468.705 851.853 469.003 852.001 469.3 852.15H469.411H469.504H469.615L470.006 852.279L470.842 852.539H471.065H471.418C471.876 852.631 472.344 852.675 472.811 852.67C473.273 852.674 473.733 852.63 474.186 852.539H474.52H474.744L475.58 852.298L475.988 852.15H476.099H476.21C476.518 852.013 476.815 851.859 477.103 851.685H477.233L477.363 851.592H477.474L477.789 851.61L478.05 851.406L478.588 850.961L478.718 850.867V850.756L478.905 850.589L478.998 850.496L888.812 416.699C888.97 416.526 889.113 416.34 889.239 416.142L889.276 416.104ZM229.802 197.691L266.956 402.302H81.8155L229.802 197.691ZM865.906 402.32H680.784L717.938 197.71L865.906 402.32ZM464.99 402.32H295.473L465.306 199.958L464.99 402.32ZM482.36 199.828L652.267 402.32H482.063L482.36 199.828ZM464.972 419.374L464.396 805.168L290.383 419.374H464.972ZM482.045 419.374H657.301L481.505 805.26L482.045 419.374ZM665.42 391.509L492.169 185.022H702.891L665.42 391.509ZM282.32 391.509L244.831 185.022H455.497L282.32 391.509ZM271.657 419.374L444.053 801.583L84.8441 419.374H271.657ZM676.065 419.374H862.822L501.941 801.452L676.065 419.374Z" fill="black"/>
</svg>
