<?xml version="1.0" encoding="UTF-8" standalone="no"?>
<svg
   width="1000"
   height="1000"
   viewBox="0 0 1000 1000"
   fill="none"
   version="1.1"
   id="svg136"
   sodipodi:docname="ostreiculteur.svg"
   inkscape:version="1.2.1 (9c6d41e, 2022-07-14)"
   xmlns:inkscape="http://www.inkscape.org/namespaces/inkscape"
   xmlns:sodipodi="http://sodipodi.sourceforge.net/DTD/sodipodi-0.dtd"
   xmlns="http://www.w3.org/2000/svg"
   xmlns:svg="http://www.w3.org/2000/svg">
  <sodipodi:namedview
     id="namedview5257"
     pagecolor="#ffffff"
     bordercolor="#111111"
     borderopacity="1"
     inkscape:showpageshadow="0"
     inkscape:pageopacity="0"
     inkscape:pagecheckerboard="1"
     inkscape:deskcolor="#d1d1d1"
     showgrid="false"
     inkscape:zoom="4.3014901"
     inkscape:cx="40.567337"
     inkscape:cy="27.432354"
     inkscape:window-width="1309"
     inkscape:window-height="456"
     inkscape:window-x="317"
     inkscape:window-y="1373"
     inkscape:window-maximized="0"
     inkscape:current-layer="svg136" />
  <defs
     id="defs140" />
  <g
     id="g2008"
     transform="matrix(11.137717,0,0,11.137717,50.00869,194.47194)">
    <path
       id="path134"
       style="color:#000000;fill:#000000;stroke-miterlimit:10;-inkscape-stroke:none"
       d="M 58.697266,0 C 54.787235,0.03376935 50.945354,1.0113431 47.507812,2.84375 V 2.8418 c -5.917673,3.0830427 -10.395369,7.345269 -15.134765,11.855466 -3.432181,3.268282 -6.984319,6.645838 -11.283203,9.738281 -0.675698,0.486303 -1.383585,0.926852 -2.119141,1.320312 l 0.0078,-0.002 c -0.902362,0.318617 -1.769895,0.727009 -2.587891,1.21875 -2.205721,0.861314 -4.458896,1.601043 -6.7480469,2.216797 v 0.002 c -2.4217954,0.693849 -4.6816292,1.339591 -6.4082031,2.263672 -1.7265739,0.924081 -2.9239597,2.131545 -3.1953125,3.9375 -0.23594639,1.561968 0.59967924,3.209539 1.890625,4.761719 1.2909458,1.55218 3.0423211,3.013098 4.6621094,4.197265 6.0470901,4.421882 18.4260931,10.511719 31.7050781,10.511719 5.506952,0.04566 10.955635,-1.107989 15.955078,-3.378906 9.42491,-4.339651 16.813819,-10.163611 21.363281,-16.824219 0.904165,-1.319724 1.709565,-2.703252 2.408203,-4.138672 l 0.002,-0.0039 c 0.0346,-0.05989 0.06499,-0.121771 0.0918,-0.185547 v -0.002 C 80.345617,25.663014 81.230143,20.79051 80.615234,16.234375 79.870791,10.734746 75.873881,5.6587888 69.935547,2.6484375 66.465844,0.8756572 62.607197,-0.03376936 58.697266,0 Z m 0,0.1015625 c 3.893861,-0.03363057 7.738069,0.87130267 11.193359,2.6367188 5.914054,2.9980427 9.885845,8.0472527 10.625,13.5078127 0.612017,4.534713 -0.266501,9.390548 -2.488281,14.042968 l -0.002,0.002 c -0.02586,0.06171 -0.05623,0.121856 -0.08984,0.179687 v 0.002 0.002 c -0.696918,1.432376 -1.500134,2.812035 -2.402344,4.128907 -4.536328,6.641379 -11.910194,12.455322 -21.322266,16.789062 -4.986147,2.264878 -10.421625,3.416634 -15.914062,3.371094 -13.248389,0 -25.616587,-6.084831 -31.6464844,-10.494141 C 5.0344822,43.088201 3.288061,41.633464 2.0058594,40.091797 0.72365773,38.55013 -0.09050127,36.925332 0.13867187,35.408203 0.40459854,33.638361 1.5696023,32.459061 3.28125,31.542969 c 1.7116477,-0.916092 3.9668722,-1.56201 6.3886719,-2.25586 2.2966631,-0.617774 4.5567291,-1.361997 6.7695311,-2.226562 l 0.002,-0.002 0.244141,-0.09375 h -0.04492 c 0.756143,-0.438537 1.544493,-0.825322 2.371094,-1.117188 l 0.0039,-0.002 0.002,-0.002 C 19.757111,25.44807 20.469226,25.00438 21.148527,24.515484 25.454235,21.418133 29.009284,18.037702 32.441496,14.76939 37.1808,10.259337 41.652173,6.0067887 47.554687,2.9316406 50.977939,1.1068512 54.803304,0.13519308 58.697266,0.1015625 Z m 0.02539,3.5175781 c -3.31843,0.030273 -6.579155,0.86166 -9.496094,2.4179688 -0.360347,0.1907987 -0.717197,0.3833373 -1.066406,0.5820312 -0.0038,0.00214 -0.008,0.00372 -0.01172,0.00586 L 47.80664,6.81836 48.185546,6.7167975 c 8.12744,-2.1966406 14.671129,-0.6994835 18.855469,2.2988281 5.843852,4.1935784 7.913179,11.6052824 5.273437,18.8925784 v 0.002 c -0.07435,0.221609 -0.191591,0.425564 -0.347656,0.601563 -0.155967,0.175997 -0.347185,0.319134 -0.560547,0.421875 -0.213373,0.102648 -0.446454,0.162547 -0.683594,0.175781 -0.237252,0.01333 -0.473368,-0.01942 -0.697265,-0.09766 -0.223795,-0.07823 -0.430009,-0.200053 -0.605469,-0.357422 -0.175353,-0.157458 -0.316578,-0.34679 -0.416016,-0.558594 -0.09953,-0.211888 -0.155898,-0.442525 -0.164062,-0.675781 -0.0081,-0.233121 0.03262,-0.465467 0.117187,-0.683594 C 71.080267,20.860849 69.538503,15.15244 64.929687,11.84375 59.325263,7.8215533 48.417276,7.2425951 34.605469,17.587891 l -0.002,0.002 -0.002,0.002 c -2.582113,2.456017 -5.238489,4.965541 -8.259765,7.40039 l -0.0957,0.07617 0.121093,0.01367 c 2.54439,0.262305 4.999725,1.06641 7.195313,2.357422 3.336904,2.043306 5.083486,4.89981 4.789062,7.837891 -0.187027,1.881584 -1.279294,4.35362 -4.898437,6.71289 l -0.123047,0.08008 0.146484,0.01172 c 6.639544,0.517424 13.320378,-0.05782 19.767579,-1.701172 l 0.02148,-0.0059 0.01172,-0.01758 c 2.140866,-3.933896 3.443104,-7.369567 3.894531,-10.226563 0.451427,-2.856995 0.04943,-5.139267 -1.226563,-6.757812 -1.401688,-1.777951 -3.85162,-2.703731 -6.611328,-3.021485 -2.759707,-0.317753 -5.830482,-0.02701 -8.486328,0.638672 v -0.002 c -0.451248,0.09634 -0.921825,0.01793 -1.314453,-0.220703 -0.392729,-0.238537 -0.676913,-0.617239 -0.791016,-1.056641 -0.1141,-0.439297 -0.05033,-0.904616 0.177735,-1.298828 0.227802,-0.393847 0.602641,-0.686065 1.044922,-0.814453 3.067926,-0.76939 6.75617,-1.148147 10.18164,-0.689453 3.42547,0.458695 6.585079,1.753356 8.611328,4.322266 1.545795,1.96316 2.25857,4.415313 2.138672,7.347656 -0.119897,2.932343 -1.072873,6.343349 -2.861328,10.21875 l -0.05078,0.109375 0.113281,-0.04102 c 6.241338,-2.26106 11.954349,-5.736941 16.796875,-10.220703 l 0.0078,-0.0059 0.0039,-0.0098 C 76.766171,24.643577 77.501018,20.541989 76.986328,16.738281 76.402184,12.404925 73.138931,8.3489131 68.263672,5.8789062 l -0.04492,0.087891 c 4.851931,2.4581881 8.089314,6.4925208 8.667969,10.7851558 0.511307,3.77871 -0.220458,7.856504 -2.070313,11.824219 -4.801806,4.44399 -10.465,7.888378 -16.646484,10.144531 1.754718,-3.831268 2.706832,-7.219962 2.826172,-10.138672 0.12065,-2.950801 -0.596603,-5.430826 -2.158205,-7.414062 C 56.790444,18.572184 53.602129,17.271451 50.160156,16.810547 46.718183,16.349642 43.020173,16.727891 39.941406,17.5 h -0.002 c -0.467446,0.135243 -0.864337,0.444435 -1.105469,0.861328 -0.24113,0.416787 -0.308199,0.910298 -0.1875,1.375 0.120698,0.464797 0.419315,0.865325 0.833985,1.117188 0.414571,0.251968 0.912521,0.336033 1.388672,0.234375 l 0.002,-0.002 c 2.644848,-0.662921 5.706734,-0.950761 8.451172,-0.634765 2.744437,0.315995 5.167913,1.235776 6.544921,2.982422 1.254005,1.590652 1.655754,3.841767 1.207032,6.68164 -0.447851,2.834359 -1.745072,6.254051 -3.875,10.171875 -6.38449,1.624912 -12.999185,2.192366 -19.574219,1.695313 3.527923,-2.344527 4.638636,-4.808614 4.826172,-6.695313 0.298976,-2.983513 -1.476848,-5.87475 -4.835938,-7.93164 v -0.002 c -2.178515,-1.281271 -4.614574,-2.074785 -7.136718,-2.34961 2.989991,-2.416171 5.629597,-4.902965 8.1875,-7.335937 l 0.0039,-0.0039 C 48.457888,7.3385766 59.313551,7.935278 64.871094,11.923828 c 4.573175,3.283103 6.103147,8.937788 3.992187,14.779297 -0.08895,0.230146 -0.131559,0.474673 -0.123047,0.720703 0.0086,0.246744 0.06856,0.490732 0.173828,0.714844 0.105162,0.223995 0.254207,0.423502 0.439454,0.589844 0.18534,0.16623 0.402466,0.294384 0.638671,0.376953 0.236303,0.08257 0.485981,0.119536 0.736329,0.105468 0.250259,-0.01397 0.495476,-0.07719 0.720703,-0.185546 0.225237,-0.10846 0.426964,-0.261264 0.591797,-0.447266 0.164556,-0.185574 0.290462,-0.400994 0.36914,-0.634766 v -0.002 C 75.061969,20.61852 72.979241,13.152847 67.099609,8.9335938 62.942497,5.9547921 56.466517,4.4880228 48.460937,6.5683594 48.729777,6.4193173 48.997903,6.2708847 49.273437,6.125 h 0.002 c 2.902655,-1.5486881 6.146855,-2.3741702 9.449218,-2.4042969 3.302463,-0.030226 6.560696,0.7351455 9.492188,2.2304688 l 0.04687,-0.089844 C 65.31777,4.3586544 62.041187,3.5887671 58.722656,3.6191406 Z M 23.361328,28.521484 c -1.012779,0.07717 -2.022588,0.268031 -2.992187,0.59375 l -0.0039,0.002 -0.002,0.002 c -0.805758,0.42357 -1.63263,0.800828 -2.46289,1.146484 h -0.04102 l -0.0098,0.002 c -2.348821,0.9239 -4.749648,1.714625 -7.191406,2.365234 h -0.002 C 8.9922928,33.109865 7.2983821,33.596052 5.9921875,34.125 5.3390902,34.389474 4.7835191,34.66278 4.375,34.955078 3.9664809,35.247377 3.701772,35.560444 3.6484375,35.902344 v 0.002 0.002 c -0.011395,0.180803 0.08263,0.456268 0.2988281,0.832031 0.2161978,0.375764 0.5563897,0.848654 1.0488281,1.402344 0.9848769,1.10738 2.5758032,2.53976 4.9843751,4.166016 4.1915272,2.830448 10.8909932,6.143977 18.5332032,7.833984 7.622511,1.68565 16.182663,1.747169 24.123047,-1.896484 l 0.0059,0.03516 0.0625,-0.02734 c 5.950347,-2.761724 11.010807,-6.103529 14.960938,-9.865234 l 0.292968,-0.279297 -0.353515,0.199219 c -0.0033,0.0019 -0.0065,0.004 -0.0098,0.0059 -3.943883,2.2316 -8.151834,3.974357 -12.53125,5.189453 h -0.002 c -0.07078,0.02288 -0.143925,0.04294 -0.216797,0.05859 h -0.002 c -3.679814,1.006084 -7.447683,1.670374 -11.253906,1.982422 -1.915175,0.161579 -3.782826,0.236328 -5.589844,0.236328 -9.320848,0 -17.01967,-1.969932 -21.501953,-4.066406 -0.371814,-0.22696 -0.645806,-0.579801 -0.769531,-0.992188 -0.12382,-0.412278 -0.08723,-0.855306 0.09961,-1.244141 0.186932,-0.388737 0.511043,-0.695242 0.914062,-0.863281 0.403015,-0.167939 0.855115,-0.185338 1.269532,-0.04687 2.887939,1.262024 5.923247,2.169083 9.037109,2.699219 l 0.01367,0.002 0.01367,-0.0059 c 2.343032,-0.906128 4.215605,-1.927233 5.533203,-3 1.316928,-1.072223 2.082545,-2.197767 2.193359,-3.3125 v -0.002 c 0.154104,-1.550016 -1.027072,-3.234955 -3.132812,-4.517579 -2.193347,-1.336774 -5.270256,-2.139712 -8.308594,-1.908203 z m 0.0078,0.09961 c 3.016265,-0.228653 6.077001,0.570158 8.25,1.894531 2.087458,1.271488 3.233411,2.928779 3.083984,4.421875 -0.106394,1.076709 -0.85055,2.183013 -2.15625,3.246094 -1.302419,1.060409 -3.166208,2.076739 -5.494141,2.978515 -3.102387,-0.529351 -6.12658,-1.431682 -9.003906,-2.689453 h -0.002 -0.002 c -0.437383,-0.146136 -0.914459,-0.130386 -1.339844,0.04687 -0.425379,0.177362 -0.771082,0.503001 -0.96875,0.914063 -0.197565,0.411165 -0.234496,0.880285 -0.103515,1.316406 0.130874,0.436213 0.421867,0.809189 0.814453,1.048828 l 0.002,0.002 h 0.002 C 20.950983,43.906298 28.662667,45.878906 38,45.878906 c 1.809779,0 3.679635,-0.07451 5.597656,-0.236328 3.81237,-0.312552 7.585706,-0.978614 11.271485,-1.986328 l -0.002,0.002 c 0.07551,-0.01622 0.149216,-0.03688 0.222657,-0.06055 4.238259,-1.175931 8.306446,-2.870494 12.140625,-4.998047 -3.877482,3.614966 -8.755317,6.850381 -14.507813,9.527344 l -0.0039,-0.02148 -0.06055,0.02734 C 44.725793,51.79348 36.162481,51.729684 28.535156,50.042969 20.907831,48.356254 14.217674,45.045702 10.037109,42.222656 7.6341864,40.600215 6.0500617,39.173637 5.0722656,38.074219 4.5833676,37.52451 4.2447893,37.055248 4.0332031,36.6875 3.8220864,36.320568 3.7398666,36.050904 3.7480469,35.914062 c 0.047386,-0.300316 0.2884225,-0.592807 0.6855468,-0.876953 0.3976739,-0.284538 0.9466768,-0.557487 1.5957032,-0.820312 1.2980527,-0.525651 2.9903577,-1.011234 4.6542971,-1.488281 2.441453,-0.650528 4.842693,-1.43993 7.191406,-2.363282 h 0.04687 l 0.0098,-0.0039 c 0.832374,-0.346323 1.661519,-0.725389 2.470703,-1.150391 0.960998,-0.32283 1.961375,-0.513626 2.966797,-0.589843 z m -6.948712,-1.606188 c -2.2111,0.8639 -4.4693,1.6063 -6.7641996,2.2236 -4.8436,1.3877 -9.02960996,2.5863 -9.56688996,6.1621 -0.46512,3.0791 3.29588996,6.5445 6.53158996,8.91 6.0384996,4.4156 18.4120996,10.5028 31.6757996,10.5028 5.4997,0.0456 10.9414,-1.1069 15.9342,-3.3748 9.4185,-4.3367 16.8002,-10.1558 21.343,-16.8068 0.9037,-1.3189 1.7078,-2.7011 2.4058,-4.1357 0.0347,-0.0597 0.0655,-0.1216 0.0922,-0.1853 2.2254,-4.66 3.1075,-9.525 2.494,-14.0707 -0.7418,-5.4801 -4.7273,-10.5422005 -10.6535,-13.5464005 -3.4625,-1.76909996 -7.3133,-2.67649996 -11.2152,-2.64279996 -3.902,0.0337 -7.736,1.00739996 -11.1664,2.83599996 -5.9101,3.0791 -10.3848,7.3370005 -15.1242,11.8472005 -3.4322,3.2683 -6.9847,6.647 -11.287,9.7419 -0.6775,0.4876 -1.3875,0.9301 -2.125,1.3246 -0.8992,0.3175 -1.7631,0.7243 -2.5782,1.2143 z m 36.2588,21.1633 c -15.8901,7.333 -34.2981,-0.2602 -42.6702,-5.9137 -4.8114996,-3.2487 -6.3510996,-5.7206 -6.3110996,-6.3553 0.2005,-1.2853 3.6448,-2.2748 6.9726996,-3.2289 2.4436,-0.6511 4.8467,-1.4409 7.1973,-2.3655 h 0.0441 c 0.834,-0.347 1.6639,-0.7254 2.4739,-1.1512 3.8612,-1.2971 8.348,-0.4652 11.2589,1.3089 2.097,1.2773 3.2598,2.949 3.1075,4.4708 -0.2166,2.192 -3.0153,4.4629 -7.6945,6.2725 -3.1113,-0.5297 -6.1442,-1.4354 -9.0296,-2.6967 -0.4259,-0.1423 -0.8903,-0.1255 -1.3045,0.0471 -0.4142,0.1727 -0.7493,0.4891 -0.9416,0.889 -0.1922,0.4 -0.2281,0.8555 -0.1007,1.2797 0.1273,0.4243 0.4089,0.7877 0.7911,1.021 4.4908,2.1013 12.1972,4.0726 21.5275,4.0726 1.8084,0 3.6768,-0.0749 5.5934,-0.2366 3.8093,-0.3123 7.5802,-0.9762 11.263,-1.9831 0.0745,-0.016 0.1481,-0.0357 0.2205,-0.0591 4.3869,-1.2172 8.6037,-2.9638 12.554,-5.2001 -3.9454,3.7572 -9.0015,7.0964 -14.9477,9.8562 z m 15.5612,-42.2556005 c 4.8636,2.4641 8.1154,6.5091005 8.6968,10.8221005 0.5132,3.7927 -0.2205,7.885 -2.077,11.863 -4.8376,4.4792 -10.545,7.9522 -16.7801,10.211 3.5806,-7.7588 3.8251,-13.6725 0.7177,-17.6189 -4.0737,-5.1647 -12.6984,-5.1923 -18.8451,-3.6508 -0.4552,0.1317 -0.8407,0.4319 -1.0753,0.8375 -0.2346,0.4055 -0.3001,0.8847 -0.1827,1.3367 0.1174,0.4521 0.4085,0.8417 0.8122,1.0869 0.4036,0.2453 0.8883,0.327 1.352,0.228 5.3007,-1.3286 12.2693,-1.1591 15.048,2.3655 2.53,3.2092 1.6038,9.0677 -2.6744,16.929 -6.4419,1.642 -13.1172,2.2163 -19.7513,1.6993 3.6287,-2.3655 4.7313,-4.8532 4.9198,-6.7496 0.2967,-2.9608 -1.4635,-5.8349 -4.8115,-7.885 -2.2022,-1.2952 -4.6652,-2.1024 -7.2173,-2.3655 3.0232,-2.4364 5.6816,-4.9478 8.2638,-7.4039 13.801,-10.3372005 24.6831,-9.7498005 30.2644,-5.7442 4.591,3.2959 6.1267,8.977 4.0096,14.8355 -0.087,0.2244 -0.1276,0.4635 -0.1192,0.7034 0.0083,0.24 0.0652,0.4759 0.1676,0.6939 0.1023,0.2179 0.2479,0.4136 0.4282,0.5755 0.1804,0.1618 0.3918,0.2866 0.6218,0.367 0.2301,0.0804 0.4742,0.1148 0.718,0.1011 0.2437,-0.0136 0.4823,-0.0751 0.7016,-0.1806 0.2193,-0.1056 0.4149,-0.2532 0.5753,-0.4342 0.1605,-0.181 0.2825,-0.3917 0.359,-0.6197 2.6463,-7.3054 0.5693,-14.7449 -5.2927,-18.9515005 -4.198,-3.0081 -10.7577,-4.5063 -18.8972,-2.3064 0.3528,-0.201 0.7137,-0.3942 1.0786,-0.5874 2.9098,-1.5525 6.1623,-2.3801 9.4727,-2.4103 3.3105,-0.0303 6.578,0.7378 9.5167,2.2368" />
  </g>
</svg>
