<svg viewBox="0 0 900 612" xmlns="http://www.w3.org/2000/svg">
<path d="M653.762 0.471897C610.213 0.84801 567.424 11.7359 529.137 32.1448V32.1231C463.228 66.4611 413.357 113.933 360.57 164.166C322.344 200.567 282.781 238.185 234.901 272.628C227.376 278.044 219.491 282.951 211.299 287.333L211.386 287.311C201.336 290.86 191.673 295.408 182.563 300.885C157.996 310.478 132.901 318.717 107.405 325.575V325.598C80.4316 333.325 55.2622 340.518 36.0321 350.81C16.802 361.102 3.46585 374.55 0.443597 394.664C-2.18431 412.061 7.12265 430.411 21.5008 447.699C35.879 464.987 55.3854 481.258 73.4261 494.447C140.777 543.697 278.651 611.524 426.548 611.524C487.883 612.032 548.569 599.183 604.251 573.89C709.223 525.557 791.519 460.691 842.19 386.507C852.26 371.808 861.23 356.399 869.011 340.412L869.034 340.368C869.419 339.701 869.758 339.012 870.056 338.302V338.279C894.875 286.299 904.727 232.031 897.878 181.286C889.587 120.032 845.07 63.4979 778.931 29.9694C740.286 10.2247 697.31 0.095783 653.762 0.471897ZM653.762 1.60307C697.131 1.2285 739.947 11.3074 778.431 30.9701C844.3 64.3614 888.536 120.598 896.769 181.416C903.585 231.923 893.801 286.006 869.055 337.823L869.033 337.845C868.745 338.532 868.407 339.202 868.032 339.846V339.869V339.891C860.27 355.844 851.324 371.211 841.276 385.878C790.751 459.847 708.623 524.602 603.794 572.869C548.26 598.095 487.721 610.923 426.548 610.416C278.991 610.416 141.238 542.645 74.0784 493.535C56.0813 480.376 36.6302 464.174 22.3494 447.003C8.06857 429.832 -0.999303 411.736 1.55316 394.838C4.51498 375.126 17.4905 361.992 36.5543 351.789C55.6182 341.585 80.7362 334.391 107.71 326.663C133.289 319.783 158.461 311.494 183.107 301.865L183.129 301.842L185.848 300.798H185.348C193.769 295.914 202.55 291.606 211.756 288.355L211.8 288.333L211.822 288.311C220.058 283.905 227.989 278.964 235.555 273.518C283.511 239.021 323.106 201.371 361.333 164.969C414.118 114.737 463.919 67.3738 529.659 33.1237C567.786 12.7997 610.392 1.97764 653.762 1.60307ZM654.045 40.7809C617.085 41.118 580.768 50.3778 548.28 67.7115C544.267 69.8366 540.292 71.981 536.403 74.194C536.361 74.2179 536.314 74.2354 536.272 74.2593L532.465 76.4129L536.686 75.2817C627.207 50.8161 700.088 67.491 746.692 100.885C811.78 147.592 834.827 230.142 805.427 311.306V311.328C804.598 313.796 803.293 316.068 801.554 318.028C799.817 319.988 797.688 321.582 795.311 322.727C792.935 323.87 790.339 324.537 787.698 324.684C785.055 324.833 782.425 324.468 779.932 323.597C777.439 322.725 775.142 321.369 773.188 319.616C771.235 317.862 769.662 315.753 768.555 313.394C767.446 311.034 766.818 308.466 766.727 305.868C766.637 303.271 767.091 300.683 768.033 298.254C791.681 232.814 774.509 169.235 723.177 132.384C660.757 87.5861 539.267 81.1379 385.435 196.361L385.412 196.383L385.39 196.405C356.631 223.76 327.045 251.71 293.395 278.829L292.329 279.677L293.678 279.829C322.017 282.751 349.363 291.707 373.817 306.086C410.983 328.844 430.436 360.658 427.156 393.382C425.073 414.339 412.908 441.871 372.599 468.148L371.229 469.04L372.86 469.171C446.809 474.934 521.219 468.527 593.026 450.224L593.265 450.158L593.396 449.962C617.24 406.147 631.744 367.882 636.772 336.061C641.8 304.241 637.322 278.822 623.111 260.795C607.499 240.993 580.212 230.681 549.476 227.142C518.739 223.603 484.537 226.842 454.957 234.256V234.233C449.931 235.306 444.69 234.433 440.317 231.775C435.943 229.119 432.778 224.901 431.507 220.007C430.236 215.114 430.947 209.931 433.487 205.541C436.024 201.154 440.199 197.9 445.125 196.47C479.294 187.9 520.373 183.682 558.525 188.791C596.677 193.9 631.868 208.319 654.435 236.931C671.652 258.796 679.591 286.107 678.255 318.767C676.92 351.427 666.306 389.417 646.387 432.581L645.821 433.799L647.083 433.342C716.597 408.159 780.227 369.445 834.162 319.507L834.249 319.441L834.292 319.332C855.008 274.945 863.193 229.263 857.461 186.898C850.955 138.634 814.609 93.4597 760.31 65.9495L759.81 66.9284C813.849 94.307 849.906 139.24 856.351 187.05C862.046 229.137 853.896 274.554 833.293 318.745C779.811 368.241 716.736 406.604 647.889 431.732C667.432 389.061 678.037 351.318 679.366 318.81C680.71 285.945 672.721 258.323 655.328 236.235C632.525 207.324 597.014 192.836 558.678 187.703C520.343 182.57 479.155 186.782 444.865 195.382H444.842C439.636 196.888 435.216 200.332 432.53 204.975C429.844 209.617 429.097 215.114 430.442 220.29C431.786 225.466 435.112 229.927 439.73 232.732C444.348 235.539 449.894 236.475 455.197 235.343L455.219 235.321C484.677 227.937 518.779 224.731 549.346 228.251C579.913 231.77 606.905 242.014 622.242 261.468C636.208 279.184 640.683 304.257 635.685 335.886C630.697 367.455 616.249 405.542 592.526 449.178C521.418 467.276 447.745 473.596 374.514 468.06C413.807 441.947 426.178 414.503 428.267 393.489C431.597 360.26 411.818 328.058 374.406 305.149V305.127C350.142 290.856 323.01 282.018 294.919 278.957C328.221 252.047 357.62 224.349 386.109 197.252L386.152 197.208C539.719 82.2069 660.626 88.8528 722.525 133.276C773.459 169.842 790.5 232.823 766.988 297.884C765.998 300.447 765.523 303.171 765.618 305.911C765.714 308.659 766.381 311.376 767.554 313.872C768.725 316.367 770.385 318.589 772.448 320.442C774.513 322.293 776.931 323.721 779.562 324.64C782.194 325.56 784.975 325.972 787.763 325.815C790.55 325.659 793.281 324.955 795.79 323.748C798.298 322.541 800.545 320.839 802.381 318.767C804.214 316.7 805.616 314.301 806.492 311.697V311.675C836.028 230.115 812.831 146.965 747.345 99.9717C701.044 66.7947 628.917 50.4582 539.753 73.6284C542.747 71.9684 545.733 70.3152 548.802 68.6904H548.824C581.153 51.4416 617.286 42.2476 654.067 41.912C690.849 41.5754 727.138 50.0999 759.789 66.7544L760.311 65.7537C727.499 49.0174 691.006 40.4426 654.045 40.7809ZM260.201 318.136C248.92 318.996 237.673 321.121 226.874 324.749L226.831 324.771L226.809 324.794C217.834 329.511 208.625 333.713 199.378 337.563H198.921L198.812 337.585C172.651 347.875 145.911 356.682 118.716 363.929H118.694C100.162 369.24 81.296 374.655 66.748 380.547C59.4739 383.492 53.2862 386.536 48.7362 389.792C44.1862 393.047 41.238 396.534 40.6439 400.342V400.364V400.387C40.517 402.4 41.5642 405.468 43.9722 409.654C46.3801 413.839 50.1691 419.106 55.6537 425.272C66.623 437.606 84.3423 453.56 111.168 471.672C157.852 503.197 232.469 540.102 317.586 558.925C402.483 577.699 497.824 578.385 586.262 537.803L586.327 538.194L587.023 537.89C653.297 507.13 709.659 469.91 753.654 428.013L756.917 424.903L752.98 427.122C752.943 427.143 752.907 427.166 752.871 427.187C708.945 452.042 662.078 471.453 613.301 484.986H613.279C612.49 485.241 611.676 485.464 610.864 485.638H610.842C569.857 496.844 527.892 504.243 485.499 507.718C464.168 509.518 443.367 510.35 423.241 510.35C319.428 510.35 233.681 488.41 183.758 465.06C179.617 462.532 176.565 458.602 175.187 454.009C173.808 449.417 174.216 444.483 176.297 440.152C178.379 435.823 181.989 432.409 186.477 430.537C190.966 428.667 196.001 428.473 200.617 430.015C232.782 444.071 266.589 454.174 301.27 460.078L301.422 460.101L301.574 460.035C327.67 449.943 348.527 438.57 363.202 426.622C377.869 414.68 386.396 402.144 387.631 389.728V389.706C389.347 372.442 376.191 353.676 352.738 339.39C328.309 324.502 294.04 315.559 260.2 318.137L260.201 318.136ZM260.287 319.246C293.882 316.699 327.971 325.596 352.174 340.346C375.423 354.508 388.186 372.966 386.522 389.596C385.337 401.588 377.049 413.91 362.506 425.75C348 437.561 327.242 448.88 301.314 458.924C266.761 453.028 233.078 442.978 201.031 428.969H201.009H200.987C196.115 427.342 190.802 427.517 186.064 429.492C181.326 431.467 177.476 435.094 175.274 439.672C173.074 444.252 172.662 449.476 174.121 454.334C175.579 459.192 178.82 463.346 183.192 466.015L183.215 466.038H183.237C233.355 489.488 319.245 511.458 423.242 511.458C443.399 511.458 464.225 510.628 485.587 508.826C528.048 505.345 570.074 497.927 611.126 486.703L611.103 486.725C611.944 486.544 612.765 486.314 613.583 486.051C660.788 472.954 706.098 454.08 748.802 430.384C705.616 470.646 651.288 506.682 587.218 536.497L587.175 536.258L586.5 536.562C498.152 577.333 402.776 576.622 317.825 557.836C232.874 539.05 158.361 502.178 111.799 470.736C85.0361 452.666 67.3925 436.777 56.5021 424.532C51.0569 418.409 47.2859 413.183 44.9293 409.087C42.578 405 41.6622 401.997 41.7534 400.473C42.2811 397.128 44.9657 393.87 49.3888 390.705C53.818 387.536 59.9326 384.496 67.1613 381.569C81.6186 375.714 100.467 370.306 119 364.993C146.192 357.747 172.936 348.955 199.095 338.671H199.617L199.727 338.628C208.997 334.771 218.232 330.549 227.245 325.815C237.948 322.22 249.09 320.095 260.288 319.246L260.287 319.246ZM182.895 301.356C158.268 310.978 133.117 319.247 107.557 326.122C53.6102 341.578 6.98764 354.928 1.00357 394.754C-4.17681 429.048 37.7123 467.645 73.7506 493.991C141.006 543.171 278.819 610.968 426.547 610.968C487.801 611.476 548.409 598.64 604.017 573.381C708.918 525.08 791.133 460.268 841.729 386.191C851.795 371.502 860.75 356.107 868.525 340.129C868.911 339.464 869.254 338.775 869.552 338.065C894.337 286.163 904.162 231.978 897.329 181.35C889.067 120.314 844.678 63.9336 778.673 30.4736C740.109 10.7699 697.22 0.663527 653.762 1.03887C610.302 1.41421 567.6 12.259 529.393 32.6254C463.568 66.9196 413.73 114.343 360.944 164.576C322.717 200.978 283.151 238.609 235.233 273.079C227.687 278.509 219.779 283.438 211.565 287.832C201.55 291.368 191.928 295.899 182.85 301.356H182.895ZM586.735 537.067C409.755 618.74 204.732 534.169 111.486 471.202C57.8971 435.019 40.7495 407.488 41.195 400.418C43.4281 386.103 81.7898 375.082 118.855 364.456C146.071 357.204 172.836 348.408 199.016 338.11H199.508C208.796 334.245 218.04 330.03 227.061 325.288C270.066 310.841 320.039 320.107 352.46 339.866C375.815 354.092 388.766 372.711 387.07 389.661C384.658 414.074 353.487 439.367 301.371 459.522C266.718 453.622 232.939 443.535 200.802 429.487C196.058 427.902 190.886 428.089 186.273 430.011C181.659 431.935 177.927 435.459 175.785 439.913C173.645 444.368 173.245 449.441 174.664 454.166C176.082 458.891 179.218 462.939 183.475 465.537C233.492 488.941 319.324 510.897 423.242 510.897C443.384 510.897 464.193 510.063 485.54 508.262C527.967 504.783 569.966 497.389 610.984 486.174C611.814 485.996 612.633 485.777 613.44 485.516C662.3 471.959 709.265 452.506 753.263 427.599C709.32 469.446 653.006 506.637 586.779 537.375L586.735 537.067ZM760.051 66.4362C814.22 93.8807 850.438 138.933 856.914 186.97C862.629 229.212 854.458 274.791 833.78 319.096C779.901 368.985 716.333 407.666 646.889 432.824C686.768 346.408 689.491 280.543 654.882 236.589C609.51 179.066 513.451 178.759 444.991 195.928C439.921 197.395 435.627 200.738 433.014 205.256C430.401 209.772 429.672 215.109 430.979 220.143C432.287 225.179 435.529 229.518 440.025 232.249C444.521 234.981 449.919 235.891 455.084 234.788C514.121 219.991 591.736 221.879 622.684 261.135C650.862 296.878 640.547 362.128 592.897 449.685C521.149 467.973 446.802 474.37 372.913 468.611C413.328 442.265 425.609 414.558 427.708 393.436C431.013 360.46 411.408 328.449 374.119 305.615C349.592 291.19 322.159 282.199 293.735 279.269C327.406 252.133 357.015 224.162 385.775 196.807C539.486 81.6737 660.688 88.216 722.851 132.829C773.984 169.538 791.089 232.813 767.509 298.063C766.54 300.562 766.088 303.225 766.181 305.897C766.274 308.57 766.907 311.198 768.048 313.626C769.187 316.053 770.809 318.232 772.817 320.035C774.826 321.837 777.181 323.227 779.743 324.123C782.305 325.018 785.024 325.402 787.739 325.249C790.454 325.097 793.111 324.412 795.554 323.237C797.996 322.061 800.175 320.417 801.961 318.401C803.749 316.386 805.108 314.039 805.96 311.499C835.433 230.134 812.3 147.275 747.011 100.423C700.255 66.9196 627.195 50.2331 536.539 74.7349C540.469 72.4962 544.488 70.3444 548.552 68.1926C580.961 50.9013 617.186 41.6837 654.057 41.3474C690.928 41.0099 727.321 49.5648 760.051 66.2602" fill="black"/>
</svg>
