<svg viewBox="0 0 900 786" xmlns="http://www.w3.org/2000/svg">
<path d="M181.747 9.59534C179.954 9.11549 178.085 8.99357 176.245 9.23654C174.406 9.4795 172.632 10.0826 171.026 11.0114C167.783 12.8846 165.416 15.9692 164.447 19.5868C163.478 23.2044 163.986 27.0588 165.858 30.3023L274.561 218.504C276.434 221.747 279.518 224.113 283.136 225.082C286.754 226.052 290.608 225.544 293.852 223.672C297.095 221.798 299.461 218.714 300.43 215.096C301.399 211.479 300.891 207.624 299.019 204.381L190.317 16.1789C188.446 12.9351 185.363 10.567 181.747 9.59534ZM48.0159 108.367C46.161 108.465 44.3438 108.929 42.6681 109.73C40.9925 110.532 39.4914 111.656 38.2509 113.038C35.753 115.826 34.4641 119.492 34.6676 123.23C34.871 126.968 36.5501 130.472 39.3359 132.973L201.001 278.087C202.382 279.327 203.994 280.282 205.744 280.899C207.495 281.515 209.349 281.781 211.202 281.68C213.056 281.579 214.871 281.114 216.544 280.311C218.217 279.509 219.716 278.384 220.954 277.002C223.452 274.214 224.741 270.548 224.537 266.81C224.334 263.072 222.655 259.568 219.869 257.068L58.2039 111.953C55.4171 109.455 51.7529 108.166 48.0159 108.367V108.367ZM565.764 255.854C546.696 282.162 537.603 314.397 540.11 346.792L558.886 345.339C556.723 317.395 564.561 289.6 581.009 266.906L565.764 255.854ZM740.192 120.872C722.887 120.872 708.653 135.105 708.653 152.411C708.653 169.717 722.887 183.95 740.192 183.95C757.496 183.95 771.73 169.717 771.73 152.411C771.73 135.105 757.496 120.872 740.192 120.872ZM740.192 139.704C747.319 139.704 752.899 145.283 752.899 152.411C752.899 159.539 747.319 165.118 740.192 165.118C733.063 165.118 727.484 159.539 727.484 152.411C727.484 145.283 733.063 139.704 740.192 139.704ZM656.132 120.872C638.827 120.872 624.593 135.106 624.593 152.411C624.593 169.716 638.827 183.95 656.132 183.95C673.437 183.95 687.67 169.716 687.67 152.411C687.67 135.106 673.437 120.872 656.132 120.872ZM656.132 139.704C663.26 139.704 668.839 145.283 668.839 152.411C668.839 159.539 663.26 165.118 656.132 165.118C649.003 165.118 643.424 159.539 643.424 152.411C643.424 145.283 649.003 139.704 656.132 139.704ZM712.129 84.5156C710.914 84.2836 709.665 84.2931 708.454 84.5437C707.243 84.7943 706.093 85.281 705.071 85.9761C704.048 86.6711 703.172 87.5609 702.493 88.5945C701.814 89.6282 701.345 90.7855 701.113 92.0003L678.604 209.291C678.369 210.507 678.377 211.757 678.626 212.971C678.876 214.184 679.362 215.336 680.057 216.361C680.752 217.386 681.643 218.263 682.678 218.944C683.713 219.624 684.872 220.093 686.089 220.325C687.304 220.557 688.552 220.547 689.763 220.297C690.974 220.046 692.124 219.559 693.147 218.864C694.17 218.169 695.046 217.279 695.725 216.246C696.404 215.212 696.873 214.055 697.104 212.84L719.595 95.5495C719.83 94.3347 719.823 93.0855 719.575 91.8734C719.327 90.6612 718.842 89.5099 718.149 88.4851C717.455 87.4604 716.567 86.5823 715.534 85.9012C714.501 85.2201 713.344 84.7493 712.129 84.5156V84.5156ZM771.436 0.455579C761.392 -0.680851 751.285 2.07845 743.226 8.17932L569.442 139.722L569.332 139.814C564.555 143.586 560.711 148.419 558.114 153.919C555.515 159.423 554.239 165.454 554.362 171.537V170.93L552.707 243.772V243.919C552.696 254.032 556.573 263.767 563.539 271.099C570.504 278.432 580.047 282.824 590.149 283.329H590.168L666.964 286.86H667C675.971 287.225 684.81 284.509 692.029 279.173L860.572 155.979C864.912 152.806 868.569 148.785 871.293 144.154C874.012 139.53 875.759 134.387 876.424 129.056V129.037C877.086 123.708 876.657 118.3 875.155 113.149C873.65 107.992 871.099 103.184 867.671 99.0436V99.0247L797.237 14.3215L797.218 14.2847C790.726 6.5378 781.48 1.59186 771.436 0.455579ZM768.273 28.5185C771.117 28.8403 773.714 30.2448 775.555 32.4355C775.559 32.4398 775.57 32.4312 775.574 32.4355L845.934 117.084C846.896 118.252 847.605 119.6 848.03 121.056C848.457 122.518 848.586 124.037 848.398 125.543V125.562C848.211 127.069 847.718 128.513 846.945 129.829C846.173 131.142 845.138 132.279 843.911 133.176L675.258 256.443L675.239 256.462C673.198 257.97 670.695 258.749 668.159 258.65L591.546 255.101C588.684 254.958 586.001 253.723 584.025 251.644C582.053 249.568 580.955 246.838 580.954 243.975C580.954 243.969 580.954 243.963 580.954 243.956L582.609 171.261L582.59 170.967C582.555 169.242 582.922 167.539 583.657 165.983C584.394 164.421 585.487 163.06 586.838 161.993L760.273 30.7069C762.56 28.9761 765.423 28.1961 768.273 28.5185ZM445.733 8.97008C436.805 8.95389 427.965 10.6924 419.712 14.1009C411.454 17.5116 403.944 22.5316 397.625 28.8495C391.308 35.1684 386.306 42.6598 382.895 50.9173V50.9357C379.485 59.1942 377.727 68.0396 377.746 76.9757V341.146H72.7319C63.1813 341.146 53.7129 343.028 44.8896 346.681C36.0662 350.336 28.0487 355.707 21.2955 362.46C14.5419 369.213 9.19012 377.231 5.53535 386.054C1.88045 394.877 0 404.327 0 413.878C0 423.428 1.8806 432.896 5.53535 441.72C9.19019 450.543 14.5422 458.561 21.2955 465.314C28.0487 472.068 36.0662 477.419 44.8896 481.074C53.7133 484.73 63.1813 486.61 72.7319 486.61H75.0858L111.921 683.712L115.341 702.157V702.176C119.739 725.65 132.192 746.859 150.558 762.127C168.923 777.395 192.051 785.759 215.934 785.795H683.625H683.643C707.565 785.749 730.722 777.338 749.093 762.017C767.459 746.699 779.893 725.437 784.236 701.919L788.135 683.161L824.988 485.856H827.342C846.586 485.856 865.047 478.211 878.668 464.616C892.289 451.021 899.962 432.571 900 413.327V413.308C900 394.039 892.348 375.551 878.723 361.927C865.098 348.301 846.611 340.65 827.342 340.65H824.418L823.921 341.146H521.812V76.9758V76.9574C521.829 68.0274 520.089 59.1886 516.681 50.9357V50.9174C513.27 42.6593 508.25 35.1681 501.933 28.8495C495.615 22.5318 488.124 17.5117 479.865 14.1009C471.612 10.6922 462.754 8.95389 453.825 8.97008H445.752H445.733ZM445.715 23.0935H445.733H453.843C460.92 23.0788 467.919 24.4567 474.458 27.1577C480.999 29.8587 486.944 33.8321 491.947 38.8352C496.951 43.8398 500.923 49.7845 503.625 56.324C506.325 62.8649 507.704 69.863 507.689 76.939V76.9574V355.269H829.769L829.788 355.251C844.394 355.883 858.357 361.53 868.737 371.912C879.717 382.892 885.877 397.779 885.877 413.307C885.842 428.81 879.674 443.659 868.7 454.611C857.724 465.566 842.85 471.732 827.342 471.732H813.255L774.287 680.42L770.352 699.251V699.344C766.609 719.629 755.887 737.954 740.045 751.166C724.208 764.374 704.246 771.626 683.625 771.671H215.953H215.934C195.345 771.636 175.419 764.42 159.587 751.258C143.75 738.093 133.018 719.825 129.226 699.583L125.805 681.138L86.8001 472.486H72.7319C65.0359 472.486 57.4065 470.963 50.2963 468.018C43.1859 465.072 36.723 460.752 31.2811 455.31C25.8392 449.868 21.5373 443.423 18.5921 436.314C15.6469 429.203 14.1234 421.573 14.1234 413.878C14.1234 406.181 15.6471 398.57 18.5921 391.461C21.5373 384.351 25.8394 377.887 31.2811 372.446C36.723 367.004 43.1859 362.684 50.2963 359.738C57.4068 356.794 65.0359 355.269 72.7319 355.269H391.869V76.9574V76.939C391.854 69.863 393.251 62.8649 395.952 56.324H395.933C398.635 49.784 402.607 43.8395 407.611 38.8352C412.614 33.8324 418.56 29.8588 425.099 27.1577C431.64 24.4566 438.639 23.0788 445.715 23.0935ZM445.715 25.1532C431.994 25.1924 418.838 30.6591 409.137 40.3616C399.434 50.0631 393.968 63.2189 393.929 76.939V76.9574V355.269H505.629V76.939C505.59 63.2189 500.123 50.0631 490.421 40.3616C480.719 30.6589 467.563 25.1924 453.843 25.1532H445.733H445.715ZM445.733 39.2766H453.825C463.812 39.31 473.374 43.2851 480.435 50.3473C487.502 57.413 491.477 66.9817 491.506 76.9758V341.146H408.053V76.9758C408.081 66.9817 412.057 57.413 419.123 50.3473C426.185 43.2849 435.746 39.31 445.733 39.2766V39.2766ZM72.7135 357.329C57.7859 357.368 43.4737 363.324 32.9178 373.88C22.3621 384.436 16.4052 398.748 16.367 413.676C16.348 421.085 17.7887 428.417 20.615 435.265C23.4414 442.114 27.6052 448.343 32.8443 453.582C38.0835 458.822 44.2944 462.966 51.1422 465.793C57.9852 468.617 65.3299 470.056 72.7319 470.041H344.663L251.886 357.329H72.7135ZM254.552 357.329L412.724 551.526L412.742 551.545C417.353 557.116 423.2 561.523 429.808 564.455C436.133 567.452 443.037 569.015 450.037 569.015C457.068 569.015 464.01 567.46 470.358 564.436L470.395 564.417C476.79 561.413 482.409 557.002 486.853 551.508L486.872 551.489L645.025 357.329H392.899L254.552 357.329ZM647.654 357.329L555.613 470.041H826.845C841.789 470.041 856.129 464.113 866.696 453.545C877.263 442.977 883.191 428.639 883.191 413.694C883.191 398.75 877.263 384.411 866.696 373.843C856.129 363.275 841.789 357.329 826.845 357.329H647.654ZM72.7319 371.453H245.21L314.742 455.917H72.7135C67.1648 455.931 61.6588 454.852 56.5304 452.736C51.4014 450.619 46.7525 447.519 42.83 443.596C38.9071 439.673 35.7885 435.006 33.6718 429.877C31.5553 424.749 30.4761 419.261 30.4904 413.712C30.519 402.513 34.984 391.785 42.9035 383.866C50.8189 375.95 61.5382 371.486 72.7319 371.453V371.453ZM284.27 371.453H392.899H615.306L475.893 542.589V542.607C472.783 546.456 468.843 549.555 464.362 551.655H464.326L464.307 551.674C459.848 553.802 454.976 554.892 450.036 554.892C445.096 554.892 440.224 553.803 435.766 551.674L435.673 551.618L435.563 551.582C430.933 549.535 426.856 546.432 423.629 542.533L284.27 371.453ZM654.366 371.453H826.845C838.049 371.453 848.788 375.906 856.71 383.829C864.633 391.752 869.068 402.491 869.068 413.694C869.068 424.898 864.633 435.636 856.71 443.559C848.788 451.482 838.049 455.917 826.845 455.917H585.386L654.366 371.453ZM88.9885 472.486L105.172 558.9H283.682C283.958 558.9 284.221 559.017 284.418 559.213C284.614 559.409 284.712 559.654 284.712 559.93C284.712 560.205 284.611 560.472 284.418 560.666C284.22 560.863 283.956 560.96 283.682 560.96H105.466L127.129 679.501H367.521C367.825 679.506 368.098 679.618 368.312 679.832C368.506 680.026 368.583 680.296 368.606 680.568C368.585 680.866 368.482 681.143 368.275 681.358C368.211 681.407 368.151 681.456 368.073 681.487C367.956 681.534 367.84 681.562 367.724 681.561L367.668 681.542H127.975L131.138 698.994V699.013C134.842 718.838 145.355 736.739 160.856 749.64C176.298 762.563 195.798 769.633 215.934 769.611H683.625C703.768 769.732 723.307 762.804 738.868 750.008C754.438 737.205 765.04 719.349 768.806 699.546V699.509L771.969 682.057H531.89H531.834C531.717 682.059 531.6 682.03 531.485 681.984C531.403 681.948 531.33 681.892 531.264 681.837C531.074 681.626 530.972 681.35 530.952 681.064C530.975 680.794 531.052 680.541 531.246 680.347V680.328C531.457 680.117 531.751 680.002 532.055 679.997H772.429L794.111 561.843H615.876C615.602 561.843 615.334 561.742 615.141 561.548C614.947 561.355 614.846 561.089 614.846 560.813C614.846 560.538 614.947 560.289 615.141 560.096C615.334 559.902 615.602 559.801 615.876 559.801H794.405L795.472 554.027L810.698 472.486H553.866L488.527 552.85L488.49 552.887C481.496 561.684 471.716 567.828 460.758 570.32C449.8 572.814 438.32 571.511 428.208 566.606L428.189 566.587L428.152 566.568C421.505 563.433 415.659 558.831 411.05 553.107L411.031 553.088L345.71 472.485L88.9885 472.486ZM105.999 486.61H338.98L400.035 561.971C400.038 561.975 400.05 561.968 400.053 561.971V561.99C405.992 569.36 413.527 575.289 422.084 579.332C435.073 585.622 449.831 587.297 463.903 584.095C477.99 580.891 490.553 572.985 499.542 561.678L560.578 486.61H793.688L782.654 545.678H615.876C611.861 545.678 607.995 547.27 605.155 550.11C602.315 552.951 600.723 556.798 600.723 560.813C600.723 564.829 602.315 568.694 605.155 571.535C607.995 574.375 611.861 575.967 615.876 575.967H777.155L760.66 665.875H531.89H531.834C527.867 665.936 524.068 667.552 521.26 670.362C518.461 673.167 516.852 676.956 516.791 680.917V680.991V681.064C516.812 685.081 518.399 688.942 521.223 691.804L521.26 691.841L521.316 691.877C522.735 693.27 524.405 694.378 526.244 695.114C528.081 695.848 530.05 696.209 532.037 696.181H755.069L754.922 696.971V696.898C751.772 713.458 742.933 728.396 729.912 739.103C716.892 749.81 700.518 755.596 683.661 755.488H683.642H215.933C199.108 755.51 182.805 749.606 169.903 738.808C156.924 728.009 148.123 713.017 145.022 696.42L144.875 695.666H367.521C369.507 695.694 371.478 695.332 373.313 694.599C375.154 693.863 376.841 692.773 378.26 691.381L378.297 691.344L378.334 691.289C381.158 688.426 382.745 684.584 382.766 680.567V680.494V680.421C382.705 676.454 381.103 672.653 378.297 669.846C375.491 667.04 371.69 665.439 367.723 665.378H367.667H138.916L122.403 575.083H283.682C287.699 575.083 291.565 573.488 294.403 570.651C297.244 567.811 298.835 563.945 298.835 559.93C298.835 555.915 297.241 552.067 294.403 549.227C291.564 546.39 287.697 544.777 283.682 544.777H116.886L105.999 486.61ZM826.837 348.214H514.752V76.9575C514.769 68.9514 513.204 61.0215 510.149 53.6218C507.093 46.223 502.605 39.5003 496.945 33.8387C491.284 28.1783 484.561 23.6913 477.162 20.6354C469.763 17.5794 461.833 16.0149 453.827 16.0316H445.738C437.732 16.0149 429.802 17.5794 422.402 20.6354C415.004 23.6913 408.28 28.1783 402.619 33.8387C396.958 39.5003 392.472 46.223 389.416 53.6218C386.36 61.0215 384.795 68.9514 384.812 76.9575V348.214H72.7272C64.1039 348.214 55.565 349.913 47.5981 353.212C39.6311 356.512 32.3922 361.349 26.2947 367.447C20.197 373.544 15.3601 380.784 12.0602 388.751C8.76019 396.717 7.0617 405.256 7.0617 413.88C7.0617 422.503 8.76019 431.042 12.0602 439.009C15.3601 446.976 20.197 454.214 26.2947 460.312C32.3922 466.41 39.6311 471.246 47.5981 474.547C55.565 477.847 64.1039 479.545 72.7272 479.545H80.9432L118.864 682.42L122.276 700.874C126.371 722.732 137.97 742.474 155.072 756.691C172.172 770.907 193.701 778.704 215.94 778.737H683.625C705.9 778.694 727.457 770.86 744.563 756.594C761.669 742.327 773.247 722.526 777.288 700.621L781.207 681.787L819.127 478.786H827.343C844.72 478.786 861.387 471.892 873.687 459.617C885.985 447.341 892.911 430.688 892.945 413.311C892.945 395.912 886.033 379.226 873.731 366.923C861.428 354.62 844.742 347.709 827.343 347.709L826.837 348.214ZM400.991 76.9575C401.025 65.1004 405.75 53.7376 414.134 45.354C422.518 36.9694 433.88 32.2446 445.738 32.2107H453.827C465.684 32.2446 477.047 36.9694 485.43 45.354C493.815 53.7376 498.54 65.1004 498.574 76.9575V348.214H400.991V76.9575ZM392.901 364.393H630.157L481.383 547.044C477.6 551.725 472.802 555.486 467.352 558.04C461.944 560.622 456.027 561.962 450.035 561.962C444.042 561.962 438.126 560.622 432.718 558.04C427.086 555.552 422.109 551.787 418.182 547.044L269.407 364.393H392.901ZM23.4306 413.69C23.4641 400.626 28.6684 388.107 37.9061 378.869C47.1438 369.631 59.6632 364.427 72.7272 364.393H248.552L329.701 462.987H72.7272C66.2488 463.003 59.831 461.739 53.8425 459.268C47.8541 456.796 42.413 453.166 37.8321 448.585C33.2511 444.004 29.6207 438.563 27.1491 432.575C24.6777 426.586 23.414 420.169 23.4306 413.69V413.69ZM788.538 552.732H615.873C613.728 552.732 611.67 553.584 610.153 555.101C608.636 556.618 607.784 558.676 607.784 560.821C607.784 562.967 608.636 565.024 610.153 566.542C611.67 568.059 613.728 568.911 615.873 568.911H785.631L766.544 672.939H531.943C529.808 672.972 527.769 673.834 526.259 675.345C524.749 676.855 523.887 678.893 523.854 681.029C523.865 683.206 524.726 685.293 526.255 686.843C527.006 687.579 527.896 688.159 528.871 688.55C529.848 688.94 530.892 689.134 531.943 689.119H763.51L761.867 698.219C758.409 716.4 748.686 732.795 734.39 744.549C720.096 756.305 702.131 762.676 683.625 762.558H215.94C197.456 762.581 179.554 756.092 165.38 744.229C151.137 732.379 141.479 715.927 138.076 697.714L136.433 688.613H367.621C368.673 688.628 369.716 688.434 370.693 688.044C371.669 687.654 372.559 687.074 373.309 686.337C374.838 684.788 375.7 682.7 375.711 680.523C375.678 678.388 374.816 676.349 373.306 674.839C371.795 673.329 369.757 672.466 367.621 672.433H133.02L113.934 568.027H283.691C285.836 568.027 287.894 567.173 289.412 565.657C290.928 564.14 291.781 562.082 291.781 559.937C291.781 557.791 290.928 555.734 289.412 554.216C287.894 552.699 285.836 551.847 283.691 551.847H111.027L97.5017 479.545H342.341L405.542 557.535C410.821 564.092 417.52 569.364 425.134 572.956C436.689 578.561 449.808 580.063 462.33 577.213C474.853 574.364 486.031 567.334 494.023 557.282L557.223 479.545H802.189L788.538 552.732ZM826.458 463.493H570.496L651.013 364.899H826.837C839.912 364.899 852.451 370.093 861.695 379.338C870.94 388.583 876.134 401.122 876.134 414.195C876.134 427.27 870.94 439.809 861.695 449.054C852.451 458.298 839.912 463.493 826.837 463.493" fill="black"/>
</svg>
