<?xml version="1.0" encoding="UTF-8" standalone="no"?>
<svg
   width="1000"
   height="1000"
   viewBox="0 0 1000 1000"
   fill="none"
   version="1.1"
   id="svg4049"
   sodipodi:docname="panierPermant.svg"
   inkscape:version="1.2.1 (9c6d41e, 2022-07-14)"
   xmlns:inkscape="http://www.inkscape.org/namespaces/inkscape"
   xmlns:sodipodi="http://sodipodi.sourceforge.net/DTD/sodipodi-0.dtd"
   xmlns="http://www.w3.org/2000/svg"
   xmlns:svg="http://www.w3.org/2000/svg">
  <sodipodi:namedview
     id="namedview5519"
     pagecolor="#ffffff"
     bordercolor="#111111"
     borderopacity="1"
     inkscape:showpageshadow="0"
     inkscape:pageopacity="0"
     inkscape:pagecheckerboard="1"
     inkscape:deskcolor="#d1d1d1"
     showgrid="false"
     inkscape:zoom="2.859989"
     inkscape:cx="48.077108"
     inkscape:cy="41.2589"
     inkscape:window-width="1309"
     inkscape:window-height="456"
     inkscape:window-x="274"
     inkscape:window-y="1314"
     inkscape:window-maximized="0"
     inkscape:current-layer="svg4049" />
  <defs
     id="defs4053" />
  <g
     id="g5276"
     transform="matrix(9.3563452,0,0,9.3563452,50,113.96853)">
    <g
       id="path4019" />
    <path
       id="path4047"
       style="color:#000000;fill:#000000;stroke-linecap:round;stroke-miterlimit:10;-inkscape-stroke:none"
       d="m 69.884766,19.109375 a 1,1 0 0 0 -0.04687,1.414062 c 1.198055,1.28187 2.871679,1.81555 4.222656,2.09375 1.350977,0.278201 2.455078,0.277344 2.455078,0.277344 a 1,1 0 0 0 1,-1 1,1 0 0 0 -1,-1 c 0,0 -0.910089,-0.001 -2.052734,-0.236328 -1.142646,-0.235299 -2.44242,-0.729825 -3.164063,-1.501953 a 1,1 0 0 0 -1.414062,-0.04687 z m 4.322265,-4.658203 a 1,1 0 0 0 -0.04687,1.414062 c 1.198055,1.28187 2.871679,1.81555 4.222656,2.09375 1.350978,0.278201 2.455079,0.277344 2.455079,0.277344 a 1,1 0 0 0 1,-1 1,1 0 0 0 -1,-1 c 0,0 -0.91009,-0.001 -2.052735,-0.236328 -1.142645,-0.235299 -2.442419,-0.729825 -3.164062,-1.501953 a 1,1 0 0 0 -1.414063,-0.04687 z m 3.791016,-7.5644533 c -0.74927,-0.1575341 -1.527498,-0.1086445 -2.25,0.1445313 -0.726662,0.2546332 -1.369368,0.7031801 -1.857422,1.2988281 l -3.636719,4.4160159 a 1,1 0 0 0 0.134766,1.408203 1,1 0 0 0 1.408203,-0.136719 l 3.638672,-4.4179686 h 0.002 c 0.255532,-0.3122859 0.591791,-0.5481798 0.972656,-0.6816406 0.3809,-0.1334729 0.791193,-0.1586938 1.185547,-0.074219 l 0.01758,0.00391 0.01953,0.00195 c 1.677887,0.2936414 3.256195,0.9914119 4.609375,2.0253902 0.365848,0.326296 0.598933,0.774875 0.644532,1.263672 0.04608,0.493149 -0.09739,0.984733 -0.402344,1.375 l -2.443359,3.060547 -4.390625,5.564453 c -1.641123,-0.447564 -3.353285,-0.594268 -5.033204,-0.289063 a 1,1 0 0 0 -0.804687,1.16211 1,1 0 0 0 1.164062,0.80664 c 1.590841,-0.289022 3.227606,-0.164488 4.75586,0.363282 l 0.671875,0.232421 5.203125,-6.597656 2.445312,-3.060547 0.002,-0.0039 c 0.62256,-0.792969 0.918004,-1.795058 0.824219,-2.798828 -0.09364,-1.003782 -0.569495,-1.933621 -1.328125,-2.5976558 l -0.02344,-0.021484 -0.02344,-0.019531 C 81.892201,8.0718581 80.001877,7.2410748 77.998047,6.8867187 Z M 67.529297,19.990234 c 0,0 -0.856162,0.2822 -2.015625,0.425782 -1.159463,0.143581 -2.564744,0.104723 -3.521485,-0.371094 a 1,1 0 0 0 -1.339843,0.449219 1,1 0 0 0 0.449218,1.341796 c 1.553657,0.772682 3.297169,0.732997 4.658204,0.564454 1.361034,-0.168543 2.396484,-0.509766 2.396484,-0.509766 a 1,1 0 0 0 0.636719,-1.263672 1,1 0 0 0 -1.263672,-0.636719 z m 2.564453,-5.757812 c 0,0 -0.856189,0.2822 -2.015625,0.425781 -1.159436,0.143581 -2.564739,0.104726 -3.521484,-0.371094 a 1,1 0 0 0 -1.339844,0.449219 1,1 0 0 0 0.449219,1.339844 c 1.553652,0.772679 3.297191,0.73495 4.658203,0.566406 1.361011,-0.168543 2.396484,-0.511719 2.396484,-0.511719 A 1,1 0 0 0 71.357422,14.869141 1,1 0 0 0 70.09375,14.232422 Z M 67.369141,6.1464844 c -1.001416,-0.082433 -2.013929,-0.044541 -3.013672,0.1113281 -0.76503,0.09636 -1.488198,0.3991894 -2.091797,0.8789062 -0.604497,0.4805348 -1.065774,1.1187457 -1.332031,1.8437501 v 0.00195 c -3.19e-4,8.693e-4 -0.0016,0.00108 -0.002,0.00195 L 53.96875,27.728516 v 0.179687 7.845703 h 6.398437 l -0.21289,-1.177734 c -1.105395,-6.111936 0.849817,-8.631896 3.007812,-9.951172 2.157995,-1.319276 4.646485,-1.261719 4.646485,-1.261719 l 0.732422,0.02539 4.109375,-11.617188 C 72.993517,10.810088 72.951737,9.7531288 72.533203,8.8222656 72.114723,7.8913585 71.351062,7.1567729 70.404297,6.7753906 l -0.02734,-0.00977 -0.0293,-0.00977 C 69.37923,6.4339367 68.379006,6.2296124 67.369141,6.1464844 Z M 67.205078,8.140625 c 0.836912,0.068891 1.663279,0.2385247 2.466797,0.5019531 0.460216,0.1904984 0.83274,0.5453812 1.037109,1 0.207066,0.4605359 0.228267,0.9816289 0.05859,1.4570309 v 0.002 L 67.11523,21.423874 c -0.873603,0.02304 -2.809273,0.157243 -4.996093,1.494141 -2.57298,1.572974 -4.699716,4.985999 -4.00586,10.835937 H 55.96875 v -5.666015 l 6.837891,-18.4140629 0.002,-0.00195 c 0.139577,-0.3812897 0.381262,-0.7159961 0.699218,-0.96875 0.318083,-0.2527995 0.698566,-0.4129204 1.101563,-0.4628906 l 0.01758,-0.00195 0.01563,-0.00391 c 0.850015,-0.1342731 1.710942,-0.1638468 2.5625,-0.09375 z m 0.986328,14.158203 a 1,1 0 0 0 -1.287109,0.587891 1,1 0 0 0 0.58789,1.287109 c 0,0 1.051885,0.395679 2.080079,1.052734 0.514096,0.328528 1.009636,0.720898 1.33789,1.105469 0.328254,0.384572 0.46875,0.720592 0.46875,1.011719 a 1,1 0 0 0 1,1 1,1 0 0 0 1,-1 c 0,-0.917072 -0.42472,-1.698351 -0.947265,-2.310547 -0.522546,-0.612196 -1.162901,-1.095791 -1.783204,-1.492187 -1.240604,-0.792794 -2.457031,-1.242188 -2.457031,-1.242188 z m 3.38086,-0.441406 c -1.351896,-0.09606 -2.522058,0.05795 -3.253907,0.193359 -0.455152,0.07528 -0.915407,0.11117 -1.376953,0.105469 h -0.002 -0.002 c -2.779734,-0.02179 -4.849742,0.874647 -6.222656,2.269531 -1.372915,1.394884 -2.040138,3.20304 -2.351563,4.939453 -0.62285,3.472827 0.138672,6.837891 0.138672,6.837891 l 0.171875,0.785156 0.802734,0.002 21.355469,0.04102 0.03711,-0.960938 C 81.159644,28.765788 78.833529,24.91365 75.916016,23.171875 74.457259,22.300987 72.924161,21.953487 71.572266,21.857422 Z m -0.167969,2.009765 c 1.119921,0.07886 2.367562,0.353574 3.486328,1.021485 2.116367,1.263485 3.969156,4.039709 3.939453,10.138672 l -18.482422,-0.03516 c -0.151826,-0.898654 -0.438605,-2.915022 -0.01563,-5.273437 0.265825,-1.482159 0.81852,-2.886692 1.806641,-3.890625 0.987148,-1.002944 2.419635,-1.688981 4.777344,-1.671875 0.585596,0.0072 1.17045,-0.03804 1.748046,-0.134766 l 0.0098,-0.002 0.0078,-0.002 c 0.61065,-0.112987 1.602735,-0.229251 2.722656,-0.150391 z M 34.212891,18.505859 a 1.5,1.5 0 0 0 -1.857422,1.025391 c -0.245449,0.850187 -0.672572,1.638063 -1.25,2.308594 -0.577432,0.670535 -1.291352,1.207202 -2.095703,1.576172 a 1.5,1.5 0 0 0 -0.738282,1.990234 1.5,1.5 0 0 0 1.988282,0.736328 c 1.196446,-0.54883 2.260174,-1.34824 3.11914,-2.345703 0.85897,-0.997467 1.494225,-2.168783 1.859375,-3.433594 a 1.5,1.5 0 0 0 -1.02539,-1.857422 z m -2.09961,7.294922 a 1.5,1.5 0 0 0 -1.792969,1.134766 c 0,0 0.01834,-0.01977 -0.09961,0.189453 -0.117948,0.209225 -0.341102,0.530024 -0.779297,0.882812 -0.876389,0.705578 -2.655282,1.582032 -6.302734,1.582032 a 1.5,1.5 0 0 0 -1.5,1.5 1.5,1.5 0 0 0 1.5,1.5 c 4.13884,0 6.68381,-1.03667 8.183594,-2.244141 0.749891,-0.603735 1.225245,-1.239879 1.511718,-1.748047 0.286474,-0.508167 0.414063,-1.005859 0.414063,-1.005859 A 1.5,1.5 0 0 0 32.113281,25.800781 Z M 30.083984,12.695313 a 1.5,1.5 0 0 0 -0.871093,0.746093 c -0.964567,1.897325 -2.336291,3.557797 -4.015625,4.865235 a 1.5,1.5 0 0 0 -0.261719,2.105468 1.5,1.5 0 0 0 2.105469,0.261719 c 2.027062,-1.578159 3.681471,-3.582976 4.845703,-5.873047 a 1.5,1.5 0 0 0 -0.658203,-2.017578 1.5,1.5 0 0 0 -1.144532,-0.08789 z m -13.18164,8.412109 a 1.5,1.5 0 0 0 -0.03906,2.121094 c 2.32411,2.415107 5.497237,2.659721 7.873047,2.355468 2.375811,-0.304252 4.212891,-1.160156 4.212891,-1.160156 a 1.5,1.5 0 0 0 0.734375,-1.990234 1.5,1.5 0 0 0 -1.992188,-0.734375 c 0,0 -1.466177,0.668756 -3.335937,0.908203 -1.86976,0.239447 -3.883845,0.0459 -5.332032,-1.458985 a 1.5,1.5 0 0 0 -2.121093,-0.04102 z m 7.677734,-6.033203 a 1.5,1.5 0 0 0 -1.064453,1.833984 c 1.300328,4.904778 5.510128,9.803544 9.347656,13.671875 3.837528,3.868331 7.382813,6.632813 7.382813,6.632813 a 1.5,1.5 0 0 0 2.105468,-0.259766 1.5,1.5 0 0 0 -0.259765,-2.105469 c 0,0 -3.409295,-2.660923 -7.09961,-6.380859 -3.690314,-3.719936 -7.582854,-8.574011 -8.578125,-12.328125 A 1.5,1.5 0 0 0 24.580078,15.074219 Z M 36.787109,2.3886719 C 34.965328,2.2031717 33.319235,2.7193891 31.990234,3.4277344 30.044277,4.4649116 28.925776,5.6819295 28.318359,6.40625 23.85879,5.5197404 20.582717,6.8654535 18.695312,8.6738281 c -1.294558,1.2403523 -1.905587,2.4039509 -2.273437,3.2519529 -1.684218,0.01338 -3.162858,0.332626 -4.238281,1.076172 -1.330415,0.919846 -2.091459,2.240278 -2.5058596,3.480469 -0.5765466,1.72545 -0.5562066,3.100785 -0.4960938,3.972656 C 8.5615364,20.931657 7.7385322,21.662881 7,22.917969 c -1.0477323,1.780554 -1.3141004,4.568312 0.4648437,7.367187 -0.3319991,0.663607 -0.6939634,1.600752 -0.6640625,2.884766 0.024394,1.04755 0.4897259,2.321053 1.5839844,3.148437 1.0942585,0.827385 2.6122644,1.213514 4.6894534,1.22461 h 0.0039 29.699219 L 42.734375,5.734375 42.304687,5.296875 C 40.52796,3.4862473 38.608891,2.5741721 36.787109,2.3886719 Z M 36.484375,5.375 c 0.964301,0.098189 2.048538,0.6048689 3.251953,1.6933594 l 0.03711,27.4746096 h -26.68164 -0.0078 C 11.3955,34.532601 10.54017,34.186533 10.195313,33.925781 9.8497731,33.664514 9.8099543,33.49352 9.8007813,33.099609 9.7824352,32.311788 10.443359,31.060547 10.443359,31.060547 l 0.578125,-0.91211 -0.68164,-0.83789 C 8.4445949,26.983222 8.8706516,25.651716 9.5839844,24.439453 10.297317,23.22719 11.505859,22.447266 11.505859,22.447266 l 0.837891,-0.515625 -0.138672,-0.972657 c 0,0 -0.225488,-1.899754 0.31836,-3.527343 0.271923,-0.813795 0.695235,-1.496351 1.367187,-1.960938 0.671952,-0.464587 1.664863,-0.789798 3.384766,-0.609375 l 1.24414,0.13086 0.351563,-1.199219 c 0,0 0.484339,-1.594414 1.90039,-2.951172 1.416052,-1.3567583 3.580863,-2.5177172 7.75,-1.3945314 l 0.988282,0.2675782 0.607421,-0.8242188 c 0,0 1.365363,-1.7912211 3.285157,-2.8144531 C 34.36224,5.5645559 35.401409,5.2647286 36.484375,5.375 Z M 47.638672,0 C 45.722909,0.00390426 43.884464,0.76704455 42.53125,2.1230469 V 2.125 C 41.178061,3.481089 40.417969,5.3186248 40.417969,7.234375 V 35.279297 H 8.0234375 l 0.033203,0.002 C 7.0157003,35.235506 5.9752877,35.40072 5,35.767578 4.0247287,36.13443 3.1336154,36.695624 2.3808594,37.416016 1.6280879,38.136422 1.0303785,39.000653 0.62109375,39.958984 0.21181862,40.917183 0,41.948281 0,42.990234 0,44.032277 0.21181862,45.063286 0.62109375,46.021484 1.03037,46.979685 1.6280602,47.845973 2.3808594,48.566406 3.1336154,49.286798 4.0247287,49.847991 5,50.214844 c 0.9752021,0.366715 2.0156473,0.532074 3.0566406,0.486328 h 0.2167969 l 3.9121095,20.933594 0.363281,1.972656 c 0.460935,2.498521 1.781309,4.757549 3.732422,6.384765 1.951023,1.627231 4.41057,2.520451 6.951172,2.525391 H 72.90625 c 2.540602,-0.0049 5.000149,-0.89816 6.951172,-2.525391 1.949985,-1.626275 3.268807,-3.88406 3.730469,-6.380859 l 0.416015,-1.896484 3.914063,-20.947266 h 0.216797 c 1.040933,0.04574 2.081407,-0.119453 3.05664,-0.486328 0.975282,-0.366852 1.866326,-0.928075 2.619141,-1.648438 0.752767,-0.720423 1.350417,-1.584831 1.759765,-2.542968 0.409271,-0.958214 0.621094,-1.989297 0.621094,-3.03125 0,-1.042043 -0.211831,-2.073055 -0.621094,-3.03125 v -0.002 C 95.160972,39.067226 94.563342,38.202825 93.810547,37.482375 93.057732,36.762012 92.166688,36.20079 91.191406,35.833937 90.360218,35.521345 89.471702,35.43388 88.585937,35.419875 L 88.474609,35.279297 H 88.115234 55.71875 V 7.234375 c 0,-1.9157502 -0.760093,-3.753286 -2.113281,-5.109375 V 2.12305 C 52.252255,0.76704455 50.415762,0.00390426 48.5,0 Z m 0,1.5 h 0.859375 c 1.518328,0.00361 2.972397,0.6088591 4.044922,1.6835938 1.073009,1.0753086 1.675781,2.5317349 1.675781,4.0507812 v 29.544922 h 33.535156 l 0.06641,0.08398 0.38086,-0.01758 c 0.838612,-0.03685 1.675286,0.09711 2.460937,0.392578 0.785716,0.295547 1.504744,0.747689 2.111328,1.328125 0.606404,0.580349 1.08811,1.276748 1.417969,2.048828 0.329737,0.772004 0.5,1.603804 0.5,2.44336 0,0.839445 -0.170271,1.669422 -0.5,2.441406 -0.32985,0.772061 -0.811537,1.468453 -1.417969,2.048828 -0.606584,0.580436 -1.325612,1.032578 -2.111328,1.328125 -0.785565,0.295524 -1.622272,0.429434 -2.460937,0.392578 l -0.01563,-0.002 h -1.511719 l -4.140625,22.148438 -0.416016,1.90625 -0.002,0.01367 c -0.397464,2.154475 -1.536266,4.100726 -3.21875,5.503907 -1.681873,1.402749 -3.802087,2.17302 -5.992187,2.177734 h -49.669922 -0.002 c -2.1901,-0.0047 -4.308361,-0.774985 -5.990235,-2.177734 -1.682483,-1.403181 -2.821285,-3.349432 -3.218749,-5.503907 L 13.660156,71.361328 9.5195313,49.201172 H 8.0058594 7.9902344 C 7.1516096,49.238025 6.315073,49.106031 5.5292969,48.810547 4.7435899,48.515 4.0244514,48.062829 3.4179688,47.482422 2.8115293,46.902056 2.3297431,46.205591 2,45.433594 1.6702559,44.661594 1.5,43.82979 1.5,42.990234 1.5,42.15079 1.6702559,41.320828 2,40.548828 2.3297345,39.776762 2.8115015,39.078439 3.4179688,38.498047 4.0244514,37.91764 4.7435899,37.467422 5.5292969,37.171875 6.3149875,36.876334 7.1515565,36.742441 7.9902344,36.779297 H 8.0058594 41.917969 V 7.234375 c 0,-1.5190463 0.602772,-2.9754726 1.675781,-4.0507812 C 44.666274,2.1088591 46.120343,1.5036101 47.638672,1.5 Z m 0,0.2324219 c -0.722711,-0.00171 -1.437287,0.1384114 -2.105469,0.4140625 -0.668664,0.2758977 -1.277508,0.6819213 -1.789062,1.1933594 -0.511438,0.5115538 -0.915509,1.1184453 -1.191407,1.7871093 -0.275897,0.6687787 -0.417984,1.3860063 -0.416015,2.109375 V 36.779297 H 54 V 7.2363281 7.234375 C 54.001712,6.5116631 53.861589,5.7951355 53.585937,5.1269531 53.31004,4.4582891 52.904016,3.8513976 52.392578,3.3398438 51.881064,2.8284457 51.274278,2.4223941 50.605469,2.1464844 49.937286,1.8708331 49.220759,1.7307094 48.498047,1.7324219 h -0.857422 z m -0.002,1.5 h 0.002 H 48.5 c 0.52583,-0.00143 1.047183,0.100279 1.533203,0.3007812 0.48599,0.2004898 0.926943,0.4953865 1.298828,0.8671875 0.371761,0.3718452 0.666686,0.8128933 0.867188,1.2988281 C 52.399721,6.1852389 52.501431,6.7065919 52.5,7.2324219 V 35.279297 H 43.636719 V 7.2324219 c -0.0014,-0.52583 0.102232,-1.047183 0.302734,-1.5332032 h -0.002 c 0.200502,-0.4859348 0.495426,-0.9269829 0.867187,-1.2988281 0.371846,-0.371761 0.814847,-0.6666857 1.300782,-0.8671875 0.48602,-0.2005022 1.00542,-0.3022124 1.53125,-0.3007812 z M 8.0234375,37.011719 c -0.7861374,-0.0017 -1.5661992,0.151217 -2.2929688,0.451172 -0.7272793,0.300169 -1.3869215,0.742298 -1.9433593,1.298828 -0.5564225,0.556388 -0.9986487,1.21604 -1.2988281,1.943359 -0.2996794,0.726136 -0.4526839,1.505428 -0.4511719,2.291016 -1.7e-6,6.45e-4 1.4e-6,0.0013 0,0.002 1.4e-6,6.45e-4 -1.7e-6,0.0013 0,0.002 -0.00151,0.785502 0.1514929,1.562928 0.4511719,2.289062 0.3001794,0.72732 0.7424056,1.388925 1.2988281,1.945313 0.5564378,0.556529 1.21608,0.996705 1.9433593,1.296875 0.7267696,0.299954 1.5068314,0.45286 2.2929688,0.451172 H 36.904297 L 27.050781,37.011719 H 8.0253906 Z m 19.3105465,0 16.792969,20.617187 c 0.472654,0.591522 1.071545,1.068284 1.753906,1.396485 0.682455,0.328306 1.430268,0.5 2.1875,0.5 0.757233,0 1.505076,-0.171708 2.1875,-0.5 0.679857,-0.326996 1.278152,-0.802107 1.75,-1.390625 l 0.002,-0.0039 16.796875,-20.61914 h -26.77739 z m 41.751953,0 -9.777343,11.970703 h 28.80664 c 1.587216,0 3.110078,-0.629609 4.232422,-1.751953 1.122227,-1.122342 1.751953,-2.645292 1.751953,-4.232422 0,-1.587216 -0.629726,-3.110081 -1.751953,-4.232422 -1.122344,-1.122344 -2.645206,-1.753906 -4.232422,-1.753906 z m -61.0644526,1.5 H 26.34375 l 7.382812,8.970703 H 8.0214844 C 7.4321799,47.483878 6.8474075,47.36933 6.3027344,47.144531 5.757995,46.919701 5.2642574,46.590498 4.8476562,46.173828 4.4310197,45.757217 4.0998001,45.261476 3.875,44.716797 3.6502118,44.172126 3.5355936,43.589182 3.5371094,43 V 42.998 42.996 C 3.5355894,42.406703 3.6502118,41.821921 3.875,41.27725 c 0.2248001,-0.544679 0.5560197,-1.038467 0.9726562,-1.455078 0.4166012,-0.41667 0.9103388,-0.747827 1.4550782,-0.972657 0.5446731,-0.224799 1.1294455,-0.339346 1.71875,-0.33789 z m 22.4707026,0 h 11.535157 23.61914 l -14.804687,18.177734 -0.002,0.002 c -0.332146,0.415677 -0.754937,0.751823 -1.234375,0.982422 -0.479575,0.230708 -1.004943,0.351563 -1.53711,0.351563 -0.532166,0 -1.057565,-0.12087 -1.537109,-0.351563 -0.479438,-0.230599 -0.900277,-0.566745 -1.232422,-0.982422 l -0.002,-0.002 z m 39.304688,0 h 18.318359 c 1.189982,0 2.330422,0.472999 3.171875,1.314453 0.841371,0.841456 1.3125,1.981893 1.3125,3.171875 0,1.189867 -0.471129,2.330418 -1.3125,3.171875 -0.841453,0.841453 -1.981893,1.3125 -3.171875,1.3125 H 62.470703 Z m -60.0429687,10.689453 1.7128907,9.3125 h 18.966797 0.0059 c 0.01266,-1.82e-4 0.02556,0.0032 0.03711,0.0078 0.0088,0.0035 0.01595,0.0096 0.02344,0.01563 0.02218,0.02404 0.03394,0.05359 0.03516,0.08594 -0.0029,0.02771 -0.01305,0.05406 -0.0332,0.07422 -0.02277,0.02275 -0.0523,0.03468 -0.08398,0.03516 H 11.498047 l 2.304687,12.496094 H 39.34375 c 0.02935,0 0.05534,0.01042 0.07617,0.03125 0.02064,0.02064 0.03125,0.04682 0.03125,0.07617 0,0.02935 -0.01061,0.05748 -0.03125,0.07813 -0.02083,0.02083 -0.04682,0.03125 -0.07617,0.03125 H 13.888672 l 0.337891,1.839844 c 0.388837,2.106103 1.502162,4.010712 3.146484,5.382813 1.644443,1.37222 3.715809,2.125524 5.857422,2.130859 h 0.002 49.666015 c 2.143971,0.01601 4.22619,-0.72255 5.88086,-2.085937 1.654788,-1.363286 2.777439,-3.265578 3.171875,-5.373047 L 82.289062,71.5 h -25.49414 c -0.02935,0 -0.05729,-0.01237 -0.07813,-0.0332 -0.02064,-0.02064 -0.03125,-0.04682 -0.03125,-0.07617 0,-0.02935 0.01061,-0.05748 0.03125,-0.07813 0.02083,-0.02083 0.04878,-0.03125 0.07813,-0.03125 H 82.335937 L 84.638672,58.732422 H 65.720703 c -0.03168,-4.75e-4 -0.06317,-0.0124 -0.08594,-0.03516 -0.02121,-0.02123 -0.03122,-0.04878 -0.0332,-0.07813 0.002,-0.03126 0.01391,-0.05901 0.03516,-0.08203 0.0076,-0.0061 0.01651,-0.01207 0.02539,-0.01563 0.01155,-0.0046 0.0225,-0.008 0.03516,-0.0078 h 0.0059 18.966797 l 0.115234,-0.613281 1.613281,-8.699219 H 59.121094 L 52.1875,57.769531 c -0.513689,0.613826 -1.158394,1.103702 -1.888672,1.431641 l -0.0059,0.0039 -0.0059,0.002 c -0.708514,0.333486 -1.482646,0.50586 -2.265625,0.50586 -0.781659,0 -1.552309,-0.171616 -2.259765,-0.503907 l -0.0039,-0.002 C 45.05751,58.869857 44.44094,58.382222 43.953051,57.777338 l -6.9375,-8.576172 z m 1.8007817,1.5 h 24.746093 l 6.486328,8.017578 c 0.628805,0.779591 1.423415,1.409981 2.326172,1.84375 h 0.002 l 0.0039,0.002 c 0.908283,0.427514 1.898436,0.648438 2.902343,0.648438 1.001748,0 1.991687,-0.220702 2.898438,-0.646485 0.936335,-0.421651 1.765488,-1.049902 2.423828,-1.83789 l 0.0039,-0.0039 6.490235,-8.023437 h 24.757812 l -1.173828,6.3125 H 65.71875 c -0.210539,-0.003 -0.419388,0.03686 -0.615234,0.115234 -0.195616,0.07828 -0.373218,0.194778 -0.523438,0.341797 l -0.0039,0.0039 -0.0059,0.0059 c -0.299454,0.303882 -0.468489,0.71207 -0.470703,1.138672 v 0.0078 0.0078 c 0.0063,0.421718 0.176764,0.825015 0.47461,1.123046 0.298031,0.297846 0.701328,0.468285 1.123047,0.47461 h 0.0059 17.134766 L 81.085937,69.78125 H 56.794922 c -0.426452,0 -0.837104,0.169135 -1.138672,0.470703 -0.301555,0.301556 -0.470703,0.71222 -0.470703,1.138672 0,0.426452 0.169148,0.837116 0.470703,1.138672 C 55.957818,72.830865 56.36847,73 56.794922,73 h 23.693359 l -0.01172,0.06445 c -0.329763,1.761927 -1.266981,3.352476 -2.65039,4.492188 -1.383327,1.13981 -3.12359,1.755574 -4.916016,1.742187 h -0.002 -49.673828 -0.002 c -1.79129,-0.0049 -3.522984,-0.635443 -4.898438,-1.783203 -1.375875,-1.148096 -2.30745,-2.73966 -2.632812,-4.501953 l -0.01172,-0.06836 H 39.34375 c 0.426452,0 0.83515,-0.169134 1.136719,-0.470703 0.301555,-0.301555 0.470703,-0.71222 0.470703,-1.138672 0,-0.426451 -0.169148,-0.835163 -0.470703,-1.136718 -0.301569,-0.301566 -0.710267,-0.4707 -1.136719,-0.4707 H 15.050781 l -1.75,-9.496094 h 17.134766 0.0039 c 0.421719,-0.0063 0.825015,-0.176764 1.123047,-0.47461 0.297846,-0.298031 0.468285,-0.701328 0.474609,-1.123046 l 0.002,-0.0078 -0.002,-0.0059 c -0.002,-0.427026 -0.171356,-0.836852 -0.470703,-1.140625 l -0.0039,-0.0059 -0.0039,-0.0039 C 31.408374,57.323684 31.228819,57.20719 31.033203,57.128906 30.837357,57.05053 30.628507,57.010653 30.417969,57.013672 H 12.714844 Z M 88.11466,48.233 h -27.2252 l 8.5515,-10.4713 h 18.6737 c 1.3886,0 2.7203,0.5516 3.7022,1.5335 0.9818,0.9819 1.5334,2.3136 1.5334,3.7022 0,1.3885 -0.5516,2.7202 -1.5334,3.7021 -0.9819,0.9819 -2.3136,1.5335 -3.7022,1.5335 z m 0,-12.203 H 54.96916 V 7.2341 c 0,-1.7174 -0.6813,-3.3646 -1.8944,-4.5803 -1.2131,-1.2156 -2.8589,-1.9003 -4.5763,-1.9038 h -0.8591 c -1.7174,0.0035 -3.3632,0.6882 -4.5763,1.9038 -1.2131,1.2157 -1.8944,2.8629 -1.8944,4.5803 V 36.03 H 8.02316 C 7.08335,35.9887 6.14492,36.1381 5.26443,36.4693 4.38394,36.8005 3.57964,37.3066 2.90002,37.957 2.2204,38.6074 1.67952,39.3887 1.31001,40.2539 0.9405,41.119 0.75,42.0499 0.75,42.9906 c 0,0.9408 0.1905,1.8717 0.56001,2.7368 0.36951,0.8651 0.91039,1.6465 1.59001,2.2969 0.67962,0.6504 1.48392,1.1565 2.36441,1.4877 0.88049,0.3311 1.81892,0.4806 2.75873,0.4393 h 0.8726 l 4.0274,21.5466 0.3625,1.9734 c 0.4292,2.3265 1.6588,4.4295 3.4756,5.9447 1.8167,1.5152 4.1063,2.3472 6.472,2.3518 h 49.6713 c 2.3657,-0.0046 4.6553,-0.8366 6.472,-2.3518 1.8168,-1.5152 3.0464,-3.6182 3.4756,-5.9447 l 0.4162,-1.9063 4.0274,-21.5466 h 0.8726 c 0.9398,0.0413 1.8783,-0.1081 2.7587,-0.4393 0.8805,-0.3312 1.6848,-0.8373 2.3645,-1.4877 0.6796,-0.6504 1.2204,-1.4317 1.59,-2.2968 0.3695,-0.8651 0.56,-1.7961 0.56,-2.7368 0,-0.9408 -0.1905,-1.8717 -0.56,-2.7368 -0.3696,-0.8651 -0.9104,-1.6465 -1.59,-2.2969 -0.6797,-0.6504 -1.484,-1.1565 -2.3645,-1.4877 -0.8804,-0.3311 -1.8189,-0.4806 -2.7587,-0.4393 z M 42.88696,7.2341 c -0.0017,-0.6246 0.12,-1.2434 0.3582,-1.8208 0.2382,-0.5773 0.5882,-1.1019 1.0298,-1.5436 0.4417,-0.4416 0.9663,-0.7916 1.5436,-1.0298 0.5774,-0.2382 1.1962,-0.3599 1.8208,-0.3582 h 0.8591 c 0.6246,-0.0017 1.2434,0.12 1.8208,0.3582 0.5774,0.2382 1.1019,0.5882 1.5436,1.0298 0.4416,0.4417 0.7916,0.9663 1.0298,1.5436 0.2382,0.5774 0.3599,1.1962 0.3582,1.8208 V 36.03 h -10.3639 z m -0.8591,30.5276 h 25.198 l -15.8008,19.3987 c -0.4024,0.5036 -0.9131,0.9103 -1.494,1.1897 -0.581,0.2795 -1.2174,0.4246 -1.8621,0.4246 -0.6447,0 -1.2812,-0.1451 -1.8622,-0.4246 -0.5809,-0.2794 -1.0916,-0.6861 -1.494,-1.1897 L 28.91196,37.7617 Z M 2.78754,42.9974 c -0.00177,-0.6881 0.13245,-1.3697 0.39493,-2.0057 0.26249,-0.636 0.64807,-1.2139 1.1346,-1.7004 0.48652,-0.4866 1.0644,-0.8721 1.70041,-1.1346 0.63602,-0.2625 1.31763,-0.3967 2.00568,-0.395 h 18.6737 l 8.6186,10.4713 H 8.02316 C 7.33511,48.2347 6.6535,48.1005 6.01748,47.838 5.38147,47.5755 4.80359,47.19 4.31707,46.7034 3.83054,46.2169 3.44496,45.639 3.18247,45.003 2.91999,44.367 2.78577,43.6854 2.78754,42.9974 Z m 81.25942,14.7671 h -18.3381 c -0.1116,-0.0016 -0.2225,0.0189 -0.3262,0.0604 -0.1037,0.0415 -0.1981,0.1031 -0.2779,0.1812 -0.1623,0.1647 -0.2538,0.3863 -0.255,0.6176 0.0034,0.2267 0.0951,0.4433 0.2554,0.6037 0.1604,0.1603 0.377,0.252 0.6037,0.2554 h 18.0294 l -2.0272,11.0485 h -24.9161 c -0.2279,0 -0.4464,0.0905 -0.6076,0.2517 -0.1611,0.1611 -0.2516,0.3796 -0.2516,0.6075 0,0.2279 0.0905,0.4464 0.2516,0.6075 0.1612,0.1612 0.3797,0.2517 0.6076,0.2517 h 24.5939 l -0.1745,0.9531 c -0.3621,1.9347 -1.3928,3.6805 -2.9119,4.932 -1.519,1.2516 -3.4297,1.9293 -5.3979,1.9146 h -49.6713 c -1.9668,-0.0049 -3.8701,-0.6973 -5.3803,-1.9575 -1.5101,-1.2601 -2.5322,-3.0086 -2.8893,-4.9428 l -0.1745,-0.9531 h 24.5537 c 0.2279,0 0.4464,-0.0905 0.6076,-0.2517 0.1611,-0.1611 0.2516,-0.3796 0.2516,-0.6075 0,-0.2279 -0.0905,-0.4464 -0.2516,-0.6075 -0.1612,-0.1612 -0.3797,-0.2517 -0.6076,-0.2517 h -24.9161 l -2.0272,-10.9948 h 18.0294 c 0.2267,-0.0034 0.4433,-0.0951 0.6037,-0.2554 0.1603,-0.1604 0.252,-0.377 0.2554,-0.6037 -0.0011,-0.2313 -0.0927,-0.4529 -0.255,-0.6176 -0.0798,-0.0781 -0.1742,-0.1397 -0.2779,-0.1812 -0.1037,-0.0415 -0.2146,-0.062 -0.3262,-0.0604 h -18.3381 l -1.4365,-7.8132 h 26.0036 l 6.7123,8.2965 c 0.5588,0.6928 1.2651,1.2523 2.0674,1.6378 0.8084,0.3805 1.6908,0.5778 2.5843,0.5778 0.8934,0 1.7758,-0.1973 2.5842,-0.5778 0.8353,-0.3751 1.5744,-0.9352 2.1614,-1.6378 l 6.7123,-8.2965 h 26.017 z" />
  </g>
</svg>
