<?xml version="1.0" encoding="UTF-8" standalone="no"?>
<svg
   width="1000"
   height="1000"
   viewBox="0 0 1000 1000"
   fill="none"
   version="1.1"
   id="svg150"
   sodipodi:docname="panierFlash.svg"
   inkscape:version="1.2.1 (9c6d41e, 2022-07-14)"
   xmlns:inkscape="http://www.inkscape.org/namespaces/inkscape"
   xmlns:sodipodi="http://sodipodi.sourceforge.net/DTD/sodipodi-0.dtd"
   xmlns="http://www.w3.org/2000/svg"
   xmlns:svg="http://www.w3.org/2000/svg">
  <sodipodi:namedview
     id="namedview5390"
     pagecolor="#ffffff"
     bordercolor="#111111"
     borderopacity="1"
     inkscape:showpageshadow="0"
     inkscape:pageopacity="0"
     inkscape:pagecheckerboard="1"
     inkscape:deskcolor="#d1d1d1"
     showgrid="false"
     inkscape:zoom="2.8285136"
     inkscape:cx="47.551478"
     inkscape:cy="41.718025"
     inkscape:window-width="1309"
     inkscape:window-height="456"
     inkscape:window-x="186"
     inkscape:window-y="1315"
     inkscape:window-maximized="0"
     inkscape:current-layer="svg150" />
  <defs
     id="defs154" />
  <g
     id="g2866"
     transform="matrix(9.4156064,0,0,9.4156064,49.999999,107.1981)">
    <path
       id="path148"
       style="color:#000000;fill:#000000;stroke-linecap:round;stroke-miterlimit:10;-inkscape-stroke:none"
       d="M 19.302734,0.99804688 A 1.5,1.5 0 0 0 18.164062,1.1484375 1.5,1.5 0 0 0 17.615234,3.1972656 L 29.160156,23.185547 a 1.5,1.5 0 0 0 2.048828,0.548828 1.5,1.5 0 0 0 0.548828,-2.048828 L 20.212891,1.6972656 A 1.5,1.5 0 0 0 19.302734,0.99804688 Z M 5.0996094,11.488281 A 1.5,1.5 0 0 0 4.0625,11.984375 1.5,1.5 0 0 0 4.1777344,14.101563 L 21.347656,29.513672 A 1.5,1.5 0 0 0 23.466797,29.398437 1.5,1.5 0 0 0 23.351562,27.28125 L 6.1816406,11.869141 A 1.5,1.5 0 0 0 5.0996094,11.488281 Z M 60.087891,27.152344 c -2.025113,2.794139 -2.9909,6.217685 -2.72461,9.658203 l 1.994141,-0.154297 c -0.229709,-2.967875 0.602725,-5.919823 2.349609,-8.330078 z m 18.52539,-14.335938 c -1.837922,0 -3.349609,1.511636 -3.349609,3.34961 0,1.837973 1.511687,3.349609 3.349609,3.349609 1.837864,0 3.34961,-1.511636 3.34961,-3.349609 0,-1.837974 -1.511746,-3.34961 -3.34961,-3.34961 z m 0,2 c 0.756934,0 1.34961,0.592586 1.34961,1.34961 0,0.757024 -0.592676,1.349609 -1.34961,1.349609 -0.757075,0 -1.349609,-0.592585 -1.349609,-1.349609 0,-0.757024 0.592534,-1.34961 1.349609,-1.34961 z m -8.927734,-2 c -1.837922,0 -3.349609,1.511688 -3.34961,3.34961 10e-7,1.837922 1.511688,3.349609 3.34961,3.349609 1.837922,0 3.349609,-1.511687 3.349609,-3.349609 0,-1.837922 -1.511687,-3.34961 -3.349609,-3.34961 z m 0,2 c 0.757075,0 1.349609,0.592534 1.349609,1.34961 0,0.757075 -0.592534,1.349609 -1.349609,1.349609 -0.757075,0 -1.349609,-0.592534 -1.34961,-1.349609 0,-0.757076 0.592535,-1.34961 1.34961,-1.34961 z M 75.632812,8.9550781 A 1,1 0 0 0 74.462891,9.75 l -2.390625,12.457031 a 1,1 0 0 0 0.794921,1.171875 1,1 0 0 0 1.169922,-0.794922 L 76.425781,10.126953 A 1,1 0 0 0 75.632812,8.9550781 Z m 6.298829,-8.92773435 c -1.066747,-0.12069647 -2.140134,0.17235997 -2.996094,0.8203125 L 60.478516,14.818359 l -0.01172,0.0098 c -0.507261,0.400633 -0.915543,0.913921 -1.191406,1.498047 -0.275986,0.584559 -0.411527,1.225028 -0.398438,1.871094 v -0.06445 l -0.175781,7.736329 v 0.01563 c -0.0012,1.074036 0.410614,2.10799 1.15039,2.886718 0.739772,0.778724 1.753241,1.245221 2.826172,1.298828 h 0.002 l 8.15625,0.375 h 0.0039 c 0.95271,0.0388 1.891471,-0.249616 2.658203,-0.816406 l 17.90039,-13.083984 c 0.460905,-0.336947 0.849316,-0.764095 1.138672,-1.255859 0.288768,-0.491185 0.474251,-1.037402 0.544922,-1.603516 v -0.002 c 0.0703,-0.565995 0.02478,-1.140358 -0.134765,-1.6875 -0.159821,-0.547691 -0.430804,-1.058331 -0.794922,-1.498047 v -0.002 L 84.671875,1.5 84.669875,1.49609 C 83.980379,0.67331593 82.998386,0.14802452 81.931641,0.02734375 Z M 81.595703,3.0078125 c 0.302061,0.034172 0.577848,0.1833425 0.773438,0.4160156 3.83e-4,4.56e-4 0.0016,-4.566e-4 0.002,0 l 7.472656,8.9902349 c 0.102222,0.124011 0.177527,0.267222 0.222656,0.421875 0.04527,0.155227 0.05901,0.31659 0.03906,0.476562 v 0.002 c -0.0199,0.160022 -0.07218,0.313446 -0.154297,0.453125 -0.08204,0.139435 -0.191971,0.260216 -0.322266,0.355469 l -17.912109,13.091797 -0.002,0.002 c -0.216753,0.16023 -0.482528,0.24296 -0.751953,0.232422 L 62.826169,27.07236 c -0.304067,-0.01519 -0.589001,-0.146312 -0.798828,-0.367188 -0.20939,-0.220415 -0.326044,-0.510372 -0.326172,-0.814453 0,-6.29e-4 -10e-7,-0.0013 0,-0.002 l 0.175781,-7.720703 -0.002,-0.03125 c -0.0037,-0.183134 0.03527,-0.364057 0.113281,-0.529297 0.07834,-0.165874 0.194352,-0.310462 0.337891,-0.423828 L 80.746094,3.2402344 C 80.988933,3.0564077 81.293051,2.9735691 81.595703,3.0078125 Z M 47.339844,0.93164063 C 46.391553,0.92992106 45.452729,1.114563 44.576172,1.4765625 43.699135,1.8388062 42.901512,2.371959 42.230469,3.0429688 41.559476,3.7140734 41.028293,4.5097095 40.666016,5.3867187 v 0.00195 c -0.362161,0.8771085 -0.548884,1.816548 -0.546875,2.765625 V 36.210937 H 7.7246094 c -1.0143368,0 -2.0199419,0.199828 -2.9570313,0.587891 -0.937111,0.388183 -1.7886194,0.958541 -2.5058593,1.675781 C 1.544447,39.19187 0.97605165,40.043402 0.58789062,40.980469 0.19971674,41.917566 0,42.921171 0,43.935547 c 0,1.014287 0.19973226,2.01986 0.58789062,2.957031 0.38816902,0.937086 0.95658368,1.788626 1.67382818,2.505859 0.7172399,0.71724 1.5687483,1.285645 2.5058593,1.673829 0.9371279,0.38819 1.9426945,0.58789 2.9570313,0.58789 h 0.25 L 11.886719,72.59375 12.25,74.552734 v 0.002 c 0.467049,2.493112 1.789665,4.745669 3.740234,6.367188 1.95049,1.621542 4.406876,2.509913 6.94336,2.513672 h 49.671875 0.002 c 2.540602,-0.0049 5.00007,-0.898184 6.951172,-2.525391 1.950637,-1.626819 3.27118,-3.885017 3.732422,-6.382812 l 0.414062,-1.992188 3.914063,-20.955078 h 0.25 c 2.043872,0 4.004549,-0.812006 5.451171,-2.255859 1.446698,-1.443929 2.261639,-3.403408 2.265625,-5.447266 v -0.002 c 0,-2.046529 -0.812717,-4.009983 -2.259765,-5.457031 -1.447064,-1.447175 -3.41053,-2.259766 -5.457031,-2.259766 h -0.310547 l -0.05273,0.05273 H 55.419922 V 8.1542969 8.1523438 C 55.421675,7.2039243 55.236914,6.2651841 54.875,5.3886719 v -0.00195 C 54.512702,4.5096592 53.979557,3.714044 53.308594,3.0429688 52.63758,2.3719884 51.842014,1.838815 50.964844,1.4765625 50.088357,1.1145461 49.147598,0.92992094 48.199219,0.93164063 h -0.857422 z m -0.002,1.49999997 h 0.002 0.861328 c 0.751562,-0.00156 1.494937,0.1447838 2.189453,0.4316407 0.694629,0.2868668 1.326037,0.7088759 1.857422,1.2402343 0.531435,0.5315236 0.953333,1.162883 1.240234,1.8574219 0.286839,0.6946899 0.433232,1.4379318 0.431641,2.1894531 v 0.00195 29.5585934 h 34.207031 l 0.002,-0.002 c 1.551272,0.06715 3.034215,0.666943 4.136719,1.769532 1.166149,1.166149 1.820313,2.747217 1.820312,4.396484 -0.0037,1.646433 -0.658778,3.223509 -1.824218,4.386719 -1.165776,1.163544 -2.745454,1.818359 -4.392578,1.818359 h -1.496094 l -4.138672,22.164063 -0.417969,2 v 0.0098 c -0.397464,2.154475 -1.536266,4.100726 -3.21875,5.503906 -1.681995,1.402774 -3.802087,2.173021 -5.992187,2.177735 h -49.669922 -0.002 c -2.18662,-0.0037 -4.302969,-0.770129 -5.984375,-2.167969 C 15.267192,78.3693 14.12736,76.429181 13.724609,74.279297 L 13.361328,72.320312 9.21875,50.160156 H 7.7246094 c -0.8173615,0 -1.6276621,-0.1618 -2.3828125,-0.474609 C 4.5866296,49.372731 3.9002244,48.913896 3.3222656,48.335937 2.7442913,47.757972 2.2873997,47.073472 1.9746094,46.318359 1.6618084,45.563132 1.5,44.752858 1.5,43.935547 c 0,-0.817422 0.161824,-1.625759 0.4746094,-2.38086 0.3127983,-0.755131 0.7697092,-1.441593 1.3476562,-2.019531 0.5779588,-0.577959 1.264364,-1.036793 2.0195313,-1.349609 0.7551889,-0.312736 1.565451,-0.47461 2.3828125,-0.47461 H 41.619141 V 8.1523438 8.1503906 c -0.0016,-0.7515213 0.146754,-1.4947632 0.433593,-2.1894531 h -0.002 c 0.286923,-0.6945892 0.708829,-1.3259277 1.240235,-1.8574219 0.531355,-0.531329 1.16286,-0.9533587 1.857421,-1.2402343 0.694645,-0.2868736 1.438003,-0.4332051 2.189454,-0.4316407 z m 0,0.21875 c -1.457165,0.00417 -2.854415,0.5847682 -3.884766,1.6152344 -1.030486,1.0303704 -1.611069,2.4276016 -1.615234,3.8847656 v 0.00195 29.5585934 H 53.701172 V 8.1503906 C 53.697006,6.6932266 53.116424,5.2959954 52.085937,4.265625 51.055567,3.2351389 49.658336,2.6545563 48.201172,2.6503906 h -0.861328 z m 0.002,1.5 h 0.859375 c 1.060727,0.00355 2.076204,0.4257293 2.826172,1.1757813 0.750512,0.7504278 1.172747,1.7666915 1.175781,2.828125 V 36.210937 H 43.337891 V 8.1542969 c 0.003,-1.0614335 0.425269,-2.0776972 1.175781,-2.828125 0.749987,-0.7500713 1.765445,-1.172234 2.826172,-1.1757813 z M 7.7226562,37.929687 c -1.5854072,0.0041 -3.1054646,0.636727 -4.2265624,1.757813 -1.1210932,1.121093 -1.753756,2.641192 -1.7578126,4.226562 -0.00202,0.786902 0.1510007,1.565642 0.4511719,2.292969 0.3001794,0.72732 0.7424057,1.388925 1.2988282,1.945313 0.5564378,0.556529 1.21608,0.996705 1.9433593,1.296875 0.7267696,0.299954 1.5068313,0.45286 2.2929688,0.451172 H 36.605469 L 26.751953,37.929687 Z m 19.3124998,0 16.798828,20.625 0.002,0.002 c 0.489722,0.591658 1.110631,1.059786 1.8125,1.371093 0.671728,0.318303 1.404948,0.484375 2.148438,0.484375 0.746769,0 1.483976,-0.165181 2.158203,-0.486328 l 0.0039,-0.002 c 0.679291,-0.319126 1.276053,-0.787556 1.748047,-1.371094 l 0.002,-0.002 16.796875,-20.621094 H 41.728516 Z m 41.75,0 -9.77539,11.970704 h 28.80664 c 1.587216,0 3.11016,-0.629577 4.232422,-1.751954 1.122345,-1.122344 1.751953,-2.645206 1.751953,-4.232421 0,-1.58713 -0.629608,-3.110078 -1.751953,-4.232422 -1.122262,-1.122376 -2.645206,-1.753907 -4.232422,-1.753907 z m -61.0605466,1.5 H 26.042969 l 7.384765,8.970704 H 7.7226562 C 7.1333517,48.401847 6.5485794,48.287299 6.0039062,48.0625 5.4591669,47.83767 4.9654293,47.508467 4.5488281,47.091797 4.1321915,46.675186 3.8009719,46.179445 3.5761719,45.634766 3.3513836,45.090094 3.2367654,44.507266 3.2382813,43.917969 c 0.00304,-1.189427 0.4772545,-2.328817 1.3183593,-3.169922 0.8406604,-0.840652 1.9791242,-1.314761 3.1679688,-1.31836 z m 22.4667966,0 h 11.53711 23.621093 l -14.80664,18.175782 v 0.002 c -0.330226,0.408734 -0.748761,0.737894 -1.22461,0.960937 h -0.0039 l -0.002,0.002 c -0.473522,0.226045 -0.991026,0.341797 -1.515625,0.341797 -0.524716,0 -1.042072,-0.115738 -1.515625,-0.341797 l -0.0098,-0.0059 -0.01172,-0.0039 C 45.767912,58.343234 45.334951,58.01372 44.992187,57.599609 Z m 39.306641,0 h 18.318359 c 1.189982,0 2.330539,0.473032 3.171875,1.314454 0.841454,0.841453 1.3125,1.982007 1.3125,3.171875 0,1.189981 -0.471046,2.330421 -1.3125,3.171875 -0.841336,0.841422 -1.981893,1.3125 -3.171875,1.3125 H 62.171875 Z M 9.4511719,50.160156 11.169922,59.337891 h 18.958984 c 0.02935,0 0.05728,0.01237 0.07813,0.0332 0.02084,0.02085 0.03125,0.04682 0.03125,0.07617 0,0.02916 -0.01072,0.05759 -0.03125,0.07813 -0.02096,0.02095 -0.049,0.03125 -0.07813,0.03125 H 11.201172 l 2.300781,12.589843 h 25.53125 c 0.03229,4.99e-4 0.06124,0.01241 0.08398,0.03516 0.02061,0.02061 0.02875,0.0493 0.03125,0.07813 -0.0023,0.03173 -0.01323,0.06114 -0.03516,0.08398 -0.0068,0.0052 -0.01324,0.01037 -0.02148,0.01367 -0.01242,0.005 -0.0247,0.008 -0.03711,0.0078 l -0.0059,-0.002 H 13.591797 l 0.335937,1.853516 v 0.002 c 0.393381,2.105578 1.509973,4.006756 3.15625,5.376953 1.640014,1.372561 3.711049,2.123359 5.84961,2.121094 h 49.671875 c 2.139363,0.0128 4.214594,-0.723013 5.867187,-2.082031 1.653698,-1.359729 2.779636,-3.25619 3.179688,-5.359375 v -0.0039 l 0.335937,-1.853515 h -25.498047 -0.0059 c -0.01241,1.77e-4 -0.02485,-0.0029 -0.03711,-0.0078 -0.0087,-0.0038 -0.01642,-0.0097 -0.02344,-0.01563 -0.02015,-0.0224 -0.03107,-0.05172 -0.0332,-0.08203 0.0025,-0.02875 0.01068,-0.0556 0.03125,-0.07617 v -0.002 c 0.02243,-0.02245 0.05364,-0.03466 0.08594,-0.03516 H 82.037109 L 84.339844,59.650391 H 65.410156 c -0.02916,0 -0.05759,-0.01072 -0.07813,-0.03125 -0.02053,-0.02054 -0.03125,-0.04878 -0.03125,-0.07813 0,-0.02916 0.01072,-0.05564 0.03125,-0.07617 0.02053,-0.02054 0.04896,-0.03125 0.07813,-0.03125 h 18.960938 l 0.113281,-0.613282 1.617187,-8.660156 H 58.824219 l -6.939453,8.535156 -0.0039,0.0039 c -0.742806,0.934283 -1.781458,1.586851 -2.945312,1.851562 -1.163797,0.264806 -2.38308,0.12643 -3.457031,-0.394531 l -0.002,-0.002 -0.0039,-0.002 c -0.70594,-0.332978 -1.326903,-0.821716 -1.816406,-1.429688 l -0.002,-0.002 -6.9375,-8.560547 z m 1.8066411,1.5 h 24.74414 l 6.484375,8.003906 c 3.25e-4,4.04e-4 0.0016,-4.03e-4 0.002,0 v 0.002 c 0.630721,0.782698 1.431042,1.41241 2.339844,1.841796 1.379494,0.668078 2.946821,0.845932 4.441406,0.50586 1.496144,-0.340288 2.830364,-1.179945 3.785156,-2.38086 l 6.482422,-7.972656 H 84.294969 L 83.123094,57.93364 H 65.410156 c -0.426438,0 -0.837006,0.169038 -1.138672,0.470703 -0.301665,0.301665 -0.470703,0.71028 -0.470703,1.136719 0,0.426451 0.169038,0.837006 0.470703,1.138671 0.301666,0.301666 0.712234,0.470704 1.138672,0.470704 h 17.128906 l -1.751953,9.548828 h -24.296875 -0.0059 c -0.421301,0.0065 -0.824879,0.178208 -1.123047,0.476562 -0.297236,0.297922 -0.468117,0.700411 -0.474609,1.121094 v 0.0078 0.0078 c 0.0022,0.426584 0.17075,0.836609 0.470703,1.140625 l 0.0039,0.0039 0.0059,0.0039 c 0.150705,0.147869 0.328165,0.265528 0.523438,0.34375 0.195139,0.07791 0.404243,0.116304 0.615234,0.113282 h 23.6875 l -0.01563,0.08398 v -0.0078 c -0.334547,1.75881 -1.27335,3.345353 -2.65625,4.482421 -1.382797,1.137151 -3.121856,1.751711 -4.912109,1.740235 h -0.002 -49.673828 c -1.786944,0.0023 -3.518388,-0.624666 -4.888672,-1.771485 -1.378483,-1.146928 -2.313252,-2.73923 -2.642578,-4.501953 l -0.01563,-0.08008 H 39.03314 c 0.210985,0.003 0.42025,-0.03544 0.615234,-0.113281 0.195462,-0.07822 0.374687,-0.193929 0.525391,-0.341797 l 0.0039,-0.0039 0.0039,-0.0059 c 0.299953,-0.304016 0.468489,-0.712088 0.470703,-1.138671 v -0.0078 -0.0078 c -0.0065,-0.421305 -0.176558,-0.824995 -0.47461,-1.123047 -0.298052,-0.298052 -0.701742,-0.468108 -1.123047,-0.47461 h -0.0059 -24.294922 L 13,61.056641 h 17.128906 c 0.426671,0 0.837232,-0.16945 1.138672,-0.470704 0.301665,-0.301665 0.470703,-0.712233 0.470703,-1.138671 0,-0.426452 -0.16934,-0.835169 -0.470703,-1.136719 -0.30155,-0.301363 -0.71222,-0.472656 -1.138672,-0.472656 H 12.414063 Z M 87.81563,36.961651 H 54.67013 V 8.1523515 c 0.0018,-0.8503 -0.1644,-1.6925 -0.4889,-2.4784 -0.3246,-0.7858 -0.8012,-1.4998 -1.4024,-2.1011 -0.6012,-0.60117 -1.3152,-1.07772 -2.1011,-1.40228 -0.7858,-0.32456 -1.628,-0.49072 -2.4783,-0.48895 h -0.8591 c -0.8503,-0.00177 -1.6925,0.16439 -2.4784,0.48895 -0.7858,0.32456 -1.4999,0.80111 -2.1011,1.40228 -0.6012,0.6013 -1.0777,1.3153 -1.4023,2.1011 -0.3245,0.7859 -0.4907,1.6281 -0.4889,2.4784 V 36.961651 H 7.72411 c -0.91585,0 -1.82274,0.1804 -2.66888,0.5308 -0.84614,0.3505 -1.61496,0.8642 -2.26256,1.5118 -0.64761,0.6476 -1.16132,1.4165 -1.5118,2.2626 -0.35048,0.8461 -0.53087,1.753 -0.53087,2.6689 0,0.9158 0.18039,1.8227 0.53087,2.6689 0.35048,0.8461 0.86419,1.6149 1.5118,2.2625 0.6476,0.6476 1.41642,1.1613 2.26256,1.5118 0.84614,0.3505 1.75303,0.5309 2.66888,0.5309 h 0.8726 l 4.02742,21.5466 0.3624,1.96 c 0.4349,2.3215 1.6668,4.4182 3.4831,5.9281 1.8162,1.5099 4.1027,2.338 6.4646,2.3415 h 49.6713 c 2.3657,-0.0046 4.6552,-0.8366 6.472,-2.3518 1.8168,-1.5152 3.0464,-3.6182 3.4756,-5.9447 l 0.4162,-2.0003 4.0274,-21.56 h 0.8726 c 1.8455,0 3.6157,-0.7322 4.922,-2.0359 1.3062,-1.3038 2.0418,-3.0725 2.0454,-4.918 0,-1.8479 -0.7341,-3.6201 -2.0407,-4.9267 -1.3067,-1.3067 -3.0788,-2.0407 -4.9267,-2.0407 z M 42.58793,8.1523515 c 0.0036,-1.2593 0.5054,-2.4661 1.3959,-3.3565 0.8904,-0.8905 2.0971,-1.3923 3.3565,-1.3959 h 0.8591 c 1.2593,0.0036 2.4661,0.5054 3.3565,1.3959 0.8905,0.8904 1.3923,2.0972 1.3959,3.3565 V 36.961651 h -10.3639 z m -0.8592,30.5275995 h 25.1981 l -15.8008,19.3987 c -0.4017,0.4972 -0.9113,0.8966 -1.4901,1.1679 -0.5744,0.2742 -1.2028,0.4165 -1.8392,0.4165 -0.6365,0 -1.2648,-0.1423 -1.8392,-0.4165 -0.5982,-0.2643 -1.1268,-0.6641 -1.5438,-1.1679 l -15.8009,-19.3987 z m -39.24024,5.2356 c 0.00355,-1.3874 0.55629,-2.7171 1.53739,-3.6982 0.98111,-0.9811 2.31075,-1.5338 3.69823,-1.5374 h 18.67372 l 8.6186,10.4713 H 7.72411 c -0.68805,0.0017 -1.36966,-0.1325 -2.00568,-0.395 -0.63601,-0.2625 -1.21389,-0.648 -1.70041,-1.1346 -0.48653,-0.4865 -0.87211,-1.0644 -1.1346,-1.7004 -0.26248,-0.636 -0.3967,-1.3176 -0.39493,-2.0057 z m 81.25944,14.7672 h -18.3381 c -0.2278,0 -0.4464,0.0905 -0.6075,0.2516 -0.1611,0.1611 -0.2516,0.3797 -0.2516,0.6075 0,0.2279 0.0905,0.4464 0.2516,0.6076 0.1611,0.1611 0.3797,0.2516 0.6075,0.2516 h 18.0294 l -2.0272,11.0485 h -24.9161 c -0.2268,0.0035 -0.4434,0.0951 -0.6037,0.2555 -0.1604,0.1604 -0.252,0.3769 -0.2555,0.6037 0.0012,0.2312 0.0927,0.4529 0.2551,0.6175 0.0797,0.0782 0.1742,0.1398 0.2778,0.1813 0.1037,0.0414 0.2146,0.062 0.3263,0.0604 h 24.5939 l -0.1745,0.9665 c -0.3673,1.931 -1.3999,3.6722 -2.9182,4.9206 -1.5182,1.2485 -3.4261,1.9252 -5.3916,1.9126 h -49.6713 c -1.9631,0.0025 -3.8644,-0.6867 -5.3698,-1.9466 -1.5127,-1.2586 -2.5384,-3.0059 -2.8998,-4.9402 l -0.1745,-0.9666 h 24.5537 c 0.1117,0.0016 0.2225,-0.019 0.3262,-0.0604 0.1037,-0.0415 0.1982,-0.1031 0.2779,-0.1813 0.1624,-0.1646 0.2539,-0.3863 0.2551,-0.6175 -0.0035,-0.2268 -0.0951,-0.4433 -0.2555,-0.6037 -0.1604,-0.1604 -0.3769,-0.252 -0.6037,-0.2555 h -24.9162 l -2.0271,-11.0887 h 18.0293 c 0.2279,0 0.4464,-0.0906 0.6076,-0.2517 0.1611,-0.1611 0.2516,-0.3797 0.2516,-0.6075 0,-0.2279 -0.0905,-0.4464 -0.2516,-0.6076 -0.1612,-0.1611 -0.3797,-0.2516 -0.6076,-0.2516 h -18.338 l -1.4365,-7.6789 h 26.0036 l 6.7123,8.283 c 0.5607,0.6964 1.2722,1.2564 2.0808,1.6378 1.2272,0.5953 2.6206,0.7548 3.9505,0.4522 1.33,-0.3026 2.5172,-1.0492 3.366,-2.1168 l 6.7123,-8.2562 h 26.017 z m 4.0274,-9.4778 h -27.1849 l 8.5515,-10.4713 h 18.6737 c 1.3886,0 2.7203,0.5516 3.7021,1.5335 0.9819,0.9819 1.5335,2.3136 1.5335,3.7021 0,1.3886 -0.5516,2.7203 -1.5335,3.7022 -0.9818,0.9818 -2.3135,1.5335 -3.7021,1.5335" />
  </g>
</svg>
