<svg viewBox="0 0 900 774" xmlns="http://www.w3.org/2000/svg">
<path d="M653.866 179.762C652.968 180.602 652.244 181.61 651.736 182.73C651.228 183.849 650.946 185.058 650.905 186.287C650.864 187.515 651.066 188.74 651.499 189.891C651.932 191.042 652.587 192.096 653.427 192.993C664.637 204.986 680.296 209.98 692.936 212.583C705.576 215.186 715.907 215.178 715.907 215.178C718.388 215.178 720.768 214.192 722.523 212.437C724.277 210.683 725.263 208.303 725.263 205.821C725.263 203.34 724.277 200.96 722.523 199.205C720.768 197.451 718.388 196.465 715.907 196.465C715.907 196.465 707.392 196.456 696.701 194.254C686.01 192.052 673.848 187.425 667.097 180.201C666.257 179.303 665.248 178.579 664.129 178.071C663.009 177.563 661.801 177.281 660.572 177.24C659.343 177.199 658.119 177.401 656.968 177.834C655.817 178.267 654.763 178.922 653.866 179.762L653.866 179.762ZM694.307 136.179C693.409 137.018 692.685 138.027 692.177 139.146C691.669 140.266 691.386 141.474 691.345 142.703C691.305 143.932 691.507 145.156 691.939 146.307C692.372 147.458 693.028 148.512 693.868 149.409C705.078 161.403 720.737 166.396 733.377 168.999C746.017 171.602 756.347 171.594 756.347 171.594C758.829 171.594 761.209 170.608 762.963 168.853C764.718 167.099 765.704 164.719 765.704 162.238C765.704 159.756 764.718 157.376 762.963 155.622C761.209 153.867 758.829 152.881 756.347 152.881C756.347 152.881 747.832 152.872 737.141 150.67C726.45 148.468 714.289 143.842 707.537 136.617C706.697 135.719 705.689 134.996 704.57 134.487C703.45 133.979 702.241 133.697 701.013 133.656C699.784 133.615 698.559 133.817 697.409 134.25C696.258 134.683 695.204 135.338 694.307 136.179L694.307 136.179ZM729.777 65.403C722.766 63.9291 715.485 64.3865 708.725 66.7553C701.926 69.1377 695.913 73.3345 691.346 78.9076L657.32 120.225C656.537 121.173 655.949 122.266 655.589 123.441C655.228 124.616 655.103 125.851 655.22 127.074C655.337 128.298 655.694 129.487 656.271 130.572C656.848 131.658 657.632 132.619 658.581 133.401C659.53 134.183 660.623 134.77 661.799 135.128C662.975 135.487 664.21 135.611 665.434 135.492C666.657 135.373 667.845 135.014 668.93 134.436C670.015 133.858 670.976 133.071 671.756 132.122L705.801 90.7858H705.82C708.211 87.8639 711.357 85.6568 714.92 84.4081C718.484 83.1593 722.323 82.9233 726.013 83.7137L726.177 83.7503L726.36 83.7685C742.059 86.5159 756.826 93.0445 769.487 102.719C772.91 105.772 775.091 109.969 775.517 114.542C775.948 119.156 774.606 123.756 771.753 127.407L748.892 156.043L707.812 208.106C692.457 203.918 676.437 202.545 660.719 205.401C658.28 205.846 656.116 207.241 654.704 209.279C653.293 211.318 652.748 213.834 653.19 216.274C653.408 217.486 653.863 218.642 654.529 219.678C655.194 220.713 656.058 221.607 657.07 222.308C658.082 223.009 659.222 223.504 660.425 223.763C661.628 224.023 662.871 224.043 664.082 223.821C678.966 221.117 694.28 222.282 708.579 227.22L714.865 229.395L763.548 167.665L786.427 139.029L786.446 138.993C792.27 131.574 795.035 122.198 794.157 112.806C793.281 103.414 788.829 94.7145 781.731 88.5016L781.512 88.3005L781.292 88.1178C766.212 76.4916 748.525 68.7185 729.777 65.403V65.403ZM631.827 188.004C631.827 188.004 623.817 190.644 612.969 191.988C602.12 193.331 588.972 192.968 580.02 188.516C577.8 187.413 575.233 187.236 572.883 188.024C570.532 188.812 568.591 190.5 567.484 192.719C566.935 193.819 566.608 195.017 566.523 196.243C566.437 197.47 566.593 198.701 566.984 199.867C567.374 201.033 567.99 202.111 568.797 203.038C569.605 203.966 570.587 204.725 571.687 205.273C586.224 212.503 602.537 212.131 615.271 210.554C628.005 208.977 637.693 205.785 637.693 205.785C638.861 205.4 639.942 204.789 640.874 203.987C641.805 203.184 642.569 202.206 643.123 201.108C643.676 200.01 644.007 198.813 644.098 197.587C644.189 196.361 644.037 195.129 643.651 193.961C643.266 192.793 642.655 191.713 641.853 190.781C641.05 189.85 640.072 189.085 638.974 188.532C637.876 187.979 636.679 187.647 635.453 187.557C634.227 187.466 632.995 187.618 631.827 188.004V188.004ZM655.821 134.132C655.821 134.132 647.811 136.772 636.962 138.116C626.114 139.459 612.966 139.096 604.014 134.644C601.794 133.541 599.227 133.364 596.877 134.152C594.526 134.94 592.585 136.628 591.478 138.847C590.375 141.067 590.198 143.634 590.986 145.984C591.774 148.335 593.463 150.276 595.681 151.383C610.218 158.612 626.531 158.259 639.265 156.682C651.999 155.105 661.687 151.894 661.687 151.894C664.042 151.118 665.992 149.438 667.109 147.225C668.226 145.011 668.418 142.445 667.645 140.089C667.26 138.921 666.649 137.841 665.847 136.909C665.044 135.978 664.066 135.213 662.968 134.66C661.87 134.107 660.673 133.775 659.447 133.685C658.221 133.594 656.989 133.746 655.821 134.132V134.132ZM630.329 58.4771C620.959 57.7059 611.486 58.0604 602.132 59.5188C594.974 60.4203 588.208 63.2537 582.56 67.7421C576.905 72.2382 572.589 78.2095 570.097 84.9929V85.0111C570.094 85.0193 570.083 85.0212 570.079 85.0294L504.95 260.406V262.087V335.494H564.816L562.824 324.475C552.482 267.29 570.776 243.712 590.966 231.369C611.157 219.025 634.441 219.563 634.441 219.563L641.293 219.801L679.742 111.107C682.953 102.111 682.562 92.2221 678.646 83.5127C674.73 74.8028 667.585 67.9297 658.727 64.3614L658.471 64.27L658.197 64.1786C649.136 61.1666 639.778 59.2549 630.329 58.4771ZM628.794 77.135C636.624 77.7796 644.356 79.3667 651.874 81.8315C656.18 83.6138 659.666 86.9342 661.578 91.1878C663.515 95.4967 663.713 100.372 662.126 104.82V104.839L627.953 201.418C619.779 201.633 601.669 202.889 581.208 215.397C557.134 230.115 537.236 262.048 543.728 316.782H523.663V263.769L587.641 91.4806L587.659 91.4624C588.965 87.8949 591.227 84.7633 594.201 82.3984C597.178 80.0331 600.737 78.535 604.508 78.0674L604.673 78.0492L604.819 78.0126C612.772 76.7563 620.827 76.4796 628.794 77.1355L628.794 77.135ZM638.022 209.604C636.87 209.174 635.645 208.975 634.416 209.018C633.188 209.062 631.979 209.347 630.861 209.858C629.742 210.369 628.736 211.095 627.898 211.996C627.061 212.896 626.409 213.952 625.98 215.105C625.549 216.256 625.35 217.482 625.394 218.711C625.438 219.939 625.723 221.148 626.234 222.266C626.745 223.384 627.471 224.391 628.371 225.229C629.271 226.066 630.328 226.718 631.48 227.147C631.48 227.147 641.322 230.849 650.942 236.997C655.752 240.071 660.389 243.742 663.46 247.34C666.531 250.938 667.846 254.082 667.846 256.806C667.846 259.288 668.831 261.667 670.586 263.422C672.341 265.177 674.721 266.162 677.202 266.162C679.683 266.162 682.063 265.177 683.818 263.422C685.573 261.667 686.558 259.288 686.558 256.806C686.558 248.226 682.585 240.916 677.695 235.188C672.806 229.46 666.815 224.935 661.011 221.226C649.404 213.809 638.022 209.604 638.022 209.604ZM669.655 205.474C657.006 204.575 646.058 206.016 639.21 207.283C634.952 207.988 630.645 208.323 626.327 208.27H626.308H626.289C600.281 208.066 580.914 216.454 568.068 229.505C555.223 242.556 548.98 259.473 546.066 275.72C540.239 308.213 547.364 339.697 547.364 339.697L548.972 347.044L556.482 347.062L756.292 347.446L756.639 338.455C759.358 270.111 737.594 234.069 710.296 217.773C696.648 209.624 682.304 206.373 669.655 205.474ZM668.083 224.278C678.562 225.016 690.235 227.586 700.703 233.836C720.504 245.657 737.839 271.632 737.561 328.696L564.634 328.367C563.213 319.959 560.53 301.093 564.487 279.027C566.974 265.16 572.146 252.018 581.391 242.625C590.627 233.241 604.03 226.823 626.089 226.983C631.568 227.05 637.04 226.627 642.445 225.722L642.536 225.703L642.609 225.684C648.323 224.627 657.605 223.539 668.083 224.277L668.083 224.278ZM320.108 174.116C318.337 173.604 316.482 173.447 314.65 173.652C312.818 173.857 311.045 174.422 309.431 175.313C307.817 176.204 306.395 177.404 305.245 178.844C304.095 180.285 303.24 181.938 302.729 183.71C300.432 191.664 296.436 199.036 291.034 205.31C285.631 211.583 278.951 216.605 271.425 220.057C269.748 220.825 268.239 221.916 266.984 223.268C265.729 224.62 264.753 226.206 264.111 227.936C263.47 229.665 263.175 231.504 263.245 233.347C263.315 235.191 263.747 237.002 264.518 238.678C266.073 242.057 268.905 244.681 272.393 245.973C275.882 247.265 279.74 247.119 283.121 245.567C294.315 240.432 304.268 232.953 312.305 223.62C320.341 214.288 326.285 203.328 329.702 191.494C330.213 189.723 330.371 187.869 330.165 186.037C329.96 184.205 329.396 182.431 328.505 180.818C327.614 179.204 326.414 177.781 324.973 176.631C323.532 175.481 321.879 174.627 320.108 174.116V174.116ZM300.463 242.37C298.664 241.965 296.803 241.918 294.987 242.233C293.17 242.547 291.433 243.217 289.875 244.202C288.318 245.188 286.969 246.472 285.907 247.979C284.846 249.486 284.091 251.188 283.687 252.987C283.687 252.987 283.859 252.802 282.755 254.759C281.652 256.717 279.564 259.718 275.464 263.019C267.264 269.621 250.62 277.821 216.493 277.821C212.771 277.821 209.201 279.3 206.569 281.932C203.938 284.564 202.459 288.134 202.459 291.856C202.459 295.578 203.938 299.148 206.569 301.78C209.201 304.412 212.771 305.89 216.493 305.89C255.218 305.89 279.029 296.191 293.062 284.893C300.078 279.245 304.526 273.293 307.206 268.538C309.886 263.783 311.08 259.127 311.08 259.127C311.892 255.497 311.23 251.693 309.24 248.551C307.249 245.409 304.092 243.185 300.463 242.37V242.37ZM281.476 119.75C277.942 120.906 275.011 123.416 273.326 126.731C264.301 144.483 251.467 160.019 235.754 172.252C234.3 173.384 233.083 174.792 232.172 176.395C231.262 177.998 230.676 179.765 230.449 181.594C230.222 183.424 230.357 185.28 230.847 187.057C231.337 188.834 232.173 190.497 233.306 191.951C234.438 193.406 235.846 194.623 237.449 195.533C239.052 196.444 240.819 197.029 242.648 197.256C244.477 197.484 246.334 197.349 248.111 196.859C249.888 196.368 251.551 195.533 253.005 194.4C271.971 179.634 287.45 160.876 298.343 139.45C299.179 137.806 299.683 136.014 299.826 134.175C299.969 132.337 299.748 130.488 299.176 128.735C298.604 126.982 297.692 125.359 296.493 123.958C295.293 122.558 293.829 121.407 292.185 120.573C288.865 118.889 285.014 118.594 281.476 119.75V119.75ZM158.144 198.457C156.817 199.736 155.755 201.264 155.018 202.953C154.281 204.643 153.885 206.461 153.851 208.304C153.817 210.147 154.146 211.978 154.82 213.694C155.494 215.409 156.5 216.975 157.779 218.303C179.524 240.899 209.213 243.188 231.442 240.341C253.671 237.494 270.859 229.486 270.859 229.486C272.533 228.715 274.038 227.621 275.29 226.268C276.541 224.914 277.513 223.328 278.151 221.599C278.789 219.87 279.08 218.032 279.008 216.19C278.936 214.348 278.502 212.539 277.73 210.865C276.959 209.189 275.864 207.681 274.509 206.428C273.155 205.176 271.566 204.202 269.835 203.564C268.104 202.926 266.264 202.635 264.42 202.709C262.576 202.783 260.765 203.219 259.09 203.994C259.09 203.994 245.372 210.251 227.878 212.491C210.384 214.732 191.54 212.921 177.99 198.841C176.712 197.512 175.185 196.448 173.496 195.71C171.807 194.972 169.989 194.574 168.147 194.538C166.304 194.502 164.472 194.83 162.756 195.503C161.039 196.175 159.472 197.179 158.144 198.457L158.144 198.457ZM229.98 142.008C226.384 142.964 223.316 145.309 221.448 148.526C219.581 151.744 219.067 155.571 220.02 159.167C232.187 205.058 271.575 250.893 307.48 287.086C343.385 323.28 376.556 349.145 376.556 349.145C378.009 350.279 379.672 351.116 381.448 351.607C383.224 352.099 385.08 352.236 386.909 352.01C388.739 351.784 390.506 351.201 392.109 350.292C393.713 349.383 395.122 348.168 396.256 346.715C397.39 345.262 398.227 343.599 398.718 341.823C399.21 340.047 399.346 338.191 399.121 336.362C398.895 334.532 398.311 332.765 397.403 331.162C396.494 329.558 395.279 328.149 393.825 327.015C393.825 327.015 361.927 302.119 327.399 267.314C292.871 232.509 256.451 187.092 247.139 151.967C246.183 148.372 243.839 145.303 240.621 143.436C237.403 141.568 233.576 141.055 229.98 142.008ZM344.193 23.3177C327.148 21.5821 311.746 26.412 299.312 33.0396C281.105 42.7438 270.64 54.1306 264.956 60.9076C223.231 52.6131 192.579 65.2041 174.92 82.1238C162.807 93.729 157.09 104.616 153.649 112.55C137.891 112.675 124.056 115.662 113.994 122.619C101.546 131.226 94.4255 143.58 90.5482 155.184C85.1539 171.328 85.3442 184.196 85.9066 192.353C80.1047 196.812 72.4044 203.654 65.4944 215.397C55.6915 232.056 53.1992 258.14 69.8437 284.327C66.7374 290.536 63.3507 299.304 63.6305 311.318C63.8587 321.119 68.2125 333.034 78.4508 340.776C88.689 348.517 102.892 352.13 122.327 352.233H122.363H400.24L399.838 54.6213L395.817 50.5279C379.194 33.587 361.238 25.0533 344.193 23.3177ZM341.36 51.2589C350.383 52.1776 360.527 56.9182 371.787 67.1025L372.134 324.164H122.491H122.418C106.62 324.067 98.6175 320.83 95.3909 318.39C92.1579 315.945 91.7853 314.345 91.6995 310.66C91.5278 303.289 97.7117 291.582 97.7117 291.582L103.121 283.048L96.7431 275.208C79.0105 253.433 82.9969 240.975 89.6711 229.632C96.3453 218.29 107.653 210.993 107.653 210.993L115.492 206.169L114.195 197.068C114.195 197.068 112.085 179.293 117.174 164.065C119.718 156.451 123.678 150.065 129.965 145.718C136.252 141.371 145.543 138.328 161.635 140.016L173.275 141.241L176.564 130.02C176.564 130.02 181.096 115.102 194.345 102.408C207.594 89.7138 227.849 78.8515 266.857 89.3604L276.104 91.8639L281.787 84.1523C281.787 84.1523 294.562 67.393 312.524 57.8193C321.505 53.0324 331.228 50.2271 341.36 51.2589ZM445.724 0.968506C427.799 1.00504 410.598 8.14524 397.937 20.8325V20.8507C385.276 33.5388 378.164 50.7314 378.164 68.6558V331.054H75.0701L75.3807 331.072C65.6413 330.644 55.9069 332.19 46.7817 335.622C37.6568 339.055 29.3192 344.305 22.2761 351.046C15.233 357.786 9.64058 365.872 5.81117 374.839C1.98185 383.804 0 393.451 0 403.2C0 412.95 1.98185 422.596 5.81117 431.561C9.6405 440.527 15.2327 448.632 22.2761 455.373C29.3192 462.113 37.6568 467.364 46.7817 470.796C55.9061 474.227 65.6408 475.774 75.3807 475.346H77.4091L114.012 671.208L117.411 689.665C121.724 713.042 134.078 734.178 152.333 749.403C170.587 764.628 193.6 772.985 217.371 773.031H682.136C705.907 772.986 728.919 764.628 747.174 749.403C765.418 734.187 777.758 713.062 782.077 689.702L785.97 671.957L822.591 475.967H824.619C834.359 476.395 844.094 474.85 853.218 471.417C862.343 467.985 870.68 462.734 877.724 455.994C884.767 449.253 890.359 441.166 894.189 432.201C898.018 423.236 900 413.588 900 403.84C900 394.09 898.018 384.443 894.189 375.478V375.459C890.359 366.495 884.767 358.407 877.724 351.667C870.68 344.927 862.343 339.676 853.218 336.243C845.441 333.318 837.128 332.5 828.841 332.369L827.799 331.054H824.437H521.324V68.6558C521.324 50.7314 514.212 33.5388 501.551 20.8507V20.8325C488.89 8.14524 471.707 1.00504 453.783 0.968506H445.724ZM445.724 15.003H453.764C467.97 15.0368 481.575 20.6997 491.61 30.7553C501.65 40.8163 507.289 54.4431 507.289 68.6558V345.088H821.056L821.677 345.874L825.241 345.71C833.087 345.365 840.915 346.618 848.266 349.383C855.617 352.148 862.345 356.378 868.02 361.809C873.694 367.239 878.201 373.755 881.287 380.979C884.372 388.202 885.965 395.984 885.965 403.84C885.965 411.694 884.372 419.459 881.287 426.682C878.201 433.906 873.694 440.421 868.02 445.852C862.345 451.282 855.617 455.513 848.266 458.278C840.916 461.043 833.088 462.296 825.241 461.951L825.094 461.932H810.95L772.209 669.161L768.317 686.996L768.298 687.124C764.579 707.282 753.924 725.492 738.182 738.621C722.446 751.745 702.609 758.952 682.117 758.996H217.388H217.37C196.878 758.952 177.059 751.745 161.323 738.621C145.581 725.492 134.926 707.282 131.207 687.124L127.809 668.65L89.068 461.312H74.9056H74.7594C66.9129 461.656 59.086 460.421 51.734 457.657C44.3827 454.892 37.6542 450.661 31.9797 445.23C26.3056 439.8 21.7979 433.284 18.7127 426.061C15.6275 418.838 14.0345 411.055 14.0345 403.2C14.0345 395.346 15.6275 387.58 18.7127 380.357C21.7978 373.134 26.3054 366.6 31.9797 361.17C37.6542 355.739 44.3827 351.527 51.734 348.761C59.0852 345.996 66.9124 344.743 74.7594 345.088H74.9056H392.199V68.6558C392.199 54.4431 397.839 40.8163 407.878 30.7553C417.913 20.6997 431.518 15.0368 445.724 15.003ZM445.724 17.1776C438.962 17.1616 432.276 18.4727 426.024 21.0518C419.768 23.6331 414.072 27.432 409.285 32.2172C404.5 37.0035 400.719 42.6818 398.138 48.938C395.557 55.1954 394.227 61.906 394.246 68.6741V345.088H505.243V68.6741V68.6558C505.259 61.8939 503.948 55.1898 501.369 48.938C498.787 42.6818 494.988 37.0035 490.203 32.2172C485.417 27.4324 479.74 23.6333 473.482 21.0518C467.23 18.4727 460.526 17.1616 453.764 17.1776H445.742H445.724ZM445.705 31.2122H445.724H453.783C458.703 31.1988 463.581 32.1504 468.128 34.0264C472.675 35.9022 476.801 38.6614 480.28 42.1401C483.759 45.6192 486.518 49.7458 488.394 54.2924C490.27 58.8397 491.222 63.7177 491.208 68.6375V331.054H408.28V68.6375C408.267 63.7177 409.237 58.8397 411.113 54.2924H411.094C412.97 49.7458 415.729 45.6192 419.208 42.1401C422.687 38.6618 426.832 35.9023 431.378 34.0264C435.926 32.1504 440.785 31.1988 445.705 31.2122V31.2122ZM75.0701 347.263C67.7147 347.247 60.4162 348.678 53.6162 351.484C46.8116 354.293 40.6397 358.429 35.4335 363.637C30.2274 368.842 26.0898 375.014 23.2812 381.819C20.4773 388.613 19.0458 395.905 19.0599 403.255C19.0599 403.261 19.0599 403.267 19.0599 403.274C19.0599 403.28 19.0599 403.286 19.0599 403.292C19.0458 410.642 20.4773 417.916 23.2812 424.709C26.0898 431.515 30.2274 437.705 35.4335 442.911C40.6397 448.118 46.8116 452.236 53.6162 455.045C60.4162 457.851 67.7147 459.282 75.0701 459.266H345.289L253.096 347.263H75.0883H75.0701ZM255.746 347.263L412.867 540.164C417.289 545.699 422.893 550.16 429.277 553.23C435.662 556.302 442.659 557.909 449.744 557.909C456.829 557.909 463.826 556.302 470.211 553.23C476.572 550.171 482.17 545.726 486.585 540.219L486.603 540.183L643.761 347.263H393.222L255.746 347.263ZM646.392 347.263L554.912 459.265H824.437C839.287 459.265 853.536 453.374 864.037 442.873C874.536 432.372 880.428 418.123 880.428 403.273C880.428 388.423 874.536 374.174 864.037 363.673C853.536 353.172 839.287 347.263 824.437 347.263H646.392ZM75.0518 361.297H246.481L315.557 445.23H75.0518C69.538 445.244 64.0667 444.172 58.9706 442.069C53.8738 439.965 49.2542 436.885 45.3563 432.987C41.4582 429.089 38.3591 424.45 36.2558 419.354C34.1526 414.258 33.0802 408.804 33.0944 403.291V403.273V403.254C33.0802 397.74 34.1526 392.269 36.2558 387.173C38.3591 382.076 41.4582 377.456 45.3563 373.558C49.2542 369.66 53.8738 366.562 58.9706 364.458C64.0667 362.355 69.538 361.283 75.0518 361.297V361.297ZM285.295 361.297H393.222H614.211L475.693 531.375L475.675 531.393C472.567 535.283 468.611 538.428 464.125 540.585C459.638 542.744 454.723 543.875 449.744 543.875C444.765 543.875 439.849 542.744 435.362 540.585C430.876 538.428 426.939 535.283 423.831 531.393L423.812 531.375L285.295 361.297ZM653.044 361.297H824.437C835.57 361.297 846.241 365.723 854.114 373.596C861.986 381.469 866.394 392.139 866.394 403.273C866.394 414.406 861.986 425.077 854.114 432.95C846.241 440.823 835.57 445.23 824.437 445.23H584.497L653.044 361.297ZM91.2609 461.312L107.287 548.443H284.747H284.802C284.921 548.441 285.042 548.473 285.15 548.516C285.232 548.548 285.299 548.605 285.369 548.662C285.576 548.887 285.686 549.163 285.698 549.466C285.671 549.725 285.576 549.972 285.387 550.16C285.174 550.373 284.898 550.485 284.602 550.489H107.58L129.143 667.407H368.114C368.388 667.407 368.632 667.505 368.826 667.699C369.02 667.893 369.119 668.138 369.119 668.412C369.119 668.687 369.02 668.95 368.826 669.143C368.632 669.338 368.388 669.436 368.114 669.436H129.947L133.109 686.65C136.747 706.355 147.163 724.175 162.548 737.013C177.934 749.852 197.315 756.9 217.352 756.95H217.371H682.063C702.123 757.1 721.605 750.19 737.087 737.434C752.569 724.678 763.073 706.88 766.764 687.161L769.925 669.947H531.393C531.118 669.947 530.857 669.831 530.662 669.637C530.469 669.443 530.37 669.199 530.37 668.924C530.37 668.649 530.469 668.386 530.662 668.193C530.857 667.998 531.118 667.9 531.393 667.9H770.363L791.909 550.489H614.906C614.609 550.485 614.315 550.373 614.102 550.16C613.903 549.962 613.809 549.704 613.791 549.429C613.81 549.137 613.921 548.877 614.12 548.662C614.191 548.605 614.274 548.549 614.357 548.516C614.465 548.473 614.568 548.441 614.686 548.443H614.742H792.201L793.28 542.705L808.374 461.312H553.157L488.284 541.48C483.478 547.223 477.446 551.807 470.613 554.875L470.558 554.912L470.503 554.93C463.874 558.051 456.631 559.663 449.305 559.663C441.991 559.663 434.781 558.058 428.162 554.949L428.125 554.93C421.574 551.775 415.805 547.213 411.24 541.553L346.33 461.312L91.2609 461.312ZM108.11 475.346H339.643L400.331 550.361C406.214 557.656 413.649 563.554 422.095 567.612H422.114L422.151 567.631C430.649 571.631 439.913 573.698 449.306 573.698C458.679 573.698 467.941 571.633 476.425 567.649C485.185 563.704 492.943 557.826 499.103 550.453L499.139 550.417L559.864 475.347H791.507L780.524 534.409H614.887C612.917 534.381 610.963 534.753 609.131 535.487C607.301 536.219 605.639 537.309 604.234 538.685L604.197 538.721L604.142 538.776C601.34 541.62 599.758 545.439 599.738 549.43V549.503V549.576C599.797 553.522 601.392 557.295 604.178 560.084C606.967 562.871 610.74 564.465 614.686 564.524H614.741H775.06L758.668 653.866H531.393C527.403 653.866 523.561 655.448 520.739 658.27C517.918 661.091 516.335 664.934 516.335 668.924C516.335 672.914 517.918 676.756 520.739 679.578C523.561 682.399 527.403 683.982 531.393 683.982H753.076L752.966 684.585C749.881 701.07 741.112 715.952 728.169 726.615C715.226 737.28 698.943 743.041 682.173 742.916H682.154H217.388H217.37C200.61 742.87 184.407 736.97 171.538 726.231C158.665 715.489 149.949 700.598 146.905 684.11L146.795 683.47H368.114C372.104 683.47 375.928 681.888 378.749 679.066C381.571 676.245 383.153 672.402 383.153 668.412C383.153 664.422 381.571 660.598 378.749 657.777C375.928 654.955 372.104 653.373 368.114 653.373H140.82L124.447 564.524H284.765H284.802C288.748 564.465 292.521 562.87 295.31 560.083C298.096 557.295 299.691 553.521 299.75 549.576L299.769 549.503L299.75 549.447C299.731 545.452 298.147 541.618 295.346 538.775L295.31 538.72L295.273 538.684C293.868 537.309 292.188 536.219 290.357 535.486C288.525 534.753 286.571 534.38 284.601 534.408H118.964L108.11 475.346ZM824.431 452.253H569.703L649.714 354.28H824.431C837.423 354.28 849.883 359.441 859.07 368.628C868.256 377.815 873.417 390.275 873.417 403.267C873.417 416.258 868.256 428.718 859.07 437.905C849.883 447.092 837.423 452.253 824.431 452.253V452.253ZM824.431 338.078H514.31V68.6532C514.31 52.5847 507.936 37.1729 496.586 25.7984C485.236 14.4248 469.837 8.01851 453.768 7.98576H445.73C429.662 8.01851 414.263 14.4248 402.913 25.7984C391.563 37.1729 385.188 52.5847 385.188 68.6532V338.078H75.0675C66.2743 337.691 57.494 339.089 49.2558 342.188C41.0177 345.287 33.4923 350.022 27.1336 356.107C20.7748 362.193 15.7142 369.503 12.2569 377.598C8.79964 385.692 7.01726 394.402 7.01726 403.203C7.01726 412.006 8.79964 420.716 12.2569 428.81C15.7142 436.904 20.7748 444.215 27.1336 450.3C33.4923 456.386 41.0177 461.121 49.2558 464.22C57.494 467.318 66.2743 468.717 75.0675 468.33H83.2318L120.914 669.928L124.305 688.391C128.321 710.159 139.826 729.835 156.824 744.012C173.822 758.189 195.244 765.973 217.378 766.016H682.12C704.254 765.973 725.677 758.189 742.674 744.012C759.673 729.835 771.178 710.159 775.193 688.391L779.087 670.555L816.769 468.958H824.934C833.727 469.344 842.508 467.947 850.745 464.848C858.983 461.749 866.509 457.014 872.868 450.928C879.227 444.843 884.287 437.533 887.745 429.439C891.202 421.344 892.984 412.634 892.984 403.832C892.984 395.03 891.202 386.32 887.745 378.226C884.287 370.132 879.227 362.82 872.868 356.735C866.509 350.65 858.983 345.914 850.745 342.816C842.508 339.718 833.727 338.319 824.934 338.705L824.431 338.078ZM401.265 68.6532C401.249 62.8093 402.388 57.0196 404.617 51.6172C406.845 46.2158 410.12 41.3075 414.252 37.1748C418.385 33.043 423.293 29.7683 428.694 27.5396C434.097 25.3109 439.886 24.1722 445.73 24.1881H453.768C459.612 24.1722 465.402 25.3109 470.804 27.5396C476.207 29.7683 481.114 33.043 485.247 37.1748C489.379 41.3075 492.653 46.2158 494.882 51.6172C497.111 57.0196 498.249 62.8093 498.233 68.6532V338.078H401.265V68.6532ZM393.227 354.28H628.988L481.151 535.781C477.386 540.493 472.607 544.298 467.172 546.912C461.736 549.527 455.782 550.885 449.75 550.885C443.718 550.885 437.762 549.527 432.326 546.912C426.891 544.298 422.113 540.493 418.348 535.781L270.51 354.28H393.227ZM26.0812 403.267C26.0646 396.829 27.3204 390.452 29.7763 384.501C32.2322 378.55 35.8399 373.143 40.392 368.591C44.944 364.039 50.3509 360.432 56.3016 357.976C62.2524 355.52 68.6298 354.264 75.0675 354.28H249.785L330.424 452.253H75.0675C68.6298 452.269 62.2524 451.013 56.3016 448.557C50.3509 446.101 44.944 442.494 40.392 437.942C35.8399 433.39 32.2322 427.983 29.7763 422.032C27.3204 416.081 26.0646 409.704 26.0812 403.267ZM786.372 541.433H614.795C613.751 541.418 612.713 541.61 611.743 541.998C610.772 542.387 609.889 542.963 609.143 543.694C607.624 545.235 606.768 547.308 606.757 549.472C606.789 551.593 607.647 553.62 609.146 555.121C610.647 556.62 612.674 557.478 614.795 557.51H783.484L764.517 660.884H531.393C529.261 660.884 527.217 661.73 525.708 663.239C524.201 664.746 523.354 666.79 523.354 668.923C523.354 671.055 524.201 673.099 525.708 674.607C527.217 676.115 529.261 676.962 531.393 676.962H761.502L759.87 685.879C756.482 703.981 746.838 720.315 732.625 732.025C718.413 743.735 700.535 750.076 682.12 749.938H217.378C198.976 749.892 181.168 743.414 167.038 731.623C152.909 719.833 143.346 703.474 140.005 685.377L138.372 676.459H368.105C370.238 676.459 372.282 675.612 373.79 674.104C375.298 672.597 376.144 670.553 376.144 668.42C376.144 666.288 375.298 664.244 373.79 662.736C372.282 661.228 370.238 660.381 368.105 660.381H134.982L116.015 557.51H284.704C286.825 557.478 288.852 556.62 290.352 555.121C291.852 553.62 292.71 551.593 292.742 549.472C292.732 547.308 291.875 545.235 290.356 543.694C289.609 542.963 288.726 542.387 287.756 541.998C286.786 541.61 285.748 541.418 284.704 541.433H113.126L99.6859 468.33H342.985L405.787 545.955C411.015 552.437 417.624 557.672 425.13 561.279C432.694 564.839 440.95 566.685 449.31 566.685C457.669 566.685 465.925 564.839 473.489 561.279C481.304 557.769 488.219 552.529 493.711 545.955L556.514 468.33H799.938L786.372 541.433Z" fill="black"/>
</svg>
