<?xml version="1.0" encoding="UTF-8" standalone="no"?>
<svg
   width="1000"
   height="1000"
   viewBox="0 0 999.99999 1000"
   fill="none"
   version="1.1"
   id="svg144"
   sodipodi:docname="parametres.svg"
   inkscape:version="1.2.1 (9c6d41e, 2022-07-14)"
   xmlns:inkscape="http://www.inkscape.org/namespaces/inkscape"
   xmlns:sodipodi="http://sodipodi.sourceforge.net/DTD/sodipodi-0.dtd"
   xmlns="http://www.w3.org/2000/svg"
   xmlns:svg="http://www.w3.org/2000/svg">
  <sodipodi:namedview
     id="namedview5650"
     pagecolor="#ffffff"
     bordercolor="#111111"
     borderopacity="1"
     inkscape:showpageshadow="0"
     inkscape:pageopacity="0"
     inkscape:pagecheckerboard="1"
     inkscape:deskcolor="#d1d1d1"
     showgrid="false"
     inkscape:zoom="1"
     inkscape:cx="47.5"
     inkscape:cy="47"
     inkscape:window-width="1309"
     inkscape:window-height="456"
     inkscape:window-x="331"
     inkscape:window-y="1165"
     inkscape:window-maximized="0"
     inkscape:current-layer="svg144" />
  <defs
     id="defs148" />
  <g
     id="g2020"
     transform="matrix(9.6310984,0,0,9.6310984,50.000001,49.980412)">
    <g
       id="path140" />
    <g
       id="path142">
      <path
         id="path2044"
         style="color:#000000;fill:#000000;stroke-miterlimit:10;-inkscape-stroke:none"
         d="m 51.283203,21.271484 c -2.744248,-6.46e-4 -5.462427,0.540195 -7.998047,1.589844 -2.535675,1.049627 -4.83838,2.589243 -6.779297,4.529297 h -0.002 l -0.002,0.002 c -0.498398,0.501595 -0.777902,1.183593 -0.775391,1.890625 0.0023,0.706988 0.285163,1.38452 0.78711,1.882813 0.501595,0.498398 1.181948,0.777672 1.888672,0.77539 h 0.002 c 0.706678,-0.0025 1.384545,-0.285417 1.882812,-0.787109 l 0.002,-0.0039 0.0039,-0.0039 c 1.43033,-1.456761 3.134577,-2.614878 5.015625,-3.408203 1.879198,-0.792636 3.897899,-1.204559 5.9375,-1.21289 h 0.117187 c 3.066928,0.0041 6.063337,0.913939 8.615235,2.615234 2.55232,1.701547 4.545257,4.119049 5.728515,6.949219 1.183355,2.830181 1.503563,5.947016 0.921875,8.958984 -0.581597,3.011883 -2.039434,5.784616 -4.191406,7.970703 l -0.132813,0.132813 c -0.252237,0.242667 -0.455036,0.532897 -0.595703,0.855468 -0.139814,0.320725 -0.216244,0.667228 -0.222656,1.017579 -0.0064,0.351351 0.05653,0.70046 0.185547,1.027343 0.127426,0.323432 0.31674,0.617085 0.556641,0.867188 6.31e-4,6.62e-4 0.0013,0.0013 0.002,0.002 0.243631,0.255053 0.535338,0.460817 0.859375,0.601562 v -0.002 c 0.324143,0.140892 0.673121,0.216521 1.02539,0.220703 0.700579,0.009 1.379594,-0.257742 1.886719,-0.742187 l 0.01172,-0.01172 0.03906,-0.03906 c 1.940894,-1.940032 3.480436,-4.242203 4.53125,-6.777344 1.050839,-2.53509 1.591151,-5.251841 1.591797,-7.996094 6.47e-4,-2.744248 -0.538252,-5.462346 -1.58789,-7.998047 -1.049536,-2.535605 -2.589243,-4.840333 -4.529297,-6.78125 -1.940063,-1.941032 -4.242326,-3.480441 -6.777344,-4.53125 -2.535171,-1.050827 -5.253794,-1.593103 -7.998047,-1.59375 z M 64.13421,56.24184 c 0.3092,0.0042 0.6077,-0.113 0.8313,-0.3266 l 0.026,-0.026 c 1.8016,-1.8008 3.2309,-3.9388 4.2063,-6.292 0.9754,-2.3531 1.4777,-4.8754 1.4783,-7.4227 6e-4,-2.5473 -0.5005,-5.0698 -1.4748,-7.4235 -0.9742,-2.3536 -2.4025,-4.4923 -4.2033,-6.2939 -1.8008,-1.8017 -3.9389,-3.231 -6.292,-4.2064 -2.3532,-0.9754 -4.8755,-1.4777 -7.4228,-1.4783 -2.5473,-6e-4 -5.0698,0.5005 -7.4234,1.4748 -2.3537,0.9743 -4.4924,2.4026 -6.294,4.2034 -0.2183,0.2197 -0.3403,0.5171 -0.3392,0.8268 10e-4,0.3097 0.125,0.6063 0.3448,0.8245 0.2197,0.2183 0.5171,0.3403 0.8268,0.3393 0.3097,-0.0011 0.6063,-0.1251 0.8245,-0.3448 1.5693,-1.5983 3.44,-2.8694 5.5038,-3.7398 2.0638,-0.8705 4.2798,-1.3229 6.5197,-1.3312 h 0.1168 c 3.363,0.0041 6.6498,1.0015 9.448,2.867 2.7981,1.8654 4.9829,4.5158 6.2801,7.6185 1.2973,3.1027 1.6492,6.5194 1.0115,9.8214 -0.6376,3.3019 -2.2363,6.342 -4.5955,8.7386 l -0.1633,0.1614 c -0.1107,0.1065 -0.1994,0.2337 -0.2608,0.3745 -0.0615,0.1408 -0.0946,0.2924 -0.0973,0.446 -0.0028,0.1535 0.0248,0.3062 0.0812,0.4491 0.0563,0.1429 0.1404,0.2733 0.2472,0.3836 0.106,0.1112 0.2331,0.2 0.374,0.2612 0.1408,0.0612 0.2926,0.0935 0.4461,0.0951 z M 46.722656,0 c -1.511681,0.0019928 -2.962301,0.60485227 -4.03125,1.6738281 -1.068914,1.0689554 -1.671795,2.5196045 -1.673828,4.03125 v 4.7851559 0.0059 c 5.83e-4,0.06985 -0.02045,0.138491 -0.06055,0.195312 -0.04001,0.0567 -0.09661,0.09842 -0.162109,0.121094 l 0.01367,-0.0039 c -1.464103,0.49079 -2.890579,1.08248 -4.271485,1.773437 -0.06269,0.03115 -0.133853,0.04293 -0.203125,0.03125 -0.06953,-0.01174 -0.132558,-0.04562 -0.18164,-0.0957 l -0.0039,-0.0059 -3.394531,-3.3925784 -0.0039,-0.00391 c -1.072118,-1.0608779 -2.520939,-1.65625 -4.029297,-1.65625 -1.508358,0 -2.957179,0.5953721 -4.029297,1.65625 l -0.002,0.00391 -6.447266,6.4492184 -0.002,0.002 c -1.068308,1.069935 -1.667968,2.521497 -1.667968,4.033203 0,1.511769 0.599582,2.963324 1.667968,4.033203 l 4.988282,4.996093 0.0059,0.0059 c 0.252193,0.247557 0.551329,0.440729 0.880859,0.570312 0.323785,0.127324 0.670192,0.184684 1.017578,0.177735 0.515704,-0.006 1.021729,-0.156905 1.451172,-0.44336 0.433921,-0.289661 0.775765,-0.700796 0.978516,-1.18164 v -0.002 c 0.202465,-0.48117 0.257937,-1.012712 0.162109,-1.525391 -0.09591,-0.513119 -0.340276,-0.985684 -0.703125,-1.361328 l -0.0078,-0.0098 -5,-4.992187 c -0.06918,-0.07039 -0.107422,-0.162981 -0.107422,-0.261719 0,-0.09856 0.03824,-0.191327 0.107422,-0.261719 l 0.002,-0.002 6.445312,-6.443359 0.002,-0.002 c 0.06993,-0.06878 0.163515,-0.107422 0.261718,-0.107422 0.09891,0 0.191678,0.03951 0.261719,0.109375 l 3.386719,3.378906 c 0.838963,0.846854 1.925061,1.405997 3.101562,1.599609 1.176305,0.193444 2.384908,0.01212 3.451172,-0.521484 v -0.002 c 1.155323,-0.578417 2.34933,-1.074509 3.574159,-1.4862 h 0.002 c 1.127223,-0.380321 2.107474,-1.106215 2.798828,-2.074219 0.691385,-0.968183 1.058991,-2.130559 1.052735,-3.320312 V 5.7070312 c 10e-5,-0.09917 0.03928,-0.1916406 0.109375,-0.2617187 0.06961,-0.069625 0.163251,-0.1087922 0.261718,-0.109375 h 9.115235 c 0.09825,6.827e-4 0.190303,0.039835 0.259765,0.109375 0.06997,0.070026 0.109275,0.1625191 0.109375,0.2617187 v 4.7695318 c -0.0056,1.189719 0.363081,2.352334 1.054688,3.320312 0.691735,0.968103 1.671479,1.694084 2.798828,2.074219 h 0.002 c 1.224704,0.411333 2.419132,0.907599 3.574219,1.486328 l 0.002,0.002 0.002,0.002 c 1.065617,0.529478 2.271191,0.708933 3.445313,0.515625 1.172234,-0.192975 2.256502,-0.749021 3.095703,-1.589844 l 0.0039,-0.0039 3.386719,-3.380859 c 0.07014,-0.06996 0.164583,-0.109375 0.263672,-0.109375 0.09891,0 0.191379,0.03924 0.261718,0.109375 l 6.445313,6.443359 c 0.07037,0.07059 0.109375,0.164223 0.109375,0.263672 0,0.09963 -0.039,0.193078 -0.109375,0.263672 l -3.384766,3.392578 c -0.843457,0.838853 -1.40053,1.921854 -1.59375,3.095703 -0.193375,1.175617 -0.01266,2.383063 0.519531,3.449219 l 0.002,0.002 c 0.578777,1.1549 1.074995,2.349515 1.486328,3.574219 v 0.002 h 0.002 c 0.379182,1.122858 1.101575,2.100137 2.064453,2.791015 0.962862,0.690634 2.117484,1.061091 3.302734,1.060547 h 4.796875 c 0.0985,5.88e-4 0.190155,0.03976 0.259766,0.109375 0.07024,0.07024 0.109275,0.164466 0.109375,0.263672 v 9.109375 c -1e-4,0.09921 -0.03914,0.191483 -0.109375,0.261719 -0.07006,0.07006 -0.162512,0.109275 -0.261719,0.109375 h -4.771484 -0.0039 c -1.186474,-0.0023 -2.343032,0.367186 -3.308594,1.056641 -0.966704,0.690308 -1.693646,1.666403 -2.076172,2.791015 v 0.0039 l -0.002,0.002 c -0.411352,1.225328 -0.907507,2.420521 -1.486328,3.576171 v 0.002 h -0.002 c -0.531143,1.06555 -0.71308,2.272509 -0.519532,3.447265 0.193402,1.17469 0.752937,2.258649 1.597657,3.097656 l -0.0059,-0.0039 3.384766,3.394531 c 0.07014,0.07034 0.109375,0.164763 0.109375,0.263672 0,0.09909 -0.03924,0.19138 -0.109375,0.261719 l -6.445313,6.445313 c -0.0705,0.07018 -0.164135,0.107421 -0.263672,0.107421 -0.09865,0 -0.19144,-0.03648 -0.261718,-0.105468 l -0.002,-0.002 -4.960938,-4.962891 C 68.366979,66.2127 68.073254,66.008532 67.748047,65.867187 67.423169,65.725986 67.073431,65.650395 66.71875,65.646484 h -0.0078 -0.01563 c -0.52725,-0.005 -1.04464,0.146567 -1.486328,0.435547 -0.441972,0.288938 -0.787458,0.701741 -0.99414,1.1875 -0.206958,0.485871 -0.263669,1.022862 -0.166016,1.541016 0.09783,0.51811 0.346715,0.995878 0.716797,1.373047 l 0.0039,0.0039 0.03711,0.03711 4.99414,4.986328 c 1.070268,1.066743 2.522165,1.666016 4.033203,1.666016 1.510974,0 2.962891,-0.599228 4.033203,-1.666016 l 6.449219,-6.447265 0.002,-0.002 c 1.06674,-1.070535 1.666016,-2.521882 1.666016,-4.033203 0,-1.511322 -0.599276,-2.962668 -1.666016,-4.033204 h -0.002 l -3.388672,-3.394531 -0.0039,-0.0039 c -0.05018,-0.04943 -0.08389,-0.114154 -0.0957,-0.183594 -0.01184,-0.06957 -0.0015,-0.140276 0.0293,-0.203125 0.690699,-1.378594 1.28343,-2.803544 1.773437,-4.265625 l -0.0059,0.01758 c 0.02438,-0.06973 0.06873,-0.129168 0.128906,-0.171875 0.05982,-0.04246 0.131765,-0.06602 0.205078,-0.06641 l 4.783203,0.0059 h 0.002 c 1.51186,-0.0019 2.962374,-0.604952 4.03125,-1.673828 1.069108,-1.068972 1.669841,-2.51963 1.671875,-4.03125 v -9.115234 -0.002 c -0.0014,-1.512064 -0.602768,-2.963689 -1.671875,-4.033203 -1.069007,-1.069414 -2.519104,-1.671795 -4.03125,-1.673828 h -0.002 -4.789062 -0.0098 c -0.06761,9.16e-4 -0.132371,-0.01775 -0.1875,-0.05664 -0.05549,-0.03918 -0.09556,-0.09465 -0.117187,-0.158203 l 0.002,0.0098 C 82.151962,30.229976 81.560414,28.800286 80.87108,27.417951 l 0.0039,0.0059 c -0.03163,-0.06415 -0.04311,-0.136779 -0.03125,-0.207031 0.01189,-0.0705 0.04682,-0.133463 0.09766,-0.183594 l 0.002,-0.0039 3.396485,-3.390625 0.002,-0.002 c 1.062772,-1.069686 1.660156,-2.517361 1.660156,-4.025391 0,-1.508029 -0.597339,-2.95566 -1.660156,-4.02539 l -0.002,-0.002 L 77.875,9.1230469 h -0.002 c -1.070241,-1.066716 -2.520158,-1.6660157 -4.03125,-1.6660157 -1.511092,0 -2.962963,0.5992997 -4.033203,1.6660157 l -3.390625,3.3886721 -0.0039,0.0039 c -0.04971,0.05039 -0.113784,0.08382 -0.183593,0.0957 -0.06986,0.01189 -0.141668,0.0017 -0.205078,-0.0293 -1.376123,-0.688899 -2.798837,-1.279772 -4.257813,-1.769531 -0.06636,-0.02258 -0.123595,-0.06595 -0.164062,-0.123047 -0.04048,-0.05711 -0.06123,-0.123544 -0.06055,-0.193359 v -0.0078 -4.7832029 c -0.002,-1.5116455 -0.602961,-2.9622946 -1.671875,-4.03125 h -0.002 C 58.80018,0.60497567 57.349637,0.00199271 55.837891,0 Z M 87.74151,50.92964 c 1.1152,-0.0014 2.1842,-0.4451 2.9727,-1.2336 0.7886,-0.7885 1.2322,-1.8576 1.2337,-2.9727 v -9.1141 c -10e-4,-1.1154 -0.4444,-2.185 -1.233,-2.9739 -0.7886,-0.7889 -1.8579,-1.2328 -2.9734,-1.2343 h -4.7778 c -0.3838,0.0052 -0.7594,-0.1111 -1.0731,-0.3324 -0.3136,-0.2214 -0.5492,-0.5362 -0.6729,-0.8996 -0.4664,-1.3986 -1.0306,-2.7627 -1.6885,-4.082 -0.1709,-0.3466 -0.2283,-0.7382 -0.164,-1.1192 0.0643,-0.3811 0.247,-0.7322 0.5221,-1.0035 l 3.39,-3.3844 c 0.784,-0.7891 1.2241,-1.8563 1.2241,-2.9687 0,-1.1124 -0.4401,-2.1797 -1.2241,-2.9688 l -6.4626,-6.457 c -0.7895,-0.7869 -1.8587,-1.22876 -2.9734,-1.22876 -1.1147,0 -2.1839,0.44186 -2.9734,1.22876 l -3.3862,3.3844 c -0.2704,0.2741 -0.6201,0.4563 -0.9996,0.5209 -0.3796,0.0646 -0.7699,0.0083 -1.1157,-0.161 -1.3191,-0.6611 -2.6831,-1.2284 -4.082,-1.6977 -0.3649,-0.1242 -0.6813,-0.3603 -0.9042,-0.6748 -0.2229,-0.3145 -0.3409,-0.6913 -0.3371,-1.0768 V 5.70634 C 60.04161,4.5912 59.59801,3.52216 58.80951,2.73363 58.02091,1.94511 56.95191,1.50147 55.83671,1.5 h -9.1122 c -1.1151,0.00147 -2.1842,0.44511 -2.9727,1.23363 -0.7885,0.78853 -1.2321,1.85757 -1.2336,2.97271 v 4.7778 c 0.0032,0.3834 -0.1139,0.7581 -0.335,1.0714 -0.221,0.3132 -0.5348,0.5492 -0.897,0.6746 -1.3988,0.4689 -2.7629,1.0356 -4.0821,1.6959 -0.3463,0.1721 -0.7382,0.2301 -1.1195,0.1658 -0.3813,-0.0644 -0.7324,-0.2477 -1.0031,-0.5239 l -3.3863,-3.3862 c -0.7917,-0.7834 -1.8605,-1.22286 -2.9743,-1.22286 -1.1138,0 -2.1826,0.43946 -2.9743,1.22286 l -6.444,6.4477 c -0.7879,0.7891 -1.2303,1.8585 -1.2303,2.9734 0,1.115 0.4424,2.1844 1.2303,2.9734 l 4.9819,4.9912 c 0.1088,0.1068 0.2379,0.1906 0.3798,0.2464 0.1419,0.0558 0.2935,0.0824 0.4459,0.0783 0.2285,-0.0012 0.4517,-0.0695 0.6418,-0.1965 0.1901,-0.1269 0.3387,-0.3068 0.4274,-0.5175 0.0888,-0.2106 0.1137,-0.4427 0.0717,-0.6674 -0.042,-0.2247 -0.149,-0.4321 -0.3078,-0.5965 l -4.9894,-4.9819 c -0.3501,-0.3513 -0.5467,-0.827 -0.5467,-1.323 0,-0.4959 0.1966,-0.9716 0.5467,-1.3229 l 6.4478,-6.4459 c 0.3509,-0.35 0.8263,-0.5466 1.322,-0.5466 0.4956,0 0.9711,0.1966 1.322,0.5466 l 3.3937,3.3844 c 0.6167,0.6225 1.4143,1.0344 2.279,1.1767 0.8647,0.1422 1.7522,0.0077 2.5359,-0.3845 1.218,-0.6099 2.4773,-1.1338 3.7685,-1.5678 0.8287,-0.2796 1.5483,-0.8132 2.0566,-1.5249 0.5083,-0.7118 0.7794,-1.5656 0.7748,-2.4403 v -4.7778 c 5e-4,-0.49588 0.1977,-0.97132 0.5484,-1.32196 0.3506,-0.35065 0.826,-0.54786 1.3219,-0.54835 h 9.116 c 0.4955,9.8e-4 0.9705,0.19841 1.3207,0.549 0.3503,0.35059 0.5472,0.82575 0.5477,1.32131 v 4.7778 c -0.0041,0.8748 0.2674,1.7287 0.7759,2.4404 0.5086,0.7118 1.2285,1.2453 2.0574,1.5248 1.2913,0.4337 2.5506,0.9576 3.7685,1.5678 0.7839,0.3895 1.6706,0.5226 2.5343,0.3804 0.8638,-0.1422 1.661,-0.5524 2.2788,-1.1726 l 3.3918,-3.3844 c 0.3509,-0.35 0.8263,-0.5466 1.322,-0.5466 0.4956,0 0.971,0.1966 1.322,0.5466 l 6.4477,6.4459 c 0.3502,0.3513 0.5468,0.827 0.5468,1.3229 0,0.496 -0.1966,0.9717 -0.5468,1.323 l -3.3862,3.3936 c -0.6218,0.6172 -1.0331,1.4148 -1.1754,2.2793 -0.1422,0.8645 -0.0082,1.7518 0.3831,2.5357 0.6103,1.2178 1.1342,2.4771 1.5679,3.7684 0.2788,0.8256 0.8096,1.5429 1.5176,2.0509 0.7081,0.5079 1.5576,0.781 2.429,0.7806 h 4.7964 c 0.4959,5e-4 0.9713,0.1977 1.3219,0.5483 0.3507,0.3507 0.5479,0.8261 0.5484,1.322 v 9.1122 c -5e-4,0.4959 -0.1977,0.9713 -0.5484,1.322 -0.3506,0.3506 -0.826,0.5478 -1.3219,0.5483 h -4.776 c -0.8741,-0.0023 -1.7269,0.2697 -2.4382,0.7776 -0.7114,0.508 -1.2454,1.2263 -1.5269,2.0539 -0.4337,1.2919 -0.9576,2.5518 -1.5679,3.7703 -0.3905,0.7834 -0.5241,1.67 -0.3818,2.5337 0.1422,0.8637 0.553,1.6606 1.1741,2.2775 l 3.3843,3.3955 c 0.35,0.351 0.5466,0.8264 0.5466,1.322 0,0.4957 -0.1966,0.9711 -0.5466,1.3221 l -6.4496,6.4477 c -0.3512,0.3496 -0.8265,0.5458 -1.322,0.5458 -0.4955,0 -0.9708,-0.1962 -1.322,-0.5458 l -4.9875,-4.9894 c -0.1065,-0.1116 -0.2342,-0.2008 -0.3757,-0.2623 -0.1415,-0.0615 -0.2939,-0.0941 -0.4481,-0.0958 h -0.0204 c -0.2312,-0.0022 -0.4578,0.0641 -0.6513,0.1907 -0.1935,0.1265 -0.3451,0.3076 -0.4356,0.5203 -0.0906,0.2127 -0.116,0.4475 -0.0732,0.6746 0.0429,0.2272 0.1521,0.4366 0.314,0.6016 l 0.0315,0.0316 4.9931,4.9838 c 0.7895,0.7869 1.8587,1.2287 2.9734,1.2287 1.1146,0 2.1839,-0.4418 2.9734,-1.2287 l 6.4477,-6.4459 c 0.787,-0.7898 1.2289,-1.8593 1.2289,-2.9743 0,-1.115 -0.4419,-2.1845 -1.2289,-2.9743 l -3.3844,-3.39 c -0.2743,-0.2702 -0.4567,-0.6199 -0.5213,-0.9995 -0.0646,-0.3796 -0.0082,-0.77 0.1614,-1.1157 0.6615,-1.319 1.2288,-2.683 1.6977,-4.0821 0.127,-0.3632 0.3638,-0.678 0.6776,-0.9007 0.3139,-0.2228 0.6892,-0.3424 1.074,-0.3424 z M 31.525391,47.09375 c -0.08149,-3.16e-4 -0.161666,0.0084 -0.242188,0.01367 -0.03226,0 -0.0046,0.0015 -0.03125,0.002 -0.04602,0.0034 -0.09306,0.0026 -0.138672,0.0078 -0.0066,0.0021 -0.107892,0.0066 -0.08008,0.0059 h -0.0039 -0.0039 c -0.37375,0.01189 -0.72115,0.03232 -1.056641,0.06641 h -0.0059 -0.0078 c -0.165821,0.01847 -0.350369,0.03976 -0.550781,0.06836 -0.53208,0.07062 -1.06048,0.169815 -1.582031,0.296875 l -0.0098,0.002 -0.0098,0.002 c -3.179143,0.823654 -5.997174,2.680779 -8.007812,5.277343 -2.010748,2.596675 -3.101847,5.788222 -3.103516,9.072266 -0.0017,3.284083 1.087637,6.475558 3.095703,9.074219 2.007987,2.598591 4.821702,4.458376 8,5.285156 l 0.09961,0.02539 0.08203,0.0098 c 0.544942,0.13328 1.09463,0.24154 1.650391,0.316407 l 0.0098,0.002 h 0.0098 c 0.35052,0.04263 0.673822,0.05698 0.96875,0.06836 l 0.205078,0.0098 h 0.03711 c -0.02954,0 0.01225,0.0025 0.148438,0.01563 0.142766,0.0137 0.322379,0.03125 0.539062,0.03125 0.404592,0 0.840556,-0.03011 1.306641,-0.07227 h 0.0039 0.03125 0.03125 c 0.156634,0 0.0367,-0.0025 0.08008,-0.0078 0.05597,-0.0068 0.237235,-0.01695 0.103516,-0.0078 l 0.189453,-0.01172 0.09375,-0.03125 c 0.344258,-0.04328 0.677738,-0.08961 1.003906,-0.154297 l 0.0098,-0.002 c 0.154848,-0.02907 0.264435,-0.05702 0.332031,-0.07227 l 0.0039,-0.002 0.150391,-0.03516 h 0.002 c 0.239631,-0.05613 0.543426,-0.12954 0.871094,-0.226562 0.229424,-0.06777 0.423843,-0.138231 0.591797,-0.197266 h 0.002 l 0.07617,-0.02734 0.01367,-0.0039 c 0.223822,-0.07686 0.447052,-0.159523 0.667968,-0.24414 0.188927,-0.07254 0.352889,-0.15001 0.503907,-0.22461 l 0.04297,-0.01953 0.136719,-0.0625 0.0059,-0.002 C 38.008205,75.242898 38.244843,75.129283 38.490234,75 l 0.103516,-0.04687 0.04883,-0.02539 c 1.487706,-0.802163 2.861351,-1.798206 4.087891,-2.960937 0.387418,-0.362544 0.725386,-0.774979 1.003906,-1.226563 0.0011,-0.0017 8.65e-4,-0.0041 0.002,-0.0059 1.272812,-2.034197 2.10876,-4.310438 2.451172,-6.685547 0.03949,-0.266952 0.08489,-0.604238 0.111328,-0.96875 0.02311,-0.317356 0.04043,-0.593086 0.04687,-0.875 V 62.1875 62.025391 61.921875 c 0,-0.1336 0.0033,-0.319752 -0.02539,-0.560547 l 0.0098,0.177734 c 0,-0.194291 -0.01279,-0.279828 -0.01367,-0.285156 v -0.0098 c -0.01777,-0.412319 -0.04671,-0.797169 -0.09375,-1.167969 -0.05785,-0.476802 -0.123585,-0.884178 -0.210937,-1.263672 -0.05252,-0.247228 -0.113739,-0.464959 -0.166016,-0.658203 l -0.002,-0.01172 -0.0332,-0.109375 c -0.09913,-0.366923 -0.209411,-0.690474 -0.294922,-0.960937 l -0.0078,-0.02539 -0.0098,-0.02344 c -0.07861,-0.221865 -0.157332,-0.438553 -0.238281,-0.652343 l -0.0059,-0.01367 -0.0059,-0.01563 c -0.201665,-0.500818 -0.434294,-0.987203 -0.689453,-1.462891 l -0.01563,-0.04102 -0.06055,-0.123047 -0.01758,-0.0293 C 44.041292,53.931453 43.550287,53.217766 43,52.550781 42.94806,52.485031 42.91092,52.442412 42.882812,52.412109 l -0.002,-0.0039 -0.04492,-0.05078 -0.0078,-0.0098 C 42.591928,52.06863 42.363011,51.819072 42.134766,51.587891 42.014015,51.46251 41.905986,51.357355 41.800781,51.257812 l -0.002,-0.002 -0.07813,-0.07422 -0.0078,-0.0059 C 41.562188,51.036592 41.405232,50.891337 41.246094,50.75 l -0.01953,-0.01563 -0.01953,-0.01563 c -0.168095,-0.139551 -0.360587,-0.307554 -0.599609,-0.488281 l -0.01172,-0.0098 -0.238281,-0.181641 -0.0098,-0.0078 c -2.548433,-1.900064 -5.639614,-2.929879 -8.818359,-2.9375 z m -0.02344,5.34375 c 0.386389,0.0031 0.771564,0.02888 1.154297,0.07813 l 0.197266,0.0293 0.111328,0.01758 c 0.306734,0.04812 0.59717,0.108187 0.867187,0.177734 l 0.0059,0.002 0.11914,0.0293 0.158203,0.04102 c 0.718216,0.207598 1.410074,0.497513 2.060547,0.865234 0.0025,0.0014 0.0053,0.0025 0.0078,0.0039 0.07665,0.04557 0.150867,0.09148 0.230468,0.142578 l 0.01367,0.0098 0.07031,0.04297 c 0.21679,0.13803 0.423819,0.27508 0.611328,0.416016 l 0.01172,0.0078 0.07227,0.05273 c 0.112183,0.08259 0.197098,0.144765 0.242188,0.18164 l 0.02344,0.01758 0.02344,0.01758 c 0.267645,0.201802 0.523805,0.418411 0.769531,0.646485 0.04095,0.0429 0.07905,0.08568 0.121094,0.134765 l 0.01172,0.01172 0.132812,0.148438 0.0078,0.0078 c 0.178957,0.193781 0.323084,0.362039 0.447265,0.519531 l 0.0039,0.0059 0.0059,0.0078 c 0.09053,0.112137 0.185442,0.23964 0.287109,0.38086 0.166658,0.245583 0.296337,0.441199 0.382813,0.58789 l 0.0059,0.01367 0.208984,0.337891 c 0.171589,0.311876 0.325465,0.63204 0.460938,0.960937 0.0018,0.0043 0.0021,0.0093 0.0039,0.01367 0.03706,0.09684 0.07614,0.198395 0.117188,0.3125 l 0.03711,0.105469 c 0.08114,0.231626 0.156275,0.486989 0.230469,0.763672 l -0.0078,-0.03516 c 0.02117,0.08709 0.04184,0.15909 0.05664,0.21289 h -0.002 c 0.02064,0.07508 0.03801,0.136652 0.05273,0.197266 0.07887,0.367418 0.136304,0.739305 0.171875,1.113281 L 40.982422,60.875 c 0,0.0705 -0.0073,0.222156 0.0332,0.457031 l -0.02344,-0.253906 v 0.1875 l 0.0039,0.04883 c 0.02006,0.312543 0.02522,0.626018 0.01367,0.939453 l -0.002,0.02734 v 0.02734 c 0,0.0927 -0.004,0.139873 -0.002,0.123047 l -0.01172,0.0918 v 0.105469 c -0.02456,0.310548 -0.0613,0.615254 -0.119141,0.951172 -0.247845,1.389221 -0.802756,2.70644 -1.625,3.853516 -0.823262,1.148408 -1.89291,2.096354 -3.130859,2.777343 -8.16e-4,4.49e-4 -0.0011,0.0015 -0.002,0.002 -0.190158,0.09876 -0.348731,0.176996 -0.472656,0.232421 l -0.02539,0.01172 -0.103516,0.05078 c -0.792816,0.359811 -1.628929,0.613243 -2.488281,0.753907 l -0.04883,0.0078 -0.152344,0.02344 c -0.152893,0.02274 -0.323984,0.04314 -0.478516,0.05664 l 0.205078,2.337891 c -0.01918,0.0017 -0.03189,0.0023 -0.05078,0.0039 l -0.189297,-2.3262 c -0.218655,0.01794 -0.438022,0.02831 -0.675781,0.0332 h -0.273438 c -0.317827,-0.0036 -0.635251,-0.02352 -0.951172,-0.05859 l -0.173828,-0.01953 -0.01172,-0.002 c -0.370073,-0.04815 -0.736818,-0.119471 -1.099609,-0.208984 -0.0018,-4.5e-4 -0.0041,4.51e-4 -0.0059,0 -2.032619,-0.523081 -3.834046,-1.704484 -5.123047,-3.361328 -1.291533,-1.660099 -1.995596,-3.701273 -2,-5.804688 -0.0044,-2.103296 0.69008,-4.149012 1.974609,-5.814453 1.284527,-1.665524 3.085651,-2.854704 5.121094,-3.384765 l 0.01172,-0.0039 0.0098,-0.0039 h 0.0059 c 0.778084,-0.195524 1.578514,-0.296281 2.380859,-0.298828 z m 1.511559,22.71734 c 0.3915,-0.0445 0.7422,-0.0984 1.0947,-0.1689 0.1002,-0.0185 0.1855,-0.0408 0.2839,-0.063 l 0.1447,-0.0334 c 0.2301,-0.0539 0.5047,-0.1207 0.7867,-0.2041 0.1763,-0.052 0.347,-0.1132 0.5214,-0.1745 l 0.0891,-0.0315 c 0.2059,-0.0705 0.4175,-0.1484 0.6308,-0.2301 0.1448,-0.0556 0.2765,-0.1169 0.4138,-0.1855 l 0.1856,-0.0854 c 0.2486,-0.1132 0.4824,-0.2208 0.7125,-0.347 l 0.0538,-0.0241 c 1.3739,-0.7408 2.6436,-1.6605 3.7758,-2.7349 0.2928,-0.274 0.5474,-0.586 0.7571,-0.9278 1.1638,-1.8585 1.9266,-3.9396 2.2395,-6.11 0.0371,-0.2505 0.078,-0.5567 0.1002,-0.8628 0.0223,-0.3062 0.0371,-0.5567 0.0427,-0.8016 0,-0.0445 0,-0.0946 0,-0.1447 0,-0.0501 0,-0.0687 0,-0.1039 0,-0.1336 0,-0.2579 -0.0148,-0.3823 0,-0.0723 -0.0093,-0.1465 -0.013,-0.2208 -0.0167,-0.3915 -0.0427,-0.7421 -0.0835,-1.0613 -0.0538,-0.4434 -0.1132,-0.7997 -0.1856,-1.1133 -0.0408,-0.1966 -0.0946,-0.3915 -0.1503,-0.5974 l -0.0352,-0.1225 c -0.0817,-0.3024 -0.1856,-0.6067 -0.2783,-0.8999 -0.0743,-0.2097 -0.1503,-0.4156 -0.2283,-0.6216 -0.1899,-0.4716 -0.4067,-0.9318 -0.6494,-1.3786 -0.0152,-0.0261 -0.0282,-0.0534 -0.0389,-0.0816 l -0.0112,-0.0223 c -0.3848,-0.6851 -0.8307,-1.334 -1.3322,-1.939 -0.0241,-0.0315 -0.0482,-0.0575 -0.0724,-0.0835 l -0.063,-0.0723 c -0.2227,-0.2635 -0.4305,-0.4917 -0.6346,-0.6977 -0.0965,-0.1002 -0.1856,-0.1855 -0.2876,-0.282 l -0.0724,-0.0687 c -0.1466,-0.1354 -0.2969,-0.2727 -0.4453,-0.4045 -0.1855,-0.154 -0.3618,-0.3061 -0.5566,-0.4527 l -0.2412,-0.1855 c -2.2915,-1.7085 -5.072,-2.6343 -7.9303,-2.6404 -0.08,-4e-4 -0.1599,0.004 -0.2394,0.013 -0.0686,0 -0.1391,0.013 -0.2096,0.0149 -0.3489,0.0111 -0.6606,0.0297 -0.9519,0.0593 -0.167,0.0186 -0.3358,0.0372 -0.5047,0.0613 -0.4838,0.0637 -0.9639,0.1535 -1.438,0.269 -2.8578,0.7404 -5.3889,2.4085 -7.1963,4.7426 -1.8075,2.3342 -2.7889,5.2023 -2.7904,8.1544 -0.0015,2.9521 0.9771,5.8212 2.7822,8.1572 1.805,2.3359 4.3345,4.0066 7.1915,4.7498 0.0295,0.0035 0.0586,0.0091 0.0872,0.0167 0.5167,0.1292 1.0401,0.2295 1.5679,0.3006 0.2746,0.0334 0.5567,0.0464 0.8443,0.0575 l 0.1855,0.0093 c 0.1002,0 0.1948,0.013 0.2913,0.0223 0.1355,0.013 0.2616,0.0241 0.3952,0.0241 0.3878,0 0.8146,-0.0241 1.3081,-0.0724 h 0.0334 0.0316 c 0.0278,0 0.0538,-0.0092 0.0816,-0.0111 z m -0.5789,-2.2952 c -0.2487,0.0204 -0.4992,0.0334 -0.7663,0.0389 h -0.3229 c -0.372,-0.0042 -0.7436,-0.0271 -1.1133,-0.0686 l -0.1855,-0.0223 c -0.4329,-0.0558 -0.8622,-0.1364 -1.2859,-0.2412 -2.3595,-0.6039 -4.4515,-1.9748 -5.9471,-3.8972 -1.4956,-1.9224 -2.3099,-4.2873 -2.315,-6.723 -0.0051,-2.4356 0.7993,-4.8039 2.2868,-6.7325 1.4875,-1.9287 3.5738,-3.3083 5.9308,-3.9221 l 0.0334,-0.0093 c 0.9003,-0.2268 1.825,-0.3427 2.7535,-0.3451 0.4499,0.0032 0.8991,0.0335 1.3452,0.0909 l 0.2283,0.0334 0.1206,0.0186 c 0.3544,0.0556 0.6921,0.1261 1.0093,0.2078 l 0.1188,0.0297 0.2022,0.0519 c 0.8352,0.241 1.6392,0.5791 2.3954,1.0075 0.104,0.0613 0.2023,0.1225 0.3006,0.1856 l 0.0576,0.0352 c 0.2337,0.1485 0.4824,0.3099 0.7292,0.4954 l 0.0593,0.0427 c 0.1058,0.078 0.2134,0.154 0.3155,0.2375 0.3195,0.2409 0.6261,0.4986 0.9184,0.7719 0.0742,0.0761 0.1429,0.1521 0.2097,0.2301 l 0.1132,0.1262 c 0.2004,0.217 0.3711,0.4156 0.5232,0.6085 0.1169,0.1448 0.2282,0.2951 0.3377,0.4472 0.1856,0.2728 0.334,0.4954 0.4565,0.7032 l 0.2282,0.3711 c 0.2081,0.3766 0.394,0.7651 0.5566,1.1634 0.0464,0.1206 0.0891,0.2394 0.1318,0.3581 l 0.0389,0.1095 c 0.0984,0.2802 0.1856,0.5733 0.2672,0.8776 0.0149,0.0613 0.0297,0.1151 0.0445,0.1689 0.026,0.0946 0.0501,0.1855 0.0724,0.2801 0.0912,0.4244 0.1574,0.8538 0.1985,1.2859 0,0.0705 0,0.1373 0.0112,0.2022 v 0.141 c 0.0233,0.3632 0.0282,0.7274 0.0148,1.0911 0,0.0927 0,0.2004 -0.013,0.3061 v 0.078 c -0.0278,0.371 -0.0723,0.7421 -0.141,1.1411 -0.2863,1.6127 -0.9302,3.1407 -1.8845,4.472 -0.9543,1.3312 -2.1946,2.4317 -3.6299,3.2207 -0.2171,0.1132 -0.4045,0.2079 -0.5827,0.2876 l -0.1206,0.0594 c -0.9131,0.4144 -1.877,0.7064 -2.8667,0.8684 l -0.0575,0.0093 -0.1558,0.0241 c -0.1856,0.0278 -0.386,0.0519 -0.5771,0.0686 M 28.494141,30.378906 c -1.51171,0.002 -2.964283,0.604908 -4.033204,1.673828 -1.06892,1.068921 -1.669976,2.519455 -1.671875,4.03125 v 1.671875 c -9.12e-4,0.07167 -0.02377,0.14092 -0.06445,0.199219 -0.04139,0.05934 -0.09993,0.105696 -0.167968,0.130859 l -0.01563,0.0059 -0.01758,0.0059 c -0.460918,0.182987 -0.965979,0.379655 -1.490234,0.625 l 0.0059,-0.0039 c -0.06617,0.03059 -0.13932,0.04007 -0.210937,0.02734 -0.07088,-0.01258 -0.136265,-0.047 -0.1875,-0.09766 h -0.002 l -1.19336,-1.195312 -0.0039,-0.0039 c -1.071515,-1.056214 -2.516812,-1.648438 -4.021484,-1.648438 -1.504673,0 -2.950025,0.592146 -4.021484,1.648438 l -0.0039,0.0059 -4.3066404,4.314453 -0.00195,0.002 c -1.0615782,1.071669 -1.6582031,2.520862 -1.6582031,4.029297 0,1.508435 0.5966249,2.955675 1.6582031,4.027344 l 0.00195,0.0039 1.1933594,1.191406 c 0.051853,0.05187 0.084921,0.117662 0.097656,0.189454 0.012788,0.07221 0.0033,0.144901 -0.027344,0.210937 l -0.00195,0.0059 -0.00195,0.0039 C 8.12246,51.927535 7.9176447,52.420769 7.7226562,52.927734 l -0.00391,0.01172 -0.00586,0.0098 c -0.023983,0.06546 -0.067471,0.122047 -0.125,0.162109 -0.057842,0.03987 -0.126874,0.06144 -0.1972656,0.06055 H 7.3828106 5.70117 5.69922 c -1.5103462,0.0034 -2.9595584,0.605556 -4.027345,1.67379 C 0.60408527,55.91394 0.00265699,57.362628 0,58.873047 v 0.002 6.080078 c 0.00199283,1.512108 0.60426232,2.964207 1.6738281,4.033203 1.0694509,1.069004 2.5209248,1.670655 4.0332031,1.671875 h 1.6660157 c 0.072664,2.89e-4 0.1417029,0.02093 0.2011718,0.0625 0.059259,0.04143 0.1056567,0.101802 0.1308594,0.169922 l 0.00586,0.01563 0.00586,0.01563 c 0.1830004,0.461002 0.3781726,0.964677 0.6210937,1.486328 0.029838,0.06549 0.040022,0.139494 0.027344,0.210938 -0.012773,0.06984 -0.04663,0.133201 -0.095703,0.183593 l -1.2011719,1.197266 -0.00586,0.0059 c -1.0555738,1.071687 -1.6484375,2.517147 -1.6484375,4.021485 0,1.504273 0.5927414,2.949809 1.6484375,4.021484 l 0.00391,0.0039 4.3066411,4.306641 0.0039,0.0039 c 1.071023,1.057749 2.515988,1.652344 4.021485,1.652344 1.505496,0 2.952357,-0.594673 4.023437,-1.652344 l 0.0039,-0.002 1.19336,-1.193359 c 0.03328,-0.03329 0.07254,-0.06049 0.115234,-0.07813 h 0.002 c 0.04347,-0.01796 0.0897,-0.02742 0.136719,-0.02734 h 0.002 0.002 c 0.04809,-7.2e-5 0.09572,0.01124 0.138672,0.03125 l 0.01563,0.0078 0.01563,0.0059 c 0.424995,0.186331 0.907768,0.397129 1.464844,0.619141 l 0.02148,0.0098 0.02148,0.0078 c 0.06698,0.0243 0.123366,0.06685 0.164063,0.125 0.04062,0.05804 0.06261,0.128079 0.0625,0.199218 v 1.671875 0.002 c 0.0014,1.512064 0.602891,2.961723 1.671875,4.03125 v 0.002 c 1.069007,1.069414 2.521057,1.671795 4.033203,1.673828 h 6.085938 0.002 c 1.512082,-0.002 2.962243,-0.604414 4.03125,-1.673828 v -0.002 c 1.068984,-1.069527 1.670519,-2.519186 1.671875,-4.03125 v -0.002 -1.667968 -0.002 c 5.1e-4,-0.07121 0.02385,-0.140343 0.06445,-0.199219 0.04161,-0.05965 0.09951,-0.105519 0.167969,-0.13086 l 0.01758,-0.0059 0.01563,-0.0059 c 0.461479,-0.183072 0.962902,-0.378204 1.484375,-0.621094 0.06622,-0.03059 0.139364,-0.04005 0.210937,-0.02734 0.07187,0.01278 0.137982,0.04628 0.189453,0.09766 l 1.199219,1.201172 0.0039,0.0039 c 1.071675,1.055696 2.517212,1.648437 4.021485,1.648437 1.504338,0 2.949798,-0.592864 4.021484,-1.648437 l 0.0039,-0.0039 4.300782,-4.300781 0.002,-0.0039 c 1.057075,-1.071297 1.65039,-2.516413 1.65039,-4.021485 0,-1.505006 -0.593315,-2.950187 -1.65039,-4.021484 l -0.002,-0.0039 -1.19336,-1.195313 c -0.05168,-0.05174 -0.085,-0.116137 -0.09766,-0.1875 v -0.002 c -0.01275,-0.07181 -0.0033,-0.144834 0.02734,-0.210937 l 0.0059,-0.01172 0.0039,-0.01367 c 0.187376,-0.42523 0.399185,-0.908129 0.621094,-1.464844 l 0.0059,-0.01563 0.0059,-0.01563 c 0.02525,-0.06782 0.07142,-0.126494 0.130859,-0.167968 0.05937,-0.04142 0.128598,-0.06415 0.201172,-0.06445 h 2.806641 l 0.07227,-0.259765 c 1.051813,-0.233628 2.052292,-0.658545 2.826172,-1.431641 1.070031,-1.069081 1.671795,-2.520684 1.673828,-4.033203 V 58.875 c -0.0019,-1.511795 -0.602954,-2.96233 -1.671875,-4.03125 -1.06892,-1.06892 -2.519454,-1.67193 -4.03125,-1.673828 h -0.002 -1.662109 c -0.07293,-3.67e-4 -0.143928,-0.02302 -0.203125,-0.06445 -0.0594,-0.04156 -0.103752,-0.09998 -0.128906,-0.167969 l -0.0078,-0.01563 -0.0059,-0.01563 c -0.182868,-0.460965 -0.378581,-0.963528 -0.621094,-1.484375 v -0.002 c -0.02994,-0.06573 -0.04002,-0.139494 -0.02734,-0.210938 0.01275,-0.07174 0.04823,-0.136028 0.09961,-0.1875 L 56,49.826172 l 0.0039,-0.0059 c 1.054629,-1.073181 1.64488,-2.518827 1.642578,-4.023437 -0.0023,-1.504734 -0.59823,-2.94973 -1.65625,-4.019531 l -0.002,-0.0039 -4.308594,-4.304687 -0.0039,-0.002 c -1.072061,-1.060145 -2.519632,-1.65625 -4.027344,-1.65625 -1.507776,0 -2.955339,0.596027 -4.027343,1.65625 l -0.0039,0.002 -1.191406,1.193359 c -0.05133,0.05131 -0.117703,0.08494 -0.189453,0.09766 -0.07159,0.01271 -0.144584,0.0034 -0.210937,-0.02734 l -0.01367,-0.0059 -0.01563,-0.0059 C 41.571031,38.534299 41.088265,38.32355 40.53125,38.101562 l -0.01758,-0.0078 -0.01758,-0.0059 c -0.06642,-0.0245 -0.123553,-0.06863 -0.164063,-0.126954 -0.04026,-0.05797 -0.06079,-0.12649 -0.06055,-0.197265 v -0.0039 -1.671875 -0.002 c -0.0014,-1.510393 -0.603035,-2.960105 -1.669922,-4.029296 -1.066864,-1.069441 -2.515151,-1.67299 -4.02539,-1.677735 h -0.002 z m -0.002,5.341797 h 6.080079 c 0.09795,5.66e-4 0.192105,0.03976 0.261718,0.109375 0.06951,0.06949 0.106834,0.163215 0.107422,0.261719 v 1.675781 0.0059 c 0.0092,1.151279 0.365134,2.273539 1.019531,3.220704 0.654344,0.947147 1.578685,1.675864 2.652344,2.091796 l 0.0039,0.002 0.0039,0.002 c 0.401412,0.152847 0.804667,0.318838 1.191406,0.49414 l 0.002,0.002 h 0.002 c 1.053146,0.473767 2.224765,0.618959 3.361328,0.416016 1.136713,-0.203081 2.185832,-0.745781 3.009766,-1.554687 l 0.0059,-0.0039 1.183594,-1.183593 c 0.0727,-0.07148 0.167438,-0.111329 0.269531,-0.111329 0.102273,0 0.198786,0.03984 0.271485,0.111329 l 4.285156,4.285156 c 0.06894,0.07012 0.107422,0.161569 0.107422,0.259765 0,0.09891 -0.03924,0.193333 -0.109375,0.263672 l -1.19336,1.195313 -0.0039,0.0059 c -0.808979,0.825216 -1.35183,1.875833 -1.554687,3.013672 -0.202238,1.135867 -0.05649,2.306759 0.416015,3.359375 0.180837,0.405152 0.353296,0.807077 0.494141,1.185547 l 0.0039,0.0098 0.0039,0.0098 c 0.416628,1.072006 1.145354,1.994748 2.091797,2.648438 0.946343,0.653849 2.066829,1.009251 3.216797,1.019531 h 0.0059 1.677734 c 0.09851,5.85e-4 0.192105,0.03976 0.261719,0.109375 0.07024,0.07024 0.107322,0.162512 0.107422,0.261719 v 6.076172 c -5.91e-4,0.09833 -0.03791,0.190273 -0.107422,0.259765 v 0.002 h -0.002 c -0.07004,0.07006 -0.162513,0.107322 -0.261719,0.107422 h -1.673828 -0.0059 c -1.151278,0.0092 -2.273538,0.365134 -3.220703,1.019531 -0.945255,0.653037 -1.673521,1.575747 -2.089844,2.646485 l -0.0059,-0.002 c -0.152564,0.400422 -0.319305,0.801677 -0.496094,1.193359 l -0.002,0.002 v 0.002 c -0.472006,1.052813 -0.616925,2.223535 -0.414062,3.359375 0.202863,1.135981 0.745355,2.18547 1.552734,3.009766 l 0.0039,0.0059 1.19336,1.19336 c 0.06983,0.06987 0.107422,0.163055 0.107422,0.261718 0,0.09866 -0.03742,0.191656 -0.107422,0.261719 l -0.01172,0.01172 -4.279297,4.287109 c -0.07034,0.07014 -0.164763,0.109375 -0.263672,0.109375 -0.0982,0 -0.191599,-0.03847 -0.261719,-0.107422 l -0.002,-0.002 -1.195312,-1.193359 -0.0039,-0.0039 c -0.824221,-0.807978 -1.873672,-1.349851 -3.009766,-1.552735 -1.136233,-0.203043 -2.30661,-0.05825 -3.359375,0.414063 -0.404395,0.180535 -0.80532,0.354038 -1.1875,0.498047 l -0.0078,0.002 -0.0059,0.0039 c -1.07278,0.416095 -1.99649,1.145109 -2.650391,2.091797 -0.653305,0.946315 -1.010063,2.068734 -1.019531,3.21875 v 0.0059 1.673828 c -1e-4,0.09921 -0.03719,0.193436 -0.107422,0.263672 -0.06996,0.06996 -0.164645,0.107322 -0.263672,0.107422 h -6.074218 c -0.09921,-10e-5 -0.191466,-0.03719 -0.261719,-0.107422 -0.06979,-0.06981 -0.10879,-0.163211 -0.109375,-0.261718 v -0.002 -1.673828 -0.0059 c -0.0092,-1.151499 -0.364868,-2.273881 -1.01939,-3.221091 C 26.451025,81.894565 25.528522,81.165902 24.455078,80.75 l -0.0059,-0.002 -0.0059,-0.002 C 24.042329,80.593972 23.643986,80.425982 23.255859,80.25 h -0.0039 l -0.0039,-0.002 c -1.052703,-0.471551 -2.221743,-0.614967 -3.357422,-0.41211 h -0.002 c -1.135544,0.202945 -2.183402,0.743693 -3.007813,1.550782 l -0.0059,0.0039 -1.197266,1.197266 v 0.002 c -0.0329,0.03311 -0.07344,0.06 -0.117187,0.07813 -0.04342,0.01799 -0.08956,0.02748 -0.136719,0.02734 l -0.0039,-0.002 -0.0059,0.002 c -0.0473,1.74e-4 -0.09304,-0.0093 -0.136719,-0.02734 -0.04352,-0.01802 -0.08413,-0.04486 -0.117188,-0.07813 l -0.002,-0.002 -4.296875,-4.294922 c -0.06908,-0.07027 -0.107422,-0.162781 -0.107422,-0.261719 0,-0.09965 0.03938,-0.193477 0.109375,-0.263672 l 1.19336,-1.195312 0.0059,-0.0059 c 0.806666,-0.824663 1.346401,-1.872137 1.548828,-3.007812 0.202283,-1.135491 0.05797,-2.306772 -0.414062,-3.359375 -0.180416,-0.404144 -0.351754,-0.804792 -0.492188,-1.183594 l -0.0039,-0.0078 -0.0039,-0.0098 C 12.282198,67.92404 11.554246,66.998734 10.607422,66.34375 9.6605728,65.68881 8.5380248,65.333826 7.3867187,65.324219 h -0.00586 -1.6757813 c -0.099188,-1e-4 -0.1915942,-0.03926 -0.2617187,-0.109375 -0.070245,-0.07026 -0.109277,-0.164505 -0.109375,-0.263672 v -6.074219 c 9.8e-5,-0.09917 0.039307,-0.191659 0.109375,-0.261719 0.070108,-0.07012 0.1625304,-0.109275 0.2617187,-0.109375 h 1.6738281 0.00586 c 1.1520676,-0.0083 2.2764482,-0.363137 3.2246095,-1.017578 0.948098,-0.654523 1.67755,-1.578016 2.09375,-2.652344 l 0.002,-0.0059 0.002,-0.0039 c 0.152122,-0.401031 0.318214,-0.801336 0.494141,-1.189453 l 0.002,-0.0039 v -0.002 c 0.472192,-1.052925 0.617082,-2.223416 0.414063,-3.359375 -0.202873,-1.135894 -0.743402,-2.18547 -1.550782,-3.009765 l -0.0078,-0.0059 -1.199219,-1.195312 c -0.03365,-0.03414 -0.05984,-0.07308 -0.07813,-0.117188 -0.01858,-0.04483 -0.02734,-0.09369 -0.02734,-0.142578 0,-0.04871 0.0088,-0.09579 0.02734,-0.140625 0.01863,-0.04495 0.0455,-0.08653 0.08008,-0.121094 L 15.150391,41.25 l 0.002,-0.002 c 0.07002,-0.06885 0.163494,-0.105469 0.261719,-0.105469 0.09929,0 0.191677,0.03756 0.261718,0.107422 l 1.195313,1.193359 0.0059,0.0059 c 0.824138,0.807761 1.873558,1.347877 3.009766,1.550781 1.136021,0.202871 2.306443,0.05846 3.359375,-0.414063 0.401801,-0.18012 0.800525,-0.351707 1.179687,-0.492187 l 0.0098,-0.0039 0.01172,-0.0039 c 1.073718,-0.415663 1.997238,-1.144917 2.652343,-2.091796 0.65508,-0.946843 1.01107,-2.067425 1.021485,-3.21875 v -0.0078 -1.673828 -0.002 c 5.86e-4,-0.09851 0.03986,-0.192205 0.109375,-0.261719 0.07035,-0.07033 0.162907,-0.109295 0.261718,-0.109375 z M 57.35891,69.15944 c 1.1157,-5e-4 2.1857,-0.4437 2.9751,-1.2323 0.7893,-0.7886 1.2334,-1.8582 1.2349,-2.974 v -6.0767 c -0.0014,-1.1151 -0.4451,-2.1842 -1.2336,-2.9727 -0.7885,-0.7885 -1.8576,-1.2322 -2.9727,-1.2336 h -1.6699 c -0.3776,-0.0019 -0.7456,-0.1188 -1.0549,-0.3353 -0.3094,-0.2165 -0.5453,-0.5222 -0.6763,-0.8763 -0.1855,-0.4676 -0.3711,-0.9426 -0.5882,-1.4083 -0.1592,-0.3445 -0.2089,-0.7294 -0.1426,-1.103 0.0664,-0.3735 0.2457,-0.7178 0.5137,-0.9863 l 1.1894,-1.1912 c 0.7788,-0.7925 1.2144,-1.8596 1.2127,-2.9707 -0.0017,-1.1111 -0.4407,-2.1768 -1.222,-2.9668 l -4.3028,-4.2991 c -0.7917,-0.7829 -1.8601,-1.222 -2.9734,-1.222 -1.1134,0 -2.1818,0.4391 -2.9734,1.222 l -1.1894,1.1893 c -0.2686,0.2685 -0.6132,0.448 -0.9872,0.5143 -0.3739,0.0664 -0.7592,0.0164 -1.1039,-0.1432 -0.423,-0.1855 -0.8869,-0.3878 -1.4176,-0.5993 -0.3548,-0.1309 -0.6608,-0.3677 -0.8766,-0.6784 -0.2157,-0.3106 -0.3307,-0.6801 -0.3294,-1.0583 v -1.6699 c -10e-4,-1.1142 -0.4434,-2.1826 -1.2304,-2.9713 -0.7869,-0.7888 -1.8544,-1.2335 -2.9685,-1.237 h -6.0767 c -1.1151,0.0015 -2.1842,0.4452 -2.9727,1.2337 -0.7885,0.7885 -1.2322,1.8576 -1.2336,2.9727 v 1.6699 c -8e-4,0.3785 -0.1172,0.7478 -0.3338,1.0582 -0.2165,0.3104 -0.5229,0.5472 -0.8779,0.6785 -0.4675,0.1856 -0.9444,0.3711 -1.4083,0.5882 -0.3444,0.1592 -0.7293,0.209 -1.1029,0.1426 -0.3735,-0.0663 -0.7178,-0.2456 -0.9863,-0.5137 l -1.1912,-1.1912 c -0.7913,-0.78 -1.8577,-1.2173 -2.9688,-1.2173 -1.1111,0 -2.1775,0.4373 -2.9687,1.2173 l -4.29916,4.3084 c -0.78375,0.7912 -1.22344,1.8598 -1.22344,2.9734 0,1.1136 0.43969,2.1822 1.22344,2.9734 l 1.18936,1.1893 c 0.2688,0.2689 0.4486,0.6138 0.515,0.9881 0.0663,0.3744 0.0161,0.7601 -0.1439,1.1049 -0.2115,0.4639 -0.4045,0.9278 -0.59004,1.4102 -0.13095,0.3574 -0.36959,0.6653 -0.68299,0.8814 -0.3134,0.216 -0.68611,0.3294 -1.06672,0.3246 H 5.70264 c -1.11418,0.0025 -2.18199,0.4463 -2.96966,1.2343 -0.78767,0.788 -1.23102,1.856 -1.23298,2.9702 v 6.0767 c 0.00147,1.1154 0.44537,2.1848 1.23429,2.9734 0.78893,0.7885 1.85845,1.232 2.97391,1.2329 h 1.66992 c 0.37788,0.0015 0.7463,0.1183 1.05599,0.3348 0.3097,0.2165 0.5459,0.5225 0.67702,0.8769 0.18558,0.4675 0.37108,0.9425 0.58818,1.4083 0.1592,0.3444 0.2089,0.7293 0.1426,1.1029 -0.0664,0.3735 -0.2456,0.7178 -0.5137,0.9863 l -1.19677,1.1912 c -0.7796,0.7915 -1.2166,1.8578 -1.2166,2.9688 0,1.1109 0.437,2.1773 1.2166,2.9687 l 4.29917,4.301 c 0.7907,0.7809 1.8573,1.2189 2.9687,1.2189 1.1114,0 2.178,-0.438 2.9688,-1.2189 l 1.1912,-1.1894 c 0.1727,-0.1727 0.3778,-0.3097 0.6035,-0.4029 0.2258,-0.0933 0.4677,-0.1411 0.712,-0.1407 0.2673,-4e-4 0.5314,0.0578 0.7737,0.1707 0.4231,0.1855 0.8869,0.3878 1.4176,0.5993 0.3566,0.1294 0.6646,0.3655 0.8821,0.6763 0.2175,0.3108 0.3338,0.6811 0.3332,1.0604 v 1.67 c 10e-4,1.1154 0.4444,2.1849 1.233,2.9739 0.7886,0.7889 1.8579,1.2328 2.9734,1.2343 h 6.0841 c 1.1154,-0.0015 2.1847,-0.4454 2.9733,-1.2343 0.7886,-0.789 1.232,-1.8585 1.233,-2.9739 v -1.67 c 7e-4,-0.3785 0.1172,-0.7477 0.3337,-1.0581 0.2166,-0.3105 0.5229,-0.5472 0.8779,-0.6786 0.4676,-0.1855 0.9426,-0.3711 1.4083,-0.5882 0.3444,-0.1591 0.7294,-0.2089 1.1029,-0.1426 0.3736,0.0664 0.7179,0.2457 0.9864,0.5137 l 1.1968,1.1987 c 0.7914,0.7796 1.8578,1.2166 2.9687,1.2166 1.111,0 2.1773,-0.437 2.9688,-1.2166 l 4.2917,-4.2936 c 0.7805,-0.791 1.2181,-1.8575 1.2181,-2.9688 0,-1.1112 -0.4376,-2.1777 -1.2181,-2.9687 l -1.1894,-1.1912 c -0.2684,-0.2687 -0.448,-0.6133 -0.5143,-0.9872 -0.0664,-0.374 -0.0164,-0.7593 0.1432,-1.1039 0.1856,-0.4212 0.3878,-0.8851 0.5993,-1.4157 0.1316,-0.3535 0.3678,-0.6584 0.6771,-0.8742 0.3093,-0.2158 0.677,-0.3322 1.0541,-0.3338 h 1.6699 z m -5.5961,0.3711 c -0.1633,0.4286 -0.3414,0.8572 -0.5307,1.2766 -0.3488,0.778 -0.4552,1.643 -0.3053,2.4823 0.1499,0.8394 0.5492,1.6141 1.1458,2.2232 l 1.1875,1.1893 c 0.3505,0.3507 0.5474,0.8262 0.5474,1.322 0,0.4958 -0.1969,0.9713 -0.5474,1.3221 l -0.013,0.0129 -4.2805,4.288 c -0.351,0.35 -0.8264,0.5466 -1.322,0.5466 -0.4957,0 -0.9711,-0.1966 -1.3221,-0.5466 l -1.1912,-1.1893 c -0.6089,-0.5969 -1.3836,-0.9963 -2.223,-1.1462 -0.8394,-0.15 -1.7045,-0.0434 -2.4824,0.3056 -0.4157,0.1856 -0.8443,0.3711 -1.2729,0.5326 -0.7928,0.3075 -1.475,0.846 -1.9583,1.5457 -0.4833,0.6996 -0.7455,1.5283 -0.7525,2.3786 v 1.6699 c -5e-4,0.4959 -0.1977,0.9713 -0.5484,1.322 -0.3506,0.3506 -0.8261,0.5478 -1.3219,0.5483 h -6.0767 c -0.4959,-5e-4 -0.9713,-0.1977 -1.322,-0.5483 -0.3506,-0.3507 -0.5478,-0.8261 -0.5483,-1.322 v -1.6699 c -0.0069,-0.8509 -0.2691,-1.6801 -0.7528,-2.3801 -0.4837,-0.7001 -1.1665,-1.2387 -1.9599,-1.5461 -0.4305,-0.1633 -0.8591,-0.3414 -1.2766,-0.5307 -0.778,-0.3485 -1.643,-0.4548 -2.4822,-0.3049 -0.8393,0.15 -1.614,0.5491 -2.2232,1.1455 l -1.1894,1.1893 c -0.173,0.1741 -0.3789,0.3121 -0.6057,0.4061 -0.2268,0.094 -0.4699,0.142 -0.7154,0.1413 -0.2458,9e-4 -0.4893,-0.047 -0.7164,-0.1409 -0.2271,-0.094 -0.4333,-0.2322 -0.6065,-0.4065 l -4.2954,-4.2935 c -0.3502,-0.3513 -0.5467,-0.827 -0.5467,-1.323 0,-0.4959 0.1965,-0.9717 0.5467,-1.3229 l 1.1893,-1.1894 c 0.5961,-0.6094 0.9949,-1.3842 1.1445,-2.2235 0.1495,-0.8392 0.043,-1.7041 -0.3058,-2.4819 -0.1856,-0.4157 -0.3711,-0.8443 -0.5307,-1.2748 -0.3067,-0.7936 -0.8449,-1.4767 -1.5447,-1.9608 -0.69972,-0.484 -1.52877,-0.7466 -2.3796,-0.7537 H 5.70449 c -0.49589,-5e-4 -0.97132,-0.1977 -1.32197,-0.5483 -0.35064,-0.3507 -0.54785,-0.8261 -0.54834,-1.322 v -6.0767 c 4.9e-4,-0.4959 0.1977,-0.9713 0.54834,-1.3219 0.35065,-0.3507 0.82608,-0.5479 1.32197,-0.5484 h 1.66992 c 0.8515,-0.0061 1.68151,-0.268 2.3823,-0.7517 0.7008,-0.4838 1.24,-1.167 1.5476,-1.961 0.1633,-0.4305 0.3414,-0.8591 0.5306,-1.2765 0.3489,-0.778 0.4553,-1.6431 0.3053,-2.4824 -0.1499,-0.8393 -0.5492,-1.614 -1.1458,-2.2231 l -1.193,-1.1875 c -0.1738,-0.1737 -0.3117,-0.3799 -0.4058,-0.6069 -0.0941,-0.227 -0.1425,-0.4703 -0.1425,-0.7161 0,-0.2457 0.0484,-0.489 0.1425,-0.716 0.0941,-0.227 0.232,-0.4332 0.4058,-0.6069 l 4.2898,-4.2899 c 0.351,-0.35 0.8264,-0.5465 1.322,-0.5465 0.4957,0 0.9711,0.1965 1.322,0.5465 l 1.1913,1.1894 c 0.6089,0.5968 1.3836,0.9963 2.223,1.1462 0.8394,0.1499 1.7045,0.0434 2.4824,-0.3057 0.4138,-0.1855 0.8424,-0.3711 1.2729,-0.5306 0.7938,-0.3073 1.4771,-0.8458 1.9614,-1.5458 0.4843,-0.7 0.7473,-1.5292 0.755,-2.3804 v -1.6699 c 5e-4,-0.4959 0.1977,-0.9714 0.5483,-1.322 0.3507,-0.3506 0.8261,-0.5479 1.322,-0.5483 h 6.0804 c 0.4958,4e-4 0.9713,0.1977 1.3219,0.5483 0.3507,0.3506 0.5479,0.8261 0.5484,1.322 v 1.6699 c 0.0068,0.8508 0.2691,1.68 0.7528,2.3801 0.4836,0.7 1.1664,1.2387 1.9599,1.5461 0.4286,0.1632 0.8591,0.3414 1.2765,0.5306 0.7778,0.3499 1.6431,0.4568 2.4826,0.3069 0.8396,-0.15 1.6143,-0.5499 2.2229,-1.1474 l 1.1875,-1.1875 c 0.3529,-0.347 0.828,-0.5414 1.3229,-0.5414 0.495,0 0.9701,0.1944 1.323,0.5414 l 4.2935,4.2935 c 0.35,0.351 0.5466,0.8264 0.5466,1.3221 0,0.4956 -0.1966,0.971 -0.5466,1.322 l -1.1893,1.1912 c -0.5979,0.6099 -0.998,1.3859 -1.1479,2.2267 -0.15,0.8408 -0.0429,1.7072 0.3074,2.4862 0.1855,0.4156 0.3711,0.8442 0.5306,1.2728 0.308,0.7925 0.8466,1.4745 1.5462,1.9577 0.6995,0.4833 1.5279,0.7456 2.3781,0.7532 h 1.67 c 0.4959,5e-4 0.9713,0.1977 1.3219,0.5483 0.3507,0.3507 0.5479,0.8261 0.5484,1.322 v 6.0767 c -5e-4,0.4958 -0.1977,0.9713 -0.5484,1.3219 -0.3506,0.3507 -0.826,0.5479 -1.3219,0.5484 h -1.67 c -0.8508,0.0068 -1.68,0.2691 -2.3801,0.7528 -0.7,0.4836 -1.2386,1.1664 -1.546,1.9599" />
    </g>
  </g>
</svg>
