<svg viewBox="0 0 900 902" xmlns="http://www.w3.org/2000/svg">
<path d="M493.914 205.848C467.483 205.842 441.304 211.051 416.884 221.16C392.462 231.269 370.285 246.097 351.592 264.782H351.572L351.553 264.802C346.753 269.632 344.061 276.201 344.085 283.01C344.107 289.819 346.832 296.345 351.666 301.144C356.497 305.944 363.049 308.634 369.856 308.612H369.875C376.681 308.588 383.21 305.863 388.009 301.031L388.028 300.993L388.065 300.956C401.841 286.926 418.255 275.772 436.371 268.131C454.47 260.497 473.913 256.53 493.556 256.45H494.685C524.223 256.489 553.081 265.252 577.659 281.637C602.241 298.025 621.435 321.308 632.831 348.566C644.228 375.824 647.312 405.842 641.71 434.851C636.108 463.859 622.068 490.563 601.342 511.617L600.063 512.897C597.633 515.234 595.68 518.029 594.325 521.136C592.979 524.225 592.243 527.562 592.181 530.936C592.119 534.32 592.725 537.682 593.968 540.83C595.195 543.945 597.018 546.774 599.329 549.182C599.335 549.189 599.341 549.195 599.348 549.202C601.695 551.658 604.504 553.64 607.625 554.995V554.976C610.747 556.333 614.108 557.061 617.501 557.102C624.248 557.188 630.788 554.619 635.672 549.954L635.785 549.841L636.161 549.465C654.854 530.78 669.681 508.608 679.802 484.191C689.922 459.776 695.126 433.61 695.132 407.18C695.139 380.75 689.948 354.572 679.839 330.15C669.731 305.73 654.902 283.532 636.217 264.839C617.532 246.145 595.359 231.319 570.944 221.198C546.527 211.078 520.344 205.855 493.914 205.849L493.914 205.848ZM617.683 542.651C620.661 542.692 623.536 541.563 625.689 539.506L625.94 539.255C643.291 521.912 657.057 501.32 666.451 478.656C675.845 455.993 680.683 431.701 680.689 407.168C680.694 382.634 675.868 358.34 666.485 335.671C657.102 313.003 643.346 292.405 626.002 275.054C608.659 257.702 588.066 243.936 565.403 234.542C542.739 225.148 518.447 220.31 493.914 220.304C469.38 220.298 445.086 225.124 422.418 234.508C399.749 243.892 379.151 257.648 361.8 274.991C359.698 277.107 358.523 279.972 358.533 282.954C358.543 285.937 359.737 288.794 361.854 290.895C363.97 292.998 366.834 294.173 369.817 294.163C372.8 294.152 375.656 292.958 377.758 290.842C392.872 275.449 410.889 263.207 430.765 254.824C450.642 246.44 471.985 242.083 493.557 242.003H494.682C527.072 242.042 558.727 251.649 585.677 269.615C612.626 287.581 633.668 313.107 646.161 342.99C658.656 372.872 662.045 405.779 655.903 437.581C649.762 469.382 634.365 498.661 611.643 521.743L610.07 523.298C609.004 524.323 608.15 525.548 607.559 526.904C606.966 528.26 606.648 529.72 606.622 531.2C606.595 532.678 606.86 534.149 607.404 535.525C607.946 536.901 608.756 538.157 609.784 539.22C610.805 540.291 612.029 541.146 613.386 541.735C614.743 542.325 616.205 542.636 617.683 542.651V542.651ZM449.991 0.980469C435.431 0.999662 421.46 6.80586 411.165 17.1013C400.87 27.3965 395.064 41.3678 395.044 55.9266V102.013V102.07C395.05 102.743 394.847 103.404 394.461 103.951C394.076 104.497 393.531 104.899 392.9 105.117L393.032 105.08C378.931 109.806 365.192 115.505 351.892 122.16C351.289 122.46 350.603 122.573 349.936 122.461C349.267 122.348 348.659 122.021 348.187 121.539L348.149 121.482L315.456 88.8079L315.419 88.7702C305.093 78.5528 291.139 72.8187 276.612 72.8187C262.085 72.8187 248.131 78.5528 237.805 88.7702L237.786 88.8079L175.692 150.921L175.673 150.94C165.384 161.245 159.608 175.225 159.608 189.784C159.608 204.344 165.383 218.324 175.673 228.629L223.715 276.746L223.772 276.803C226.201 279.187 229.082 281.048 232.256 282.296C235.374 283.522 238.71 284.075 242.056 284.008C247.023 283.95 251.897 282.497 256.033 279.738C260.212 276.948 263.504 272.988 265.457 268.357V268.338C267.407 263.704 267.941 258.584 267.018 253.647C266.094 248.705 263.741 244.154 260.246 240.536L260.171 240.441L212.016 192.361C211.349 191.683 210.981 190.791 210.981 189.84C210.981 188.891 211.349 187.998 212.016 187.32L212.035 187.301L274.11 125.244L274.129 125.225C274.803 124.562 275.704 124.19 276.65 124.19C277.603 124.19 278.496 124.571 279.171 125.243L311.789 157.786C319.869 165.942 330.329 171.327 341.66 173.192C352.989 175.055 364.629 173.309 374.899 168.17V168.15C386.026 162.579 397.525 157.802 409.322 153.837H409.341C420.197 150.174 429.638 143.182 436.297 133.86C442.956 124.535 446.496 113.34 446.436 101.881V55.9455C446.437 54.9903 446.814 54.0997 447.489 53.4248C448.16 52.7542 449.061 52.377 450.01 52.3714H537.799C538.746 52.378 539.632 52.7551 540.301 53.4248C540.975 54.0992 541.354 54.99 541.355 55.9455V101.881C541.301 113.34 544.852 124.537 551.513 133.86C558.175 143.183 567.611 150.175 578.468 153.837H578.488C590.283 157.798 601.786 162.578 612.911 168.152L612.931 168.171L612.95 168.19C623.213 173.289 634.824 175.018 646.132 173.156C657.422 171.298 667.865 165.942 675.947 157.844L675.985 157.807L708.602 125.245C709.278 124.571 710.187 124.192 711.142 124.192C712.094 124.192 712.985 124.57 713.662 125.245L775.738 187.302C776.416 187.982 776.791 188.883 776.791 189.841C776.791 190.801 776.416 191.701 775.738 192.381L743.139 225.055C735.015 233.134 729.65 243.565 727.789 254.87C725.927 266.192 727.667 277.821 732.793 288.09L732.812 288.109C738.386 299.232 743.166 310.737 747.127 322.533V322.552H747.146C750.798 333.366 757.756 342.779 767.029 349.432C776.303 356.084 787.423 359.652 798.838 359.647H845.038C845.986 359.652 846.869 360.03 847.539 360.7C848.216 361.377 848.592 362.284 848.593 363.24V450.973C848.592 451.928 848.216 452.817 847.539 453.493C846.865 454.168 845.974 454.546 845.019 454.547H799.064H799.027C787.599 454.525 776.461 458.083 767.161 464.724C757.851 471.372 750.849 480.773 747.165 491.604V491.642L747.146 491.661C743.184 503.462 738.406 514.973 732.831 526.103V526.123H732.812C727.696 536.385 725.944 548.009 727.808 559.324C729.671 570.637 735.06 581.077 743.195 589.157L743.138 589.12L775.737 621.813C776.413 622.49 776.791 623.4 776.791 624.352C776.791 625.307 776.413 626.195 775.737 626.873L713.662 688.948C712.983 689.624 712.081 689.983 711.123 689.983C710.172 689.983 709.279 689.632 708.602 688.967L708.583 688.948L660.803 641.15C658.449 638.681 655.62 636.715 652.488 635.354C649.359 633.994 645.991 633.266 642.575 633.228H642.5H642.349C637.271 633.18 632.288 634.64 628.034 637.423C623.778 640.206 620.45 644.182 618.46 648.86C616.466 653.539 615.92 658.711 616.861 663.702C617.803 668.692 620.2 673.293 623.764 676.926L623.802 676.963L624.159 677.321L672.258 725.344C682.566 735.618 696.549 741.39 711.102 741.39C725.655 741.39 739.638 735.619 749.947 725.344L812.06 663.25L812.079 663.231C822.353 652.92 828.124 638.942 828.124 624.387C828.124 609.831 822.353 595.853 812.079 585.543H812.06L779.423 552.849L779.385 552.812C778.902 552.336 778.577 551.712 778.464 551.044C778.35 550.374 778.449 549.693 778.746 549.087C785.398 535.81 791.107 522.086 795.826 508.005L795.769 508.174C796.004 507.502 796.431 506.93 797.011 506.519C797.587 506.11 798.28 505.883 798.986 505.879L845.053 505.936H845.073C859.634 505.918 873.604 500.11 883.898 489.815C894.195 479.52 899.98 465.548 900 450.99V363.2V363.181C899.987 348.618 894.195 334.637 883.898 324.337C873.602 314.037 859.636 308.235 845.073 308.216H845.053H798.929H798.835C798.184 308.225 797.56 308.045 797.029 307.67C796.495 307.293 796.109 306.759 795.901 306.147L795.92 306.241C791.214 292.128 785.516 278.359 778.877 265.045L778.915 265.102C778.61 264.484 778.5 263.785 778.614 263.108C778.728 262.429 779.065 261.823 779.555 261.34L779.574 261.303L812.286 228.647L812.305 228.628C822.541 218.326 828.294 204.383 828.294 189.859C828.294 175.335 822.541 161.393 812.305 151.09L812.286 151.071L750.022 88.8454H750.003C739.695 78.5718 725.731 72.7999 711.177 72.7999C696.624 72.7999 682.641 78.5718 672.333 88.8454L639.678 121.482L639.64 121.52C639.161 122.005 638.544 122.327 637.872 122.441C637.199 122.556 636.507 122.458 635.897 122.159C622.643 115.524 608.941 109.834 594.889 105.117C594.25 104.899 593.699 104.481 593.309 103.932C592.919 103.381 592.719 102.742 592.726 102.069V101.994V55.9266C592.707 41.3678 586.919 27.3965 576.624 17.1013H576.605C566.31 6.80705 552.34 0.999661 537.78 0.980469H449.991ZM845.047 491.489C855.788 491.475 866.083 487.202 873.678 479.608C881.273 472.014 885.545 461.717 885.559 450.978V363.199C885.55 352.456 881.279 342.155 873.684 334.557C866.089 326.959 855.791 322.684 845.047 322.669H799.032C795.335 322.719 791.718 321.599 788.697 319.468C785.676 317.335 783.407 314.304 782.216 310.804C777.724 297.334 772.29 284.196 765.954 271.49C764.308 268.151 763.755 264.38 764.374 260.71C764.993 257.04 766.753 253.659 769.403 251.046L802.052 218.45C809.603 210.85 813.841 200.572 813.841 189.858C813.841 179.145 809.603 168.865 802.052 161.265L739.81 99.0774C732.206 91.4987 721.909 87.2431 711.173 87.2431C700.437 87.2431 690.14 91.4987 682.536 99.0774L649.923 131.673C647.319 134.313 643.951 136.068 640.296 136.69C636.64 137.312 632.881 136.77 629.55 135.139C616.846 128.772 603.709 123.308 590.236 118.788C586.722 117.592 583.675 115.318 581.528 112.289C579.381 109.26 578.245 105.631 578.281 101.919V55.9388C578.267 45.1988 573.994 34.9027 566.4 27.3083C558.805 19.714 548.509 15.4413 537.769 15.4271H450.008C439.269 15.4413 428.972 19.714 421.378 27.3083C413.784 34.9027 409.512 45.1988 409.497 55.9388V101.954C409.528 105.647 408.4 109.256 406.271 112.273C404.142 115.289 401.12 117.562 397.632 118.77C384.16 123.286 371.022 128.744 358.316 135.104C354.981 136.761 351.207 137.32 347.534 136.7C343.862 136.08 340.481 134.315 337.873 131.655L305.26 99.0418C297.635 91.4968 287.341 87.2643 276.614 87.2643C265.887 87.2643 255.593 91.4968 247.968 99.0418L185.905 161.14C178.317 168.74 174.056 179.04 174.056 189.777C174.056 200.516 178.317 210.816 185.905 218.414L233.887 266.485C234.934 267.514 236.178 268.321 237.544 268.858C238.911 269.396 240.371 269.652 241.839 269.612C244.04 269.601 246.189 268.943 248.02 267.72C249.851 266.498 251.282 264.765 252.136 262.736C252.992 260.708 253.232 258.472 252.827 256.308C252.423 254.144 251.392 252.146 249.863 250.563L201.809 202.582C198.437 199.199 196.544 194.617 196.544 189.84C196.544 185.064 198.437 180.482 201.809 177.099L263.909 115.018C267.288 111.647 271.867 109.754 276.641 109.754C281.414 109.754 285.994 111.647 289.373 115.018L322.058 147.613C327.998 153.609 335.68 157.576 344.008 158.946C352.336 160.316 360.883 159.02 368.431 155.243C380.162 149.369 392.29 144.323 404.726 140.143C412.707 137.451 419.638 132.311 424.533 125.457C429.429 118.602 432.04 110.379 431.995 101.954V55.9388C432 51.1629 433.899 46.5839 437.277 43.2069C440.654 39.8297 445.232 37.9304 450.008 37.9257H537.805C542.578 37.9351 547.152 39.8366 550.525 43.2131C553.899 46.5897 555.795 51.166 555.8 55.9388V101.954C555.761 110.38 558.376 118.604 563.273 125.458C568.171 132.313 575.105 137.452 583.088 140.143C595.525 144.32 607.653 149.366 619.383 155.243C626.933 158.994 635.473 160.276 643.791 158.907C652.11 157.537 659.788 153.587 665.738 147.613L698.405 115.018C701.785 111.647 706.363 109.754 711.137 109.754C715.91 109.754 720.489 111.647 723.87 115.018L785.968 177.099C789.341 180.482 791.234 185.064 791.234 189.84C791.234 194.617 789.341 199.199 785.968 202.582L753.355 235.266C747.367 241.21 743.405 248.892 742.035 257.218C740.665 265.544 741.956 274.09 745.725 281.64C751.602 293.368 756.648 305.497 760.825 317.934C763.51 325.885 768.622 332.793 775.441 337.686C782.261 342.578 790.443 345.208 798.835 345.204H845.03C849.806 345.209 854.384 347.108 857.761 350.485C861.139 353.862 863.038 358.441 863.043 363.217V450.978C863.038 455.754 861.139 460.332 857.761 463.71C854.384 467.087 849.806 468.986 845.03 468.991H799.032C790.613 468.968 782.4 471.588 775.549 476.48C768.698 481.372 763.555 488.29 760.843 496.261C756.666 508.703 751.621 520.838 745.743 532.573C741.982 540.118 740.695 548.657 742.066 556.976C743.435 565.294 747.392 572.969 753.374 578.91L785.968 611.613C789.339 614.993 791.232 619.572 791.232 624.345C791.232 629.119 789.339 633.698 785.968 637.078L723.851 699.177C720.469 702.544 715.891 704.433 711.119 704.433C706.347 704.433 701.769 702.544 698.387 699.177L650.352 651.123C649.326 650.049 648.096 649.189 646.733 648.597C645.37 648.005 643.903 647.691 642.417 647.674H642.221C639.994 647.653 637.812 648.292 635.948 649.511C634.085 650.729 632.625 652.474 631.753 654.522C630.88 656.571 630.636 658.832 631.048 661.019C631.461 663.208 632.513 665.224 634.072 666.813L634.376 667.118L682.465 715.117C690.068 722.696 700.366 726.951 711.102 726.951C721.836 726.951 732.135 722.696 739.739 715.117L801.837 653.036C809.417 645.429 813.673 635.129 813.673 624.39C813.673 613.652 809.417 603.351 801.837 595.745L769.242 563.095C766.6 560.493 764.843 557.125 764.221 553.469C763.599 549.813 764.142 546.053 765.776 542.723C772.146 530.02 777.61 516.883 782.126 503.408C783.349 499.91 785.63 496.878 788.652 494.734C791.675 492.588 795.29 491.436 798.996 491.436L845.047 491.489ZM303.624 454.545C302.839 454.542 302.067 454.626 301.292 454.677C300.981 454.677 301.247 454.691 300.991 454.696C300.547 454.729 300.094 454.721 299.655 454.771C299.592 454.791 298.616 454.835 298.884 454.828H298.846H298.809C295.209 454.942 291.863 455.139 288.632 455.467H288.575H288.5C286.903 455.645 285.126 455.85 283.196 456.126C278.071 456.806 272.982 457.761 267.959 458.985L267.864 459.004L267.77 459.024C237.151 466.956 210.011 484.842 190.646 509.85C171.28 534.859 160.772 565.597 160.756 597.226C160.739 628.855 171.231 659.593 190.571 684.621C209.91 709.648 237.009 727.56 267.62 735.523L268.579 735.767L269.369 735.862C274.617 737.145 279.911 738.188 285.264 738.909L285.358 738.928H285.453C288.829 739.339 291.942 739.477 294.783 739.587L296.758 739.681H297.115C296.831 739.681 297.233 739.705 298.545 739.831C299.92 739.963 301.65 740.132 303.737 740.132C307.634 740.132 311.832 739.843 316.321 739.436H316.359H316.66H316.961C318.469 739.436 317.314 739.412 317.732 739.361C318.271 739.296 320.017 739.198 318.729 739.286L320.554 739.173L321.457 738.872C324.772 738.456 327.984 738.009 331.125 737.386L331.22 737.367C332.711 737.087 333.766 736.818 334.417 736.671L334.455 736.652L335.903 736.313H335.923C338.231 735.772 341.156 735.066 344.312 734.131C346.522 733.478 348.394 732.8 350.012 732.231H350.031L350.765 731.968L350.896 731.93C353.052 731.19 355.202 730.394 357.33 729.579C359.149 728.88 360.728 728.134 362.183 727.416L362.597 727.228L363.914 726.626L363.97 726.606C366.061 725.652 368.34 724.558 370.703 723.313L371.7 722.861L372.17 722.617C386.499 714.891 399.728 705.298 411.541 694.1C415.273 690.608 418.528 686.636 421.21 682.287C421.221 682.27 421.218 682.247 421.229 682.23C433.488 662.638 441.539 640.716 444.837 617.841C445.217 615.27 445.654 612.021 445.909 608.511C446.132 605.454 446.298 602.799 446.36 600.083V599.914V598.353V597.356C446.36 596.069 446.392 594.277 446.116 591.957L446.21 593.669C446.21 591.798 446.087 590.974 446.079 590.923V590.829C445.908 586.857 445.629 583.151 445.176 579.58C444.619 574.988 443.985 571.064 443.144 567.409C442.638 565.028 442.049 562.931 441.545 561.07L441.526 560.957L441.206 559.904C440.252 556.37 439.189 553.254 438.366 550.649L438.291 550.404L438.196 550.178C437.439 548.042 436.681 545.955 435.901 543.896L435.845 543.764L435.788 543.614C433.846 538.79 431.605 534.106 429.148 529.524L428.997 529.129L428.414 527.944L428.245 527.662C424.166 520.4 419.437 513.526 414.137 507.102C413.637 506.469 413.279 506.059 413.009 505.767L412.989 505.729L412.557 505.24L412.482 505.146C410.207 502.459 408.002 500.055 405.804 497.829C404.641 496.621 403.601 495.608 402.587 494.65L402.568 494.63L401.816 493.915L401.741 493.859C400.29 492.519 398.778 491.12 397.245 489.759L397.057 489.608L396.869 489.458C395.25 488.114 393.396 486.496 391.094 484.755L390.981 484.661L388.686 482.911L388.592 482.836C364.048 464.536 334.276 454.618 303.661 454.545L303.624 454.545ZM303.398 506.011C307.12 506.041 310.829 506.289 314.516 506.764L316.415 507.046L317.488 507.215C320.442 507.679 323.239 508.257 325.84 508.927L325.896 508.946L327.044 509.228L328.568 509.623C335.485 511.623 342.148 514.415 348.413 517.957C348.437 517.97 348.464 517.981 348.488 517.994C349.226 518.433 349.941 518.875 350.708 519.367L350.839 519.462L351.516 519.876C353.604 521.205 355.598 522.525 357.404 523.882L357.517 523.957L358.213 524.465C359.294 525.261 360.111 525.86 360.546 526.215L360.771 526.384L360.997 526.553C363.575 528.497 366.042 530.583 368.409 532.78C368.803 533.193 369.17 533.605 369.575 534.078L369.688 534.19L370.967 535.62L371.042 535.695C372.766 537.562 374.154 539.182 375.35 540.699L375.387 540.756L375.444 540.831C376.316 541.911 377.23 543.139 378.209 544.499C379.814 546.864 381.063 548.748 381.896 550.161L381.953 550.293L383.966 553.547C385.618 556.551 387.1 559.634 388.405 562.802C388.422 562.843 388.425 562.891 388.443 562.933C388.8 563.866 389.176 564.844 389.571 565.943L389.929 566.959C390.71 569.19 391.434 571.649 392.148 574.314L392.073 573.975C392.277 574.814 392.476 575.507 392.619 576.026H392.599C392.798 576.749 392.966 577.342 393.107 577.926C393.867 581.464 394.42 585.046 394.763 588.648L394.706 587.274C394.706 587.953 394.635 589.413 395.025 591.675L394.8 589.23V591.036L394.837 591.506C395.031 594.516 395.08 597.535 394.969 600.554L394.95 600.817V601.081C394.95 601.973 394.911 602.428 394.93 602.266L394.818 603.15V604.166C394.581 607.157 394.227 610.091 393.67 613.326C391.283 626.706 385.939 639.392 378.02 650.44C370.091 661.501 359.789 670.63 347.866 677.189C347.858 677.193 347.855 677.203 347.847 677.208C346.015 678.159 344.488 678.913 343.294 679.447L343.05 679.56L342.053 680.049C334.417 683.514 326.365 685.955 318.088 687.31L317.618 687.385L316.151 687.61C314.678 687.829 313.03 688.026 311.542 688.156L313.517 710.672C313.332 710.689 313.21 710.695 313.028 710.71L311.205 688.306C309.099 688.479 306.986 688.579 304.696 688.626H302.063C299.002 688.591 295.945 688.399 292.902 688.062L291.228 687.873L291.115 687.854C287.551 687.39 284.019 686.704 280.525 685.841C280.507 685.837 280.485 685.846 280.468 685.841C260.891 680.804 243.542 669.425 231.127 653.468C218.688 637.48 211.907 617.821 211.865 597.563C211.823 577.306 218.511 557.603 230.883 541.563C243.254 525.522 260.601 514.069 280.204 508.964L280.317 508.927L280.412 508.889H280.468C287.962 507.006 295.671 506.035 303.399 506.011L303.398 506.011ZM317.956 724.804C321.727 724.376 325.105 723.856 328.5 723.177C329.465 722.999 330.286 722.785 331.234 722.571L332.627 722.249C334.844 721.73 337.488 721.087 340.204 720.283C341.902 719.782 343.546 719.193 345.226 718.603L346.084 718.299C348.067 717.62 350.105 716.87 352.159 716.083C353.554 715.548 354.822 714.957 356.145 714.297L357.932 713.474C360.326 712.384 362.578 711.348 364.794 710.132L365.313 709.9C378.545 702.765 390.773 693.908 401.678 683.56C404.498 680.921 406.95 677.916 408.969 674.624C420.178 656.725 427.525 636.682 430.538 615.778C430.895 613.366 431.289 610.417 431.503 607.468C431.718 604.519 431.86 602.107 431.914 599.748C431.914 599.32 431.914 598.837 431.914 598.355C431.914 597.872 431.914 597.693 431.914 597.354C431.914 596.067 431.914 594.87 431.772 593.672C431.772 592.976 431.682 592.261 431.647 591.545C431.486 587.775 431.235 584.398 430.842 581.324C430.324 577.053 429.752 573.622 429.055 570.602C428.662 568.708 428.144 566.831 427.607 564.848L427.268 563.668C426.482 560.756 425.481 557.825 424.588 555.001C423.872 552.981 423.141 550.998 422.389 549.014C420.56 544.472 418.472 540.04 416.135 535.737C415.988 535.486 415.863 535.223 415.76 534.951L415.652 534.736C411.946 528.138 407.652 521.888 402.822 516.062C402.59 515.758 402.358 515.508 402.124 515.257L401.518 514.561C399.373 512.023 397.372 509.826 395.406 507.842C394.476 506.876 393.618 506.055 392.636 505.126L391.939 504.464C390.527 503.16 389.079 501.837 387.65 500.568C385.863 499.085 384.165 497.62 382.289 496.208L379.966 494.422C357.897 477.967 331.117 469.05 303.589 468.992C302.818 468.988 302.049 469.03 301.283 469.117C300.622 469.117 299.943 469.242 299.264 469.26C295.904 469.367 292.902 469.546 290.096 469.831C288.488 470.011 286.862 470.19 285.236 470.422C280.576 471.035 275.952 471.9 271.386 473.013C243.862 480.143 219.485 496.209 202.078 518.689C184.67 541.17 175.218 568.793 175.203 597.225C175.189 625.657 184.614 653.289 201.999 675.788C219.383 698.285 243.745 714.376 271.261 721.533C271.545 721.567 271.825 721.621 272.101 721.694C277.077 722.939 282.118 723.905 287.201 724.589C289.846 724.911 292.563 725.036 295.333 725.143L297.119 725.233C298.085 725.233 298.996 725.358 299.925 725.448C301.23 725.573 302.445 725.68 303.731 725.68C307.466 725.68 311.577 725.448 316.33 724.982H316.651H316.956C317.223 724.982 317.474 724.894 317.742 724.875L317.956 724.804ZM312.381 702.699C309.986 702.895 307.573 703.021 305.001 703.073H301.891C298.308 703.033 294.729 702.813 291.168 702.413L289.382 702.198C285.213 701.661 281.078 700.884 276.997 699.875C254.273 694.059 234.124 680.856 219.72 662.341C205.316 643.826 197.473 621.049 197.424 597.591C197.375 574.133 205.122 551.324 219.449 532.749C233.775 514.174 253.868 500.887 276.569 494.975L276.89 494.886C285.561 492.701 294.467 491.585 303.41 491.562C307.743 491.593 312.069 491.885 316.365 492.438L318.564 492.759L319.726 492.938C323.139 493.474 326.391 494.153 329.446 494.94L330.59 495.226L332.538 495.726C340.582 498.047 348.325 501.303 355.608 505.429C356.61 506.019 357.557 506.609 358.503 507.216L359.058 507.555C361.309 508.986 363.704 510.54 366.081 512.327L366.652 512.738C367.671 513.489 368.707 514.221 369.691 515.025C372.768 517.345 375.721 519.827 378.536 522.46C379.251 523.193 379.912 523.924 380.556 524.676L381.646 525.891C383.576 527.981 385.22 529.894 386.685 531.752C387.811 533.146 388.883 534.594 389.937 536.059C391.725 538.686 393.154 540.83 394.334 542.831L396.532 546.405C398.536 550.032 400.326 553.774 401.892 557.61C402.339 558.772 402.75 559.916 403.162 561.059L403.536 562.114C404.484 564.812 405.324 567.635 406.11 570.566C406.253 571.156 406.396 571.674 406.538 572.193C406.789 573.104 407.021 573.979 407.236 574.89C408.114 578.978 408.752 583.113 409.147 587.275C409.147 587.954 409.147 588.597 409.255 589.222V590.58C409.48 594.078 409.527 597.586 409.398 601.089C409.398 601.982 409.398 603.019 409.273 604.037V604.788C409.005 608.361 408.576 611.935 407.915 615.778C405.157 631.31 398.956 646.027 389.765 658.848C380.574 671.669 368.628 682.268 354.805 689.867C352.714 690.958 350.909 691.87 349.193 692.637L348.031 693.209C339.237 697.2 329.954 700.013 320.422 701.573L319.868 701.663L318.368 701.895C316.58 702.162 314.65 702.395 312.81 702.555M274.43 293.563C259.87 293.582 245.881 299.389 235.586 309.684C225.291 319.978 219.502 333.949 219.484 348.509V364.611C219.475 365.301 219.255 365.968 218.863 366.53C218.464 367.101 217.901 367.548 217.245 367.79L217.095 367.847L216.925 367.904C212.486 369.666 207.622 371.56 202.573 373.923L202.63 373.885C201.992 374.18 201.288 374.271 200.598 374.149C199.915 374.028 199.286 373.696 198.792 373.208H198.773L187.28 361.696L187.242 361.658C176.922 351.486 163.002 345.782 148.511 345.782C134.019 345.782 120.099 351.485 109.779 361.658L109.742 361.715L68.2642 403.268L68.2454 403.287C58.0213 413.609 52.2751 427.566 52.2751 442.094C52.2751 456.622 58.0213 470.56 68.2454 480.882L68.2642 480.919L79.7576 492.394C80.257 492.893 80.5755 493.527 80.6981 494.218C80.8213 494.914 80.7299 495.614 80.4348 496.25L80.416 496.307L80.3972 496.344C78.2282 501.1 76.2556 505.85 74.3777 510.733L74.34 510.846L74.2836 510.94C74.0526 511.57 73.6338 512.115 73.0797 512.501C72.5226 512.885 71.8577 513.093 71.1798 513.084H71.1046H54.9085H54.8898C40.3435 513.117 26.386 518.917 16.102 529.205C5.81801 539.493 0.0255897 553.446 0 567.993V568.012V626.57C0.0191931 641.133 5.81971 655.118 16.1208 665.414C26.4208 675.71 40.4001 681.504 54.965 681.516H71.0105C71.7104 681.519 72.3753 681.717 72.948 682.118C73.5188 682.517 73.9656 683.098 74.2084 683.754L74.2648 683.905L74.3212 684.055C76.0837 688.495 77.9635 693.346 80.3031 698.37C80.5904 699.001 80.6885 699.714 80.5664 700.402C80.4434 701.075 80.1173 701.685 79.6447 702.17L68.0761 713.701L68.0196 713.758C57.8533 724.079 52.1434 738.001 52.1434 752.489C52.1434 766.977 57.8521 780.899 68.0196 791.221L68.0573 791.258L109.535 832.736L109.573 832.773C119.888 842.961 133.804 848.687 148.304 848.687C162.803 848.687 176.738 842.96 187.054 832.773L187.092 832.754L198.585 821.261C198.905 820.94 199.284 820.678 199.695 820.508H199.714C200.133 820.335 200.578 820.244 201.031 820.245H201.05H201.069C201.532 820.244 201.991 820.353 202.405 820.546L202.555 820.621L202.706 820.678C206.799 822.472 211.449 824.503 216.814 826.641L217.021 826.735L217.228 826.81C217.873 827.044 218.416 827.454 218.808 828.014C219.199 828.573 219.411 829.248 219.41 829.933V846.035V846.054C219.423 860.617 225.216 874.579 235.512 884.88V884.899C245.807 895.199 259.792 901 274.356 901.02H332.97H332.989C347.552 901 361.519 895.199 371.815 884.899V884.88C382.11 874.579 387.904 860.617 387.917 846.054V846.035V829.971V829.951C387.922 829.265 388.147 828.6 388.538 828.033C388.938 827.458 389.496 827.016 390.155 826.772L390.325 826.716L390.475 826.659C394.92 824.896 399.749 823.016 404.771 820.677C405.409 820.382 406.114 820.291 406.803 820.414C407.495 820.537 408.132 820.859 408.627 821.354L420.177 832.923L420.215 832.96C430.536 843.128 444.458 848.837 458.946 848.837C473.435 848.837 487.356 843.127 497.677 832.96L497.715 832.923L539.136 791.502L539.156 791.464C549.336 781.146 555.051 767.228 555.051 752.733C555.051 738.238 549.336 724.319 539.156 714.001L539.136 713.964L527.643 702.452C527.145 701.953 526.824 701.333 526.702 700.646V700.626C526.58 699.935 526.671 699.232 526.966 698.595L527.022 698.482L527.06 698.35C528.865 694.255 530.905 689.604 533.042 684.242L533.099 684.092L533.156 683.941C533.399 683.288 533.843 682.723 534.416 682.324C534.988 681.925 535.654 681.706 536.353 681.703H563.384L564.08 679.201C574.211 676.951 583.846 672.858 591.3 665.413C601.605 655.116 607.401 641.136 607.42 626.569V568.011C607.402 553.451 601.613 539.481 591.318 529.186C581.023 518.891 567.053 513.084 552.493 513.065H552.474H536.466C535.763 513.062 535.08 512.844 534.509 512.445C533.937 512.044 533.51 511.482 533.268 510.827L533.193 510.676L533.136 510.526C531.375 506.086 529.49 501.246 527.154 496.23V496.21C526.866 495.577 526.769 494.867 526.891 494.179C527.014 493.488 527.355 492.869 527.85 492.373L539.342 480.861L539.379 480.804C549.536 470.469 555.221 456.545 555.199 442.054C555.177 427.562 549.437 413.645 539.247 403.342L539.228 403.304L497.732 361.845L497.694 361.826C487.369 351.616 473.427 345.875 458.906 345.875C444.385 345.875 430.443 351.615 420.119 361.826L420.081 361.845L408.606 373.339C408.112 373.833 407.473 374.157 406.782 374.279C406.092 374.402 405.389 374.312 404.75 374.016L404.619 373.959L404.468 373.902C400.375 372.108 395.725 370.078 390.36 367.94L390.191 367.865L390.022 367.808C389.382 367.572 388.832 367.147 388.442 366.586C388.054 366.027 387.856 365.367 387.859 364.686V364.648V348.546V348.527C387.845 333.98 382.051 320.018 371.775 309.72C361.5 299.421 347.552 293.608 333.006 293.562H332.987L274.43 293.563ZM274.411 345.01H332.968C333.912 345.016 334.819 345.393 335.489 346.063C336.159 346.733 336.518 347.635 336.524 348.584V364.724V364.781C336.612 375.869 340.04 386.677 346.343 395.799C352.645 404.922 361.547 411.94 371.888 415.946L371.925 415.965L371.963 415.984C375.829 417.456 379.713 419.055 383.438 420.743L383.457 420.763H383.476C393.619 425.326 404.903 426.724 415.849 424.769C426.797 422.813 436.901 417.587 444.837 409.796L444.894 409.758L456.293 398.359C456.993 397.671 457.905 397.287 458.889 397.287C459.874 397.287 460.803 397.671 461.503 398.359L502.774 439.63C503.438 440.305 503.809 441.186 503.809 442.132C503.809 443.084 503.431 443.994 502.755 444.671L491.262 456.183L491.224 456.24C483.433 464.188 478.205 474.307 476.251 485.265C474.303 496.205 475.707 507.482 480.258 517.62C481.999 521.522 483.66 525.393 485.017 529.038L485.054 529.132L485.092 529.227C489.105 539.551 496.123 548.438 505.238 554.734C514.353 561.031 525.144 564.454 536.22 564.553H536.276H552.435C553.384 564.559 554.285 564.936 554.956 565.606C555.632 566.283 555.989 567.172 555.99 568.127V626.647C555.984 627.594 555.625 628.48 554.956 629.149V629.168H554.936C554.262 629.843 553.371 630.202 552.416 630.203H536.295H536.238C525.15 630.292 514.341 633.72 505.219 640.022C496.115 646.312 489.101 655.198 485.092 665.511L485.035 665.492C483.565 669.348 481.959 673.213 480.257 676.985L480.238 677.004V677.023C475.692 687.163 474.296 698.438 476.25 709.378C478.203 720.319 483.428 730.426 491.204 738.365L491.242 738.422L502.735 749.915C503.408 750.588 503.77 751.486 503.77 752.436C503.77 753.386 503.409 754.282 502.735 754.957L502.622 755.07L461.408 796.359C460.73 797.035 459.821 797.413 458.868 797.413C457.923 797.413 457.023 797.042 456.348 796.378L456.329 796.359L444.816 784.865L444.779 784.828C436.841 777.046 426.733 771.827 415.791 769.873C404.848 767.918 393.576 769.312 383.437 773.861C379.542 775.6 375.681 777.271 372 778.658L371.925 778.677L371.868 778.715C361.536 782.722 352.64 789.743 346.342 798.861C340.05 807.975 336.614 818.785 336.523 829.861V829.918V846.039C336.522 846.994 336.165 847.902 335.488 848.578C334.814 849.252 333.902 849.612 332.949 849.613H274.447C273.492 849.612 272.603 849.255 271.927 848.578C271.255 847.906 270.879 847.006 270.873 846.058V846.038V829.917V829.861C270.785 818.77 267.359 807.961 261.055 798.838C254.752 789.715 245.868 782.697 235.529 778.692L235.472 778.672L235.416 778.653C231.554 777.189 227.718 775.571 223.979 773.876H223.942L223.904 773.857C213.766 769.315 202.507 767.934 191.569 769.888H191.549C180.613 771.842 170.521 777.05 162.581 784.824L162.524 784.861L150.993 796.392V796.411C150.676 796.73 150.286 796.989 149.864 797.164C149.446 797.337 149.002 797.428 148.548 797.427L148.51 797.408L148.453 797.427C147.998 797.429 147.557 797.338 147.137 797.164C146.717 796.99 146.326 796.732 146.008 796.411L145.989 796.392L104.605 755.027C103.94 754.35 103.57 753.46 103.57 752.507C103.57 751.547 103.95 750.643 104.624 749.967L116.117 738.455L116.174 738.398C123.943 730.456 129.141 720.367 131.091 709.43C133.039 698.494 131.649 687.213 127.103 677.075C125.365 673.183 123.715 669.324 122.363 665.676L122.325 665.601L122.288 665.506C118.291 655.164 111.28 646.252 102.161 639.944C93.0419 633.636 82.2306 630.217 71.1422 630.124H71.0858H54.9462C53.9909 630.124 53.1009 629.746 52.4255 629.071C51.749 628.394 51.3731 627.487 51.3721 626.532V568.03C51.3731 567.075 51.7507 566.184 52.4255 565.51C53.1007 564.834 53.9909 564.457 54.9462 564.456H71.067H71.1234C82.2191 564.376 93.0481 560.959 102.18 554.656C111.311 548.352 118.337 539.458 122.345 529.111L122.364 529.054L122.384 529.016C123.849 525.154 125.448 521.299 127.143 517.561L127.162 517.523V517.504C131.71 507.363 133.105 496.09 131.15 485.149C129.196 474.209 123.99 464.101 116.214 456.162L116.139 456.105L104.589 444.593C104.265 444.264 104.013 443.889 103.837 443.464C103.658 443.033 103.573 442.562 103.573 442.091C103.573 441.622 103.658 441.169 103.837 440.737C104.016 440.304 104.275 439.903 104.608 439.571L145.915 398.263L145.934 398.244C146.609 397.581 147.509 397.228 148.455 397.228C149.411 397.228 150.301 397.59 150.975 398.263L162.488 409.756L162.544 409.813C170.482 417.593 180.589 422.795 191.532 424.749C202.473 426.703 213.745 425.312 223.886 420.761C227.756 419.026 231.596 417.374 235.248 416.021L235.342 415.983L235.455 415.945C245.796 411.942 254.691 404.919 261 395.799C267.309 386.68 270.738 375.888 270.838 364.799V364.724V348.603V348.584C270.844 347.635 271.222 346.733 271.892 346.063C272.569 345.386 273.461 345.011 274.412 345.01L274.411 345.01ZM552.429 667.062C563.175 667.057 573.48 662.789 581.083 655.193C588.685 647.598 592.962 637.297 592.976 626.551V568.025C592.963 557.286 588.689 546.989 581.095 539.395C573.501 531.801 563.205 527.527 552.465 527.514H536.382C532.745 527.496 529.201 526.37 526.222 524.285C523.242 522.2 520.97 519.255 519.709 515.845C517.922 511.341 516.135 506.767 514.044 502.281C512.51 498.964 512.032 495.257 512.67 491.658C513.31 488.061 515.037 484.745 517.618 482.159L529.073 470.687C536.574 463.054 540.769 452.777 540.753 442.076C540.736 431.374 536.508 421.111 528.983 413.502L487.543 372.097C479.918 364.557 469.628 360.328 458.906 360.328C448.182 360.328 437.892 364.557 430.268 372.097L418.813 383.551C416.226 386.137 412.907 387.866 409.305 388.504C405.704 389.144 401.993 388.662 398.674 387.125C394.6 385.339 390.132 383.39 385.021 381.353C381.603 380.093 378.656 377.812 376.578 374.82C374.501 371.828 373.393 368.27 373.405 364.627V348.544C373.396 337.813 369.135 327.523 361.555 319.927C353.977 312.33 343.695 308.047 332.965 308.014H274.44C263.701 308.028 253.404 312.301 245.81 319.895C238.216 327.49 233.942 337.786 233.929 348.526V364.609C233.921 368.254 232.8 371.811 230.714 374.8C228.629 377.79 225.678 380.071 222.259 381.335C217.756 383.123 213.163 384.909 208.695 387C205.378 388.533 201.671 389.013 198.073 388.374C194.476 387.735 191.16 386.008 188.574 383.426L177.102 371.953C169.48 364.441 159.21 360.23 148.509 360.23C137.808 360.23 127.537 364.441 119.917 371.953L78.5113 413.448C70.9629 421.068 66.7282 431.36 66.7282 442.085C66.7282 452.81 70.9629 463.102 78.5113 470.722L89.9661 482.177C92.555 484.766 94.2866 488.088 94.9261 491.693C95.5647 495.299 95.0812 499.014 93.5402 502.334C91.5032 506.802 89.6444 511.27 87.8575 515.916C86.5963 519.358 84.2979 522.324 81.2795 524.405C78.2611 526.485 74.6715 527.578 71.0059 527.531H54.9227C44.1919 527.555 33.9077 531.83 26.3216 539.419C18.7355 547.008 14.4655 557.294 14.4466 568.025V626.551C14.4608 637.293 18.736 647.593 26.3342 655.188C33.9325 662.782 44.2331 667.053 54.9762 667.062H71.0594C74.6988 667.076 78.2471 668.201 81.2297 670.286C84.2125 672.371 86.4874 675.319 87.7502 678.732C89.5375 683.234 91.3241 687.809 93.415 692.295C94.9483 695.612 95.427 699.319 94.7884 702.917C94.1489 706.515 92.423 709.831 89.8409 712.417L78.3147 723.889C70.8063 731.512 66.5975 741.782 66.5975 752.482C66.5975 763.181 70.8063 773.452 78.3147 781.074L119.72 822.497C127.336 830.018 137.608 834.237 148.312 834.237C159.016 834.237 169.289 830.018 176.905 822.497L188.378 811.042C190.041 809.379 192.016 808.059 194.19 807.162C196.365 806.263 198.694 805.803 201.047 805.806C203.622 805.803 206.165 806.363 208.499 807.451C212.574 809.237 217.041 811.186 222.152 813.222C225.586 814.469 228.553 816.743 230.648 819.736C232.742 822.729 233.862 826.296 233.857 829.949V846.033C233.866 856.775 238.137 867.076 245.732 874.675C253.327 882.273 263.625 886.548 274.369 886.562H332.965C343.708 886.548 354.007 882.273 361.602 874.675C369.197 867.076 373.467 856.775 373.477 846.033V829.949C373.484 826.303 374.606 822.748 376.691 819.758C378.777 816.768 381.727 814.488 385.146 813.222C389.649 811.436 394.224 809.648 398.709 807.557C402.026 806.025 405.734 805.545 409.331 806.184C412.93 806.824 416.246 808.55 418.832 811.132L430.358 822.676C437.98 830.185 448.251 834.394 458.95 834.394C469.65 834.394 479.92 830.185 487.543 822.676L528.876 781.324C536.394 773.706 540.608 763.435 540.608 752.731C540.608 742.029 536.394 731.758 528.876 724.14L517.421 712.667C514.836 710.079 513.107 706.76 512.468 703.159C511.828 699.557 512.31 695.846 513.847 692.527C515.635 688.471 517.582 684.003 519.619 678.893C520.887 675.488 523.161 672.552 526.14 670.473C529.119 668.395 532.661 667.274 536.292 667.258H552.375L552.429 667.062ZM498.533 670.636C496.96 674.764 495.245 678.892 493.422 682.931C490.062 690.424 489.037 698.755 490.481 706.838C491.925 714.923 495.771 722.384 501.516 728.25L512.953 739.704C516.329 743.082 518.225 747.662 518.225 752.437C518.225 757.212 516.329 761.791 512.953 765.17L512.828 765.294L471.602 806.592C468.222 809.963 463.643 811.857 458.87 811.857C454.096 811.857 449.517 809.963 446.137 806.592L434.664 795.138C428.8 789.389 421.339 785.543 413.254 784.099C405.17 782.654 396.838 783.681 389.346 787.042C385.342 788.83 381.214 790.616 377.087 792.172C369.451 795.133 362.881 800.32 358.226 807.059C353.571 813.796 351.046 821.778 350.979 829.967V846.05C350.974 850.826 349.074 855.405 345.697 858.782C342.32 862.159 337.741 864.058 332.965 864.063H274.44C269.664 864.058 265.085 862.159 261.708 858.782C258.331 855.405 256.432 850.826 256.427 846.05V829.967C256.361 821.772 253.835 813.786 249.177 807.044C244.518 800.301 237.942 795.114 230.301 792.153C226.155 790.581 222.027 788.865 218.006 787.042C210.513 783.686 202.182 782.662 194.099 784.106C186.016 785.55 178.555 789.394 172.688 795.138L161.232 806.592C159.566 808.269 157.583 809.598 155.399 810.504C153.215 811.409 150.873 811.871 148.509 811.865C146.141 811.873 143.796 811.412 141.609 810.507C139.422 809.602 137.436 808.271 135.768 806.592L94.3983 765.241C91.0255 761.858 89.133 757.276 89.133 752.499C89.133 747.723 91.0255 743.141 94.3983 739.758L105.853 728.303C111.594 722.434 115.435 714.972 116.875 706.888C118.315 698.806 117.29 690.476 113.93 682.985C112.143 678.981 110.356 674.853 108.819 670.707C105.865 663.064 100.682 656.485 93.9418 651.823C87.2028 647.161 79.2181 644.632 71.0237 644.564H54.9405C50.1645 644.559 45.5856 642.66 42.2085 639.283C38.8314 635.905 36.9321 631.327 36.9274 626.551V568.025C36.9321 563.249 38.8314 558.671 42.2085 555.294C45.5856 551.916 50.1645 550.017 54.9405 550.012H71.0237C79.2246 549.953 87.2185 547.431 93.9678 542.773C100.717 538.113 105.91 531.533 108.873 523.886C110.446 519.74 112.161 515.612 113.983 511.592C117.343 504.099 118.368 495.767 116.924 487.684C115.48 479.6 111.634 472.139 105.888 466.273L94.3983 454.836C92.7245 453.163 91.3963 451.177 90.49 448.991C89.5838 446.804 89.1176 444.461 89.1176 442.094C89.1176 439.727 89.5838 437.384 90.49 435.198C91.3963 433.012 92.7245 431.026 94.3983 429.353L135.714 388.036C139.094 384.666 143.673 382.773 148.446 382.773C153.22 382.773 157.799 384.666 161.178 388.036L172.652 399.492C178.516 405.239 185.978 409.087 194.062 410.531C202.146 411.974 210.478 410.949 217.97 407.587C221.956 405.8 226.083 404.012 230.23 402.476C237.875 399.517 244.456 394.33 249.12 387.589C253.784 380.847 256.317 372.861 256.392 364.663V348.58C256.396 343.804 258.296 339.224 261.672 335.847C265.05 332.471 269.628 330.571 274.405 330.567H332.965C337.741 330.571 342.32 332.471 345.697 335.847C349.074 339.224 350.974 343.804 350.979 348.58V364.663C351.044 372.857 353.57 380.843 358.229 387.586C362.886 394.327 369.463 399.516 377.105 402.476C381.233 404.048 385.379 405.764 389.399 407.587C396.89 410.957 405.224 411.986 413.309 410.542C421.395 409.098 428.857 405.246 434.718 399.492L446.155 388.055C449.554 384.713 454.13 382.84 458.896 382.84C463.663 382.84 468.239 384.713 471.638 388.055L512.989 429.406C516.36 432.786 518.253 437.365 518.253 442.139C518.253 446.912 516.36 451.491 512.989 454.871L501.535 466.344C495.776 472.218 491.923 479.692 490.479 487.79C489.035 495.887 490.066 504.232 493.44 511.734C495.226 515.737 497.014 519.865 498.55 523.993C501.516 531.625 506.704 538.194 513.442 542.848C520.179 547.502 528.157 550.029 536.345 550.102H552.429C557.205 550.107 561.784 552.006 565.161 555.383C568.538 558.76 570.438 563.339 570.442 568.115V626.64C570.438 631.415 568.538 635.995 565.161 639.371C561.784 642.749 557.205 644.648 552.429 644.653H536.345C528.151 644.719 520.165 647.245 513.422 651.903C506.681 656.561 501.493 663.137 498.533 670.779" fill="black"/>
</svg>
