<svg viewBox="0 0 900 836" xmlns="http://www.w3.org/2000/svg">
<path d="M743.611 390.594C737.914 391.348 732.348 393.2 727.266 396.103C717.102 401.91 709.617 411.474 706.419 422.735C703.219 433.996 704.558 446.075 710.153 456.358C715.746 466.641 725.152 474.322 736.345 477.755L736.455 477.791L736.547 477.828C740.532 478.955 744.653 479.517 748.792 479.53H748.81H748.829C759.623 479.515 770.053 475.608 778.188 468.511C786.323 461.415 791.624 451.601 793.105 440.91C794.585 430.218 792.16 419.346 786.259 410.307C780.359 401.267 771.385 394.659 761.001 391.71L760.909 391.692L760.799 391.655C755.137 390.174 749.309 389.839 743.612 390.594L743.611 390.594ZM748.718 425.132C749.622 425.135 750.522 425.272 751.39 425.517C753.85 426.219 755.929 427.859 757.174 430.093C758.415 432.32 758.724 434.94 758.034 437.396C758.033 437.402 758.036 437.408 758.034 437.414C757.602 438.931 756.788 440.321 755.692 441.46C754.591 442.601 753.243 443.444 751.738 443.93H751.719C750.214 444.417 748.614 444.541 747.052 444.26C745.494 443.979 744.031 443.304 742.787 442.32C741.546 441.338 740.582 440.074 739.95 438.623C739.319 437.17 739.054 435.588 739.181 434.01C739.309 432.432 739.825 430.913 740.682 429.581C741.538 428.25 742.703 427.148 744.087 426.378L744.123 426.359L744.142 426.34C745.537 425.55 747.118 425.132 748.718 425.132V425.132ZM758.434 400.73C749.478 398.387 739.96 399.647 731.922 404.24C723.883 408.832 717.964 416.392 715.435 425.298C712.905 434.203 713.965 443.746 718.39 451.878C722.813 460.011 730.247 466.087 739.098 468.802C742.261 469.697 745.533 470.155 748.82 470.165C757.356 470.153 765.601 467.056 772.034 461.445C778.467 455.833 782.654 448.085 783.826 439.629C784.996 431.173 783.071 422.579 778.405 415.43C773.739 408.282 766.646 403.061 758.434 400.73ZM767.045 439.959C766.193 442.965 764.612 445.715 762.443 447.965C760.274 450.214 757.583 451.894 754.61 452.855C751.636 453.816 748.472 454.028 745.397 453.474C742.321 452.919 739.431 451.614 736.98 449.675C734.53 447.736 732.596 445.222 731.349 442.357C730.103 439.491 729.583 436.362 729.835 433.248C730.087 430.133 731.104 427.129 732.794 424.501C734.485 421.873 736.799 419.703 739.528 418.183C742.34 416.591 745.517 415.756 748.748 415.761C750.514 415.767 752.27 416.014 753.968 416.497C758.81 417.879 762.906 421.125 765.358 425.524C767.809 429.922 768.416 435.114 767.045 439.959V439.959ZM381.718 260.787C366.341 262.609 352.775 266.835 342.219 273.892L342.2 273.911C327.974 283.462 321.223 300.125 326.02 315.953H326.039L348.497 389.551C294.891 436.811 259.359 490.636 242.1 520.768C235.292 532.558 229.782 545.018 224.162 557.411C208.028 533.22 184.949 507.372 157.52 491.135H157.501C109.556 462.738 52.4243 464.682 22.8805 473.325H22.8623C13.4852 476.087 6.01069 479.752 2.27102 487.163V487.181L2.25271 487.2C1.07879 489.547 -0.0447093 493.325 0.00137028 497.595C0.0474499 501.866 0.986517 506.749 3.09464 513.043V513.062C11.1644 537.009 38.2816 584.918 90.4931 610.747L90.5297 610.765H90.548C111.597 621.019 134.391 626.243 157.557 628.776C139.732 643.786 123.692 660.804 111.926 681.05V681.069L111.908 681.088C82.9184 731.595 86.9069 786.489 93.6957 810.95C95.4536 817.34 97.3909 821.909 99.7359 825.483C102.083 829.06 105.143 831.576 107.478 832.877L107.515 832.914L107.551 832.933C110.892 834.753 114.66 835.637 118.46 835.513H118.515H118.571C123.283 835.303 127.938 834.396 132.39 832.841C161.685 823.519 210.139 793.454 234.156 743.21V743.191C247.918 714.415 252.7 680.086 252.624 650.997C264.188 658.145 275.7 665.403 287.913 671.387C287.917 671.389 287.928 671.385 287.932 671.387C287.939 671.391 287.943 671.402 287.951 671.406C319.094 686.815 378.549 711.741 449.386 721.136L471.789 794.825C476.609 810.653 491.508 820.743 508.652 820.743C534.022 820.743 563.079 804.583 589.773 780.585C615.337 757.603 637.727 726.684 649.423 693.04C733.453 656.907 800.485 606.313 844.005 554.354C888.1 501.709 909.272 447.357 896.151 404.193L894.12 397.549H892.582C876.645 357.778 831.554 326.63 769.218 308.485C704.143 289.543 620.282 284.814 530.322 301.603C501.903 280.151 466.094 266.942 432.052 262.086C414.276 259.551 397.094 258.964 381.718 260.787ZM421.033 296.259C440.642 298.404 461.336 304.97 480.775 313.775C441.902 325.798 408.106 344.787 378.405 366.598L359.827 305.795C359.539 304.835 359.663 304.973 359.607 305.154C359.551 305.335 359.523 304.712 361.95 303.086C370.408 297.412 394.197 293.322 421.033 296.259L421.033 296.259ZM625.042 327.338C603.004 360.156 580.785 413.925 604.744 492.727C628.699 571.515 677.116 603.848 713.685 618.818C680.384 639.873 645.352 658.09 608.368 671.77H608.349C519.918 704.715 426.98 686.568 364.458 665.199C298.861 642.775 254.926 612.849 244.076 602.657L243.893 602.492C243.896 602.394 243.91 602.297 243.912 602.199C247.312 587.651 267.14 538.431 309.127 483.264C349.113 430.753 416.207 363.973 508.066 342.035H508.085C546.419 332.787 585.657 328.402 625.043 327.338L625.042 327.338ZM668.513 327.649C695.262 329.161 721.875 332.742 747.894 339.162C811.626 355.23 853.679 385.495 862.473 414.425C871.268 443.358 853.187 491.904 809.174 540.718C791.128 560.541 771.018 578.323 749.633 594.475C720.34 586.812 664.329 568.034 638.349 482.587C612.363 397.122 648.446 350.319 668.513 327.649ZM72.025 503.013C92.8924 503.653 117.672 508.334 139.601 521.317C159.096 532.845 176.241 550.058 188.617 565.977C194.805 573.936 199.827 581.566 203.37 587.868C204.62 590.092 204.574 590.62 205.438 592.48C198.92 594.138 190.627 596.556 175.146 596.122C155.152 595.562 130.423 591.28 106.088 579.247C106.083 579.244 106.074 579.249 106.069 579.247C79.3595 566.055 61.5469 545.398 51.3056 530.358H51.2874C43.601 519.091 41.9465 512.884 39.7196 506.765C47.134 504.998 56.1019 502.525 72.025 503.013ZM224.455 607.361L224.199 608.514L225.023 609.319L222.643 609.685C218.553 610.308 213.226 612.418 207.744 614.755L211.094 612.522H206.921C212.843 611.408 218.466 610.159 222.241 608.386L224.455 607.361ZM217.518 632.271C217.833 634.295 218.164 634.711 218.36 637.25C218.918 644.458 218.982 653.585 218.268 663.643C216.843 683.759 212.207 707.597 202.473 728.034C191.479 751.033 173.495 768.722 156.513 780.876C143.549 790.154 134.706 793.084 127.575 795.739C126.015 789.406 123.951 783.335 124.061 769.711V769.692C124.197 751.494 127.509 724.391 142.364 698.602V698.584C155.904 675.025 174.061 657.707 190.356 646.108C202.964 637.134 211.181 634.523 217.518 632.271L217.518 632.271ZM601.815 709.804C590.514 728.265 576.792 745.55 561.475 758.436C541.061 775.61 519.476 785.26 509.127 785.489H508.505C505.575 785.489 505.238 784.961 505.393 785.086C505.549 785.211 505.542 785.422 505.265 784.5V784.482L487.053 724.502C492.428 724.731 497.724 725.124 503.197 725.124C536.724 725.363 569.774 719.428 601.815 709.804V709.804ZM887.126 406.92C863.915 330.598 708.452 276.624 528.595 311.279C474.227 267.655 382.388 258.31 347.428 281.682C335.805 289.486 331.285 300.983 334.998 313.234L359.141 392.302C303.967 439.513 267.661 494.993 250.226 525.432C240.965 541.468 232.809 558.116 225.814 575.262C211.787 549.684 183.195 517.217 152.737 499.19C107.894 472.625 52.0553 474.544 25.5081 482.311C17.0417 484.804 12.5932 487.513 10.6381 491.387C9.27486 494.114 8.18067 498.706 11.9834 510.06C19.1583 531.352 45.5261 578.042 94.6566 602.347C121.118 615.238 150.172 621.925 179.608 621.899H180.11C155.465 638.31 134.915 660.156 120.038 685.755C92.7552 733.289 96.7192 786.796 102.728 808.446C105.903 819.998 109.365 823.209 112.038 824.698C113.91 825.719 116.022 826.22 118.154 826.151C121.996 825.979 125.792 825.242 129.419 823.963C155.751 815.621 203.213 786.222 225.706 739.155C240.989 707.208 246.656 664.338 244.056 635.262C259.412 645.588 275.455 654.853 292.074 662.993C323.536 678.563 384.558 704.446 456.684 712.93L480.757 792.088C484.487 804.339 494.64 811.37 508.648 811.37C550.622 811.37 621.653 752.482 642.605 685.971C811.214 614.635 910.39 483.28 887.179 406.92H887.126ZM350.854 308.481C349.778 304.893 349.455 300.176 356.738 295.297C381.473 278.705 456.039 282.741 507.088 315.871L502.192 317.001C451.967 329.019 408.917 353.002 373.043 381.145L350.854 308.481ZM101.939 587.656C73.2392 573.486 54.3871 551.549 43.553 535.638C32.2346 519.046 27.0865 505.056 25.9924 499.334C39.1225 493.683 96.9348 485.163 144.379 513.253C186.208 537.989 215.59 585.164 218.406 599.083C218.406 599.37 218.298 599.639 218.262 599.908C206.082 605.63 153.526 613.163 101.921 587.639L101.939 587.656ZM210.926 732.069C187.141 781.827 134.352 806.957 120.325 809.559C118.046 804.178 114.53 789.702 114.692 769.63C114.836 750.384 118.28 721.63 134.244 693.917C162.943 643.98 210.747 620.984 224.056 618.958L224.63 619.567C230.011 632.697 231.805 688.231 210.926 732.069V732.069ZM237.653 609.594C236.797 608.043 235.715 606.629 234.442 605.396C234.812 603.664 234.921 601.887 234.764 600.123C238.818 582.723 258.926 533.755 301.671 477.593C342.388 424.122 410.873 355.62 505.887 332.929C550.925 322.063 597.116 316.703 643.447 316.965C620.308 345.288 586.586 400.804 613.707 490.006C640.829 579.208 699.806 606.599 734.748 617.182C696.419 643.203 655.077 664.482 611.627 680.554C520.147 714.635 425.079 695.818 361.419 674.061C294.675 651.245 250.693 621.737 237.653 609.486V609.594ZM508.505 794.868C499.733 794.868 497.366 790.779 496.289 787.19L474.263 714.635C483.769 715.334 493.42 715.746 503.196 715.746C542.113 716.032 580.768 709.35 617.33 696.016L622.03 694.222C598.084 750.186 538.388 795.03 508.595 795.03L508.505 794.868ZM751.932 604.984C723.465 597.809 657.635 578.221 629.385 485.307C601.133 392.391 644.901 339.458 664.56 317.646C693.423 318.981 722.086 323.138 750.139 330.06C815.555 346.544 860.919 377.055 871.448 411.692C881.977 446.329 861.295 496.93 816.112 547.029C796.661 568.396 775.166 587.806 751.932 604.984V604.984ZM408.367 1.5931C391.412 -0.275497 371.3 0.0439715 347.527 3.73459L347.417 3.75289L347.289 3.78949C344.061 4.46112 341.205 6.34903 339.327 9.06086C337.45 11.7713 336.697 15.1003 337.204 18.359C337.711 21.618 339.443 24.565 342.054 26.5772C344.666 28.5891 347.963 29.5167 351.243 29.1762L351.352 29.158L351.48 29.1397C434.065 16.3351 460.236 46.735 467.89 59.4866C472.627 67.3392 474.9 76.4287 474.424 85.5871C474.359 86.8459 473.329 87.8223 473.161 89.0648C472.708 80.8704 471.493 72.628 467.213 65.5633V65.545C459.593 52.8798 434.411 26.2377 371.211 35.9668C369.491 36.1511 367.818 36.6613 366.306 37.5043C364.784 38.3538 363.436 39.5071 362.371 40.8904C361.307 42.272 360.535 43.8499 360.101 45.5394H360.12C359.684 47.2332 359.596 48.9975 359.864 50.7193C360.131 52.4463 360.749 54.0912 361.676 55.5697C362.603 57.0501 363.813 58.3297 365.245 59.3218C366.679 60.3154 368.311 61.0069 370.022 61.3535C371.728 61.6983 373.482 61.689 375.184 61.3352L374.964 61.3719C392.538 58.6494 407.963 59.1459 419.99 62.3054C432.017 65.4648 440.493 71.1768 445.084 78.7967V78.8149C447.63 83.0045 448.872 87.8467 448.635 92.7438C448.399 97.6404 446.704 102.363 443.766 106.288C438.527 113.278 429.46 116.461 418.618 116.849C420.881 111.471 423.676 105.932 423.614 101.218C423.457 91.3985 416.112 83.4333 406.519 83.1528C383.127 82.4582 362.302 81.0029 342.969 79.4738C340.615 75.3149 337.999 71.2564 334.092 68.4552C329.23 64.9688 323.509 62.8699 317.546 62.3785C311.584 61.8871 305.598 63.0111 300.231 65.6548C295.886 67.7948 292.594 71.3986 289.579 75.1542C271.936 73.7807 254.467 72.6132 237.469 72.2806L238.11 72.3355C236.77 72.1243 235.404 72.1245 234.065 72.3355L234.852 72.2806C208.836 71.9363 183.834 73.5846 160.686 79.4921C116.386 90.8193 82.8218 116.667 56.2109 159.716C42.4975 181.604 34.0089 206.349 31.3 232.032C31.0658 233.07 30.9747 234.135 31.0072 235.199C28.5952 263.727 34.2372 293.418 46.1075 323.421L44.8262 323.091L48.7065 331.95C49.9242 334.727 51.1867 337.415 52.477 340.077V340.205L52.9529 341.175C64.8616 365.729 80.264 388.439 98.693 408.568L98.7295 408.604L98.7848 408.66C102.677 412.678 106.933 416.307 111.396 419.678C130.836 462.397 154.678 488.123 183.163 494.008H183.182C187.247 494.848 191.385 495.271 195.537 495.271C218.986 495.271 237.033 481.903 246.493 473.069L246.512 473.05C247.654 471.99 250.373 469.525 252.515 465.93C254.664 462.326 256.292 457.186 254.748 451.581H254.767C253.682 447.615 251.219 444.32 248.087 441.935C246.778 440.939 244.952 440.454 243.437 439.683C257.293 429.114 267.608 412.76 272.869 397.805C277.262 385.301 278.754 375.613 274.754 368.264C273.765 366.447 272.418 364.846 270.801 363.56C269.182 362.273 267.32 361.332 265.328 360.778C260.307 359.346 255.164 360.466 249.844 362.663C244.51 364.865 238.68 368.237 231.504 372.345C219.163 379.412 203.732 387.859 193.982 389.148C171.574 392.111 161.145 390.992 152.946 389.441C150.205 382.28 147.018 375.289 142.934 368.795L142.878 368.685C134.806 355.159 128.334 343.181 124.886 331.383C124.824 331.135 124.753 330.899 124.667 330.65L124.758 330.888C118.321 308.273 122.057 285.539 148.461 249.347C163.25 229.121 177.762 219.504 194.128 214.552C210.494 209.6 229.025 209.501 251.07 209.482C262.472 209.482 274.351 209.494 287.201 208.714C332.861 206.069 367.562 179.613 384.263 164.127L384.282 164.108H384.301C387.337 161.238 390.326 158.194 393.214 155.121C401.211 156.76 409.317 157.867 417.485 157.903H417.503C445.605 157.903 470.346 147.011 485.83 126.366H485.811C494.42 114.953 499.422 101.218 500.161 86.9409C500.899 72.6701 497.345 58.5085 489.966 46.2709V46.2526C481.74 32.5617 459.221 7.19763 408.367 1.5931ZM407.361 10.7082C455.533 15.7286 474.866 39.3218 481.928 51.0853L481.947 51.1036C488.366 61.7429 491.447 74.0565 490.806 86.4657C490.164 98.8757 485.824 110.81 478.341 120.73H478.323C464.751 138.825 443.221 148.527 417.519 148.532C409.104 148.496 400.72 147.535 392.517 145.659L389.844 145.036L387.996 147.068C384.897 150.493 381.401 153.93 377.856 157.281C362.011 171.968 328.953 196.912 286.668 199.361H286.65C274.144 200.121 262.476 200.111 251.068 200.111H251.049C229.004 200.13 209.598 200.083 191.417 205.584C173.236 211.085 156.604 222.341 140.9 243.82H140.881C113.58 281.241 108.538 308.174 115.732 333.451L115.769 333.579L115.824 333.707L115.843 333.835L115.898 334.018C119.757 347.225 126.68 359.83 134.897 373.59L134.916 373.645L134.952 373.682C139.244 380.489 142.763 387.765 145.44 395.353L146.318 397.842L148.918 398.373C157.984 400.231 170.425 401.705 195.207 398.429C208.525 396.668 223.81 387.54 236.151 380.473C243.324 376.366 249.023 373.141 253.43 371.321C257.836 369.501 260.622 369.167 262.764 369.784L262.783 369.803H262.82C263.603 370.021 264.324 370.394 264.961 370.901C265.599 371.408 266.129 372.036 266.517 372.749C268.043 375.553 268.066 383.2 264.028 394.695C258.491 410.431 247.043 429.339 233.241 436.866L223.724 442.064L234.029 445.432C237.725 446.642 240.543 447.977 242.393 449.385C244.243 450.794 245.195 452.116 245.724 454.053V454.072C246.458 456.735 245.775 458.934 244.461 461.137C243.148 463.339 241.265 465.128 240.124 466.188V466.207C231.607 474.163 215.374 485.901 195.537 485.901C192.022 485.901 188.509 485.532 185.067 484.822C160.675 479.782 138.319 456.861 119.395 414.811L118.882 413.695L117.894 412.963C113.508 409.728 109.408 406.145 105.612 402.237L105.576 402.2C87.9347 382.924 73.1823 361.192 61.7202 337.716L61.3725 336.984C60.3929 334.988 59.4708 332.914 58.5355 330.852L57.3641 328.216C43.3539 296.376 37.7616 265.304 40.3236 235.675L40.3419 235.345L40.3236 234.997C40.3041 234.672 40.337 234.345 40.4152 234.027L40.4884 233.716L40.525 233.387C43.0394 208.974 51.1218 185.471 64.1546 164.676L64.1729 164.657V164.638C89.8268 123.138 120.879 99.343 162.993 88.5706C184.974 82.9607 209.187 81.314 234.723 81.6519H235.126L235.529 81.597C235.903 81.5381 236.273 81.5383 236.645 81.597L236.956 81.6336L237.286 81.6519C254.571 81.9901 272.455 83.1671 290.64 84.5988L293.422 84.8184L294.941 82.4573C297.267 78.8561 300.522 75.9684 304.368 74.0743C308.213 72.1804 312.506 71.3612 316.777 71.7132C321.05 72.0653 325.154 73.5713 328.638 76.0694C332.122 78.5674 334.859 81.9646 336.563 85.8983L337.68 88.4791L340.48 88.6987C360.316 90.2795 381.988 91.8039 406.244 92.5241C411.393 92.6747 414.149 95.5061 414.243 101.365C414.291 105.417 412.179 112.266 407.983 119.924L404.542 126.184L411.662 126.825C428.043 128.33 442.707 123.307 451.252 111.907H451.271V111.889C455.328 106.467 457.661 99.9645 457.988 93.2013C458.315 86.4367 456.618 79.7334 453.101 73.9462C446.948 63.7362 436.051 56.8391 422.369 53.2451C408.688 49.6511 392.07 49.2363 373.518 52.1103L373.408 52.1286L373.28 52.1652C372.815 52.2619 372.331 52.2591 371.87 52.1652C371.407 52.0714 370.979 51.8858 370.589 51.6161C370.198 51.345 369.869 50.9906 369.619 50.5912H369.6C369.349 50.1897 369.197 49.739 369.124 49.2733C369.051 48.8031 369.063 48.3371 369.18 47.8823V47.864C369.297 47.4049 369.513 46.9765 369.802 46.6011C370.09 46.2272 370.45 45.917 370.864 45.6859C371.278 45.4546 371.747 45.3139 372.218 45.2649L372.328 45.2466L372.438 45.2284C432.997 35.8332 453.078 60.2197 459.196 70.3954V70.4136C463.425 77.389 465.475 85.4562 465.071 93.604C464.667 101.753 461.826 109.594 456.926 116.117V116.136C453.962 120.091 450.322 123.484 446.182 126.184L450.74 134.348C450.942 134.252 451.05 134.025 451.252 133.927L451.307 134.037C451.774 133.732 452.06 133.22 452.515 132.902C460.296 128.852 467.402 123.531 472.704 116.52C479.357 107.708 483.223 97.1086 483.795 86.0813C484.369 75.054 481.629 64.1088 475.925 54.6545C466.621 39.1543 435.225 6.76981 350.272 19.8598C349.378 19.9527 348.495 19.6943 347.783 19.146C347.072 18.5979 346.603 17.799 346.465 16.913C346.328 16.0267 346.522 15.1253 347.033 14.3871C347.533 13.6648 348.299 13.1879 349.156 12.9961C372.139 9.44428 391.353 9.03993 407.361 10.7082L407.361 10.7082ZM314.855 78.6685C313.56 78.6698 312.271 78.8128 311.012 79.1078C308.874 79.6076 306.86 80.5353 305.081 81.8167C303.298 83.1034 301.784 84.7368 300.634 86.6121C298.703 89.7518 297.867 93.4361 298.254 97.0999C298.643 100.771 300.224 104.225 302.775 106.892C305.327 109.56 308.697 111.303 312.348 111.852C315.999 112.404 319.739 111.727 322.964 109.931C326.191 108.135 328.722 105.306 330.175 101.914C331.629 98.5212 331.923 94.744 330.999 91.1697C330.074 87.5968 327.983 84.4277 325.069 82.1644C322.153 79.9015 318.566 78.6763 314.874 78.6685H314.855ZM314.855 88.0398C316.475 88.0432 318.042 88.5846 319.321 89.5773C320.602 90.5714 321.515 91.9442 321.921 93.5125C322.326 95.0812 322.192 96.7467 321.555 98.2348C320.917 99.7232 319.82 100.944 318.406 101.731H318.388V101.749C316.974 102.537 315.356 102.833 313.757 102.591H313.738C312.137 102.35 310.665 101.582 309.547 100.413C308.426 99.2419 307.74 97.7387 307.57 96.1303C307.399 94.5186 307.764 92.8955 308.613 91.5178V91.4996C309.115 90.6816 309.775 89.9743 310.553 89.413C311.333 88.8515 312.22 88.4586 313.152 88.2416C313.711 88.1106 314.284 88.0422 314.855 88.0402L314.855 88.0398ZM216.896 88.6255L209.739 88.9916C174.204 90.7939 143.034 98.3701 116.045 117.545L115.55 117.874L115.184 118.332C103.175 132.562 101.27 152.858 108.998 173.242C117.198 194.906 134.332 212.99 152.212 217.609L154.536 218.213L156.385 216.657C173.53 202.222 191.504 196.633 211.295 194.401L219.55 193.485L214.498 186.896C202.29 171.001 195.951 149.757 198.281 130.229V130.21V130.192C199.647 117.796 204.93 106.158 213.363 96.9709L213.967 96.312L214.297 95.4701L216.896 88.6255ZM236.243 88.7536L235.218 89.2844C213.671 100.135 206.687 118.16 205.127 131.181V131.2C202.517 153.294 211.95 177.399 228.628 192.095L230.02 193.303L231.85 193.247C238.074 193.071 244.485 193.083 251.05 193.083C262.229 193.083 273.868 193.06 286.247 192.351H286.266C341.103 189.152 378.663 147.893 389.076 135.171V135.152L390.138 133.889V133.358C399.591 121.392 405.138 111.299 406.702 105.299L408.185 99.6254L402.328 99.4423C380.687 98.7278 361.108 97.3791 342.988 95.9647L338.797 95.6352L338.028 99.7901C337.328 103.576 335.711 107.129 333.324 110.15C330.936 113.171 327.84 115.568 324.319 117.123C320.797 118.68 316.958 119.35 313.117 119.082C309.275 118.813 305.553 117.617 302.282 115.586L302.263 115.567C298.904 113.5 296.13 110.627 294.173 107.202C292.215 103.778 291.139 99.9263 291.061 95.9825L290.988 91.7179L286.742 91.3884C269.426 90.077 253.017 89.0796 237.414 88.7902L236.243 88.7536ZM238.768 98.2165C252.682 98.5138 267.44 99.433 282.916 100.578C283.546 104.464 284.061 108.413 286.028 111.852C288.764 116.64 292.663 120.658 297.358 123.548C301.921 126.377 307.101 128.061 312.458 128.435C317.82 128.81 323.191 127.863 328.107 125.69C333.024 123.517 337.349 120.188 340.682 115.971C343.092 112.921 344.215 109.172 345.422 105.501C360.453 106.657 376.91 107.641 394.365 108.357C392.295 113.322 389.815 119.464 381.827 129.204L381.699 129.35C371.976 141.211 335.968 180.067 285.717 182.998C273.665 183.688 262.219 183.711 251.05 183.711C245.306 183.711 239.648 183.754 234.028 183.876C220.539 171.319 212.301 150.433 214.443 132.297C215.732 121.542 220.912 107.602 238.769 98.2165L238.768 98.2165ZM200.368 99.8638C194.561 108.75 190.163 118.479 188.983 129.131C186.594 149.154 192.929 169.571 204.01 186.548C186.399 189.268 169.333 195.167 153.328 207.725C140.329 203.686 124.775 188.45 117.765 169.929C111.007 152.103 112.913 136.106 122.14 124.848C144.575 109.107 170.68 102.464 200.368 99.8638V99.8638ZM97.851 132.004L88.9922 142.328C81.9992 150.484 75.6752 159.192 70.0666 168.355L70.1764 168.428C57.7284 188.163 49.9347 210.466 47.3887 233.661L47.3155 234.357L47.4437 235.052C51.7139 257.431 69.8333 272.056 86.503 276.912C97.5995 280.13 108.272 279.246 115.02 272.812L115.624 272.226L115.99 271.458C121.41 260.3 127.86 249.672 135.263 239.72L135.282 239.701L135.301 239.682C138.119 235.818 140.964 232.295 143.83 229.048L148.003 224.326L142.274 221.69C125.993 214.177 110.3 196.889 102.318 175.858L102.299 175.822L102.28 175.803C98.482 166.206 96.7637 155.9 97.2287 145.586L97.851 132.004ZM89.8525 157.025C90.6188 164.523 90.7679 172.146 93.5498 179.19C93.5528 179.199 93.565 179.201 93.568 179.209C93.5725 179.22 93.5636 179.234 93.568 179.246C101.607 200.388 116.735 217.05 133.744 226.67C131.731 229.099 129.705 231.457 127.722 234.174C120.272 244.195 113.854 254.922 108.321 266.113C104.964 269.159 98.053 270.498 89.1203 267.907C75.7609 264.016 60.5958 251.692 56.9064 233.771C59.4051 212.301 66.5927 191.635 78.1383 173.352L75.1732 171.485L78.0468 173.242C81.5418 167.532 85.7856 162.337 89.8525 157.025V157.025ZM45.9428 255.918L47.7731 269.609C50.3461 288.699 55.6639 307.311 63.5506 324.885C63.5528 324.89 63.5484 324.898 63.5506 324.904C63.5561 324.916 63.5633 324.928 63.5689 324.94C64.7844 327.759 66.0438 330.519 67.3576 333.232L67.5773 333.689L67.8884 334.074C76.7944 345.43 88.522 349.494 97.5764 347.106C100.246 346.476 102.702 345.133 104.642 343.189C106.601 341.225 107.964 338.756 108.577 336.051L108.851 334.897L108.522 333.744C104.644 319.816 104.644 305.099 108.522 291.171L110.444 284.27L103.36 285.277C101.67 285.516 99.9574 285.646 98.2537 285.661C98.2476 285.661 98.2415 285.661 98.2349 285.661C93.5956 285.631 88.986 284.931 84.544 283.593V283.612C73.5895 280.273 63.6977 274.12 55.8444 265.784L55.8078 265.729L55.7528 265.674L45.9428 255.918ZM49.036 272.208C49.069 272.243 49.1129 272.264 49.1459 272.3H49.1276L49.036 272.208ZM60.9515 281.945C67.3844 286.439 74.2509 290.255 81.8173 292.561H81.8356V292.58C87.1416 294.178 92.6576 294.999 98.1988 295.033H98.2175H98.2541C98.3831 295.032 98.5094 294.998 98.6385 294.996C96.0073 308.044 95.9438 321.432 99.2425 334.367C98.985 335.184 98.6252 335.971 98.0161 336.581C97.3027 337.296 96.4028 337.783 95.4171 338.009L95.3252 338.028L95.2334 338.064C91.0338 339.196 82.5418 337.278 75.4844 328.454C74.3403 326.069 73.2207 323.647 72.1532 321.169L72.1349 321.133L72.1166 321.114C66.5252 308.665 63.7671 295.272 60.9515 281.945V281.945ZM112.329 346.025L107.698 349.704C105.214 351.674 102.352 353.097 99.2787 353.878H99.26H99.2412C96.9782 354.465 94.66 354.765 92.3225 354.756H92.3043C90.7969 354.753 89.2911 354.624 87.8025 354.39L77.5892 352.798L83.1169 361.528C91.1011 374.156 100.188 386.058 110.261 397.092L110.297 397.128L110.334 397.165C114.242 401.247 118.544 404.938 123.183 408.165L123.219 408.202L123.275 408.22C126.286 410.214 128.553 411.286 130.395 411.845C132.236 412.403 134.099 412.34 134.495 412.284H134.513C136.275 412.03 136.95 411.261 137.405 410.819C137.86 410.378 138.085 410.048 138.284 409.758C138.682 409.179 138.914 408.712 138.961 408.623L139.108 408.348L139.217 408.056C140.02 405.9 140.137 403.552 139.583 401.32L139.73 402.4V397.44H137.863C136.597 392.692 134.903 387.372 128.748 377.123L128.729 377.104V377.086C123.635 368.782 119.003 360.203 114.855 351.388L112.329 346.025ZM108.595 359.478C112.357 367.133 116.269 374.701 120.73 381.973C127.054 392.511 128.722 397.737 129.479 400.954C129.027 400.686 128.996 400.763 128.454 400.405C124.363 397.55 120.575 394.289 117.124 390.686C117.122 390.683 117.109 390.688 117.106 390.686C109.437 382.277 102.864 372.982 96.4412 363.597C98.1628 363.404 99.9046 363.391 101.584 362.956C104.143 362.307 106.286 360.729 108.595 359.478L108.595 359.478ZM261.941 374.817L253.155 379.1C248.903 381.168 243.739 384.172 239.556 386.567C225.979 394.334 209.242 403.632 196.048 405.383C173.177 408.423 160.578 407.593 151.553 406.024L147.581 405.328L145.074 412.888L147.6 414.919C162.308 426.77 181.384 432.86 198.428 437.03L198.904 437.158H199.398C209.015 437.447 218.591 435.631 227.439 431.85H227.457C236.534 428.032 243.463 419.388 248.909 410.252C254.363 401.103 258.178 391.383 259.781 384.353L261.941 374.817ZM245.742 393.852C244.072 397.914 243.316 401.328 240.855 405.456C235.937 413.707 229.519 420.832 223.796 423.229H223.778L223.759 423.248C216.269 426.451 208.179 427.925 200.038 427.732C188.589 424.903 177.161 420.535 166.634 415.048C175.316 415.508 182.025 416.69 197.274 414.663C213.535 412.505 230.625 402.462 244.204 394.694C244.7 394.41 245.224 394.149 245.741 393.852L245.742 393.852ZM140.077 417.939L137.533 418.745C136.965 418.925 136.392 419.059 135.812 419.166L129.534 420.319L132.518 425.974C148.075 455.405 166.085 473.776 186.384 477.956C208.601 482.539 226.649 469.169 235.364 461.062L240.434 456.34L241.624 455.241L244.095 452.935H234.376L233.918 452.789C227.08 450.611 220.105 448.85 213.052 447.517C208.495 446.539 203.635 445.49 198.611 444.296L198.208 444.204L197.769 444.185C171.635 442.889 150.816 427.449 142.054 419.696L140.077 417.939ZM152.651 438.311C164.201 445.618 178.462 452.603 197.311 453.539L196.451 453.411C201.645 454.645 206.612 455.72 211.204 456.706L211.259 456.725H211.314C214.754 457.374 218.1 458.442 221.491 459.305C213.05 465.484 201.914 471.583 188.27 468.768C176.38 466.319 164.313 454.623 152.652 438.311L152.651 438.311ZM52.9985 330.077C54.3438 333.145 55.725 336.122 57.1599 339.046C57.1599 339.046 57.1599 339.046 57.1599 339.136C68.8708 363.282 84.0243 385.602 102.147 405.396C106.149 409.527 110.487 413.318 115.115 416.732C134.344 459.459 157.555 483.925 184.12 489.414C187.873 490.189 191.696 490.58 195.528 490.58C217.178 490.58 234.327 478.023 243.313 469.629C245.591 467.512 252.514 461.091 250.237 452.822C248.623 446.921 243.438 443.584 235.492 440.983C251.115 432.463 262.65 412.714 268.443 396.247C272.658 384.247 273.394 375.584 270.631 370.507C269.942 369.242 269.006 368.129 267.879 367.232C266.75 366.335 265.454 365.674 264.067 365.288C256.892 363.225 248.174 368.193 233.824 376.409C221.483 383.476 206.129 392.266 194.595 393.79C170.183 397.019 158.613 395.584 149.86 393.79C147.067 385.872 143.396 378.292 138.918 371.189C130.757 357.521 124.048 345.216 120.389 332.696C120.352 332.52 120.304 332.346 120.245 332.176C113.429 308.229 117.823 283.386 144.676 246.579C175.169 204.875 206.972 204.839 251.062 204.803C262.47 204.803 274.255 204.803 286.936 204.031C330.919 201.484 364.802 175.781 381.071 160.696C384.658 157.305 388.246 153.789 391.475 150.22C400.014 152.173 408.743 153.177 417.502 153.216C444.408 153.216 467.547 142.919 482.076 123.547C490.122 112.88 494.791 100.049 495.482 86.7055C496.171 73.3626 492.852 60.1172 485.95 48.6771C475.763 31.7084 441.951 -6.17511 348.246 8.37198C346.193 8.79922 344.381 9.99884 343.188 11.7232C341.994 13.4475 341.507 15.5646 341.83 17.6371C342.152 19.7097 343.259 21.5791 344.92 22.8592C346.582 24.1393 348.671 24.7323 350.758 24.5156C434.632 11.511 463.421 42.9371 471.905 57.0715C477.126 65.725 479.637 75.7438 479.112 85.8367C478.588 95.9297 475.053 105.634 468.964 113.7C463.651 120.723 456.714 126.355 448.749 130.112C453.347 127.113 457.384 123.33 460.677 118.937C466.138 111.666 469.297 102.927 469.748 93.8445C470.199 84.7628 467.92 75.7532 463.206 67.9778C456.336 56.5514 433.699 30.9909 371.726 40.6053C370.623 40.7199 369.555 41.0576 368.586 41.5981C367.618 42.1384 366.769 42.8702 366.092 43.7488C365.415 44.6273 364.924 45.6344 364.649 46.7087C364.372 47.783 364.319 48.9022 364.489 49.9981C364.659 51.0945 365.051 52.1441 365.64 53.084C366.229 54.024 367.003 54.8336 367.915 55.4653C368.827 56.0969 369.857 56.5364 370.944 56.7566C372.031 56.9778 373.151 56.975 374.238 56.7491C410.363 51.1526 438.345 58.5428 449.089 76.3727C452.121 81.361 453.59 87.1422 453.308 92.973C453.027 98.8029 451.008 104.416 447.511 109.09C440.103 118.973 427.296 123.565 412.084 122.167C416.497 114.112 419.009 106.812 418.937 101.287C418.811 93.4481 413.753 88.0493 406.381 87.8338C382.237 87.1169 360.658 85.61 340.856 84.0318C338.815 79.3199 335.533 75.2509 331.36 72.2587C327.187 69.2664 322.28 67.4634 317.162 67.0416C312.046 66.6199 306.909 67.5955 302.303 69.8643C297.697 72.1331 293.793 75.6098 291.008 79.9234C272.784 78.4887 254.81 77.3051 237.376 76.964C236.52 76.829 235.649 76.829 234.792 76.964C209.017 76.6229 184.407 78.2732 161.842 84.0318C118.631 95.0806 86.3255 119.906 60.1914 162.184C46.7776 183.587 38.4563 207.785 35.8684 232.911C35.6781 233.685 35.6054 234.483 35.6531 235.278C33.0163 265.772 38.7922 297.646 53.0703 330.095L52.9985 330.077ZM52.4424 269.001C60.8548 277.93 71.4523 284.509 83.187 288.086C88.0639 289.554 93.1253 290.315 98.2186 290.346C100.157 290.332 102.093 290.188 104.012 289.916C99.9055 304.666 99.9055 320.259 104.012 335.01C103.594 336.855 102.663 338.544 101.327 339.883C99.9908 341.222 98.3039 342.156 96.4606 342.579C89.806 344.373 79.5995 341.413 71.5815 331.189C70.2901 328.523 69.0464 325.802 67.8505 323.027C60.1354 305.849 54.9399 287.646 52.4245 268.983L52.4424 269.001ZM232.174 457.629C223.959 465.27 207.241 477.468 187.33 473.36C169.214 469.629 151.886 452.589 136.658 423.781C137.435 423.639 138.201 423.447 138.954 423.208C148.138 431.333 169.716 447.477 197.537 448.858C202.668 450.077 207.6 451.136 212.192 452.122C219.058 453.419 225.839 455.132 232.496 457.253L232.084 457.629H232.174ZM196.658 410.023C211.385 408.068 228.3 398.4 241.878 390.633C246.075 388.229 251.223 385.252 255.205 383.315C252.318 395.978 240.426 421.342 225.609 427.549C217.382 431.067 208.489 432.75 199.546 432.481C182.756 428.373 164.3 422.364 150.542 411.279L150.757 410.633C160.245 412.284 173.448 413.108 196.658 410.023V410.023ZM135.043 402.131V402.4C135.382 403.73 135.307 405.131 134.829 406.418C134.685 406.687 134.219 407.584 133.842 407.638C133.465 407.692 131.33 407.943 125.859 404.32C121.476 401.27 117.408 397.791 113.716 393.934C103.829 383.103 94.9162 371.423 87.079 359.027C88.8061 359.299 90.551 359.437 92.2988 359.441C95.0399 359.451 97.7716 359.107 100.425 358.418C104.138 357.475 107.611 355.758 110.613 353.377C114.834 362.349 119.546 371.079 124.73 379.53C131.905 391.476 134.344 398.274 135.008 402.131H135.043ZM385.448 132.211C375.421 144.462 338.578 184.606 285.986 187.673C273.771 188.373 262.218 188.391 251.044 188.391C244.479 188.391 238.04 188.391 231.725 188.57C216.336 175.009 207.385 152.085 209.788 131.745C211.224 119.763 217.232 103.583 237.322 93.4669C252.783 93.7536 269.106 94.7582 286.381 96.0674C286.474 100.795 287.753 105.425 290.101 109.53C292.448 113.636 295.788 117.086 299.815 119.565C303.734 121.998 308.188 123.437 312.79 123.759C317.391 124.08 322.002 123.273 326.221 121.408C330.44 119.544 334.14 116.678 337 113.059C339.86 109.439 341.793 105.177 342.632 100.642C360.784 102.058 380.425 103.403 402.166 104.121C400.838 109.215 395.834 119.512 385.448 132.175V132.211ZM304.623 89.0539C305.448 87.7073 306.533 86.5387 307.814 85.6147C309.095 84.6916 310.546 84.0309 312.084 83.6729C312.996 83.4592 313.928 83.3505 314.865 83.3496C317.52 83.3552 320.099 84.2418 322.196 85.8695C324.293 87.4983 325.792 89.7755 326.457 92.3461C327.121 94.9175 326.914 97.6362 325.868 100.076C324.823 102.517 322.997 104.542 320.677 105.833C318.357 107.126 315.674 107.612 313.049 107.216C310.424 106.82 308.003 105.564 306.168 103.646C304.332 101.727 303.184 99.2537 302.905 96.6138C302.626 93.9729 303.229 91.3143 304.623 89.0539V89.0539ZM209.913 93.8071C200.806 103.728 195.101 116.295 193.627 129.681C191.133 150.578 197.824 172.892 210.775 189.753C190.416 192.049 171.313 197.969 153.375 213.072C137.824 209.055 121.088 191.96 113.376 171.583C106.092 152.372 107.994 134.112 118.757 121.359C144.837 102.83 174.954 95.4395 209.968 93.6637L209.913 93.8071ZM74.0569 170.794C79.5355 161.844 85.7192 153.344 92.5499 145.376C92.0551 156.351 93.8891 167.306 97.9309 177.52C106.326 199.637 122.631 217.79 140.317 225.951C137.358 229.305 134.415 232.947 131.51 236.929C123.933 247.116 117.327 257.992 111.779 269.413C106.757 274.202 97.8953 275.332 87.8146 272.408C72.7295 268.014 55.9223 254.472 52.0478 234.167C54.5191 211.652 62.089 189.998 74.1824 170.848" fill="black"/>
</svg>
