<?xml version="1.0" encoding="UTF-8" standalone="no"?>
<svg
   width="1000"
   height="1000"
   viewBox="0 0 1000 1000"
   fill="none"
   version="1.1"
   id="svg142"
   sodipodi:docname="poissonnerie.svg"
   inkscape:version="1.2.1 (9c6d41e, 2022-07-14)"
   xmlns:inkscape="http://www.inkscape.org/namespaces/inkscape"
   xmlns:sodipodi="http://sodipodi.sourceforge.net/DTD/sodipodi-0.dtd"
   xmlns="http://www.w3.org/2000/svg"
   xmlns:svg="http://www.w3.org/2000/svg">
  <sodipodi:namedview
     id="namedview5788"
     pagecolor="#ffffff"
     bordercolor="#111111"
     borderopacity="1"
     inkscape:showpageshadow="0"
     inkscape:pageopacity="0"
     inkscape:pagecheckerboard="1"
     inkscape:deskcolor="#d1d1d1"
     showgrid="false"
     inkscape:zoom="2.6484941"
     inkscape:cx="47.76299"
     inkscape:cy="44.553619"
     inkscape:window-width="1309"
     inkscape:window-height="456"
     inkscape:window-x="250"
     inkscape:window-y="1307"
     inkscape:window-maximized="0"
     inkscape:current-layer="svg142" />
  <defs
     id="defs146" />
  <g
     id="g2020"
     transform="matrix(9.3713121,0,0,9.3713121,50.00137,82.476497)">
    <g
       id="path136" />
    <path
       id="path140"
       style="color:#000000;fill:#000000;stroke-miterlimit:10;-inkscape-stroke:none"
       d="m 79.349609,41.628906 c -0.607946,0.0805 -1.201869,0.27803 -1.74414,0.587891 -1.084685,0.619603 -1.883326,1.640158 -2.22461,2.841797 -0.34141,1.201639 -0.198525,2.490572 0.398438,3.58789 0.596814,1.097278 1.600578,1.916871 2.794922,2.283203 l 0.01172,0.0039 0.0098,0.0039 c 0.425282,0.120339 0.864992,0.180256 1.306641,0.181641 h 0.002 0.002 c 1.151864,-0.0016 2.264788,-0.418537 3.132812,-1.175782 0.868158,-0.75725 1.433745,-1.804424 1.591797,-2.945312 0.157937,-1.140963 -0.100847,-2.301024 -0.730468,-3.265625 -0.629638,-0.964627 -1.587257,-1.669775 -2.695313,-1.984375 l -0.0098,-0.002 -0.01172,-0.0039 c -0.604239,-0.158061 -1.226038,-0.19378 -1.833985,-0.113281 z m 0.544922,3.685547 c 0.09645,3.07e-4 0.192496,0.01486 0.285156,0.04102 0.262456,0.07492 0.484335,0.249897 0.617188,0.488281 0.132456,0.237621 0.165391,0.517278 0.0918,0.779297 -1.82e-4,6.48e-4 1.83e-4,0.0013 0,0.002 -0.04614,0.161794 -0.132946,0.310185 -0.25,0.431641 -0.117466,0.121778 -0.261276,0.211792 -0.421875,0.263671 h -0.002 c -0.160627,0.05194 -0.331324,0.06518 -0.498047,0.03516 -0.166209,-0.02998 -0.322324,-0.101996 -0.455078,-0.207032 -0.132401,-0.104755 -0.235334,-0.23961 -0.302735,-0.394531 -0.0674,-0.154963 -0.09566,-0.323845 -0.08203,-0.492187 0.01363,-0.16844 0.0687,-0.330508 0.160156,-0.472657 0.09133,-0.14196 0.215641,-0.259588 0.363282,-0.341796 l 0.0039,-0.002 0.002,-0.002 c 0.148808,-0.08427 0.317555,-0.128872 0.488281,-0.128906 z m 1.036801,-2.603987 c -0.9557,-0.25 -1.9714,-0.1155 -2.8291,0.3746 -0.8578,0.49 -1.4894,1.2967 -1.7593,2.247 -0.27,0.9503 -0.1568,1.9686 0.3153,2.8364 0.472,0.8678 1.2653,1.5162 2.2098,1.8059 0.3375,0.0955 0.6866,0.1444 1.0374,0.1455 0.9109,-0.0013 1.7907,-0.3318 2.4771,-0.9306 0.6865,-0.5988 1.1333,-1.4256 1.2583,-2.3279 0.1249,-0.9023 -0.0805,-1.8194 -0.5784,-2.5822 -0.4979,-0.7628 -1.2548,-1.3199 -2.1311,-1.5687 z m 0.9188,4.1861 c -0.0909,0.3208 -0.2596,0.6142 -0.491,0.8543 -0.2315,0.24 -0.5186,0.4193 -0.8359,0.5218 -0.3173,0.1026 -0.6549,0.1252 -0.9831,0.0661 -0.3282,-0.0592 -0.6366,-0.1985 -0.8981,-0.4054 -0.2615,-0.2069 -0.4679,-0.4752 -0.6009,-0.7809 -0.133,-0.3058 -0.1885,-0.6397 -0.1616,-0.972 0.0269,-0.3324 0.1354,-0.653 0.3158,-0.9334 0.1804,-0.2804 0.4273,-0.512 0.7186,-0.6742 0.3,-0.1699 0.639,-0.259 0.9838,-0.2584 0.1884,6e-4 0.3758,0.027 0.557,0.0785 0.5167,0.1475 0.9538,0.4939 1.2154,0.9633 0.2616,0.4693 0.3263,1.0233 0.18,1.5403 z M 40.732422,27.777344 c -1.640784,0.194486 -3.08845,0.645394 -4.214844,1.398437 l -0.002,0.002 c -1.518099,1.019207 -2.238467,2.797249 -1.726563,4.486328 h 0.002 l 2.396484,7.853516 c -5.72022,5.042988 -9.511808,10.786662 -11.353516,14.001953 -0.726459,1.258133 -1.314441,2.587664 -1.914062,3.910156 -1.721726,-2.581361 -4.184425,-5.339603 -7.111328,-7.072265 h -0.002 C 11.690415,49.327313 5.5939783,49.534678 2.4414063,50.457031 h -0.00195 c -1.0006098,0.294721 -1.79821039,0.685836 -2.1972656,1.476563 v 0.002 l -0.001953,0.002 C 0.11496955,52.188081 -0.00491709,52.591213 0,53.046875 c 0.00491709,0.455662 0.10512371,0.976756 0.33007813,1.648437 v 0.002 C 1.1911902,57.252608 4.0848347,62.364956 9.65625,65.121094 l 0.00391,0.002 h 0.00195 c 2.24607,1.0942 4.678452,1.651621 7.150391,1.921875 -1.902052,1.601751 -3.613641,3.417716 -4.869141,5.578125 v 0.002 l -0.002,0.002 C 8.847967,78.01665 9.273568,83.874322 9.9980005,86.484516 c 0.1875785,0.681925 0.3943065,1.169457 0.6445315,1.550781 0.250495,0.381734 0.576996,0.650234 0.826172,0.789063 l 0.0039,0.0039 0.0039,0.002 c 0.35645,0.194282 0.758584,0.28858 1.164062,0.275391 h 0.0059 0.0059 c 0.502895,-0.02245 0.999541,-0.11926 1.474609,-0.285157 3.126074,-0.994762 8.29649,-4.202978 10.859375,-9.564453 v -0.002 c 1.468505,-3.070603 1.978785,-6.733894 1.970703,-9.83789 1.233959,0.762752 2.46234,1.537245 3.765625,2.175781 3.93e-4,1.94e-4 0.0016,-1.94e-4 0.002,0 8e-4,3.92e-4 0.0012,0.0016 0.002,0.002 3.323286,1.64432 9.667615,4.304097 17.226563,5.306641 l 2.390625,7.863281 c 0.514326,1.688967 2.104169,2.765625 3.933594,2.765625 2.707114,0 5.807765,-1.72432 8.65625,-4.285156 2.727909,-2.452437 5.117164,-5.751679 6.365234,-9.341797 8.96674,-3.855744 16.119556,-9.254509 20.763556,-14.79901 4.705297,-5.617685 6.964516,-11.417499 5.564453,-16.023438 L 95.410156,42.371094 H 95.246094 C 93.545432,38.127195 88.733905,34.803438 82.082031,32.867187 75.137962,30.845884 66.189266,30.341242 56.589844,32.132812 53.557215,29.843656 49.736067,28.434162 46.103516,27.916016 44.206676,27.645451 42.373205,27.582857 40.732422,27.777344 Z m 4.195312,3.785156 c 2.092382,0.228945 4.300634,0.929621 6.375,1.869141 -4.148086,1.282952 -7.754483,3.309234 -10.923828,5.636718 l -1.982422,-6.488281 c -0.03069,-0.102371 -0.01744,-0.08767 -0.02344,-0.06836 -0.006,0.01932 -0.009,-0.04716 0.25,-0.220703 0.902542,-0.605399 3.441014,-1.041855 6.304687,-0.728516 z m 21.769532,3.316406 c -2.351707,3.501991 -4.722673,9.23959 -2.166016,17.648438 2.556227,8.407348 7.722723,11.857614 11.625,13.455078 -3.553562,2.246696 -7.291781,4.190615 -11.238281,5.65039 h -0.002 C 55.479554,75.148346 45.562273,73.211865 38.890625,70.931641 31.890903,68.538809 27.202616,65.345454 26.044922,64.257812 l -0.01953,-0.01758 c 3.16e-4,-0.01045 0.0018,-0.0208 0.002,-0.03125 0.362767,-1.552353 2.478616,-6.804611 6.958984,-12.691406 4.266865,-5.603323 11.426408,-12.72942 21.228516,-15.070312 h 0.002 c 4.090568,-0.986895 8.277608,-1.454805 12.480469,-1.56836 z m 4.638671,0.0332 c 2.854415,0.161361 5.694265,0.543472 8.470704,1.228516 6.800677,1.714613 11.288106,4.944182 12.226562,8.03125 0.938491,3.087373 -0.990887,8.267706 -5.6875,13.476562 -1.9256,2.115229 -4.071556,4.012802 -6.353516,5.736329 -3.12584,-0.817713 -9.102668,-2.821456 -11.875,-11.939454 -2.77294,-9.119789 1.077421,-14.114078 3.21875,-16.533203 z M 7.6855469,53.625 c 2.2267313,0.06824 4.8709501,0.567722 7.2109371,1.953125 2.080299,1.230189 3.909827,3.067003 5.230469,4.765625 0.660321,0.849311 1.196185,1.663514 1.574219,2.335937 0.133435,0.237347 0.128542,0.293683 0.220703,0.492188 -0.695525,0.176913 -1.5805,0.434986 -3.232422,0.388672 -2.133534,-0.05982 -4.772328,-0.516739 -7.36914,-1.800781 -5.19e-4,-2.56e-4 -0.0014,2.56e-4 -0.002,0 C 8.468194,60.352055 6.567444,58.14786 5.4746094,56.542969 h -0.00195 C 4.6524558,55.340617 4.4759102,54.67835 4.2382812,54.025391 5.0294566,53.836771 5.9864062,53.572928 7.6855469,53.625 Z m 16.2656251,11.134766 -0.02734,0.123046 0.08789,0.08594 -0.253907,0.03906 c -0.436421,0.06644 -1.004925,0.291643 -1.589843,0.541016 l 0.357422,-0.238281 h -0.445313 c 0.632004,-0.118875 1.232006,-0.252189 1.634766,-0.441406 z m -0.740235,2.658203 c 0.03359,0.215979 0.06888,0.260279 0.08984,0.53125 0.0595,0.76915 0.06631,1.743136 -0.0098,2.816406 -0.152153,2.14654 -0.64682,4.690185 -1.685547,6.871094 -1.173101,2.454175 -3.092118,4.341757 -4.904297,5.638672 -1.383325,0.989998 -2.327007,1.302652 -3.087891,1.585937 -0.166524,-0.675747 -0.386742,-1.323601 -0.375,-2.777344 v -0.002 c 0.01447,-1.941936 0.367915,-4.834083 1.953125,-7.585937 v -0.002 c 1.444773,-2.513881 3.382313,-4.36193 5.121094,-5.59961 1.345361,-0.95764 2.222221,-1.236208 2.898437,-1.476562 z m 41.007813,8.273437 c -1.205976,1.969951 -2.670206,3.814407 -4.304688,5.189453 -2.178319,1.832564 -4.481681,2.862321 -5.585937,2.886719 h -0.06641 c -0.312587,0 -0.348626,-0.05636 -0.332032,-0.04297 0.01659,0.01339 0.01586,0.0359 -0.01367,-0.0625 v -0.002 l -1.94336,-6.40039 c 0.573539,0.02454 1.138658,0.06641 1.722656,0.06641 3.577596,0.02549 7.104387,-0.607787 10.523438,-1.634766 z m 30.445082,-32.32034 c -2.4768,-8.1443 -19.066,-13.9037 -38.2583,-10.2058 -5.8016,-4.655 -15.6016,-5.6522 -19.3321,-3.1582 -1.2403,0.8327 -1.7226,2.0596 -1.3264,3.3669 l 2.5763,8.4372 c -5.8876,5.0378 -9.7617,10.958 -11.6222,14.2061 -0.9882,1.7112 -1.8585,3.4877 -2.605,5.3173 -1.4968,-2.7294 -4.5478,-6.1939 -7.7979,-8.1175 -4.7852,-2.8348 -10.7436305,-2.63 -13.5764405,-1.8012 -0.90344,0.2661 -1.37813,0.5551 -1.58676,0.9685 -0.14546997,0.291 -0.26222997,0.781 0.14355,1.9926 0.76563,2.272 3.5793,7.2543 8.8219505,9.8478 2.8237,1.3756 5.924,2.0892 9.065,2.0864 h 0.0536 c -2.6298,1.7512 -4.8227,4.0823 -6.4102,6.814 -2.9113005,5.0723 -2.4883,10.7819 -1.8471,13.0922 0.3388,1.2327 0.7082,1.5753 0.9934,1.7342 0.1998,0.1089 0.4252,0.1624 0.6527,0.155 0.41,-0.0183 0.815,-0.097 1.202,-0.2335 2.8099,-0.8901 7.8745,-4.0272 10.2747,-9.0497 1.6308,-3.409 2.2356,-7.9836 1.9581,-11.0863 1.6386,1.1019 3.3506,2.0906 5.1239,2.9592 3.3573,1.6614 9.8689,4.4234 17.5654,5.3287 l 2.5687,8.4468 c 0.3981,1.3073 1.4815,2.0576 2.9763,2.0576 4.4789,0 12.0586,-6.2839 14.2943,-13.3812 17.9921,-7.6122 28.575,-21.6289 26.0982,-29.7771 z m -57.2248,-10.5043 c -0.1148,-0.3829 -0.1493,-0.8863 0.6278,-1.4069 2.6395,-1.7705 10.5963,-1.3398 16.0437,2.1954 l -0.5225,0.1206 c -5.3594,1.2825 -9.9532,3.8416 -13.7813,6.8447 z m -26.5614,29.7904 c -3.0625205,-1.5121 -5.0742005,-3.853 -6.2303005,-5.5508 -1.20777,-1.7705 -1.75711,-3.2634 -1.87386,-3.874 1.40109,-0.603 7.5701605,-1.5121 12.6328605,1.4853 4.4635,2.6395 7.5988,7.6735 7.8993,9.1588 0,0.0306 -0.0115,0.0593 -0.0153,0.088 -1.2997,0.6106 -6.9079,1.4145 -12.4146,-1.3092 z m 11.6298,15.4101 c -2.538,5.3096 -8.1711,7.9912 -9.6679,8.2688 -0.2431,-0.5742 -0.6183,-2.1189 -0.601,-4.2607 0.0153,-2.0538 0.3828,-5.1221 2.0863,-8.0793 3.0625,-5.3287 8.1635,-7.7826 9.5837,-7.9988 l 0.0613,0.065 c 0.5742,1.4011 0.7656,7.3271 -1.4624,12.005 z m 2.852,-13.0692 c -0.0913,-0.1655 -0.2068,-0.3164 -0.3426,-0.4479 0.0395,-0.1848 0.0511,-0.3745 0.0344,-0.5627 0.4326,-1.8567 2.5783,-7.082 7.1395,-13.075 4.3449,-5.7058 11.6528,-13.0156 21.7916,-15.4369 4.806,-1.1595 9.735,-1.7315 14.6789,-1.7035 -2.4691,3.0223 -6.0676,8.9463 -3.1735,18.465 2.8941,9.5186 9.1875,12.4414 12.9161,13.5707 -4.09,2.7767 -8.5016,5.0474 -13.1381,6.7624 -9.7617,3.6367 -19.9063,1.6288 -26.6993,-0.6929 -7.1222,-2.4347 -11.8155,-5.5834 -13.207,-6.8907 z m 28.9023,19.7704 c -0.936,0 -1.1886,-0.4364 -1.3035,-0.8193 l -2.3504,-7.7423 c 1.0144,0.0746 2.0442,0.1186 3.0874,0.1186 4.1528,0.0305 8.2776,-0.6825 12.1791,-2.1054 l 0.5015,-0.1914 c -2.5552,5.9718 -8.9253,10.757 -12.1045,10.757 z m 25.9758,-20.2623 c -3.0377,-0.7656 -10.0623,-2.8558 -13.0769,-12.7706 -3.0147,-9.9149 1.6557,-15.5633 3.7535,-17.8908 3.0799,0.1424 6.1385,0.586 9.132,1.3246 6.9805,1.759 11.8212,5.0148 12.9448,8.7109 1.1235,3.696 -1.0834,9.0956 -5.9049,14.4416 -2.0756,2.28 -4.3693,4.3513 -6.8485,6.1843 z M 43.576172,0.11914062 c -1.80925,-0.19939499 -3.955403,-0.16530495 -6.492188,0.22851563 l -0.01172,0.001953 -0.01367,0.003906 c -0.344432,0.0716688 -0.649249,0.27312478 -0.84961,0.5625 C 36.008722,1.2052479 35.928333,1.5604791 35.982422,1.9082031 36.036516,2.2559758 36.22131,2.5704405 36.5,2.7851563 36.778664,2.9998518 37.130494,3.0988332 37.480469,3.0625 l 0.01172,-0.00195 0.01367,-0.00195 C 46.31831,1.6922361 49.111005,4.9361769 49.927734,6.296875 50.433278,7.13482 50.675815,8.104748 50.625,9.0820313 50.618028,9.2163564 50.508106,9.3205409 50.490234,9.453125 50.441834,8.5787099 50.312213,7.6991778 49.855469,6.9453125 v -0.00195 C 49.042423,5.5918704 46.355281,2.7489309 39.611328,3.7871094 39.427738,3.806775 39.249167,3.861222 39.087891,3.9511719 38.925472,4.0418306 38.781649,4.1648891 38.667969,4.3125 38.554427,4.459931 38.472017,4.6283057 38.425781,4.8085937 h 0.002 c -0.04651,0.180745 -0.05593,0.3690091 -0.02734,0.5527344 0.02851,0.184286 0.09442,0.3598125 0.193359,0.5175781 0.09891,0.1579762 0.228024,0.2945212 0.380859,0.4003907 0.153054,0.1060206 0.327173,0.1798061 0.509766,0.2167968 0.182006,0.036787 0.36921,0.035802 0.550781,-0.00195 l -0.02344,0.00391 c 1.875244,-0.2905123 3.521296,-0.2375305 4.804687,0.099609 1.283391,0.3371399 2.187761,0.9466615 2.677735,1.7597657 v 0.00195 c 0.271696,0.4470609 0.404186,0.9637699 0.378906,1.4863281 -0.0252,0.5225085 -0.206109,1.0264925 -0.519531,1.4453125 -0.559099,0.745889 -1.526651,1.085478 -2.683594,1.126953 C 44.911524,11.844081 45.209695,11.252979 45.203125,10.75 45.186339,9.7021574 44.402643,8.8521995 43.378906,8.8222656 40.882771,8.7481489 38.660592,8.5928564 36.597656,8.4296875 36.346372,7.9858963 36.067262,7.5528219 35.650391,7.2539062 35.13155,6.8818746 34.521048,6.6579 33.884766,6.6054687 33.248556,6.5530339 32.609824,6.672974 32.037109,6.9550781 31.573501,7.1834395 31.222115,7.5679961 30.900391,7.96875 29.01776,7.8221865 27.153715,7.697599 25.339844,7.6621094 l 0.06836,0.00586 c -0.142915,-0.022541 -0.288734,-0.022515 -0.431641,0 l 0.08398,-0.00586 C 22.284499,7.6253714 19.616505,7.8012602 17.14648,8.4316406 12.41928,9.6403519 8.8376506,12.398498 5.9980429,16.992187 c -1.4633344,2.335671 -2.3691477,4.976142 -2.6582031,7.716797 -0.024999,0.110691 -0.034718,0.224405 -0.03125,0.337891 -0.2573763,3.044263 0.3446716,6.212548 1.6113281,9.414062 l -0.1367188,-0.03516 0.4140625,0.945313 c 0.1299348,0.296347 0.2646595,0.583107 0.4023438,0.867187 v 0.01367 l 0.050781,0.103516 c 1.2707588,2.620123 2.9143278,5.043522 4.8808596,7.191406 l 0.0039,0.0039 0.0059,0.0059 c 0.415384,0.428808 0.869488,0.816025 1.345703,1.175781 2.074483,4.55846 4.618609,7.303606 7.658203,7.93164 h 0.002 c 0.433746,0.08957 0.875374,0.134766 1.318359,0.134766 2.502243,0 4.428045,-1.426496 5.4375,-2.369141 l 0.002,-0.002 c 0.121869,-0.113163 0.41196,-0.376215 0.640625,-0.759765 0.2293,-0.384612 0.403015,-0.93306 0.238282,-1.53125 h 0.002 C 27.069954,47.713555 26.80707,47.361912 26.472827,47.107403 26.333245,47.001118 26.1383,46.949375 25.976733,46.867168 c 1.478498,-1.127885 2.579178,-2.872955 3.140625,-4.46875 0.468711,-1.334335 0.627962,-2.368111 0.201172,-3.152343 -0.105575,-0.193914 -0.249347,-0.364705 -0.421875,-0.501953 -0.172767,-0.137324 -0.371427,-0.237744 -0.583984,-0.296875 -0.535761,-0.152807 -1.084564,-0.03331 -1.652344,0.201171 -0.569102,0.235025 -1.191257,0.594754 -1.957031,1.033204 -1.316849,0.75407 -2.963449,1.65543 -4.003906,1.792968 -2.391117,0.316215 -3.503993,0.196768 -4.378907,0.03125 -0.292498,-0.764126 -0.63251,-1.510159 -1.068359,-2.203125 l -0.0059,-0.01172 c -0.861436,-1.443364 -1.552031,-2.721499 -1.919922,-3.980469 -0.0067,-0.02647 -0.01426,-0.05163 -0.02344,-0.07813 l 0.0098,0.02539 c -0.686884,-2.413302 -0.288271,-4.839135 2.529297,-8.701171 1.578106,-2.158299 3.126646,-3.184479 4.873047,-3.712891 1.7464,-0.528412 3.723809,-0.539066 6.076172,-0.541016 1.216682,0 2.484331,0.0013 3.855468,-0.08203 4.872325,-0.282168 8.575255,-3.105304 10.357422,-4.757812 l 0.002,-0.002 h 0.002 c 0.324002,-0.306227 0.642964,-0.631012 0.951172,-0.958984 0.853333,0.174882 1.71832,0.293052 2.589844,0.296875 h 0.002 c 2.998656,0 5.638755,-1.16222 7.291016,-3.365234 h -0.002 c 0.918696,-1.217867 1.452393,-2.683496 1.53125,-4.2070315 0.07872,-1.5228206 -0.300478,-3.0339901 -1.087891,-4.3398438 v -0.00195 C 51.405704,3.423756 49.00272,0.71719304 43.576172,0.11914062 Z M 43.46875,1.0917969 c 5.140395,0.5357201 7.2034,3.0533272 7.957031,4.3085937 l 0.002,0.00195 c 0.684946,1.1353078 1.013763,2.4492679 0.945313,3.7734376 -0.06854,1.3242618 -0.531576,2.5977188 -1.330078,3.6562498 h -0.002 c -1.448173,1.930897 -3.745656,2.966277 -6.488282,2.966797 -0.897927,-0.0039 -1.79263,-0.106442 -2.667968,-0.30664 l -0.285157,-0.06641 -0.197265,0.216797 c -0.330602,0.365427 -0.703711,0.732278 -1.082032,1.089844 -1.690743,1.567175 -5.218278,4.228923 -9.730468,4.490234 h -0.002 c -1.334462,0.08116 -2.579577,0.08008 -3.796875,0.08008 h -0.002 c -2.352432,0.002 -4.42321,-0.003 -6.363281,0.583985 -1.940071,0.587011 -3.714834,1.788181 -5.390625,4.080078 h -0.002 c -2.913227,3.993156 -3.451308,6.86716 -2.683594,9.564453 l 0.0039,0.01367 0.0059,0.01367 0.002,0.01367 0.0059,0.01953 c 0.411817,1.409295 1.150555,2.754296 2.027343,4.222656 l 0.002,0.0059 0.0039,0.0039 c 0.457951,0.726416 0.83345,1.502771 1.11914,2.3125 l 0.09375,0.265625 0.277344,0.05664 c 0.967519,0.198269 2.295013,0.355576 4.939453,0.0059 1.42114,-0.187861 3.052192,-1.161888 4.369141,-1.916016 0.765425,-0.43825 1.373503,-0.782363 1.84375,-0.976562 0.470246,-0.1942 0.767445,-0.229826 0.996093,-0.164063 l 0.002,0.002 h 0.0039 c 0.08364,0.02327 0.160483,0.06311 0.228515,0.117188 0.06807,0.05415 0.124591,0.121179 0.166016,0.197265 0.16281,0.299167 0.165264,1.115135 -0.265625,2.341797 -0.590783,1.679173 -1.812364,3.696771 -3.285156,4.5 l -1.015625,0.554688 1.099609,0.359375 c 0.394429,0.129088 0.695172,0.27156 0.892578,0.421875 0.197407,0.150315 0.298933,0.291392 0.355469,0.498047 v 0.002 c 0.07827,0.284209 0.0054,0.518869 -0.134766,0.753906 -0.140125,0.235037 -0.341064,0.425906 -0.46289,0.539062 v 0.002 c -0.908768,0.848966 -2.640946,2.101562 -4.757813,2.101562 -0.375014,0 -0.749934,-0.0394 -1.117187,-0.115234 -2.602872,-0.5378 -4.988396,-2.983582 -7.007813,-7.470703 l -0.05469,-0.119141 -0.105469,-0.07813 C 12.112162,43.670646 11.674657,43.28836 11.269589,42.871292 l -0.0039,-0.0039 C 9.3832472,40.810437 7.8090377,38.491443 6.5859375,35.986328 l -0.037109,-0.07813 C 6.4442966,35.695208 6.3459028,35.473892 6.2460937,35.253906 l -0.125,-0.28125 C 4.6260895,31.575044 4.02934,28.259322 4.3027344,25.097656 l 0.00195,-0.03516 -0.00195,-0.03711 c -0.00208,-0.03471 0.00143,-0.0696 0.00977,-0.103516 l 0.00781,-0.0332 0.00391,-0.03516 c 0.2683102,-2.605081 1.1307651,-5.112978 2.5214844,-7.332032 l 0.00195,-0.002 v -0.002 C 9.585148,13.089084 12.898727,10.5499 17.392578,9.4003906 19.738149,8.8017723 22.321924,8.6260475 25.046875,8.6621094 h 0.04297 l 0.04297,-0.00586 c 0.03989,-0.00629 0.07946,-0.00626 0.119141,0 l 0.0332,0.00391 0.03516,0.00195 c 1.844502,0.036089 3.752855,0.1616834 5.69336,0.3144531 L 31.310547,9 31.472656,8.7480469 c 0.248114,-0.3842755 0.595533,-0.6924151 1.00586,-0.8945313 0.410284,-0.2020954 0.868429,-0.2895181 1.324218,-0.2519531 0.455917,0.037569 0.893867,0.198276 1.265625,0.4648438 0.371741,0.2665543 0.663874,0.6290674 0.845703,1.0488281 l 0.119141,0.2753906 0.298828,0.023437 c 2.116645,0.1686825 4.429238,0.3313486 7.017578,0.4082031 0.549462,0.016066 0.843502,0.3182049 0.853516,0.9433599 0.0052,0.432391 -0.220225,1.163234 -0.667969,1.980468 l -0.367187,0.667969 0.759765,0.06836 c 1.748033,0.160674 3.312816,-0.37538 4.22461,-1.591797 h 0.002 v -0.002 c 0.43293,-0.578532 0.681947,-1.272404 0.71675,-1.9940937 C 48.906014,9.1726907 48.724912,8.4573818 48.349609,7.8398437 47.693084,6.7503498 46.530219,6.0143688 45.070312,5.6308594 43.610406,5.24735 41.837074,5.2030785 39.857422,5.5097656 l -0.01172,0.00195 -0.01367,0.00391 c -0.04958,0.010311 -0.101203,0.010016 -0.15039,0 -0.04941,-0.010009 -0.09517,-0.029814 -0.136719,-0.058594 -0.04176,-0.02893 -0.07683,-0.066751 -0.103516,-0.109375 h -0.002 c -0.02686,-0.042834 -0.04309,-0.090931 -0.05078,-0.140625 -0.0078,-0.050174 -0.0066,-0.099903 0.0059,-0.1484375 v -0.00195 c 0.01256,-0.048992 0.03555,-0.094697 0.06641,-0.1347656 0.03072,-0.039889 0.0691,-0.072995 0.113282,-0.097656 0.04425,-0.024683 0.09426,-0.039698 0.144531,-0.044922 l 0.01172,-0.00195 0.01172,-0.00195 C 46.204391,3.7728603 48.347147,6.3751045 49,7.4609375 v 0.00195 c 0.451337,0.7443343 0.670107,1.605172 0.626953,2.4746094 -0.04315,0.8695461 -0.346272,1.7062321 -0.869141,2.4023441 v 0.002 c -0.31625,0.422028 -0.704705,0.784079 -1.146484,1.072266 l 0.486328,0.871093 c 0.02164,-0.01021 0.03318,-0.03448 0.05469,-0.04492 l 0.0059,0.01172 c 0.04976,-0.03246 0.08028,-0.08709 0.128906,-0.121094 0.830212,-0.432124 1.588487,-0.999987 2.154297,-1.748046 C 51.151338,11.442465 51.563925,10.311471 51.625,9.1347656 51.686185,7.958051 51.393811,6.7901031 50.785156,5.78125 49.792378,4.1272481 46.44214,0.67154107 37.376953,2.0683594 c -0.09542,0.00991 -0.189689,-0.017668 -0.265625,-0.076172 -0.07591,-0.058484 -0.125919,-0.1437344 -0.140625,-0.2382813 -0.01471,-0.094575 0.006,-0.1907639 0.06055,-0.2695312 0.05337,-0.077084 0.135076,-0.1279657 0.226562,-0.1484375 2.45251,-0.37900784 4.502836,-0.42215508 6.210938,-0.2441406 z M 33.597656,8.34375 c -0.138273,1.384e-4 -0.275813,0.015395 -0.410156,0.046875 -0.228087,0.053339 -0.443058,0.1523334 -0.632813,0.2890625 -0.190357,0.1373021 -0.351923,0.3116059 -0.474609,0.5117188 -0.206039,0.3350321 -0.29525,0.7281731 -0.253906,1.1191407 0.04144,0.391766 0.210187,0.760319 0.482422,1.044922 0.272287,0.284663 0.631896,0.470622 1.021484,0.529297 0.389551,0.05883 0.788694,-0.01335 1.132813,-0.205078 0.344317,-0.191628 0.6144,-0.493496 0.769531,-0.855469 0.155149,-0.362016 0.18644,-0.765076 0.08789,-1.1464846 C 35.221629,9.2964833 34.998494,8.9583104 34.6875,8.7167969 34.376382,8.4753259 33.993591,8.3445841 33.599609,8.34375 Z m 0,1 c 0.172818,3.659e-4 0.340081,0.058134 0.476563,0.1640625 0.136606,0.1060862 0.234027,0.2525735 0.277343,0.4199219 0.04325,0.1673906 0.02899,0.3451226 -0.03906,0.5039066 -0.06807,0.158826 -0.185056,0.289074 -0.335938,0.373047 h -0.002 v 0.002 c -0.15088,0.08407 -0.323492,0.115614 -0.49414,0.08984 h -0.002 c -0.170812,-0.02572 -0.327953,-0.107686 -0.447266,-0.232421 -0.119565,-0.124997 -0.192781,-0.285398 -0.210938,-0.457032 -0.01819,-0.171982 0.0207,-0.3451797 0.111329,-0.4921872 v -0.00195 c 0.05351,-0.087287 0.123988,-0.1627586 0.207031,-0.2226562 0.08316,-0.059921 0.17788,-0.1018464 0.277344,-0.125 0.05962,-0.013972 0.120763,-0.021277 0.18164,-0.021484 z m -10.453125,0.0625 -0.763672,0.039063 c -3.791894,0.192319 -7.118067,1.000775 -9.998046,3.046875 l -0.05274,0.03516 -0.03906,0.04883 c -1.281493,1.518488 -1.484812,3.684203 -0.660157,5.859375 0.874993,2.311767 2.70338,4.241493 4.611328,4.734375 l 0.248047,0.06445 0.197266,-0.166016 c 1.829546,-1.540408 3.747472,-2.136822 5.859375,-2.375 l 0.880859,-0.09766 -0.539062,-0.703125 C 21.585901,18.196405 20.909532,15.929525 21.1582,13.845702 v -0.002 -0.002 c 0.145662,-1.322718 0.709463,-2.564539 1.609375,-3.544922 l 0.06445,-0.07031 0.03516,-0.08984 z m 2.064453,0.013672 -0.109375,0.056641 c -2.299198,1.157805 -3.044457,3.081269 -3.210937,4.470704 v 0.002 c -0.278505,2.357624 0.728047,4.929833 2.507812,6.498046 l 0.148438,0.128906 0.195312,-0.0059 c 0.664176,-0.01883 1.348229,-0.01758 2.048828,-0.01758 1.19293,0 2.434868,-0.0024 3.75586,-0.07813 h 0.002 c 5.851589,-0.341273 9.859566,-4.744001 10.970703,-6.101562 v -0.002 l 0.113281,-0.134766 v -0.05664 c 1.008789,-1.276923 1.600693,-2.353924 1.767578,-2.994141 l 0.158204,-0.605469 -0.625,-0.01953 c -2.30924,-0.07625 -4.398462,-0.220162 -6.332032,-0.371094 l -0.447265,-0.03516 -0.08203,0.443359 c -0.0747,0.40398 -0.247191,0.783094 -0.501953,1.105469 -0.254779,0.322397 -0.585239,0.578156 -0.960937,0.744141 -0.375773,0.166101 -0.785503,0.237612 -1.195313,0.208984 -0.409965,-0.02863 -0.807163,-0.156349 -1.15625,-0.373047 l -0.002,-0.002 c -0.358431,-0.220631 -0.654446,-0.5272 -0.863281,-0.892578 -0.208956,-0.365444 -0.32369,-0.776435 -0.332031,-1.197266 l -0.0078,-0.4550774 -0.453125,-0.035156 C 28.74991,9.5611349 26.999006,9.4547086 25.333984,9.4238281 Z m 0.269532,1.009766 c 1.484638,0.03173 3.059462,0.12982 4.710937,0.251953 0.06719,0.414752 0.122145,0.836055 0.332031,1.203125 0.291965,0.510821 0.708017,0.939678 1.208985,1.248047 0.486924,0.301899 1.039722,0.481561 1.611328,0.521484 0.57219,0.03997 1.145296,-0.06107 1.669922,-0.292969 0.524701,-0.231815 0.986176,-0.587107 1.341797,-1.037109 0.257194,-0.325454 0.377086,-0.725446 0.505859,-1.117188 1.603972,0.123319 3.360007,0.228355 5.222656,0.304688 -0.220953,0.52982 -0.485524,1.185263 -1.33789,2.224609 l -0.01367,0.01563 c -1.037578,1.265616 -4.879948,5.411876 -10.242188,5.724609 -1.286006,0.0737 -2.507351,0.07617 -3.699219,0.07617 -0.612943,0 -1.21668,0.0046 -1.816406,0.01758 -1.43936,-1.339967 -2.31845,-3.568688 -2.089844,-5.503906 0.137517,-1.147706 0.690293,-2.635175 2.595704,-3.636718 z m -4.097657,0.175781 c -0.619615,0.948209 -1.088986,1.986416 -1.214843,3.123047 -0.254972,2.136643 0.421045,4.315311 1.603515,6.126953 -1.879338,0.290233 -3.700341,0.919649 -5.408203,2.259765 -1.387115,-0.43104 -3.046886,-2.056862 -3.794922,-4.033203 -0.721144,-1.902142 -0.517802,-3.609161 0.466797,-4.810547 2.394011,-1.679643 5.179671,-2.388587 8.347656,-2.666015 z m -10.939453,3.429687 -0.9453122,1.101563 c -0.7462173,0.870399 -1.4210383,1.799579 -2.0195313,2.777343 l 0.011719,0.0078 C 6.1599737,20.027761 5.3283198,22.4077 5.0566409,24.882799 l -0.00781,0.07422 0.013672,0.07422 c 0.4556666,2.387996 2.3891694,3.948642 4.1679688,4.466797 1.1840963,0.343439 2.3229103,0.249102 3.0429693,-0.4375 l 0.06445,-0.0625 0.03906,-0.08203 c 0.578354,-1.190608 1.2667,-2.324705 2.056641,-3.386719 l 0.002,-0.002 0.002,-0.002 c 0.300801,-0.412292 0.604365,-0.78821 0.910156,-1.134766 l 0.445313,-0.503906 -0.611328,-0.28125 C 13.444381,22.803659 11.769846,20.958878 10.918061,18.71474 l -0.002,-0.0039 -0.002,-0.002 C 10.508732,17.68471 10.325378,16.584985 10.375,15.484375 Z m -0.8535154,2.669922 c 0.081769,0.800042 0.097683,1.613556 0.3945313,2.365234 3.275e-4,8.63e-4 0.00163,0.0011 0.00195,0.002 4.773e-4,0.0012 -4.778e-4,0.0027 0,0.0039 0.8577891,2.256063 2.4721231,4.034049 4.2871091,5.060547 -0.214829,0.259193 -0.431036,0.510832 -0.642578,0.800781 -0.794995,1.069352 -1.479803,2.213932 -2.070312,3.408203 -0.358128,0.325024 -1.095633,0.467875 -2.0488285,0.191406 -1.4255692,-0.41526 -3.0438177,-1.730267 -3.4375,-3.642578 0.2666289,-2.291108 1.0336111,-4.496348 2.265625,-6.447265 l -0.3164062,-0.199219 0.3066406,0.1875 C 8.7010664,17.826269 9.1539237,17.271876 9.5878906,16.705078 Z M 4.9023437,27.257812 5.0976562,28.71875 c 0.2745588,2.037122 0.8420135,4.023112 1.6835938,5.898437 2.368e-4,5.5e-4 -2.369e-4,0.0014 0,0.002 5.89e-4,0.0013 0.00136,0.0026 0.00195,0.0039 0.1297131,0.300755 0.2641,0.595338 0.4042969,0.884765 l 0.023437,0.04883 0.033203,0.04102 c 0.9503396,1.21182 2.2017787,1.645439 3.1679681,1.390625 0.284844,-0.06715 0.546936,-0.210562 0.753907,-0.417969 0.209076,-0.209516 0.354517,-0.472971 0.419922,-0.761718 l 0.0293,-0.123047 -0.03516,-0.123047 c -0.413782,-1.48629 -0.413782,-3.056678 0,-4.542969 l 0.205078,-0.736328 -0.755859,0.107422 c -0.18034,0.02554 -0.363119,0.03935 -0.544922,0.04102 -6.47e-4,-4e-6 -0.0013,4e-6 -0.002,0 -0.4950577,-0.0032 -0.9869377,-0.07798 -1.4609373,-0.220704 v 0.002 c -1.1689458,-0.356325 -2.2244841,-1.012872 -3.0625,-1.902344 l -0.00391,-0.0059 -0.00586,-0.0059 z m 0.3300782,1.738282 c 0.00352,0.0037 0.0082,0.006 0.011719,0.0098 h -0.00195 z m 1.2714843,1.039062 c 0.6864457,0.479475 1.4191611,0.886696 2.2265626,1.132813 h 0.00195 v 0.002 c 0.5661997,0.170488 1.1548071,0.258128 1.7460942,0.261719 h 0.002 0.0039 c 0.01377,-10e-5 0.02725,-0.0037 0.04102,-0.0039 -0.280768,1.392327 -0.287551,2.82094 0.06445,4.201172 -0.02747,0.08722 -0.06587,0.171205 -0.13086,0.236328 -0.07613,0.07629 -0.17216,0.128174 -0.277343,0.152344 l -0.0098,0.002 -0.0098,0.0039 C 9.7139453,36.144235 8.8077726,35.939586 8.0546875,34.998047 7.9326105,34.743498 7.8131371,34.485034 7.6992187,34.220703 l -0.00195,-0.0039 -0.00195,-0.002 C 7.0986655,32.886345 6.8043507,31.457239 6.5039062,30.035156 Z m 5.4824218,6.837891 -0.49414,0.392578 c -0.265122,0.210177 -0.570495,0.362065 -0.898438,0.445312 h -0.002 -0.002 c -0.241481,0.06269 -0.488853,0.09469 -0.7382815,0.09375 h -0.00195 C 9.688669,37.804342 9.5279873,37.79062 9.3691406,37.765625 l -1.0898437,-0.169922 0.5898437,0.931641 c 0.8519865,1.347509 1.8216834,2.61753 2.8964844,3.794922 l 0.0039,0.0039 0.0039,0.0039 c 0.416991,0.435619 0.876084,0.829428 1.371093,1.173828 l 0.0039,0.0039 0.0059,0.002 c 0.321295,0.212765 0.563254,0.327142 0.759766,0.386718 0.196511,0.05958 0.395268,0.05286 0.4375,0.04687 h 0.002 c 0.187954,-0.02712 0.260011,-0.109162 0.308593,-0.15625 0.04858,-0.04709 0.07253,-0.08237 0.09375,-0.113281 0.04245,-0.06182 0.06721,-0.111603 0.07227,-0.121094 l 0.01563,-0.0293 0.01172,-0.03125 c 0.08561,-0.230015 0.09812,-0.480563 0.03906,-0.71875 l 0.01563,0.115235 v -0.529297 h -0.199218 c -0.135047,-0.506606 -0.315843,-1.074308 -0.972657,-2.167969 l -0.002,-0.002 v -0.002 C 13.192808,39.30135 12.698466,38.385901 12.255893,37.445238 Z m -0.398437,1.435547 c 0.401436,0.816857 0.818869,1.624353 1.294922,2.40039 0.674773,1.124527 0.852746,1.682149 0.933593,2.025391 -0.04825,-0.02854 -0.05158,-0.02032 -0.109375,-0.05859 -0.43653,-0.304602 -0.840796,-0.652615 -1.208984,-1.037109 -2.67e-4,-2.93e-4 -0.0017,2.92e-4 -0.002,0 -0.818269,-0.897237 -1.519664,-1.889085 -2.205078,-2.890625 0.1837,-0.02053 0.369568,-0.02191 0.548828,-0.06836 0.273024,-0.06931 0.501673,-0.237677 0.748047,-0.371093 z m 16.363281,1.636718 -0.9375,0.457032 c -0.453698,0.220709 -1.004795,0.541247 -1.451172,0.796875 -1.448779,0.82873 -3.23475,1.820938 -4.642578,2.007812 -2.440612,0.324403 -3.784984,0.235861 -4.748047,0.06836 l -0.423828,-0.07422 -0.267578,0.80664 0.269531,0.216797 c 1.56948,1.264586 3.605053,1.914427 5.423828,2.359375 l 0.05078,0.01367 h 0.05273 C 22.3036,46.62852 23.32545,46.43469 24.269531,46.03125 h 0.002 c 0.968516,-0.407351 1.707898,-1.329787 2.289063,-2.304688 0.58195,-0.976217 0.989116,-2.013502 1.160156,-2.763671 z m -1.728516,2.03125 c -0.178244,0.433436 -0.258884,0.797771 -0.521484,1.238282 -0.524849,0.88043 -1.209659,1.64069 -1.820313,1.896484 h -0.002 l -0.002,0.002 c -0.799255,0.34181 -1.662498,0.499148 -2.53125,0.478516 -1.221724,-0.301826 -2.441126,-0.768022 -3.564453,-1.353516 0.926426,0.04908 1.642294,0.175275 3.269531,-0.04102 1.735168,-0.230326 3.558794,-1.301992 5.007813,-2.13086 0.05293,-0.03031 0.108835,-0.05823 0.164062,-0.08984 z m -11.27539,2.570313 -0.271485,0.08594 c -0.06062,0.01925 -0.121745,0.03358 -0.183593,0.04492 l -0.669922,0.123047 0.318359,0.603516 c 1.660161,3.140513 3.581935,5.100812 5.748047,5.546875 2.370675,0.489065 4.296547,-0.937648 5.226562,-1.802735 l 0.541016,-0.503906 0.126953,-0.117187 0.263672,-0.246094 h -1.037109 l -0.04883,-0.01563 c -0.729723,-0.232353 -1.473956,-0.42034 -2.226562,-0.5625 -0.486314,-0.10441 -1.004954,-0.216368 -1.541016,-0.34375 l -0.04297,-0.0098 -0.04687,-0.002 C 18.314745,47.20919 16.093274,45.561627 15.158203,44.734375 Z m 1.341796,2.173828 c 1.232432,0.779706 2.754245,1.525132 4.765625,1.625 l -0.0918,-0.01367 c 0.554262,0.131707 1.084215,0.246362 1.574218,0.351563 l 0.0059,0.002 h 0.0059 c 0.367028,0.06933 0.724154,0.183292 1.085938,0.27539 -0.900666,0.659343 -2.089034,1.310113 -3.544922,1.009766 -1.268849,-0.261291 -2.556468,-1.509395 -3.800782,-3.25 z M 5.6552515,35.171166 c 0.14355,0.3274 0.29094,0.6451 0.44406,0.9571 0,0 0,0 0,0.0096 1.24965,2.5766 2.86666,4.9583 4.8005205,7.0705 0.427,0.4408 0.8899,0.8454 1.3838,1.2097 2.0519,4.5593 4.5287,7.1701 7.3634,7.7558 0.4005,0.0827 0.8084,0.1244 1.2174,0.1244 2.3102,0 4.1401,-1.3399 5.099,-2.2357 0.2431,-0.2258 0.9819,-0.911 0.7389,-1.7934 -0.1723,-0.6297 -0.7255,-0.9858 -1.5734,-1.2633 1.6671,-0.9092 2.8979,-3.0166 3.5161,-4.7737 0.4498,-1.2805 0.5283,-2.205 0.2335,-2.7467 -0.0735,-0.135 -0.1734,-0.2538 -0.2937,-0.3495 -0.1204,-0.0957 -0.2587,-0.1662 -0.4068,-0.2074 -0.7656,-0.2202 -1.6959,0.31 -3.2271,1.1867 -1.3169,0.7541 -2.9553,1.692 -4.1861,1.8547 -2.605,0.3445 -3.8396,0.1914 -4.7736,0 -0.2981,-0.8449 -0.6898,-1.6538 -1.1676,-2.4117 -0.8709,-1.4585 -1.5868,-2.7716 -1.9772,-4.1076 -0.004,-0.0188 -0.0091,-0.0373 -0.0154,-0.0555 -0.7273,-2.5553 -0.2584,-5.2063 2.607,-9.1339 3.2539,-4.4502 6.6475,-4.454 11.3523,-4.4579 1.2173,0 2.4749,0 3.8281,-0.0823 4.6933,-0.2718 8.309,-3.0146 10.045,-4.6243 0.3828,-0.3618 0.7656,-0.737 1.1102,-1.1179 0.9112,0.2084 1.8426,0.3156 2.7773,0.3197 2.8711,0 5.3402,-1.0987 6.8906,-3.1659 0.8586,-1.1382 1.3568,-2.5074 1.4305,-3.9312998 0.0736,-1.4238 -0.2806,-2.8372 -1.0171,-4.05796 -1.0871,-1.8107 -4.6951,-5.85320002 -14.6942,-4.30090002 -0.2191,0.04559 -0.4124,0.17360002 -0.5398,0.35760002 -0.1274,0.184 -0.1793,0.40992 -0.1449,0.63107 0.0344,0.22116 0.1525,0.42064 0.3298,0.55724 0.1773,0.1366 0.4002,0.19988 0.6229,0.17675 8.9501,-1.3877 12.0222,1.96574 12.9275,3.474 0.5571,0.9234 0.825,1.9925 0.769,3.0695 -0.0559,1.0769998 -0.4331,2.1124998 -1.0829,2.9731998 -0.5669,0.7495 -1.3071,1.3505 -2.1571,1.7514 0.4907,-0.3201 0.9215,-0.7237 1.2728,-1.1925 0.5828,-0.7759 0.9199,-1.7084 0.968,-2.6775998 0.0481,-0.9691 -0.1951,-1.9305 -0.6981,-2.7602 -0.7331,-1.2193 -3.1486,-3.94683 -9.7617,-2.92089 -0.1177,0.01223 -0.2317,0.04827 -0.3351,0.10594 -0.1033,0.05766 -0.1939,0.13575 -0.2661,0.2295 -0.0722,0.09375 -0.1246,0.20121 -0.154,0.31585 -0.0295,0.11464 -0.0352,0.23406 -0.017,0.35101 0.0181,0.11699 0.0599,0.22899 0.1228,0.32929 0.0628,0.1003 0.1454,0.1867 0.2427,0.2541 0.0973,0.0674 0.2073,0.1143 0.3233,0.1378 0.1159,0.0236 0.2355,0.0233 0.3514,-8e-4 3.8549,-0.5972 6.8408,0.1914 7.9873,2.094 0.3235,0.5323 0.4803,1.1492 0.4502,1.7714 -0.03,0.6220998 -0.2454,1.2210998 -0.6186,1.7197998 -0.7905,1.0546 -2.1571,1.5446 -3.7803,1.3954 0.4709,-0.8595 0.7389,-1.6385 0.7312,-2.228 -0.0134,-0.8364998 -0.5532,-1.4125998 -1.3398,-1.4355998 -2.5764,-0.0765 -4.879,-0.2373 -6.9921,-0.4057 -0.2178,-0.5028 -0.568,-0.937 -1.0133,-1.2563 -0.4453,-0.3193 -0.9689,-0.5117 -1.515,-0.5567 -0.546,-0.045 -1.0941,0.0591 -1.5856,0.3012 -0.4915,0.2421 -0.9081,0.6131 -1.2053,1.0734 -1.9447,-0.1531 -3.8626,-0.2794 -5.723,-0.3158 -0.0913,-0.0144 -0.1843,-0.0144 -0.2757,0 -2.7505,-0.0364 -5.3766,0.1397 -7.7844,0.7542 -4.611,1.1789998 -8.0583005,3.8280998 -10.8470405,8.3394998 -1.43136,2.2839 -2.31932,4.866 -2.59547,7.5472 -0.02031,0.0826 -0.02806,0.1677 -0.02297,0.2526 -0.28137,3.2539 0.33496,6.6552 1.85856,10.1178 z m -0.05934,-6.5173 c 0.89768,0.9528 2.02852,1.6548 3.28071,2.0365 0.52041,0.1567 1.06051,0.2379 1.6040105,0.2412 0.2068,-0.0015 0.4134,-0.0169 0.6182,-0.0459 -0.4382,1.574 -0.4382,3.2379 0,4.8119 -0.0446,0.1969 -0.1439,0.3771 -0.2865,0.52 -0.1426,0.1429 -0.3226,0.2426 -0.5193,0.2877 -0.7101005,0.1915 -1.7992205,-0.1244 -2.6548105,-1.2154 -0.13781,-0.2845 -0.27052,-0.5748 -0.39813,-0.8709 -0.82327,-1.8331 -1.37768,-3.7755 -1.64609,-5.767 z m 19.1789205,20.1283 c -0.8766,0.8153 -2.6606,2.1169 -4.7852,1.6786 -1.9332,-0.3981 -3.7822,-2.2165 -5.4072,-5.2905 0.0829,-0.0152 0.1647,-0.0357 0.245,-0.0612 0.98,0.867 3.2826,2.5897 6.2513,2.7371 0.5475,0.1301 1.0738,0.2431 1.5638,0.3483 0.7327,0.1384 1.4563,0.3212 2.1667,0.5475 l -0.044,0.0402 z m -3.7899,-5.08 c 1.5715,-0.2086 3.3765,-1.2403 4.8254,-2.0691 0.4479,-0.2565 0.9972,-0.5742 1.4221,-0.7809 -0.3081,1.3513 -1.5771,4.0578 -3.1582,4.7201 -0.8778,0.3754 -1.8268,0.555 -2.7811,0.5263 -1.7916,-0.4383 -3.7611,-1.0795 -5.2292,-2.2624 l 0.023,-0.0689 c 1.0125,0.1761 2.4213,0.2641 4.898,-0.0651 z m -6.5748,-0.8422 v 0.0287 c 0.0362,0.142 0.0282,0.2915 -0.0229,0.4288 -0.0153,0.0287 -0.0651,0.1244 -0.1053,0.1302 -0.0402,0.0057 -0.268,0.0325 -0.8518,-0.3541 -0.4677,-0.3254 -0.9018,-0.6967 -1.2958,-1.1083 -1.055,-1.1557 -2.0061,-2.4021 -2.8424005,-3.7248 0.1843,0.029 0.3705,0.0437 0.557,0.0441 0.2925005,0.0011 0.5840005,-0.0356 0.8671005,-0.1091 0.3963,-0.1006 0.7668,-0.2839 1.0872,-0.5379 0.4504,0.9573 0.9532,1.8889 1.5064,2.7907 0.7656,1.2748 1.0259,2.0002 1.0967,2.4117 z m 26.7204,-28.8028 c -1.07,1.3073 -5.0015,5.591 -10.6135,5.9183 -1.3035,0.0747 -2.5362,0.0766 -3.7286,0.0766 -0.7006,0 -1.3877,0 -2.0615,0.0191 -1.6422,-1.447 -2.5973,-3.8932 -2.3409,-6.0637 0.1532,-1.2786 0.7944,-3.0051 2.9381,-4.0845998 1.6499,0.0306 3.3917,0.1377998 5.235,0.2774998 0.01,0.5045 0.1465,0.9985 0.397,1.4366 0.2504,0.4381 0.6069,0.8063 1.0366,1.0708 0.4182,0.2596 0.8934,0.4132 1.3845,0.4475 0.491,0.0343 0.983,-0.0518 1.4332,-0.2508 0.4502,-0.1989 0.845,-0.5048 1.1502,-0.891 0.3052,-0.3862 0.5115,-0.841 0.601,-1.325 1.937,0.1512 4.0329,0.2947 6.3528,0.3713 -0.1417,0.5436 -0.6757,1.6423 -1.7839,2.9936 z m -8.6248,-4.6051998 c 0.0881,-0.1437 0.2038,-0.2684 0.3405,-0.367 0.1367,-0.0985 0.2916,-0.169 0.4557,-0.2072 0.0973,-0.0228 0.1968,-0.0344 0.2967,-0.0345 0.2834,6e-4 0.5585,0.0952 0.7823,0.2689 0.2238,0.1738 0.3837,0.4168 0.4547,0.6911 0.0709,0.2743998 0.0488,0.5644998 -0.0628,0.8248998 -0.1116,0.2604 -0.3064,0.4765 -0.554,0.6143 -0.2475,0.1379 -0.5338,0.1898 -0.8139,0.1475 -0.2802,-0.0422 -0.5385,-0.1762 -0.7343,-0.3809 -0.1959,-0.2048 -0.3184,-0.4687 -0.3482,-0.7504 -0.0298,-0.2817998 0.0346,-0.5654998 0.1833,-0.8066998 z m -10.1063,0.5072 c -0.9718,1.0586998 -1.5806,2.3996998 -1.7379,3.8280998 -0.2661,2.2299 0.4479,4.611 1.8298,6.4102 -2.1724,0.245 -4.2109,0.8767 -6.125,2.4883 -1.6595,-0.4287 -3.4453,-2.2528 -4.2683,-4.4272 -0.7772,-2.05 -0.5743,-3.9985 0.5742,-5.3594 2.783,-1.9772 5.9967,-2.7658 9.733,-2.9552998 z M 7.9023615,18.174366 c 0.58462,-0.9551 1.24447,-1.8621 1.97337,-2.7123 -0.0528,1.1711 0.1429005,2.3401 0.5742005,3.43 0.8958,2.3601 2.6357,4.2971 4.523,5.168 -0.3158,0.3579 -0.6298,0.7465 -0.9398,1.1714 -0.8086,1.0871 -1.5135,2.2477 -2.1055,3.4664 -0.5359,0.511 -1.4815,0.6316 -2.5572005,0.3196 -1.60971,-0.4689 -3.40319,-1.914 -3.81663,-4.0807 0.26371,-2.4025 1.07148,-4.7132 2.36196,-6.7567" />
  </g>
</svg>
