<svg viewBox="0 0 900 900" xmlns="http://www.w3.org/2000/svg">
<path d="M354.704 189.292L340.475 189.217V189.292H354.704ZM358.843 170.722L371.758 176.694L371.781 176.646L358.843 170.722ZM402.305 75.8052L415.243 81.729L424.471 61.5759H402.305V75.8052ZM61.8307 75.8052V61.5759H52.6962L48.8933 69.8811L61.8307 75.8052ZM18.3685 170.722L31.2836 176.694L31.306 176.646L18.3685 170.722ZM14.2292 189.292L0 189.217V189.292H14.2292ZM14.2292 860.391H0V874.621H14.2292V860.391ZM436.93 75.6606L422.701 75.6605V78.7634L423.993 81.5848L436.93 75.6606ZM480.393 170.576L467.455 176.501L467.487 176.569L480.393 170.576ZM484.532 189.147H498.761V189.093L484.532 189.147ZM436.931 36.7038L451.16 36.704V36.5824L451.157 36.4609L436.931 36.7038ZM413.647 14.2335V28.4627H413.757L413.867 28.461L413.647 14.2335ZM96.6422 14.2335L96.4183 28.4609L96.5303 28.4627H96.6422V14.2335ZM61.7276 47.9494L47.5003 47.7192L47.4984 47.8342V47.9494H61.7276ZM379.643 14.2332V0.00395336V14.2332ZM402.181 36.7037H387.952H402.181ZM14.3535 611.999H0.124269V626.228H14.3535V611.999ZM14.3535 327.353V313.124H0.124269V327.353H14.3535ZM825.959 696.764V710.993H842.653L840.009 694.51L825.959 696.764ZM764.243 563.406L754.062 573.348L754.07 573.356L764.243 563.406ZM537.867 696.764V710.993V696.764ZM674.855 245.933L661.156 249.782L661.158 249.789L674.855 245.933ZM650.391 229.693V243.923H651.264L652.129 243.816L650.391 229.693ZM650.185 229.693V215.464H637.375L636.034 228.204L650.185 229.693ZM574.623 238.999L587.983 234.102L584.099 223.506L572.897 224.875L574.623 238.999ZM456.406 253.443L458.122 267.569L458.132 267.568L456.406 253.443ZM436.661 277.482L450.854 276.456L450.848 276.38L436.661 277.482ZM438.545 303.542L424.352 304.569L425.39 318.923L439.732 317.722L438.545 303.542ZM447.464 386.779L449.261 400.895L449.291 400.891L447.464 386.779ZM444.567 387.007L443.663 372.806L429.341 373.718L430.375 388.032L444.567 387.007ZM456.095 546.631L441.903 547.656L442.408 554.647L448.257 558.507L456.095 546.631ZM456.116 546.631L448.274 558.505L448.275 558.506L456.116 546.631ZM290.524 696.764L276.474 694.514L273.837 710.993H290.524V696.764ZM859.611 696.764V710.993H859.633L859.611 696.764ZM256.894 696.764V710.993V696.764ZM230.775 722.783L216.545 722.772V722.783H230.775ZM859.611 748.823L859.633 734.594H859.611V748.823ZM885.771 722.783H900V722.772L885.771 722.783ZM268.504 748.824V734.594H250.905L254.591 751.802L268.504 748.824ZM297.831 885.771L283.917 888.75L286.326 900H297.831V885.771ZM532.713 885.771V900H544.535L546.701 888.378L532.713 885.771ZM544.448 822.796V808.567H532.624L530.459 820.189L544.448 822.796ZM572.036 822.796L586.024 820.189L583.858 808.567H572.036V822.796ZM583.77 885.771L569.782 888.378L571.948 900H583.77V885.771ZM818.653 885.771V900H830.156L832.566 888.752L818.653 885.771ZM848 748.824L861.913 751.805L865.601 734.594H848V748.824ZM368.933 560.93V189.292H340.475V560.93H368.933ZM368.933 189.368C368.956 184.993 369.919 180.671 371.758 176.694L345.928 164.748C342.379 172.421 340.52 180.765 340.475 189.217L368.933 189.368ZM371.781 176.646L415.243 81.729L389.368 69.8811L345.905 164.797L371.781 176.646ZM402.305 61.5759H61.8307V90.0341H402.305V61.5759ZM48.8933 69.8811L5.43111 164.797L31.306 176.646L74.7682 81.729L48.8933 69.8811ZM5.4535 164.748C1.9052 172.421 0.0451541 180.765 0.000189723 189.217L28.4583 189.368C28.4815 184.993 29.4444 180.671 31.2835 176.694L5.4535 164.748ZM0 189.292V860.391H28.4585V189.292H0ZM14.2292 874.621H292.408V846.162H14.2292V874.621ZM423.993 81.5848L467.455 176.501L493.33 164.653L449.867 69.7366L423.993 81.5848ZM467.487 176.569C469.326 180.531 470.286 184.84 470.302 189.202L498.761 189.093C498.729 180.625 496.865 172.266 493.299 164.585L467.487 176.569ZM470.302 189.147V249.977H498.761V189.147H470.302ZM451.159 75.6608L451.16 36.704L422.702 36.7037L422.701 75.6605L451.159 75.6608ZM451.157 36.4609C450.989 26.6211 446.911 17.259 439.833 10.4275L420.07 30.905C421.723 32.4997 422.665 34.6737 422.704 36.9469L451.157 36.4609ZM439.833 10.4275C432.756 3.5976 423.258 -0.145833 413.428 0.00594546L413.867 28.461C416.187 28.4253 418.417 29.309 420.07 30.905L439.833 10.4275ZM413.647 0.00423795H96.6422V28.4627H413.647V0.00423795ZM96.8661 0.00604032C83.9934 -0.196584 71.5589 4.70568 62.2984 13.6482L82.0667 34.1197C85.902 30.417 91.0634 28.3767 96.4183 28.4609L96.8661 0.00604032ZM62.2984 13.6482C53.0366 22.592 47.7086 34.8464 47.5003 47.7192L75.955 48.1796C76.0408 42.8794 78.2342 37.821 82.0667 34.1197L62.2984 13.6482ZM47.4984 47.9494V75.6608H75.9569V47.9494H47.4984ZM344.935 28.4625H379.643V0.00395336H344.935V28.4625ZM379.643 28.4625C381.861 28.4625 383.978 29.3412 385.534 30.8915L405.627 10.7379C398.728 3.86017 389.381 0.00395336 379.643 0.00395336V28.4625ZM385.534 30.8915C387.087 32.4403 387.952 34.5318 387.952 36.7037H416.41C416.41 26.9564 412.526 17.6171 405.627 10.7379L385.534 30.8915ZM387.952 36.7037V75.6606H416.41V36.7037H387.952ZM318.195 597.77H14.3535V626.228H318.195V597.77ZM28.5828 611.999V327.353H0.124269V611.999H28.5828ZM14.3535 341.583H354.704V313.124H14.3535V341.583ZM573.225 546.136C573.225 559.604 562.262 570.595 548.649 570.595V599.053C577.898 599.053 601.684 575.401 601.684 546.136H573.225ZM548.649 570.595C535.035 570.595 524.073 559.604 524.073 546.136H495.614C495.614 575.401 519.399 599.053 548.649 599.053V570.595ZM524.073 546.136C524.073 532.667 535.035 521.676 548.649 521.676V493.218C519.399 493.218 495.614 516.87 495.614 546.136H524.073ZM548.649 521.676C562.262 521.676 573.225 532.667 573.225 546.136H601.684C601.684 516.87 577.898 493.218 548.649 493.218V521.676ZM653.278 407.084C653.278 422.318 640.88 434.741 625.494 434.741V463.2C656.516 463.2 681.737 438.116 681.737 407.084H653.278ZM625.494 434.741C610.108 434.741 597.71 422.318 597.71 407.084H569.252C569.252 438.116 594.472 463.2 625.494 463.2V434.741ZM597.71 407.084C597.71 391.849 610.108 379.426 625.494 379.426V350.967C594.472 350.967 569.252 376.051 569.252 407.084H597.71ZM625.494 379.426C640.88 379.426 653.278 391.849 653.278 407.084H681.737C681.737 376.051 656.516 350.967 625.494 350.967V379.426ZM578.596 710.993H825.959V682.534H578.596V710.993ZM840.009 694.51C831.619 642.216 807.807 587.598 774.415 553.457L754.07 573.356C782.353 602.273 804.197 650.947 811.91 699.018L840.009 694.51ZM774.423 553.465C754.519 533.084 729.949 518.762 702.278 518.762V547.221C719.641 547.221 737.333 556.217 754.062 573.348L774.423 553.465ZM702.278 518.762C665.249 518.762 633.806 544.219 610.966 576.673C587.807 609.582 571.253 652.611 564.546 694.514L592.647 699.013C598.751 660.877 613.853 622.021 634.238 593.052C654.944 563.631 678.936 547.221 702.278 547.221V518.762ZM537.867 710.993H578.596V682.534H537.867V710.993ZM777.94 559.55L688.551 242.076L661.158 249.789L750.545 567.263L777.94 559.55ZM688.553 242.083C686.175 233.619 680.834 226.296 673.513 221.436L657.774 245.146C659.429 246.245 660.625 247.892 661.156 249.782L688.553 242.083ZM673.513 221.436C666.193 216.577 657.373 214.498 648.655 215.57L652.129 243.816C654.114 243.572 656.117 244.046 657.774 245.146L673.513 221.436ZM650.391 215.464H650.185V243.923H650.391V215.464ZM636.034 228.204C635.45 233.751 632.998 238.946 629.068 242.937L649.344 262.905C657.789 254.33 663.076 243.149 664.336 231.183L636.034 228.204ZM629.068 242.937C625.136 246.929 619.959 249.481 614.374 250.169L617.853 278.414C629.8 276.943 640.901 271.479 649.344 262.905L629.068 242.937ZM614.374 250.169C608.791 250.857 603.141 249.637 598.348 246.715L583.535 271.015C593.811 277.279 605.907 279.885 617.853 278.414L614.374 250.169ZM598.348 246.715C593.554 243.793 589.905 239.345 587.983 234.102L561.262 243.896C565.404 255.194 573.258 264.75 583.535 271.015L598.348 246.715ZM572.897 224.875L454.68 239.319L458.132 267.568L576.348 253.123L572.897 224.875ZM454.689 239.318C445.301 240.459 436.705 245.169 430.699 252.481L452.69 270.544C454.041 268.899 455.985 267.829 458.122 267.569L454.689 239.318ZM430.699 252.481C424.692 259.794 421.743 269.144 422.475 278.582L450.848 276.38C450.685 274.277 451.341 272.187 452.69 270.544L430.699 252.481ZM422.469 278.507L424.352 304.569L452.737 302.517L450.854 276.456L422.469 278.507ZM439.732 317.722C446.974 317.116 454.161 319.36 459.754 323.965L477.843 301.995C466.514 292.668 451.983 288.138 437.358 289.363L439.732 317.722ZM459.754 323.965C465.346 328.569 468.897 335.162 469.666 342.33L497.962 339.298C496.399 324.71 489.172 311.323 477.843 301.995L459.754 323.965ZM469.666 342.33C470.434 349.498 468.359 356.686 463.874 362.356L486.196 380.009C495.298 368.499 499.525 353.886 497.962 339.298L469.666 342.33ZM463.874 362.356C459.388 368.029 452.845 371.735 445.638 372.668L449.291 400.891C463.847 399.008 477.095 391.518 486.196 380.009L463.874 362.356ZM445.669 372.664C445.278 372.714 445.017 372.72 443.663 372.806L445.471 401.207C446.063 401.17 447.706 401.093 449.261 400.895L445.669 372.664ZM430.375 388.032L441.903 547.656L470.287 545.606L458.76 385.982L430.375 388.032ZM448.257 558.507C466.032 570.237 482.645 590.448 496.095 615.768C509.469 640.943 519.214 670.238 523.816 699.011L551.917 694.516C546.833 662.728 536.109 630.432 521.227 602.417C506.422 574.548 486.993 549.974 463.933 534.755L448.257 558.507ZM463.958 534.758C449.012 524.887 432.235 518.762 414.206 518.762V547.221C425.565 547.221 436.976 551.043 448.274 558.505L463.958 534.758ZM414.206 518.762C377.177 518.762 345.734 544.219 322.894 576.673C299.735 609.582 283.181 652.611 276.474 694.514L304.575 699.013C310.679 660.877 325.781 622.021 346.166 593.052C366.872 563.631 390.864 547.221 414.206 547.221V518.762ZM290.524 710.993H537.867V682.534H290.524V710.993ZM551.917 694.516C546.833 662.728 536.109 630.432 521.231 602.418C506.428 574.55 487.005 549.976 463.956 534.757L448.275 558.506C466.039 570.234 482.649 590.446 496.097 615.767C509.469 640.943 519.214 670.238 523.816 699.011L551.917 694.516ZM859.611 682.534H256.894V710.993H859.611V682.534ZM256.894 682.534C246.212 682.534 235.959 686.762 228.39 694.303L248.474 714.464C250.7 712.246 253.727 710.993 256.894 710.993V682.534ZM228.39 694.303C220.819 701.844 216.554 712.084 216.545 722.772L245.004 722.795C245.007 719.677 246.249 716.681 248.474 714.464L228.39 694.303ZM216.545 722.783C216.545 733.477 220.807 743.724 228.378 751.273L248.471 731.12C246.246 728.901 245.004 725.901 245.004 722.783H216.545ZM228.378 751.273C235.948 758.82 246.207 763.052 256.894 763.052V734.594C253.726 734.594 250.698 733.339 248.471 731.12L228.378 751.273ZM256.894 763.052H859.611V734.594H256.894V763.052ZM859.588 763.052C864.886 763.061 870.135 762.027 875.034 760.012L864.203 733.694C862.755 734.29 861.203 734.596 859.633 734.594L859.588 763.052ZM875.034 760.012C879.934 757.995 884.39 755.033 888.144 751.296L868.068 731.126C866.963 732.225 865.651 733.098 864.203 733.694L875.034 760.012ZM888.144 751.296C891.9 747.557 894.881 743.116 896.917 738.222L870.64 727.293C870.046 728.724 869.172 730.027 868.068 731.126L888.144 751.296ZM896.917 738.222C898.952 733.329 900 728.082 900 722.783H871.542C871.542 724.329 871.236 725.862 870.64 727.293L896.917 738.222ZM900 722.772C899.996 717.475 898.945 712.232 896.908 707.343L870.637 718.287C871.233 719.717 871.541 721.248 871.542 722.795L900 722.772ZM896.908 707.343C894.871 702.453 891.888 698.015 888.134 694.28L868.065 714.457C869.168 715.556 870.042 716.857 870.637 718.287L896.908 707.343ZM888.134 694.28C884.378 690.545 879.924 687.588 875.027 685.573L864.201 711.891C865.648 712.487 866.961 713.36 868.065 714.457L888.134 694.28ZM875.027 685.573C870.129 683.558 864.883 682.526 859.588 682.534L859.633 710.993C861.202 710.991 862.753 711.296 864.201 711.891L875.027 685.573ZM254.591 751.802L283.917 888.75L311.745 882.791L282.417 745.844L254.591 751.802ZM297.831 900H532.713V871.542H297.831V900ZM546.701 888.378L558.436 825.403L530.459 820.189L518.724 883.164L546.701 888.378ZM544.448 837.025H572.036V808.567H544.448V837.025ZM558.047 825.403L569.782 888.378L597.759 883.164L586.024 820.189L558.047 825.403ZM583.77 900H818.653V871.542H583.77V900ZM832.566 888.752L861.913 751.805L834.086 745.841L804.74 882.789L832.566 888.752ZM848 734.594H268.504V763.053H848V734.594Z" fill="black"/>
</svg>
