<?xml version="1.0" encoding="UTF-8" standalone="no"?>
<svg
   width="1000"
   height="1000"
   viewBox="0 0 1000 1000"
   fill="none"
   version="1.1"
   id="svg134"
   sodipodi:docname="produitsLaitiers.svg"
   inkscape:version="1.2.1 (9c6d41e, 2022-07-14)"
   xmlns:inkscape="http://www.inkscape.org/namespaces/inkscape"
   xmlns:sodipodi="http://sodipodi.sourceforge.net/DTD/sodipodi-0.dtd"
   xmlns="http://www.w3.org/2000/svg"
   xmlns:svg="http://www.w3.org/2000/svg">
  <sodipodi:namedview
     id="namedview5923"
     pagecolor="#ffffff"
     bordercolor="#111111"
     borderopacity="1"
     inkscape:showpageshadow="0"
     inkscape:pageopacity="0"
     inkscape:pagecheckerboard="1"
     inkscape:deskcolor="#d1d1d1"
     showgrid="false"
     showguides="false"
     inkscape:zoom="2.4874835"
     inkscape:cx="47.236494"
     inkscape:cy="47.4375"
     inkscape:window-width="1309"
     inkscape:window-height="456"
     inkscape:window-x="231"
     inkscape:window-y="1361"
     inkscape:window-maximized="0"
     inkscape:current-layer="svg134" />
  <defs
     id="defs138" />
  <g
     id="g2011"
     transform="matrix(9.486166,0,0,9.486166,50,50.000015)">
    <path
       id="path2071"
       d="m 37.3917,19.954497 -1.5,-0.0079 v 0.0079 z m 0.4363,-1.9576 1.3615,0.6296 0.0024,-0.0051 z m 4.5817,-10.0057702 1.3638,0.62447 0.9728,-2.12447 h -2.3366 z m -35.89171,0 v -1.5 H 5.55506 l -0.40089,0.87551 z m -4.58164,10.0057702 1.36146,0.6296 0.00236,-0.0051 z M 1.5,19.954497 0,19.946597 v 0.0079 z m 0,70.7451 H 0 v 1.5 h 1.5 z m 44.5597,-82.7237102 -1.5,-10e-6 v 0.3271 l 0.1362,0.29742 z m 4.5817,10.0057102 -1.3639,0.6245 0.0034,0.0072 z m 0.4363,1.9577 h 1.5 v -0.0057 z m -5.0179,-16.0701002 1.5,2e-5 v -0.01282 l -3e-4,-0.01281 z m -2.4545,-2.36875 v 1.5 h 0.0116 l 0.0116,-1.8e-4 z m -33.4176,0 -0.0236,1.49981 0.0118,1.9e-4 h 0.0118 z m -3.68058,3.55422 -1.4998,-0.02427 -2e-4,0.01213 v 0.01214 z M 40.0207,1.5004168 V 4.1675023e-4 Z m 2.3759,2.36876 h -1.5 z M 1.5131,64.514897 h -1.5 v 1.5 h 1.5 z m 0,-30.0064 v -1.5 h -1.5 v 1.5 z m 85.5567,38.942 v 1.5 h 1.7599 l -0.2788,-1.7376 z m -6.5059,-14.0581 -1.0732,1.048 8e-4,9e-4 z m -23.8638,14.0581 v 1.5 0 z m 14.4409,-47.5251 -1.4441,0.4058 2e-4,7e-4 z m -2.5789,-1.7119 v 1.5 h 0.092 l 0.0912,-0.0112 z m -0.0218,0 v -1.5 h -1.3504 l -0.1413,1.343 z m -7.9655,0.981 1.4084,-0.5162 -0.4094,-1.117 -1.1809,0.1443 z m -12.462,1.5226 0.1809,1.4891 10e-4,-10e-5 z m -2.0814,2.5341 1.4961,-0.1081 -6e-4,-0.008 z m 0.1985,2.7472 -1.4961,0.1082 0.1094,1.5132 1.5119,-0.1266 z m 0.9403,8.7746 0.1894,1.488 0.0032,-4e-4 z m -0.3054,0.024 -0.0953,-1.497 -1.5098,0.0961 0.109,1.5089 z m 1.2152,16.827 -1.4961,0.1081 0.0533,0.7369 0.6166,0.407 z m 0.0022,0 -0.8267,1.2517 2e-4,10e-5 z m -17.4561,15.8265 -1.4811,-0.2371 -0.278,1.7371 h 1.7591 z m 59.9912,0 v 1.5 h 0.0024 z m -63.5364,0 v 1.5 z m -2.7534,2.7429 -1.5,-0.0012 v 0.0012 z m 66.2898,2.745 0.0024,-1.5 h -0.0024 z m 2.7577,-2.745 h 1.5 v -0.0012 z m -65.0702,2.7451 v -1.5 h -1.8552 l 0.3885,1.814 z m 3.0915,14.4365 -1.4667,0.3141 0.2539,1.1859 h 1.2128 z m 24.7605,0 v 1.5 h 1.2463 l 0.2283,-1.2252 z m 1.2371,-6.6386 v -1.5 h -1.2464 l -0.2283,1.2252 z m 2.9082,0 1.4746,-0.2748 -0.2283,-1.2252 h -1.2463 z m 1.237,6.6386 -1.4746,0.2748 0.2283,1.2252 h 1.2463 z m 24.7606,0 v 1.5 h 1.2126 l 0.254,-1.1857 z m 3.0936,-14.4365 1.4667,0.3143 0.3888,-1.8143 h -1.8555 z m -50.5016,-19.8071 v -39.1769 h -3 v 39.1769 z m 0,-39.1689 c 0.0024,-0.4612 0.1039,-0.9168 0.2978,-1.336 l -2.7229,-1.2593 c -0.3741,0.8089 -0.5701,1.6884 -0.5749,2.5794 z m 0.3002,-1.3411 4.5816,-10.0058002 -2.7276,-1.24896 -4.5817,10.0057602 z M 42.4097,6.4911268 H 6.51799 v 2.99997 H 42.4097 Z M 5.15417,7.3666368 0.57253,17.372397 3.30017,18.621397 7.88181,8.6155968 Z M 0.57489,17.367197 c -0.37405,0.8089 -0.57013,1.6884 -0.57487,2.5794 l 2.99996,0.0159 c 0.00245,-0.4612 0.10395,-0.9168 0.29782,-1.336 z M 0,19.954497 v 70.7451 h 3 v -70.7451 z m 1.5,72.2451 h 29.3247 v -3 H 1.5 Z M 44.6959,8.6003968 49.2775,18.606097 52.0052,17.357197 47.4235,7.3513968 Z m 4.585,10.0129002 c 0.1939,0.4177 0.2951,0.8719 0.2968,1.3317 l 3,-0.0114 c -0.0034,-0.8927 -0.1999,-1.7739 -0.5758,-2.5836 z m 0.2968,1.326 v 6.4124 h 3 v -6.4124 z m -2.018,-11.9633902 1e-4,-4.10669 -3,-3e-5 -1e-4,4.10669 z m -2e-4,-4.13232 c -0.0177,-1.03728 -0.4476,-2.0242 -1.1938,-2.74435 l -2.0833,2.15867 c 0.1742,0.1681 0.2735,0.39728 0.2776,0.63691 z m -1.1938,-2.74435 C 45.6197,0.37924675 44.6185,-0.01537325 43.5822,6.2675023e-4 L 43.6285,3.0002668 c 0.2445,-0.00377 0.4796,0.08939 0.6539,0.25764 z M 43.6053,4.4675023e-4 H 10.1877 V 3.0004468 h 33.4176 z m -33.394,1.9e-4 C 8.8543,-0.02072325 7.5435,0.49605675 6.56729,1.4387468 l 2.08391,2.15804 c 0.4043,-0.39033 0.9484,-0.60541 1.5129,-0.59653 z M 6.56729,1.4387468 c -0.97635,0.94283 -1.53801,2.23464 -1.55997,3.59165 l 2.9996,0.04854 c 0.00905,-0.55873 0.24027,-1.09197 0.64428,-1.48215 z m -1.56017,3.61592 v 2.92124 h 3 v -2.92124 z m 31.35478,-2.05425 h 3.6588 V 4.1675023e-4 h -3.6588 z m 3.6588,0 c 0.2338,0 0.457,0.09263 0.621,0.25606 l 2.1181,-2.12452 C 42.0326,0.40692675 41.0472,4.1675023e-4 40.0207,4.1675023e-4 Z m 0.621,0.25606 c 0.1637,0.16327 0.2549,0.38375 0.2549,0.6127 h 3 c 0,-1.02752 -0.4095,-2.01204 -1.1368,-2.73722 z m 0.2549,0.6127 v 4.10671 h 3 v -4.10671 z M 33.5431,63.014897 h -32.03 v 3 h 32.03 z m -30.53,1.5 v -30.0064 h -3 v 30.0064 z m -1.5,-28.5064 h 35.8786 v -3 H 1.5131 Z m 58.9144,21.5633 c 0,1.4198 -1.1557,2.5784 -2.5908,2.5784 v 3 c 3.0834,0 5.5908,-2.4933 5.5908,-5.5784 z m -2.5908,2.5784 c -1.4351,0 -2.5907,-1.1586 -2.5907,-2.5784 h -3 c 0,3.0851 2.5073,5.5784 5.5907,5.5784 z m -2.5907,-2.5784 c 0,-1.4198 1.1556,-2.5784 2.5907,-2.5784 v -3 c -3.0834,0 -5.5907,2.4933 -5.5907,5.5784 z m 2.5907,-2.5784 c 1.4351,0 2.5908,1.1586 2.5908,2.5784 h 3 c 0,-3.0851 -2.5074,-5.5784 -5.5908,-5.5784 z m 11.0297,-12.08 c 0,1.606 -1.307,2.9156 -2.9289,2.9156 v 3 c 3.2702,0 5.9289,-2.6443 5.9289,-5.9156 z m -2.9289,2.9156 c -1.6219,0 -2.9289,-1.3096 -2.9289,-2.9156 h -3 c 0,3.2713 2.6587,5.9156 5.9289,5.9156 z m -2.9289,-2.9156 c 0,-1.606 1.307,-2.9156 2.9289,-2.9156 v -3 c -3.2702,0 -5.9289,2.6442 -5.9289,5.9156 z m 2.9289,-2.9156 c 1.6219,0 2.9289,1.3096 2.9289,2.9156 h 3 c 0,-3.2714 -2.6587,-5.9156 -5.9289,-5.9156 z m -4.9438,34.9527 h 26.0761 v -3 H 60.9937 Z m 27.5572,-1.7376 c -0.8844,-5.5126 -3.3946,-11.2703 -6.9147,-14.8693 l -2.1447,2.0977 c 2.9815,3.0483 5.2843,8.1794 6.0973,13.2468 z m -6.9138,-14.8685 c -2.0982,-2.1485 -4.6883,-3.6582 -7.6053,-3.6582 v 3 c 1.8304,0 3.6954,0.9483 5.4589,2.7542 z m -7.6053,-3.6582 c -3.9035,0 -7.2181,2.6836 -9.6258,6.1048 -2.4413,3.4691 -4.1864,8.0051 -4.8934,12.4224 l 2.9623,0.4742 c 0.6434,-4.0201 2.2354,-8.1162 4.3844,-11.17 2.1827,-3.1015 4.7119,-4.8314 7.1725,-4.8314 z m -17.3317,20.2643 h 4.2936 v -3 h -4.2936 z m 25.3077,-15.9646 -9.423,-33.4671 -2.8877,0.8131 9.4229,33.4671 z m -9.4228,-33.4663 c -0.2507,-0.8923 -0.8137,-1.6642 -1.5855,-2.1766 l -1.6592,2.4995 c 0.1745,0.1158 0.3006,0.2895 0.3566,0.4887 z m -1.5855,-2.1766 c -0.7717,-0.5122 -1.7014,-0.7313 -2.6205,-0.6183 l 0.3663,2.9776 c 0.2092,-0.0258 0.4204,0.0242 0.595,0.1402 z m -2.4374,-0.6295 h -0.0218 v 3 h 0.0218 z m -1.5135,1.343 c -0.0616,0.5848 -0.3201,1.1324 -0.7344,1.5531 l 2.1375,2.105 c 0.8902,-0.904 1.4476,-2.0826 1.5804,-3.3441 z m -0.7344,1.5531 c -0.4144,0.4208 -0.9602,0.6899 -1.5489,0.7624 l 0.3667,2.9775 c 1.2594,-0.1551 2.4296,-0.7311 3.3197,-1.6349 z m -1.5489,0.7624 c -0.5886,0.0725 -1.1842,-0.0561 -1.6895,-0.3641 l -1.5615,2.5616 c 1.0833,0.6603 2.3584,0.935 3.6177,0.78 z m -1.6895,-0.3641 c -0.5053,-0.308 -0.89,-0.7769 -1.0926,-1.3296 l -2.8168,1.0324 c 0.4366,1.191 1.2645,2.1984 2.3479,2.8588 z m -2.6829,-2.3023 -12.4621,1.5226 0.3639,2.9779 12.462,-1.5227 z m -12.4611,1.5225 c -0.9897,0.1203 -1.8958,0.6168 -2.5289,1.3876 l 2.3182,1.9041 c 0.1424,-0.1734 0.3473,-0.2862 0.5726,-0.3136 z m -2.5289,1.3876 c -0.6333,0.7709 -0.9442,1.7566 -0.867,2.7515 l 2.991,-0.2321 c -0.0172,-0.2217 0.052,-0.4421 0.1942,-0.6153 z m -0.8676,2.7436 0.1985,2.7473 2.9922,-0.2163 -0.1985,-2.7472 z m 1.8198,4.1339 c 0.7634,-0.0639 1.521,0.1727 2.1106,0.6581 l 1.9069,-2.316 c -1.1942,-0.9832 -2.7261,-1.4607 -4.2678,-1.3316 z m 2.1106,0.6581 c 0.5895,0.4853 0.9639,1.1804 1.0449,1.936 l 2.9829,-0.3196 c -0.1648,-1.5378 -0.9266,-2.9491 -2.1209,-3.9324 z m 1.0449,1.936 c 0.081,0.7556 -0.1378,1.5133 -0.6105,2.1111 l 2.3531,1.8609 c 0.9595,-1.2134 1.4051,-2.7538 1.2403,-4.2916 z m -0.6105,2.1111 c -0.4729,0.598 -1.1627,0.9887 -1.9224,1.087 l 0.3851,2.9752 c 1.5344,-0.1985 2.931,-0.9881 3.8904,-2.2013 z m -1.9192,1.0866 c -0.0412,0.0053 -0.0687,0.0059 -0.2114,0.015 l 0.1906,2.9939 c 0.0624,-0.0039 0.2356,-0.012 0.3995,-0.0329 z m -1.6122,1.62 1.2152,16.8271 2.9922,-0.2161 -1.2152,-16.8271 z m 1.8851,17.971 c 1.8737,1.2365 3.625,3.3671 5.0429,6.0362 1.4098,2.6539 2.4371,5.7421 2.9222,8.7752 l 2.9623,-0.4738 c -0.5359,-3.351 -1.6664,-6.7556 -3.2352,-9.7088 -1.5607,-2.9379 -3.6088,-5.5284 -6.0397,-7.1327 z m 1.6551,-2.5036 c -1.5756,-1.0406 -3.3441,-1.6862 -5.2447,-1.6862 v 3 c 1.1974,0 2.4004,0.4029 3.5913,1.1895 z m -5.2447,-1.6862 c -3.9035,0 -7.2181,2.6836 -9.6258,6.1048 -2.4413,3.4691 -4.1864,8.0051 -4.8934,12.4224 l 2.9623,0.4742 c 0.6434,-4.0201 2.2354,-8.1162 4.3844,-11.17 2.1827,-3.1015 4.7119,-4.8314 7.1725,-4.8314 z m -13.0381,20.2643 h 26.074 v -3 h -26.074 z m 27.5551,-1.7369 c -0.5359,-3.351 -1.6664,-6.7556 -3.2348,-9.7087 -1.5604,-2.9378 -3.608,-5.5283 -6.0377,-7.1326 l -1.653,2.5035 c 1.8726,1.2364 3.6235,3.3671 5.0412,6.0363 1.4096,2.654 2.4369,5.7422 2.922,8.7753 z m 32.4361,-1.2631 H 27.0809 v 3 h 63.5364 z m -63.5364,0 c -1.1261,0 -2.2069,0.4457 -3.0048,1.2406 l 2.1172,2.1253 c 0.2347,-0.2338 0.5538,-0.3659 0.8876,-0.3659 z m -3.0048,1.2406 c -0.7981,0.795 -1.2477,1.8744 -1.2486,3.0011 l 3,0.0024 c 3e-4,-0.3286 0.1313,-0.6445 0.3658,-0.8782 z m -1.2486,3.0023 c 0,1.1273 0.4492,2.2075 1.2474,3.0033 l 2.1181,-2.1245 c -0.2346,-0.2339 -0.3655,-0.5501 -0.3655,-0.8788 z m 1.2474,3.0033 c 0.798,0.7956 1.8794,1.2417 3.006,1.2417 v -3 c -0.3339,0 -0.6532,-0.1322 -0.8879,-0.3662 z m 3.006,1.2417 h 63.5364 v -3 H 27.0809 Z m 63.534,0 c 0.5585,9e-4 1.1118,-0.108 1.6283,-0.3205 l -1.1418,-2.7743 c -0.1526,0.0628 -0.3163,0.0951 -0.4817,0.0948 z m 1.6283,-0.3205 c 0.5165,-0.2126 0.9862,-0.5248 1.382,-0.9188 l -2.1164,-2.1262 c -0.1164,0.1158 -0.2548,0.2079 -0.4074,0.2707 z m 1.382,-0.9188 c 0.3959,-0.3941 0.7102,-0.8623 0.9248,-1.3782 l -2.77,-1.1521 c -0.0627,0.1509 -0.1548,0.2882 -0.2712,0.4041 z m 0.9248,-1.3782 c 0.2145,-0.5158 0.325,-1.0689 0.325,-1.6275 h -3 c 0,0.163 -0.0322,0.3246 -0.095,0.4754 z m 0.325,-1.6287 c -4e-4,-0.5584 -0.1112,-1.1111 -0.326,-1.6265 l -2.7693,1.1537 c 0.0628,0.1508 0.0952,0.3122 0.0953,0.4752 z m -0.326,-1.6265 c -0.2147,-0.5154 -0.5291,-0.9833 -0.9249,-1.377 l -2.1156,2.127 c 0.1163,0.1158 0.2084,0.253 0.2712,0.4037 z m -0.9249,-1.377 c -0.3959,-0.3937 -0.8654,-0.7055 -1.3817,-0.9179 l -1.1412,2.7744 c 0.1525,0.0628 0.2909,0.1548 0.4073,0.2705 z m -1.3817,-0.9179 c -0.5163,-0.2124 -1.0693,-0.3212 -1.6275,-0.3203 l 0.0048,3 c 0.1653,-2e-4 0.3289,0.032 0.4815,0.0947 z m -65.4043,6.9817 3.0915,14.4366 2.9335,-0.6282 -3.0916,-14.4365 z m 4.5582,15.6225 h 24.7605 v -3 H 31.3963 Z m 26.2351,-1.2252 1.2371,-6.6386 -2.9493,-0.5496 -1.237,6.6386 z m -0.2375,-5.4134 h 2.9082 v -3 h -2.9082 z m 1.4336,-1.2252 1.237,6.6386 2.9493,-0.5496 -1.2371,-6.6386 z m 2.7116,7.8638 h 24.7606 v -3 H 61.5391 Z m 26.2272,-1.1857 3.0937,-14.4365 -2.9334,-0.6287 -3.0936,14.4366 z m 1.627,-16.2508 H 28.3048 v 3 h 61.0885 z"
       style="fill:#000000" />
  </g>
</svg>
