<?xml version="1.0" encoding="UTF-8" standalone="no"?>
<svg
   width="1000"
   height="1000"
   viewBox="0 0 999.99999 1000"
   fill="none"
   version="1.1"
   id="svg146"
   sodipodi:docname="produitsMer.svg"
   inkscape:version="1.2.1 (9c6d41e, 2022-07-14)"
   xmlns:inkscape="http://www.inkscape.org/namespaces/inkscape"
   xmlns:sodipodi="http://sodipodi.sourceforge.net/DTD/sodipodi-0.dtd"
   xmlns="http://www.w3.org/2000/svg"
   xmlns:svg="http://www.w3.org/2000/svg">
  <sodipodi:namedview
     id="namedview6052"
     pagecolor="#ffffff"
     bordercolor="#111111"
     borderopacity="1"
     inkscape:showpageshadow="0"
     inkscape:pageopacity="0"
     inkscape:pagecheckerboard="1"
     inkscape:deskcolor="#d1d1d1"
     showgrid="false"
     inkscape:zoom="2.6485703"
     inkscape:cx="47.761616"
     inkscape:cy="44.552338"
     inkscape:window-width="1309"
     inkscape:window-height="456"
     inkscape:window-x="279"
     inkscape:window-y="1312"
     inkscape:window-maximized="0"
     inkscape:current-layer="svg146" />
  <defs
     id="defs150" />
  <g
     id="g2023"
     transform="matrix(9.4207067,0,0,9.4207067,50.001302,80.284533)">
    <g
       id="path136" />
    <path
       id="path144"
       style="color:#000000;fill:#000000;stroke-miterlimit:10;-inkscape-stroke:none"
       d="M 75.566406,2.3613281 C 73.581135,2.378754 71.630121,2.8819392 69.884766,3.828125 66.952356,5.3833228 64.760754,7.5111121 62.5,9.6992188 v 0.00195 c -1.638296,1.5865022 -3.305965,3.1970452 -5.308594,4.6621092 -0.296634,0.217043 -0.607026,0.414355 -0.929687,0.589844 l 0.103515,-0.04687 c -0.437138,0.15695 -0.851783,0.364284 -1.251953,0.599609 v -0.002 c -1.029668,0.409136 -2.079761,0.760373 -3.148437,1.052735 l -0.0078,0.002 -0.0059,0.002 c -1.156066,0.33684 -2.269901,0.650234 -3.203125,1.158203 -0.933224,0.507969 -1.726893,1.30871 -1.894531,2.443359 -0.160166,1.078451 0.377752,2.048749 1.05664,2.878907 0.678889,0.830157 1.554091,1.562383 2.355469,2.158203 3.011431,2.239612 9.003293,5.248047 15.568359,5.248047 2.734147,0.02225 5.43974,-0.560421 7.921875,-1.707032 v -0.002 h 0.002 c 4.592744,-2.15071 8.228637,-5.047349 10.494141,-8.419922 v -0.002 c 0.448091,-0.665221 0.844493,-1.362946 1.191406,-2.085937 0.0029,-0.0054 0.0069,-0.01022 0.0098,-0.01563 0.01785,-0.03399 0.03562,-0.06845 0.05078,-0.103516 1.111893,-2.372247 1.565828,-4.874493 1.251953,-7.240234 C 86.363483,7.9230087 84.282433,5.2816657 81.271484,3.7285156 l -0.002,-0.00195 C 79.508447,2.8119337 77.550833,2.3439097 75.566406,2.3613281 Z m 0.01367,1.4980469 c 1.740126,-0.015274 3.455869,0.3968572 5,1.1992187 h 0.002 v 0.00195 c 2.645716,1.3639976 4.371784,3.6357072 4.6875,6.0078123 h -0.002 c 0.271292,2.044792 -0.115649,4.26443 -1.125,6.414063 l -0.0078,0.01758 -0.0078,0.01563 c -4.45e-4,0.0011 2.8e-4,0.0034 0,0.0039 l -0.01367,0.02344 -0.01172,0.02539 c -0.201679,0.421517 -0.455457,0.814157 -0.695312,1.214844 l -3.943359,2.271484 c -1.832027,1.054798 -3.787665,1.879042 -5.822266,2.453125 l -0.01563,0.0039 -0.01563,0.0039 c -0.01027,0.0034 -0.02003,0.0078 -0.0293,0.0098 l -0.02148,0.0039 -0.01953,0.0059 c -1.712639,0.476286 -3.466747,0.789808 -5.238281,0.9375 h -0.002 c -0.893205,0.07664 -1.765307,0.113281 -2.607422,0.113281 -4.316603,0 -7.881151,-0.938093 -9.896484,-1.886718 -0.01497,-0.01469 -0.031,-0.02815 -0.03711,-0.04883 -0.0085,-0.02873 -0.0066,-0.06048 0.0059,-0.08789 0.0132,-0.02793 0.03607,-0.05047 0.06445,-0.0625 0.02839,-0.01204 0.059,-0.01373 0.08789,-0.0039 l -0.0625,-0.02344 c 1.433844,0.637392 2.942053,1.093682 4.488281,1.361328 l 0.207031,0.03711 0.195313,-0.07813 c 1.168901,-0.459722 2.122825,-0.980154 2.83789,-1.572266 0.715066,-0.592112 1.227289,-1.280885 1.306641,-2.097656 0.114373,-1.162292 -0.691283,-2.171839 -1.835938,-2.88086 -1.593673,-0.987788 -3.907395,-1.4259 -6.011718,-0.707031 l -0.05664,0.01953 -0.05469,0.02734 c -0.320665,0.171447 -0.654766,0.32475 -0.992187,0.470703 l -0.134766,0.05469 c -1.095193,0.438136 -2.215009,0.812579 -3.353515,1.121094 l -0.0059,0.002 -0.0078,0.002 c -0.794437,0.23164 -1.615585,0.468607 -2.298828,0.75 -0.341622,0.140696 -0.650102,0.289093 -0.923828,0.488281 -0.273727,0.199188 -0.566198,0.475722 -0.636719,0.935547 l -0.0059,0.0332 -0.002,0.0332 c -0.02515,0.403664 0.100369,0.566288 0.236328,0.806641 0.13596,0.240353 0.325456,0.502913 0.585938,0.800781 0.520964,0.595737 1.324763,1.324907 2.515625,2.142578 2.080585,1.428912 5.339785,3.06889 9.097656,3.914063 3.468273,0.78004 7.366728,0.805347 11.080078,-0.654297 l 0.01758,0.11914 0.919922,-0.433593 c 2.901387,-1.369435 5.383999,-3.033409 7.337891,-4.925782 l 0.59375,-0.576171 c -2.038338,2.164705 -4.540431,4.1724 -7.830078,5.71289 -2.282423,1.054051 -4.769173,1.589618 -7.283203,1.56836 h -0.002 -0.0039 c -6.09832,0 -11.920064,-2.903188 -14.673828,-4.951172 -0.74322,-0.55258 -1.53843,-1.234359 -2.08789,-1.90625 -0.549461,-0.671891 -0.798162,-1.290684 -0.736329,-1.707032 0.08886,-0.601449 0.42276,-0.960272 1.13086,-1.345703 0.705264,-0.383886 1.741995,-0.697875 2.892578,-1.033203 L 52.371094,18 c 1.11822,-0.306389 2.219374,-0.673421 3.296875,-1.101563 l 2.736328,-1.08789 1.658203,0.173828 c 1.107762,0.116114 2.176603,0.474 3.132812,1.044922 1.425532,0.890547 2.049777,2.011246 1.941407,3.111328 v 0.002 c -0.06864,0.702141 -0.426966,1.671373 -2.015625,2.724609 l -1.8125,1.201172 2.167968,0.171875 c 3.24991,0.257588 6.519887,-0.02964 9.675782,-0.847656 l 0.318359,-0.08203 0.154297,-0.289063 c 1.04709,-1.956827 1.702996,-3.68598 1.9375,-5.195312 0.234504,-1.509332 0.03794,-2.849201 -0.728516,-3.837891 -0.845631,-1.090956 -2.216314,-1.574707 -3.646484,-1.742187 -1.43017,-0.167481 -2.967579,-0.01764 -4.316406,0.326172 l 0.02734,-0.0059 c -0.03157,0.0069 -0.06403,0.0015 -0.0918,-0.01563 -0.02774,-0.01714 -0.04864,-0.04287 -0.05664,-0.07422 v -0.002 c -0.008,-0.03145 -0.0023,-0.06367 0.01367,-0.0918 0.01435,-0.02523 0.03772,-0.04246 0.06445,-0.05274 1.381676,-0.350418 3.05688,-0.521711 4.564453,-0.316406 1.513396,0.206098 2.81916,0.772562 3.634766,1.824219 1.249714,1.614165 1.223709,4.137149 -0.431641,7.785156 l -0.742187,1.632812 1.683593,-0.61914 c 3.071182,-1.131586 5.882754,-2.871349 8.265625,-5.115235 l 0.105469,-0.101562 0.0625,-0.132813 C 84.90667,15.247352 85.289568,13.120584 85.023437,11.117188 84.705996,8.722656 82.970431,6.5819477 80.472656,5.2949219 l -0.6875,1.3320312 c 2.145621,1.1055718 3.514195,2.8940353 3.751953,4.6874999 0.139101,1.045473 -0.0044,2.159868 -0.279297,3.289063 0.321542,-3.050084 -0.789594,-5.9747366 -3.246093,-7.7675785 -0.218075,-0.1589122 -0.49777,-0.2651436 -0.738282,-0.40625 0.166328,0.07374 0.347727,0.1053867 0.509766,0.1894531 l 0.689453,-1.3320312 c -1.511667,-0.784259 -3.191683,-1.1857511 -4.894531,-1.1699219 -1.702843,0.015818 -3.376312,0.4495059 -4.873047,1.2617187 -0.175465,0.09449 -0.353931,0.1910207 -0.533203,0.2949219 l -2.21875,1.2851563 C 68.797853,6.3178776 69.625681,5.6633339 70.59375,5.1503906 l 0.002,-0.00195 0.0039,-0.00195 C 72.129451,4.3171319 73.839953,3.8746491 75.580078,3.859375 Z m -2.214844,2.7304687 c 2.455923,-0.1684317 4.41219,0.4755743 5.761719,1.4589844 2.526322,1.8438009 3.4294,5.0654079 2.261719,8.3437499 l -0.002,0.0078 -0.0039,0.0078 c -0.0053,0.01603 -0.01284,0.03083 -0.02344,0.04297 -0.01093,0.01254 -0.02447,0.02216 -0.03906,0.0293 v 0.002 c -0.01436,0.007 -0.03056,0.01054 -0.04687,0.01172 -0.01614,9.15e-4 -0.03359,-0.0027 -0.04883,-0.0078 h -0.002 c -0.01478,-0.0055 -0.02919,-0.01488 -0.04102,-0.02539 -0.0126,-0.01152 -0.02259,-0.0245 -0.0293,-0.03906 -0.0069,-0.01488 -0.01117,-0.03049 -0.01172,-0.04687 v -0.002 c -5.6e-4,-0.01631 0.0018,-0.033 0.0078,-0.04883 l 0.0039,-0.0078 0.002,-0.0078 C 82.254419,13.212337 81.43534,10.045168 78.976562,8.25 75.965488,6.0521861 70.383079,5.9047169 63.632812,11.046875 l -0.03516,0.02734 -0.0332,0.03125 c -1.231462,1.191202 -2.483957,2.393374 -3.898437,3.552734 l -0.966797,0.792969 h -0.482422 c 2.031565,-1.506404 3.729862,-3.127984 5.326172,-4.673828 0.910837,-0.8815687 1.800543,-1.6978214 2.705078,-2.4941409 l 4.5,-1.2363281 c 0.92557,-0.2544264 1.798547,-0.4008873 2.617187,-0.4570313 z M 72.85742,8.3808594 c 2.294703,-0.2944484 4.075615,0.234287 5.234375,1.0800781 1.924418,1.4050295 2.569513,3.7533655 1.648437,6.3457035 l 0.0059,-0.01563 c -0.07697,0.201973 -0.112909,0.418072 -0.105469,0.634765 0.0075,0.21596 0.05974,0.428862 0.150391,0.625 h -0.002 c 0.09089,0.197235 0.221462,0.371896 0.38086,0.517578 v 0.002 c 0.159667,0.145574 0.346895,0.257541 0.550781,0.330079 0.03685,0.01309 0.07765,0.0053 0.115234,0.01563 -1.314754,0.995375 -2.715697,1.84122 -4.214843,2.53125 1.050439,-3.072396 1.032265,-5.668749 -0.408203,-7.529297 -1.128992,-1.455741 -2.852262,-2.150273 -4.617188,-2.390625 -1.599184,-0.217781 -3.236743,-0.04891 -4.6875,0.273437 2.205782,-1.3144084 4.257883,-2.2028952 5.949219,-2.4199216 z m -7.404297,3.3046876 c -0.18951,0.35657 -0.256537,0.769719 -0.15625,1.162109 0.103997,0.407446 0.363041,0.75746 0.720703,0.978516 0.357632,0.220852 0.788189,0.296369 1.199219,0.207031 l 0.01172,-0.0039 0.01367,-0.0039 c 1.181571,-0.301183 2.574107,-0.431235 3.771485,-0.291016 1.197378,0.140219 2.153998,0.553586 2.634765,1.173828 0.441343,0.569309 0.626861,1.43101 0.431641,2.6875 -0.182365,1.17375 -0.780651,2.700998 -1.660156,4.40625 -2.311239,0.56712 -4.681038,0.77089 -7.056641,0.734375 0.720635,-0.855029 1.195268,-1.710885 1.267578,-2.447266 v -0.002 C 66.804513,18.51525 65.746966,16.848824 63.982422,15.75 l -0.0039,-0.0039 -0.0059,-0.002 c -0.730814,-0.437154 -1.578342,-0.579684 -2.396484,-0.798828 1.037487,-0.907884 2.056452,-1.821148 2.978515,-2.712891 0.320615,-0.24393 0.586002,-0.328928 0.898438,-0.546875 z m -5.410156,6.072265 c 0.838305,0.116528 1.627941,0.392361 2.220703,0.759766 0.857543,0.531178 1.163839,1.143678 1.132812,1.458984 h -0.002 v 0.002 c -0.02405,0.247527 -0.232323,0.6411 -0.769531,1.085937 -0.494879,0.409786 -1.293814,0.835862 -2.240234,1.228516 C 59.037253,22.042068 57.7158,21.65859 56.462842,21.101608 l -0.03125,-0.01367 -0.03125,-0.01172 c -0.377714,-0.128382 -0.791198,-0.112596 -1.158204,0.04297 -0.367019,0.15557 -0.663587,0.440312 -0.833984,0.800781 -0.170237,0.360337 -0.202776,0.771664 -0.08984,1.154297 0.112848,0.38216 0.362081,0.711545 0.701172,0.921875 l 0.03711,0.02148 0.03711,0.01758 c 2.279991,1.085062 6.036218,2.050781 10.597656,2.050781 0.883653,0 1.79653,-0.0389 2.732422,-0.11914 1.823682,-0.15204 3.627549,-0.481962 5.392578,-0.964844 -0.439726,0.237142 -0.824309,0.504162 -1.289062,0.726563 l -0.146485,0.06836 c -3.601778,1.690469 -7.515528,1.671179 -11.046875,0.876953 -3.531346,-0.794226 -6.664067,-2.371615 -8.580078,-3.6875 -1.106036,-0.759427 -1.818415,-1.418869 -2.234375,-1.894531 -0.171186,-0.195757 -0.262425,-0.333323 -0.33789,-0.453125 0.121116,-0.07774 0.284915,-0.170492 0.52539,-0.269531 0.556409,-0.229156 1.345608,-0.463217 2.134766,-0.69336 l 0.01367,-0.0039 c 1.136094,-0.308402 2.2525,-0.687624 3.347656,-1.119141 h 0.05273 l 0.138672,-0.05859 c 0.380179,-0.160779 0.762133,-0.341097 1.140625,-0.539063 0.788828,-0.267477 1.672739,-0.313343 2.507813,-0.197266 z m 14.035156,7.183594 -0.0293,0.0098 c 0.0042,-0.0012 0.0075,-0.0047 0.01172,-0.0059 0.0057,-0.0018 0.01189,-0.002 0.01758,-0.0039 z m -0.138672,0.03906 -0.04102,0.0098 c 0.0088,-0.0019 0.01662,-0.0058 0.02539,-0.0078 0.0051,-0.0014 0.01056,-5.46e-4 0.01563,-0.002 z M 55.390839,16.201301 c -1.0555,0.4194 -2.1335,0.7798 -3.229,1.0795 -2.3122,0.6737 -4.3105,1.2556 -4.567,2.9917 -0.222,1.4948 1.5734,3.1773 3.118,4.3257 2.8826,2.1438 8.7894,5.0991 15.1211,5.0991 2.6254,0.0222 5.2231,-0.5374 7.6065,-1.6384 4.4962,-2.1055 8.0199,-4.9307 10.1886,-8.1597 0.4314,-0.6403 0.8152,-1.3114 1.1484,-2.0078 0.0166,-0.029 0.0313,-0.0591 0.044,-0.09 1.0624,-2.2624 1.4834,-4.6244 1.1906,-6.8313 -0.3541,-2.6605002 -2.2567,-5.1182002 -5.0857,-6.5766902 -1.6529,-0.85888 -3.4911,-1.29943 -5.3538,-1.28308 -1.8627,0.01635 -3.6929,0.4891 -5.3305,1.37687 -2.8213,1.4949 -4.9574,3.5621 -7.2198,5.7518002 -1.6385,1.5867 -3.3343,3.2271 -5.3881,4.7296 -0.3235,0.2367 -0.6624,0.4516 -1.0145,0.6431 -0.4292,0.1541 -0.8416,0.3517 -1.2307,0.5896 z m 17.3089,10.2746 c -7.5855,3.5602 -16.3729,-0.1263 -20.3695,-2.8711 -2.2969,-1.5771 -3.0319,-2.7773 -3.0127,-3.0854 0.0957,-0.624 1.7399,-1.1044 3.3285,-1.5676 1.1665,-0.3161 2.3137,-0.6996 3.4358,-1.1485 h 0.021 c 0.3982,-0.1684 0.7944,-0.3522 1.181,-0.5589 1.8433,-0.6297 3.9851,-0.2258 5.3747,0.6355 1.0011,0.6201 1.5561,1.4317 1.4834,2.1705 -0.1034,1.0643 -1.4394,2.1667 -3.6731,3.0453 -1.4853,-0.2571 -2.9331,-0.6969 -4.3105,-1.3092 -0.2033,-0.0691 -0.425,-0.061 -0.6227,0.0229 -0.1977,0.0838 -0.3577,0.2374 -0.4495,0.4316 -0.0917,0.1941 -0.1089,0.4153 -0.0481,0.6213 0.0608,0.206 0.1952,0.3824 0.3777,0.4956 2.1437,1.0202 5.8226,1.9773 10.2766,1.9773 0.8632,0 1.7552,-0.0364 2.6701,-0.1149 1.8184,-0.1516 3.6186,-0.4739 5.3766,-0.9628 0.0356,-0.0077 0.0707,-0.0173 0.1053,-0.0287 2.0942,-0.5909 4.1072,-1.4389 5.9929,-2.5246 -1.8834,1.8241 -4.297,3.4453 -7.1356,4.7851 z m 7.4285,-20.5149002 c 2.3217,1.1963 3.874,3.1601 4.1516,5.2541002 0.245,1.8414 -0.1053,3.8281 -0.9915,5.7594 -2.3094,2.1747 -5.0339,3.8608 -8.0104,4.9575 1.7093,-3.7669 1.826,-6.638 0.3426,-8.554 -1.9446,-2.5074 -6.0618,-2.5208 -8.9961,-1.7724 -0.2172,0.0639 -0.4013,0.2097 -0.5133,0.4066 -0.112,0.1968 -0.1433,0.4295 -0.0872,0.649 0.056,0.2194 0.195,0.4086 0.3877,0.5277 0.1927,0.119 0.4241,0.1587 0.6454,0.1106 2.5304,-0.645 5.8571,-0.5627 7.1835,1.1485 1.2078,1.558 0.7656,4.4023 -1.2767,8.219 -3.0752,0.7971 -6.2618,1.0759 -9.4286,0.8249 1.7322,-1.1484 2.2585,-2.3562 2.3485,-3.2769 0.1416,-1.4374 -0.6986,-2.8328 -2.2969,-3.8281 -1.0512,-0.6288 -2.227,-1.0207 -3.4453,-1.1484 1.4432,-1.1829 2.7122,-2.4022 3.9449,-3.5946 6.5882,-5.0187002 11.783,-4.7335002 14.4473,-2.7888002 2.1916,1.6001002 2.9247,4.3583002 1.9141,7.2026002 -0.0415,0.1089 -0.0609,0.225 -0.0569,0.3415 0.0039,0.1165 0.0311,0.231 0.08,0.3368 0.0488,0.1059 0.1184,0.2009 0.2044,0.2795 0.0861,0.0785 0.187,0.1391 0.2969,0.1782 0.1098,0.039 0.2263,0.0557 0.3427,0.0491 0.1164,-0.0067 0.2302,-0.0365 0.3349,-0.0878 0.1047,-0.0512 0.1981,-0.1229 0.2747,-0.2108 0.0766,-0.0878 0.1348,-0.1901 0.1713,-0.3008 1.2633,-3.5468 0.2718,-7.1586002 -2.5265,-9.2009002 -2.0041,-1.4604 -5.1355,-2.18777 -9.021,-1.1197 0.1684,-0.0976 0.3407,-0.1914 0.5149,-0.2852 1.389,-0.75375 2.9417,-1.15554 4.522,-1.17022 1.5803,-0.01469 3.1401,0.35819 4.543,1.08602 M 79.130859,42.125 c -0.57611,0.07628 -1.136474,0.262983 -1.65039,0.556641 -1.027964,0.587202 -1.785937,1.554555 -2.109375,2.693359 -0.323558,1.138805 -0.186841,2.358499 0.378906,3.398437 0.56561,1.039909 1.516555,1.818842 2.648437,2.166016 l 0.0078,0.002 0.0078,0.002 c 0.403337,0.11413 0.819346,0.172515 1.238282,0.173828 h 0.002 0.002 c 1.091623,-0.0016 2.146132,-0.3976 2.96875,-1.115234 0.822743,-0.717638 1.358023,-1.709775 1.507812,-2.791016 0.149678,-1.081297 -0.09472,-2.179599 -0.691406,-3.09375 -0.596703,-0.91417 -1.504571,-1.582709 -2.554687,-1.880859 l -0.0078,-0.002 -0.0078,-0.002 C 80.298452,42.082626 79.706969,42.048716 79.130859,42.125 Z m 1.353516,1.560547 c 0.698363,0.200792 1.301961,0.64334 1.699219,1.251953 0.399108,0.611448 0.564966,1.345058 0.464843,2.068359 -0.10021,0.723358 -0.459509,1.385274 -1.009765,1.865235 -0.549706,0.479551 -1.25292,0.744598 -1.982422,0.746093 -0.277384,-0.001 -0.553412,-0.041 -0.820313,-0.115234 -0.376138,-0.115758 -0.581545,-0.474826 -0.880859,-0.71875 0.352478,0.272183 0.76225,0.461844 1.201172,0.541016 0.449307,0.08091 0.912852,0.05075 1.347656,-0.08984 0.434826,-0.140465 0.827506,-0.386178 1.144531,-0.714844 0.316862,-0.328774 0.549274,-0.732303 0.673829,-1.171875 0.200296,-0.707814 0.112118,-1.466757 -0.246094,-2.109375 -0.35816,-0.642661 -0.958633,-1.116426 -1.666016,-1.318359 -0.24717,-0.07025 -0.502887,-0.106604 -0.759765,-0.107422 h -0.002 c -0.474859,-8.26e-4 -0.940539,0.121587 -1.353515,0.355469 -0.326746,0.182801 -0.578463,0.462855 -0.806641,0.757812 0.244677,-0.323942 0.37701,-0.736153 0.736328,-0.941406 0.685161,-0.391509 1.496003,-0.496386 2.259766,-0.298828 z m -3.205078,1.505859 c -0.212368,0.360962 -0.362617,0.757283 -0.396485,1.175781 -0.03685,0.455269 0.0385,0.913105 0.220704,1.332032 0.177295,0.407514 0.456075,0.760758 0.800781,1.041015 -0.279444,-0.238343 -0.659016,-0.354722 -0.837891,-0.683593 -0.378452,-0.69566 -0.468394,-1.509691 -0.251953,-2.271485 0.07133,-0.251155 0.334441,-0.37268 0.464844,-0.59375 z m 2.365234,0.121094 c 0.119275,3.8e-4 0.238865,0.01643 0.353516,0.04883 0.326016,0.09307 0.602538,0.311284 0.767578,0.607422 0.164988,0.295981 0.205585,0.644519 0.113281,0.970703 -0.05724,0.202027 -0.164608,0.387637 -0.310547,0.539063 -0.14577,0.150725 -0.32615,0.263762 -0.52539,0.328125 -0.199795,0.0646 -0.412049,0.07831 -0.619141,0.04102 -0.206707,-0.03728 -0.401465,-0.125357 -0.566406,-0.255859 -0.164675,-0.130292 -0.295106,-0.297619 -0.378906,-0.490235 -0.0838,-0.192672 -0.118508,-0.403949 -0.101563,-0.613281 0.01695,-0.209429 0.08553,-0.411179 0.199219,-0.58789 0.113599,-0.176571 0.26957,-0.323575 0.453125,-0.425782 h 0.002 l 0.002,-0.002 c 0.186466,-0.105602 0.39725,-0.160197 0.611328,-0.160156 z m 1.036808,-2.354599 c -0.9557,-0.25 -1.9714,-0.1155 -2.8291,0.3746 -0.8578,0.49 -1.4894,1.2967 -1.7593,2.247 -0.27,0.9503 -0.1568,1.9686 0.3153,2.8364 0.472,0.8678 1.2653,1.5162 2.2098,1.8059 0.3375,0.0955 0.6866,0.1444 1.0374,0.1455 0.9109,-0.0013 1.7907,-0.3318 2.4771,-0.9306 0.6865,-0.5988 1.1333,-1.4256 1.2583,-2.3279 0.1249,-0.9023 -0.0805,-1.8194 -0.5784,-2.5822 -0.4979,-0.7628 -1.2548,-1.3199 -2.1311,-1.5687 z m 0.9188,4.1861 c -0.0909,0.3208 -0.2596,0.6142 -0.491,0.8543 -0.2315,0.24 -0.5186,0.4193 -0.8359,0.5218 -0.3173,0.1026 -0.6549,0.1252 -0.9831,0.0661 -0.3282,-0.0592 -0.6366,-0.1985 -0.8981,-0.4054 -0.2615,-0.2069 -0.4679,-0.4752 -0.6009,-0.7809 -0.133,-0.3058 -0.1885,-0.6397 -0.1616,-0.972 0.0269,-0.3324 0.1354,-0.653 0.3158,-0.9334 0.1804,-0.2804 0.4273,-0.512 0.7186,-0.6742 0.3,-0.1699 0.639,-0.259 0.9838,-0.2584 0.1884,6e-4 0.3758,0.027 0.557,0.0785 0.5167,0.1475 0.9538,0.4939 1.2154,0.9633 0.2616,0.4693 0.3263,1.0233 0.18,1.5403 z M 40.513672,28.279297 c -1.614088,0.191989 -3.029471,0.630905 -4.107422,1.351562 -1.448649,0.97258 -2.109932,2.61535 -1.626953,4.208985 l 2.441406,8 c -5.761209,5.042757 -9.573638,10.829453 -11.419922,14.052734 v -0.0039 c -0.792275,1.37193 -1.447553,2.815302 -2.08789,4.263672 -1.689044,-2.63921 -4.273778,-5.55283 -7.283204,-7.333985 -5.033713,-2.982022 -11.0950916,-2.774036 -14.1679682,-1.875 h -0.00195 c -0.9763171,0.287566 -1.69347297,0.653214 -2.04492185,1.34961 v 0.002 0.002 C 0.10271137,52.521186 -0.00452501,52.871688 0,53.291016 c 0.00452501,0.419327 0.09892109,0.917055 0.31835938,1.572265 0.83724142,2.484506 3.70999652,7.565773 9.19921872,10.28125 h 0.00195 l 0.00195,0.002 c 2.3932249,1.165889 4.9957009,1.745606 7.6386719,1.962891 -2.073871,1.65315 -3.912097,3.584514 -5.25,5.886719 v 0.002 l -0.002,0.002 c -3.0478682,5.310241 -2.6235463,11.130796 -1.919922,13.666016 0.182985,0.665191 0.383083,1.129663 0.613282,1.480468 0.230458,0.351201 0.515749,0.583047 0.738281,0.707032 l 0.0039,0.002 0.002,0.002 c 0.317288,0.172936 0.676126,0.257836 1.03711,0.246094 h 0.0039 0.0039 c 0.481659,-0.0215 0.957353,-0.113678 1.412109,-0.273438 3.047891,-0.970056 8.187894,-4.160078 10.708985,-9.435547 1.510293,-3.157093 2.032464,-7.016222 1.964843,-10.15039 1.338957,0.845301 2.686836,1.676256 4.109375,2.373046 3.331431,1.648452 9.717036,4.332847 17.310547,5.3125 l 2.4375,8.007813 c 0.48527,1.59355 1.947591,2.589844 3.69336,2.589844 2.590197,0 5.670309,-1.687496 8.490234,-4.222657 2.729289,-2.453677 5.132177,-5.762162 6.349609,-9.34375 8.973741,-3.843354 16.124603,-9.244528 20.753907,-14.771484 4.675256,-5.581818 6.875271,-11.316084 5.515625,-15.789062 l -0.16211,-0.53125 h -0.125 C 93.256026,38.661136 88.459629,35.30512 81.761719,33.355469 74.838888,31.340347 65.890568,30.832405 56.291016,32.638672 53.289024,30.3405 49.45197,28.928454 45.818359,28.410156 43.940541,28.142304 42.12776,28.087308 40.513672,28.279297 Z m 0.177734,1.523437 c 1.453913,-0.177004 3.152326,-0.159775 4.916016,0.0918 3.52738,0.503145 7.317714,1.888659 10.078125,4.103516 l 0.271484,0.216797 0.339844,-0.06641 c 9.48569,-1.827666 18.325763,-1.30992 25.046875,0.646485 6.721112,1.956404 11.234465,5.367737 12.351562,9.041015 l 0.0078,0.02734 c 1.101373,3.67445 -0.747482,9.008683 -5.232422,14.363281 -4.49501,5.366621 -11.548903,10.716225 -20.441406,14.478516 l -0.31836,0.134766 -0.105468,0.330078 c -1.06393,3.37748 -3.443228,6.638422 -6.091797,9.019531 -2.64857,2.381109 -5.59763,3.837891 -7.486328,3.837891 -1.243104,0 -1.948559,-0.505539 -2.259766,-1.525391 V 84.5 l -2.710937,-8.916016 -0.486329,-0.05664 C 41.000849,74.636986 34.557938,71.908457 31.25,70.271484 h -0.002 l -0.002,-0.002 C 29.50336,69.415902 27.821098,68.44412 26.210843,67.361281 L 25.859375,67.125 v -0.480469 c 2.081758,1.621776 5.987425,4.060631 12.214844,6.189453 6.884002,2.352803 17.197513,4.413116 27.203125,0.685547 4.692452,-1.735918 9.157442,-4.03349 13.296875,-6.84375 L 79.875,65.792969 78.371094,65.337891 c -3.609078,-1.0931 -9.597517,-3.802316 -12.416016,-13.072266 -2.818571,-9.270286 0.645923,-14.844554 3.037109,-17.771484 l 0.992188,-1.214844 -1.568359,-0.0098 c -5.004565,-0.02834 -9.994396,0.55088 -14.859375,1.72461 C 43.166308,37.47615 35.746908,44.922739 31.34375,50.705044 26.723965,56.77502 24.556713,61.976808 24.070312,64.064419 l -0.02734,0.117188 0.01172,0.11914 c 0.01008,0.113544 0.0024,0.228289 -0.02148,0.339844 l -0.08594,0.40625 0.296875,0.289062 c 0.08248,0.07987 0.153771,0.1714 0.208984,0.271485 l 0.501953,0.910156 -0.04883,-0.0332 0.138672,1.566406 c 0.263059,2.941241 -0.337488,7.458776 -1.886719,10.697266 -2.275606,4.761783 -7.250621,7.842957 -9.824219,8.658203 l -0.01172,0.002 -0.01172,0.0059 c -0.31434,0.110872 -0.643688,0.17362 -0.976563,0.189454 -0.09193,0.003 -0.182727,-0.01767 -0.263671,-0.06055 -0.06267,-0.03492 -0.104603,-0.0527 -0.214844,-0.220703 -0.110242,-0.168 -0.264277,-0.490336 -0.419922,-1.056641 l -0.002,-0.002 C 10.854977,84.178864 10.434798,78.58345 13.207031,73.75 v -0.002 c 4.42e-4,-7.7e-4 0.0015,-0.0012 0.002,-0.002 1.529701,-2.630925 3.642659,-4.875678 6.175782,-6.5625 l 2.064453,-1.375 h -2.533203 -0.002 C 17.209429,65.81 15.533678,65.538248 13.894532,65.111234 l -0.410156,-0.410156 c 1.749155,0.496641 3.442409,0.814482 4.904297,0.855469 2.341972,0.06566 4.059742,-0.238046 4.970703,-0.666016 l 0.371094,-0.173828 0.05273,-0.40625 c -0.0135,0.101994 0.02148,0.03101 0.02148,-0.1875 v -0.07422 l -0.01367,-0.07422 C 23.681947,63.435443 23.403415,62.829485 22.976556,62.070216 22.549698,61.310948 21.971427,60.432835 21.25976,59.517482 19.836425,57.686777 17.884391,55.707135 15.539057,54.320216 12.864189,52.736546 9.933098,52.197815 7.4902284,52.122951 5.0473588,52.048091 3.1685361,52.385511 2.2265565,52.79092 l -0.5527344,0.238281 0.1132813,0.591797 c 0.1559009,0.815358 0.731523,2.311073 1.9902344,4.15625 1.173843,1.72362 3.2332354,4.067192 6.3203122,5.658203 0.07714,0.03976 0.116836,0.0999 0.195313,0.138672 8.92e-4,4.4e-4 0.0011,0.0015 0.002,0.002 L 12.166016,64.5 c -0.660384,-0.238858 -1.348107,-0.390376 -1.982422,-0.699219 l -0.0039,-0.002 C 5.1869912,61.327074 2.4346167,56.44623 1.7402344,54.386719 v -0.002 C 1.5546587,53.829991 1.5021688,53.476375 1.5,53.275391 1.49784,53.075301 1.523613,53.034708 1.556641,52.96875 c 2.035e-4,-4.06e-4 -2.041e-4,-0.0015 0,-0.002 0.066275,-0.130292 0.2989137,-0.340279 1.125,-0.583985 2.5927378,-0.758561 8.447698,-0.961009 12.984375,1.726563 3.087464,1.827343 6.104588,5.246728 7.523437,7.833984 l 0.755859,1.38086 0.595704,-1.458985 c 0.733624,-1.798043 1.589399,-3.542938 2.560546,-5.224609 v -0.002 -0.002 c 1.832671,-3.199516 5.668443,-9.053061 11.458985,-14.007813 l 0.373047,-0.320312 -2.71875,-8.904297 v -0.002 c -0.308061,-1.019031 -0.0036,-1.831515 1.02539,-2.523438 0.787297,-0.526342 1.99726,-0.899167 3.451172,-1.076172 z m -0.109375,0.236328 c -1.275187,0.159198 -2.367267,0.497354 -3.183594,1.044922 -0.48568,0.325371 -0.811028,0.723886 -0.945312,1.15625 -0.134284,0.432365 -0.05985,0.831585 0.01758,1.089844 v 0.002 l 0.002,0.002 2.685547,8.798828 0.861328,-0.673828 c 3.761639,-2.950962 8.258071,-5.454511 13.492188,-6.707031 l 2.240234,-0.515625 -1.482422,-0.962891 c -2.851908,-1.850803 -6.299994,-2.86367 -9.402344,-3.203125 -1.551174,-0.169727 -3.009969,-0.190447 -4.285156,-0.03125 z m 4.123047,1.521485 c 2.316014,0.253415 4.783841,1.049151 7.037109,2.167969 -4.493756,1.294795 -8.389196,3.459213 -11.757812,5.974609 l -2.076172,-6.804688 c -0.03737,-0.12464 -0.03748,-0.16768 -0.02344,-0.21289 0.01404,-0.04521 0.05819,-0.16024 0.349609,-0.355469 1.006844,-0.675361 3.572934,-1.086601 6.470703,-0.769531 z m 25.638672,1.765625 -0.236328,0.263672 c -2.131173,2.364526 -7.01454,8.414319 -3.914063,18.611328 3.100394,10.196968 10.525642,12.501603 13.611328,13.279297 l 0.34375,0.08789 0.285157,-0.210937 c 2.518564,-1.862104 4.848489,-3.967018 6.957031,-6.283203 l 0.002,-0.002 c 4.91348,-5.447986 7.328507,-11.010152 6.066406,-15.16211 -1.2623,-4.152357 -6.367004,-7.428198 -13.480468,-9.220703 h -0.002 C 76.935517,33.939122 73.828016,33.488411 70.699219,33.34375 Z m -3.408203,1.523437 c -2.411572,3.398328 -5.055527,9.172158 -2.416016,17.853516 2.639325,8.680654 8.053551,12.007341 11.947266,13.484375 -3.689712,2.37551 -7.592439,4.402385 -11.710938,5.925781 l -0.002,0.002 C 55.236137,75.661058 45.260578,73.704655 38.558594,71.414062 31.528254,69.010765 26.839192,65.830056 25.623047,64.6875 l -0.02344,-0.02344 c -0.02373,-0.03406 -0.05089,-0.06477 -0.07617,-0.09766 0.0036,-0.05672 0.01181,-0.113061 0.01172,-0.169922 0.381385,-1.63037 2.503948,-6.870853 7.001953,-12.78125 v -0.002 c 4.28647,-5.628724 11.483496,-12.79926 21.36914,-15.160103 h 0.002 v -0.002 c 4.268771,-1.029888 8.639723,-1.519165 13.027344,-1.601563 z m 4.044922,0.04297 c 2.909522,0.156859 5.803284,0.554061 8.632812,1.251953 6.847522,1.725491 11.425259,4.961336 12.410156,8.201172 0.984898,3.240035 -1.014629,8.476699 -5.74414,13.720703 -1.961895,2.154841 -4.143262,4.095583 -6.472656,5.845703 -3.113028,-0.806045 -9.343612,-2.82526 -12.177735,-12.146485 -2.833547,-9.319115 1.21362,-14.46941 3.351563,-16.873046 z M 7.4433594,53.621094 c 2.257608,0.06919 4.9422506,0.576507 7.3300786,1.990234 h 0.002 c 2.118161,1.252579 3.963515,3.108681 5.298828,4.826172 0.667656,0.858746 1.208741,1.682358 1.59375,2.367187 0.213028,0.378921 0.25008,0.543974 0.361328,0.8125 -0.670638,0.197856 -1.782687,0.492293 -3.597656,0.441407 -2.163723,-0.06066 -4.836285,-0.524135 -7.472657,-1.828125 l -0.0098,-0.0039 c -2.8977315,-1.434 -4.8242515,-3.668656 -5.9316409,-5.294921 -0.9460809,-1.386884 -1.2363637,-2.30625 -1.4375,-2.9375 0.823344,-0.201115 2.1297632,-0.426172 3.8632813,-0.373047 z m 16.4902346,11.822265 -0.388672,0.06055 c -0.995394,0.151531 -2.589858,0.854625 -4.498047,2.212891 -1.908189,1.358266 -4.026941,3.375146 -5.623047,6.152344 h 0.002 c -1.792214,3.111204 -2.171575,6.309571 -2.1875,8.447265 -0.01803,2.232292 0.336799,3.794826 0.660157,4.558594 l 0.236328,0.556641 0.591797,-0.111329 c 1.008271,-0.186996 2.754231,-0.952288 4.742187,-2.375 1.987956,-1.422711 4.123922,-3.501376 5.464844,-6.30664 v -0.002 c 1.170452,-2.457477 1.689599,-5.187503 1.853515,-7.5 0.08196,-1.156249 0.07497,-2.208089 0.0078,-3.076172 -0.06716,-0.868084 -0.172506,-1.526754 -0.38086,-2.035156 l -0.05273,-0.128907 z m -0.785157,1.859375 c 0.0565,0.284796 0.116953,0.440833 0.150391,0.873047 0.0606,0.783284 0.0691,1.770345 -0.0078,2.855469 -0.153834,2.170248 -0.653392,4.740519 -1.710938,6.960937 -1.197075,2.504331 -3.147085,4.41949 -4.984375,5.734375 -1.410956,1.009773 -2.621212,1.548911 -3.416015,1.839844 -0.184954,-0.63864 -0.454946,-1.562103 -0.441407,-3.238281 0.01467,-1.969901 0.371546,-4.907748 1.986328,-7.710938 1.466392,-2.551497 3.430378,-4.424781 5.19336,-5.679687 1.477766,-1.051887 2.562827,-1.425427 3.230468,-1.634766 z m 44.363282,5.642578 -2.144532,0.81836 c -3.817405,1.39223 -7.852705,2.088436 -11.916015,2.058594 h -0.0039 -0.002 c -1.02211,0 -2.034319,-0.04178 -3.033203,-0.115235 l -1.089843,-0.08008 2.667968,8.787109 c 0.07852,0.261188 0.239485,0.635622 0.591797,0.919922 0.222189,0.179297 0.579107,0.203536 0.900391,0.271485 l 0.09766,0.177734 h 0.441406 c 1.965888,0 4.381421,-1.305398 6.769532,-3.314453 2.38811,-2.009055 4.685668,-4.771916 6.023437,-7.898438 z m -3.013672,2.595704 c -1.250643,2.208383 -2.874684,4.265723 -4.673828,5.779296 -2.205451,1.855388 -4.521097,2.921187 -5.746094,2.945313 h -0.06641 c -0.35144,0 -0.452099,-0.07041 -0.488282,-0.09961 -0.03618,-0.0292 -0.06115,-0.06389 -0.09766,-0.185547 L 51.382804,77.24414 c 0.68402,0.0347 1.364,0.07813 2.0625,0.07813 3.76138,0.02701 7.475517,-0.638018 11.052735,-1.78125 z M 94.413839,43.618501 c -2.4768,-8.1443 -19.066,-13.9037 -38.2583,-10.2058 -5.8016,-4.655 -15.6016,-5.6522 -19.3321,-3.1582 -1.2403,0.8327 -1.7226,2.0596 -1.3264,3.3669 l 2.5763,8.4372 c -5.8876,5.0378 -9.7617,10.958 -11.6222,14.2061 -0.9882,1.7112 -1.8585,3.4877 -2.605,5.3173 -1.4968,-2.7294 -4.5478,-6.1939 -7.7979,-8.1175 -4.7852,-2.8348 -10.7436296,-2.63 -13.5764396,-1.8012 -0.90344,0.2661 -1.37813,0.5551 -1.58676002,0.9685 -0.14547,0.291 -0.26223,0.781 0.14355002,1.9926 0.76563,2.272 3.5793,7.2543 8.82195,9.8478 2.8236996,1.3756 5.9239996,2.0892 9.0649996,2.0864 h 0.0536 c -2.6298,1.7512 -4.8227,4.0823 -6.4102,6.814 -2.9112996,5.0723 -2.4883,10.7819 -1.8471,13.0922 0.3388,1.2327 0.7082,1.5753 0.9934,1.7342 0.1998,0.1089 0.4252,0.1624 0.6527,0.155 0.41,-0.0183 0.815,-0.097 1.202,-0.2335 2.8099,-0.8901 7.8745,-4.0272 10.2747,-9.0497 1.6308,-3.409 2.2356,-7.9836 1.9581,-11.0863 1.6386,1.1019 3.3506,2.0906 5.1239,2.9592 3.3573,1.6614 9.8689,4.4234 17.5654,5.3287 l 2.5687,8.4468 c 0.3981,1.3073 1.4815,2.0576 2.9763,2.0576 4.4789,0 12.0586,-6.2839 14.2943,-13.3812 17.9921,-7.6122 28.575,-21.6289 26.0982,-29.7771 z m -57.2248,-10.5043 c -0.1148,-0.3829 -0.1493,-0.8863 0.6278,-1.4069 2.6395,-1.7705 10.5963,-1.3398 16.0437,2.1954 l -0.5225,0.1206 c -5.3594,1.2825 -9.9532,3.8416 -13.7813,6.8447 z m -26.5614,29.7904 c -3.0625196,-1.5121 -5.0741996,-3.853 -6.2302996,-5.5508 -1.20777,-1.7705 -1.75711,-3.2634 -1.87386,-3.874 1.40109,-0.603 7.5701596,-1.5121 12.6328596,1.4853 4.4635,2.6395 7.5988,7.6735 7.8993,9.1588 0,0.0306 -0.0115,0.0593 -0.0153,0.088 -1.2997,0.6106 -6.9079,1.4145 -12.4146,-1.3092 z m 11.6298,15.4101 c -2.538,5.3096 -8.1711,7.9912 -9.6679,8.2688 -0.2431,-0.5742 -0.6183,-2.1189 -0.601,-4.2607 0.0153,-2.0538 0.3828,-5.1221 2.0863,-8.0793 3.0625,-5.3287 8.1635,-7.7826 9.5837,-7.9988 l 0.0613,0.065 c 0.5742,1.4011 0.7656,7.3271 -1.4624,12.005 z m 2.852,-13.0692 c -0.0913,-0.1655 -0.2068,-0.3164 -0.3426,-0.4479 0.0395,-0.1848 0.0511,-0.3745 0.0344,-0.5627 0.4326,-1.8567 2.5783,-7.082 7.1395,-13.075 4.3449,-5.7058 11.6528,-13.0156 21.7916,-15.4369 4.806,-1.1595 9.735,-1.7315 14.6789,-1.7035 -2.4691,3.0223 -6.0676,8.9463 -3.1735,18.465 2.8941,9.5186 9.1875,12.4414 12.9161,13.5707 -4.09,2.7767 -8.5016,5.0474 -13.1381,6.7624 -9.7617,3.6367 -19.9063,1.6288 -26.6993,-0.6929 -7.1222,-2.4347 -11.8155,-5.5834 -13.207,-6.8907 z m 28.9023,19.7704 c -0.936,0 -1.1886,-0.4364 -1.3035,-0.8193 l -2.3504,-7.7423 c 1.0144,0.0746 2.0442,0.1186 3.0874,0.1186 4.1528,0.0305 8.2776,-0.6825 12.1791,-2.1054 l 0.5015,-0.1914 c -2.5552,5.9718 -8.9253,10.757 -12.1045,10.757 z m 25.9758,-20.2623 c -3.0377,-0.7656 -10.0623,-2.8558 -13.0769,-12.7706 -3.0147,-9.9149 1.6557,-15.5633 3.7535,-17.8908 3.0799,0.1424 6.1385,0.586 9.132,1.3246 6.9805,1.759 11.8212,5.0148 12.9448,8.7109 1.1235,3.696 -1.0834,9.0956 -5.9049,14.4416 -2.0756,2.28 -4.3693,4.3513 -6.8485,6.1843 z M 43.351562,0.12304687 c -1.833196,-0.20460038 -4.001349,-0.17013107 -6.55664,0.22656251 l -0.01758,0.001953 -0.01953,0.003906 c -0.407097,0.0847082 -0.767064,0.32395269 -1.003906,0.66601562 -0.236693,0.3418485 -0.333464,0.7608638 -0.269531,1.171875 0.06394,0.4110791 0.283896,0.7833357 0.613281,1.0371094 0.329347,0.2537433 0.744591,0.3710648 1.158203,0.328125 l 0.01953,-0.00195 0.01758,-0.00195 c 7.12525,-1.1047597 10.117222,0.7707024 11.43164,2.2128906 -1.485277,-1.3557202 -4.33607,-2.7584331 -9.402343,-1.9785156 -0.212907,0.024357 -0.420205,0.086988 -0.607422,0.1914063 -0.191978,0.1071581 -0.359721,0.2531929 -0.494141,0.4277343 -0.134212,0.1742715 -0.232456,0.3728254 -0.287109,0.5859375 h 0.002 c -0.05502,0.2137975 -0.06699,0.4352308 -0.0332,0.6523438 0.03372,0.217934 0.111559,0.4267827 0.228515,0.6132812 0.116969,0.1868143 0.270569,0.347552 0.451172,0.4726563 0.18093,0.1253309 0.385674,0.2121232 0.601563,0.2558593 0.215968,0.043976 0.438924,0.042831 0.654297,-0.00195 l -0.03906,0.00781 c 1.849142,-0.2864686 3.465816,-0.2317975 4.705078,0.09375 1.239263,0.3255475 2.077055,0.9005246 2.525391,1.6445313 v 0.00195 l 0.002,0.00195 c 0.245795,0.4044416 0.364666,0.8729652 0.341797,1.3457026 -0.02277,0.472089 -0.187862,0.926108 -0.470703,1.304688 -0.450056,0.600415 -1.223341,0.891472 -2.138672,0.998047 0.163637,-0.463057 0.44522,-0.949137 0.439453,-1.390625 v -0.002 C 45.184647,9.838673 44.279025,8.8537133 43.136719,8.8203125 40.680964,8.7473948 38.498152,8.5921183 36.460937,8.4316406 36.200749,8.0150525 35.946997,7.5851808 35.544922,7.296875 34.989311,6.8984773 34.337624,6.6596625 33.65625,6.6035156 c -0.681315,-0.056152 -1.365194,0.072894 -1.978516,0.375 C 31.22789,7.2000973 30.901602,7.585758 30.574219,7.9609375 28.722217,7.8176081 26.884198,7.6951876 25.09375,7.6601562 l 0.103516,0.00781 c -0.168723,-0.026611 -0.341107,-0.026572 -0.509766,0 l 0.126953,-0.00781 C 22.025636,7.6232492 19.335122,7.799179 16.833984,8.4375 12.050006,9.6607297 8.4017934,12.472921 5.5371094,17.105469 4.0565311,19.467902 3.1412997,22.136446 2.8457031,24.908203 2.816656,25.039571 2.80582,25.173996 2.8105469,25.308594 2.5680227,28.242399 3.1520103,31.286059 4.3007812,34.355469 L 4.0957031,34.302734 4.71875,35.720703 c 0.123134,0.280836 0.2507993,0.552276 0.3808594,0.822266 v 0.01367 l 0.074219,0.15625 c 1.2813138,2.641886 2.9390079,5.084273 4.9218746,7.25 l 0.0078,0.0078 0.0078,0.0078 c 0.409259,0.422485 0.858996,0.801235 1.326172,1.158203 2.086428,4.560135 4.667618,7.370549 7.808594,8.019531 0.45037,0.093 0.909163,0.138672 1.36914,0.138672 2.600194,0 4.575279,-1.471452 5.609375,-2.4375 0.121503,-0.112831 0.434308,-0.39304 0.685547,-0.814453 0.251593,-0.422006 0.451975,-1.047924 0.265625,-1.72461 -0.13057,-0.477266 -0.434282,-0.881551 -0.802734,-1.162109 -0.06443,-0.04906 -0.152916,-0.06403 -0.220703,-0.107422 1.374526,-1.181236 2.414324,-2.799989 2.949218,-4.320312 h 0.002 c 0.478145,-1.361227 0.676356,-2.44799 0.183572,-3.353489 -0.121612,-0.22337 -0.287686,-0.420103 -0.486328,-0.578125 -0.197341,-0.156857 -0.423469,-0.273473 -0.666015,-0.341797 h -0.002 c -0.613372,-0.175746 -1.225171,-0.03599 -1.818359,0.208984 -0.593816,0.245231 -1.220467,0.608376 -1.986328,1.046875 -1.316824,0.754057 -2.966823,1.638714 -3.912109,1.763672 -2.365559,0.312835 -3.348386,0.169477 -4.203125,0.0078 -0.284747,-0.709495 -0.588944,-1.412747 -0.996094,-2.060547 l -0.0078,-0.01563 c -0.857173,-1.436501 -1.535738,-2.696817 -1.892578,-3.917969 l 0.01367,0.05469 c -0.01016,-0.04776 -0.02425,-0.09806 -0.04101,-0.146485 l 0.01367,0.04102 c -0.666676,-2.342305 -0.303418,-4.657072 2.490235,-8.486328 1.553685,-2.124899 3.046157,-3.107331 4.74414,-3.621094 1.697983,-0.513762 3.651561,-0.527347 6.003907,-0.529297 1.216685,0 2.490593,-1.02e-4 3.871093,-0.08398 4.961839,-0.287352 8.706467,-3.148352 10.511719,-4.822266 l 0.002,-0.002 0.002,-0.0039 c 0.295758,-0.279533 0.587892,-0.580203 0.875,-0.88086 0.823452,0.159479 1.654766,0.285381 2.494141,0.289063 h 0.002 0.002 c 3.061922,0 5.786986,-1.194662 7.490235,-3.464844 v -0.002 C 52.73912,12.572652 53.289688,11.061058 53.371094,9.4882813 53.452419,7.9150392 53.061877,6.3528416 52.248047,5.0039062 51.340183,3.4917469 48.851153,0.73684804 43.351562,0.12304687 Z M 43.193359,1.5820312 c 5.068556,0.520104 7.046747,2.9914246 7.769532,4.1953125 0.659168,1.0925822 0.976031,2.3584574 0.910156,3.6328126 -0.06596,1.2744437 -0.510843,2.4988807 -1.279297,3.5175777 l -0.002,0.002 c -1.396882,1.862509 -3.609219,2.86615 -6.28711,2.867187 -0.879541,-0.0039 -1.755873,-0.104684 -2.613281,-0.300781 l -0.429687,-0.09961 -0.294922,0.326172 c -0.323603,0.357691 -0.692278,0.720722 -1.06836,1.076172 -1.668243,1.545945 -5.152835,4.165822 -9.574218,4.421875 h -0.002 c -1.325094,0.08059 -2.563952,0.08008 -3.78125,0.08008 h -0.002 c -2.35245,0.002 -4.447058,-0.0079 -6.435546,0.59375 -1.988489,0.601662 -3.821273,1.846579 -5.521485,4.171875 -2.937141,4.025936 -3.510578,7.01296 -2.722656,9.78125 l 0.0059,0.01953 0.002,0.0059 0.002,0.0078 0.0078,0.02734 c 0.422527,1.445943 1.173002,2.807959 2.052735,4.28125 l 0.0039,0.0078 0.0059,0.0078 c 0.448028,0.710675 0.814264,1.469576 1.09375,2.261719 l 0.142578,0.40039 0.414063,0.08398 c 0.984278,0.201703 2.359275,0.362089 5.023437,0.0098 1.516311,-0.200441 3.143964,-1.193123 4.460938,-1.947265 0.765338,-0.4382 1.36892,-0.778897 1.814453,-0.962891 0.445533,-0.183993 0.680459,-0.197891 0.832031,-0.154297 l 0.0039,0.002 h 0.002 c 0.002,5.53e-4 0.0039,0.0014 0.0059,0.002 l -1.078125,0.52539 C 26.1862,40.653495 25.633116,40.975277 25.1875,41.230469 v -0.002 c -1.448719,0.828696 -3.224788,1.802504 -4.550781,1.978515 -2.422569,0.322005 -3.73353,0.231562 -4.671875,0.06836 l -0.634766,-0.109375 -0.392578,1.173828 0.40625,0.328125 c 1.620171,1.305429 3.689121,1.957977 5.521484,2.40625 l 0.07617,0.01953 0.08008,0.002 c 1.061142,0.03191 2.115418,-0.167403 3.091797,-0.583984 l 0.002,-0.002 c 1.059054,-0.444661 1.814409,-1.40884 2.410157,-2.408204 0.596225,-1.000164 1.007964,-2.048508 1.1875,-2.835937 l 0.242187,-1.058594 c 0.08491,0.227483 0.131138,0.888364 -0.267578,2.023438 -0.577075,1.640209 -1.79233,3.61499 -3.167969,4.365234 l -1.523437,0.830078 1.65039,0.541016 c 0.309903,0.101425 0.501148,0.208459 0.667969,0.3125 h -0.515625 l -0.01172,-0.0039 c -0.73311,-0.233375 -1.480495,-0.422773 -2.236374,-0.566365 l -0.01953,-0.0039 c -0.484598,-0.104043 -0.998685,-0.21571 -1.529297,-0.341797 l -0.06641,-0.01563 -0.07031,-0.0039 C 18.166427,47.209751 15.986826,45.6023 15.074219,44.794922 l -0.31836,-0.28125 -0.40625,0.128906 c -0.05078,0.01613 -0.10102,0.0277 -0.152343,0.03711 l -1.00586,0.185547 0.478516,0.902344 c 1.677742,3.173772 3.635399,5.205736 5.917969,5.675781 2.493714,0.514448 4.490542,-0.975304 5.447265,-1.865234 l 0.419922,-0.390625 0.222656,-0.203125 c -0.01841,0.0931 0.0046,0.188349 -0.05664,0.291016 -0.117832,0.197643 -0.296005,0.37109 -0.417969,0.484375 v 0.002 h -0.002 c -0.883702,0.82555 -2.565736,2.033203 -4.585938,2.033203 -0.358021,0 -0.715777,-0.03502 -1.066406,-0.107422 -2.48696,-0.513851 -4.828856,-2.879043 -6.832031,-7.330078 L 12.636719,44.177734 12.478516,44.0625 c -0.45909,-0.338624 -0.888117,-0.715567 -1.285157,-1.125 -0.0013,-0.0013 -0.0026,-0.0026 -0.0039,-0.0039 -1.8592987,-2.033705 -3.41334,-4.325356 -4.6230468,-6.800782 l -0.042969,-0.08789 C 6.4204945,35.835163 6.3229732,35.617116 6.2246094,35.400391 l -0.125,-0.28125 C 4.9700214,32.55199 4.5218094,30.064985 4.4160156,27.634766 L 4.6015625,29 c 0.2780476,2.063007 0.8522424,4.075678 1.7050781,5.974609 0.1302902,0.301844 0.2654192,0.597936 0.40625,0.888672 L 6.7480469,35.9375 6.7988281,36 c 0.9996048,1.27464 2.3333747,1.765891 3.4277349,1.476562 0.32724,-0.07856 0.629075,-0.243809 0.867187,-0.482421 0.242315,-0.242825 0.410522,-0.548142 0.486328,-0.882813 l 0.04297,-0.185547 -0.05078,-0.18164 c -0.401573,-1.442437 -0.401573,-2.96772 0,-4.410157 l 0.30664,-1.103515 -1.134765,0.160156 c -0.168753,0.0239 -0.339807,0.0374 -0.509766,0.03906 -0.0013,-7e-6 -0.0026,9e-6 -0.0039,0 C 9.7599621,30.42646 9.2942338,30.354395 8.84375,30.21875 7.7174671,29.874932 6.7001372,29.243864 5.8925781,28.386719 l -0.00977,-0.0078 L 5.875,28.369141 4.3789062,26.880859 C 4.3785049,26.380154 4.258135,25.86037 4.3007812,25.367187 l 0.00586,-0.05469 -0.00391,-0.05469 c -5.766e-4,-0.0096 -4.005e-4,-0.01973 0.00195,-0.0293 l 0.013672,-0.04883 0.00586,-0.05273 C 4.5886091,22.55993 5.438194,20.087022 6.8085937,17.900391 v -0.002 l 0.00195,-0.002 C 9.5229784,13.50853 12.76839,11.025055 17.205078,9.890625 19.519535,9.2999472 22.082745,9.1242634 24.794922,9.1601563 h 0.0625 l 0.06445,-0.00977 c 0.01414,-0.00223 0.02714,-0.00219 0.04102,0 l 0.05078,0.00781 h 0.05078 c 1.836553,0.035933 3.741279,0.1618485 5.679688,0.3144532 l 0.445312,0.035156 0.244141,-0.375 c 0.22357,-0.3462634 0.53651,-0.6264694 0.90625,-0.8085937 0.369677,-0.1820933 0.782675,-0.2604101 1.193359,-0.2265625 0.410825,0.033853 0.803684,0.1797201 1.138672,0.4199218 0.334961,0.2401817 0.597874,0.5651181 0.761719,0.9433594 L 35.613281,9.875 36.0625,9.9101563 c 2.118419,0.1688237 4.434985,0.3311717 7.029297,0.4082027 0.25835,0.0076 0.40123,0.106652 0.49414,0.267579 l -0.896484,-0.0293 c -2.303911,-0.07607 -4.388457,-0.21834 -6.320312,-0.369138 l -0.671875,-0.05273 -0.123047,0.664062 c -0.0673,0.363969 -0.22163,0.705631 -0.451172,0.996094 -0.229569,0.290496 -0.526787,0.522347 -0.865235,0.671875 -0.338559,0.149652 -0.70891,0.213292 -1.078125,0.1875 -0.369398,-0.0258 -0.726485,-0.140691 -1.041015,-0.335938 l -0.002,-0.002 c -0.322798,-0.198696 -0.591244,-0.47567 -0.779297,-0.804687 -0.188184,-0.329116 -0.291316,-0.69913 -0.298828,-1.078125 L 31.044922,9.7519531 30.365234,9.6992188 C 28.515265,9.5590133 26.760474,9.4509426 25.087891,9.4199219 L 24.902344,9.4160156 24.736328,9.5 c -2.376949,1.196957 -3.172583,3.221163 -3.345703,4.666016 -0.289557,2.451187 0.741294,5.086022 2.589844,6.714843 l 0.222656,0.195313 0.294922,-0.0078 c 0.659364,-0.01869 1.340416,-0.01953 2.041015,-0.01953 1.193196,0 2.441747,-0.0019 3.771485,-0.07813 5.971385,-0.34826 10.018685,-4.808715 11.15039,-6.191406 v -0.002 l 0.169922,-0.205078 v -0.08399 c 0.964991,-1.241151 1.581495,-2.308291 1.759766,-2.992187 l 0.216797,-0.833985 c 0.0416,0.10105 0.09475,0.18353 0.09766,0.353516 0.0042,0.353949 -0.204274,1.060982 -0.640625,1.857422 l -0.548828,1.001953 1.138672,0.105469 c 1.81045,0.166411 3.476778,-0.396033 4.449219,-1.69336 0.462866,-0.618519 0.730374,-1.361328 0.767578,-2.132812 C 48.908424,9.3826357 48.713704,8.6171886 48.3125,7.9570312 47.614091,6.799762 46.387774,6.0315509 44.884766,5.6367187 c -1.504035,-0.3951017 -3.3087,-0.4357308 -5.314454,-0.125 l -0.01953,0.00195 -0.01953,0.00391 c -0.01643,0.00342 -0.033,0.00322 -0.04883,0 -0.01611,-0.00326 -0.03125,-0.010062 -0.04492,-0.019531 -0.014,-0.0097 -0.02652,-0.021371 -0.03516,-0.035156 -0.0088,-0.014101 -0.0151,-0.028876 -0.01758,-0.044922 v -0.00195 c -0.0026,-0.016787 -0.002,-0.033346 0.002,-0.048828 0.0041,-0.016168 0.01325,-0.031694 0.02344,-0.044922 0.01,-0.012958 0.02249,-0.023088 0.03711,-0.03125 0.01468,-0.00819 0.03031,-0.013904 0.04687,-0.015625 l 0.01758,-0.00195 0.01953,-0.00195 c 6.386759,-0.9908261 8.391176,1.5453531 9.003906,2.5644531 v 0.00195 l 0.002,0.00195 c 0.425457,0.7016518 0.630524,1.5143776 0.589844,2.3339842 -0.04068,0.81972 -0.325456,1.607454 -0.818359,2.263672 -0.298726,0.398642 -0.666667,0.743394 -1.083985,1.015625 l 0.730469,1.306641 c 0.03228,-0.01522 0.05004,-0.05068 0.08203,-0.06641 l 0.0078,0.01563 c 0.06842,-0.04463 0.111376,-0.118592 0.177734,-0.166015 C 49.05205,14.096521 49.820927,13.534554 50.3907,12.781256 51.130623,11.801078 51.561337,10.62109 51.625,9.3945313 51.68873,8.1688176 51.383528,6.9514669 50.75,5.9003906 l -0.002,-0.00195 C 49.708562,4.1682028 46.217853,0.65304428 37.064453,2.0722656 l 0.03711,-0.00586 c -0.03179,0.0033 -0.06264,-0.00593 -0.08789,-0.025391 -0.02521,-0.019426 -0.04202,-0.046885 -0.04687,-0.078125 -0.0049,-0.031288 0.0034,-0.061739 0.02148,-0.087891 0.01573,-0.022714 0.04015,-0.03682 0.06641,-0.044922 2.42874,-0.3744738 4.457187,-0.4205905 6.138672,-0.2480469 z m -9.845703,6.7578126 c -0.157459,1.576e-4 -0.313932,0.018867 -0.466797,0.054687 -0.260404,0.060862 -0.50613,0.1740594 -0.722656,0.3300781 -0.217185,0.1566532 -0.401037,0.3537119 -0.541016,0.5820312 -0.235804,0.3824883 -0.338235,0.8327719 -0.291015,1.2792979 0.04726,0.446799 0.242332,0.864948 0.552734,1.189453 0.310531,0.324645 0.71978,0.536603 1.164063,0.603515 0.444277,0.06709 0.898587,-0.01572 1.291015,-0.234375 0.392677,-0.218541 0.70201,-0.559896 0.878907,-0.972656 0.176924,-0.412825 0.211983,-0.873681 0.09961,-1.3085942 -0.112525,-0.434727 -0.366112,-0.8203329 -0.720703,-1.0957032 h -0.002 C 34.235067,8.4922216 33.798882,8.3407949 33.349609,8.3398438 Z M 23.263672,9.3847656 22.117187,9.4414063 C 18.297493,9.6351359 14.916752,10.454606 11.988281,12.535156 l -0.07813,0.05469 -0.06055,0.07226 c -1.34799,1.597283 -1.551508,3.871617 -0.703125,6.109375 0.90099,2.380452 2.751029,4.363699 4.783204,4.888672 l 0.373046,0.0957 0.296875,-0.248047 c 1.78727,-1.504813 3.644907,-2.083593 5.726563,-2.318359 l 1.318359,-0.148437 -0.808594,-1.052735 c -1.263202,-1.644659 -1.91964,-3.854448 -1.679687,-5.865234 v -0.002 -0.0039 c 0.139843,-1.269879 0.680954,-2.463072 1.544922,-3.404297 l 0.09766,-0.105469 0.05273,-0.134766 z m 10.083984,0.4550782 c 0.117527,2.488e-4 0.231397,0.039285 0.324219,0.1113281 0.09301,0.072229 0.158025,0.1732361 0.1875,0.2871091 0.02943,0.113887 0.02088,0.233821 -0.02539,0.341797 -0.0463,0.10804 -0.127946,0.196848 -0.230468,0.253906 -0.102571,0.05715 -0.220015,0.08001 -0.335938,0.0625 -0.116117,-0.01749 -0.223618,-0.07345 -0.304687,-0.158203 -0.0814,-0.0851 -0.132197,-0.193947 -0.144532,-0.310547 -0.01238,-0.117074 0.01458,-0.234073 0.07617,-0.333984 v -0.002 c 0.03622,-0.05908 0.08441,-0.1098442 0.140625,-0.1503907 0.05639,-0.040632 0.120355,-0.070307 0.1875,-0.085937 0.0411,-0.00963 0.0833,-0.015438 0.125,-0.015625 z m -8.041015,1.0937502 c 1.402173,0.03194 2.891669,0.120911 4.447265,0.234375 0.0815,0.370669 0.11099,0.755963 0.300781,1.08789 0.312283,0.546371 0.757434,1.005741 1.292969,1.335938 0.521869,0.323953 1.113762,0.515794 1.726563,0.558594 0.612785,0.04281 1.227223,-0.06415 1.789062,-0.3125 0.561952,-0.248273 1.054716,-0.629425 1.435547,-1.111328 0.233321,-0.295244 0.323415,-0.665427 0.458984,-1.013672 1.435316,0.109427 3.01534,0.198023 4.65625,0.271484 -0.247317,0.5158 -0.394984,0.965931 -1.113281,1.841797 l -0.01367,0.01563 c -1.01712,1.240542 -4.821945,5.327062 -10.064453,5.632812 -1.276519,0.07308 -2.492623,0.07422 -3.683594,0.07422 -0.569933,0 -1.133685,0.0051 -1.695312,0.01563 -1.338122,-1.288118 -2.177497,-3.404002 -1.962891,-5.220703 0.129621,-1.081808 0.643005,-2.450136 2.425782,-3.410156 z m -4.689454,0.248047 c -0.475848,0.861811 -0.841899,1.779567 -0.951171,2.769531 -7e-5,6.31e-4 6.9e-5,0.0013 0,0.002 -0.247011,2.086183 0.401067,4.179029 1.490234,5.980469 -1.742296,0.308428 -3.44427,0.929495 -5.046875,2.144531 -1.262433,-0.433987 -2.850521,-1.961972 -3.560547,-3.837891 -0.69278,-1.827327 -0.487702,-3.411517 0.416016,-4.533203 2.201371,-1.534786 4.768771,-2.211589 7.652343,-2.52539 z M 10.472656,13.568359 9.0566406,15.220703 C 8.3017644,16.101202 7.6171485,17.0402 7.0117187,18.029297 l 0.013672,0.0078 C 5.6776179,20.174565 4.8343216,22.589564 4.5585938,25.10155 l -0.011719,0.113282 0.019531,0.109375 c 0.4767802,2.498644 2.4804052,4.117374 4.3437501,4.660156 h 0.00195 C 10.1504,30.343522 11.383171,30.262672 12.19531,29.488269 l 0.09766,-0.09375 0.05859,-0.121094 c 0.57153,-1.176562 1.252591,-2.298185 2.033203,-3.347656 l 0.002,-0.002 0.002,-0.002 c 0.296202,-0.405987 0.595698,-0.776303 0.896484,-1.117188 L 15.951263,24.048722 15.0372,23.626847 c -1.662468,-0.767003 -3.30703,-2.567641 -4.136809,-4.7538 l -0.002,-0.0039 -0.002,-0.0059 C 10.504139,17.87182 10.326967,16.809506 10.375,15.744141 Z m -1.2792966,4.00586 c 0.1050881,0.61574 0.077745,1.253799 0.3085937,1.83789 0.8393269,2.207013 2.3978239,3.926678 4.1679689,5.011719 -0.162666,0.202377 -0.327681,0.387489 -0.488281,0.607422 -8.68e-4,0.0012 -0.0011,0.0027 -0.002,0.0039 -5.66e-4,7.75e-4 -0.0014,0.0012 -0.002,0.002 -0.787821,1.059862 -1.461423,2.197467 -2.050781,3.378907 -0.272466,0.236926 -0.90654,0.387142 -1.7968749,0.128906 C 7.9959655,28.156302 6.465383,26.904199 6.0820312,25.117187 6.3501733,22.882552 7.0983889,20.732137 8.3007813,18.828125 L 7.7441406,18.476562 8.2929688,18.8125 C 8.55989,18.376428 8.8945545,17.988598 9.1933594,17.574219 Z M 4.8007812,29.416016 c 0.00513,0.0054 0.01243,0.0082 0.017578,0.01367 l -0.00391,0.002 z m 1.8789063,1.455078 c 0.5470361,0.317624 1.1184096,0.597227 1.7285156,0.783203 v 0.002 h 0.00195 c 0.513708,0.154682 1.0486339,0.215381 1.5839843,0.238281 -0.2264328,1.311848 -0.226687,2.645503 0.089843,3.94336 -0.0157,0.03381 -0.02604,0.07091 -0.05273,0.09766 -0.0429,0.04299 -0.096825,0.07228 -0.156246,0.08594 l -0.013672,0.0039 -0.013672,0.0039 C 9.528915,36.11521 8.7127021,35.967082 8.0117188,35.101562 7.8972311,34.861638 7.7869326,34.617987 7.6796875,34.369141 l -0.00391,-0.0039 -0.00195,-0.0059 C 7.1759456,33.250786 6.9695022,32.048292 6.6796875,30.871094 Z m 5.1484375,5.857422 -0.740234,0.58789 c -0.237483,0.188267 -0.512876,0.325819 -0.806641,0.400391 h -0.002 -0.002 c -0.220671,0.05729 -0.4478893,0.08679 -0.6757815,0.08594 h -0.00195 c -0.1480697,-3.2e-4 -0.2951953,-0.01217 -0.4413154,-0.03516 l -1.6347656,-0.257812 0.8847656,1.398437 c 0.8598294,1.359914 1.8371719,2.64184 2.9218749,3.830078 l 0.0059,0.0059 0.0059,0.0078 c 0.428487,0.447628 0.901492,0.851177 1.410156,1.205078 l 0.0078,0.0039 0.0059,0.0059 c 0.335993,0.222499 0.598879,0.347108 0.826172,0.416015 0.227293,0.06891 0.491624,0.06224 0.544922,0.05469 h 0.002 c 0.276907,-0.03995 0.379673,-0.157143 0.447266,-0.222656 0.06759,-0.06551 0.09996,-0.113037 0.126953,-0.152344 0.05397,-0.07861 0.08217,-0.13747 0.08594,-0.144531 l 0.02344,-0.04492 0.01758,-0.04687 c 0.101687,-0.273221 0.112637,-0.570163 0.04492,-0.853516 l 0.0059,0.0039 0.01953,0.160157 V 42.357422 H 14.617188 C 14.45686,41.831007 14.310204,41.31944 13.703125,40.308594 l -0.002,-0.002 -0.002,-0.0039 C 13.160487,39.424519 12.67108,38.518281 12.232422,37.585937 Z m -0.597656,2.154296 c 0.374848,0.746918 0.752307,1.492464 1.189453,2.205079 0.352134,0.587193 0.32659,0.683334 0.478516,1.029296 -0.150586,-0.134139 -0.321021,-0.245076 -0.460938,-0.390625 l -0.0039,-0.0059 C 11.716087,40.934281 11.114904,40.055499 10.5,39.1875 c 0.05077,-0.01116 0.103938,-0.0065 0.154297,-0.01953 0.209837,-0.05354 0.380129,-0.195884 0.576172,-0.285158 z m 14.240234,3.898438 c -0.101913,0.20386 -0.116767,0.355448 -0.234375,0.552734 -0.510573,0.856484 -1.180466,1.576806 -1.701172,1.794922 h -0.0039 l -0.002,0.002 c -0.760989,0.325445 -1.583079,0.472237 -2.410156,0.455078 -0.893699,-0.222081 -1.800257,-0.506291 -2.660157,-0.865234 0.793335,-0.0061 1.202183,0.128546 2.375,-0.02734 1.6426,-0.218037 3.26343,-1.12647 4.636719,-1.912109 z m -10.583984,0.169922 0.002,0.01563 c -2.1e-4,-0.0012 -0.0017,-0.0047 -0.002,-0.0059 -8e-4,-0.0032 8.22e-4,-0.0065 0,-0.0098 z m 2.044922,4.845703 c 1.088562,0.529268 2.374286,0.971185 3.859375,1.044922 l -0.134766,-0.01758 c 0.557644,0.13251 1.088119,0.246361 1.578125,0.351562 l 0.0098,0.002 0.0098,0.002 c 0.181613,0.0343 0.356732,0.09479 0.53711,0.134766 -0.818019,0.493596 -1.775793,0.892158 -2.900391,0.660156 v -0.002 C 18.934142,49.775721 17.93064,48.947042 16.93171,47.79692 Z M 5.4052594,35.418601 c 0.14355,0.3274 0.29094,0.6451 0.44406,0.9571 0,0 0,0 0,0.0096 1.24965,2.5766 2.86666,4.9583 4.8005196,7.0705 0.427,0.4408 0.8899,0.8454 1.3838,1.2097 2.0519,4.5593 4.5287,7.1701 7.3634,7.7558 0.4005,0.0827 0.8084,0.1244 1.2174,0.1244 2.3102,0 4.1401,-1.3399 5.099,-2.2357 0.2431,-0.2258 0.9819,-0.911 0.7389,-1.7934 -0.1723,-0.6297 -0.7255,-0.9858 -1.5734,-1.2633 1.6671,-0.9092 2.8979,-3.0166 3.5161,-4.7737 0.4498,-1.2805 0.5283,-2.205 0.2335,-2.7467 -0.0735,-0.135 -0.1734,-0.2538 -0.2937,-0.3495 -0.1204,-0.0957 -0.2587,-0.1662 -0.4068,-0.2074 -0.7656,-0.2202 -1.6959,0.31 -3.2271,1.1867 -1.3169,0.7541 -2.9553,1.692 -4.1861,1.8547 -2.605,0.3445 -3.8396,0.1914 -4.7736,0 -0.2981,-0.8449 -0.6898,-1.6538 -1.1676,-2.4117 -0.8709,-1.4585 -1.5868,-2.7716 -1.9772,-4.1076 -0.004,-0.0188 -0.0091,-0.0373 -0.0154,-0.0555 -0.7273,-2.5553 -0.2584,-5.2063 2.607,-9.1339 3.2539,-4.4502 6.6475,-4.454 11.3523,-4.4579 1.2173,0 2.4749,0 3.8281,-0.0823 4.6933,-0.2718 8.309,-3.0146 10.045,-4.6243 0.3828,-0.3618 0.7656,-0.737 1.1102,-1.1179 0.9112,0.2084 1.8426,0.3156 2.7773,0.3197 2.8711,0 5.3402,-1.0987 6.8906,-3.1659 0.8586,-1.1382 1.3568,-2.5074 1.4305,-3.9313002 0.0736,-1.4238 -0.2806,-2.8372 -1.0171,-4.05796 -1.0871,-1.8107 -4.6951,-5.85320004 -14.6942,-4.3009 -0.2191,0.04559 -0.4124,0.1736 -0.5398,0.3576 -0.1274,0.184 -0.1793,0.40992 -0.1449,0.63107 0.0344,0.22116 0.1525,0.42064 0.3298,0.55724 0.1773,0.1366 0.4002,0.19988 0.6229,0.17675 8.9501,-1.3877 12.0222,1.96574 12.9275,3.474 0.5571,0.9234 0.825,1.9925 0.769,3.0695 -0.0559,1.0770002 -0.4331,2.1125002 -1.0829,2.9732002 -0.5669,0.7495 -1.3071,1.3505 -2.1571,1.7514 0.4907,-0.3201 0.9215,-0.7237 1.2728,-1.1925 0.5828,-0.7759 0.9199,-1.7084 0.968,-2.6776 0.0481,-0.9691002 -0.1951,-1.9305002 -0.6981,-2.7602002 -0.7331,-1.2193 -3.1486,-3.94683 -9.7617,-2.92089 -0.1177,0.01223 -0.2317,0.04827 -0.3351,0.10594 -0.1033,0.05766 -0.1939,0.13575 -0.2661,0.2295 -0.0722,0.09375 -0.1246,0.20121 -0.154,0.31585 -0.0295,0.11464 -0.0352,0.23406 -0.017,0.35101 0.0181,0.11699 0.0599,0.22899 0.1228,0.32929 0.0628,0.1003 0.1454,0.1867 0.2427,0.2541 0.0973,0.0674 0.2073,0.1143 0.3233,0.1378 0.1159,0.0236 0.2355,0.0233 0.3514,-8e-4 3.8549,-0.5972 6.8408,0.1914 7.9873,2.094 0.3235,0.5323 0.4803,1.1492 0.4502,1.7714002 -0.03,0.6221 -0.2454,1.2211 -0.6186,1.7198 -0.7905,1.0546 -2.1571,1.5446 -3.7803,1.3954 0.4709,-0.8595 0.7389,-1.6385 0.7312,-2.228 -0.0134,-0.8365 -0.5532,-1.4126002 -1.3398,-1.4356002 -2.5764,-0.0765 -4.879,-0.2373 -6.9921,-0.4057 -0.2178,-0.5028 -0.568,-0.937 -1.0133,-1.2563 -0.4453,-0.3193 -0.9689,-0.5117 -1.515,-0.5567 -0.546,-0.045 -1.0941,0.0591 -1.5856,0.3012 -0.4915,0.2421 -0.9081,0.6131 -1.2053,1.0734 -1.9447,-0.1531 -3.8626,-0.2794 -5.723,-0.3158 -0.0913,-0.0144 -0.1843,-0.0144 -0.2757,0 -2.7505,-0.0364 -5.3766,0.1397 -7.7844,0.7542 -4.611,1.1790002 -8.0582996,3.8281002 -10.8470396,8.3395002 -1.43136,2.2839 -2.31932,4.866 -2.59547,7.5472 -0.02031,0.0826 -0.02806,0.1677 -0.02297,0.2526 -0.28137,3.2539 0.33496,6.6552 1.85856,10.1178 z m -0.05934,-6.5173 c 0.89768,0.9528 2.02852,1.6548 3.28071,2.0365 0.52041,0.1567 1.06051,0.2379 1.6040096,0.2412 0.2068,-0.0015 0.4134,-0.0169 0.6182,-0.0459 -0.4382,1.574 -0.4382,3.2379 0,4.8119 -0.0446,0.1969 -0.1439,0.3771 -0.2865,0.52 -0.1426,0.1429 -0.3226,0.2426 -0.5193,0.2877 -0.7100996,0.1915 -1.7992196,-0.1244 -2.6548096,-1.2154 -0.13781,-0.2845 -0.27052,-0.5748 -0.39813,-0.8709 -0.82327,-1.8331 -1.37768,-3.7755 -1.64609,-5.767 z m 19.1789196,20.1283 c -0.8766,0.8153 -2.6606,2.1169 -4.7852,1.6786 -1.9332,-0.3981 -3.7822,-2.2165 -5.4072,-5.2905 0.0829,-0.0152 0.1647,-0.0357 0.245,-0.0612 0.98,0.867 3.2826,2.5897 6.2513,2.7371 0.5475,0.1301 1.0738,0.2431 1.5638,0.3483 0.7327,0.1384 1.4563,0.3212 2.1667,0.5475 l -0.044,0.0402 z m -3.7899,-5.08 c 1.5715,-0.2086 3.3765,-1.2403 4.8254,-2.0691 0.4479,-0.2565 0.9972,-0.5742 1.4221,-0.7809 -0.3081,1.3513 -1.5771,4.0578 -3.1582,4.7201 -0.8778,0.3754 -1.8268,0.555 -2.7811,0.5263 -1.7916,-0.4383 -3.7611,-1.0795 -5.2292,-2.2624 l 0.023,-0.0689 c 1.0125,0.1761 2.4213,0.2641 4.898,-0.0651 z m -6.5748,-0.8422 v 0.0287 c 0.0362,0.142 0.0282,0.2915 -0.0229,0.4288 -0.0153,0.0287 -0.0651,0.1244 -0.1053,0.1302 -0.0402,0.0057 -0.268,0.0325 -0.8518,-0.3541 -0.4677,-0.3254 -0.9018,-0.6967 -1.2958,-1.1083 -1.055,-1.1557 -2.0060996,-2.4021 -2.8423996,-3.7248 0.1843,0.029 0.3705,0.0437 0.557,0.0441 0.2925,0.0011 0.5839996,-0.0356 0.8670996,-0.1091 0.3963,-0.1006 0.7668,-0.2839 1.0872,-0.5379 0.4504,0.9573 0.9532,1.8889 1.5064,2.7907 0.7656,1.2748 1.0259,2.0002 1.0967,2.4117 z m 26.7204,-28.8028 c -1.07,1.3073 -5.0015,5.591 -10.6135,5.9183 -1.3035,0.0747 -2.5362,0.0766 -3.7286,0.0766 -0.7006,0 -1.3877,0 -2.0615,0.0191 -1.6422,-1.447 -2.5973,-3.8932 -2.3409,-6.0637 0.1532,-1.2786 0.7944,-3.0051 2.9381,-4.0846 1.6499,0.0306 3.3917,0.1378 5.235,0.2775 0.01,0.5045 0.1465,0.9985 0.397,1.4366 0.2504,0.4381 0.6069,0.8063 1.0366,1.0708 0.4182,0.2596 0.8934,0.4132 1.3845,0.4475 0.491,0.0343 0.983,-0.0518 1.4332,-0.2508 0.4502,-0.1989 0.845,-0.5048 1.1502,-0.891 0.3052,-0.3862 0.5115,-0.841 0.601,-1.325 1.937,0.1512 4.0329,0.2947 6.3528,0.3713 -0.1417,0.5436 -0.6757,1.6423 -1.7839,2.9936 z m -8.6248,-4.6052002 c 0.0881,-0.1437 0.2038,-0.2684 0.3405,-0.367 0.1367,-0.0985 0.2916,-0.169 0.4557,-0.2072 0.0973,-0.0228 0.1968,-0.0344 0.2967,-0.0345 0.2834,6e-4 0.5585,0.0952 0.7823,0.2689 0.2238,0.1738 0.3837,0.4168 0.4547,0.6911002 0.0709,0.2744 0.0488,0.5645 -0.0628,0.8249 -0.1116,0.2604 -0.3064,0.4765 -0.554,0.6143 -0.2475,0.1379 -0.5338,0.1898 -0.8139,0.1475 -0.2802,-0.0422 -0.5385,-0.1762 -0.7343,-0.3809 -0.1959,-0.2048 -0.3184,-0.4687 -0.3482,-0.7504 -0.0298,-0.2818 0.0346,-0.5655002 0.1833,-0.8067002 z m -10.1063,0.5072002 c -0.9718,1.0587 -1.5806,2.3997 -1.7379,3.8281 -0.2661,2.2299 0.4479,4.611 1.8298,6.4102 -2.1724,0.245 -4.2109,0.8767 -6.125,2.4883 -1.6595,-0.4287 -3.4453,-2.2528 -4.2683,-4.4272 -0.7772,-2.05 -0.5743,-3.9985 0.5742,-5.3594 2.783,-1.9772 5.9967,-2.7658 9.733,-2.9553 z m -14.4970696,8.2152 c 0.58462,-0.9551 1.24447,-1.8621 1.97337,-2.7123 -0.0528,1.1711 0.1429,2.3401 0.5741996,3.43 0.8958,2.3601 2.6357,4.2971 4.523,5.168 -0.3158,0.3579 -0.6298,0.7465 -0.9398,1.1714 -0.8086,1.0871 -1.5135,2.2477 -2.1055,3.4664 -0.5359,0.511 -1.4815,0.6316 -2.5571996,0.3196 -1.60971,-0.4689 -3.40319,-1.914 -3.81663,-4.0807 0.26371,-2.4025 1.07148,-4.7132 2.36196,-6.7567" />
  </g>
</svg>
