<svg viewBox="0 0 900 840" xmlns="http://www.w3.org/2000/svg">
<path d="M711.89 22.5299C693.188 22.694 674.808 27.4344 658.365 36.3481C630.74 50.9992 610.093 71.0445 588.795 91.658V91.6764C573.362 106.622 557.651 121.795 538.785 135.597C535.99 137.641 533.066 139.5 530.026 141.153L531.002 140.712C526.883 142.191 522.977 144.144 519.207 146.361V146.342C509.507 150.196 499.615 153.505 489.547 156.259L489.473 156.278L489.418 156.297C478.527 159.47 468.034 162.423 459.242 167.208C450.45 171.994 442.974 179.537 441.394 190.226C439.885 200.386 444.953 209.527 451.349 217.348C457.744 225.168 465.989 232.066 473.539 237.679C501.909 258.778 558.356 287.12 620.204 287.12C645.961 287.329 671.45 281.84 694.833 271.038V271.019H694.852C738.119 250.758 772.372 223.47 793.714 191.698V191.679C797.936 185.412 801.67 178.839 804.938 172.028C804.966 171.977 805.003 171.932 805.031 171.881C805.199 171.561 805.366 171.236 805.509 170.906C815.984 148.557 820.26 124.984 817.303 102.697C813.606 74.9248 794.001 50.0415 765.636 35.4098L765.617 35.3914C749.027 26.7749 730.585 22.3658 711.89 22.5299ZM712.019 36.6425C728.412 36.4987 744.576 40.3812 759.123 47.94H759.141V47.9584C784.066 60.8082 800.327 82.2093 803.301 104.556H803.282C805.838 123.82 802.193 144.73 792.684 164.981L792.61 165.147L792.537 165.294C792.533 165.304 792.54 165.326 792.537 165.331L792.408 165.552L792.298 165.791C790.398 169.762 788.007 173.461 785.747 177.236L748.598 198.635C731.339 208.571 712.916 216.336 693.748 221.745L693.601 221.781L693.454 221.818C693.357 221.85 693.265 221.892 693.178 221.91L692.975 221.947L692.791 222.003C676.657 226.49 660.132 229.443 643.443 230.835H643.424C635.01 231.557 626.794 231.902 618.86 231.902C578.195 231.902 544.614 223.064 525.629 214.128C525.488 213.989 525.337 213.863 525.279 213.668C525.199 213.397 525.217 213.098 525.335 212.84C525.459 212.577 525.674 212.364 525.942 212.251C526.209 212.137 526.498 212.122 526.77 212.214L526.181 211.993C539.689 217.998 553.897 222.297 568.464 224.818L570.414 225.168L572.254 224.432C583.266 220.101 592.253 215.198 598.989 209.62C605.725 204.042 610.551 197.553 611.299 189.858C612.376 178.909 604.786 169.398 594.003 162.719C578.989 153.413 557.192 149.286 537.368 156.058L536.834 156.242L536.319 156.499C533.298 158.115 530.151 159.559 526.972 160.934L525.703 161.449C515.385 165.577 504.836 169.104 494.11 172.01L494.054 172.029L493.981 172.048C486.497 174.23 478.761 176.463 472.324 179.114C469.106 180.439 466.2 181.837 463.621 183.714C461.043 185.59 458.287 188.195 457.623 192.527L457.567 192.84L457.549 193.153C457.312 196.955 458.494 198.488 459.775 200.752C461.056 203.016 462.841 205.49 465.295 208.296C470.203 213.908 477.775 220.777 488.994 228.48C508.594 241.942 539.298 257.391 574.7 265.354C607.374 272.702 644.1 272.941 679.082 259.19L679.248 260.312L687.914 256.227C715.247 243.326 738.635 227.65 757.042 209.823L762.636 204.395C743.433 224.788 719.862 243.702 688.871 258.214C667.369 268.144 643.942 273.19 620.258 272.99H620.239H620.203C562.752 272.99 507.907 245.639 481.965 226.346C474.963 221.14 467.472 214.717 462.295 208.388C457.119 202.058 454.776 196.229 455.359 192.306C456.196 186.64 459.341 183.26 466.012 179.629C472.656 176.012 482.423 173.054 493.262 169.895L493.374 169.857C503.908 166.971 514.282 163.513 524.433 159.48L550.211 149.231L565.832 150.869C576.268 151.962 586.338 155.334 595.346 160.713C608.775 169.102 614.656 179.66 613.635 190.023V190.042C612.989 196.657 609.613 205.788 594.647 215.71L577.572 227.026L597.995 228.645C628.612 231.072 659.417 228.366 689.148 220.66L692.147 219.887L693.601 217.164C703.465 198.729 709.644 182.439 711.853 168.22C714.063 154.001 712.211 141.379 704.99 132.064C697.024 121.787 684.111 117.23 670.638 115.652C657.165 114.074 642.681 115.486 629.974 118.725L630.232 118.669C629.934 118.734 629.629 118.683 629.367 118.522C629.106 118.36 628.909 118.118 628.833 117.823V117.804C628.758 117.507 628.812 117.204 628.962 116.939C629.097 116.701 629.318 116.539 629.569 116.442C642.586 113.141 658.367 111.527 672.57 113.461C686.827 115.403 699.128 120.739 706.812 130.647C718.585 145.853 718.34 169.622 702.745 203.988L695.754 219.371L711.614 213.538C740.547 202.878 767.034 186.488 789.482 165.349L790.476 164.392L791.065 163.141C799.882 143.925 803.489 123.89 800.982 105.016C797.992 82.4581 781.641 62.2911 758.111 50.1664L751.634 62.7151C771.847 73.1304 784.74 89.9789 786.98 106.875C788.29 116.724 786.938 127.222 784.349 137.86C787.378 109.126 776.91 81.5737 753.768 64.6839C751.714 63.1868 749.079 62.186 746.813 60.8567C748.38 61.5514 750.089 61.8495 751.615 62.6415L758.111 50.0928C743.87 42.7045 728.043 38.9222 712.001 39.0713C695.959 39.2203 680.193 43.306 666.093 50.9576C664.44 51.8478 662.759 52.7572 661.07 53.736L640.168 65.8431C648.126 59.8034 655.924 53.6371 665.044 48.8048L665.063 48.7865L665.1 48.7681C679.512 40.9549 695.626 36.7864 712.019 36.6425V36.6425ZM691.154 62.3655C714.29 60.7787 732.72 66.8457 745.433 76.1102C769.233 93.4801 777.74 123.83 766.74 154.714L766.721 154.788L766.684 154.861C766.635 155.012 766.564 155.152 766.464 155.266C766.361 155.384 766.233 155.475 766.096 155.542V155.561C765.96 155.627 765.808 155.66 765.654 155.671C765.502 155.68 765.338 155.646 765.194 155.598H765.175C765.036 155.546 764.9 155.458 764.789 155.359C764.67 155.25 764.576 155.128 764.513 154.991C764.448 154.85 764.408 154.703 764.402 154.549V154.53C764.397 154.377 764.419 154.219 764.476 154.07L764.513 153.997L764.531 153.923C774.896 124.754 767.18 94.9171 744.016 78.0053C715.65 57.3004 663.06 55.9111 599.467 104.354L599.136 104.611L598.823 104.906C587.222 116.128 575.423 127.453 562.097 138.375L552.989 145.845H548.445C567.583 131.654 583.583 116.378 598.621 101.815C607.202 93.5097 615.583 85.82 624.105 78.3181L666.498 66.671C675.217 64.2741 683.441 62.8944 691.154 62.3655V62.3655ZM686.37 79.2381C707.987 76.4642 724.765 81.4453 735.681 89.4132C753.811 102.65 759.888 124.773 751.211 149.194L751.266 149.047C750.541 150.95 750.203 152.986 750.273 155.027C750.343 157.061 750.835 159.067 751.689 160.915H751.671C752.527 162.773 753.757 164.418 755.259 165.791V165.81C756.763 167.181 758.527 168.236 760.447 168.919C760.794 169.043 761.179 168.969 761.533 169.066C749.147 178.444 735.949 186.412 721.826 192.913C731.722 163.968 731.551 139.509 717.981 121.981C707.345 108.267 691.11 101.724 674.483 99.46C659.418 97.4083 643.991 98.9992 630.324 102.036C651.104 89.6533 670.436 81.2831 686.37 79.2386L686.37 79.2381ZM616.616 110.371C614.831 113.73 614.199 117.622 615.144 121.319C616.124 125.157 618.564 128.454 621.934 130.537C625.303 132.617 629.359 133.329 633.231 132.487L633.341 132.45L633.47 132.414C644.601 129.576 657.72 128.351 669 129.672C680.28 130.993 689.292 134.887 693.822 140.73C697.979 146.094 699.727 154.212 697.888 166.049C696.17 177.106 690.534 191.494 682.248 207.559C660.475 212.901 638.149 214.821 615.77 214.477C622.558 206.422 627.03 198.359 627.711 191.422V191.403C629.347 174.711 619.384 159.012 602.761 148.661L602.724 148.624L602.669 148.605C595.784 144.487 587.8 143.144 580.092 141.08C589.866 132.527 599.465 123.923 608.152 115.522C611.172 113.224 613.672 112.423 616.616 110.37L616.616 110.371ZM565.648 167.576C573.546 168.673 580.985 171.272 586.569 174.733C594.648 179.737 597.533 185.507 597.241 188.478H597.222V188.497C596.996 190.829 595.033 194.536 589.973 198.727C585.31 202.587 577.784 206.601 568.868 210.3C556.174 207.936 543.725 204.324 531.921 199.077L531.627 198.948L531.332 198.837C527.774 197.628 523.879 197.777 520.421 199.242C516.964 200.708 514.17 203.39 512.565 206.786C510.961 210.181 510.654 214.056 511.718 217.66C512.781 221.261 515.129 224.364 518.324 226.345L518.673 226.547L519.023 226.713C540.502 236.935 575.888 246.033 618.86 246.033C627.185 246.033 635.785 245.666 644.602 244.911C661.782 243.478 678.776 240.37 695.404 235.821C691.261 238.055 687.638 240.571 683.26 242.666L681.88 243.31C647.948 259.235 611.078 259.053 577.81 251.571C544.543 244.089 515.03 229.229 496.98 216.832C486.56 209.678 479.849 203.466 475.931 198.985C474.318 197.14 473.458 195.844 472.747 194.716C473.888 193.983 475.431 193.11 477.697 192.177C482.939 190.018 490.374 187.813 497.808 185.645L497.937 185.608C508.64 182.703 519.157 179.13 529.474 175.065H529.971L531.277 174.513C534.859 172.998 538.457 171.3 542.023 169.435C549.454 166.915 557.781 166.483 565.648 167.576L565.648 167.576ZM697.87 235.25L697.594 235.342C697.633 235.331 697.664 235.298 697.704 235.287C697.758 235.27 697.816 235.268 697.87 235.25V235.25ZM696.563 235.618L696.177 235.71C696.26 235.693 696.333 235.656 696.416 235.637C696.464 235.624 696.515 235.632 696.563 235.618ZM521.822 152.912C511.879 156.863 501.723 160.258 491.403 163.082C469.62 169.429 450.795 174.91 448.378 191.266C446.287 205.348 463.201 221.198 477.752 232.017C504.908 252.213 560.554 280.054 620.204 280.054C644.937 280.263 669.409 274.991 691.862 264.619C734.219 244.784 767.415 218.168 787.846 187.749C791.91 181.717 795.526 175.395 798.665 168.834C798.821 168.561 798.96 168.277 799.079 167.986C809.088 146.673 813.054 124.421 810.295 103.631C806.96 78.5668 789.036 55.4135 762.385 41.6735C746.813 33.5823 729.496 29.432 711.948 29.586C694.4 29.74 677.158 34.1937 661.731 42.5571C635.152 56.6401 615.029 76.1146 593.715 96.7431C578.28 111.691 562.304 127.145 542.956 141.299C539.908 143.529 536.715 145.554 533.398 147.358C529.355 148.809 525.47 150.671 521.804 152.912H521.822ZM684.884 249.706C613.423 283.246 530.64 248.516 492.989 222.658C471.351 207.801 464.426 196.494 464.607 193.592C465.509 187.713 480.998 183.188 495.964 178.824C506.953 175.846 517.761 172.233 528.332 168.004H528.53C532.281 166.418 536.014 164.686 539.656 162.739C557.021 156.807 577.198 160.612 590.289 168.726C599.72 174.568 604.949 182.213 604.264 189.173C603.29 199.2 590.704 209.585 569.66 217.862C555.668 215.44 542.029 211.297 529.053 205.529C527.137 204.878 525.049 204.954 523.186 205.744C521.324 206.534 519.816 207.981 518.952 209.81C518.088 211.639 517.926 213.723 518.499 215.664C519.071 217.604 520.337 219.266 522.057 220.332C542.252 229.943 576.91 238.96 618.87 238.96C627.001 238.96 635.405 238.617 644.024 237.878C661.154 236.449 678.114 233.413 694.675 228.807C695.011 228.735 695.341 228.644 695.667 228.537C715.396 222.97 734.36 214.981 752.125 204.753C734.382 221.938 711.644 237.211 684.902 249.832L684.884 249.706ZM754.866 56.4413C776.738 67.7113 791.362 86.2117 793.977 105.939C796.285 123.286 792.985 142.002 784.636 160.196C762.88 180.683 737.213 196.568 709.173 206.899C725.275 171.413 726.375 144.365 712.4 126.315C694.081 102.693 655.294 102.567 627.651 109.617C625.604 110.219 623.87 111.593 622.815 113.448C621.76 115.302 621.465 117.494 621.993 119.562C622.521 121.629 623.83 123.411 625.646 124.533C627.461 125.654 629.641 126.028 631.726 125.575C655.564 119.499 686.904 120.274 699.4 136.395C710.778 151.072 706.612 177.868 687.372 213.824C658.402 221.333 628.382 223.959 598.548 221.595C614.867 210.776 619.825 199.398 620.673 190.724C622.007 177.183 614.091 164.037 599.034 154.661C589.131 148.737 578.054 145.045 566.577 143.842C580.173 132.698 592.128 121.212 603.741 109.978C665.806 62.6986 714.745 65.3854 739.845 83.7058C760.491 98.7799 767.397 124.764 757.877 151.559C757.486 152.585 757.303 153.679 757.341 154.777C757.377 155.874 757.634 156.953 758.094 157.949C758.554 158.947 759.21 159.842 760.02 160.583C760.831 161.322 761.782 161.893 762.817 162.261C763.851 162.629 764.949 162.786 766.046 162.724C767.142 162.661 768.214 162.38 769.201 161.897C770.187 161.414 771.067 160.739 771.788 159.911C772.51 159.084 773.058 158.12 773.402 157.077C785.303 123.664 775.963 89.638 749.601 70.3981C730.721 56.6401 701.221 49.7878 664.617 59.8498C666.203 58.9303 667.826 58.0466 669.467 57.163C682.553 50.0621 697.18 46.277 712.068 46.1387C726.955 46.0003 741.65 49.5131 754.866 56.3697M745.47 397.132C740.043 397.85 734.764 399.609 729.922 402.376C720.238 407.908 713.097 417.021 710.05 427.749C707.002 438.477 708.29 449.968 713.62 459.765C718.948 469.561 727.907 476.9 738.57 480.17L738.643 480.189L738.717 480.208C742.517 481.283 746.436 481.833 750.382 481.845H750.401H750.42C760.704 481.83 770.638 478.1 778.388 471.339C786.139 464.578 791.181 455.232 792.592 445.046C794.003 434.859 791.7 424.512 786.079 415.9C780.458 407.288 771.905 400.99 762.012 398.181L761.939 398.163L761.865 398.144C756.469 396.733 750.897 396.413 745.47 397.132ZM758.221 411.833C764.8 413.725 770.486 417.894 774.229 423.628C777.989 429.388 779.551 436.299 778.608 443.113C777.664 449.927 774.279 456.163 769.095 460.685C763.917 465.202 757.292 467.699 750.419 467.713C747.806 467.704 745.206 467.327 742.692 466.628C739.148 465.537 737.213 462.155 734.393 459.857C737.714 462.421 741.574 464.208 745.709 464.953C749.942 465.716 754.309 465.432 758.405 464.107C762.501 462.784 766.201 460.469 769.187 457.373C772.172 454.276 774.362 450.474 775.535 446.333C777.422 439.665 776.591 432.515 773.217 426.461C769.843 420.407 764.186 415.944 757.522 414.041C755.193 413.379 752.784 413.037 750.364 413.029H750.345C745.872 413.021 741.485 414.175 737.594 416.378C734.516 418.1 732.145 420.738 729.995 423.517C732.3 420.465 733.547 416.582 736.932 414.648C743.387 410.96 751.025 409.972 758.221 411.833L758.221 411.833ZM728.027 426.019C726.026 429.42 724.611 433.154 724.292 437.096C723.945 441.385 724.654 445.698 726.371 449.645C728.041 453.484 730.667 456.812 733.915 459.452C731.282 457.207 727.706 456.11 726.021 453.012C722.456 446.458 721.609 438.79 723.648 431.613C724.32 429.247 726.798 428.102 728.027 426.019ZM750.309 427.16C751.433 427.164 752.559 427.315 753.639 427.62C756.711 428.497 759.316 430.553 760.871 433.343C762.425 436.131 762.807 439.414 761.938 442.487C761.399 444.391 760.387 446.139 759.012 447.566C757.639 448.986 755.94 450.051 754.063 450.657C752.18 451.265 750.181 451.395 748.23 451.043C746.283 450.692 744.448 449.862 742.894 448.633C741.343 447.405 740.114 445.829 739.324 444.015C738.535 442.199 738.208 440.209 738.368 438.237C738.527 436.264 739.173 434.363 740.244 432.699C741.315 431.035 742.784 429.65 744.513 428.688H744.532L744.551 428.669C746.307 427.674 748.293 427.16 750.31 427.16L750.309 427.16ZM760.076 404.978C751.073 402.623 741.505 403.89 733.424 408.507C725.343 413.123 719.393 420.723 716.851 429.676C714.307 438.628 715.373 448.221 719.821 456.397C724.268 464.572 731.741 470.68 740.639 473.409C743.818 474.309 747.107 474.77 750.412 474.78C758.993 474.768 767.281 471.654 773.748 466.013C780.215 460.372 784.424 452.583 785.602 444.083C786.779 435.582 784.844 426.943 780.153 419.757C775.462 412.57 768.332 407.322 760.076 404.978V404.978ZM768.732 444.414C767.876 447.436 766.287 450.201 764.107 452.462C761.926 454.723 759.221 456.413 756.232 457.378C753.243 458.345 750.062 458.558 746.97 458.001C743.879 457.443 740.973 456.131 738.51 454.182C736.046 452.233 734.102 449.705 732.849 446.825C731.596 443.944 731.073 440.799 731.326 437.668C731.58 434.537 732.602 431.516 734.301 428.875C736.001 426.233 738.327 424.051 741.071 422.523C743.897 420.923 747.091 420.083 750.339 420.089C752.114 420.095 753.88 420.343 755.587 420.829C760.454 422.218 764.572 425.482 767.037 429.904C769.501 434.325 770.11 439.544 768.732 444.414V444.414ZM381.669 266.695C366.463 268.504 353.129 272.639 342.974 279.428C329.327 288.591 323.097 304.067 327.647 319.08L350.647 394.445C296.372 441.952 260.456 496.466 243.063 526.832V526.795C235.599 539.72 229.426 553.317 223.394 566.962C207.482 542.099 183.132 514.651 154.781 497.871C107.359 469.778 50.257 471.737 21.3083 480.207H21.2899C12.0923 482.916 5.33621 486.361 2.02531 492.921V492.94V492.959C0.968917 495.071 -0.0413258 498.373 0.00130295 502.324C0.0439317 506.274 0.93321 510.963 3.00047 517.135C10.8879 540.541 37.9513 588.41 89.6636 613.992H89.682L89.7004 614.011C112.246 624.994 136.763 630.456 161.662 632.503C142.125 648.077 124.807 666.271 112.203 687.96V687.979L112.184 687.997C83.4714 738.024 87.4688 792.857 94.0975 816.741C95.8213 823.008 97.7064 827.383 99.875 830.688C102.046 833.997 104.734 836.181 106.83 837.349L106.867 837.368L106.886 837.386C109.875 839.016 113.255 839.815 116.656 839.705H116.693H116.73C121.267 839.502 125.748 838.634 130.033 837.129C158.746 827.99 207.168 797.938 230.919 748.239C245.147 718.497 250.066 682.142 249.429 652.616C262.043 660.579 274.741 668.407 288.142 674.971C319.527 690.501 379.684 715.79 451.22 725.019L474.183 800.458C478.754 815.47 492.53 824.856 508.977 824.856C533.378 824.856 562.395 808.959 588.961 785.076C614.673 761.96 637.31 730.792 648.779 697.051C733.318 660.844 800.684 609.961 844.295 557.893C888.339 505.309 909.065 451.288 896.256 409.149L894.729 404.144H893.551C878.539 364.5 833.354 332.884 770.254 314.517C705.037 295.533 620.737 290.748 530.302 307.764C502.022 286.113 465.874 272.811 431.643 267.928C413.952 265.405 396.875 264.887 381.669 266.695ZM383.343 281.047C397.04 279.38 413.04 279.542 429.655 281.912C462.886 286.652 498.593 299.705 524.599 320.57L527.156 322.613L530.358 321.987C619.72 304.769 702.999 309.647 766.317 328.077C829.635 346.508 872.154 378.645 882.677 413.25L882.751 413.508C893.127 448.123 875.709 498.376 833.458 548.82C791.112 599.377 724.659 649.774 640.885 685.218L637.886 686.487L636.892 689.597C626.869 721.415 604.455 752.135 579.503 774.567C554.552 796.999 526.77 810.723 508.977 810.723C497.266 810.723 490.62 805.96 487.688 796.353V796.334L462.149 712.339L457.568 711.805C386.258 703.418 325.562 677.713 294.398 662.292H294.38L294.361 662.273C277.944 654.231 262.096 645.077 246.926 634.875L243.615 632.649V628.123C263.227 643.401 300.021 666.377 358.687 686.432C423.54 708.597 520.7 728.007 614.96 692.89C659.166 676.537 701.23 654.892 740.226 628.418L752.48 620.101L738.312 615.814C704.312 605.516 647.897 579.993 621.345 492.664C594.792 405.331 627.43 352.817 649.956 325.244L659.304 313.799L644.529 313.707C597.382 313.44 550.374 318.896 504.543 329.954C406.658 353.336 336.762 423.488 295.282 477.962C251.76 535.145 231.343 584.15 226.761 603.817L226.503 604.921L226.614 606.043C226.708 607.113 226.636 608.194 226.411 609.245L225.602 613.072L228.398 615.795C229.175 616.547 229.847 617.41 230.367 618.353L235.096 626.927L234.636 626.614L235.942 641.371C238.42 669.079 232.763 711.638 218.168 742.147C196.73 787.006 149.862 816.033 125.617 823.713L125.506 823.732L125.396 823.787C122.435 824.832 119.332 825.423 116.196 825.572C115.33 825.6 114.475 825.406 113.712 825.002C113.122 824.673 112.727 824.505 111.688 822.922C110.65 821.34 109.199 818.303 107.732 812.968L107.713 812.949C102.263 793.309 98.3045 740.596 124.421 695.062V695.043C124.425 695.036 124.435 695.032 124.44 695.024C138.851 670.239 158.756 649.092 182.62 633.201L202.069 620.247H178.204H178.185C162.126 620.261 146.34 617.701 130.898 613.678L127.034 609.814C143.512 614.493 159.464 617.487 173.236 617.874C195.299 618.492 211.481 615.631 220.063 611.599L223.559 609.962L224.056 606.134C223.929 607.095 224.258 606.427 224.258 604.368V603.669L224.129 602.97C223.102 597.891 220.478 592.183 216.457 585.03C212.435 577.877 206.988 569.605 200.283 560.981C186.874 543.735 168.485 525.085 146.39 512.019C121.191 497.1 93.5781 492.025 70.5645 491.32C47.551 490.614 29.8512 493.793 20.977 497.612L15.7699 499.857L16.8371 505.432C18.3058 513.113 23.7285 527.204 35.5865 544.587C46.6449 560.825 66.0459 582.903 95.1283 597.891C95.855 598.266 96.229 598.832 96.9683 599.198C96.9767 599.202 96.9787 599.212 96.9871 599.216L114.614 607.92C108.392 605.67 101.914 604.242 95.938 601.333L95.9012 601.314C48.8664 578.029 22.9371 532.048 16.3955 512.646V512.627C14.6473 507.401 14.1528 504.07 14.1324 502.176C14.112 500.291 14.3548 499.909 14.666 499.288C14.6679 499.284 14.664 499.273 14.666 499.269C15.2903 498.041 17.4819 496.063 25.2643 493.767C49.6897 486.621 104.848 484.714 147.586 510.033C176.672 527.247 205.096 559.461 218.462 583.834L225.583 596.843L231.195 583.098C238.106 566.159 246.168 549.721 255.317 533.879V533.86V533.841C272.582 503.699 308.718 448.555 363.269 401.878L366.783 398.86L341.171 314.975V314.956C338.269 305.356 341.137 297.702 350.831 291.184C358.248 286.225 369.646 282.713 383.343 281.046V281.047ZM382.313 283.274C370.3 284.773 360.011 287.959 352.321 293.118C347.746 296.183 344.681 299.937 343.415 304.01C342.15 308.083 342.852 311.844 343.581 314.277V314.296L343.6 314.315L368.9 397.206L377.014 390.858C412.451 363.058 454.811 339.473 504.12 327.673L525.225 322.816L511.259 313.745C484.392 296.309 451.909 286.767 422.682 283.569C408.069 281.97 394.326 281.775 382.313 283.275L382.313 283.274ZM421.155 297.607C442.973 299.995 466.222 307.491 487.449 318.031C445.115 330.229 408.417 350.619 376.682 374.316L357.123 310.211C356.771 309.037 356.77 308.631 356.903 308.205C357.035 307.78 357.451 306.696 360.196 304.857C369.681 298.494 393.856 294.62 421.155 297.607H421.155ZM662.689 314.241L660.463 316.725C640.386 339 594.381 395.993 623.59 492.056C652.797 588.119 722.749 609.83 751.818 617.157L755.056 617.985L757.743 615.998C781.469 598.455 803.419 578.625 823.283 556.805L823.302 556.787C869.59 505.463 892.341 453.063 880.451 413.949C868.56 374.831 820.47 343.97 753.456 327.083H753.437C724.788 320.015 695.513 315.769 666.038 314.406L662.689 314.241ZM630.581 328.592C607.863 360.607 582.955 415.001 607.821 496.785C632.685 578.563 683.691 609.903 720.373 623.818C685.613 646.197 648.846 665.291 610.047 679.643L610.028 679.661C520.365 713.065 426.388 694.634 363.25 673.055C297.02 650.415 252.845 620.45 241.389 609.686L241.168 609.466C240.944 609.145 240.688 608.855 240.45 608.546C240.484 608.011 240.561 607.481 240.561 606.945C244.153 591.586 264.149 542.217 306.524 486.536V486.518C346.905 433.491 414.707 365.94 507.836 343.699H507.855V343.68C548.07 333.978 589.247 329.368 630.582 328.592L630.581 328.592ZM668.687 328.997C696.097 330.475 723.359 334.217 750.015 340.792C814.523 357.047 857.649 387.531 866.927 418.052C876.206 448.576 857.369 497.909 812.813 547.311C794.331 567.611 773.781 585.894 751.836 602.382C722.509 594.788 663.813 575.766 637.113 487.953C610.419 400.161 648.547 351.641 668.687 328.997ZM70.123 505.433C91.3913 506.085 116.683 510.864 139.178 524.183H139.196C159.151 535.983 176.535 553.468 189.115 569.648C195.405 577.738 200.502 585.497 204.129 591.949C206.136 595.519 206.485 597.074 207.533 599.603C201.215 601.467 190.739 604.241 173.641 603.762C153.257 603.19 128.08 598.824 103.243 586.539L103.151 586.503C75.8521 572.993 57.7029 551.941 47.2705 536.621C38.3578 523.555 35.6231 514.894 33.7283 508.948C41.4848 507.053 53.7922 504.933 70.1231 505.433L70.123 505.433ZM225.473 616.807L221.811 617.378C212.434 618.805 197.413 625.429 179.436 638.225C161.46 651.02 141.5 670.021 126.463 696.184H126.482C109.598 725.494 106.024 755.625 105.874 775.763C105.704 796.793 109.047 811.513 112.093 818.708L114.32 823.952L119.895 822.904C129.394 821.142 145.842 813.932 164.57 800.529C183.298 787.126 203.42 767.544 216.052 741.116V741.098C227.079 717.946 231.97 692.228 233.514 670.442C234.286 659.55 234.22 649.641 233.587 641.463C232.955 633.285 231.962 627.079 229.999 622.29L229.503 621.076L225.473 616.807ZM218.076 634.324C218.608 637.007 219.178 638.477 219.493 642.549C220.064 649.928 220.144 659.226 219.419 669.449C217.97 689.894 213.264 714.108 203.301 735.026C192.024 758.619 173.653 776.661 156.345 789.048C143.052 798.561 131.651 803.64 124.163 806.381C122.421 800.364 119.877 791.664 120.005 775.874C120.143 757.316 123.505 729.639 138.718 703.231C152.532 679.194 171.034 661.547 187.643 649.725C201.564 639.815 211.786 636.296 218.076 634.324H218.076ZM636.009 687.481L615.806 695.19C579.844 708.306 541.828 714.865 503.549 714.584H503.512H503.494C493.865 714.584 484.329 714.19 474.919 713.498L464.652 712.744L489.786 795.525C490.525 797.985 492.042 801.513 495.361 804.191C497.454 805.88 500.816 806.108 503.843 806.749L504.763 808.423H508.921C527.442 808.423 550.198 796.125 572.695 777.198C595.193 758.272 616.838 732.244 629.44 702.79L636.009 687.481ZM607.618 711.934C595.837 732.739 580.537 752.12 563.588 766.379C542.811 783.858 520.996 793.899 509.455 794.126H508.83C505.519 794.126 504.571 793.463 504.23 793.188C503.889 792.913 503.654 792.586 503.31 791.44L484.064 727.979C490.508 728.306 496.913 728.715 503.494 728.715C538.929 728.969 573.918 722.704 607.618 711.934L607.618 711.934ZM889.446 411.202C866.113 334.477 709.831 280.219 529.026 315.056C474.371 271.202 382.048 261.808 346.904 285.303C335.22 293.148 330.676 304.706 334.408 317.022L358.679 396.506C303.214 443.966 266.717 499.738 249.19 530.338C239.88 546.458 231.681 563.194 224.649 580.43C210.548 554.718 181.805 522.08 151.187 503.958C106.107 477.252 49.9745 479.181 23.2874 486.989C14.7764 489.496 10.3044 492.219 8.339 496.113C6.96857 498.855 5.86861 503.471 9.69134 514.885C16.9041 536.289 43.4109 583.226 92.8003 607.658C119.402 620.617 148.609 627.34 178.199 627.314H178.704C153.929 643.811 133.271 665.772 118.315 691.506C90.8889 739.291 94.8738 793.079 100.914 814.844C104.106 826.457 107.586 829.684 110.273 831.181C112.155 832.207 114.279 832.711 116.422 832.642C120.284 832.469 124.1 831.728 127.746 830.442C154.217 822.057 201.929 792.503 224.54 745.187C239.904 713.072 245.601 669.976 242.987 640.747C258.424 651.127 274.552 660.442 291.258 668.624C322.886 684.276 384.23 710.296 456.736 718.824L480.935 798.399C484.686 810.715 494.892 817.783 508.974 817.783C551.169 817.783 622.575 758.585 643.637 691.723C813.135 620.011 912.833 487.963 889.5 411.202H889.446ZM350.348 312.244C349.267 308.636 348.942 303.894 356.263 298.99C381.129 282.31 456.087 286.368 507.406 319.672L502.483 320.808C451.994 332.89 408.717 356.999 372.654 385.29L350.348 312.244ZM100.121 592.89C71.2701 578.645 52.3186 556.592 41.4273 540.598C30.0493 523.918 24.8741 509.854 23.7743 504.102C36.9735 498.421 95.0905 489.857 142.785 518.095C184.834 542.961 214.371 590.384 217.202 604.377C217.202 604.665 217.093 604.936 217.058 605.206C204.813 610.958 151.98 618.532 100.103 592.872L100.121 592.89ZM209.682 738.064C185.772 788.085 132.705 813.347 118.604 815.962C116.313 810.553 112.779 796.001 112.942 775.823C113.086 756.475 116.548 727.57 132.596 699.711C161.447 649.511 209.502 626.393 222.881 624.356L223.459 624.969C228.868 638.168 230.671 693.995 209.682 738.064V738.064ZM236.55 614.943C235.69 613.384 234.602 611.963 233.322 610.724C233.695 608.983 233.804 607.196 233.647 605.423C237.722 587.931 257.936 538.705 300.906 482.247C341.838 428.494 410.683 359.631 506.198 336.82C551.474 325.897 597.908 320.508 644.484 320.772C621.223 349.244 587.322 405.053 614.587 494.726C641.851 584.398 701.14 611.932 736.266 622.571C697.735 648.73 656.175 670.121 612.496 686.278C520.533 720.538 424.964 701.622 360.969 679.75C293.873 656.814 249.659 627.151 236.55 614.835V614.943ZM508.83 801.194C500.012 801.194 497.633 797.083 496.55 793.476L474.408 720.538C483.964 721.241 493.666 721.655 503.493 721.655C542.616 721.943 581.474 715.226 618.229 701.821L622.953 700.018C598.882 756.276 538.871 801.356 508.92 801.356L508.83 801.194ZM753.54 610.309C724.923 603.097 658.746 583.406 630.347 490.001C601.946 396.596 645.945 343.384 665.707 321.457C694.722 322.799 723.536 326.978 751.737 333.936C817.499 350.507 863.101 381.179 873.686 415.999C884.271 450.818 863.48 501.686 818.058 552.049C798.505 573.528 776.896 593.041 753.54 610.309V610.309ZM408.404 1.44369C391.134 -0.483789 370.708 -0.159063 346.635 3.57807L346.47 3.59647L346.286 3.63327C342.451 4.43128 339.06 6.68513 336.828 9.9076C334.599 13.1281 333.687 17.0755 334.289 20.9475C334.892 24.8202 336.964 28.3271 340.067 30.7178C343.169 33.1082 347.081 34.2135 350.978 33.809L351.162 33.7906L351.327 33.7722C418.452 23.3646 446.639 41.0328 459.022 54.6192C445.029 41.8474 418.173 28.6328 370.445 35.9802C368.439 36.2097 366.486 36.7997 364.722 37.7834C362.914 38.7929 361.334 40.1686 360.067 41.8129C358.803 43.4547 357.877 45.3252 357.363 47.3329H357.381C356.863 49.347 356.75 51.4331 357.069 53.4784C357.386 55.5315 358.12 57.499 359.221 59.256C360.323 61.0159 361.77 62.5302 363.472 63.7087C365.176 64.8894 367.105 65.7071 369.139 66.1191C371.173 66.5334 373.274 66.5226 375.303 66.1007L374.935 66.1743C392.355 63.4756 407.585 63.9906 419.26 67.0575C430.935 70.1244 438.827 75.5411 443.051 82.5502V82.5685L443.07 82.5869C445.385 86.397 446.505 90.8108 446.29 95.2644C446.075 99.7118 444.52 103.989 441.855 107.555C437.616 113.212 430.331 115.954 421.708 116.958C423.249 112.595 425.902 108.016 425.848 103.857V103.838C425.673 92.9718 417.141 83.6927 406.38 83.3781C383.245 82.6911 362.681 81.2283 343.489 79.7165C341.038 75.792 338.647 71.7423 334.86 69.0262C329.625 65.273 323.486 63.0232 317.067 62.4943C310.648 61.9653 304.206 63.181 298.428 66.0271C294.19 68.1145 291.116 71.7477 288.032 75.2822C270.585 73.9319 253.269 72.7786 236.402 72.4486L237.377 72.5222C235.788 72.2715 234.164 72.2718 232.575 72.5222L233.771 72.4486C207.498 72.1009 182.152 73.7583 158.589 79.7717C113.521 91.2954 79.1521 117.788 52.1648 161.43C38.2167 183.686 29.5946 208.825 26.8098 234.937C26.5362 236.175 26.4341 237.441 26.4786 238.709C24.1939 266.348 29.6955 295.021 40.5177 323.937L38.5857 323.44L44.4553 336.799C45.6153 339.444 46.818 342.002 48.0432 344.545V344.674L48.7424 346.146C60.8133 371.034 76.43 394.043 95.11 414.446L95.1834 414.519L95.2569 414.593C99.1124 418.573 103.349 422.141 107.75 425.504C127.406 468.464 151.723 494.94 181.313 501.054C185.556 501.93 189.878 502.36 194.211 502.36C218.707 502.36 237.314 488.498 247.055 479.397C248.2 478.334 251.147 475.694 253.514 471.724C255.884 467.749 257.772 461.852 256.016 455.477C254.786 450.981 251.925 447.173 248.454 444.529C247.847 444.067 247.013 443.926 246.375 443.517C259.324 432.389 269.119 417.14 274.158 402.817H274.177C278.682 389.993 280.549 379.755 275.907 371.225C274.761 369.121 273.196 367.267 271.325 365.778C269.466 364.301 267.336 363.202 265.051 362.559H265.032C259.253 360.903 253.49 362.219 247.902 364.527C242.307 366.838 236.404 370.259 229.189 374.39C216.784 381.493 201.239 389.827 192.334 391.005C170.049 393.952 160.79 392.601 152.738 391.078C150.055 384.394 147.189 377.769 143.354 371.666L143.28 371.519C135.205 357.986 128.813 346.113 125.451 334.609L125.58 335.124C125.484 334.674 125.351 334.2 125.193 333.744L125.322 334.131C119.042 312.065 122.464 290.258 148.782 254.183C163.419 234.165 177.479 224.91 193.475 220.07C209.471 215.23 227.875 215.102 250.036 215.084C261.498 215.084 273.499 215.083 286.505 214.293C333.249 211.586 368.526 184.633 385.532 168.864L385.551 168.845L385.57 168.808C388.356 166.175 391.108 163.342 393.813 160.51C401.571 162.012 409.402 163.198 417.31 163.233H417.329H417.347C446.193 163.233 471.865 151.978 487.911 130.592V130.573C496.841 118.728 502.028 104.487 502.795 89.6708C503.561 74.8498 499.882 60.1328 492.215 47.4248C483.662 33.1792 460.214 7.22613 408.404 1.44369ZM406.913 15.1884C454.663 20.0881 473.299 43.3697 480.108 54.7112C486.318 65.0041 489.303 76.9295 488.682 88.9348C488.061 100.941 483.87 112.476 476.63 122.073L476.611 122.092C463.452 139.638 442.61 149.093 417.382 149.103C409.096 149.066 400.841 148.116 392.763 146.269L388.715 145.331L385.937 148.403C382.888 151.773 379.415 155.193 375.872 158.542C360.156 173.106 327.329 197.787 285.676 200.199H285.658C273.174 200.958 261.503 200.953 250.036 200.953H250.017C227.855 200.972 208.122 200.879 189.389 206.547C170.656 212.215 153.39 223.943 137.373 245.849C109.703 283.776 104.301 311.916 111.724 337.995L111.779 338.179L111.798 338.235L111.817 338.308L111.89 338.566C115.871 352.188 122.941 365.019 131.229 378.898L131.265 378.972L131.321 379.045C135.542 385.74 138.992 392.89 141.625 400.352L142.968 404.124L146.869 404.915C156.141 406.815 169.095 408.326 194.193 405.008C208.478 403.119 223.812 393.768 236.218 386.663C243.428 382.535 249.115 379.325 253.312 377.592C257.509 375.859 259.722 375.728 261.15 376.138L261.187 376.157H261.206C261.225 376.162 261.242 376.17 261.261 376.176L251.105 381.126C246.694 383.269 241.483 386.301 237.285 388.705V388.686C223.637 396.493 206.906 405.667 194.414 407.325C171.591 410.358 159.241 409.506 150.401 407.969L144.421 406.938L140.723 417.997L144.55 421.088C159.813 433.386 179.304 439.533 196.567 443.756L197.284 443.94L198.039 443.959C208.035 444.26 217.967 442.382 227.165 438.458L227.184 438.439C237.161 434.25 244.277 425.167 249.89 415.752C255.507 406.33 259.385 396.454 261.077 389.035L263.358 379.063C264.158 381.206 264.594 387.432 260.838 398.125C255.401 413.577 243.953 432.181 230.993 439.248L216.641 447.068L232.189 452.165C235.109 453.121 236.91 454.129 238.482 455.109H233.624L233.514 455.072C226.607 452.874 219.567 451.09 212.446 449.737L212.262 449.7C207.696 448.72 202.853 447.668 197.855 446.48L197.229 446.333L196.567 446.296C171.142 445.034 150.609 429.89 142.011 422.284L139.012 419.635L135.185 420.849C134.706 421.001 134.233 421.11 133.75 421.199L124.274 422.947L128.782 431.447C144.587 461.347 163.03 480.489 184.533 484.917C208.026 489.764 226.837 475.729 235.85 467.345L239.806 463.666L241.904 461.752C241.73 462.629 241.947 463.526 241.37 464.494C240.26 466.355 238.582 467.989 237.433 469.057V469.076H237.414C229.089 476.853 213.243 488.23 194.211 488.23C190.838 488.23 187.468 487.9 184.165 487.218C160.736 482.377 138.673 460.095 119.802 418.163L119.048 416.47L117.558 415.384C113.233 412.194 109.191 408.643 105.451 404.786C105.438 404.774 105.426 404.762 105.414 404.749C87.898 385.59 73.2578 364.001 61.8615 340.681L61.4567 339.853C60.4869 337.877 59.5682 335.823 58.6415 333.781L57.4639 331.132C46.8224 306.947 42.5999 283.518 41.6033 260.624L43.3513 273.485C45.9707 292.92 51.38 311.881 59.4143 329.77C60.6417 332.614 61.9148 335.403 63.2415 338.142L63.5727 338.841L64.0511 339.43C73.4681 351.438 86.0331 356.066 96.3428 353.34C99.4256 352.6 102.269 351.043 104.512 348.795C106.795 346.508 108.38 343.632 109.094 340.479L109.499 338.731L109.02 337.02C105.237 323.431 105.237 309.062 109.02 295.473L111.909 285.077L101.219 286.586C99.6289 286.811 98.0175 286.938 96.4164 286.954C96.4041 286.954 96.3919 286.954 96.3796 286.954C91.947 286.923 87.5596 286.244 83.3157 284.966C72.7053 281.727 63.1213 275.782 55.5136 267.707L55.4215 267.634L55.348 267.542L41.2537 253.521C41.2499 248.804 40.1159 243.907 40.5177 239.261L40.5729 238.746L40.5361 238.231C40.5306 238.14 40.5323 238.045 40.5544 237.955L40.6832 237.495L40.7384 236.998C43.2292 212.815 51.2329 189.518 64.1431 168.919V168.9L64.1614 168.881C89.7145 127.544 120.289 104.148 162.085 93.4612C183.889 87.8966 208.036 86.2415 233.587 86.5796H234.176L234.783 86.4876C234.916 86.4666 235.039 86.467 235.169 86.4876L235.648 86.5612H236.126C253.428 86.8997 271.372 88.0859 289.633 89.5236L293.828 89.8548L296.128 86.322C298.234 83.0599 301.182 80.4202 304.665 78.7045C308.148 76.989 312.039 76.2512 315.908 76.5701C319.778 76.889 323.479 78.2632 326.635 80.526C329.79 82.7887 332.267 85.8499 333.811 89.4132L335.504 93.314L339.736 93.6452C359.693 95.2356 381.516 96.7651 405.956 97.4907C408.39 97.5623 409.736 98.4955 410.612 100.012L402.166 99.7355C380.462 99.0189 360.824 97.6786 342.624 96.258L336.295 95.7612L335.136 102.017C334.502 105.446 333.048 108.665 330.885 111.401C328.723 114.138 325.923 116.322 322.734 117.731C319.545 119.14 316.056 119.74 312.577 119.497C309.097 119.254 305.733 118.172 302.77 116.332L302.751 116.313C299.71 114.441 297.182 111.832 295.41 108.733C293.637 105.632 292.666 102.146 292.595 98.5759L292.466 92.1548L286.063 91.658C268.635 90.3372 252.104 89.3191 236.347 89.0268L234.599 88.99L233.035 89.7812C210.642 101.057 203.147 120.127 201.516 133.738C198.788 156.83 208.5 181.652 225.914 196.997L228.012 198.837L230.79 198.763C237.002 198.587 243.418 198.579 250.018 198.579C261.259 198.579 273.021 198.562 285.548 197.843C341.803 194.563 379.931 152.542 390.593 139.516V139.497L392.193 137.565V136.774C401.284 125.081 407.092 115.028 408.772 108.585L410.814 100.729C411.206 101.681 411.707 102.458 411.734 104.059C411.774 107.394 409.81 114.054 405.699 121.557L400.529 130.996L411.256 131.99C428.311 133.558 444.009 128.259 453.17 116.037C457.531 110.21 460.051 103.213 460.402 95.9448C460.753 88.6756 458.919 81.4645 455.139 75.2454C448.56 64.3431 437.007 57.106 422.848 53.3864C408.678 49.6642 391.677 49.2815 372.782 52.2088L372.598 52.2272L372.414 52.264C372.259 52.2962 372.103 52.2943 371.954 52.264C371.802 52.2333 371.659 52.1692 371.53 52.08C371.399 51.9886 371.281 51.8787 371.199 51.7488C371.116 51.616 371.057 51.4768 371.034 51.3256V51.3072C371.009 51.1491 371.015 50.9931 371.052 50.8472C371.091 50.6949 371.177 50.5487 371.273 50.424C371.367 50.302 371.485 50.2065 371.623 50.1297C371.761 50.0525 371.908 49.9987 372.064 49.9825L372.23 49.9641L372.414 49.9457C432.582 40.6114 451.465 64.504 457.237 74.1047V74.123L457.256 74.1414C461.264 80.7515 463.196 88.4079 462.813 96.1292C462.43 103.852 459.747 111.273 455.103 117.455C452.289 121.21 448.823 124.458 444.891 127.022L451.773 139.332C452.077 139.189 452.244 138.855 452.546 138.706L452.619 138.854C453.264 138.433 453.668 137.736 454.294 137.29C462.106 133.084 469.35 127.79 474.717 120.693C481.688 111.459 485.746 100.343 486.345 88.7876C486.946 77.2405 484.07 65.7722 478.102 55.8704L478.083 55.852C468.291 39.5519 435.406 6.43664 349.175 19.8067L349.524 19.7515C349.225 19.7826 348.934 19.6956 348.696 19.5123C348.459 19.3293 348.3 19.0706 348.255 18.7763C348.209 18.4816 348.287 18.1947 348.457 17.9483C348.605 17.7343 348.835 17.6014 349.083 17.5251C371.963 13.9973 391.073 13.5629 406.913 15.1883L406.913 15.1884ZM314.16 78.8517C312.676 78.8532 311.202 79.0295 309.762 79.3669C307.309 79.9403 304.994 81.0067 302.954 82.4765C300.908 83.9523 299.176 85.8087 297.858 87.9596C295.636 91.5629 294.671 95.8049 295.116 100.012C295.561 104.221 297.399 108.16 300.323 111.217C303.249 114.275 307.104 116.272 311.289 116.903C315.475 117.535 319.755 116.754 323.452 114.695C327.151 112.636 330.065 109.42 331.732 105.531C333.398 101.642 333.729 97.3008 332.67 93.2036C331.61 89.1081 329.221 85.4755 325.88 82.8813H325.862C322.52 80.2872 318.411 78.8607 314.178 78.8517H314.16ZM219.162 88.6956L208.361 89.2292C172.377 91.0543 140.528 98.7743 112.939 118.375L112.203 118.89L111.633 119.57C98.9339 134.618 97.0166 156.044 105.009 177.125C113.497 199.551 130.926 218.234 150.07 223.18L153.585 224.081L156.381 221.745C173.219 207.568 190.719 202.116 210.33 199.904L222.749 198.506L215.132 188.588C203.232 173.094 197.048 152.277 199.308 133.334V133.315V133.278C200.625 121.315 205.723 110.074 213.862 101.207L214.782 100.213L215.279 98.9439L219.162 88.6956ZM314.16 92.9828C315.267 92.9851 316.34 93.3529 317.214 94.0316C318.09 94.712 318.703 95.6636 318.981 96.7363C319.258 97.8092 319.177 98.9391 318.741 99.9563C318.305 100.974 317.536 101.811 316.57 102.348C315.604 102.887 314.497 103.102 313.405 102.937C312.311 102.772 311.299 102.245 310.535 101.447C309.768 100.645 309.29 99.6196 309.173 98.5211C309.057 97.4182 309.311 96.316 309.891 95.3748V95.3559C310.232 94.7993 310.686 94.3211 311.216 93.9391C311.747 93.5564 312.35 93.2768 312.982 93.1295C313.369 93.0388 313.767 92.9841 314.16 92.9823V92.9828ZM238.408 103.287C251.617 103.588 265.649 104.426 280.304 105.495C281.072 108.987 281.35 112.616 283.138 115.743C286.08 120.891 290.273 125.218 295.318 128.329C300.235 131.381 305.811 133.188 311.584 133.591C317.357 133.994 323.145 132.987 328.438 130.647C333.732 128.308 338.374 124.718 341.962 120.178C344.16 117.396 345.009 113.909 346.286 110.628C359.808 111.659 374.692 112.494 390.151 113.186C387.821 118.045 386.43 122.286 379.663 130.537L379.534 130.684C369.952 142.371 334.108 180.869 284.72 183.749C272.694 184.438 261.238 184.448 250.018 184.448C244.649 184.448 239.338 184.496 234.047 184.596C221.441 172.461 213.533 152.527 215.555 135.413C216.776 125.221 221.613 112.331 238.408 103.287L238.408 103.287ZM194.23 105.623C189.747 113.742 186.298 122.388 185.269 131.714C185.268 131.72 185.27 131.727 185.269 131.733C182.942 151.387 189.047 171.103 199.308 188.073C182.894 190.979 166.861 196.83 151.763 208.276C139.87 204.188 124.909 189.793 118.22 172.121C111.694 154.906 113.626 139.982 122.139 129.415C142.878 114.956 167.065 108.58 194.23 105.624V105.623ZM98.6611 128.108L85.3213 143.674C78.2098 151.969 71.7602 160.815 66.0566 170.133L66.1854 170.207C53.4885 190.343 45.544 213.094 42.9465 236.759L42.8361 237.826L43.0201 238.856C47.5117 262.395 66.3872 277.645 83.9413 282.758H83.9596C95.6252 286.142 107.239 285.38 114.89 278.085L115.81 277.202L116.362 276.061C121.746 264.977 128.162 254.41 135.516 244.524L135.535 244.505L135.554 244.486C138.344 240.661 141.166 237.173 143.999 233.961L150.273 226.84L141.662 222.866C126.001 215.64 110.508 198.677 102.691 178.082L102.672 178.045L102.653 177.99C98.9577 168.65 97.2886 158.642 97.7411 148.605L98.6611 128.108ZM86.6092 165.846C87.5992 171.647 87.3417 177.658 89.5164 183.16C97.4235 203.952 112.106 220.152 128.782 230.374C127.249 232.281 125.695 234.025 124.182 236.097C124.173 236.108 124.171 236.122 124.163 236.133C124.158 236.141 124.15 236.145 124.144 236.152C116.722 246.137 110.376 256.854 104.824 267.984C102.257 270.216 96.2839 271.631 87.8964 269.198C75.3289 265.537 60.9098 253.741 57.2983 236.906C59.8244 215.854 66.8731 195.596 78.2005 177.659L72.9566 174.347L78.1269 177.512C80.6415 173.403 83.7943 169.75 86.6092 165.846ZM45.2281 277.404C45.2764 277.455 45.3452 277.481 45.3937 277.533L45.3568 277.552L45.2281 277.404ZM62.9287 291.112C68.0821 294.104 73.4649 296.738 79.2125 298.49V298.509H79.2309C84.0704 299.966 89.1098 300.538 94.1531 300.754C92.02 313.113 92.0176 325.676 94.9995 337.903C94.8516 338.222 94.7542 338.571 94.5028 338.823C94.0986 339.228 93.5906 339.504 93.0308 339.633L92.902 339.67L92.7732 339.706C89.7704 340.515 82.0811 339.12 75.4774 330.966C74.3988 328.706 73.3597 326.41 72.3494 324.066L72.3126 324.029L72.2942 323.974C67.6038 313.53 65.6589 302.202 62.9287 291.112ZM111.431 346.293L104.457 351.831C102.22 353.605 99.6254 354.901 96.8579 355.603H96.8391H96.8203C94.7414 356.143 92.6008 356.421 90.4539 356.413H90.4356C89.0406 356.41 87.6546 356.298 86.278 356.082L70.8774 353.653L79.2125 366.827C87.3127 379.639 96.52 391.715 106.739 402.909L106.794 402.965L106.85 403.038C110.886 407.255 115.343 411.057 120.134 414.391L120.208 414.428L120.264 414.483C123.429 416.579 125.905 417.753 128.047 418.403C130.188 419.052 132.678 418.989 133.18 418.918H133.199C135.808 418.541 136.776 417.437 137.413 416.82C138.049 416.203 138.354 415.755 138.609 415.385C139.117 414.644 139.383 414.09 139.418 414.023L139.639 413.6L139.805 413.159C140.763 410.585 140.866 407.787 140.228 405.118L140.283 405.155L140.467 406.663V399.321H137.706C136.195 394.362 134.814 389.543 129.094 380.02L129.076 380.001L129.057 379.964C123.982 371.691 119.372 363.154 115.239 354.371L111.431 346.293ZM105.8 366.588C109.332 373.625 112.888 380.648 117.006 387.361C120.323 392.893 120.082 393.799 121.514 397.058C120.095 395.794 118.489 394.749 117.171 393.378L117.135 393.323C110.375 385.914 104.712 377.636 98.9187 369.458C99.397 369.353 99.8979 369.397 100.372 369.274C102.349 368.77 103.953 367.429 105.8 366.588V366.588ZM239.953 403.314C238.993 405.235 238.853 406.663 237.745 408.521C232.935 416.59 226.625 423.376 221.719 425.431H221.682L221.664 425.45C214.494 428.515 206.75 429.898 198.958 429.737C190.539 427.645 181.998 424.967 173.898 421.586C181.371 421.528 185.223 422.797 196.272 421.328C211.746 419.274 227.016 410.716 239.953 403.315L239.953 403.314ZM140.245 404.915L140.264 405.062C140.262 405.051 140.248 405.018 140.245 405.007C140.237 404.976 140.252 404.945 140.245 404.914V404.915ZM159.509 450.565C169.764 455.551 181.877 459.714 195.867 460.409L194.598 460.243C199.851 461.491 204.849 462.564 209.465 463.555L209.557 463.574L209.649 463.593C211.36 463.916 213.01 464.486 214.709 464.862C207.003 469.512 197.98 473.267 187.386 471.081V471.063C178.374 469.207 168.921 461.4 159.51 450.565L159.509 450.565ZM50.9227 333.953C52.275 337.037 53.6635 340.03 55.106 342.969C55.106 342.969 55.106 342.969 55.106 343.06C66.8786 367.333 82.112 389.77 100.33 409.669C104.353 413.821 108.714 417.633 113.367 421.065C132.697 464.017 156.03 488.613 182.735 494.13C186.508 494.909 190.351 495.302 194.204 495.302C215.968 495.302 233.207 482.679 242.24 474.24C244.53 472.113 251.49 465.658 249.201 457.345C247.578 451.413 242.366 448.058 234.378 445.444C250.084 436.879 261.679 417.025 267.503 400.472C271.74 388.409 272.48 379.7 269.702 374.597C269.01 373.325 268.069 372.206 266.936 371.304C265.801 370.402 264.498 369.738 263.103 369.35C255.891 367.276 247.127 372.271 232.702 380.53C220.295 387.634 204.861 396.469 193.266 398.002C168.725 401.248 157.094 399.805 148.295 398.002C145.487 390.043 141.796 382.422 137.295 375.282C129.091 361.542 122.347 349.172 118.669 336.586C118.631 336.409 118.583 336.234 118.524 336.063C111.672 311.99 116.089 287.016 143.083 250.015C173.737 208.091 205.708 208.055 250.03 208.019C261.498 208.019 273.345 208.019 286.093 207.243C330.308 204.683 364.37 178.844 380.724 163.679C384.331 160.271 387.937 156.736 391.183 153.148C399.767 155.111 408.542 156.121 417.347 156.16C444.395 156.16 467.656 145.809 482.262 126.335C490.35 115.612 495.044 102.713 495.738 89.2989C496.431 75.8857 493.095 62.5705 486.156 51.07C475.915 34.012 441.925 -4.07125 347.727 10.5525C345.662 10.982 343.841 12.1879 342.641 13.9214C341.441 15.6548 340.952 17.7831 341.276 19.8665C341.6 21.95 342.713 23.8292 344.383 25.1161C346.053 26.403 348.153 26.9991 350.251 26.7812C434.568 13.7081 463.509 45.2998 472.037 59.5087C477.286 68.2078 479.81 78.2795 479.282 88.4256C478.755 98.5717 475.202 108.327 469.08 116.435C463.74 123.496 456.767 129.158 448.759 132.935C453.382 129.919 457.44 126.117 460.75 121.7C466.24 114.391 469.416 105.606 469.869 96.4756C470.322 87.346 468.031 78.2889 463.292 70.4725C456.386 58.9859 433.63 33.2906 371.33 42.9557C370.221 43.0709 369.147 43.4104 368.173 43.9537C367.2 44.4969 366.347 45.2326 365.666 46.1158C364.986 46.999 364.493 48.0113 364.216 49.0913C363.938 50.1713 363.884 51.2963 364.055 52.3981C364.226 53.5002 364.62 54.5553 365.212 55.5002C365.804 56.4451 366.582 57.2591 367.499 57.894C368.415 58.529 369.452 58.9708 370.544 59.1922C371.636 59.4145 372.763 59.4117 373.855 59.1847C410.171 53.5586 438.3 60.9878 449.101 78.9116C452.148 83.9263 453.626 89.7379 453.342 95.5995C453.059 101.46 451.03 107.103 447.514 111.801C440.067 121.736 427.193 126.352 411.901 124.947C416.338 116.85 418.862 109.511 418.79 103.958C418.664 96.0771 413.578 90.6498 406.168 90.4331C381.896 89.7125 360.204 88.1976 340.297 86.6112C338.246 81.8744 334.946 77.784 330.751 74.7759C326.556 71.7679 321.624 69.9553 316.479 69.5314C311.335 69.1075 306.172 70.0882 301.542 72.3689C296.911 74.6497 292.987 78.1448 290.187 82.4811C271.866 81.0388 253.798 79.849 236.272 79.5061C235.412 79.3704 234.536 79.3704 233.675 79.5061C207.763 79.1631 183.023 80.8221 160.34 86.6112C116.901 97.7182 84.4253 122.675 58.1534 165.175C44.669 186.691 36.3038 211.016 33.7023 236.275C33.5109 237.053 33.4379 237.855 33.4859 238.655C30.8352 269.309 36.6414 301.351 50.9948 333.972L50.9227 333.953ZM50.3636 272.555C58.8204 281.531 69.4737 288.145 81.2703 291.74C86.1729 293.217 91.261 293.982 96.3812 294.013C98.3294 293.999 100.276 293.854 102.205 293.58C98.0769 308.408 98.0769 324.084 102.205 338.912C101.785 340.767 100.849 342.464 99.506 343.811C98.1626 345.157 96.4669 346.096 94.6138 346.521C87.9242 348.325 77.6639 345.349 69.6036 335.071C68.3054 332.391 67.0552 329.656 65.853 326.866C58.0972 309.597 52.8743 291.299 50.3456 272.537L50.3636 272.555ZM231.043 462.178C222.784 469.859 205.978 482.121 185.963 477.992C167.751 474.241 150.332 457.111 135.023 428.151C135.804 428.008 136.575 427.815 137.331 427.575C146.563 435.743 168.256 451.972 196.223 453.36C201.381 454.586 206.339 455.65 210.955 456.641C217.857 457.945 224.674 459.667 231.367 461.799L230.952 462.178H231.043ZM195.339 414.321C210.144 412.356 227.148 402.636 240.798 394.828C245.017 392.412 250.192 389.419 254.195 387.472C251.292 400.202 239.338 425.699 224.442 431.938C216.173 435.475 207.233 437.167 198.243 436.897C181.364 432.767 162.81 426.727 148.98 415.583L149.196 414.934C158.735 416.593 172.007 417.422 195.339 414.321ZM133.4 406.387V406.657C133.741 407.995 133.665 409.403 133.184 410.697C133.04 410.967 132.571 411.869 132.192 411.923C131.813 411.977 129.667 412.229 124.168 408.587C119.761 405.522 115.672 402.024 111.96 398.146C102.021 387.259 93.0613 375.517 85.1828 363.056C86.919 363.329 88.6731 363.468 90.4301 363.472C93.1856 363.482 95.9318 363.136 98.5988 362.444C102.332 361.496 105.823 359.769 108.841 357.376C113.084 366.395 117.821 375.171 123.032 383.667C130.245 395.676 132.697 402.51 133.364 406.387H133.4ZM385.125 135.044C375.045 147.36 338.007 187.715 285.138 190.799C272.858 191.502 261.245 191.52 250.012 191.52C243.412 191.52 236.939 191.52 230.591 191.7C215.121 178.068 206.123 155.023 208.538 134.576C209.982 122.53 216.022 106.266 236.217 96.0959C251.761 96.3842 268.17 97.3941 285.535 98.7102C285.629 103.463 286.915 108.117 289.275 112.244C291.634 116.371 294.992 119.84 299.04 122.332C302.98 124.777 307.457 126.224 312.083 126.547C316.709 126.871 321.344 126.059 325.585 124.185C329.826 122.311 333.546 119.429 336.421 115.791C339.296 112.153 341.239 107.868 342.083 103.308C360.33 104.733 380.075 106.085 401.93 106.806C400.596 111.927 395.565 122.278 385.125 135.008V135.044ZM303.873 91.6597C304.703 90.306 305.793 89.1312 307.081 88.2023C308.369 87.2744 309.828 86.6102 311.374 86.2503C312.291 86.0356 313.228 85.9263 314.169 85.9253C316.839 85.931 319.431 86.8222 321.539 88.4586C323.647 90.0959 325.154 92.3851 325.822 94.9692C326.49 97.5543 326.282 100.287 325.231 102.74C324.179 105.194 322.344 107.229 320.012 108.527C317.68 109.827 314.983 110.316 312.344 109.917C309.705 109.519 307.271 108.257 305.427 106.329C303.581 104.399 302.427 101.913 302.146 99.2594C301.866 96.6046 302.472 93.932 303.873 91.6597V91.6597ZM208.665 96.4379C199.51 106.412 193.774 119.045 192.292 132.501C189.786 153.509 196.512 175.94 209.53 192.89C189.065 195.198 169.861 201.149 151.829 216.331C136.195 212.293 119.371 195.108 111.618 174.624C104.296 155.312 106.208 136.955 117.028 124.135C143.245 105.508 173.521 98.079 208.719 96.2938L208.665 96.4379ZM72.092 173.831C77.5996 164.833 83.8158 156.289 90.6826 148.279C90.1852 159.312 92.0288 170.324 96.0919 180.592C104.531 202.826 120.922 221.074 138.702 229.278C135.727 232.65 132.769 236.311 129.848 240.314C122.231 250.555 115.59 261.489 110.013 272.97C104.964 277.784 96.0561 278.92 85.9223 275.981C70.7577 271.563 53.8618 257.949 49.9669 237.537C52.4513 214.904 60.061 193.136 72.2183 173.885" fill="black"/>
</svg>
