<?xml version="1.0" encoding="UTF-8" standalone="no"?>
<svg
   width="1000"
   height="1000"
   viewBox="0 0 999.99997 1000"
   fill="none"
   version="1.1"
   id="svg4"
   sodipodi:docname="rechercheCommerces.svg"
   inkscape:version="1.2.1 (9c6d41e, 2022-07-14)"
   xml:space="preserve"
   xmlns:inkscape="http://www.inkscape.org/namespaces/inkscape"
   xmlns:sodipodi="http://sodipodi.sourceforge.net/DTD/sodipodi-0.dtd"
   xmlns="http://www.w3.org/2000/svg"
   xmlns:svg="http://www.w3.org/2000/svg"><defs
     id="defs8" /><sodipodi:namedview
     id="namedview6"
     pagecolor="#ffffff"
     bordercolor="#111111"
     borderopacity="1"
     inkscape:showpageshadow="0"
     inkscape:pageopacity="0"
     inkscape:pagecheckerboard="1"
     inkscape:deskcolor="#d1d1d1"
     showgrid="false"
     inkscape:zoom="2.0777331"
     inkscape:cx="22.38016"
     inkscape:cy="32.727976"
     inkscape:window-width="1309"
     inkscape:window-height="456"
     inkscape:window-x="356"
     inkscape:window-y="1337"
     inkscape:window-maximized="0"
     inkscape:current-layer="svg4" /><g
     id="g2600"
     transform="matrix(8.3192823,0,0,8.3192823,50.000065,111.27658)"><g
       id="path2"
       transform="translate(6.8593632e-5)" /><g
       style="fill:#000000;stroke-width:0"
       id="g263"
       transform="matrix(2.8142779,0,0,2.8142779,55.062829,-4.8705502)"><g
         id="path254"><path
           id="path2608"
           style="color:#000000;-inkscape-stroke:none"
           d="M 18.5243,16.672 18.5225,16.67 15.4553,13.4574 C 15.3146,13.31 15.1421,13.2013 14.9531,13.1387 15.570099,12.059201 15.9228,10.798399 15.9228,9.45247 15.9228,5.495954 12.856396,2.25 9.0239,2.25 5.1914038,2.25 2.125,5.495954 2.125,9.45247 c 0,3.956526 3.0664038,7.20243 6.8989,7.20243 1.278799,0 2.474801,-0.362201 3.4997,-0.993 0.0581,0.1824 0.1564,0.3517 0.2918,0.4935 l 3.0672,3.2127 c 0.4847,0.507699 1.2824,0.510999 1.767,-9e-4 l 0.001,-0.001 0.8688,-0.91 c 0.4734,-0.4959 0.4733,-1.2884 0.0049,-1.7842 z M 9.0239,13.0771 c -1.8775281,0 -3.43778,-1.597502 -3.43778,-3.62463 0,-2.024398 1.5576719,-3.6246 3.43778,-3.6246 1.877498,0 3.4378,1.597492 3.4378,3.6246 0,2.024428 -1.557702,3.62463 -3.4378,3.62463 z M 18.5243,16.672 18.5225,16.67 15.4553,13.4574 C 15.3146,13.31 15.1421,13.2013 14.9531,13.1387 15.5701,12.0592 15.9228,10.7984 15.9228,9.45247 15.9228,5.49595 12.8564,2.25 9.0239,2.25 5.1914,2.25 2.125,5.49595 2.125,9.45247 c 0,3.95653 3.0664,7.20243 6.8989,7.20243 1.2788,0 2.4748,-0.3622 3.4997,-0.993 0.0581,0.1824 0.1564,0.3517 0.2918,0.4935 l 3.0672,3.2127 c 0.4847,0.5077 1.2824,0.511 1.767,-9e-4 3e-4,-3e-4 7e-4,-7e-4 0.001,-0.001 l 0.8688,-0.91 c 0.4734,-0.4959 0.4733,-1.2884 0.0049,-1.7842 z M 9.0239,13.0771 c -1.87753,0 -3.43778,-1.5975 -3.43778,-3.62463 0,-2.0244 1.55767,-3.6246 3.43778,-3.6246 1.8775,0 3.4378,1.59749 3.4378,3.6246 0,2.02443 -1.5577,3.62463 -3.4378,3.62463 z M -16.919258,1.7306572 c -0.175506,5.067e-4 -0.347337,0.049984 -0.498296,0.1505992 -0.15107,0.1006794 -0.273272,0.2507152 -0.333123,0.4351416 l -6.93e-4,6.929e-4 -1.775961,5.5145696 -6.94e-4,0.0021 c -0.02415,0.076654 -0.03708,0.1576159 -0.03748,0.2387245 v 7.106e-4 4.2521734 c -0.0025,0.679959 0.187405,1.348701 0.545488,1.941134 0.302672,0.500728 0.735511,0.9139 1.230472,1.256151 v 15.261185 c 0,1.182803 0.620304,2.241904 1.562207,2.977978 0.941903,0.736075 2.211781,1.174258 3.601196,1.174258 h 2.9113541 c 0.1066053,2.56e-4 0.2125199,-0.01802 0.3136908,-0.05483 0.1013898,-0.03683 0.19667,-0.09216 0.2803781,-0.165868 0.083852,-0.07383 0.1545505,-0.164958 0.2040378,-0.270662 h -7.107e-4 c 0.049327,-0.105142 0.076453,-0.222188 0.076341,-0.340757 v -0.0014 l -0.00555,-11.696773 c 0,-1.106901 0.4964247,-2.174449 1.4088314,-2.977979 0.9124085,-0.803498 2.1693099,-1.26656 3.483909,-1.26656 1.314599,0 2.5715008,0.463062 3.48390858,1.26656 0.91240705,0.80353 1.40883173,1.871078 1.40883173,2.977979 l -0.005554,11.698854 c -1.1264e-4,0.118569 0.0270123,0.235615 0.0763407,0.340757 h -7.107e-4 c 0.049544,0.105825 0.1203552,0.19698 0.2040375,0.270662 0.083708,0.07371 0.1792694,0.129053 0.2803785,0.165868 0.1012067,0.03682 0.206492,0.05492 0.3123024,0.05483 h 2.9127422 c 1.3894179,0 2.6585996,-0.438173 3.6005016,-1.174257 0.9419027,-0.736084 1.5629011,-1.795176 1.5629011,-2.977979 V 17.57202 A 8.2088908,8.2088908 0 0 1 8.9948797,17.63517 8.2088908,8.2088908 0 0 1 8.1370888,17.5741 v 13.209705 c 0,0.643971 -0.3375587,1.244251 -0.9493999,1.712112 -0.6118418,0.467862 -1.4905173,0.776593 -2.4692725,0.776593 h -2.041034 l 0.00555,-10.866048 v -7.11e-4 c 0,-1.585905 -0.7184517,-3.100235 -1.96820003,-4.200817 -1.249776,-1.100609 -2.92545457,-1.707253 -4.66857667,-1.707253 -1.7431221,0 -3.4188009,0.606644 -4.6685766,1.707253 -1.2497483,1.100582 -1.9682001,2.614912 -1.9682001,4.200817 v 7.11e-4 l 0.0056,10.866048 h -2.041071 c -0.979166,0 -1.857548,-0.308759 -2.469273,-0.776593 -0.61173,-0.467833 -0.949401,-1.068062 -0.949401,-1.712112 V 16.295061 c 0.04296,0.009 0.08533,0.01798 0.131167,0.02637 l 0.0083,0.0014 0.0347,0.0056 c 0.05391,0.0095 0.106641,0.01774 0.158233,0.02498 h 0.0021 l 0.04997,0.0069 h 0.0021 c 0.0586,0.0072 0.123348,0.01585 0.19571,0.02221 l 0.0236,0.0021 h 0.02776 c 0.05194,0.0043 0.103269,0.0082 0.150599,0.01041 l 0.01249,7.11e-4 h 0.05899 c 0.03647,0 0.09714,0.0035 0.180442,0.0035 h 7.1e-4 c 0.872399,-7.1e-4 1.726342,-0.223245 2.465109,-0.648201 0.489666,-0.281667 0.881305,-0.668211 1.218674,-1.093753 0.337242,0.426095 0.728677,0.812545 1.218674,1.094447 0.7390427,0.425142 1.5937067,0.648201 2.4664961,0.648201 0.8727585,0 1.7274534,-0.223059 2.4664963,-0.648201 0.4898255,-0.281804 0.8814879,-0.66785 1.2186742,-1.093753 0.3371544,0.425809 0.7289572,0.811996 1.2186739,1.093753 0.7390503,0.425147 1.5937065,0.648201 2.46649667,0.648201 0.87275816,0 1.72675943,-0.223059 2.46580233,-0.648201 h 7.107e-4 C 2.5238554,15.564167 2.803121,15.327619 3.0549892,15.066714 A 8.2088908,8.2088908 0 0 1 2.0139808,13.727283 c -0.081601,0.09737 -0.1695252,0.191838 -0.2692744,0.279685 -0.5223592,0.46003 -1.25028593,0.730094 -2.01331044,0.730094 -0.76306536,0 -1.49164546,-0.270064 -2.01400476,-0.730094 -0.5223947,-0.460036 -0.7988006,-1.062496 -0.7988006,-1.683658 0,-0.239413 -0.1115981,-0.462818 -0.2803785,-0.611419 -0.16866,-0.148497 -0.377666,-0.22 -0.5919867,-0.22 -0.214321,0 -0.4233263,0.0715 -0.591987,0.22 -0.1687797,0.148601 -0.2803781,0.372006 -0.2803781,0.611419 0,0.621146 -0.2764283,1.223616 -0.7988007,1.683658 -0.5223599,0.46003 -1.2509799,0.730094 -2.0140047,0.730094 -0.7630654,0 -1.4909509,-0.270064 -2.0133104,-0.730094 -0.5223725,-0.460042 -0.7994945,-1.062512 -0.7994945,-1.683658 0,-0.239413 -0.110904,-0.462818 -0.279685,-0.611419 -0.16866,-0.148497 -0.377666,-0.22 -0.591987,-0.22 -0.21432,0 -0.423326,0.0715 -0.591986,0.22 -0.168622,0.148462 -0.28017,0.371567 -0.280379,0.610725 -3.55e-4,0.361057 -0.09471,0.717931 -0.281072,1.047948 -0.186354,0.329997 -0.460805,0.624257 -0.806435,0.855015 -0.345586,0.23072 -0.752504,0.391389 -1.187443,0.46429 -0.435001,0.07286 -0.885576,0.05543 -1.311046,-0.04932 -0.601849,-0.148249 -1.12372,-0.464748 -1.487254,-0.886245 -0.363365,-0.421316 -0.55164,-0.920455 -0.552429,-1.43104 v -7.11e-4 -4.1217002 l 1.549021,-4.8059729 H 3.447034 A 8.2088908,8.2088908 0 0 1 6.1980725,1.7306572 H -16.918564 Z" /></g></g></g></svg>
