<svg viewBox="0 0 900 778" xmlns="http://www.w3.org/2000/svg">
<path d="M891.788 350.095L891.746 350.048L819.935 274.832C816.64 271.381 812.602 268.836 808.177 267.371C822.622 242.096 830.88 212.578 830.88 181.066C830.88 88.4326 759.087 12.4359 669.358 12.4359C579.628 12.4359 507.835 88.4326 507.835 181.066C507.835 273.699 579.628 349.695 669.358 349.695C699.298 349.695 727.3 341.214 751.295 326.446C752.656 330.716 754.957 334.68 758.127 338L829.939 413.218C841.287 425.105 859.963 425.182 871.309 413.197L871.333 413.174L891.674 391.868C902.757 380.258 902.755 361.703 891.788 350.095ZM669.358 265.928C625.4 265.928 588.87 228.526 588.87 181.066C588.87 133.669 625.339 96.2037 669.358 96.2037C713.315 96.2037 749.846 133.605 749.846 181.066C749.846 228.463 713.376 265.928 669.358 265.928ZM891.788 350.095L891.746 350.048L819.935 274.832C816.64 271.381 812.602 268.836 808.177 267.371C822.622 242.096 830.88 212.578 830.88 181.066C830.88 88.4326 759.087 12.4359 669.358 12.4359C579.628 12.4359 507.835 88.4326 507.835 181.066C507.835 273.699 579.628 349.695 669.358 349.695C699.298 349.695 727.3 341.214 751.295 326.446C752.656 330.716 754.957 334.68 758.127 338L829.939 413.218C841.287 425.105 859.963 425.182 871.309 413.197C871.316 413.19 871.326 413.181 871.333 413.174L891.674 391.868C902.757 380.258 902.755 361.703 891.788 350.095ZM669.358 265.928C625.4 265.928 588.87 228.526 588.87 181.066C588.87 133.669 625.339 96.2037 669.358 96.2037C713.315 96.2037 749.846 133.605 749.846 181.066C749.846 228.463 713.376 265.928 669.358 265.928ZM61.9565 0.276611C57.8474 0.288475 53.8244 1.44687 50.29 3.80255C46.753 6.15974 43.892 9.67249 42.4907 13.9904L42.4745 14.0067L0.894322 143.118L0.878067 143.167C0.312649 144.962 0.00993567 146.857 0.000570559 148.756V148.773V248.328C-0.0579614 264.248 4.3882 279.905 12.7719 293.776C19.8583 305.499 29.9923 315.172 41.5807 323.185V680.492C41.5807 708.185 56.1037 732.981 78.1563 750.215C100.209 767.449 129.94 777.708 162.47 777.708H230.633C233.129 777.714 235.609 777.286 237.978 776.424C240.351 775.562 242.582 774.266 244.542 772.54C246.505 770.812 248.16 768.678 249.319 766.203H249.302C250.457 763.742 251.092 761.001 251.09 758.225V758.193L250.96 484.339C250.96 458.423 262.582 433.429 283.944 414.616C305.306 395.804 334.734 384.962 365.512 384.962C396.291 384.962 425.718 395.804 447.08 414.616C468.442 433.429 480.065 458.423 480.065 484.339L479.935 758.241C479.932 761.017 480.567 763.758 481.722 766.219H481.706C482.866 768.697 484.524 770.831 486.483 772.556C488.443 774.282 490.68 775.578 493.047 776.44C495.417 777.302 497.882 777.726 500.359 777.724H568.554C601.085 777.724 630.8 767.465 652.852 750.231C674.905 732.997 689.444 708.201 689.444 680.508V371.167C682.554 372.034 675.622 372.528 668.678 372.645C661.963 372.52 655.26 372.043 648.595 371.216V680.491C648.595 695.569 640.692 709.623 626.367 720.577C612.042 731.531 591.47 738.759 568.554 738.759H520.768L520.898 484.355V484.338C520.898 447.207 504.077 411.753 474.817 385.985C445.556 360.217 406.324 346.014 365.513 346.014C324.701 346.014 285.469 360.217 256.208 385.985C226.948 411.753 210.127 447.207 210.127 484.338V484.355L210.259 738.759H162.471C139.546 738.759 118.981 731.53 104.659 720.577C90.3366 709.623 82.4308 695.57 82.4308 680.491V341.27C83.4366 341.48 84.4286 341.691 85.5018 341.887L85.6961 341.92L86.5085 342.051C87.7707 342.273 89.0053 342.466 90.2132 342.636H90.2624L91.4323 342.797H91.4815C92.8535 342.966 94.3694 343.168 96.0636 343.317L96.6161 343.367H97.2661C98.4821 343.467 99.6839 343.559 100.792 343.61L101.084 343.627H102.466C103.319 343.627 104.74 343.709 106.69 343.709H106.707C127.132 343.692 147.125 338.482 164.422 328.533C175.886 321.938 185.056 312.888 192.954 302.925C200.85 312.901 210.015 321.949 221.487 328.549C238.79 338.503 258.8 343.725 279.234 343.725C299.668 343.725 319.679 338.503 336.982 328.549C348.45 321.951 357.62 312.913 365.514 302.941C373.408 312.911 382.581 321.952 394.047 328.549C411.35 338.503 431.36 343.725 451.795 343.725C472.228 343.725 492.223 338.503 509.526 328.549H509.542C517.174 324.157 523.712 318.619 529.609 312.511C520.424 302.927 512.256 292.418 505.236 281.151C503.326 283.431 501.267 285.642 498.932 287.699C486.702 298.47 469.659 304.793 451.794 304.793C433.929 304.793 416.871 298.47 404.641 287.699C392.41 276.928 385.939 262.823 385.939 248.28C385.939 242.675 383.326 237.444 379.374 233.965C375.426 230.488 370.532 228.814 365.514 228.814C360.497 228.814 355.603 230.488 351.654 233.965C347.703 237.444 345.09 242.675 345.09 248.28C345.09 262.823 338.618 276.928 326.388 287.699C314.158 298.47 297.099 304.793 279.234 304.793C261.369 304.793 244.327 298.47 232.097 287.699C219.867 276.928 213.379 262.823 213.379 248.28C213.379 242.675 210.782 237.444 206.831 233.965C202.882 230.488 197.988 228.814 192.971 228.814C187.953 228.814 183.059 230.488 179.111 233.965C175.163 237.441 172.551 242.664 172.546 248.264C172.538 256.717 170.329 265.072 165.965 272.799C161.602 280.525 155.177 287.415 147.085 292.817C138.993 298.219 129.466 301.981 119.283 303.688C109.099 305.394 98.5494 304.985 88.588 302.533C74.497 299.062 62.2786 291.652 53.7672 281.784C45.2598 271.919 40.8518 260.233 40.8333 248.279V248.262V151.762L77.1002 39.2407H538.788C557.479 22.1339 579.369 8.89191 603.197 0.276611H61.9728H61.9565Z" fill="black"/>
</svg>
