<svg viewBox="0 0 692 1000" xmlns="http://www.w3.org/2000/svg">
<path d="M492.421 192.557C489.56 192.62 486.776 193.49 484.427 194.597C479.729 196.81 475.462 200.385 471.694 205.043V205.064C467.922 209.727 465.293 214.655 464.112 219.713C462.936 224.75 463.038 231.279 468.274 235.578L468.232 235.64C473.536 239.94 479.972 238.649 484.674 236.444C489.377 234.239 493.677 230.656 497.49 226.018C501.338 221.337 503.989 216.353 505.155 211.266C506.32 206.179 506.154 199.642 500.869 195.38C498.219 193.244 495.282 192.494 492.421 192.558L492.421 192.557ZM487.312 212.213C486.592 213.543 486.41 214.578 485.272 215.963C484.146 217.333 483.17 217.723 482.016 218.703C482.73 217.393 482.899 216.369 483.994 215.015C485.133 213.608 486.142 213.205 487.312 212.213ZM473.214 229.495C476.95 232.523 485.047 228.707 491.387 220.994C497.727 213.281 499.665 204.557 495.91 201.529C492.154 198.5 484.078 202.317 477.838 210.029C471.599 217.743 469.56 226.466 473.296 229.495M550.483 162.125C547.622 162.188 544.838 163.058 542.489 164.165C537.791 166.378 533.524 169.973 529.755 174.632C525.984 179.294 523.354 184.223 522.173 189.281C520.997 194.318 521.099 200.847 526.335 205.146L526.294 205.208C531.59 209.502 538.029 208.215 542.736 206.012C547.443 203.808 551.757 200.239 555.572 195.586C559.414 190.9 562.05 185.918 563.216 180.834C564.382 175.749 564.207 169.205 558.93 164.948C556.281 162.811 553.344 162.062 550.483 162.125L550.483 162.125ZM545.373 181.781C544.652 183.114 544.475 184.16 543.333 185.552C542.194 186.941 541.201 187.326 540.037 188.312C540.755 186.988 540.946 185.955 542.056 184.583C543.194 183.176 544.204 182.773 545.373 181.781V181.781ZM531.276 199.062C535.011 202.091 543.109 198.295 549.449 190.562C555.789 182.828 557.727 174.126 553.971 171.097C550.216 168.068 542.139 171.885 535.9 179.598C529.661 187.311 527.622 196.034 531.357 199.062M455.355 162.558C452.494 162.618 449.695 163.496 447.34 164.597C442.629 166.801 438.333 170.383 434.525 175.044C430.698 179.726 428.073 184.68 426.901 189.755C425.73 194.829 425.853 201.385 431.125 205.661C436.428 209.96 442.864 208.649 447.567 206.444C452.269 204.239 456.569 200.677 460.382 196.039C464.23 191.358 466.879 186.369 468.047 181.287C469.215 176.204 469.077 169.677 463.803 165.401C461.152 163.252 458.216 162.497 455.355 162.558V162.558ZM450.245 182.131C449.518 183.488 449.329 184.567 448.164 185.984C446.968 187.439 445.921 187.876 444.703 188.889C445.429 187.537 445.607 186.472 446.763 185.057C447.961 183.591 449.023 183.146 450.245 182.131ZM436.103 199.509C439.839 202.537 447.935 198.721 454.276 191.007C460.617 183.295 462.554 174.571 458.819 171.543C455.083 168.514 446.967 172.31 440.647 180.043C434.327 187.777 432.368 196.479 436.103 199.509ZM472.971 99.3863C470.11 99.4466 467.312 100.324 464.956 101.426C460.246 103.629 455.95 107.212 452.141 111.872C448.314 116.555 445.689 121.529 444.517 126.604C443.346 131.679 443.468 138.215 448.741 142.49C454.044 146.79 460.48 145.498 465.183 143.293C469.886 141.088 474.186 137.506 477.999 132.868C481.847 128.186 484.474 123.218 485.643 118.136C486.811 113.054 486.693 106.506 481.419 102.23C478.768 100.081 475.833 99.3261 472.971 99.3863V99.3863ZM467.862 118.96C467.134 120.319 466.948 121.393 465.781 122.813C464.585 124.268 463.537 124.705 462.319 125.718C463.045 124.367 463.226 123.298 464.379 121.886C465.579 120.418 466.638 119.976 467.862 118.96ZM453.719 136.347C457.455 139.376 465.552 135.56 471.893 127.846C478.233 120.134 480.17 111.41 476.435 108.382C472.7 105.353 464.583 109.149 458.263 116.882C451.943 124.616 449.984 133.318 453.719 136.347ZM524.007 115.602C521.145 115.665 518.345 116.539 515.992 117.641C511.286 119.846 506.983 123.42 503.176 128.067C499.344 132.744 496.724 137.721 495.553 142.799C494.382 147.876 494.499 154.403 499.777 158.684V158.705H499.798C505.096 162.978 511.53 161.693 516.24 159.488C520.95 157.283 525.249 153.7 529.055 149.042C532.882 144.359 535.508 139.406 536.679 134.331C537.85 129.256 537.727 122.7 532.455 118.425C529.801 116.273 526.87 115.539 524.007 115.602L524.007 115.602ZM518.877 135.196C518.15 136.55 517.953 137.612 516.796 139.028C515.599 140.493 514.553 140.94 513.334 141.954C514.062 140.594 514.252 139.52 515.415 138.101C516.606 136.647 517.66 136.208 518.877 135.196ZM504.755 152.545C508.511 155.573 516.608 151.777 522.928 144.043C529.248 136.31 531.206 127.608 527.471 124.579C523.735 121.55 515.619 125.366 509.299 133.08C502.979 140.793 501.02 149.515 504.755 152.545ZM538.78 0.0141012C536.421 0.108309 534.109 0.679289 531.981 1.70361C529.852 2.72718 527.964 4.18241 526.418 5.96861H526.396V5.98921C511.507 23.3345 505.339 40.8804 505.36 57.9933C491.885 53.114 477.574 50.0382 462.649 53.2132C449.643 55.98 438.268 63.4014 428.302 73.3843C400.962 60.8703 374.234 52.7391 348.854 50.102L348.73 50.0814H348.627C348.38 50.0629 348.132 50.0862 347.885 50.0814C347.084 50.0134 346.277 50.0131 345.474 50.0814H345.412L345.331 50.102C278.017 57.0937 205.029 97.8337 127.569 169.913C94.759 200.485 64.4331 233.589 36.6029 268.75H17.5444H17.5238C14.6479 268.749 11.8229 269.464 9.30289 270.831H9.28229C6.7569 272.203 4.62641 274.203 3.0599 276.62C1.50204 279.028 0.542181 281.799 0.319595 284.656C0.0971914 287.528 0.604659 290.415 1.78247 293.042L125.179 569.05H122.583H122.562C119.686 569.048 116.865 569.783 114.341 571.152H114.32C111.791 572.526 109.642 574.501 108.077 576.921C106.511 579.342 105.592 582.124 105.377 584.998C105.163 587.874 105.677 590.763 106.861 593.384L270.146 956.341L269.446 953.085C269.446 955.751 270.296 956.769 270.6 957.268C284.542 983.85 315.079 1000 348.482 1000H349.78H349.821C378.502 999.629 403.673 987.285 418.308 966.045C418.704 965.504 419.062 964.949 419.38 964.376C420.868 962.106 422.235 959.771 423.459 957.35L423.5 957.247C423.77 956.765 423.979 956.295 424.139 955.866L423.955 956.341L587.075 593.342C588.252 590.717 588.738 587.825 588.518 584.957C588.297 582.083 587.361 579.313 585.798 576.901C584.233 574.486 582.087 572.505 579.555 571.131C577.022 569.755 574.189 569.049 571.313 569.05H566.822L690.239 293.103C691.411 290.48 691.901 287.603 691.681 284.738V284.717C691.459 281.85 690.524 279.094 688.961 276.682C687.398 274.259 685.268 272.269 682.739 270.892H682.718C680.188 269.518 677.359 268.807 674.476 268.811H657.396C639.874 246.679 621.257 225.442 601.683 205.104C607.102 195.228 610.6 184.395 610.707 173.065V173.024V173.003C610.707 157.728 604.715 144.328 597.109 132.166C613.858 128.628 629.75 118.914 643.591 100.745V100.725C645.02 98.8394 646.057 96.6901 646.62 94.3993V94.3787C647.185 92.08 647.259 89.6982 646.868 87.3743C646.476 85.0511 645.616 82.8414 644.333 80.8635C643.048 78.8862 641.376 77.1808 639.409 75.8774H639.388C637.413 74.5716 620.383 65.7642 600.158 61.9904L609.718 50.1638L609.781 50.0814C612.5 46.5166 613.735 42.028 613.201 37.5749C612.667 33.1227 610.403 29.0435 606.917 26.2222C603.431 23.4025 598.979 22.0448 594.513 22.4517C590.047 22.8585 585.915 25.0004 582.996 28.4062L582.913 28.4886L573.271 40.3976C570.202 33.1957 567.69 25.1449 563.999 19.8968C560.955 15.5692 558.047 12.0189 555.799 9.45065C553.642 6.98738 552.691 5.97814 551.595 4.95902L551.574 4.93842C549.894 3.29061 547.895 1.99393 545.703 1.14731C543.501 0.29688 541.139 -0.0800115 538.78 0.0141012ZM539.419 15.8172C539.619 15.8092 539.809 15.8482 539.996 15.9203C540.182 15.9925 540.35 16.0918 540.49 16.2294L540.593 16.3324L540.697 16.4148C540.048 15.8179 541.949 17.6584 543.89 19.8763C545.832 22.0941 548.408 25.2319 551.06 29.0037C556.366 36.5474 561.886 46.6434 563.732 56.5923L566.864 73.4668L595.008 38.7081C595.249 38.4272 595.587 38.2473 595.956 38.2137C596.326 38.18 596.675 38.2876 596.966 38.5227C597.254 38.7562 597.437 39.0803 597.481 39.4499C597.525 39.8186 597.418 40.1843 597.192 40.4801L569.13 75.1975L586.211 74.8061C606.512 74.3243 630.755 89.1381 630.674 89.0845C630.823 89.188 630.965 89.3218 631.065 89.476C631.171 89.6379 631.239 89.8181 631.271 90.0117C631.306 90.2175 631.299 90.415 631.25 90.6092C631.2 90.8101 631.104 91.0042 630.982 91.1655C615.969 110.862 601.183 119.496 586.663 119.496H586.54H569.212L578.937 132.208C588.423 144.618 594.872 158.396 594.884 172.963C594.778 183.33 591.623 193.437 585.798 202.014L582.172 207.35L586.684 211.986C608.226 234.086 628.565 257.322 647.609 281.607L649.979 284.635H674.497C674.724 284.635 674.952 284.693 675.157 284.8C675.364 284.913 675.545 285.078 675.672 285.274C675.801 285.474 675.88 285.717 675.898 285.954C675.913 286.186 675.87 286.422 675.775 286.634L542.427 584.874H571.334C571.572 584.874 571.811 584.928 572.014 585.039C572.22 585.151 572.4 585.313 572.529 585.513C572.66 585.715 572.738 585.941 572.756 586.172C572.773 586.41 572.73 586.634 572.632 586.852L409.614 949.665L409.511 949.891L409.47 949.974C408.427 952.061 407.258 954.069 405.968 956.011L405.741 956.341L405.556 956.711L405.432 956.856L405.329 957.021C393.868 973.698 373.967 983.862 349.616 984.176H348.483C320.219 984.176 295.303 970.297 284.611 949.912L121.285 586.873V586.852C121.185 586.632 121.144 586.404 121.161 586.172C121.178 585.94 121.24 585.708 121.367 585.512C121.494 585.316 121.672 585.173 121.882 585.059C122.09 584.946 122.31 584.873 122.541 584.874H122.563H149.595L16.2257 286.572C16.1292 286.357 16.084 286.126 16.1021 285.892V285.871C16.1202 285.636 16.2024 285.406 16.3288 285.212C16.4564 285.015 16.6328 284.853 16.8439 284.738C17.0565 284.623 17.2904 284.573 17.5238 284.573H44.1027L46.4722 281.545C74.4588 245.859 105.186 212.409 138.365 181.493C214.309 110.827 284.711 72.356 346.835 65.8639L347.185 65.9052L347.411 65.8846C367.183 67.961 388.399 74.3589 410.171 83.233L405.37 84.2426C385.64 76.5601 366.274 70.7834 347.844 68.7485L346.979 68.6661L346.134 68.7485C281.833 75.7103 218.766 116.206 166.963 159.9L159.546 166.143L167.149 172.159C187.578 188.286 209.339 193.079 230.155 191.856C250.971 190.633 270.977 183.854 290.154 177.495H290.175C310.865 170.592 329.737 164.494 347.021 164.494C365.598 164.494 383.238 170.292 394.389 175.044L404.093 179.185L405.35 168.698C408.005 146.463 413.998 124.418 422.307 108.102L422.328 108.081V108.06C423.4 105.935 424.548 103.891 425.748 101.837L430.157 94.3178L422.245 90.6503C419.027 89.1643 415.939 88.39 412.746 87.0447H419.916C422.114 88.0329 424.196 88.5229 426.407 89.5789L431.825 92.175L435.781 87.6422C435.997 87.3949 436.245 87.2872 436.461 87.0447H440.994C435.036 93.1684 429.473 100.273 424.841 109.379H424.82C413.354 131.95 407.53 162.28 406.771 189.652C406.391 203.337 407.308 216.249 409.738 227.212C412.167 238.176 415.793 247.487 423.171 253.462C426.701 256.321 430.865 258.08 435.41 259.251C430.848 257.895 424.087 257.91 421.338 255.687H421.316C413.001 248.966 406.484 232.354 404.566 211.409L403.865 203.724L396.18 204.239C368.226 206.057 349.334 216.821 337.933 231.024C326.532 245.228 322.56 262.134 321.409 276.188L320.729 284.512L329.053 284.759C354.36 285.481 378.756 294.369 398.59 310.102L406.399 316.283L411.798 321.969C422.487 333.2 431.566 345.851 438.788 359.571L438.81 359.613L438.831 359.654C465.451 409.097 479.57 482.306 479.75 576.921V584.833H539.398L541.5 580.135L672.437 287.396H587.652L586.869 287.561C586.764 287.582 586.648 287.597 586.539 287.602C586.436 287.598 586.331 287.582 586.23 287.561L585.447 287.396H504.351C451.347 287.396 424.32 301.325 412.705 310.246L411.428 311.235V308.433C422.967 299.341 448.808 284.615 504.227 284.615H585.983L583.737 274.91C580.793 262.243 572.887 253.59 565.05 248.311C557.212 243.031 549.383 240.748 545.023 239.739L542.179 239.08L539.604 240.419C512.649 254.412 478.731 263.764 453.171 263.764C445.819 263.764 442.269 261.073 436.77 259.602C441.366 260.631 446.319 261.107 451.646 261.147C462.875 261.231 475.696 259.418 489.001 256.181C515.611 249.707 544.056 237.642 563.731 221.691C581.746 207.089 592.185 190.619 592.185 172.983C592.185 155.667 582.582 140.483 572.302 128.396C562.031 116.319 550.561 107.105 545.085 102.703L545.063 102.683C538.859 97.6622 524.944 86.5614 508.163 78.7207L513.169 77.6493L524.151 82.8209L522.4 75.6919L527.468 74.5999C531.233 80.8422 535.789 85.8463 539.48 88.4251L543.993 91.5775L548.505 88.4457C551.945 86.0647 554.869 82.9933 557.076 79.4418C559.285 75.8879 560.729 71.9156 561.341 67.7801L561.362 67.6977V67.6153C563.373 51.5192 553.712 36.8909 546.135 27.0051L539.501 18.3721L533.34 27.3348C524.59 40.0433 520.14 52.6513 522.688 64.8131C523.24 67.4428 524.798 69.0205 525.82 71.2209H521.287L519.948 65.6991C516.878 51.446 522.199 35.1792 538.388 16.3117L538.409 16.2912C538.535 16.1526 538.672 16.0433 538.842 15.9615C539.02 15.876 539.221 15.8252 539.419 15.8173L539.419 15.8172ZM540.325 48.021C543.664 54.476 546.196 60.9553 545.641 65.5755C545.419 66.9988 544.797 68.3007 544.178 69.5932C541.824 67.0248 538.934 65.1652 538.182 61.5783C537.399 57.8416 538.335 53.1925 540.325 48.021ZM487.559 68.5836C490.224 69.0665 492.836 70.43 495.491 71.2209H481.398C479.744 71.0805 478.205 70.3562 476.536 70.3555H476.515C473.717 70.3457 470.946 70.7405 468.191 71.2209C467.659 71.3136 467.112 71.2748 466.584 71.3857C466.577 71.3871 466.57 71.3843 466.563 71.3857L451.625 74.5175C456.195 71.8563 460.913 69.7571 465.944 68.6866C473.073 67.1702 480.311 67.2704 487.558 68.5836L487.559 68.5836ZM599.005 78.5971C591.607 76.9993 583.693 76.7207 576.032 79.38L575.949 79.4213L575.867 79.4418C571.95 80.906 568.371 83.1558 565.359 86.0557C562.347 88.9552 559.966 92.4591 558.354 96.3164L556.231 101.385L560.249 105.155C565.149 109.721 574.254 116.632 586.766 116.632H586.787C599.095 116.605 610.644 109.738 621.278 98.3561L621.03 98.624L629.251 90.6091L618.908 85.7466C613.292 83.1071 606.403 80.1949 599.005 78.5971ZM347.02 84.6752C366.058 86.8782 386.537 92.9879 407.781 102.044C399.838 117.988 394.661 137.42 391.483 157.407C379.468 153.009 364.553 148.671 347.02 148.671C326.141 148.671 305.869 155.568 285.167 162.475C265.987 168.835 247.154 175 229.228 176.053C214.589 176.913 200.616 173.108 186.496 164.762C235.036 125.33 291.931 90.9091 347.02 84.6752ZM476.474 86.1793H476.495H476.516C497.723 86.1793 525.3 107.048 535.134 115.004H535.155C540.588 119.37 551.176 127.988 560.251 138.657C569.325 149.327 576.363 161.828 576.363 172.983C576.363 184.383 569.627 196.53 553.76 209.39C536.949 223.02 509.909 234.812 485.253 240.811C472.924 243.81 461.171 245.394 451.771 245.323C442.372 245.253 435.566 243.159 433.125 241.182C430.68 239.202 427.206 232.972 425.172 223.792C423.138 214.612 422.224 202.766 422.576 190.084C423.28 164.72 429.138 135.835 438.935 116.549C448.191 98.3569 458.808 89.2162 469.882 86.8592C469.903 86.8549 469.923 86.8429 469.944 86.8386C472.095 86.3956 474.281 86.1706 476.476 86.1793L476.474 86.1793ZM581.306 94.3384C585.704 92.8418 592.58 93.9623 599.582 95.8631C594.902 98.908 590.526 100.796 586.766 100.808C583.098 100.808 580.678 98.3889 577.68 96.6254C578.818 95.7455 579.957 94.8554 581.306 94.3384ZM346.958 167.255C328.904 167.255 310.243 173.691 291.019 180.092L291.04 180.07C269.676 187.091 246.474 194.761 223.398 194.761C203.185 194.761 183.104 189.4 162.781 172.385L157.507 167.976L152.418 172.571C118.407 203.154 86.7871 236.298 57.846 271.716L47.2968 284.635H173.289C185.247 284.654 196.706 289.406 205.163 297.862C213.624 306.324 218.377 317.792 218.39 329.757V453.36V453.381C218.389 457.451 219.221 461.482 220.822 465.228C222.424 468.979 224.777 472.364 227.724 475.179V475.201C230.673 478.015 234.162 480.202 237.985 481.629C241.805 483.057 245.881 483.676 249.956 483.483H250.059H250.183C257.966 482.877 265.244 479.332 270.519 473.573C275.794 467.814 278.673 460.261 278.595 452.454V329.675V329.655C278.611 319.65 281.943 309.933 288.073 302.025C294.207 294.113 302.796 288.462 312.488 285.954L318.031 284.532L318.402 278.825C319.193 266.874 322.517 248.099 333.463 232.384C344.409 216.669 362.532 203.343 396.346 201.293L403.702 200.84L403.764 193.463C403.782 191.724 403.887 189.772 403.887 187.488V182.543L399.458 180.38C390.097 175.818 369.823 167.255 346.959 167.255L346.958 167.255ZM346.958 183.079C357.858 183.079 367.967 185.601 376.751 188.518C349.866 194.251 331.464 207.572 320.482 223.339C308.379 240.716 304.786 259.258 303.443 272.891C292.569 276.802 282.693 283.148 275.566 292.341C267.288 303.021 262.787 316.142 262.771 329.655V452.577V452.618C262.809 456.42 261.424 460.076 258.856 462.879C256.31 465.658 252.804 467.343 249.049 467.659C247.164 467.729 245.294 467.454 243.527 466.794H243.506C241.694 466.117 240.045 465.082 238.644 463.744C237.243 462.406 236.128 460.806 235.368 459.026C234.608 457.248 234.212 455.319 234.214 453.381V329.737C234.196 313.587 227.77 298.095 216.35 286.675C204.931 275.255 189.438 268.83 173.288 268.812H82.4258C106.502 240.541 131.754 213.298 159.216 188.292C180.376 203.74 202.396 210.585 223.397 210.585C249.91 210.585 274.703 202.105 295.984 195.112L296.006 195.091C315.227 188.691 332.867 183.079 346.959 183.079L346.958 183.079ZM580.606 209.637L574.898 215.345C571.904 218.351 568.767 221.192 565.462 223.854H565.441V223.875C563.461 225.479 561.337 227.065 559.136 228.635L548.463 236.258L560.166 242.151C572.585 248.414 584.379 259.212 587.198 277.878L588.229 284.615H595.028H646.64L636.133 271.717C625.484 258.619 608.216 238.227 586.21 215.427L580.606 209.637ZM390.659 221.588C393.524 240.845 399.114 258.068 411.386 267.987C418.576 273.801 428.018 276.422 438.171 277.918C421.395 283.121 411.149 289.372 403.639 295.02C384.467 281.072 362.062 272.985 338.511 270.666C340.132 260.418 343.202 249.727 350.276 240.914C357.957 231.344 370.936 224.326 390.659 221.588V221.588ZM579.885 232.137C593.572 246.631 603.535 258.223 612.418 268.791H599.87C595.54 253.539 586.877 242.714 576.423 235.227C577.617 234.244 578.726 233.161 579.885 232.137ZM543.21 255.893C546.565 256.782 551.395 258.191 556.211 261.435C558.568 263.023 559.526 266.532 561.444 268.791H510.141C521.485 265.134 532.749 261.094 543.21 255.893V255.893ZM19.7078 287.396L24.6733 298.522L152.685 584.895H476.762L476.741 576.983C476.497 451.255 452.497 362.957 404.051 318.446L403.722 318.137L403.351 317.869C403.204 317.762 403.076 317.649 402.959 317.519L402.671 317.189L402.341 316.901C380.703 297.538 352.564 287.057 323.532 287.52C312.356 287.538 301.621 291.979 293.718 299.882C285.799 307.801 281.356 318.538 281.356 329.737V452.536V452.598C281.462 461.184 278.249 469.458 272.393 475.736C266.541 482.011 258.52 485.79 249.956 486.285C245.514 486.49 241.077 485.799 236.913 484.246C232.736 482.688 228.931 480.296 225.705 477.22C222.478 474.144 219.899 470.439 218.143 466.341C216.387 462.243 215.487 457.839 215.485 453.381V329.634C215.485 318.435 211.042 307.678 203.123 299.759C195.204 291.84 184.447 287.396 173.247 287.396H19.7078ZM44.1233 303.22H173.247C180.256 303.22 186.959 305.991 191.915 310.946C196.87 315.902 199.662 322.625 199.662 329.634V453.381C199.664 459.98 200.998 466.518 203.597 472.583C206.196 478.648 210.007 484.121 214.785 488.675C219.561 493.23 225.207 496.754 231.391 499.059C237.575 501.366 244.168 502.4 250.759 502.088H250.8H250.841C263.475 501.364 275.341 495.787 283.972 486.532C292.605 477.278 297.336 465.045 297.179 452.392V329.737C297.179 322.73 299.971 316.026 304.926 311.07C309.882 306.114 316.585 303.323 323.593 303.323H323.656H323.718C348.795 302.909 373.104 311.963 391.793 328.686L391.195 328.089C392.062 329.054 393.015 329.927 394.059 330.685L393.359 330.108C434.906 368.281 459.139 450.068 460.486 569.071H162.946L44.1233 303.22ZM504.351 303.22H584.438C585.112 303.303 585.777 303.42 586.457 303.426H586.539H586.602C587.283 303.42 587.946 303.303 588.621 303.22H648.022L529.158 569.009H495.244C494.288 476.841 480.53 403.766 452.8 352.216L452.779 352.195C446.489 340.251 437.998 329.724 429.27 319.455C440.316 312.573 460.95 303.219 504.35 303.219L504.351 303.22ZM406.462 587.656L536.967 659.419L540.49 651.589L569.212 587.656H406.462ZM124.684 587.718L141.991 626.226L470.622 806.901L502.579 735.777L233.349 587.718H151.737L124.684 587.718ZM239.221 587.718L503.753 733.202L507.256 725.372L535.751 662.057L400.528 587.718H239.221ZM468.068 603.48H544.776L529.57 637.291L468.068 603.48ZM149.141 603.542H151.737H229.29L482.161 742.617L463.226 784.772L154.251 614.915L149.141 603.542ZM300.806 603.542H396.469L515.312 668.897L496.357 711.073L300.806 603.542ZM143.99 630.513L197.169 748.758L200.177 750.097L437.45 880.602L440.974 872.772L469.448 809.477L143.99 630.513ZM177.822 667.167L449.03 816.297L430.074 858.473L207.223 735.922L209.119 736.766L177.822 667.167ZM198.982 752.549L251.954 870.382L404.402 954.219L407.925 946.39L436.379 883.095L198.982 752.549ZM232.813 789.203L415.96 889.935L397.005 932.07L264.213 859.071L232.813 789.203ZM253.788 874.75L287.022 948.656L287.145 948.903C298.214 969.649 322.766 981.755 349.493 981.354H349.514H349.555C367.519 981.131 383.693 975.146 395.254 964.336L403.228 956.877L253.788 874.75ZM287.64 911.404L374.217 958.999C367.085 962.702 359.044 965.41 349.369 965.531H349.328H349.266C327.544 965.856 308.732 955.677 301.135 941.465C301.131 941.457 301.119 941.453 301.114 941.444L287.64 911.404ZM682.321 280.982C681.476 279.673 680.315 278.597 678.947 277.852C677.578 277.108 676.044 276.719 674.486 276.721H653.83C634.61 252.213 614.086 228.757 592.346 206.454C599.054 196.576 602.693 184.936 602.805 172.996C602.805 156.096 595.375 140.69 585.219 127.403C585.663 127.403 586.066 127.403 586.531 127.403H586.673C604.36 127.403 621.403 116.802 637.293 95.9444C638.068 94.9211 638.625 93.7501 638.931 92.5043C639.237 91.2574 639.283 89.9609 639.07 88.696C638.858 87.4376 638.391 86.2365 637.697 85.1666C637.002 84.0968 636.094 83.1811 635.031 82.4766C633.84 81.6891 609.852 66.3232 586.026 66.8886L603.492 45.2834C604.965 43.3531 605.627 40.9246 605.338 38.5137C605.049 36.1028 603.832 33.8996 601.945 32.3722C600.056 30.8448 597.648 30.1136 595.23 30.3339C592.812 30.5541 590.575 31.7086 588.994 33.552L571.508 55.1571C567.167 31.755 547.056 11.5227 546.047 10.594C545.134 9.69646 544.047 8.99557 542.852 8.53447C541.658 8.07326 540.383 7.86175 539.103 7.91281C537.825 7.96387 536.569 8.27654 535.416 8.83143C534.262 9.38631 533.235 10.1717 532.397 11.1392C515.254 31.1088 508.47 50.0284 512.205 67.3731L512.508 68.6048C497.365 61.4772 480.807 57.4388 464.29 60.9522C451.287 63.7185 439.757 71.048 429.822 82.4362C401.413 68.8673 373.872 60.6493 348.026 57.9638C347.757 57.9436 347.487 57.9436 347.218 57.9638C346.862 57.9335 346.504 57.9335 346.149 57.9638C281.414 64.6876 209.692 104.304 132.964 175.702C99.4841 206.898 68.4833 240.652 40.2432 276.661H17.5277C15.9696 276.659 14.4368 277.048 13.0675 277.791C11.6993 278.534 10.5378 279.608 9.69071 280.915C8.84362 282.221 8.33726 283.72 8.21805 285.273C8.09779 286.826 8.3689 288.384 9.00607 289.805L137.386 576.972H122.565C121.008 576.969 119.474 577.357 118.104 578.1C116.735 578.844 115.575 579.918 114.729 581.226C113.883 582.534 113.378 584.034 113.262 585.587C113.146 587.141 113.423 588.698 114.064 590.118L277.354 953.084C277.354 953.246 277.516 953.427 277.597 953.589C289.914 977.072 317.658 992.094 348.491 992.094H349.722C376.254 991.751 398.808 980.485 411.852 961.504C412.118 961.155 412.354 960.782 412.559 960.394C414.049 958.151 415.398 955.818 416.597 953.407C416.653 953.31 416.699 953.209 416.738 953.105L579.847 590.097C580.484 588.675 580.756 587.117 580.636 585.564C580.517 584.012 580.01 582.514 579.163 581.207C578.316 579.9 577.155 578.826 575.786 578.083C574.418 577.339 572.884 576.951 571.327 576.952H554.627L683.008 289.866C683.643 288.445 683.913 286.888 683.793 285.337C683.673 283.785 683.167 282.288 682.321 280.982V280.982ZM403.513 303.899C382.341 287.106 356.301 277.614 329.288 276.842C331.428 250.714 344.21 215.54 396.688 212.128C398.708 234.177 405.088 252.733 416.354 261.839C424.795 268.665 437.859 271.673 453.165 271.673C480.585 271.673 515.194 262.002 543.24 247.443C550.751 249.179 571.165 255.762 576.032 276.701H504.229C444.563 276.701 415.507 293.763 403.513 303.879V303.899ZM595.032 276.701C591.781 255.177 577.747 242.153 563.735 235.086C566.056 233.43 568.298 231.734 570.417 230.018C573.946 227.175 577.317 224.142 580.514 220.932C602.321 243.526 619.464 263.738 630.003 276.701H595.032ZM615.506 92.9558C605.733 103.415 596.101 108.706 586.773 108.726C577.344 108.726 569.792 103.214 565.652 99.357C566.848 96.4971 568.617 93.9115 570.849 91.7627C573.082 89.6128 575.732 87.9439 578.636 86.8582C589.863 82.9612 605.107 88.0093 615.547 92.9157L615.506 92.9558ZM539.848 31.8155C546.874 40.9825 554.991 54.8341 553.518 66.626C553.064 69.6925 551.987 72.6332 550.351 75.2659C548.715 77.8987 546.556 80.1674 544.008 81.9314C539.383 78.7007 532.377 72.4413 530.438 63.1934C528.5 53.9456 531.771 43.5469 539.848 31.8155V31.8155ZM468.187 79.1248C470.922 78.55 473.711 78.2657 476.506 78.2767C502.331 78.2767 530.277 100.892 540.11 108.847C551.013 117.61 584.27 144.505 584.27 172.976C584.27 187.494 575.688 201.809 558.747 215.54C522.261 245.121 447.793 263.233 428.147 247.322C408.501 231.411 410.62 154.823 431.883 112.966C441.776 93.5212 454.093 82.1333 468.228 79.1248H468.187ZM415.265 104.506C406.36 121.992 400.242 144.768 397.496 167.766C385.744 162.759 367.208 156.58 347.017 156.58C327.936 156.58 308.369 163.082 287.673 169.988C249.309 182.708 209.935 195.853 172.055 165.95C223.262 122.759 285.432 83.2842 346.976 76.6209C369.651 79.1248 393.82 86.2524 418.919 97.8422C417.668 99.9826 416.436 102.184 415.265 104.506ZM157.699 178.448C179.404 196.62 201.717 202.678 223.403 202.678C248.198 202.678 272.185 194.601 293.508 187.594C312.731 181.194 330.883 175.157 346.956 175.157C367.773 175.157 387.239 183.233 395.982 187.494C395.982 189.513 395.881 191.431 395.861 193.39C324.26 197.731 312.206 252.673 310.509 278.296C299.123 281.242 289.035 287.884 281.828 297.18C274.622 306.477 270.705 317.902 270.692 329.664V452.531C270.75 458.335 268.602 463.946 264.681 468.227C260.76 472.508 255.358 475.139 249.571 475.59C246.567 475.732 243.566 475.262 240.749 474.21C237.931 473.158 235.357 471.544 233.182 469.468C231.008 467.391 229.277 464.894 228.095 462.128C226.914 459.363 226.307 456.386 226.31 453.378V329.744C226.294 315.686 220.702 302.21 210.762 292.269C200.821 282.329 187.345 276.737 173.287 276.721H63.9682C92.6535 241.616 123.989 208.761 157.699 178.448V178.448ZM31.9041 295.298H173.246C182.35 295.298 191.081 298.914 197.518 305.351C203.956 311.789 207.572 320.52 207.572 329.624V453.378C207.574 458.907 208.698 464.379 210.876 469.46C213.053 474.542 216.239 479.13 220.241 482.944C224.243 486.76 228.977 489.723 234.158 491.655C239.337 493.587 244.856 494.448 250.379 494.187C260.982 493.579 270.943 488.906 278.187 481.138C285.431 473.372 289.4 463.11 289.268 452.49V329.744C289.268 320.641 292.885 311.91 299.322 305.473C305.759 299.036 314.49 295.418 323.594 295.418C350.66 294.971 376.899 304.748 397.072 322.799C397.563 323.346 398.112 323.84 398.708 324.272C444.199 366.069 468.591 452.289 468.833 576.992H157.82L31.9041 295.298ZM500.049 722.131L270.025 595.629H398.505L525.532 665.473L500.049 722.131ZM151.742 595.629H231.318L492.377 739.193L466.915 795.831L148.127 620.567L136.921 595.629H151.742ZM433.761 869.531L203.695 743.01L203.151 742.767L160.909 648.835L459.242 812.893L433.761 869.531ZM349.379 973.438C325.148 973.801 303.463 962.655 294.134 945.169L270.712 893.075L389.843 958.556C379.909 967.845 365.734 973.235 349.46 973.438H349.379ZM400.706 943.15L258.092 864.725L215.891 770.874L426.168 886.512L400.706 943.15ZM533.265 648.35L437.273 595.569H556.99L533.265 648.35ZM534.275 576.912H487.652C487.47 481.527 473.397 407.16 445.795 355.894C438.232 341.528 428.719 328.278 417.526 316.519C427.622 308.765 452.72 295.318 504.35 295.318H584.632C585.257 295.447 585.893 295.514 586.531 295.52C587.176 295.514 587.818 295.447 588.449 295.318H660.231L534.275 576.912Z" fill="black"/>
</svg>
