<?xml version="1.0" encoding="UTF-8" standalone="no"?>
<svg
   width="1000"
   height="1000"
   viewBox="0 0 1000 1000"
   fill="none"
   version="1.1"
   id="svg148"
   sodipodi:docname="specialitesSucrees.svg"
   inkscape:version="1.2.1 (9c6d41e, 2022-07-14)"
   xmlns:inkscape="http://www.inkscape.org/namespaces/inkscape"
   xmlns:sodipodi="http://sodipodi.sourceforge.net/DTD/sodipodi-0.dtd"
   xmlns="http://www.w3.org/2000/svg"
   xmlns:svg="http://www.w3.org/2000/svg">
  <sodipodi:namedview
     id="namedview6480"
     pagecolor="#ffffff"
     bordercolor="#111111"
     borderopacity="1"
     inkscape:showpageshadow="0"
     inkscape:pageopacity="0"
     inkscape:pagecheckerboard="1"
     inkscape:deskcolor="#d1d1d1"
     showgrid="false"
     inkscape:zoom="2.4895698"
     inkscape:cx="32.73658"
     inkscape:cy="47.397747"
     inkscape:window-width="1309"
     inkscape:window-height="456"
     inkscape:window-x="307"
     inkscape:window-y="1368"
     inkscape:window-maximized="0"
     inkscape:current-layer="svg148" />
  <defs
     id="defs152" />
  <g
     id="g2032"
     transform="matrix(10.549157,0,0,10.549157,154.27805,-0.00650884)">
    <g
       id="path132" />
    <g
       id="path134" />
    <g
       id="path136" />
    <g
       id="path138" />
    <path
       id="path146"
       style="color:#000000;fill:#000000;stroke-miterlimit:10;-inkscape-stroke:none"
       d="m 46.652344,18.253906 c -0.271206,0.006 -0.535145,0.08847 -0.757813,0.19336 -0.445335,0.209776 -0.849811,0.548706 -1.207031,0.990234 v 0.002 c -0.357506,0.442016 -0.606799,0.909198 -0.71875,1.388672 -0.111485,0.477477 -0.101789,1.09639 0.394531,1.503906 l -0.0039,0.0059 c 0.502697,0.407581 1.112817,0.285178 1.558594,0.07617 0.445776,-0.209006 0.853417,-0.548615 1.214843,-0.988281 0.36476,-0.44378 0.616048,-0.916226 0.726563,-1.398437 0.110515,-0.482212 0.0947,-1.101861 -0.40625,-1.50586 -0.251169,-0.202557 -0.529575,-0.273593 -0.800781,-0.267578 z m -0.484375,1.863281 c -0.06825,0.126059 -0.08548,0.224223 -0.19336,0.355469 -0.106749,0.129858 -0.199249,0.166813 -0.308593,0.259766 0.06767,-0.12416 0.08371,-0.221279 0.1875,-0.34961 0.107895,-0.133359 0.203602,-0.171591 0.314453,-0.265625 z m -1.336334,1.638209 c 0.3541,0.2871 1.1217,-0.0747 1.7227,-0.8058 0.601,-0.7312 0.7847,-1.5581 0.4287,-1.8452 -0.356,-0.2871 -1.1216,0.0747 -1.7131,0.8058 -0.5914,0.7312 -0.7847,1.5581 -0.4306,1.8452 m 7.316915,-6.386255 c -0.271211,0.006 -0.535141,0.08846 -0.757813,0.193359 -0.445342,0.209798 -0.849812,0.550601 -1.207031,0.992187 -0.357524,0.441979 -0.606796,0.909202 -0.71875,1.388672 -0.111488,0.477473 -0.101789,1.096391 0.394531,1.503907 l -0.0039,0.0059 c 0.502036,0.407044 1.112365,0.285032 1.558594,0.07617 0.446229,-0.20886 0.855185,-0.547187 1.216797,-0.988281 0.364188,-0.444237 0.614067,-0.916467 0.724609,-1.398438 0.110543,-0.481971 0.09392,-1.102347 -0.40625,-1.505859 -0.251168,-0.202558 -0.52957,-0.273596 -0.800781,-0.267578 z m -0.484375,1.863281 c -0.06836,0.126346 -0.08518,0.225468 -0.193359,0.357422 -0.107969,0.131699 -0.202108,0.168189 -0.3125,0.261718 0.06806,-0.125569 0.08624,-0.223501 0.191406,-0.353515 0.107896,-0.133379 0.203603,-0.171582 0.314453,-0.265625 z m -1.33634,1.638174 c 0.3541,0.2871 1.1217,-0.0727 1.7227,-0.8058 0.601,-0.7331 0.7847,-1.558 0.4287,-1.8452 -0.356,-0.2871 -1.1216,0.0747 -1.7131,0.8059 -0.5914,0.7311 -0.7847,1.558 -0.4306,1.8451 m -7.204563,-3.46044 c -0.271249,0.0057 -0.536494,0.08893 -0.759766,0.19336 -0.446543,0.208864 -0.853789,0.548423 -1.214844,0.990234 -0.362743,0.443878 -0.611604,0.91348 -0.722656,1.394531 -0.111052,0.481052 -0.09931,1.102518 0.400391,1.507813 0.50267,0.407559 1.112828,0.283246 1.558594,0.07422 0.445765,-0.209027 0.85339,-0.546642 1.214843,-0.986328 0.364779,-0.443743 0.615806,-0.916683 0.726563,-1.398437 0.110756,-0.481754 0.0976,-1.10051 -0.402344,-1.505859 -0.251259,-0.203718 -0.529532,-0.275238 -0.800781,-0.269532 z m -0.484375,1.855469 c -0.06894,0.128637 -0.08683,0.230889 -0.197266,0.365234 -0.113401,0.137946 -0.212665,0.179341 -0.328125,0.275391 0.06887,-0.128238 0.08573,-0.229186 0.195313,-0.363281 0.113555,-0.138954 0.214248,-0.18114 0.330078,-0.277344 z m -1.340562,1.647271 c 0.3541,0.2871 1.1216,-0.0747 1.7227,-0.8059 0.601,-0.7311 0.7847,-1.558 0.4306,-1.8451 -0.3541,-0.2871 -1.1235,0.0727 -1.7226,0.8058 -0.5991,0.7331 -0.7848,1.558 -0.4307,1.8452 z m 3.494859,-9.491021 c -0.27125,0.00571 -0.536494,0.088927 -0.759766,0.1933594 -0.446543,0.2088647 -0.853789,0.5484236 -1.214844,0.9902346 -0.362743,0.443878 -0.611603,0.915445 -0.722656,1.396484 -0.111053,0.481039 -0.09943,1.100612 0.400391,1.50586 0.502634,0.407671 1.112787,0.285192 1.558593,0.07617 0.445807,-0.20902 0.853419,-0.548557 1.214844,-0.988281 0.364779,-0.443743 0.613853,-0.91473 0.72461,-1.396484 0.110756,-0.481754 0.09955,-1.102464 -0.400391,-1.5078127 C 45.358116,9.487688 45.079843,9.4161687 44.808594,9.421875 Z m -0.484375,1.855469 c -0.06899,0.128847 -0.08661,0.230629 -0.197266,0.365234 -0.113367,0.137928 -0.212682,0.179352 -0.328125,0.275391 0.06882,-0.128029 0.08594,-0.229445 0.195313,-0.363281 0.113713,-0.139148 0.214104,-0.181072 0.330078,-0.277344 z m -1.340584,1.648152 c 0.3541,0.2872 1.1217,-0.0746 1.7227,-0.8058 0.601,-0.7311 0.7847,-1.558 0.4306,-1.8451 -0.3541,-0.2871005 -1.1235,0.0727 -1.7226,0.8058 -0.5991,0.7331 -0.7848,1.558 -0.4307,1.8451 z m 6.662849,-1.966512 c -0.27133,0.006 -0.536708,0.08886 -0.759765,0.19336 -0.446114,0.209004 -0.853963,0.547827 -1.214844,0.988281 -0.363303,0.443411 -0.611628,0.915196 -0.722656,1.396484 -0.111028,0.481289 -0.09994,1.100056 0.40039,1.50586 v 0.002 h 0.002 c 0.502243,0.405038 1.112116,0.283232 1.558594,0.07422 0.446479,-0.209013 0.854033,-0.548721 1.214844,-0.990235 0.362756,-0.443894 0.611636,-0.913479 0.722656,-1.394531 0.111021,-0.481052 0.0994,-1.102587 -0.40039,-1.507812 -0.251574,-0.203973 -0.529451,-0.273559 -0.800782,-0.267579 z m -0.486328,1.857422 c -0.0689,0.12836 -0.08755,0.229032 -0.197265,0.363282 -0.113465,0.138843 -0.212567,0.181211 -0.328125,0.277343 0.06901,-0.12889 0.08703,-0.230687 0.197265,-0.365234 0.112913,-0.137809 0.212787,-0.179436 0.328125,-0.275391 z m -1.338621,1.64459 c 0.356,0.2871 1.1236,-0.0728 1.7227,-0.8059 0.5991,-0.7331 0.7847,-1.558 0.4306,-1.8451 -0.3541,-0.2871 -1.1235,0.0746 -1.7226,0.8058 -0.5991,0.7312 -0.7848,1.558 -0.4307,1.8452 z M 51.046875,0.00195313 C 50.823248,0.01088346 50.604113,0.06500911 50.402344,0.16210937 50.20054,0.25913769 50.021594,0.39708508 49.875,0.56640625 h -0.002 v 0.001953 C 48.461514,2.2125937 47.876859,3.875849 47.878906,5.4980469 46.601478,5.0355173 45.244948,4.743956 43.830078,5.0449219 42.597252,5.3072 41.518933,6.0107084 40.574219,6.9570312 37.982486,5.7707699 35.448855,4.9999863 33.042969,4.75 l -0.01172,-0.00195 h -0.0098 c -0.02337,-0.00176 -0.04689,4.535e-4 -0.07031,0 -0.07592,-0.00645 -0.152443,-0.00648 -0.228516,0 h -0.0059 L 32.708984,4.75 C 26.328011,5.4127727 19.409147,9.274697 12.066406,16.107422 8.9562263,19.005435 6.0815056,22.14352 3.4433594,25.476562 h -1.8066407 -0.00195 c -0.2726167,-4.7e-5 -0.5404137,0.0677 -0.77929685,0.197266 h -0.001953 c -0.2393926,0.130123 -0.4413511,0.319704 -0.58984697,0.548828 -0.14767628,0.228249 -0.23866568,0.490923 -0.25976563,0.761719 -0.02108255,0.272224 0.02702244,0.545929 0.13867187,0.794922 L 11.839844,53.943359 h -0.246094 -0.002 c -0.272599,-2.32e-4 -0.540011,0.06944 -0.779297,0.199219 h -0.002 c -0.239725,0.130205 -0.443418,0.317461 -0.591797,0.546875 -0.148399,0.229446 -0.235502,0.493207 -0.2558594,0.765625 -0.020357,0.272599 0.028423,0.546528 0.1406254,0.794922 l 15.478515,34.40625 -0.06641,-0.308594 c 0,0.252704 0.08065,0.349256 0.109375,0.396485 1.321665,2.519834 4.216414,4.050781 7.382812,4.050781 h 0.123047 0.0039 c 2.718764,-0.03513 5.10489,-1.205272 6.492187,-3.21875 0.0375,-0.05127 0.07145,-0.103891 0.101563,-0.158203 0.141105,-0.215221 0.27069,-0.436568 0.386718,-0.666016 l 0.0039,-0.0098 c 0.02554,-0.04564 0.04535,-0.09021 0.06055,-0.130859 L 40.162109,90.65625 55.625,56.246094 c 0.11153,-0.248913 0.157592,-0.523017 0.136719,-0.794922 -0.02092,-0.272447 -0.109614,-0.535007 -0.257813,-0.763672 -0.148341,-0.228885 -0.351743,-0.416677 -0.591797,-0.546875 -0.240121,-0.130521 -0.508655,-0.19745 -0.78125,-0.197266 H 53.705078 L 65.404297,27.785156 c 0.111157,-0.24872 0.157579,-0.521417 0.136719,-0.792969 v -0.002 c -0.02106,-0.27175 -0.109671,-0.53304 -0.257813,-0.761718 -0.148217,-0.229636 -0.350118,-0.418338 -0.589844,-0.548829 h -0.002 c -0.239774,-0.130231 -0.507968,-0.197635 -0.78125,-0.197265 h -1.61914 c -1.66091,-2.097957 -3.425746,-4.111135 -5.28125,-6.039063 0.513711,-0.936187 0.845314,-1.963073 0.855468,-3.037109 v -0.0039 -0.002 c 0,-1.447959 -0.568007,-2.718208 -1.289062,-3.871094 1.58777,-0.335397 3.094161,-1.256241 4.40625,-2.9785157 v -0.00195 C 61.11779,9.3700317 61.216162,9.1662846 61.269484,8.949134 v -0.00195 c 0.05353,-0.217912 0.0606,-0.4436922 0.02349,-0.6639809 C 61.255861,8.062974 61.174376,7.853506 61.052734,7.6660156 60.930934,7.4785831 60.772413,7.3169179 60.585937,7.1933594 h -0.002 c -0.1872,-0.1237779 -1.801522,-0.9586717 -3.71875,-1.3164063 l 0.90625,-1.1210937 0.0059,-0.00781 C 58.035153,4.4101249 58.152172,3.9846283 58.101562,3.5625 58.050963,3.1404564 57.83631,2.7537731 57.505859,2.4863281 57.175418,2.2190396 56.753427,2.0903394 56.330078,2.1289063 55.906709,2.167475 55.515048,2.3705145 55.238281,2.6933594 l -0.0078,0.00781 -0.914063,1.1289062 C 54.025476,3.1473811 53.7874,2.3842111 53.4375,1.8867187 53.148975,1.4764902 52.873309,1.1399375 52.660156,0.89648438 52.455715,0.66298065 52.36559,0.56731039 52.261719,0.47070313 l -0.002,-0.001953 C 52.100426,0.31254741 51.910968,0.18962943 51.703125,0.109375 51.494394,0.02875892 51.270461,-0.00696822 51.046875,0.00195313 Z M 51.107422,1.5 c 0.01901,-7.587e-4 0.03702,0.00294 0.05469,0.00977 0.01771,0.00684 0.03362,0.016258 0.04687,0.029297 l 0.0098,0.00977 0.0098,0.00781 c -0.06151,-0.056584 0.118662,0.1178864 0.302734,0.328125 0.184072,0.2102387 0.428213,0.507685 0.679687,0.8652344 0.502949,0.7150988 1.026234,1.6721423 1.201172,2.6152344 l 0.296875,1.5996093 2.667969,-3.2949218 c 0.02283,-0.026635 0.05481,-0.043684 0.08984,-0.046875 0.03505,-0.00319 0.06815,0.00701 0.0957,0.029297 0.02735,0.022135 0.04463,0.052855 0.04883,0.087891 0.0042,0.034951 -0.006,0.069619 -0.02734,0.097656 l -2.660156,3.2910156 1.619141,-0.037109 c 1.924478,-0.045671 4.22253,1.3585979 4.214843,1.3535156 0.01416,0.00981 0.02761,0.022491 0.03711,0.037109 0.01,0.015349 0.01644,0.032431 0.01953,0.050781 0.0033,0.019511 0.0026,0.038234 -0.002,0.056641 -0.0047,0.019049 -0.01381,0.037446 -0.02539,0.052734 -1.423192,1.8671545 -2.824785,2.6855465 -4.201172,2.6855465 h -0.01172 -1.642578 l 0.921875,1.205078 c 0.899188,1.176407 1.510579,2.482446 1.511718,3.863281 -0.01004,0.982725 -0.309167,1.940817 -0.861328,2.753907 l -0.34375,0.505859 0.427735,0.439453 c 2.042028,2.094942 3.970094,4.297582 5.77539,6.599609 l 0.22461,0.28711 h 2.324218 c 0.02149,-2.9e-5 0.04312,0.0055 0.0625,0.01563 0.01967,0.01071 0.03685,0.02636 0.04883,0.04492 0.01226,0.01892 0.01975,0.042 0.02148,0.06445 0.0014,0.022 -0.0027,0.04436 -0.01172,0.06445 L 51.392578,55.443359 h 2.740234 c 0.02261,-1.5e-5 0.04518,0.0051 0.06445,0.01563 0.01955,0.0106 0.03657,0.02601 0.04883,0.04492 0.0124,0.01913 0.0198,0.04055 0.02148,0.0625 0.0017,0.02249 -0.0024,0.04377 -0.01172,0.06445 l -15.453125,34.392578 -0.0098,0.02148 -0.0039,0.0078 C 38.6902,90.250612 38.579368,90.440932 38.457031,90.625 l -0.02148,0.03125 -0.01758,0.03516 -0.01172,0.01367 -0.0098,0.01563 c -1.086404,1.580887 -2.972925,2.544391 -5.28125,2.574219 h -0.107422 c -2.679195,0 -5.041154,-1.315685 -6.054687,-3.248047 L 11.470703,55.632812 v -0.002 c -0.0094,-0.02081 -0.01336,-0.04245 -0.01172,-0.06445 0.0016,-0.02198 0.0075,-0.04395 0.01953,-0.0625 0.01202,-0.01859 0.02895,-0.03217 0.04883,-0.04297 0.01975,-0.01071 0.04056,-0.01762 0.0625,-0.01758 h 0.002 2.5625 L 1.5117187,27.166016 C 1.5025683,27.145609 1.4982826,27.123738 1.5,27.101562 v -0.002 c 0.00171,-0.02232 0.00951,-0.04405 0.021484,-0.0625 0.012104,-0.01868 0.028818,-0.03405 0.048828,-0.04492 0.020154,-0.01093 0.042334,-0.01565 0.064453,-0.01563 H 4.1542969 L 4.3789062,26.689453 C 7.0318757,23.306694 9.9446179,20.135746 13.089844,17.205078 20.288875,10.506358 26.962605,6.8595534 32.851562,6.2441406 l 0.0332,0.00391 0.02148,-0.00195 c 1.874242,0.1968278 3.88538,0.8033196 5.949219,1.6445313 l -0.455078,0.095703 C 36.530043,7.258078 34.694272,6.7104843 32.947266,6.5175781 l -0.08203,-0.00781 -0.08008,0.00781 C 26.689751,7.1775202 20.71141,11.016324 15.800781,15.158203 L 15.097656,15.75 l 0.720703,0.570312 c 1.936545,1.528775 3.999417,1.983133 5.972657,1.867188 1.973239,-0.115945 3.869655,-0.758596 5.6875,-1.361328 h 0.002 c 1.961361,-0.654421 3.750262,-1.232422 5.388672,-1.232422 1.760994,0 3.43321,0.549579 4.490234,1 l 0.919922,0.392578 0.11914,-0.99414 c 0.251662,-2.107751 0.819781,-4.197412 1.607422,-5.744141 l 0.002,-0.002 v -0.002 c 0.101582,-0.201424 0.21043,-0.3951745 0.324219,-0.5898441 L 40.75,8.9414063 40,8.59375 C 39.694941,8.4528831 39.402299,8.3794814 39.099609,8.2519531 h 0.679688 c 0.208296,0.093685 0.405643,0.1401318 0.615234,0.2402344 l 0.513672,0.2460938 0.375,-0.4296875 c 0.02044,-0.023436 0.04391,-0.033653 0.06445,-0.056641 h 0.429688 c -0.564747,0.5804998 -1.092091,1.2539946 -1.53125,2.1171882 h -0.002 c -1.086898,2.139606 -1.638922,5.014701 -1.710938,7.609375 -0.03601,1.297337 0.05095,2.521305 0.28125,3.560546 0.230302,1.039242 0.574013,1.921877 1.273438,2.488282 0.334609,0.271004 0.729307,0.437807 1.160156,0.548828 -0.432478,-0.128537 -1.073336,-0.127117 -1.333985,-0.337891 h -0.002 c -0.788259,-0.637102 -1.405992,-2.21187 -1.58789,-4.197265 l -0.06641,-0.728516 -0.728515,0.04883 c -2.649872,0.172322 -4.440731,1.192668 -5.521485,2.539063 -1.080753,1.346395 -1.457273,2.949072 -1.566406,4.28125 l -0.06445,0.789062 0.789063,0.02344 c 2.39896,0.06848 4.711565,0.910993 6.591796,2.402343 l 0.740235,0.585938 0.511719,0.539062 c 1.013346,1.064635 1.873915,2.26386 2.558593,3.564453 l 0.002,0.0039 0.002,0.0039 c 2.523428,4.686933 3.861845,11.626743 3.878906,20.595703 v 0.75 h 5.654297 l 0.199218,-0.445312 12.41211,-27.75 h -8.03711 l -0.07422,0.01563 c -0.01,0.002 -0.02099,0.0034 -0.03125,0.0039 -0.0098,-3.96e-4 -0.01979,-0.0019 -0.0293,-0.0039 l -0.07422,-0.01563 h -7.6875 c -5.02442,0 -7.586483,1.320406 -8.6875,2.166015 l -0.121094,0.09375 v -0.265625 c 1.093839,-0.86179 3.543496,-2.257812 8.796875,-2.257812 h 7.75 l -0.21289,-0.919922 c -0.279076,-1.200816 -1.028522,-2.021015 -1.771485,-2.521485 -0.742963,-0.500469 -1.485081,-0.71694 -1.898437,-0.8125 l -0.269531,-0.0625 -0.244141,0.126954 c -2.555218,1.326433 -5.770417,2.21289 -8.193359,2.21289 -0.696889,0 -1.033457,-0.255054 -1.554688,-0.394531 0.435608,0.09759 0.905213,0.142698 1.410156,0.146484 1.06443,0.008 2.279773,-0.16384 3.541016,-0.470703 2.522486,-0.613726 5.218912,-1.757446 7.083984,-3.269531 1.707742,-1.384144 2.697266,-2.945429 2.697266,-4.617188 0,-1.641465 -0.910312,-3.080816 -1.884766,-4.226562 -0.973695,-1.144855 -2.06098,-2.01835 -2.580078,-2.4355472 l -0.002,-0.00195 C 51.054395,9.2584373 49.735325,8.2061435 48.144531,7.4628906 l 0.47461,-0.1015625 1.041015,0.4902344 -0.166015,-0.6757813 0.480468,-0.1035156 c 0.356822,0.5917316 0.788734,1.0660931 1.138672,1.3105469 l 0.427735,0.2988281 0.427734,-0.296875 C 52.294855,8.1590567 52.572027,7.8679082 52.78125,7.53125 52.99062,7.1943539 53.127555,6.8178073 53.185547,6.4257812 l 0.002,-0.00781 v -0.00781 C 53.378191,4.8843416 52.462362,3.4976645 51.744141,2.5605469 L 51.115234,1.7421875 50.53125,2.5917969 c -0.829478,1.2046982 -1.25135,2.3998624 -1.009766,3.5527343 0.05226,0.2492755 0.200004,0.398833 0.296875,0.6074219 H 49.388672 L 49.261719,6.2285156 C 48.970735,4.8774011 49.47511,3.3354006 51.009766,1.546875 l 0.002,-0.00195 c 0.01185,-0.013134 0.02488,-0.023491 0.04102,-0.03125 0.01683,-0.0081 0.03591,-0.012922 0.05469,-0.013672 z m 0.08594,3.0527344 c 0.316489,0.611898 0.556509,1.2260946 0.503907,1.6640625 -0.02101,0.1349272 -0.08005,0.2583332 -0.138672,0.3808593 -0.223113,-0.2434679 -0.497071,-0.4197542 -0.56836,-0.7597656 -0.07423,-0.3542213 0.0145,-0.7949245 0.203125,-1.2851562 z m -5.001953,1.9492187 c 0.252607,0.045778 0.500266,0.175025 0.751953,0.25 h -1.335937 c -0.156774,-0.013312 -0.302686,-0.081974 -0.460938,-0.082031 h -0.002 c -0.26524,-9.368e-4 -0.527914,0.036487 -0.789062,0.082031 -0.05041,0.00879 -0.102223,0.00511 -0.152344,0.015625 -6.36e-4,1.334e-4 -0.0013,-1.336e-4 -0.002,0 l -1.416016,0.296875 c 0.433263,-0.2522688 0.880442,-0.4512589 1.357422,-0.5527344 0.675762,-0.1437455 1.361889,-0.1342558 2.048828,-0.00977 z m 10.56445,0.9492188 C 56.054547,7.2997073 55.304357,7.2732977 54.578125,7.5253906 l -0.0078,0.00391 -0.0078,0.00195 C 54.191242,7.6700437 53.851956,7.8833094 53.566406,8.1582031 53.280889,8.4330608 53.055158,8.7652105 52.902344,9.1308594 L 52.701172,9.6113281 53.082031,9.96875 c 0.464516,0.432791 1.327582,1.087891 2.513672,1.087891 h 0.002 c 1.166746,-0.0025 2.261441,-0.653491 3.269531,-1.7324222 L 58.84375,9.3496094 59.623047,8.5898438 58.642578,8.1289063 C 58.110203,7.8786965 57.457172,7.6026365 56.755859,7.4511719 Z M 32.869141,8.0273438 c 1.804637,0.2088262 3.745982,0.7879924 5.759765,1.6464843 -0.752919,1.5113959 -1.2437,3.3534079 -1.544922,5.2480469 -1.138994,-0.41685 -2.552791,-0.828125 -4.214843,-0.828125 -1.979188,0 -3.900847,0.653815 -5.863282,1.308594 -1.818197,0.602843 -3.603493,1.187264 -5.302734,1.287109 -1.387725,0.08154 -2.712307,-0.279148 -4.050781,-1.070312 4.601318,-3.737953 9.994685,-7.0008609 15.216797,-7.5917972 z m 12.271484,0.1425781 h 0.002 0.002 c 2.010251,0 4.624396,1.9782041 5.556641,2.7324221 h 0.002 c 0.514984,0.41389 1.518711,1.230785 2.378906,2.242187 0.860195,1.011403 1.527344,2.196475 1.527344,3.253906 0,1.080639 -0.638523,2.232119 -2.142578,3.451172 -1.593624,1.292012 -4.156831,2.409843 -6.494141,2.978516 -1.168655,0.284336 -2.282822,0.434415 -3.173828,0.427734 -0.891006,-0.0067 -1.536166,-0.205154 -1.767578,-0.392578 -0.231774,-0.187694 -0.561065,-0.778237 -0.753906,-1.648437 -0.192842,-0.8702 -0.279461,-1.993127 -0.246094,-3.195313 0.06673,-2.404371 0.622081,-5.142513 1.550781,-6.970703 0.877378,-1.7245361 1.883851,-2.5910213 2.933594,-2.814453 0.002,-4.108e-4 0.0039,-0.00155 0.0059,-0.00195 0.203861,-0.041999 0.411051,-0.063325 0.619141,-0.0625 z m 9.9375,0.7734375 c 0.416848,-0.1418692 1.068685,-0.03565 1.732422,0.1445312 -0.443578,0.2886378 -0.85847,0.4676102 -1.214844,0.46875 -0.347699,0 -0.5771,-0.2293183 -0.861328,-0.3964843 0.107861,-0.083412 0.215864,-0.1677869 0.34375,-0.2167969 z M 32.863281,15.855469 c -1.71141,0 -3.480394,0.61005 -5.302734,1.216797 l 0.002,-0.002 c -2.0252,0.665482 -4.224577,1.392579 -6.412109,1.392579 -1.916038,0 -3.819572,-0.508231 -5.746094,-2.121094 l -0.5,-0.417969 -0.482422,0.435547 c -3.224015,2.899142 -6.2213859,6.04095 -8.9648438,9.398437 l -1,1.22461 H 16.400391 c 1.133536,0.0018 2.219858,0.45228 3.021484,1.253906 0.802086,0.802086 1.25263,1.889196 1.253906,3.023438 v 11.716796 0.002 c -1.45e-4,0.385805 0.07873,0.767956 0.230469,1.123046 0.151905,0.355621 0.374898,0.676433 0.654297,0.94336 v 0.002 c 0.279523,0.266781 0.610239,0.474096 0.972656,0.609375 0.362179,0.135376 0.748507,0.194091 1.134766,0.175781 h 0.0098 0.01172 c 0.737862,-0.05743 1.427711,-0.393557 1.927734,-0.939453 0.500045,-0.545919 0.773023,-1.261927 0.765625,-2.001953 V 31.251953 31.25 c 0.0015,-0.948394 0.31737,-1.869477 0.898438,-2.619141 0.581424,-0.750037 1.395676,-1.285699 2.314453,-1.523437 l 0.525391,-0.134766 0.03516,-0.541015 c 0.075,-1.13286 0.390126,-2.91262 1.427734,-4.402344 1.037608,-1.489724 2.755537,-2.752929 5.960938,-2.947266 l 0.697265,-0.04297 0.0059,-0.699218 c 0.0017,-0.164864 0.01172,-0.349928 0.01172,-0.566407 v -0.46875 l -0.419922,-0.205078 c -0.887358,-0.432437 -2.809185,-1.24414 -4.976563,-1.24414 z m 0,1.5 c 1.033203,0 1.991468,0.23902 2.824219,0.515625 -2.548608,0.543437 -4.292982,1.806184 -5.333984,3.300781 -1.147336,1.647262 -1.487923,3.404892 -1.615235,4.697266 -1.030787,0.370769 -1.966998,0.972251 -2.642578,1.84375 -0.784743,1.012434 -1.211397,2.256175 -1.212891,3.537109 v 11.652344 0.0039 c 0.0036,0.360373 -0.127738,0.706976 -0.371093,0.972656 -0.241338,0.263478 -0.573773,0.423149 -0.929688,0.453125 -0.178662,0.0066 -0.355981,-0.01944 -0.523437,-0.08203 h -0.002 c -0.171783,-0.06412 -0.328062,-0.162244 -0.460938,-0.289063 -0.1328,-0.126872 -0.238452,-0.278486 -0.310547,-0.447265 -0.07201,-0.168516 -0.109568,-0.351419 -0.109375,-0.535156 V 31.257812 c -0.0017,-1.530955 -0.610847,-2.999519 -1.693359,-4.082031 -1.082512,-1.082512 -2.551076,-1.691636 -4.082031,-1.693359 H 7.7871094 c 2.2822556,-2.679911 4.6760246,-5.262369 7.2792966,-7.632813 2.005806,1.464363 4.093185,2.113282 6.083985,2.113282 2.513263,0 4.863463,-0.80388 6.880859,-1.466797 l 0.002,-0.002 c 1.822056,-0.606653 3.494291,-1.138672 4.830078,-1.138672 z m 22.148438,2.517578 -0.541016,0.541015 c -0.283813,0.284938 -0.581266,0.55425 -0.894531,0.806641 h -0.002 v 0.002 c -0.187708,0.152016 -0.388985,0.302419 -0.597657,0.451172 l -1.011718,0.722656 1.109375,0.558594 c 1.17726,0.593726 2.295229,1.617286 2.5625,3.386719 l 0.09766,0.638672 h 0.644531 4.892578 l -0.99605,-1.222704 C 59.265913,24.516249 57.62899,22.583175 55.542969,20.421875 Z m -18.00586,1.132812 c 0.271573,1.825504 0.801466,3.458149 1.964844,4.398438 0.68154,0.551126 1.576547,0.799515 2.539063,0.941406 -1.590338,0.49316 -2.561563,1.085768 -3.273438,1.621094 -1.8174,-1.322139 -3.941324,-2.088805 -6.173828,-2.308594 0.153653,-0.97141 0.444674,-1.984933 1.115234,-2.820312 0.728164,-0.907142 1.958495,-1.572426 3.828125,-1.832032 z m 17.9375,1 c 1.297454,1.373949 2.241978,2.472825 3.083985,3.47461 h -1.189453 c -0.410442,-1.445767 -1.231677,-2.471961 -2.222657,-3.181641 0.113166,-0.09319 0.21832,-0.195903 0.328125,-0.292969 z m -3.476562,2.251953 c 0.31808,0.08431 0.775896,0.21787 1.232422,0.525391 0.223465,0.150529 0.314285,0.483172 0.496093,0.697266 h -4.863281 c 1.075373,-0.346653 2.143105,-0.729663 3.134766,-1.222657 z M 1.8417969,27.244141 2.3125,28.298828 14.447266,55.445312 h 30.720703 l -0.002,-0.75 C 45.142827,42.776999 42.867724,34.406892 38.275391,30.1875 l -0.03125,-0.0293 -0.03516,-0.02539 c -0.01397,-0.01014 -0.02607,-0.02091 -0.03711,-0.0332 l -0.02734,-0.03125 -0.03125,-0.02734 c -2.051219,-1.8355 -4.718655,-2.829075 -7.470703,-2.785157 -1.059414,0.0017 -2.077027,0.42273 -2.826172,1.171875 -0.750647,0.750648 -1.171875,1.768489 -1.171875,2.830078 v 11.640625 0.0059 c 0.01011,0.813896 -0.294498,1.598234 -0.849609,2.193359 -0.554742,0.59481 -1.315049,0.953 -2.126953,1 -0.421057,0.01942 -0.841666,-0.0461 -1.236328,-0.193359 -0.395979,-0.147635 -0.756686,-0.374391 -1.0625,-0.666016 -0.305881,-0.29153 -0.550344,-0.642778 -0.716797,-1.03125 C 20.485891,43.818604 20.400552,43.40115 20.400391,42.97856 V 31.248047 c 0,-1.061609 -0.421199,-2.081355 -1.171875,-2.832031 -0.750677,-0.750677 -1.770423,-1.171875 -2.832032,-1.171875 z m 2.3144531,1.5 h 12.240234 c 0.66439,0 1.299809,0.262699 1.769532,0.732421 0.469722,0.469723 0.734375,1.107095 0.734375,1.771485 v 11.730469 c 2.38e-4,0.625608 0.1267,1.245384 0.373046,1.820312 0.246347,0.574927 0.607629,1.093721 1.060547,1.525391 0.452785,0.431774 0.987998,0.76581 1.574219,0.984375 0.586119,0.21869 1.211097,0.316704 1.835938,0.287109 h 0.0039 0.0039 c 1.197608,-0.06863 2.322385,-0.597268 3.140625,-1.474609 0.818288,-0.877273 1.266847,-2.036827 1.251953,-3.236328 V 31.257812 c 0,-0.664208 0.264624,-1.299779 0.734375,-1.769531 0.469781,-0.46978 1.1052,-0.734375 1.769531,-0.734375 h 0.0059 0.0059 c 2.377151,-0.03928 4.681492,0.818981 6.453125,2.404297 l -0.05664,-0.05664 c 0.08216,0.09151 0.172451,0.174229 0.271484,0.246094 l -0.06641,-0.05469 c 3.938468,3.618627 6.235607,11.371526 6.363281,22.652343 H 15.419922 Z m 43.626953,0 H 55.375 c 0.06394,0.0079 0.126901,0.019 0.191406,0.01953 h 0.0078 0.0059 c 0.06458,-5.29e-4 0.127391,-0.01168 0.191406,-0.01953 h 5.63086 L 50.134766,53.939453 H 46.919922 C 46.829317,45.202442 45.5251,38.275347 42.896484,33.388672 l -0.002,-0.002 c -0.59624,-1.132167 -1.401191,-2.130072 -2.228515,-3.103516 1.047093,-0.652429 3.003071,-1.539062 7.117187,-1.539062 z m -9.279297,26.96289 12.371094,6.802735 0.333984,-0.742188 2.722657,-6.060547 z m -26.710937,0.0059 1.640625,3.65039 31.152343,17.126953 3.029297,-6.742187 L 22.09375,55.712891 h -7.736328 z m 10.857422,0 25.076171,13.791015 0.332032,-0.742187 2.701172,-6.001953 -12.81836,-7.046875 z m 21.693359,1.49414 h 7.271484 l -1.441406,3.205078 z m -30.232422,0.0059 h 0.246094 7.351562 L 45.679687,70.396484 43.884766,74.392578 14.595703,58.291016 Z m 14.376953,0 h 9.06836 l 11.265625,6.195312 -1.796875,3.998047 z m -14.865234,2.55664 5.041015,11.208985 0.285157,0.126953 22.492187,12.371093 0.333985,-0.742187 2.699218,-6 z m 3.207031,3.47461 25.708984,14.136718 -1.796875,3.998047 -21.125,-11.617187 0.179688,0.08008 z m 2.005859,8.09375 5.021485,11.169921 14.451172,7.947266 0.333984,-0.742187 2.697266,-6 z m 3.207032,3.474609 17.361328,9.548828 -1.796875,3.994141 -12.587891,-6.919922 z m 1.988281,8.109375 3.150391,7.005859 0.01172,0.02344 c 1.049213,1.966607 3.376631,3.114116 5.910157,3.076172 h 0.002 0.0039 c 1.70286,-0.02119 3.236094,-0.588568 4.332031,-1.613282 l 0.75586,-0.707031 z m 3.208984,3.474609 8.207032,4.511719 c -0.676053,0.351047 -1.438361,0.607727 -2.355469,0.619141 h -0.0039 -0.0059 c -2.0591,0.03084 -3.842315,-0.93406 -4.5625,-2.28125 -4.09e-4,-7.65e-4 -0.0015,-0.0012 -0.002,-0.002 z M 64.653735,26.636096 c -0.0801,-0.1241 -0.1901,-0.2261 -0.3198,-0.2967 -0.1298,-0.0705 -0.2752,-0.1074 -0.4229,-0.1072 h -1.9581 c -1.8219,-2.3232 -3.7675,-4.5467 -5.8283,-6.6609 0.6359,-0.9364 0.9808,-2.0398 0.9915,-3.1716 0,-1.6021 -0.7044,-3.0625 -1.6671,-4.322 0.0421,0 0.0803,0 0.1244,0 h 0.0134 c 1.6767,0 3.2922,-1.0049 4.7985,-2.9821005 0.0735,-0.097 0.1263,-0.208 0.1553,-0.3261 0.029,-0.1182 0.0334,-0.2411 0.0132,-0.361 -0.0201,-0.11929 -0.0644,-0.23315 -0.1302,-0.33457 -0.0659,-0.10141 -0.1519,-0.18821 -0.2527,-0.255 -0.1129,-0.07465 -2.3868,-1.53125 -4.6454,-1.47765 l 1.6557,-2.04805 c 0.1396,-0.18298 0.2024,-0.41319 0.175,-0.64173 -0.0274,-0.22854 -0.1428,-0.43739 -0.3217,-0.58218 -0.179,-0.14479 -0.4073,-0.2141 -0.6365,-0.19322 -0.2292,0.02088 -0.4413,0.13032 -0.5911,0.30506 l -1.6576,2.04804 c -0.4115,-2.21839 -2.3179,-4.13629 -2.4136,-4.22433 -0.0865,-0.08508 -0.1896,-0.15151998 -0.3028,-0.19522998 -0.1132,-0.04372 -0.2341,-0.06377 -0.3554,-0.05893 -0.1212,0.00484 -0.2402,0.03448 -0.3495,0.08708 -0.1094,0.0526 -0.2068,0.12705 -0.2862,0.21875998 -1.6251,1.89301 -2.2682,3.68648 -1.9141,5.33066 l 0.0287,0.11676 c -1.4355,-0.67566 -3.0051,-1.05848 -4.5708,-0.72543 -1.2326,0.26223 -2.3256,0.95703 -3.2673,2.03656 -2.6931,-1.28625 -5.3038,-2.06527 -7.7538,-2.31984 -0.0255,-0.00192 -0.0511,-0.00192 -0.0766,0 -0.0338,-0.00287 -0.0677,-0.00287 -0.1014,0 -6.1365,0.63738 -12.9353,4.39274 -20.2087,11.1609405 -3.1737001,2.9572 -6.1124001,6.1569 -8.7894001,9.5703 h -2.1533 c -0.1477,-2e-4 -0.293,0.0367 -0.4228,0.1071 -0.1297,0.0705 -0.23980002,0.1723 -0.32010002,0.2962 -0.0803,0.1238 -0.1283,0.2659 -0.1396,0.4131 -0.0114,0.1472 0.0143,0.2949 0.0747,0.4296 l 12.16970012,27.2218 h -1.405 c -0.1476,-3e-4 -0.293,0.0365 -0.4228,0.1069 -0.1298,0.0705 -0.2398,0.1723 -0.32,0.2963 -0.0802,0.124 -0.128,0.2662 -0.139,0.4134 -0.011,0.1473 0.0152,0.2949 0.076,0.4295 l 15.479,34.4072 c 0,0.0153 0.0153,0.0325 0.023,0.0478 1.1676,2.2261 3.7975,3.6501 6.7203,3.6501 h 0.1167 c 2.5151,-0.0325 4.6531,-1.1005 5.8896,-2.8998 0.0252,-0.0331 0.0476,-0.0684 0.067,-0.1052 0.1413,-0.2126 0.2691,-0.4338 0.3828,-0.6623 0.0053,-0.0092 0.0097,-0.0188 0.0134,-0.0287 l 15.4618,-34.411 c 0.0604,-0.1348 0.0861,-0.2825 0.0748,-0.4297 -0.0113,-0.1472 -0.0594,-0.2892 -0.1397,-0.4131 -0.0803,-0.1239 -0.1903,-0.2257 -0.3201,-0.2961 -0.1297,-0.0705 -0.2751,-0.1073 -0.4227,-0.1072 h -1.583 l 12.1697,-27.2141 c 0.0602,-0.1347 0.0858,-0.2823 0.0745,-0.4294 -0.0114,-0.1471 -0.0594,-0.289 -0.1396,-0.4128 z m -26.4294,2.1724 c -2.007,-1.5919 -4.4754,-2.4917 -7.0361,-2.5648 0.2029,-2.4768 1.4145,-5.8111 6.3891,-6.1346 0.1915,2.0902 0.7963,3.8492 1.8643,4.7124 0.8001,0.647 2.0385,0.9322 3.4894,0.9322 2.5993,0 5.88,-0.9168 8.5386,-2.2969 0.712,0.1646 2.6472,0.7886 3.1085,2.7735 h -6.8065 c -5.656,0 -8.4103,1.6174 -9.5473,2.5763 z m 18.1549,-2.5782 c -0.3082,-2.0404 -1.6385,-3.275 -2.9668,-3.9449 0.2201,-0.1569 0.4326,-0.3177 0.6335,-0.4804 0.3345,-0.2695 0.654,-0.557 0.9571,-0.8613 2.0672,2.1418 3.6922,4.0578 4.6913,5.2866 z m 1.9408,-17.4180005 c -0.9264,0.9915 -1.8394,1.4930005 -2.7237,1.4949005 -0.8938,0 -1.6097,-0.5225005 -2.0021,-0.8881005 0.1133,-0.2711 0.281,-0.5162 0.4926,-0.7199 0.2117,-0.2038 0.4629,-0.362 0.7382,-0.46492 1.0642,-0.36941 2.5093,0.10912 3.4989,0.57422 z m -7.1719,-5.79575 c 0.666,0.86898 1.4355,2.18203 1.2958,3.29984 -0.043,0.29068 -0.1451,0.56944 -0.3002,0.81901 -0.1551,0.24957 -0.3597,0.46463 -0.6013,0.63185 -0.4384,-0.30625 -1.1025,-0.89961 -1.2863,-1.77625 -0.1837,-0.87664 0.1263,-1.86238 0.892,-2.97445 z m -6.7931,4.48465 c 0.2593,-0.05449 0.5237,-0.08144 0.7886,-0.08039 2.4481,0 5.0972,2.14379 6.0293,2.8978905 1.0336,0.8307 4.1861,3.3802 4.1861,6.0791 0,1.3762 -0.8135,2.7332 -2.4194,4.0348 -3.4587,2.8041 -10.5178,4.521 -12.3801,3.0127 -1.8624,-1.5082 -1.6615,-8.7683 0.3541,-12.7361 0.9378,-1.8433005 2.1054,-2.9228105 3.4453,-3.2080005 z m -5.0167,2.406 c -0.8441,1.6576005 -1.4241,3.8166005 -1.6844,5.9967005 -1.114,-0.4747 -2.8711,-1.0604 -4.7851,-1.0604 -1.8088,0 -3.6636,0.6164 -5.6255,1.271 -3.6367,1.2058 -7.3691,2.4519 -10.9599,-0.3828 4.8541,-4.0942 10.7475,-7.8362105 16.5815,-8.4678505 2.1495,0.23735 4.4406,0.91301 6.8198,2.01165 -0.1186,0.2029 -0.2354,0.4116 -0.3464,0.6317 z m -24.4158,7.0093005 c 2.0576,1.7226 4.1727,2.2968 6.2284,2.2968 2.3504,0 4.6243,-0.7656 6.6456,-1.4298 1.8222,-0.6067 3.5429,-1.179 5.0665,-1.179 1.9734,0 3.8186,0.7656 4.6474,1.1695 0,0.1914 -0.0096,0.3732 -0.0115,0.5589 -6.7873,0.4115 -7.93,5.6197 -8.0908,8.0486 -1.0794,0.2793 -2.0357,0.9089 -2.7188,1.7901 -0.6831,0.8813 -1.0544,1.9643 -1.0557,3.0793 v 11.6471 c 0.0055,0.5502 -0.1981,1.0821 -0.5698,1.4879 -0.3717,0.4058 -0.8837,0.6552 -1.4323,0.6979 -0.2848,0.0135 -0.5693,-0.031 -0.8363,-0.1308 -0.2671,-0.0997 -0.5111,-0.2527 -0.7173,-0.4495 -0.2061,-0.1969 -0.3702,-0.4336 -0.4822,-0.6958 -0.112,-0.2621 -0.1695,-0.5443 -0.1692,-0.8294 v -11.7198 c -0.0015,-1.3326 -0.5316,-2.6101 -1.4739,-3.5524 -0.9423,-0.9423 -2.2198,-1.4724 -3.5524,-1.4739 H 6.0374349 c 2.7192,-3.3278 5.6896001,-6.4422 8.8851001,-9.3157 z M 2.9979349,27.993196 H 16.396335 c 0.863,0 1.6907,0.3428 2.3009,0.953 0.6102,0.6102 0.953,1.4379 0.953,2.3009 v 11.7312 c 2e-4,0.5241 0.1068,1.0428 0.3132,1.5245 0.2064,0.4817 0.5084,0.9166 0.8878,1.2782 0.3793,0.3617 0.8281,0.6426 1.3192,0.8257 0.491,0.1832 1.0141,0.2648 1.5377,0.24 1.0051,-0.0576 1.9493,-0.5006 2.636,-1.2369 0.6867,-0.7362 1.0629,-1.709 1.0504,-2.7157 v -11.6356 c 0,-0.8629 0.3429,-1.6906 0.9531,-2.3008 0.6102,-0.6102 1.4378,-0.9531 2.3008,-0.9531 2.5657,-0.0424 5.0531,0.8844 6.9653,2.5955 0.0466,0.0519 0.0986,0.0987 0.1551,0.1397 4.3123,3.9621 6.6245,12.1352 6.6475,23.9564 h -29.4823 z m 44.3775001,40.4613 -21.805,-11.9916 h 12.1792 l 12.0414,6.6208 z m -33.0175,-11.9916 h 7.5433 l 24.7469,13.609 -2.4136,5.369 -30.2193,-16.6141 -1.0623,-2.3639 z m 26.7337,25.9643 -21.8089,-11.9935 -0.0516,-0.023 -4.0043,-8.9042 28.2803,15.5517 z m -7.9989,9.8498 c -2.2969,0.0344 -4.3526,-1.0222 -5.2369,-2.6797 l -2.2203,-4.9383 11.293,6.2073 c -0.9417,0.8805 -2.2854,1.3915 -3.8281,1.4107 z m 4.8655,-2.8711 -13.519,-7.4343 -4.0004,-8.8965 19.9331,10.9618 z m 12.5659,-27.9454 -9.0995,-5.0033 h 11.3485 z m 0.0957,-6.7719 h -4.4196 c -0.0172,-9.042 -1.3513,-16.0915 -3.9678,-20.9513 -0.7169,-1.3618 -1.6187,-2.6178 -2.6797,-3.7325 0.957,-0.735 3.3362,-2.0097 8.2304,-2.0097 h 7.6103 c 0.0592,0.0122 0.1195,0.0186 0.18,0.0191 0.0611,-5e-4 0.122,-0.0069 0.1818,-0.0191 h 6.8045 z" />
  </g>
</svg>
