<svg viewBox="0 0 900 926" xmlns="http://www.w3.org/2000/svg">
<path d="M275.067 653.51C272.376 654.162 269.935 655.583 268.057 657.625C266.179 659.665 264.958 662.219 264.533 664.959C264.106 667.698 264.507 670.505 265.676 673.018C266.845 675.532 268.718 677.637 271.086 679.076C273.453 680.512 276.207 681.215 278.973 681.095C281.745 680.974 284.418 680.03 286.65 678.39C288.884 676.75 290.583 674.477 291.527 671.875C292.786 668.399 292.61 664.56 291.05 661.207C289.49 657.851 286.669 655.244 283.202 653.968L280.668 660.845L283.183 653.968C280.585 653.013 277.761 652.859 275.067 653.51L275.067 653.51ZM278.325 666.483C278.409 666.48 278.494 666.511 278.573 666.541C278.609 666.555 278.655 666.54 278.687 666.561V666.58C278.794 666.645 278.881 666.732 278.935 666.847C278.987 666.96 279.011 667.086 278.992 667.209C278.973 667.335 278.906 667.44 278.821 667.533C278.734 667.627 278.636 667.694 278.516 667.723C278.395 667.752 278.266 667.745 278.154 667.703L278.573 666.541L278.135 667.703C277.983 667.648 277.862 667.53 277.792 667.38C277.723 667.231 277.717 667.057 277.772 666.903V666.884C277.813 666.771 277.882 666.672 277.982 666.598C278.082 666.525 278.198 666.489 278.325 666.484L278.325 666.483ZM280.667 660.836C279.425 660.38 278.076 660.302 276.789 660.613C275.504 660.924 274.338 661.61 273.443 662.583C272.547 663.556 271.959 664.775 271.756 666.082C271.553 667.39 271.742 668.728 272.3 669.928C272.858 671.127 273.76 672.135 274.89 672.821C276.022 673.508 277.331 673.844 278.652 673.786C279.975 673.729 281.25 673.279 282.316 672.496C283.383 671.712 284.192 670.631 284.644 669.386C285.246 667.725 285.166 665.893 284.421 664.291C283.675 662.688 282.326 661.447 280.667 660.836V660.836ZM612.941 730.492C610.175 730.492 607.466 731.319 605.168 732.854C602.865 734.391 601.082 736.568 600.025 739.122C598.967 741.676 598.687 744.49 599.225 747.199C599.764 749.91 601.103 752.409 603.054 754.362C605.009 756.317 607.503 757.652 610.216 758.191C612.927 758.731 615.736 758.452 618.294 757.391C620.85 756.333 623.026 754.543 624.561 752.247C626.098 749.947 626.923 747.236 626.923 744.475C626.923 740.772 625.449 737.209 622.828 734.588C620.208 731.968 616.646 730.492 612.941 730.492V730.492ZM613.055 743.827C613.184 743.852 613.308 743.927 613.398 744.018C613.486 744.105 613.545 744.217 613.569 744.341C613.594 744.465 613.58 744.605 613.531 744.722C613.483 744.841 613.414 744.934 613.303 745.008C613.198 745.078 613.071 745.122 612.941 745.122C612.772 745.122 612.604 745.053 612.484 744.932C612.364 744.812 612.293 744.642 612.293 744.475C612.293 744.351 612.317 744.22 612.389 744.113H612.408C612.478 744.008 612.574 743.915 612.694 743.865C612.811 743.816 612.937 743.807 613.056 743.827L613.055 743.827ZM612.938 737.807C611.62 737.807 610.332 738.198 609.235 738.931C608.139 739.662 607.285 740.704 606.78 741.921C606.276 743.14 606.144 744.48 606.401 745.772C606.659 747.065 607.293 748.252 608.225 749.185C609.157 750.117 610.345 750.752 611.638 751.009C612.931 751.266 614.271 751.135 615.488 750.629C616.707 750.125 617.747 749.271 618.48 748.175C619.212 747.079 619.603 745.791 619.603 744.472C619.603 742.705 618.901 741.009 617.651 739.759C616.401 738.51 614.706 737.807 612.938 737.807V737.807ZM608.997 714.547C606.289 714.009 603.474 714.271 600.92 715.328C598.365 716.386 596.188 718.193 594.652 720.491C593.117 722.788 592.29 725.479 592.29 728.244C592.29 731.949 593.766 735.511 596.386 738.131C599.006 740.751 602.568 742.227 606.273 742.227C609.038 742.227 611.748 741.419 614.046 739.884V739.864C616.341 738.329 618.131 736.153 619.189 733.597C620.246 731.045 620.53 728.234 619.989 725.519C619.45 722.813 618.12 720.314 616.16 718.357C614.207 716.403 611.709 715.086 608.997 714.547L608.997 714.547ZM606.273 727.596C606.443 727.596 606.612 727.669 606.73 727.787C606.851 727.908 606.921 728.076 606.921 728.244C606.921 728.374 606.877 728.501 606.806 728.606C606.736 728.711 606.641 728.804 606.521 728.854C606.445 728.885 606.354 728.872 606.273 728.873C606.229 728.874 606.183 728.9 606.14 728.893C606.015 728.868 605.904 728.81 605.816 728.721C605.721 728.627 605.65 728.5 605.625 728.378C605.6 728.251 605.615 728.115 605.663 727.997C605.713 727.878 605.806 727.782 605.911 727.711C606.016 727.641 606.145 727.597 606.273 727.597L606.273 727.596ZM606.27 734.916C607.589 734.916 608.877 734.525 609.974 733.793C611.069 733.06 611.924 732.019 612.428 730.801C612.932 729.584 613.065 728.244 612.807 726.95C612.55 725.658 611.916 724.47 610.983 723.539C610.051 722.606 608.864 721.971 607.57 721.714C606.278 721.457 604.938 721.589 603.72 722.093C602.502 722.597 601.462 723.452 600.729 724.548C599.997 725.644 599.606 726.933 599.606 728.251C599.606 730.019 600.308 731.714 601.557 732.964C602.808 734.214 604.503 734.916 606.27 734.916V734.916ZM595.776 727.596C593.011 727.596 590.302 728.423 588.004 729.959C585.708 731.494 583.919 733.672 582.86 736.226C581.8 738.782 581.52 741.592 582.06 744.303C582.599 747.018 583.936 749.513 585.889 751.466C587.845 753.424 590.338 754.757 593.052 755.295C595.763 755.835 598.572 755.557 601.13 754.495C603.686 753.437 605.862 751.647 607.397 749.352C608.932 747.054 609.759 744.344 609.759 741.579C609.759 737.874 608.285 734.312 605.663 731.692C603.044 729.07 599.482 727.596 595.776 727.596H595.776ZM595.891 740.95C596.02 740.976 596.141 741.028 596.234 741.122C596.322 741.211 596.38 741.336 596.405 741.465C596.426 741.586 596.414 741.713 596.367 741.827C596.317 741.947 596.243 742.042 596.139 742.113V742.132C596.034 742.202 595.904 742.228 595.777 742.228C595.606 742.228 595.44 742.158 595.319 742.037C595.198 741.916 595.129 741.751 595.129 741.58C595.129 741.452 595.154 741.323 595.224 741.218H595.244C595.314 741.113 595.41 741.039 595.53 740.989C595.647 740.941 595.773 740.931 595.892 740.951L595.891 740.95ZM595.774 734.916C594.456 734.916 593.167 735.307 592.071 736.04C590.976 736.772 590.121 737.813 589.617 739.03C589.112 740.249 588.98 741.589 589.237 742.881C589.494 744.174 590.129 745.361 591.061 746.294C591.993 747.226 593.181 747.861 594.473 748.118C595.767 748.375 597.107 748.244 598.324 747.738C599.542 747.234 600.583 746.38 601.315 745.284C602.048 744.188 602.439 742.9 602.439 741.581C602.439 739.814 601.737 738.118 600.486 736.869C599.237 735.619 597.542 734.916 595.774 734.916V734.916ZM370.794 352.556C368.086 352.021 365.271 352.295 362.717 353.356C360.171 354.416 358 356.227 356.469 358.519C354.934 360.817 354.106 363.511 354.106 366.272C354.106 368.109 354.467 369.925 355.173 371.625C355.878 373.327 356.918 374.88 358.221 376.178C359.524 377.477 361.062 378.509 362.755 379.207H362.775C364.471 379.905 366.285 380.261 368.128 380.255C370.893 380.249 373.587 379.417 375.881 377.874C378.173 376.334 379.953 374.159 381.006 371.606L381.025 371.587C382.077 369.032 382.328 366.232 381.787 363.529C381.244 360.824 379.908 358.333 377.958 356.385C376.001 354.432 373.506 353.092 370.795 352.556L370.794 352.556ZM368.089 365.625C368.178 365.624 368.263 365.632 368.337 365.663V365.682C368.409 365.711 368.486 365.755 368.546 365.816C368.607 365.875 368.646 365.943 368.68 366.025C368.713 366.104 368.737 366.189 368.737 366.273C368.737 366.399 368.694 366.527 368.623 366.635C368.553 366.74 368.455 366.834 368.337 366.882C368.258 366.915 368.172 366.9 368.09 366.902C368.045 366.902 368 366.929 367.956 366.921C367.83 366.896 367.725 366.823 367.632 366.731C367.541 366.64 367.467 366.534 367.442 366.407C367.418 366.288 367.431 366.145 367.48 366.026C367.528 365.909 367.623 365.811 367.728 365.74C367.835 365.668 367.96 365.626 368.09 365.626L368.089 365.625ZM368.105 372.939C369.423 372.936 370.709 372.542 371.802 371.807C372.896 371.072 373.747 370.03 374.25 368.812C374.751 367.594 374.88 366.255 374.621 364.962C374.362 363.671 373.725 362.485 372.792 361.556C371.86 360.625 370.672 359.992 369.38 359.736C368.087 359.481 366.748 359.614 365.532 360.119C364.315 360.624 363.275 361.478 362.543 362.574C361.812 363.669 361.422 364.957 361.422 366.274C361.422 367.151 361.594 368.019 361.931 368.83C362.266 369.639 362.759 370.375 363.38 370.994C364.001 371.613 364.738 372.103 365.548 372.438C366.36 372.771 367.228 372.942 368.105 372.939V372.939ZM160.024 367.625C157.258 367.625 154.547 368.436 152.251 369.968C149.953 371.505 148.165 373.701 147.108 376.255C146.052 378.806 145.767 381.617 146.308 384.332C146.847 387.04 148.182 389.54 150.137 391.495C152.089 393.445 154.588 394.765 157.299 395.305C160.014 395.846 162.826 395.58 165.377 394.524C167.93 393.466 170.107 391.665 171.644 389.361C173.181 387.062 174.006 384.373 174.006 381.608C174.006 377.903 172.528 374.34 169.911 371.721C167.291 369.103 163.729 367.625 160.024 367.625ZM160.157 380.96C160.282 380.984 160.393 381.044 160.481 381.131C160.57 381.221 160.628 381.353 160.652 381.474C160.679 381.605 160.662 381.741 160.614 381.855C160.565 381.974 160.493 382.069 160.386 382.141C160.282 382.21 160.151 382.256 160.024 382.256C159.853 382.256 159.685 382.183 159.566 382.065C159.448 381.946 159.376 381.778 159.376 381.608C159.376 381.48 159.418 381.354 159.49 381.246C159.563 381.141 159.662 381.046 159.776 380.998C159.85 380.967 159.94 380.98 160.024 380.979C160.069 380.978 160.111 380.95 160.157 380.959L160.157 380.96ZM160.021 374.936C158.703 374.936 157.414 375.327 156.318 376.058C155.223 376.791 154.368 377.832 153.864 379.05C153.36 380.268 153.227 381.608 153.484 382.9C153.742 384.194 154.376 385.381 155.308 386.313C156.241 387.245 157.428 387.88 158.721 388.137C160.014 388.395 161.354 388.262 162.572 387.758C163.789 387.253 164.831 386.399 165.562 385.303C166.295 384.207 166.686 382.919 166.686 381.6C166.686 379.833 165.984 378.138 164.734 376.887C163.484 375.638 161.789 374.936 160.021 374.936V374.936ZM154.975 350.461C152.255 350.976 149.746 352.293 147.774 354.233C145.797 356.175 144.45 358.652 143.888 361.357V361.377C143.328 364.086 143.59 366.889 144.631 369.454V369.474C145.672 372.037 147.445 374.226 149.736 375.779H149.756C152.043 377.326 154.737 378.165 157.509 378.18H157.529H157.548C161.254 378.18 164.816 376.701 167.435 374.084C170.007 371.51 171.404 368.003 171.455 364.368H171.569C171.57 364.315 171.531 364.269 171.531 364.216C171.531 364.208 171.512 364.205 171.512 364.196C171.506 361.493 170.763 358.823 169.283 356.557C167.769 354.24 165.599 352.422 163.054 351.337C160.505 350.252 157.692 349.948 154.976 350.461L154.975 350.461ZM157.547 363.548H157.585C157.719 363.549 157.847 363.595 157.947 363.662C158.054 363.735 158.127 363.829 158.176 363.948V363.968C158.206 364.043 158.193 364.117 158.195 364.196H156.938L158.195 364.216C158.195 364.256 158.223 364.291 158.215 364.33C158.189 364.451 158.138 364.58 158.043 364.673C157.954 364.761 157.826 364.821 157.7 364.845C157.577 364.868 157.458 364.857 157.338 364.807H157.319C157.2 364.756 157.103 364.666 157.033 364.559C156.964 364.452 156.936 364.325 156.937 364.197H156.899C156.899 364.027 156.972 363.858 157.09 363.74C157.208 363.621 157.377 363.549 157.547 363.549L157.547 363.548ZM164.248 364.278C164.262 362.958 163.885 361.664 163.163 360.559C162.441 359.454 161.407 358.587 160.194 358.071C158.98 357.554 157.639 357.409 156.342 357.654C155.045 357.9 153.851 358.525 152.91 359.451C151.969 360.375 151.324 361.559 151.056 362.852C150.789 364.144 150.91 365.487 151.407 366.71C151.903 367.932 152.752 368.981 153.844 369.721C154.938 370.461 156.225 370.861 157.545 370.867C159.312 370.867 161.007 370.165 162.258 368.916C163.507 367.665 164.21 365.97 164.21 364.203M171.435 357.185C168.728 357.729 166.243 359.056 164.291 361.015C162.34 362.971 161.017 365.467 160.481 368.177C159.945 370.886 160.22 373.701 161.281 376.255C162.338 378.793 164.134 380.971 166.424 382.503C168.722 384.038 171.435 384.865 174.197 384.865C176.034 384.865 177.848 384.506 179.55 383.798C181.248 383.093 182.787 382.05 184.084 380.75H184.103C185.396 379.452 186.413 377.916 187.113 376.217L187.133 376.197C187.832 374.499 188.187 372.686 188.181 370.844C188.172 368.082 187.337 365.382 185.799 363.091C184.26 360.799 182.07 358.999 179.513 357.947C176.959 356.896 174.147 356.64 171.436 357.185L171.435 357.185ZM174.197 370.235C174.323 370.235 174.451 370.278 174.559 370.349C174.667 370.421 174.74 370.52 174.787 370.635C174.821 370.714 174.805 370.8 174.807 370.883C174.808 370.927 174.834 370.972 174.826 371.016C174.801 371.142 174.747 371.248 174.655 371.34C174.564 371.431 174.455 371.505 174.331 371.53C174.203 371.556 174.067 371.54 173.95 371.492C173.83 371.442 173.735 371.35 173.664 371.244H173.645C173.576 371.141 173.55 371.009 173.549 370.883C173.549 370.794 173.556 370.712 173.587 370.635C173.619 370.558 173.665 370.481 173.721 370.425H173.74C173.799 370.367 173.873 370.324 173.95 370.292C174.033 370.258 174.114 370.234 174.197 370.234L174.197 370.235ZM180.859 370.866C180.855 369.549 180.461 368.262 179.727 367.168C178.992 366.074 177.951 365.223 176.732 364.722C175.514 364.22 174.174 364.09 172.883 364.35C171.591 364.609 170.405 365.245 169.475 366.179C168.545 367.111 167.912 368.299 167.657 369.592C167.401 370.884 167.534 372.223 168.039 373.439C168.544 374.657 169.398 375.696 170.494 376.428C171.589 377.159 172.877 377.55 174.194 377.55C175.071 377.55 175.939 377.377 176.749 377.04C177.559 376.704 178.295 376.211 178.914 375.591C179.533 374.97 180.023 374.233 180.358 373.422C180.691 372.611 180.862 371.743 180.859 370.866V370.866ZM422.344 767.811C419.585 767.817 416.882 768.656 414.591 770.192C412.299 771.732 410.499 773.922 409.447 776.479C408.392 779.037 408.123 781.85 408.666 784.556C409.211 787.264 410.562 789.754 412.514 791.7C414.471 793.653 416.947 794.974 419.658 795.51C422.366 796.046 425.181 795.771 427.735 794.71C430.284 793.652 432.468 791.867 434.003 789.566C435.539 787.267 436.365 784.556 436.365 781.794C436.365 779.957 436.004 778.141 435.298 776.441C434.595 774.745 433.548 773.203 432.25 771.907C430.943 770.602 429.407 769.576 427.716 768.878H427.697V768.858C425.996 768.159 424.186 767.805 422.344 767.811L422.344 767.811ZM422.496 781.165C422.622 781.191 422.747 781.244 422.839 781.337C422.931 781.427 422.985 781.549 423.011 781.68C423.03 781.797 423.02 781.927 422.973 782.042C422.923 782.162 422.849 782.257 422.744 782.327C422.637 782.4 422.512 782.441 422.382 782.442C422.293 782.442 422.214 782.436 422.135 782.404C422.064 782.374 421.992 782.318 421.925 782.251C421.865 782.191 421.807 782.124 421.773 782.042C421.739 781.963 421.735 781.877 421.735 781.794C421.735 781.666 421.777 781.541 421.849 781.432C421.92 781.33 422.025 781.249 422.135 781.204C422.218 781.169 422.296 781.184 422.382 781.184C422.422 781.184 422.457 781.157 422.497 781.165L422.496 781.165ZM422.361 775.132C421.043 775.135 419.757 775.529 418.663 776.264C417.57 776.998 416.718 778.04 416.217 779.258C415.715 780.477 415.586 781.816 415.846 783.108C416.104 784.4 416.741 785.586 417.673 786.515C418.606 787.446 419.794 788.079 421.086 788.334C422.379 788.59 423.718 788.457 424.934 787.952C426.151 787.447 427.191 786.593 427.923 785.497C428.654 784.402 429.044 783.113 429.044 781.796C429.044 780.919 428.872 780.051 428.535 779.241C428.2 778.431 427.707 777.696 427.086 777.077C426.465 776.457 425.728 775.968 424.917 775.633C424.107 775.299 423.238 775.129 422.361 775.132V775.132ZM417.162 750.761C414.452 751.301 411.955 752.635 410 754.59C408.048 756.541 406.711 759.027 406.17 761.734C405.631 764.444 405.914 767.259 406.971 769.811V769.831C408.028 772.38 409.815 774.562 412.114 776.098C414.414 777.635 417.125 778.442 419.887 778.442C423.592 778.442 427.154 776.985 429.774 774.365C432.393 771.745 433.869 768.183 433.869 764.478C433.869 761.713 433.042 759.003 431.507 756.705C429.972 754.408 427.796 752.62 425.24 751.562C422.684 750.503 419.87 750.225 417.162 750.762V750.761ZM419.887 763.811C420.013 763.811 420.141 763.854 420.249 763.925C420.355 763.996 420.43 764.098 420.477 764.211V764.23C420.51 764.309 420.497 764.391 420.497 764.478C420.496 764.519 420.524 764.553 420.516 764.592C420.491 764.721 420.435 764.845 420.345 764.935C420.252 765.028 420.146 765.082 420.021 765.107H420.001C419.88 765.131 419.76 765.118 419.639 765.069C419.52 765.019 419.405 764.945 419.335 764.84C419.264 764.735 419.239 764.608 419.239 764.478C419.239 764.308 419.311 764.121 419.429 764.002C419.55 763.881 419.718 763.811 419.887 763.811L419.887 763.811ZM426.549 764.47C426.549 763.152 426.158 761.864 425.426 760.767C424.693 759.671 423.652 758.817 422.434 758.312C421.217 757.808 419.877 757.676 418.583 757.933C417.291 758.191 416.103 758.825 415.172 759.757C414.239 760.689 413.604 761.877 413.348 763.17C413.09 764.463 413.222 765.802 413.726 767.02C414.231 768.239 415.085 769.279 416.181 770.012C417.277 770.744 418.566 771.135 419.884 771.135C421.652 771.135 423.347 770.432 424.597 769.183C425.847 767.932 426.549 766.237 426.549 764.47V764.47ZM436.555 757.162C433.79 757.162 431.081 757.97 428.783 759.505C426.478 761.044 424.696 763.226 423.639 765.773V765.792C422.582 768.346 422.302 771.142 422.839 773.851V773.87C423.379 776.581 424.715 779.061 426.668 781.014C428.626 782.974 431.125 784.304 433.831 784.843C436.546 785.383 439.356 785.1 441.909 784.043C444.464 782.985 446.641 781.195 448.176 778.899C449.711 776.602 450.538 773.892 450.538 771.127C450.538 767.422 449.062 763.859 446.442 761.24C443.823 758.619 440.261 757.162 436.555 757.162ZM436.689 770.497C436.811 770.522 436.918 770.574 437.013 770.669C437.101 770.757 437.159 770.887 437.184 771.012C437.208 771.135 437.195 771.256 437.146 771.374V771.393C437.099 771.505 437.03 771.604 436.917 771.679C436.812 771.749 436.685 771.793 436.555 771.793C436.387 771.793 436.219 771.704 436.098 771.584C435.98 771.465 435.908 771.297 435.908 771.127C435.908 770.999 435.933 770.87 436.003 770.765H436.023C436.093 770.66 436.189 770.585 436.309 770.536C436.385 770.505 436.473 770.517 436.556 770.516C436.601 770.516 436.645 770.488 436.69 770.497L436.689 770.497ZM436.553 764.468C435.235 764.468 433.946 764.859 432.85 765.592C431.754 766.323 430.9 767.365 430.395 768.582C429.891 769.8 429.759 771.14 430.016 772.433C430.273 773.726 430.908 774.913 431.841 775.846C432.772 776.778 433.96 777.412 435.252 777.67C436.546 777.927 437.886 777.794 439.103 777.29C440.321 776.786 441.362 775.931 442.095 774.836C442.827 773.74 443.218 772.451 443.218 771.133C443.218 769.365 442.516 767.67 441.266 766.42C440.016 765.17 438.321 764.468 436.553 764.468V764.468ZM501.269 440.911C498.504 440.911 495.797 441.735 493.496 443.273C491.199 444.808 489.411 446.985 488.353 449.541C487.296 452.093 487.012 454.903 487.553 457.618C488.093 460.328 489.427 462.825 491.382 464.781C493.335 466.734 495.829 468.071 498.545 468.61C501.256 469.15 504.065 468.87 506.622 467.81C509.178 466.752 511.354 464.962 512.889 462.666C514.421 460.37 515.252 457.659 515.252 454.894C515.252 451.188 513.775 447.626 511.156 445.007C508.536 442.387 504.974 440.911 501.269 440.911V440.911ZM501.383 454.265H501.403C501.525 454.292 501.642 454.352 501.726 454.436C501.819 454.529 501.873 454.635 501.898 454.76C501.923 454.888 501.909 455.024 501.86 455.141C501.812 455.256 501.731 455.357 501.631 455.427C501.522 455.5 501.399 455.541 501.269 455.541C501.099 455.541 500.931 455.469 500.812 455.351C500.691 455.23 500.622 455.064 500.622 454.894C500.622 454.766 500.648 454.635 500.717 454.532H500.737C500.807 454.427 500.903 454.353 501.022 454.303C501.1 454.271 501.186 454.285 501.27 454.284C501.309 454.283 501.346 454.258 501.384 454.264L501.383 454.265ZM501.266 448.231C499.948 448.231 498.659 448.622 497.564 449.354C496.467 450.087 495.613 451.127 495.109 452.346C494.604 453.563 494.472 454.903 494.729 456.196C494.987 457.489 495.622 458.677 496.553 459.608C497.486 460.541 498.673 461.176 499.966 461.432C501.258 461.69 502.599 461.558 503.817 461.053C505.035 460.548 506.076 459.694 506.808 458.599C507.54 457.502 507.931 456.214 507.931 454.895C507.931 453.128 507.229 451.433 505.979 450.183C504.729 448.933 503.034 448.231 501.266 448.231V448.231ZM501.478 423.861C498.763 423.32 495.952 423.605 493.401 424.661C490.845 425.719 488.669 427.509 487.134 429.805C485.597 432.105 484.771 434.815 484.771 437.577C484.771 441.282 486.247 444.844 488.867 447.464C491.487 450.084 495.049 451.56 498.754 451.56C501.519 451.56 504.226 450.736 506.527 449.198C508.824 447.662 510.612 445.485 511.67 442.93C512.727 440.376 513.008 437.561 512.47 434.853C511.93 432.142 510.592 429.643 508.641 427.69C506.686 425.735 504.186 424.4 501.478 423.861V423.861ZM498.754 436.929C498.925 436.929 499.093 437.002 499.211 437.12C499.332 437.241 499.402 437.407 499.402 437.577C499.402 437.701 499.359 437.831 499.287 437.939C499.217 438.044 499.121 438.118 499.002 438.168C498.887 438.215 498.751 438.232 498.621 438.206C498.499 438.181 498.387 438.125 498.297 438.034C498.209 437.946 498.131 437.835 498.106 437.71V437.691C498.082 437.567 498.096 437.447 498.144 437.329C498.192 437.213 498.292 437.113 498.392 437.043C498.502 436.97 498.624 436.929 498.754 436.929L498.754 436.929ZM498.752 444.239C500.069 444.239 501.359 443.848 502.454 443.116C503.551 442.383 504.405 441.342 504.909 440.125C505.413 438.907 505.545 437.567 505.289 436.274C505.031 434.981 504.396 433.794 503.465 432.862C502.532 431.929 501.345 431.295 500.052 431.038C498.76 430.78 497.419 430.913 496.201 431.417C494.983 431.921 493.942 432.776 493.21 433.871C492.477 434.967 492.087 436.256 492.087 437.575C492.087 439.342 492.789 441.037 494.039 442.287C495.289 443.537 496.984 444.239 498.752 444.239V444.239ZM515.423 430.262C512.661 430.262 509.951 431.068 507.65 432.605V432.624C505.355 434.16 503.565 436.336 502.507 438.892C501.45 441.444 501.166 444.255 501.707 446.969C502.246 449.676 503.579 452.175 505.536 454.132C507.489 456.083 509.987 457.402 512.699 457.942C515.407 458.48 518.222 458.218 520.776 457.161C523.329 456.103 525.506 454.302 527.044 451.998C528.579 449.701 529.406 447.01 529.406 444.245C529.406 440.54 527.927 436.977 525.31 434.358C522.691 431.741 519.128 430.262 515.423 430.262L515.423 430.262ZM515.537 443.597H515.557C515.681 443.621 515.793 443.681 515.881 443.768C515.972 443.86 516.028 443.989 516.052 444.111C516.077 444.239 516.063 444.375 516.014 444.492C515.964 444.612 515.89 444.708 515.785 444.778C515.678 444.85 515.548 444.892 515.423 444.892C515.253 444.892 515.085 444.82 514.966 444.702C514.848 444.583 514.776 444.415 514.776 444.245C514.776 444.115 514.801 443.988 514.871 443.883C514.946 443.772 515.057 443.684 515.176 443.635C515.256 443.602 515.338 443.616 515.424 443.616C515.464 443.616 515.499 443.588 515.538 443.596L515.537 443.597ZM515.421 437.573C514.102 437.573 512.814 437.963 511.717 438.695C510.622 439.428 509.768 440.469 509.263 441.687C508.759 442.904 508.626 444.244 508.884 445.538C509.141 446.83 509.775 448.018 510.708 448.95C511.64 449.882 512.827 450.517 514.121 450.774C515.413 451.031 516.753 450.899 517.971 450.395C519.189 449.891 520.23 449.036 520.962 447.94C521.694 446.844 522.085 445.555 522.085 444.237C522.085 442.47 521.383 440.775 520.134 439.524C518.883 438.275 517.188 437.573 515.421 437.573V437.573ZM740.234 429.576C737.472 429.572 734.763 430.37 732.461 431.9C730.157 433.433 728.365 435.627 727.299 438.187C726.231 440.746 725.944 443.548 726.479 446.264C727.015 448.983 728.352 451.485 730.309 453.446C732.264 455.402 734.764 456.752 737.471 457.294C740.185 457.837 743.006 457.553 745.568 456.494C748.122 455.436 750.313 453.657 751.854 451.35C753.389 449.056 754.209 446.352 754.216 443.597V443.577C754.22 441.742 753.847 439.919 753.15 438.224C752.45 436.523 751.423 434.976 750.121 433.671C748.824 432.374 747.283 431.345 745.587 430.642C743.892 429.939 742.083 429.578 740.253 429.576C740.246 429.576 740.24 429.576 740.233 429.576L740.234 429.576ZM740.234 436.891V442.968C740.266 442.97 740.297 442.943 740.329 442.949C740.45 442.973 740.565 443.032 740.653 443.12C740.741 443.208 740.8 443.322 740.825 443.444C740.849 443.566 740.835 443.689 740.786 443.806C740.737 443.925 740.659 444.024 740.558 444.092C740.46 444.156 740.351 444.203 740.234 444.206C740.228 444.206 740.221 444.206 740.215 444.206C740.137 444.204 740.06 444.18 739.986 444.149C739.904 444.114 739.836 444.056 739.776 443.996C739.718 443.935 739.655 443.862 739.624 443.787C739.592 443.708 739.586 443.627 739.586 443.539C739.589 443.422 739.614 443.316 739.682 443.215C739.754 443.107 739.857 443.032 739.967 442.986C740.047 442.953 740.131 442.967 740.215 442.967L740.234 436.891ZM740.23 436.882C738.908 436.878 737.614 437.266 736.512 437.999C735.411 438.731 734.551 439.774 734.042 440.994C733.533 442.215 733.399 443.56 733.654 444.858C733.91 446.156 734.545 447.348 735.479 448.284C736.414 449.222 737.604 449.859 738.901 450.119C740.198 450.378 741.543 450.248 742.765 449.742C743.987 449.236 745.033 448.38 745.767 447.281C746.503 446.181 746.895 444.888 746.895 443.565C746.898 442.689 746.727 441.819 746.393 441.009C746.06 440.198 745.569 439.461 744.95 438.841C744.331 438.219 743.595 437.727 742.786 437.391C741.975 437.055 741.107 436.882 740.23 436.882V436.882ZM747.111 336.63C744.397 336.09 741.583 336.375 739.034 337.43C736.478 338.488 734.301 340.276 732.766 342.574C731.226 344.877 730.404 347.585 730.404 350.346C730.404 354.052 731.882 357.614 734.5 360.233C737.119 362.851 740.681 364.329 744.387 364.329C747.152 364.329 749.844 363.499 752.14 361.967H752.16C754.457 360.432 756.245 358.256 757.303 355.7C758.36 353.145 758.641 350.331 758.103 347.622C757.563 344.911 756.225 342.412 754.274 340.459C752.32 338.507 749.821 337.17 747.111 336.63H747.111ZM744.387 349.699C744.557 349.699 744.725 349.771 744.844 349.889C744.962 350.008 745.034 350.176 745.034 350.346C745.034 350.473 744.995 350.596 744.92 350.708C744.85 350.813 744.754 350.907 744.634 350.956C744.561 350.986 744.47 350.974 744.386 350.976C744.342 350.976 744.298 351.004 744.253 350.995C744.128 350.97 744.019 350.894 743.929 350.805C743.842 350.717 743.764 350.605 743.739 350.481C743.714 350.357 743.728 350.217 743.777 350.1C743.827 349.98 743.919 349.884 744.024 349.814C744.128 349.745 744.257 349.7 744.386 349.7L744.387 349.699ZM744.384 357.013C745.702 357.013 746.99 356.622 748.087 355.891C749.183 355.158 750.037 354.117 750.542 352.899C751.046 351.681 751.178 350.341 750.921 349.048C750.664 347.755 750.029 346.568 749.097 345.636C748.165 344.704 746.977 344.069 745.684 343.812C744.391 343.554 743.052 343.687 741.834 344.191C740.615 344.695 739.575 345.55 738.842 346.646C738.11 347.741 737.72 349.031 737.72 350.349C737.72 352.116 738.422 353.811 739.671 355.062C740.922 356.311 742.617 357.013 744.384 357.013V357.013ZM657.651 436.244C654.886 436.244 652.179 437.067 649.879 438.606C647.581 440.141 645.794 442.319 644.735 444.873C643.678 447.427 643.398 450.242 643.935 452.95C644.475 455.662 645.814 458.161 647.764 460.113C649.719 462.068 652.219 463.403 654.927 463.942C657.642 464.483 660.453 464.198 663.004 463.142C665.56 462.084 667.737 460.294 669.272 457.999C670.804 455.703 671.634 452.991 671.634 450.226C671.634 446.521 670.158 442.959 667.538 440.339C664.919 437.72 661.356 436.244 657.651 436.244V436.244ZM657.785 449.598C657.906 449.622 658.018 449.679 658.108 449.769C658.196 449.857 658.255 449.968 658.28 450.093V450.112C658.304 450.236 658.291 450.357 658.242 450.474C658.194 450.59 658.113 450.69 658.013 450.76C657.904 450.833 657.781 450.875 657.651 450.875C657.481 450.875 657.313 450.802 657.194 450.684C657.073 450.563 657.004 450.397 657.004 450.227C657.004 450.099 657.03 449.968 657.099 449.865H657.119C657.189 449.76 657.285 449.686 657.405 449.636C657.519 449.588 657.655 449.572 657.785 449.598L657.785 449.598ZM657.649 443.563C656.331 443.563 655.042 443.955 653.946 444.687C652.85 445.42 651.996 446.46 651.491 447.678C650.987 448.896 650.855 450.236 651.112 451.528C651.369 452.822 652.004 454.009 652.936 454.941C653.868 455.873 655.055 456.507 656.349 456.765C657.641 457.022 658.981 456.89 660.199 456.386C661.418 455.881 662.458 455.027 663.191 453.932C663.922 452.835 664.313 451.547 664.313 450.228C664.313 448.461 663.611 446.766 662.362 445.516C661.111 444.266 659.416 443.563 657.649 443.563V443.563ZM734.995 412.526C732.28 413.065 729.785 414.402 727.832 416.355C725.882 418.308 724.543 420.807 724.003 423.518C723.462 426.233 723.747 429.044 724.803 431.595C725.861 434.15 727.649 436.328 729.947 437.863C732.245 439.4 734.954 440.225 737.719 440.225C741.424 440.225 744.987 438.747 747.606 436.129C750.223 433.51 751.702 429.947 751.702 426.242C751.702 423.477 750.875 420.767 749.34 418.47C747.803 416.168 745.625 414.384 743.072 413.326C740.516 412.266 737.706 411.986 734.995 412.526V412.526ZM737.719 425.594C737.847 425.594 737.973 425.636 738.081 425.709C738.18 425.779 738.262 425.879 738.31 425.995C738.341 426.069 738.328 426.159 738.329 426.242C738.33 426.287 738.357 426.33 738.349 426.376C738.324 426.5 738.265 426.612 738.177 426.699C738.092 426.784 737.975 426.843 737.853 426.871C737.727 426.896 737.592 426.883 737.472 426.833C737.354 426.784 737.242 426.715 737.168 426.604C737.097 426.499 737.072 426.37 737.072 426.242C737.072 426.072 737.144 425.903 737.262 425.785C737.381 425.667 737.549 425.595 737.72 425.595L737.719 425.594ZM744.381 426.24C744.381 424.921 743.99 423.633 743.258 422.536C742.526 421.441 741.484 420.587 740.267 420.082C739.049 419.577 737.709 419.445 736.416 419.703C735.123 419.96 733.936 420.594 733.004 421.527C732.072 422.459 731.437 423.646 731.18 424.94C730.922 426.232 731.055 427.572 731.559 428.79C732.063 430.008 732.918 431.048 734.014 431.781C735.11 432.513 736.398 432.905 737.717 432.905C739.484 432.905 741.179 432.202 742.43 430.953C743.679 429.702 744.381 428.007 744.381 426.24V426.24ZM754.388 418.927C751.623 418.927 748.913 419.754 746.615 421.289C744.32 422.824 742.53 425.001 741.472 427.557C740.415 430.109 740.131 432.92 740.672 435.634C741.211 438.34 742.541 440.839 744.501 442.797C746.454 444.75 748.949 446.087 751.664 446.626C754.375 447.166 757.187 446.883 759.741 445.826C762.289 444.768 764.472 442.982 766.009 440.682C767.544 438.385 768.371 435.675 768.371 432.91C768.371 429.205 766.897 425.643 764.275 423.023C761.655 420.401 758.093 418.927 754.388 418.927V418.927ZM754.502 432.262C754.631 432.287 754.757 432.364 754.845 432.453C754.94 432.547 754.992 432.655 755.017 432.776C755.042 432.904 755.027 433.04 754.979 433.157C754.929 433.277 754.855 433.373 754.75 433.443C754.645 433.513 754.516 433.557 754.388 433.557C754.218 433.557 754.052 433.488 753.931 433.367C753.81 433.246 753.74 433.078 753.74 432.91C753.74 432.78 753.766 432.653 753.836 432.548C753.907 432.441 754.028 432.347 754.141 432.3C754.253 432.254 754.382 432.242 754.503 432.262L754.502 432.262ZM754.386 426.242C753.067 426.242 751.778 426.633 750.682 427.365C749.587 428.098 748.732 429.139 748.228 430.357C747.724 431.574 747.591 432.914 747.849 434.208C748.106 435.5 748.74 436.688 749.673 437.619C750.605 438.552 751.792 439.187 753.086 439.443C754.378 439.701 755.718 439.569 756.936 439.065C758.154 438.56 759.194 437.706 759.927 436.61C760.659 435.514 761.05 434.225 761.05 432.908C761.05 431.139 760.348 429.444 759.098 428.195C757.848 426.944 756.153 426.242 754.386 426.242V426.242ZM612.941 606.247C610.175 606.247 607.466 607.074 605.168 608.609C602.87 610.144 601.083 612.322 600.025 614.877C598.967 617.431 598.687 620.245 599.225 622.954C599.764 625.665 601.103 628.164 603.054 630.117C605.009 632.072 607.503 633.407 610.216 633.946C612.927 634.486 615.736 634.207 618.294 633.146C620.85 632.088 623.026 630.298 624.561 628.002C626.098 625.702 626.923 622.991 626.923 620.23C626.923 616.527 625.449 612.964 622.828 610.343C620.208 607.723 616.646 606.247 612.941 606.247V606.247ZM613.055 619.601C613.184 619.626 613.308 619.682 613.398 619.773C613.486 619.86 613.545 619.972 613.569 620.096V620.116C613.594 620.24 613.58 620.36 613.531 620.478C613.482 620.598 613.408 620.712 613.303 620.783C613.198 620.853 613.071 620.878 612.941 620.878C612.772 620.878 612.604 620.809 612.484 620.688C612.364 620.568 612.293 620.398 612.293 620.231C612.293 620.106 612.317 619.976 612.389 619.869H612.408C612.478 619.764 612.574 619.689 612.694 619.64C612.811 619.591 612.937 619.581 613.056 619.602L613.055 619.601ZM612.938 613.567C611.62 613.567 610.332 613.958 609.235 614.691C608.139 615.423 607.285 616.464 606.78 617.681C606.276 618.899 606.144 620.239 606.401 621.532C606.659 622.825 607.293 624.012 608.225 624.945C609.157 625.877 610.345 626.512 611.638 626.769C612.931 627.026 614.271 626.894 615.488 626.389C616.707 625.885 617.747 625.03 618.48 623.935C619.212 622.839 619.603 621.55 619.603 620.232C619.603 618.464 618.901 616.769 617.651 615.519C616.401 614.269 614.706 613.567 612.938 613.567V613.567ZM687.465 570.071C684.699 570.071 681.99 570.898 679.692 572.433C677.393 573.969 675.606 576.151 674.549 578.7C673.49 581.256 673.209 584.067 673.749 586.778C674.287 589.492 675.62 591.985 677.578 593.941C679.534 595.898 682.027 597.231 684.741 597.77C687.451 598.309 690.263 598.028 692.818 596.97C695.367 595.912 697.549 594.125 699.085 591.826C700.62 589.528 701.448 586.819 701.448 584.054C701.448 580.348 699.974 576.786 697.352 574.167C694.732 571.545 691.17 570.071 687.465 570.071H687.465ZM687.579 583.406H687.599C687.721 583.433 687.833 583.507 687.922 583.596C688.015 583.689 688.068 583.791 688.094 583.92C688.118 584.044 688.106 584.18 688.056 584.301C688.009 584.414 687.934 584.516 687.827 584.587C687.722 584.657 687.595 584.701 687.465 584.701C687.297 584.701 687.129 584.632 687.008 584.511C686.887 584.39 686.818 584.222 686.818 584.054C686.818 583.924 686.843 583.797 686.913 583.692C686.984 583.585 687.105 583.491 687.218 583.444C687.333 583.396 687.461 583.385 687.58 583.406L687.579 583.406ZM687.462 577.386C686.144 577.386 684.856 577.777 683.759 578.509C682.663 579.242 681.81 580.283 681.304 581.501C680.8 582.718 680.668 584.058 680.926 585.352C681.182 586.644 681.817 587.832 682.75 588.763C683.681 589.696 684.869 590.331 686.162 590.587C687.455 590.845 688.795 590.713 690.012 590.209C691.231 589.704 692.271 588.85 693.004 587.754C693.736 586.658 694.127 585.369 694.127 584.051C694.127 582.283 693.425 580.588 692.175 579.338C690.925 578.088 689.23 577.386 687.462 577.386V577.386ZM491.953 790.633C489.188 790.633 486.478 791.441 484.181 792.976C481.883 794.512 480.095 796.708 479.037 799.263C477.98 801.817 477.699 804.632 478.237 807.34C478.777 810.051 480.111 812.548 482.066 814.503C484.021 816.458 486.515 817.774 489.229 818.313C491.94 818.853 494.749 818.574 497.306 817.513V817.532C499.862 816.474 502.039 814.665 503.574 812.37C505.109 810.072 505.936 807.382 505.936 804.616C505.936 800.911 504.462 797.349 501.84 794.729C499.22 792.108 495.658 790.634 491.953 790.634V790.633ZM492.068 803.968C492.197 803.994 492.32 804.049 492.41 804.14C492.503 804.232 492.557 804.359 492.582 804.483C492.606 804.607 492.593 804.746 492.544 804.864C492.494 804.984 492.42 805.079 492.315 805.15C492.21 805.22 492.083 805.264 491.953 805.264C491.785 805.264 491.617 805.195 491.496 805.073C491.375 804.952 491.306 804.787 491.306 804.616C491.306 804.488 491.331 804.359 491.401 804.254H491.421C491.491 804.149 491.587 804.056 491.707 804.007C491.787 803.973 491.871 803.988 491.954 803.987C491.993 803.987 492.03 803.962 492.068 803.968L492.068 803.968ZM491.95 797.944C490.633 797.944 489.344 798.335 488.248 799.067C487.152 799.8 486.297 800.84 485.793 802.058C485.289 803.276 485.157 804.616 485.414 805.908C485.671 807.202 486.306 808.39 487.237 809.321C488.17 810.254 489.358 810.889 490.65 811.145C491.944 811.403 493.284 811.271 494.501 810.766C495.719 810.261 496.76 809.407 497.493 808.312C498.225 807.215 498.616 805.927 498.616 804.608C498.616 802.841 497.914 801.146 496.663 799.896C495.414 798.646 493.719 797.944 491.95 797.944V797.944ZM316.33 857.804C313.565 857.804 310.855 858.612 308.558 860.147V860.167C306.262 861.702 304.472 863.878 303.414 866.434C302.352 868.992 302.074 871.801 302.614 874.511C303.153 877.225 304.488 879.719 306.443 881.674C308.398 883.629 310.895 884.945 313.606 885.484C316.314 886.022 319.129 885.761 321.683 884.703C324.238 883.645 326.415 881.838 327.951 879.541C329.486 877.243 330.313 874.553 330.313 871.787C330.313 868.082 328.839 864.52 326.217 861.9C323.597 859.278 320.035 857.804 316.33 857.804V857.804ZM316.444 871.139H316.464C316.588 871.164 316.695 871.218 316.788 871.311C316.877 871.4 316.933 871.524 316.959 871.654C316.983 871.778 316.972 871.912 316.921 872.034C316.871 872.154 316.797 872.25 316.692 872.32C316.587 872.391 316.458 872.435 316.33 872.435C316.16 872.435 315.994 872.365 315.873 872.244C315.752 872.123 315.683 871.955 315.683 871.787C315.683 871.657 315.708 871.53 315.778 871.425C315.849 871.32 315.963 871.227 316.083 871.177C316.201 871.129 316.321 871.115 316.445 871.139L316.444 871.139ZM316.328 865.114C315.009 865.114 313.721 865.505 312.624 866.238C311.529 866.97 310.675 868.011 310.17 869.229C309.665 870.446 309.533 871.787 309.791 873.08C310.047 874.372 310.682 875.56 311.615 876.493C312.546 877.424 313.734 878.059 315.028 878.317C316.32 878.573 317.66 878.442 318.878 877.937C320.096 877.433 321.136 876.579 321.869 875.482C322.601 874.386 322.993 873.097 322.993 871.78C322.993 870.011 322.29 868.316 321.04 867.067C319.79 865.816 318.095 865.114 316.328 865.114V865.114ZM266.171 737.16C263.406 737.16 260.697 737.985 258.399 739.522C256.095 741.059 254.313 743.236 253.255 745.789C252.199 748.34 251.914 751.151 252.455 753.866C252.994 756.574 254.329 759.074 256.284 761.029C258.239 762.984 260.739 764.319 263.447 764.858C266.162 765.399 268.973 765.114 271.524 764.058C274.077 763.001 276.255 761.213 277.792 758.915V758.895C279.324 756.599 280.154 753.907 280.154 751.142C280.154 747.437 278.675 743.874 276.058 741.255C273.439 738.638 269.876 737.159 266.171 737.159L266.171 737.16ZM266.304 750.495C266.426 750.519 266.538 750.595 266.628 750.685C266.718 750.775 266.775 750.888 266.8 751.009C266.826 751.139 266.809 751.275 266.762 751.39C266.713 751.509 266.644 751.602 266.533 751.676C266.425 751.748 266.299 751.79 266.171 751.79C266 751.79 265.832 751.718 265.714 751.6C265.595 751.481 265.523 751.313 265.523 751.142C265.523 751.015 265.55 750.884 265.619 750.78H265.638C265.711 750.673 265.805 750.582 265.924 750.533C266.039 750.485 266.175 750.468 266.305 750.495L266.304 750.495ZM266.169 744.475C264.85 744.475 263.561 744.866 262.466 745.598C261.37 746.33 260.515 747.372 260.011 748.589C259.507 749.807 259.374 751.147 259.632 752.44C259.889 753.733 260.523 754.92 261.456 755.853C262.388 756.785 263.575 757.419 264.868 757.676C266.161 757.934 267.501 757.801 268.719 757.297C269.936 756.793 270.978 755.938 271.711 754.843C272.442 753.747 272.833 752.458 272.833 751.14C272.833 749.372 272.131 747.677 270.882 746.427C269.631 745.177 267.936 744.475 266.169 744.475V744.475ZM244.016 565.975V565.994C241.25 565.994 238.544 566.817 236.243 568.357C233.946 569.893 232.157 572.087 231.1 574.643C230.047 577.194 229.755 580.004 230.3 582.72C230.841 585.431 232.186 587.928 234.148 589.883C236.106 591.835 238.595 593.159 241.311 593.693C244.025 594.229 246.835 593.957 249.388 592.893C251.944 591.829 254.126 590.011 255.655 587.712C257.184 585.412 258.003 582.717 257.998 579.958C257.998 576.253 256.52 572.691 253.903 570.071C251.283 567.454 247.721 565.975 244.016 565.975L244.016 565.975ZM244.13 579.348C244.256 579.373 244.383 579.43 244.473 579.52C244.566 579.612 244.62 579.72 244.644 579.843C244.671 579.974 244.653 580.112 244.606 580.224C244.558 580.342 244.482 580.44 244.378 580.51C244.27 580.582 244.144 580.625 244.016 580.625V580.605C243.845 580.605 243.677 580.533 243.559 580.415C243.444 580.3 243.373 580.141 243.368 579.976V579.957C243.371 579.836 243.396 579.715 243.464 579.614H243.483C243.551 579.511 243.649 579.435 243.769 579.385C243.846 579.353 243.933 579.368 244.017 579.366C244.056 579.365 244.093 579.34 244.131 579.346L244.13 579.348ZM244.013 573.314C242.694 573.314 241.405 573.705 240.309 574.438C239.212 575.172 238.358 576.213 237.854 577.433C237.35 578.652 237.219 579.992 237.478 581.285C237.737 582.579 238.373 583.767 239.307 584.698C240.241 585.63 241.43 586.263 242.725 586.517C244.019 586.773 245.359 586.638 246.576 586.131C247.795 585.624 248.833 584.766 249.564 583.668C250.294 582.569 250.682 581.278 250.678 579.96C250.678 578.192 249.976 576.497 248.726 575.247C247.476 573.997 245.78 573.295 244.013 573.295M238.624 377.569C235.871 377.318 233.093 377.884 230.662 379.207C228.228 380.531 226.249 382.536 224.966 384.98V384.999C223.681 387.448 223.149 390.212 223.442 392.962V392.982C223.735 395.726 224.847 398.323 226.623 400.449C228.394 402.567 230.754 404.128 233.405 404.907C236.955 405.952 240.785 405.532 244.035 403.764C247.283 401.996 249.689 399.007 250.74 395.458C251.529 392.804 251.522 389.984 250.702 387.343C249.882 384.701 248.297 382.357 246.149 380.618H246.13C243.981 378.88 241.379 377.822 238.624 377.57L238.624 377.569ZM237.52 390.866C237.645 390.903 237.761 390.977 237.843 391.076C237.928 391.177 237.983 391.298 237.996 391.419C238.005 391.506 237.965 391.583 237.938 391.666C237.927 391.704 237.938 391.745 237.919 391.781V391.8C237.862 391.908 237.768 392.003 237.652 392.067C237.537 392.129 237.416 392.154 237.29 392.143C237.161 392.131 237.046 392.071 236.947 391.99H236.928C236.83 391.911 236.756 391.807 236.718 391.686C236.68 391.563 236.681 391.43 236.718 391.305C236.767 391.14 236.875 391.004 237.023 390.924H237.043C237.185 390.846 237.36 390.825 237.519 390.866L237.52 390.866ZM243.735 393.382C244.111 392.118 244.102 390.771 243.711 389.511C243.32 388.251 242.564 387.136 241.539 386.306C240.514 385.477 239.265 384.97 237.952 384.85C236.638 384.73 235.319 385.002 234.161 385.632C233.002 386.263 232.057 387.223 231.444 388.391C230.831 389.558 230.578 390.882 230.718 392.193C230.858 393.505 231.383 394.745 232.229 395.758C233.073 396.77 234.2 397.51 235.465 397.881C237.158 398.38 238.98 398.185 240.531 397.342C242.081 396.498 243.234 395.074 243.735 393.382V393.382ZM180.026 497.452C177.276 497.2 174.51 497.774 172.082 499.09C169.657 500.408 167.655 502.413 166.367 504.862H166.387C165.096 507.31 164.555 510.074 164.844 512.825C165.131 515.561 166.226 518.168 167.987 520.293C169.753 522.421 172.117 523.983 174.769 524.77C176.529 525.293 178.365 525.458 180.198 525.265V525.284C182.03 525.094 183.807 524.538 185.418 523.665V523.646C187.03 522.769 188.454 521.587 189.609 520.159C190.763 518.733 191.64 517.102 192.162 515.34C192.946 512.688 192.923 509.861 192.104 507.224C191.283 504.583 189.698 502.237 187.551 500.5C185.403 498.761 182.778 497.705 180.026 497.452H180.026ZM178.674 510.73C178.758 510.721 178.846 510.728 178.921 510.749C179.047 510.786 179.162 510.859 179.245 510.959C179.33 511.061 179.385 511.179 179.398 511.302C179.411 511.432 179.383 511.566 179.322 511.682C179.261 511.793 179.161 511.892 179.055 511.949C178.945 512.009 178.819 512.037 178.693 512.025C178.565 512.014 178.431 511.954 178.331 511.873C178.233 511.794 178.16 511.692 178.121 511.568C178.084 511.45 178.084 511.312 178.121 511.187C178.146 511.106 178.184 511.023 178.236 510.958C178.288 510.893 178.353 510.846 178.426 510.806L178.446 510.786C178.515 510.748 178.585 510.739 178.674 510.729L178.674 510.73ZM185.139 513.259C185.513 511.996 185.503 510.65 185.112 509.391C184.721 508.133 183.965 507.019 182.941 506.19C181.916 505.361 180.669 504.854 179.357 504.733C178.045 504.613 176.726 504.884 175.568 505.512C174.41 506.141 173.464 507.099 172.85 508.265C172.236 509.431 171.981 510.754 172.119 512.063C172.256 513.374 172.778 514.615 173.621 515.628C174.463 516.643 175.586 517.384 176.849 517.759C177.689 518.008 178.57 518.09 179.441 517.999C180.312 517.908 181.157 517.645 181.927 517.228C182.697 516.81 183.377 516.244 183.928 515.563C184.479 514.882 184.89 514.1 185.139 513.259V513.259ZM185.417 631.831C182.652 631.831 179.942 632.64 177.645 634.174C175.347 635.71 173.559 637.905 172.501 640.461C171.446 643.011 171.161 645.825 171.701 648.538C172.241 651.245 173.574 653.744 175.53 655.701C177.483 657.652 179.982 658.971 182.693 659.511C185.402 660.049 188.216 659.787 190.771 658.73C193.324 657.672 195.501 655.868 197.038 653.567C198.573 651.269 199.4 648.579 199.4 645.814C199.4 642.109 197.922 638.546 195.305 635.927C192.685 633.31 189.123 631.831 185.417 631.831V631.831ZM185.532 645.166H185.551C185.676 645.191 185.787 645.25 185.875 645.338C185.967 645.43 186.022 645.559 186.047 645.681C186.072 645.808 186.055 645.948 186.009 646.062C185.959 646.181 185.885 646.277 185.78 646.348C185.673 646.419 185.546 646.462 185.418 646.462C185.247 646.462 185.079 646.39 184.961 646.271C184.842 646.153 184.77 645.985 184.77 645.814C184.77 645.684 184.794 645.56 184.866 645.452H184.885C184.958 645.345 185.052 645.254 185.171 645.205C185.251 645.171 185.333 645.185 185.419 645.185C185.459 645.185 185.494 645.158 185.533 645.166L185.532 645.166ZM185.415 639.142C184.096 639.142 182.808 639.533 181.713 640.265C180.616 640.997 179.762 642.038 179.258 643.256C178.753 644.474 178.621 645.814 178.878 647.107C179.136 648.399 179.77 649.587 180.702 650.52C181.635 651.451 182.822 652.086 184.115 652.344C185.407 652.6 186.747 652.469 187.966 651.964C189.183 651.46 190.225 650.606 190.957 649.509C191.689 648.414 192.08 647.124 192.08 645.807C192.08 644.039 191.377 642.344 190.128 641.094C188.878 639.844 187.182 639.142 185.415 639.142V639.142ZM109.655 425.594C106.89 425.594 104.18 426.403 101.883 427.938C99.5848 429.473 97.797 431.668 96.739 434.224C95.6805 436.779 95.4019 439.594 95.9389 442.301C96.4789 445.011 97.8128 447.509 99.768 449.464C101.723 451.419 104.221 452.734 106.931 453.274C109.638 453.811 112.455 453.55 115.008 452.493C117.564 451.435 119.74 449.628 121.276 447.331C122.812 445.031 123.638 442.339 123.638 439.577C123.638 435.872 122.162 432.31 119.542 429.69C116.922 427.071 113.36 425.594 109.655 425.594V425.594ZM109.769 438.93H109.789C109.914 438.955 110.023 439.011 110.113 439.101C110.205 439.194 110.259 439.319 110.284 439.444C110.309 439.565 110.296 439.704 110.246 439.825C110.196 439.944 110.123 440.04 110.017 440.111C109.913 440.181 109.785 440.225 109.656 440.225C109.485 440.225 109.317 440.153 109.198 440.035C109.078 439.914 109.008 439.746 109.008 439.577C109.008 439.451 109.031 439.323 109.103 439.215C109.174 439.11 109.289 439.017 109.408 438.968C109.525 438.92 109.65 438.905 109.77 438.93L109.769 438.93ZM109.652 432.905C108.335 432.905 107.046 433.296 105.95 434.028C104.854 434.761 103.999 435.801 103.495 437.02C102.991 438.237 102.859 439.577 103.115 440.87C103.373 442.163 104.008 443.351 104.939 444.282C105.872 445.215 107.06 445.85 108.352 446.107C109.646 446.364 110.985 446.232 112.203 445.728C113.421 445.223 114.462 444.369 115.194 443.273C115.927 442.176 116.317 440.888 116.317 439.57C116.317 437.802 115.615 436.107 114.365 434.857C113.115 433.607 111.42 432.905 109.652 432.905V432.905ZM529.577 599.846C526.867 600.386 524.37 601.72 522.414 603.675C520.459 605.63 519.124 608.124 518.585 610.838C518.046 613.549 518.327 616.36 519.385 618.915C520.443 621.464 522.229 623.646 524.529 625.183C526.829 626.72 529.54 627.545 532.301 627.545C536.004 627.545 539.567 626.073 542.188 623.449C544.81 620.829 546.284 617.267 546.284 613.562C546.284 610.797 545.457 608.087 543.922 605.79C542.387 603.492 540.21 601.704 537.655 600.646C535.099 599.588 532.285 599.309 529.577 599.846H529.577ZM532.301 612.915C532.428 612.915 532.556 612.957 532.663 613.029C532.77 613.1 532.845 613.202 532.892 613.315C532.942 613.435 532.954 613.571 532.93 613.696C532.905 613.825 532.849 613.929 532.759 614.019C532.666 614.112 532.56 614.185 532.435 614.21H532.415C532.294 614.234 532.174 614.222 532.053 614.172C531.934 614.122 531.819 614.029 531.748 613.924C531.678 613.819 531.653 613.692 531.653 613.562C531.653 613.394 531.722 613.226 531.843 613.105C531.966 612.983 532.135 612.915 532.301 612.915L532.301 612.915ZM538.964 613.564C538.964 612.246 538.573 610.958 537.841 609.861C537.108 608.765 536.067 607.911 534.849 607.407C533.632 606.902 532.292 606.771 530.998 607.027C529.706 607.285 528.518 607.92 527.586 608.851C526.654 609.783 526.019 610.971 525.763 612.264C525.505 613.557 525.637 614.897 526.141 616.115C526.646 617.333 527.5 618.374 528.596 619.106C529.692 619.839 530.981 620.229 532.298 620.229C534.067 620.229 535.762 619.527 537.011 618.277C538.262 617.028 538.964 615.332 538.964 613.564V613.564ZM319.054 304.55C316.343 304.01 313.534 304.289 310.977 305.35C308.421 306.408 306.245 308.198 304.709 310.494C303.174 312.791 302.347 315.501 302.347 318.266C302.347 321.965 303.829 325.515 306.443 328.134C309.063 330.756 312.625 332.23 316.33 332.23C319.095 332.23 321.805 331.422 324.102 329.887C326.4 328.351 328.188 326.155 329.246 323.6C330.303 321.046 330.584 318.25 330.046 315.542V315.522C329.506 312.812 328.172 310.334 326.217 308.379C324.262 306.424 321.768 305.089 319.054 304.55ZM316.33 317.599C316.498 317.599 316.666 317.688 316.787 317.809C316.901 317.929 316.978 318.101 316.978 318.266C316.978 318.394 316.934 318.523 316.863 318.628C316.793 318.733 316.697 318.807 316.578 318.856C316.498 318.89 316.413 318.875 316.33 318.876C316.285 318.877 316.24 318.903 316.197 318.896C316.068 318.87 315.963 318.815 315.873 318.724C315.78 318.631 315.707 318.505 315.682 318.381C315.658 318.257 315.672 318.137 315.72 318.019C315.77 317.899 315.863 317.785 315.968 317.714C316.073 317.644 316.2 317.6 316.33 317.6L316.33 317.599ZM316.328 324.924C317.646 324.924 318.934 324.533 320.03 323.8C321.127 323.068 321.981 322.027 322.485 320.81C322.99 319.591 323.121 318.251 322.865 316.959C322.607 315.665 321.972 314.477 321.041 313.546C320.108 312.614 318.92 311.979 317.628 311.722C316.335 311.465 314.995 311.596 313.777 312.101C312.559 312.606 311.518 313.46 310.786 314.555C310.053 315.652 309.662 316.94 309.662 318.259C309.662 320.026 310.364 321.722 311.615 322.971C312.864 324.221 314.559 324.924 316.328 324.924V324.924ZM322.998 502.405C319.295 502.405 315.732 503.877 313.111 506.5C310.495 509.12 309.015 512.669 309.015 516.368C309.015 519.134 309.842 521.843 311.377 524.141C312.912 526.439 315.088 528.226 317.644 529.284C320.2 530.343 323.014 530.622 325.722 530.085C328.432 529.545 330.929 528.211 332.885 526.255C334.84 524.3 336.174 521.822 336.714 519.112V519.092C337.251 516.384 336.972 513.589 335.914 511.034V511.014C334.856 508.465 333.069 506.283 330.77 504.747C328.47 503.21 325.759 502.404 322.998 502.404V502.405ZM322.864 515.74C322.985 515.715 323.125 515.728 323.245 515.778C323.365 515.828 323.461 515.901 323.531 516.006C323.601 516.111 323.645 516.239 323.645 516.368C323.645 516.533 323.569 516.704 323.455 516.826C323.332 516.948 323.163 517.035 322.998 517.035C322.871 517.035 322.743 516.992 322.636 516.921C322.529 516.85 322.435 516.748 322.388 516.635V516.615C322.354 516.533 322.369 516.453 322.369 516.368C322.369 516.328 322.342 516.292 322.349 516.253C322.374 516.128 322.449 516.001 322.54 515.911C322.632 515.818 322.738 515.764 322.863 515.739L322.864 515.74ZM316.33 516.376C316.33 517.693 316.721 518.982 317.453 520.078C318.186 521.174 319.227 522.029 320.445 522.533C321.662 523.037 323.002 523.169 324.296 522.912C325.588 522.655 326.776 522.02 327.707 521.088C328.64 520.156 329.275 518.968 329.532 517.676C329.789 516.382 329.657 515.042 329.153 513.825C328.648 512.607 327.794 511.566 326.698 510.833C325.602 510.101 324.313 509.711 322.995 509.711C321.227 509.711 319.532 510.412 318.282 511.663C317.032 512.912 316.33 514.608 316.33 516.376V516.376ZM438.308 341.05C435.597 340.51 432.787 340.771 430.231 341.831C427.676 342.889 425.498 344.698 423.963 346.994C422.428 349.291 421.601 351.982 421.601 354.747C421.601 358.452 423.077 362.014 425.697 364.634C428.316 367.254 431.879 368.73 435.584 368.73C438.349 368.73 441.059 367.922 443.356 366.387V366.367C445.652 364.832 447.442 362.654 448.5 360.1C449.56 357.543 449.84 354.734 449.3 352.022C448.762 349.308 447.429 346.815 445.471 344.86C443.518 342.906 441.023 341.588 438.308 341.05L438.308 341.05ZM435.584 354.099C435.754 354.099 435.922 354.172 436.041 354.29C436.162 354.411 436.231 354.577 436.231 354.747C436.231 354.875 436.188 355.004 436.117 355.109C436.047 355.214 435.951 355.307 435.831 355.357C435.711 355.406 435.577 355.42 435.45 355.395C435.322 355.369 435.215 355.312 435.127 355.223C435.034 355.13 434.961 355.008 434.936 354.88C434.911 354.753 434.924 354.619 434.974 354.499C435.024 354.379 435.117 354.284 435.222 354.213C435.327 354.143 435.456 354.099 435.584 354.099L435.584 354.099ZM435.581 361.419C436.9 361.419 438.188 361.028 439.285 360.295C440.38 359.563 441.234 358.522 441.739 357.305C442.244 356.087 442.376 354.746 442.118 353.454C441.862 352.161 441.227 350.973 440.294 350.041C439.362 349.109 438.175 348.474 436.881 348.217C435.589 347.96 434.249 348.092 433.031 348.597C431.813 349.101 430.773 349.955 430.04 351.051C429.308 352.147 428.916 353.436 428.916 354.754C428.916 356.522 429.619 358.217 430.868 359.466C432.119 360.717 433.814 361.419 435.581 361.419V361.419ZM388.701 437.196C385.994 437.735 383.494 439.051 381.539 441.006C379.584 442.961 378.249 445.461 377.71 448.169C377.169 450.884 377.454 453.695 378.51 456.246C379.567 458.799 381.353 460.996 383.653 462.533C385.95 464.067 388.66 464.876 391.426 464.876C395.131 464.876 398.693 463.397 401.313 460.78C403.93 458.161 405.408 454.598 405.408 450.893C405.408 448.128 404.583 445.438 403.046 443.14C401.509 440.836 399.332 439.035 396.779 437.977C394.228 436.921 391.416 436.655 388.701 437.196V437.196ZM391.426 450.245C391.553 450.245 391.681 450.288 391.788 450.36C391.895 450.432 391.967 450.527 392.016 450.645C392.064 450.76 392.081 450.896 392.054 451.026C392.03 451.148 391.973 451.26 391.883 451.35C391.793 451.44 391.68 451.517 391.559 451.541C391.429 451.567 391.293 451.55 391.178 451.503C391.064 451.455 390.966 451.36 390.892 451.255C390.82 451.147 390.778 451.021 390.778 450.893C390.778 450.723 390.85 450.554 390.968 450.436C391.087 450.318 391.255 450.245 391.426 450.245L391.426 450.245ZM398.088 450.9C398.088 449.581 397.697 448.293 396.964 447.198C396.233 446.101 395.191 445.247 393.974 444.743C392.756 444.238 391.416 444.106 390.123 444.363C388.83 444.621 387.643 445.255 386.71 446.187C385.778 447.12 385.144 448.307 384.886 449.6C384.629 450.892 384.762 452.232 385.266 453.451C385.77 454.668 386.625 455.71 387.721 456.442C388.816 457.174 390.105 457.565 391.423 457.565C393.191 457.565 394.886 456.863 396.136 455.613C397.386 454.363 398.088 452.668 398.088 450.9V450.9ZM478.98 687.42C476.274 687.959 473.775 689.289 471.817 691.249C469.871 693.2 468.526 695.683 467.988 698.392C467.448 701.104 467.731 703.916 468.788 706.47C469.845 709.016 471.626 711.218 473.932 712.756C476.229 714.291 478.939 715.099 481.704 715.099C485.409 715.099 488.972 713.623 491.591 711.004C494.211 708.384 495.687 704.822 495.687 701.117C495.687 698.351 494.862 695.662 493.325 693.363C491.79 691.065 489.613 689.259 487.057 688.201C484.505 687.143 481.694 686.879 478.98 687.42V687.42ZM481.704 700.469C481.834 700.469 481.961 700.513 482.066 700.583C482.179 700.658 482.248 700.757 482.295 700.869C482.344 700.987 482.358 701.123 482.333 701.25C482.308 701.373 482.244 701.487 482.161 701.574C482.067 701.668 481.959 701.74 481.838 701.764C481.71 701.79 481.574 701.775 481.457 701.726C481.342 701.678 481.241 701.578 481.171 701.479C481.099 701.371 481.057 701.244 481.057 701.117C481.057 700.946 481.129 700.778 481.247 700.66C481.368 700.539 481.536 700.469 481.704 700.469L481.704 700.469ZM488.367 701.124C488.367 699.805 487.976 698.517 487.243 697.421C486.511 696.325 485.47 695.47 484.252 694.966C483.035 694.462 481.695 694.329 480.401 694.587C479.109 694.844 477.921 695.478 476.989 696.411C476.057 697.343 475.422 698.53 475.165 699.824C474.908 701.116 475.04 702.456 475.544 703.674C476.049 704.892 476.903 705.933 477.999 706.665C479.095 707.397 480.384 707.788 481.701 707.788C483.47 707.788 485.165 707.086 486.414 705.837C487.665 704.586 488.367 702.891 488.367 701.124V701.124ZM449.891 527.837C447.125 527.837 444.416 528.664 442.118 530.199C439.82 531.734 438.033 533.91 436.975 536.466C435.916 539.021 435.637 541.836 436.174 544.544C436.714 547.254 438.048 549.751 440.004 551.706C441.959 553.661 444.456 554.996 447.166 555.535C449.874 556.073 452.688 555.794 455.244 554.735C457.8 553.677 459.976 551.89 461.511 549.592C463.048 547.292 463.873 544.581 463.873 541.819C463.873 538.117 462.401 534.554 459.778 531.932C457.158 529.31 453.596 527.837 449.891 527.837V527.837ZM450.005 541.191H450.024C450.15 541.216 450.258 541.272 450.348 541.362C450.441 541.455 450.495 541.561 450.52 541.686V541.706C450.544 541.827 450.531 541.947 450.482 542.067C450.432 542.187 450.358 542.302 450.253 542.372C450.148 542.443 450.021 542.468 449.891 542.468C449.723 542.468 449.555 542.399 449.434 542.277C449.311 542.155 449.243 541.986 449.243 541.82C449.243 541.694 449.267 541.566 449.339 541.458C449.409 541.353 449.524 541.279 449.644 541.23C449.764 541.18 449.884 541.167 450.006 541.192L450.005 541.191ZM449.888 535.156C448.57 535.156 447.282 535.547 446.185 536.28C445.089 537.012 444.235 538.053 443.73 539.271C443.226 540.489 443.094 541.829 443.351 543.122C443.608 544.414 444.243 545.602 445.175 546.534C446.107 547.466 447.295 548.101 448.588 548.359C449.881 548.615 451.221 548.484 452.438 547.979C453.657 547.475 454.697 546.621 455.43 545.524C456.162 544.428 456.552 543.14 456.552 541.822C456.552 540.054 455.851 538.358 454.601 537.109C453.351 535.858 451.656 535.156 449.888 535.156V535.156ZM398.074 662.693C395.312 662.696 392.617 663.52 390.321 665.055H390.301C388.003 666.591 386.218 668.779 385.158 671.341C384.105 673.892 383.818 676.708 384.358 679.419C384.897 682.136 386.23 684.625 388.187 686.581C390.143 688.538 392.65 689.871 395.369 690.41C398.081 690.947 400.894 690.668 403.446 689.61V689.63C406.005 688.571 408.195 686.769 409.732 684.467C411.27 682.166 412.095 679.463 412.095 676.695C412.099 674.858 411.732 673.048 411.028 671.342C410.324 669.635 409.3 668.089 407.999 666.789C406.694 665.482 405.151 664.444 403.446 663.741C401.745 663.038 399.923 662.691 398.093 662.693C398.086 662.693 398.08 662.693 398.073 662.693L398.074 662.693ZM398.094 670.008L398.113 676.085C398.145 676.085 398.177 676.06 398.209 676.065C398.332 676.09 398.445 676.149 398.533 676.237C398.62 676.324 398.679 676.436 398.704 676.561C398.728 676.683 398.731 676.811 398.685 676.923C398.635 677.042 398.538 677.141 398.437 677.208C398.339 677.274 398.232 677.319 398.113 677.323C398.107 677.323 398.1 677.323 398.094 677.323C398.019 677.321 397.94 677.296 397.865 677.265C397.788 677.233 397.717 677.19 397.655 677.132C397.597 677.073 397.538 677.006 397.503 676.922C397.47 676.841 397.465 676.754 397.465 676.675C397.468 676.556 397.495 676.43 397.56 676.332C397.63 676.228 397.73 676.151 397.846 676.103C397.921 676.072 398.012 676.084 398.094 676.083L398.094 670.008ZM398.09 670.003C396.768 670.003 395.476 670.395 394.377 671.129C393.278 671.864 392.421 672.907 391.916 674.128C391.41 675.351 391.277 676.694 391.535 677.991C391.793 679.287 392.43 680.478 393.364 681.412C394.299 682.347 395.49 682.984 396.787 683.241C398.083 683.5 399.427 683.367 400.648 682.861C401.869 682.356 402.913 681.499 403.648 680.4C404.382 679.301 404.774 678.008 404.774 676.687C404.776 675.808 404.605 674.938 404.27 674.126C403.935 673.314 403.443 672.577 402.821 671.955C402.201 671.334 401.463 670.841 400.651 670.507C399.839 670.171 398.969 670.001 398.09 670.003V670.003ZM548.399 329.925C545.681 329.381 542.861 329.648 540.302 330.706C537.742 331.764 535.555 333.565 534.016 335.868C532.48 338.167 531.654 340.869 531.654 343.641C531.65 345.472 531.996 347.285 532.701 348.994C533.402 350.699 534.434 352.228 535.73 353.528V353.547C537.028 354.846 538.568 355.871 540.264 356.576H540.284C541.972 357.276 543.782 357.641 545.618 357.643C545.624 357.643 545.631 357.643 545.637 357.643C548.396 357.648 551.092 356.825 553.391 355.3C555.702 353.766 557.507 351.587 558.572 349.032C559.635 346.48 559.929 343.657 559.392 340.936C558.856 338.219 557.518 335.735 555.562 333.773V333.754C553.608 331.795 551.117 330.468 548.4 329.925H548.399ZM545.637 343.012C545.643 343.012 545.649 343.012 545.656 343.012C545.738 343.014 545.815 343.04 545.885 343.07C545.962 343.102 546.036 343.145 546.094 343.203C546.146 343.255 546.194 343.34 546.227 343.413C546.264 343.5 546.285 343.58 546.285 343.66C546.282 343.779 546.234 343.907 546.171 344.003C546.102 344.106 545.999 344.184 545.885 344.232C545.816 344.258 545.731 344.25 545.656 344.251L545.637 350.328V344.251C545.599 344.251 545.561 344.278 545.523 344.271C545.4 344.246 545.284 344.185 545.199 344.099C545.11 344.011 545.051 343.898 545.027 343.775C545.003 343.651 545.019 343.524 545.065 343.414C545.112 343.301 545.206 343.199 545.313 343.128C545.409 343.067 545.523 343.016 545.637 343.013L545.637 343.012ZM545.634 350.331C546.956 350.335 548.251 349.946 549.352 349.213C550.454 348.482 551.313 347.439 551.822 346.218C552.331 344.997 552.466 343.653 552.21 342.354C551.954 341.057 551.319 339.864 550.386 338.928C549.451 337.992 548.26 337.353 546.963 337.093C545.667 336.834 544.322 336.966 543.1 337.471C541.877 337.976 540.832 338.832 540.097 339.933C539.362 341.032 538.969 342.324 538.969 343.648C538.967 344.524 539.137 345.393 539.471 346.203C539.805 347.015 540.296 347.751 540.915 348.372C541.534 348.993 542.27 349.485 543.079 349.822C543.889 350.157 544.757 350.331 545.634 350.331V350.331ZM648.26 304.74C645.55 305.28 643.051 306.598 641.097 308.55V308.57C639.146 310.523 637.807 313.002 637.268 315.714C636.73 318.422 637.011 321.237 638.068 323.791C639.126 326.347 640.914 328.542 643.211 330.078C645.507 331.61 648.219 332.421 650.984 332.421C654.689 332.421 658.251 330.942 660.871 328.325C663.488 325.706 664.967 322.143 664.967 318.438C664.967 315.676 664.144 312.987 662.604 310.685C661.069 308.387 658.893 306.58 656.337 305.522C653.784 304.465 650.967 304.204 648.26 304.741V304.74ZM650.984 317.79C651.114 317.79 651.242 317.835 651.346 317.904C651.451 317.974 651.525 318.07 651.574 318.19C651.623 318.308 651.637 318.447 651.612 318.571C651.588 318.695 651.528 318.807 651.441 318.895V318.914C651.351 319.004 651.242 319.061 651.117 319.086H651.098C650.977 319.11 650.852 319.095 650.736 319.048C650.621 319 650.52 318.9 650.45 318.8C650.375 318.688 650.336 318.564 650.336 318.438C650.336 318.268 650.408 318.099 650.526 317.981C650.645 317.862 650.813 317.79 650.983 317.79L650.984 317.79ZM657.646 318.444C657.646 317.127 657.256 315.837 656.523 314.742C655.791 313.645 654.75 312.791 653.532 312.287C652.313 311.782 650.974 311.651 649.681 311.907C648.389 312.165 647.201 312.8 646.268 313.731C645.337 314.664 644.702 315.851 644.444 317.144C644.188 318.436 644.319 319.777 644.824 320.995C645.328 322.213 646.182 323.254 647.279 323.986C648.375 324.718 649.663 325.109 650.981 325.109C652.749 325.109 654.444 324.407 655.694 323.157C656.944 321.907 657.646 320.212 657.646 318.444V318.444ZM435.184 0.643066C400.87 0.643066 367.95 14.27 343.686 38.5338C319.421 62.7977 305.795 95.718 305.795 130.032V140.223C275.9 154.817 256.217 174.722 248.74 198.193C234.92 170.491 210.781 149.301 181.455 139.347C152.012 129.353 119.787 131.443 91.8813 145.157L91.8622 145.177L86.2424 147.996C61.1789 160.371 41.3573 181.281 30.3493 206.975C19.9654 231.213 18.7957 258.122 25.6058 283.5C4.22556 302.003 -7.90775 335.116 5.83178 371.187C10.4897 383.415 28.5253 419.437 54.0858 469.124C79.6463 518.811 112.393 581.203 145.222 642.766C178.05 704.33 210.958 765.047 236.872 811.417C249.829 834.602 261.033 854.2 269.638 868.567C273.94 875.751 277.591 881.624 280.535 886.055C283.479 890.487 284.948 893.037 288.021 895.6L288.041 895.619L288.079 895.638C294.71 901.068 303.075 903.341 311.511 904.478C326.831 917.611 346.228 925.046 366.413 925.357H366.451H366.509C378.841 925.395 390.99 922.369 401.866 916.556C409.804 912.312 416.315 906.042 422.192 899.258C422.924 899.285 423.466 899.316 424.364 899.316C453.077 899.316 484.928 890.117 505.232 866.568C514.366 870.389 523.868 873.496 533.807 873.503H533.827C540.067 873.498 546.279 872.746 552.343 871.274L552.401 871.254H552.458C575.271 865.359 594.525 850.691 607.361 831.039C610.234 830.381 613.103 829.7 615.876 828.696H615.896L615.934 828.677C617.785 827.992 622.194 826.156 627.269 821.533C632.343 816.91 638.815 809.407 647.976 796.196C666.299 769.774 695.381 720.343 743.436 625.355C767.437 577.905 790.623 530.015 808.493 492.289C826.344 454.604 838.666 427.615 841.716 420.127C845.867 410.221 848.865 399.886 850.994 389.362C871.87 355.68 886.064 327.782 893.609 304.607C901.222 281.224 902.332 262.112 895.323 246.981L892.751 241.418L891.151 241.837C885.973 234.12 878.591 228.254 869.244 224.387C876.828 197.969 875.965 169.775 864.748 144.529C852.619 117.241 830.532 95.5964 803.004 84.0255C775.475 72.454 744.574 71.8242 716.592 82.2539C690.246 92.0745 669.036 111.546 655.518 136.07C636.139 133.669 618.891 135.815 605.53 144.491C603.16 146.036 601.293 148.193 599.205 150.091C590.495 141.772 578.982 135.988 564.591 132.794V130.032C564.591 95.7179 550.945 62.7977 526.682 38.5338C502.418 14.27 469.498 0.643066 435.184 0.643066ZM435.184 15.2736C465.624 15.2736 494.813 27.354 516.337 48.878C537.861 70.4021 549.961 99.5927 549.961 130.032V144.338L556.095 145.348C574.635 148.376 586.476 154.608 593.738 163.979L599.282 171.142L605.111 164.189C607.528 161.309 610.361 158.813 613.512 156.759C624.154 149.849 638.721 147.48 657.785 150.625L663.138 151.501L665.538 146.643C677.127 123.211 697.204 105.081 721.698 95.9509C746.193 86.8206 773.247 87.383 797.346 97.513C821.444 107.642 840.757 126.584 851.372 150.472C861.987 174.361 863.091 201.389 854.458 226.063L851.925 233.321L859.316 235.493C871.053 238.941 878.024 244.673 881.986 253.172L882.081 253.381C886.724 263.601 886.66 278.715 879.7 300.092C872.695 321.608 858.931 348.958 838.095 382.484L837.371 383.627L837.123 384.961C835.188 395.076 832.206 404.971 828.227 414.469L828.207 414.507L828.188 414.545C825.788 420.44 813.075 448.389 795.25 486.021C777.424 523.653 754.288 571.466 730.365 618.763C682.461 713.452 653.53 762.524 635.953 787.871C627.164 800.544 621.208 807.258 617.417 810.712C613.626 814.166 612.727 814.264 610.845 814.96C608.022 815.978 605.122 816.772 602.177 817.341L598.957 817.97L597.281 820.77C588.882 834.83 575.732 844.552 561.009 851.212H560.99C556.862 853.079 553.261 855.911 548.817 857.061C548.809 857.063 548.806 857.077 548.797 857.08C543.896 858.262 538.866 858.866 533.824 858.871C524.251 858.865 514.813 856.575 506.297 852.204L500.829 849.384L497.114 854.299C481.002 875.677 451.45 884.684 424.362 884.684C423.211 884.684 421.702 884.57 419.828 884.57H416.208L413.999 887.446C408.883 894.151 402.405 899.682 394.967 903.658C391.657 905.428 387.761 905.23 384.204 906.344L393.596 901.296C397.307 899.309 400.769 896.919 403.94 894.152L414.229 885.179L401.065 881.579C393.065 879.388 385.411 876.11 378.3 871.844L374.242 869.425L370.356 872.13C360.733 878.828 350.215 884.13 339.114 887.903L322.083 893.694L338.333 901.448C352.703 908.291 368.285 908.273 382.834 903.924V906.668C377.429 908.221 372.251 910.72 366.584 910.706C349.715 910.432 333.468 904.243 320.712 893.199L318.768 891.523L316.178 891.427C309.301 891.187 302.705 888.692 297.375 884.34C298.064 884.911 295.444 882.048 292.727 877.959C290.001 873.856 286.426 868.113 282.192 861.043C273.724 846.903 262.571 827.387 249.654 804.273C223.821 758.046 190.936 697.376 158.138 635.87C125.34 574.364 92.6117 512.017 67.097 462.418C41.5823 412.82 22.9449 375.004 19.5098 365.987C7.18129 333.62 19.1965 305.686 37.5884 291.843L41.7032 288.738L40.1601 283.823C32.8555 260.457 34.1572 235.252 43.7987 212.747C53.44 190.244 70.801 171.915 92.7576 161.083L98.3774 158.264L98.3393 158.302C122.774 146.294 150.969 144.465 176.75 153.216C202.531 161.966 223.786 180.575 235.862 204.975L241.825 217.053L245.711 217.567C247.405 217.788 249.083 218.093 250.74 218.481L258.684 220.348L259.656 212.233C262.534 188.431 281.082 167.087 316.14 151.139L320.426 149.196V130.032C320.426 99.5925 332.525 70.402 354.049 48.8779C375.573 27.354 404.745 15.2736 435.184 15.2736ZM560.991 851.213L559.391 849.632C570.028 845.011 579.897 838.796 587.433 829.838L596.043 819.589L582.784 817.875C561.44 815.11 542.053 801.935 532.473 794.119L525.882 788.747L521.557 796.063C518.601 801.06 515.29 805.851 511.67 810.388L510.127 812.312L510.069 814.789C510.056 815.37 509.753 815.904 509.727 816.484L491.629 829.648C479.885 838.198 466.492 844.197 452.29 847.25H452.271H452.251C443.924 849.075 435.421 849.995 426.896 849.993C412.089 849.993 398.319 847.28 387.5 843.326C376.681 839.372 368.879 833.854 366.183 830.219C365.803 829.705 363.759 825.027 362.22 818.485L361.02 813.379L360.868 813.36L358.374 796.31C353.41 762.193 349.727 710.126 347.248 664.921C342.442 577.269 340.919 487.75 343.4 443.14V443.12C344.516 422.97 354.291 404.096 370.013 385.665L370.756 384.808L371.118 383.931L371.918 383.455L372.661 382.617C395.233 357.255 428.472 333.344 461.93 309.826L465.912 307.045L464.864 302.282C464.844 302.193 464.833 302.122 464.826 302.054L464.845 302.282C464.401 296.1 460.149 291.532 455.567 288.567C450.985 285.602 445.502 283.54 439.318 281.728C426.95 278.104 411.742 275.719 397.636 273.46C378.869 270.454 359.177 267.269 342.372 261.82C334.141 259.152 326.755 255.919 320.388 252.048V164.131L322.312 150.549L309.758 157.007C297.168 163.463 284.581 171.858 275.315 183.124C266.049 194.39 260.294 208.945 262.361 225.663C266.475 258.737 270.844 316.457 275.81 384.141C276.307 390.859 276.818 397.647 277.315 404.525V404.545C286.519 530.43 296.84 672.768 310.386 745.123V745.161V745.18C313.426 760.714 320.354 775.232 330.503 787.377L330.98 787.967L331.57 788.424C331.699 788.526 331.813 788.658 331.894 788.805L332.294 789.51L332.827 790.12C337.029 794.852 341.644 799.201 346.62 803.112L359.498 813.228L355.802 812.885C355.591 812.864 355.395 812.802 355.211 812.694L355.192 812.675C352.962 811.295 350.758 809.786 348.543 808.179L330.274 794.901C330.185 794.122 329.718 793.434 329.646 792.653L329.436 790.424L327.988 788.671C317.769 776.273 310.808 761.538 307.719 745.77L307.7 745.713C304.41 728.095 301.28 706.008 298.289 680.904L297.775 676.599L294.898 675.437L297.432 673.665L296.956 669.36C296.714 667.177 296.474 664.981 296.232 662.749L295.87 659.454L293.831 658.025L295.527 656.234L295.165 652.9C289.338 598.089 284.13 532.914 279.277 468.286L278.839 462.342L276.287 462.018L278.782 461.314L278.325 455.332C277.038 438.439 275.804 421.573 274.591 404.963V404.944C274.106 398.2 273.628 391.529 273.143 384.96L273.105 384.484L273.01 384.008C272.42 381.183 271.148 377.983 266.533 371.187C261.917 364.391 254.084 354.887 240.701 342.402L240.681 342.383C231.319 333.7 217.503 333.535 202.201 334.954C186.898 336.373 169.461 340.172 152.48 343.85C124.121 350.022 95.8319 355.392 73.0788 353.661L42.0461 290.758L34.8451 297.673C21.2152 310.762 10.796 335.393 21.9863 364.996L22.0053 365.016C27.1539 378.533 45.2781 414.738 70.526 463.676C95.774 512.614 127.881 573.494 159.985 633.508C192.09 693.523 224.18 752.664 249.426 798.12C262.049 820.849 272.957 840.152 281.316 854.471C285.495 861.63 289.041 867.542 291.87 872.054C294.166 875.717 295.664 877.816 297.28 879.865L297.718 881.198L299.413 882.551C307.883 889.387 319.207 889.769 330.313 887.466C341.419 885.162 352.963 880.012 363.536 873.445L371.918 868.225L364.489 861.729C356.61 854.833 349.849 846.751 344.448 837.783L342.962 835.306L340.886 834.716L341.533 832.734L340.219 830.067C335.528 820.575 333.353 810.179 331.646 799.758L337.323 816.446C350.299 854.568 384.526 881.998 424.268 881.998H426.459L426.859 881.731C441.689 881.443 456.872 878.822 470.236 872.339C484.362 865.487 496.491 854.277 502.755 838.221L508.032 824.695C507.152 830.181 506.778 835.77 504.698 840.945L502.164 847.269L508.279 850.26C520.739 856.352 534.954 857.819 548.399 854.413L560.991 851.213ZM435.165 19.3503C405.699 19.3503 377.404 30.9638 356.431 51.6593C335.457 72.3549 323.486 100.474 323.093 129.936V129.994V130.032L323.112 250.905L327.132 252.943C347.164 263.031 373.971 267.081 398.094 270.946C415.557 273.746 431.724 276.408 443.871 280.433C456.018 284.458 463.349 289.52 466.141 296.187L469.646 304.569L477.095 299.331C503.061 281.059 527.751 263.072 545.37 244.733L548.018 241.971L547.256 238.218C547.239 238.128 547.237 238.041 547.237 237.951V129.994V129.936C546.843 100.474 534.853 72.3549 513.88 51.6593C492.906 30.9637 464.63 19.3503 435.165 19.3503L435.165 19.3503ZM435.165 33.9808C460.789 33.9808 485.372 44.063 503.612 62.0607C521.851 80.0585 532.264 104.505 532.606 130.127V236.369C517.736 251.415 496.437 267.224 473.703 283.347C467.478 275.78 459.045 270.052 448.462 266.545C434.523 261.926 417.884 259.306 400.417 256.505C377.892 252.897 354.355 248.521 337.742 241.189L337.723 130.127C338.065 104.505 348.477 80.0585 366.717 62.0607C384.957 44.0629 409.539 33.9808 435.164 33.9808H435.165ZM758.503 91.9313C745.372 91.8198 732.349 94.2865 720.174 99.2085C707.999 104.129 696.906 111.415 687.541 120.621C678.176 129.826 670.723 140.784 665.595 152.873L639.154 215.281L642.392 218.748C660.119 237.754 690.398 249.325 722.993 262.392C744.706 271.093 766.478 279.837 785.04 290.472L786.526 291.329L788.259 291.443C801.004 292.178 813.712 289.646 825.216 284.109L827.712 282.909L849.696 230.978C854.825 218.89 857.527 205.914 857.64 192.783C857.752 179.652 855.264 166.628 850.343 154.454C845.423 142.279 838.156 131.186 828.95 121.821C819.745 112.456 808.786 105.004 796.698 99.8752C784.61 94.7461 771.633 92.0439 758.503 91.9313ZM758.369 106.562C769.578 106.658 780.663 108.965 790.983 113.344C801.303 117.723 810.653 124.095 818.511 132.089C826.37 140.084 832.579 149.547 836.78 159.94C840.981 170.334 843.105 181.439 843.009 192.649C842.913 203.86 840.606 214.944 836.227 225.263L816.72 271.346C808.242 275.049 799.135 277.089 789.878 276.68C770.632 265.932 749.324 257.177 728.442 248.809C697.791 236.521 671.394 224.909 656.737 211.261L679.064 158.588C683.441 148.268 689.814 138.899 697.809 131.041C705.804 123.182 715.267 116.973 725.66 112.772C736.053 108.571 747.159 106.467 758.369 106.562V106.562ZM549.923 146.891V243.399C549.403 243.968 549.316 244.504 548.78 245.075C529.041 266.108 499.178 287.212 468.141 309.008C439.54 329.095 410.205 349.638 387.33 371.53C364.455 393.422 347.555 416.983 346.086 443.521C343.565 488.532 345.087 576.388 349.801 663.131C352.542 713.643 355.757 752.391 358.85 779.527C360.397 793.095 361.898 803.743 363.346 811.626C364.794 819.51 365.347 823.792 368.146 828.295L368.318 828.562L368.489 828.791C371.327 832.607 375.055 834.802 380.091 837.287C385.126 839.772 391.406 842.089 398.703 843.897C413.296 847.514 431.946 849.065 451.681 844.736L453.758 844.279L454.272 843.764C485.443 836.089 524.661 810.659 539.35 740.57V740.55C544.828 714.377 554.342 635.333 564.82 541.762C575.298 448.191 586.575 340.804 594.976 260.525L599.853 214.061V214.042C601.302 200.366 601.153 189.17 598.558 179.618L598.405 179.028L598.158 178.475C598.118 178.389 598.078 178.306 598.062 178.209L597.967 177.561L597.757 176.951C595.082 169.037 590.244 162.419 583.527 157.749C576.809 153.079 568.498 150.256 558.533 148.452L549.923 146.891ZM137.087 150.739C124.111 151.585 111.298 154.965 99.4061 160.817L93.8244 163.503L93.8053 163.522C69.9981 175.26 51.8197 195.977 43.2844 221.111C34.749 246.245 36.5398 273.75 48.2755 297.559L72.2215 346.042C72.2807 346.164 72.3234 346.285 72.3549 346.404L73.7837 351.719L79.2701 351.833C101.93 352.31 128.14 346.508 151.927 341.336C180.831 335.063 208.124 329.547 226.128 332.935L230.528 333.773L233.271 330.211C240.807 320.415 259.718 295.061 262.742 268.565L262.99 266.431L239.863 219.492L239.615 219.13C239.6 219.107 239.588 219.063 239.577 219.034L239.444 218.672L233.31 206.251C221.561 182.49 200.859 164.363 175.759 155.845C163.208 151.585 150.064 149.894 137.087 150.739V150.739ZM652.622 152.587C634.828 150.393 622.372 153.838 614.217 159.331C606.062 164.824 602.592 171.935 601.282 175.866L600.596 177.905L601.13 179.981C603.418 189.035 603.915 200.382 602.463 214.252L597.586 260.735V260.754C590.587 327.825 582.08 408.308 573.774 484.46L573.088 490.727L574.84 491.185L573.05 491.261L572.364 497.528C559.935 610.761 547.82 712.796 541.903 741.046V741.084V741.104C539.14 754.828 534.923 768.227 529.311 781.052L527.139 785.986L531.216 789.51C536.333 793.937 547.09 802.49 561.01 808.693C574.925 814.894 592.456 818.833 609.95 812.446C615.825 810.301 621.449 805.239 638.735 779.013C656.02 752.787 683.743 705.095 728.061 617.544C751.958 570.282 775.002 522.658 792.755 485.184C810.489 447.751 822.728 420.985 825.75 413.575C829.2 405.319 831.45 396.64 833.313 387.895L833.941 387.781L834.646 383.399L834.761 382.751C837.342 366.88 835.981 352.255 830.436 339.203L830.417 339.165C829.687 337.425 828.893 335.809 828.093 334.288L826.969 332.154L825.273 331.316L825.445 329.659L823.978 327.449C814.931 313.919 801.648 303.335 786.468 294.32L785.611 293.825L784.64 293.558C784.425 293.5 784.241 293.389 784.087 293.234L783.363 292.51L782.487 291.996C763.896 281.513 742.671 273.045 722.022 264.773C696.817 254.682 671.561 244.472 653.536 231.569C646.222 226.333 641.137 220.503 636.544 214.424L662.261 153.768L652.622 152.587ZM138.04 165.332C149.118 164.61 160.335 166.057 171.054 169.694C192.49 176.969 210.151 192.436 220.184 212.728L226.147 224.787L225.842 224.063C226.233 225.135 226.741 226.152 227.366 227.111L226.928 226.349L247.654 268.412C244.888 287.223 230.881 308.578 223.422 318.59C201.363 315.953 175.651 321.206 148.822 327.029C126.613 331.858 103.179 336.514 83.9755 336.821L61.401 291.081C51.3781 270.747 49.8443 247.281 57.1338 225.816C64.4188 204.364 79.912 186.694 100.225 176.666L105.845 173.942H105.865C116.021 168.945 126.962 166.053 138.04 165.332H138.04ZM564.553 165.941C565.986 166.428 567.498 166.894 568.725 167.446C567.595 167.533 566.444 167.426 565.353 167.751C565.061 167.838 564.839 168.066 564.553 168.17V165.941ZM640.659 167.237L638.506 172.304C636.241 169.991 633.093 169.079 629.952 168.456C632.735 167.596 636.55 167.404 640.659 167.237ZM305.757 178.038V186.153C304.718 185.704 303.749 185.098 302.633 184.877C300.66 184.487 298.628 184.515 296.651 184.877C299.534 182.438 302.484 180.192 305.757 178.038ZM570.059 181.734H570.078C570.258 181.753 570.415 181.797 570.574 181.886C570.732 181.975 570.88 182.084 570.993 182.229C571.103 182.37 571.174 182.548 571.221 182.724L571.259 182.82L571.279 182.916C576.424 200.15 569.494 216.166 557.334 232.56L563.678 220.692C569.94 208.996 572.446 196.214 568.707 183.678L568.669 183.582L568.65 183.486C568.592 183.312 568.559 183.127 568.573 182.953C568.588 182.773 568.643 182.598 568.726 182.439C568.807 182.283 568.925 182.138 569.069 182.02C569.21 181.903 569.374 181.823 569.545 181.772C569.718 181.72 569.887 181.714 570.059 181.734L570.059 181.734ZM627.171 182.057C627.526 182.071 627.861 182.221 628.105 182.477C628.348 182.732 628.47 183.075 628.467 183.429L628.486 183.22C628.313 187.682 628.776 192.147 629.858 196.479L633.591 211.452C628.359 203.352 625.408 194.253 625.819 183.239C625.864 182.927 625.983 182.632 626.219 182.42C626.481 182.183 626.817 182.044 627.172 182.058L627.171 182.057ZM284.192 196.669C284.124 196.939 283.923 197.157 283.869 197.431C280.238 215.681 282.912 232.524 292.27 245.952C302.693 260.98 319.476 269.787 337.857 275.746C356.238 281.705 376.573 284.895 395.331 287.9C409.434 290.159 424.314 292.577 435.203 295.768C440.648 297.363 445.079 299.208 447.624 300.854C448.383 301.346 448.02 301.258 448.405 301.597C416.59 324.014 384.724 347.063 361.727 372.902L363.422 371.492C360.874 373.022 358.888 375.324 357.726 378.064L358.888 376.159C341.901 396.074 330.137 417.963 328.789 442.321C326.23 488.329 327.81 577.699 332.637 665.721C334.758 704.405 338.237 745.025 342.238 778.841C341.677 778.232 341.291 777.471 340.638 776.955L341.724 778.003C333.168 767.765 327.342 755.529 324.769 742.436C311.619 672.196 301.111 529.363 291.908 403.477C291.41 396.589 290.9 389.78 290.403 383.056C285.435 315.351 281.091 257.727 276.877 223.854C275.558 213.147 278.821 204.567 284.192 196.669V196.669ZM299.261 199.222C299.437 199.187 299.619 199.188 299.794 199.222C299.965 199.256 300.125 199.315 300.271 199.412C300.421 199.513 300.536 199.648 300.633 199.793C300.732 199.941 300.807 200.094 300.842 200.269C300.876 200.442 300.875 200.616 300.842 200.784V200.803C298.183 214.284 299.792 226.468 306.5 236.103L306.558 236.199L314.387 246.81C310.766 243.902 306.779 241.214 304.291 237.627V237.608C297.381 227.703 295.161 215.613 298.214 200.27C298.248 200.099 298.325 199.941 298.423 199.793C298.519 199.649 298.638 199.511 298.785 199.412C298.933 199.313 299.091 199.256 299.261 199.222L299.261 199.222ZM616.751 209.623C622.588 223.088 632.441 234.45 645.021 243.456C665.268 257.95 691.373 268.266 716.573 278.356C737.221 286.627 757.921 294.949 775.286 304.74L773.686 303.521C775.657 305.512 778.113 306.942 780.81 307.674L779.001 306.912C792.961 315.203 804.301 324.542 811.615 335.373C811.975 336.648 812.007 338.012 812.719 339.145C813.359 340.161 814.48 340.694 815.348 341.507C815.947 342.662 816.503 343.775 816.949 344.841V344.86L816.968 344.88C820.779 353.834 821.708 364.033 820.53 375.513L820.13 375.589V381.189C818.46 390.353 815.854 399.323 812.263 407.917L812.243 407.955V407.993C809.871 413.815 797.243 441.536 779.534 478.917C761.825 516.297 738.832 563.823 715.011 610.934C670.838 698.2 643.276 745.538 626.523 770.955C609.771 796.373 602.593 799.568 604.94 798.711C592.252 803.348 578.839 800.627 566.973 795.339C556.833 790.821 549.691 785.041 544.608 780.899C549.424 768.928 553.677 756.714 556.228 744.056C562.645 713.422 574.202 614.063 586.423 502.92C587.197 502.44 588.226 502.521 588.899 501.891V501.871C591.339 499.589 592.881 496.503 593.243 493.185C593.603 489.863 592.757 486.527 590.862 483.774V483.754C590.352 483.015 589.361 482.871 588.728 482.249C596.902 407.219 605.239 328.222 612.121 262.277V262.258L617.017 215.776C617.263 213.427 616.604 211.874 616.751 209.622V209.623ZM585.242 210.785C585.173 211.521 585.379 211.76 585.299 212.519L580.422 259.001C572.022 339.276 560.754 446.649 550.285 540.143C539.816 633.637 529.983 713.961 525.044 737.56C510.885 805.118 475.782 824.443 448.576 830.41L448.31 830.467C431.276 834.158 414.865 832.837 402.227 829.705C395.879 828.132 390.488 826.116 386.568 824.181C382.812 822.327 380.62 820.296 380.51 820.237C380.907 820.77 379.059 816.12 377.748 808.979C376.396 801.621 374.907 791.223 373.385 777.87C370.341 751.164 367.142 712.65 364.413 662.35C359.718 575.964 358.235 487.916 360.679 444.321C361.824 423.625 375.795 402.823 397.445 382.103C419.096 361.383 447.94 341.06 476.542 320.971C507.58 299.175 538.063 277.903 559.467 255.096C572.347 241.371 581.335 226.45 585.242 210.785V210.785ZM850.648 235.988L836.17 269.764L851.62 264.621C851.901 264.527 852.195 264.521 852.477 264.621C852.757 264.719 853.005 264.908 853.163 265.154C853.322 265.402 853.399 265.697 853.372 265.992C853.346 266.289 853.213 266.575 853.01 266.793L852.972 266.812L852.953 266.85C841.479 279.492 826.419 288.338 809.785 292.187L795.212 295.559L806.813 304.988C818.397 314.403 827.378 325.132 832.912 338.136C834.967 342.978 836.482 348.031 837.427 353.204L844.628 351.89L851.048 355.528C864.384 331.937 873.556 311.972 878.537 295.349C883.519 278.726 884.666 265.135 879.68 254.315V254.296H879.661C875.694 245.773 867.333 240.191 856.706 237.512L850.648 235.988ZM866.231 260.354C866.256 260.404 866.379 260.417 866.403 260.468C866.557 260.804 866.477 261.559 866.612 261.935C866.469 261.404 866.429 260.868 866.231 260.354V260.354ZM867.508 268.24C867.96 274.023 867.53 281.165 864.536 291.158C861.36 301.755 853.403 316.977 845.943 331.696C840.891 320.135 833.173 310.577 824.378 301.94C839.223 296.49 853.022 288.509 863.736 276.718C865.897 274.386 867.017 271.366 867.508 268.24ZM265.257 281.804L253.484 303.959C249.025 312.347 243.936 320.382 238.263 328.001L233.767 334.059L239.939 338.364C240.854 339.003 241.718 339.706 242.53 340.459C248.707 346.2 253.713 351.329 257.827 355.928L270.591 370.216V351.051V350.766L270.571 350.499C269.432 335.142 268.322 320.515 267.238 306.817L265.257 281.804ZM39.2076 318.075L45.8371 331.525C45.304 331.637 44.7791 331.224 44.2559 331.392C40.2222 332.682 36.8606 335.533 34.9213 339.297C32.9817 343.062 32.6207 347.437 33.9117 351.47C35.2023 355.505 38.0351 358.866 41.7984 360.805C73.2928 377.05 115.779 366.82 155.585 358.157C172.562 354.479 189.657 350.816 203.553 349.527C217.449 348.239 227.499 350.124 230.738 353.128C243.473 365.011 250.588 373.751 254.436 379.417C258.219 384.987 258.893 388.236 258.608 386.866C259.073 393.17 259.533 399.546 259.999 406.011C261.125 421.434 262.276 437.109 263.466 452.817C262.856 453.413 261.904 453.56 261.408 454.265C259.562 456.897 258.677 460.089 258.913 463.295C259.147 466.508 260.494 469.536 262.704 471.867C263.31 472.507 264.283 472.521 264.99 473.029C269.705 535.659 274.763 598.584 280.42 652.177C280.214 652.605 279.839 652.928 279.678 653.377C278.634 656.249 278.554 659.397 279.468 662.312C279.875 663.609 281.06 664.4 281.811 665.512C281.912 666.441 282.015 667.357 282.116 668.274C281.73 668.871 281.056 669.239 280.763 669.893V669.913C279.743 672.199 279.35 674.715 279.639 677.209C279.928 679.701 280.899 682.073 282.421 684.067C282.871 684.657 283.62 684.893 284.154 685.401C287.057 709.416 290.089 731.075 293.337 748.457V748.476L293.356 748.514C296.795 766.128 304.609 782.53 315.797 796.54C317.277 809.399 320.853 821.887 326.294 833.63C326.234 834.131 326.049 834.612 326.046 835.116V835.154V835.174C326.048 838.206 327.041 841.157 328.866 843.575C329.791 844.801 331.325 845.255 332.58 846.109C336.765 852.919 342.396 858.602 347.878 864.397C340.871 867.982 333.659 871.83 327.341 873.141C318.739 874.925 312.428 873.861 308.939 871.198C308.375 870.467 306.707 868.166 304.272 864.282C301.581 859.99 298.079 854.179 293.947 847.099C285.681 832.939 274.821 813.69 262.228 791.016C237.041 745.664 204.96 686.574 172.882 626.612C140.805 566.649 108.716 505.811 83.5182 456.97C58.3264 408.14 39.7632 370.54 35.6833 359.833C28.7017 341.364 32.9383 328.209 39.2076 318.076V318.075ZM254.322 329.887C254.369 330.504 254.427 331.114 254.474 331.734C254.171 331.446 253.983 331.225 253.674 330.934C253.908 330.597 254.09 330.226 254.322 329.887H254.322ZM810.567 331.792C810.567 331.859 810.622 331.914 810.624 331.982C810.632 332.172 810.604 332.366 810.624 332.554L810.567 331.792ZM48.7136 345.317C49.0561 345.208 49.4216 345.247 49.7423 345.413C51.9299 346.535 54.2079 347.487 56.5432 348.251L73.0597 353.662C63.8875 352.962 55.4068 351.373 48.5041 347.813C48.1826 347.647 47.9471 347.356 47.8373 347.013C47.7279 346.671 47.7487 346.304 47.9135 345.984H47.9325C48.0976 345.664 48.3708 345.427 48.7136 345.317H48.7136ZM273.105 384.808C273.112 384.907 273.103 384.999 273.105 385.094L269.2 384.942L273.105 384.808ZM273.105 385.342C273.103 385.436 273.112 385.529 273.105 385.627L269.2 385.494L273.105 385.342ZM529.768 809.836C538.764 816.559 551.699 823.206 567.563 827.952C560.78 833.45 553.291 838.004 544.741 840.183L544.398 840.278C536.202 842.27 527.791 841.319 519.881 838.602C521.904 831.884 523.691 825.101 524.091 818.085C526.14 815.449 527.913 812.611 529.768 809.836L529.768 809.836ZM464.902 858.433C464.503 858.636 464.24 858.979 463.835 859.176C462.877 859.64 461.55 859.438 460.559 859.861C462.037 859.471 463.442 858.879 464.902 858.433V858.433ZM392.073 858.699C402.785 861.698 413.898 864.624 426.897 864.624C434.376 864.626 441.782 863.476 449.148 862.224C440.939 864.367 433.028 867.348 424.325 867.348H424.154C412.636 867.329 402.016 863.743 392.073 858.699H392.073ZM374.795 886.113C377.254 887.452 379.936 888.27 382.491 889.408C376.065 892.031 369.329 893.086 362.26 892.437C366.43 890.288 370.857 888.674 374.795 886.113ZM888.607 250.079C883.715 239.587 874.586 232.361 861.369 228.478C870.615 202.048 869.433 173.086 858.063 147.498C846.692 121.91 825.99 101.621 800.177 90.7712C774.363 79.9204 745.384 79.3243 719.146 89.1043C692.908 98.8843 671.39 118.304 658.976 143.403C638.721 140.061 622.086 142.47 609.522 150.628C605.768 153.075 602.395 156.063 599.515 159.496C590.834 148.294 576.925 141.33 557.267 138.119V130.036C557.267 97.6592 544.405 66.608 521.511 43.714C498.617 20.8201 467.566 7.95832 435.189 7.95832C402.813 7.95832 371.762 20.8201 348.868 43.714C325.973 66.608 313.112 97.6592 313.112 130.036V144.486C276.669 161.064 255.667 184.344 252.4 211.359C250.502 210.914 248.583 210.566 246.65 210.313L242.412 201.725C229.477 175.592 206.708 155.654 179.096 146.281C151.484 136.909 121.283 138.868 95.1126 151.73L89.5121 154.53C65.9929 166.132 47.393 185.754 37.0655 209.86C26.7379 233.966 25.3625 260.968 33.187 285.998C12.2028 301.792 -0.734935 333.399 12.6695 368.59C28.8557 411.081 273.832 874.244 292.706 889.982C299.28 895.365 307.439 898.441 315.931 898.738C330.002 910.92 347.915 917.755 366.524 918.041C377.646 918.076 388.603 915.349 398.411 910.107C406.772 905.637 414.074 899.424 419.825 891.886C421.337 891.886 422.849 891.998 424.361 891.998C453.037 891.998 484.905 882.664 502.958 858.711C512.507 863.612 523.085 866.171 533.818 866.178C539.479 866.174 545.12 865.497 550.621 864.162C572.797 858.432 591.82 844.192 603.567 824.528C606.905 823.882 610.188 822.977 613.387 821.82C620.854 819.057 640.942 811.739 736.901 622.061C784.825 527.315 829.538 430.647 834.971 417.298C839.146 407.331 842.274 396.957 844.305 386.344C886.329 318.725 900.424 275.412 888.681 250.059L888.607 250.079ZM672.325 155.725C677.078 144.521 683.992 134.362 692.672 125.831C701.352 117.298 711.627 110.559 722.911 105.999C734.195 101.437 746.267 99.1437 758.437 99.2471C770.607 99.3515 782.638 101.852 793.842 106.606C805.046 111.36 815.205 118.274 823.736 126.953C832.269 135.633 839.008 145.908 843.568 157.192C848.129 168.476 850.423 180.548 850.319 192.719C850.215 204.889 847.715 216.919 842.961 228.123L822.051 277.522C811.665 282.521 800.178 284.794 788.671 284.131C769.479 273.135 747.43 264.305 725.719 255.604C693.122 242.536 663.513 230.681 647.737 213.767L672.325 155.725ZM330.399 130.036C330.767 102.493 341.966 76.2038 361.573 56.8572C381.18 37.5105 407.616 26.6632 435.162 26.6632C462.706 26.6632 489.143 37.5105 508.75 56.8572C528.356 76.2038 539.555 102.493 539.923 130.036V237.943C539.922 238.52 539.979 239.095 540.092 239.661C523.195 257.248 498.776 275.132 472.882 293.353C464.892 274.274 434.181 269.327 399.252 263.725C375.131 259.861 348.732 255.623 330.418 246.401L330.399 130.036ZM313.075 163.64V232.716L312.496 231.932C307.063 224.128 305.607 214.42 308.015 202.211C308.236 201.097 308.235 199.95 308.013 198.836C307.789 197.722 307.35 196.663 306.719 195.719C306.086 194.775 305.275 193.965 304.33 193.334C303.385 192.704 302.324 192.266 301.211 192.045C300.096 191.825 298.95 191.826 297.835 192.048C296.721 192.271 295.663 192.711 294.719 193.343C293.774 193.975 292.964 194.786 292.334 195.731C291.704 196.677 291.266 197.736 291.045 198.851C287.703 215.652 290.149 230.121 298.288 241.789C316.417 267.926 358.963 274.666 396.488 280.677C424.697 285.195 456.659 290.329 457.555 302.8C457.591 303.152 457.648 303.501 457.723 303.846C424.231 327.387 390.608 351.452 367.196 377.756C365.971 378.492 365.01 379.596 364.452 380.912C348.098 400.084 337.326 420.472 336.094 442.726C333.573 488.035 335.123 577.479 339.94 665.317C342.423 710.609 346.1 762.714 351.141 797.364C346.508 793.722 342.209 789.673 338.297 785.267C337.747 784.271 337.005 783.395 336.112 782.69C326.754 771.491 320.377 758.108 317.574 743.783C304.225 672.486 293.808 529.891 284.604 404.005C284.107 397.122 283.608 390.321 283.111 383.6C278.144 315.905 273.776 258.237 269.613 224.763C265.991 195.471 289.028 175.85 313.094 163.509L313.075 163.64ZM265.805 385.094V385.336C265.799 385.255 265.799 385.174 265.805 385.094ZM263.284 351.06C259.008 346.28 253.837 340.978 247.509 335.098C246.447 334.112 245.317 333.202 244.129 332.372C250.023 324.456 255.31 316.106 259.942 307.392C261.026 321.077 262.145 335.695 263.284 351.041V351.06ZM97.0351 170.081L102.636 167.375C124.684 156.526 150.134 154.867 173.403 162.764C196.672 170.661 215.857 187.465 226.748 209.492L232.704 221.552C232.905 222.102 233.168 222.629 233.488 223.12L255.481 267.74C252.811 291.132 234.758 316.279 227.477 325.744C206.94 321.88 179.273 327.91 150.373 334.183C126.589 339.354 100.676 344.973 79.4307 344.526C79.2785 343.953 79.0717 343.397 78.8142 342.864L54.8431 294.324C43.9638 272.253 42.2971 246.765 50.2096 223.465C58.122 200.165 74.9654 180.962 97.0351 170.081V170.081ZM303.983 876.801C285.594 856.266 47.2821 410.838 28.837 362.411C18.625 335.396 28.1463 314.244 39.9078 302.95L58.8196 341.296C56.8492 340.651 54.9327 339.853 53.0883 338.907C51.0457 337.854 48.6691 337.656 46.4808 338.356C44.2926 339.057 42.4722 340.598 41.42 342.64C40.3678 344.683 40.1701 347.06 40.8703 349.247C41.5705 351.436 43.1114 353.256 45.1538 354.309C72.9152 368.627 114.23 359.666 154.033 351.004C187.991 343.648 223.108 336.068 235.71 347.755C261.847 372.137 265.58 384.253 265.842 385.505C266.327 392.076 266.812 398.735 267.298 405.48C268.511 422.096 269.743 438.972 271.032 455.887C269.559 456.3 268.274 457.209 267.396 458.46C266.517 459.713 266.098 461.229 266.211 462.755C266.322 464.28 266.959 465.719 268.011 466.829C269.063 467.939 270.467 468.651 271.984 468.843C276.838 533.494 282.047 598.706 287.89 653.668C287.295 654.302 286.838 655.051 286.546 655.871C286.048 657.236 286.013 658.728 286.448 660.115C286.883 661.503 287.764 662.708 288.954 663.544C289.197 665.784 289.44 667.988 289.682 670.171C288.706 670.86 287.934 671.798 287.446 672.889C286.96 673.979 286.774 675.181 286.912 676.367C287.049 677.554 287.504 678.681 288.228 679.631C288.952 680.581 289.919 681.318 291.027 681.765C294.032 706.987 297.187 729.222 300.529 747.106C303.845 764.09 311.347 779.979 322.353 793.332C323.645 807.236 327.48 820.784 333.667 833.303C333.472 833.905 333.371 834.535 333.368 835.169C333.368 836.612 333.84 838.016 334.709 839.167C335.578 840.319 336.798 841.157 338.185 841.554C343.977 851.17 351.226 859.83 359.673 867.224C339.715 879.621 315.912 886.472 304.001 876.858L303.983 876.801ZM390.141 894.835C375.299 902.789 357.545 902.49 341.47 894.835C353.219 890.841 364.349 885.216 374.534 878.127C382.218 882.735 390.497 886.272 399.139 888.638C396.384 891.042 393.365 893.128 390.141 894.854V894.835ZM424.268 874.691C387.9 874.691 356.312 849.526 344.252 814.092C346.567 815.772 348.92 817.396 351.365 818.908C352.498 819.602 353.775 820.031 355.099 820.159C356.723 827.067 358.459 832.07 360.307 834.571C368.728 845.923 395.518 857.311 426.9 857.311C435.953 857.313 444.979 856.337 453.821 854.399C469.022 851.13 483.369 844.713 495.939 835.562C484.868 863.938 453.803 874.654 424.324 874.654L424.268 874.691ZM450.106 837.596C413.253 845.68 379.835 831.79 374.365 824.435C369.885 817.229 362.586 763.554 357.115 662.741C352.411 576.172 350.898 488.222 353.381 443.92C355.995 396.687 415.138 355.167 472.341 314.991C534.416 271.398 593.037 230.215 578.288 180.816C577.988 179.698 577.467 178.652 576.756 177.739C576.044 176.826 575.157 176.065 574.146 175.5C573.135 174.937 572.022 174.581 570.871 174.454C569.721 174.326 568.557 174.431 567.448 174.762C566.339 175.093 565.307 175.643 564.413 176.378C563.521 177.115 562.784 178.022 562.247 179.048C561.711 180.073 561.385 181.196 561.289 182.349C561.194 183.502 561.331 184.664 561.691 185.763C564.809 196.218 562.867 206.71 557.23 217.239V155.65C575.898 159.029 586.335 165.992 590.834 179.303C590.952 180.078 591.179 180.833 591.506 181.544C593.728 189.721 593.97 200.083 592.57 213.281L587.697 259.768C570.896 420.322 542.612 689.289 532.194 739.061C517.576 808.808 479.51 831.118 450.143 837.559L450.106 837.596ZM546.607 847.322C534.839 850.304 522.396 849.014 511.49 843.682C515.167 834.537 517.166 824.804 517.39 814.95C521.222 810.145 524.715 805.08 527.844 799.791C537.982 808.062 558.2 822.063 581.835 825.125C572.677 836.012 560.337 843.755 546.551 847.267L546.607 847.322ZM827.447 381.602C827.447 381.77 827.447 381.939 827.447 382.106C825.687 391.932 822.857 401.536 819.009 410.745C813.631 423.944 769.255 519.866 721.536 614.239C633.045 789.056 610.978 804.29 607.45 805.579C577.262 816.612 545.562 792.248 536.003 783.978C541.825 770.675 546.205 756.787 549.071 742.551C555.288 712.868 567.199 611.588 579.632 498.321C581.223 498.257 582.738 497.623 583.9 496.537C585.063 495.449 585.796 493.981 585.969 492.399C586.141 490.816 585.739 489.224 584.837 487.913C583.933 486.602 582.59 485.658 581.051 485.254C589.359 409.083 597.854 328.582 604.854 261.504L609.746 215.017C611.258 200.568 610.791 188.377 608.215 178.184C610.082 172.583 618.726 155.78 651.733 159.851L636.947 194.705C636.033 191.046 635.643 187.274 635.789 183.504C635.813 181.247 634.956 179.07 633.399 177.436C631.843 175.803 629.709 174.841 627.454 174.755C625.199 174.67 623 175.468 621.324 176.981C619.648 178.493 618.629 180.599 618.483 182.851C616.616 230.513 668.89 251.385 719.296 271.566C739.944 279.837 760.91 288.238 778.888 298.375C779.95 299.448 781.278 300.221 782.734 300.616C797.352 309.297 809.71 319.285 817.888 331.513C817.879 331.594 817.879 331.675 817.888 331.756C817.893 332.996 818.245 334.209 818.905 335.259C819.566 336.308 820.507 337.152 821.622 337.692C822.369 339.111 823.078 340.549 823.694 342.024C828.66 353.692 829.948 366.78 827.54 381.584L827.447 381.602ZM844.622 351.899C843.579 346.189 841.907 340.61 839.638 335.265C833.551 320.965 823.694 309.278 811.428 299.309C829.512 295.124 845.888 285.517 858.363 271.772C859.673 270.366 860.477 268.565 860.65 266.651C860.822 264.739 860.352 262.822 859.313 261.206C858.275 259.589 856.728 258.365 854.916 257.726C853.104 257.087 851.131 257.069 849.308 257.677L854.909 244.608C864.243 246.961 870.143 251.162 873.036 257.379C880.505 273.583 871.02 305.321 844.678 351.919" fill="black"/>
</svg>
