<?xml version="1.0" encoding="UTF-8" standalone="no"?>
<svg
   width="1000"
   height="1000"
   viewBox="0 0 1000 1000"
   fill="none"
   version="1.1"
   id="svg134"
   sodipodi:docname="viandes.svg"
   inkscape:version="1.2.1 (9c6d41e, 2022-07-14)"
   xmlns:inkscape="http://www.inkscape.org/namespaces/inkscape"
   xmlns:sodipodi="http://sodipodi.sourceforge.net/DTD/sodipodi-0.dtd"
   xmlns="http://www.w3.org/2000/svg"
   xmlns:svg="http://www.w3.org/2000/svg">
  <sodipodi:namedview
     id="namedview6613"
     pagecolor="#ffffff"
     bordercolor="#111111"
     borderopacity="1"
     inkscape:showpageshadow="0"
     inkscape:pageopacity="0"
     inkscape:pagecheckerboard="1"
     inkscape:deskcolor="#d1d1d1"
     showgrid="false"
     inkscape:zoom="2.858378"
     inkscape:cx="47.404507"
     inkscape:cy="41.282154"
     inkscape:window-width="1309"
     inkscape:window-height="456"
     inkscape:window-x="270"
     inkscape:window-y="1214"
     inkscape:window-maximized="0"
     inkscape:current-layer="svg134" />
  <defs
     id="defs138" />
  <g
     id="g2011"
     transform="matrix(9.4612169,0,0,9.4612169,50.001741,109.41531)">
    <g
       id="path132">
      <path
         id="path2017"
         style="color:#000000;fill:#000000;stroke-miterlimit:10;-inkscape-stroke:none"
         d="M 61.609375,0.00390625 C 60.040652,-0.0434231 58.507595,0.4739032 57.289062,1.4628906 56.070508,2.4518397 55.247157,3.845735 54.970703,5.390625 c -0.240608,1.344479 0.02161,2.7000444 0.601563,3.9257813 L 51.708984,13.476563 C 48.249835,12.30507 44.333859,12.156341 40.482422,13.195313 h -0.002 c -4.370116,1.186944 -8.397788,3.661284 -11.646485,7.169921 -3.975208,4.290525 -6.338994,9.768715 -6.591797,15.183594 -4.625155,4.540396 -8.652206,9.644365 -12.02539,15.177734 -1.2852312,-0.5212 -2.8220858,-0.943058 -4.4433595,-0.822265 -1.8641194,0.138886 -3.7891363,1.038534 -5.01367188,3.136719 -0.9417434,1.615338 -0.99826516,3.505933 -0.22460937,5.388671 v 0.002 c 1.15490365,2.795888 3.91309945,5.409546 7.12695315,7.732421 2.2938727,1.657941 4.7715096,3.05333 7.1562496,4.277344 H 6.1582031 c -1.4930459,0.0013 -2.9246731,0.594572 -3.9804687,1.650391 -1.0557651,1.055788 -1.64922586,2.489302 -1.65039065,3.982422 v 0.859375 c 0.001753,1.492761 0.59468845,2.925147 1.65039065,3.980468 1.0557185,1.05535 2.4877509,1.649238 3.9804687,1.650391 H 89.494141 c 1.49236,-0.0017 2.923293,-0.595168 3.978515,-1.650391 C 94.527879,79.858886 95.12327,78.426 95.125,76.93364 V 76.074265 C 95.1238,74.581581 94.529969,73.149502 93.474609,72.093796 92.41927,71.037995 90.986841,70.443297 89.494141,70.441452 l -0.75,-0.002 v 0.0078 h -19.125 c 4.989243,-3.969878 8.813674,-8.674082 11.027343,-13.902344 2.541801,-5.987181 2.902103,-12.389782 1.03125,-18.083985 0.636165,-4.337896 -0.09933,-8.518917 -2.072265,-11.976562 l 3.373047,-3.640625 c 1.124681,0.433694 2.331752,0.618612 3.52539,0.402344 1.39135,-0.251978 2.665815,-0.945136 3.632813,-1.976563 v -0.002 l 0.002,-0.002 c 0.585725,-0.63045 1.04238,-1.369016 1.341797,-2.175781 0.299286,-0.806719 0.4351,-1.665355 0.402343,-2.525391 -0.03275,-0.859862 -0.233889,-1.704598 -0.59375,-2.486328 -0.35985,-0.781709 -0.869885,-1.484295 -1.501953,-2.068359 -0.838881,-0.779634 -1.884478,-1.263723 -2.99414,-1.519532 -0.03666,-0.12741 -0.07699,-0.258442 -0.13086,-0.404296 l -0.002,-0.0078 -0.02539,-0.06641 -0.002,-0.0059 C 86.575803,9.8546343 86.510602,9.6996497 86.435547,9.5429688 l -0.04102,-0.085937 -0.002,-0.00781 C 86.319177,9.3002746 86.237753,9.1503746 86.148437,9.0058594 l -0.002,-0.00391 -0.02734,-0.042969 -0.0332,-0.048828 -0.01367,-0.021484 C 85.986835,8.7514482 85.90058,8.6177998 85.806641,8.4863281 l -0.0059,-0.00781 -0.04297,-0.056641 -0.01172,-0.015625 C 85.639089,8.2587976 85.52545,8.1150779 85.404297,7.9785156 l -0.0078,-0.00781 -0.02734,-0.027344 -0.0098,-0.011719 C 85.230106,7.7884272 85.101378,7.6573548 84.970703,7.5351562 l -0.002,-0.00195 h -0.002 c -1.155464,-1.0711984 -2.65948,-1.6905818 -4.234281,-1.7421906 -1.574847,-0.05161 -3.11465,0.4678446 -4.337891,1.4609375 -1.223137,0.9932131 -2.047459,2.3954111 -2.320312,3.9472659 -0.237504,1.350344 0.03063,2.708437 0.61914,3.935547 l -3.86914,4.164062 C 68.182426,18.40056 65.294525,18.264571 62.357422,18.654297 l 1.509765,-1.63086 c 1.124197,0.43342 2.330348,0.618513 3.523438,0.402344 1.391434,-0.252085 2.66596,-0.946664 3.632812,-1.978515 l 0.002,-0.002 c 0.81241,-0.875547 1.369849,-1.95717 1.611328,-3.126954 C 72.87831,11.14858 72.793673,9.9342985 72.394531,8.8085938 71.995379,7.6828577 71.297393,6.6879241 70.373047,5.9316406 69.60326,5.3018922 68.65227,4.9840133 67.689453,4.7558594 c 6.71e-4,0.00337 -0.003,-0.015774 -0.002,-0.011719 -0.0437,-0.1529051 -0.09231,-0.3050303 -0.148438,-0.4609375 L 67.503906,4.1894531 67.5,4.1796875 C 67.443602,4.0356915 67.382,3.8860422 67.310547,3.734375 l -0.002,-0.00195 -0.04297,-0.091797 -0.002,-0.00586 C 67.190792,3.4867638 67.109667,3.3372313 67.021484,3.1894531 l 0.0039,0.00391 -0.04297,-0.072266 -0.0098,-0.013672 -0.01367,-0.021484 C 66.870461,2.9430826 66.779341,2.8075469 66.689453,2.6816406 l -0.0078,-0.011719 -0.04492,-0.056641 -0.0098,-0.013672 C 66.513566,2.4467107 66.399877,2.3107564 66.294922,2.1914063 l -0.002,-0.00391 -0.04102,-0.042969 h 0.002 C 66.11966,1.9954804 65.984796,1.8584891 65.845703,1.7304687 l 0.160156,0.2109375 C 65.93944,1.8117305 65.830206,1.714079 65.712891,1.6425781 64.571882,0.64287073 63.128682,0.04974798 61.609375,0.00390625 Z m -0.04492,1.49804685 c 1.208451,0.036462 2.364282,0.5056591 3.255859,1.3222657 6.73e-4,6.163e-4 0.0013,0.00134 0.002,0.00195 l 0.0078,0.00781 c 0.102107,0.093979 0.20164,0.1957042 0.308594,0.3144531 l 0.03711,0.041016 c 0.08504,0.096998 0.170014,0.2005581 0.253906,0.3144532 l 0.0039,0.00586 0.04102,0.050781 c 0.0757,0.1063499 0.150697,0.2180469 0.220703,0.3320312 l 0.0059,0.011719 0.0078,0.00977 0.02344,0.041016 0.002,0.00195 c 0.06482,0.1086215 0.126474,0.2238458 0.183594,0.3398437 l 0.0332,0.074219 c 0.05448,0.1155139 0.105641,0.236228 0.152344,0.3554688 l 0.02539,0.068359 c 0.04654,0.129506 0.08466,0.2475276 0.117188,0.3613281 l 0.002,0.00586 0.002,0.00391 v 0.00195 l 0.0098,0.037109 c 0.02059,0.07913 0.03905,0.151056 0.05469,0.2207031 l 0.113281,0.5058594 0.511719,0.072266 c 0.911426,0.1296192 1.769855,0.5069058 2.482422,1.0898438 0.712452,0.5829152 1.2529,1.3491349 1.560547,2.2167969 0.307658,0.8676919 0.371755,1.8034599 0.185547,2.7050779 -0.185821,0.900162 -0.615688,1.731976 -1.240235,2.40625 -0.746745,0.796947 -1.729923,1.332629 -2.804687,1.527344 -1.0746,0.1947 -2.183248,0.03902 -3.16211,-0.445313 l -0.501953,-0.25 -4.96875,5.369141 -0.496093,-0.689453 -0.160157,-0.199219 -0.0078,-0.0098 c -0.09674,-0.122927 -0.195405,-0.244499 -0.296875,-0.363281 l -0.002,-0.002 c -0.05365,-0.06325 -0.11105,-0.130187 -0.169922,-0.197266 l -0.002,-0.002 C 57.24593,19.034171 57.133913,18.913159 57.021642,18.794792 l -0.0059,-0.0059 c -0.04039,-0.04362 -0.09157,-0.102614 -0.15625,-0.167968 l -0.0078,-0.0078 c -0.164837,-0.170507 -0.336718,-0.341189 -0.515625,-0.505859 v 0.002 c -1.222375,-1.132447 -2.633615,-2.042367 -4.169921,-2.6875 h -0.002 -0.002 C 50.198298,14.610508 48.093531,14.1989 45.96875,14.214844 h -0.0039 c -5.595121,0.0012 -11.498652,2.635529 -15.857422,7.33789 l -0.25586,0.277344 0.0098,0.05664 c -3.148046,3.504734 -5.197059,7.808378 -5.767578,12.158203 l -0.257813,1.957031 1.580079,-1.369141 0.384765,-0.339843 h 0.002 c 0.164728,-0.145513 0.326768,-0.288503 0.486328,-0.425782 l 0.002,-0.002 c 0.126077,-0.109649 0.257087,-0.221464 0.388671,-0.332031 l 0.0098,-0.0078 0.0078,-0.0078 c 0.150265,-0.134753 0.300942,-0.261244 0.449218,-0.378906 l 0.0039,-0.0039 0.404296,-0.330079 0.0098,-0.0078 c 0.160772,-0.127941 0.315294,-0.256038 0.464844,-0.375 l 0.414062,-0.326172 0.466797,-0.365234 h 0.002 c 0.132182,-0.103155 0.255623,-0.196533 0.41211,-0.314453 v 0.002 c 0.155388,-0.116917 0.307784,-0.233191 0.458984,-0.34375 l 0.423828,-0.310547 0.458985,-0.328125 0.429687,-0.298828 v -0.002 c 0.145099,-0.102131 0.298409,-0.204125 0.455078,-0.310547 l 0.002,-0.002 0.425782,-0.285157 0.46289,-0.302734 0.425781,-0.271484 0.464844,-0.289063 0.410156,-0.251953 0.02344,-0.01367 c 0.168401,-0.09607 0.337076,-0.199666 0.462891,-0.273437 h 0.002 c 0.145134,-0.0852 0.283347,-0.169931 0.416015,-0.246094 l 0.0078,-0.0039 0.476562,-0.265625 0.423828,-0.236329 -0.0039,0.0039 c 0.160273,-0.08746 0.324546,-0.174166 0.492188,-0.261719 0.143093,-0.07455 0.273661,-0.146533 0.392578,-0.207031 l 0.0078,-0.0039 c 0.195689,-0.096 0.384704,-0.192202 0.566407,-0.28125 h 0.002 l 0.341797,-0.171875 0.0098,-0.0039 c 0.28993,-0.139971 0.580248,-0.277535 0.871094,-0.410156 l 0.0098,-0.0039 0.361328,-0.160157 h 0.0039 c 0.19093,-0.08549 0.358742,-0.164424 0.529297,-0.234375 l 0.419922,-0.173828 h 0.002 c 0.166177,-0.06982 0.331835,-0.138087 0.492187,-0.201172 l 0.002,-0.002 0.427735,-0.167968 c 0.166251,-0.06496 0.32468,-0.126858 0.478515,-0.183594 l 0.0059,-0.002 0.43164,-0.154297 0.482422,-0.169922 0.431641,-0.142578 c 0.160932,-0.05241 0.340072,-0.109413 0.490234,-0.158203 0.133945,-0.04344 0.277066,-0.08634 0.425782,-0.13086 l 0.486328,-0.144531 0.435547,-0.121094 0.484375,-0.126953 0.4375,-0.111328 0.486328,-0.113281 0.435547,-0.09766 0.49414,-0.103516 0.431641,-0.08594 0.498047,-0.08984 0.427734,-0.07422 0.503906,-0.07617 0.431641,-0.06055 h 0.002 c 0.162584,-0.02324 0.330284,-0.04379 0.5,-0.0625 h 0.0039 l 0.419922,-0.05078 0.533203,-0.05078 0.398438,-0.03711 c 0.181567,-0.01451 0.367194,-0.02561 0.558594,-0.03711 0.166363,-0.0099 0.277163,-0.02539 0.33789,-0.02539 h 0.02148 0.01953 c 0.221402,-0.01198 0.421007,-0.02539 0.599609,-0.02539 h 0.04102 l 0.03906,-0.0059 c 0.05166,-0.0056 0.129129,-0.0059 0.236328,-0.0059 h 0.01563 0.01758 c 0.296534,-0.01251 0.604228,-0.01367 0.923828,-0.01367 h 0.738281 0.203125 0.378906 l 0.275391,-0.146484 0.0039,-0.0039 c 0.160679,-0.0895 0.323802,-0.175716 0.492188,-0.263671 l 0.002,-0.002 0.130859,-0.06836 0.0078,-0.0039 c 0.205099,-0.105229 0.409525,-0.207248 0.611328,-0.302735 l 0.03711,-0.01758 0.140625,-0.08594 c 0.152658,-0.07241 0.307567,-0.143719 0.466797,-0.212891 l 0.175781,-0.07617 0.0059,-0.002 c 0.2161,-0.09207 0.424625,-0.181043 0.630859,-0.261719 l 0.900391,-0.351562 -0.04297,-0.05859 2.042969,-0.478515 c 3.561887,-0.832735 7.100158,-0.653823 10.179687,0.505859 l 0.470703,0.177734 5.183594,-5.578125 -0.289063,-0.484375 c -0.625241,-1.041517 -0.854971,-2.27228 -0.644531,-3.46875 0.210346,-1.196342 0.846002,-2.2771832 1.789063,-3.0429684 0.943156,-0.7657053 2.1296,-1.1647896 3.34375,-1.125 1.214196,0.039791 2.372832,0.5159942 3.263672,1.3417969 0.102471,0.095925 0.202912,0.1970525 0.30664,0.3125 l 0.0059,0.00586 0.03516,0.039063 c 0.08647,0.098473 0.169221,0.2018892 0.246094,0.3085937 l 0.0039,0.00586 0.04102,0.054687 c 0.0733,0.1025846 0.147944,0.2149052 0.226563,0.3417969 l 0.0059,0.00977 0.03711,0.056641 0.01367,0.023437 0.002,0.00195 c 0.05916,0.095518 0.119615,0.204388 0.175781,0.3183589 l 0.03516,0.07617 v 0.0039 c 0.05514,0.115118 0.105848,0.230776 0.148438,0.34375 l 0.02148,0.0625 0.002,0.002 c 0.04239,0.114257 0.07,0.208389 0.09766,0.304688 v 0.03711 l 0.02539,0.0957 c 0.01876,0.0697 0.03402,0.132313 0.04492,0.185547 l 0.107422,0.517578 0.523437,0.07422 c 1.015815,0.14401 1.963293,0.59645 2.714844,1.294922 v 0.002 c 0.487131,0.450135 0.880854,0.99126 1.158203,1.59375 0.277339,0.602468 0.433739,1.25328 0.458985,1.916016 0.02524,0.662762 -0.08179,1.323432 -0.3125,1.945312 h 0.002 c -0.230783,0.621834 -0.583682,1.193739 -1.035157,1.679688 -0.746533,0.794539 -1.727951,1.329145 -2.800781,1.523437 h -0.002 c -1.074684,0.194716 -2.18311,0.03878 -3.162109,-0.445312 l -0.5,-0.248047 -4.806641,5.183594 0.300781,0.486328 c 2.020596,3.258479 2.780039,7.35478 2.115235,11.654297 l -0.0293,0.179687 0.06055,0.173828 c 1.81187,5.36181 1.488981,11.461927 -0.949219,17.205078 -2.340693,5.528269 -6.520895,10.547423 -12.189453,14.628907 l -1.886719,1.359375 h 24.332031 c 1.085079,0.0093 2.124894,0.439011 2.892578,1.207031 0.774839,0.775092 1.210091,1.824008 1.210938,2.919922 v 0.859375 c -0.0018,1.094932 -0.438575,2.145606 -1.212891,2.919922 -0.774315,0.774315 -1.823037,1.209152 -2.917968,1.210937 H 6.1601562 6.1582031 C 5.0629489,81.063091 4.0129406,80.627904 3.2382813,79.853516 2.4635855,79.079099 2.0291457,78.028924 2.0273438,76.933594 v -0.859375 c 8.552e-4,-1.096278 0.4357444,-2.146665 1.2109375,-2.921875 0.7747022,-0.774719 1.824316,-1.209491 2.9199218,-1.210938 H 21.455078 L 18.263672,70.507812 C 15.267236,69.161511 11.644523,67.190386 8.5410156,64.947266 6.4623597,63.444877 4.8465922,61.823955 3.5742188,60.214844 v -0.06641 c 1.8393115,2.324863 4.7872343,4.524221 7.8925782,6.455079 4.147725,2.578995 8.558486,4.592721 11.152344,5.3125 l 0.09766,0.02734 h 41.894531 l 0.185547,-0.117187 C 78.090388,63.337177 82.353171,51.374889 80.767578,42.015625 l -0.5,-2.958984 -0.951172,2.847656 c -0.07193,0.215678 -0.147518,0.432135 -0.226562,0.65039 -0.02261,0.05879 -0.04238,0.109756 -0.05859,0.150391 l -0.0039,0.0098 -0.002,0.0078 c -0.06552,0.177173 -0.136003,0.354759 -0.208985,0.53125 l -0.0039,0.0098 -0.002,0.0078 c -0.02306,0.05993 -0.0513,0.126207 -0.08203,0.199219 -0.08142,0.189346 -0.160161,0.372373 -0.242188,0.550781 l -0.0059,0.01172 -0.0059,0.01367 c -0.01263,0.03027 -0.03178,0.0725 -0.05469,0.125 -0.101224,0.220023 -0.208819,0.441076 -0.31836,0.660156 l -0.0078,0.01563 -0.0059,0.01563 c -0.0226,0.05072 -0.04365,0.09432 -0.07031,0.144531 l -0.0098,0.01563 -0.0059,0.01563 c -0.06686,0.141527 -0.159894,0.304287 -0.257812,0.486329 h 0.002 l -0.115235,0.21289 c -0.106021,0.185986 -0.210178,0.367814 -0.316406,0.544922 l -0.0059,0.0098 -0.0059,0.0098 c -0.02004,0.03591 -0.03325,0.06033 -0.04297,0.07617 l -0.0039,0.0039 -0.002,0.0039 c -0.128824,0.215348 -0.262972,0.429931 -0.402344,0.648437 v 0.002 l -0.002,0.0039 c -0.02851,0.04563 -0.06703,0.100413 -0.111328,0.167968 -0.107666,0.164312 -0.213465,0.322586 -0.320312,0.476563 l 0.0059,-0.0059 -0.136719,0.19336 -0.002,0.002 c -0.138987,0.198085 -0.273826,0.389964 -0.408203,0.564453 l -0.0078,0.0078 -0.04687,0.06445 c -0.150017,0.200452 -0.305971,0.400509 -0.466797,0.599609 v 0.002 l -0.146485,0.179688 -0.002,0.0039 c -0.115456,0.146088 -0.237916,0.292096 -0.363281,0.4375 l -0.002,0.002 -0.154297,0.181641 c -0.182106,0.209655 -0.344153,0.402746 -0.501953,0.560547 l -0.01172,0.0098 -0.0098,0.01172 c -3.744502,4.041934 -8.570723,6.616543 -13.570312,7.267578 h -0.0039 -0.0039 c -0.176683,0.02474 -0.358154,0.04572 -0.544921,0.06445 l -0.166016,0.01563 -0.410156,0.0332 -0.171875,0.01172 c -0.175957,0.01187 -0.330371,0.02344 -0.458985,0.02344 h -0.06445 -0.574219 -0.117187 c -0.223396,0 -0.443275,-0.0046 -0.658203,-0.01367 h -0.01563 -0.0293 c -0.219397,-0.009 -0.440619,-0.0228 -0.664063,-0.04102 h -0.0059 l -0.119141,-0.01172 h -0.002 c -0.217178,-0.02031 -0.430224,-0.04209 -0.636718,-0.06836 l -0.01172,-0.002 -0.09766,-0.01367 h -0.002 c -0.215938,-0.0296 -0.432386,-0.06303 -0.642578,-0.09961 l -0.0625,-0.0098 h -0.02148 c -0.193196,-0.0338 -0.387509,-0.07311 -0.583984,-0.117188 l -0.117188,-0.02539 -0.0059,-0.002 c -0.204191,-0.04696 -0.402663,-0.09457 -0.595703,-0.146485 l -0.01367,-0.0039 -0.09375,-0.02734 h -0.002 c -0.209069,-0.05968 -0.414333,-0.120972 -0.619141,-0.185547 l -0.109375,-0.03516 h -0.01367 c -0.166414,-0.05516 -0.33185,-0.111849 -0.498047,-0.173828 l -0.105469,-0.03906 -0.0078,-0.0039 c -0.201982,-0.07813 -0.397923,-0.154285 -0.558594,-0.226562 l -0.0059,-0.002 -0.107422,-0.04687 h -0.0039 C 51.4742,56.5392 51.280632,56.451063 51.112544,56.36535 l -0.160156,-0.08203 h -0.0098 c -0.141421,-0.07186 -0.284874,-0.143581 -0.412109,-0.214844 l -0.0039,-0.002 -0.103516,-0.05664 -0.0039,-0.002 c -0.169883,-0.0945 -0.337334,-0.19554 -0.525391,-0.30664 l -0.01172,-0.0078 -0.08008,-0.04883 -0.0078,-0.0039 C 49.620528,55.53011 49.446406,55.413494 49.251953,55.287109 l -0.0039,-0.0039 -0.0039,-0.002 c -0.154887,-0.09843 -0.319102,-0.217355 -0.492188,-0.347656 l -0.09375,-0.07031 -0.0059,-0.0059 c -0.162836,-0.124944 -0.322109,-0.251267 -0.476563,-0.38086 l -0.08789,-0.07422 -0.0059,-0.0039 c -0.163617,-0.139852 -0.324442,-0.2823 -0.4804,-0.425707 -6.877141,-6.377475 -6.336566,-18.372343 1.433594,-26.753906 h -0.002 c 0.22833,-0.24545 0.467098,-0.490421 0.712891,-0.736328 l 0.242187,-0.236328 C 50.160349,26.079656 50.330216,25.918862 50.5,25.763672 l -0.0098,0.0059 0.292969,-0.259765 h 0.002 c 0.15727,-0.141303 0.319834,-0.282291 0.484375,-0.419922 l 0.0039,-0.0039 c 0.0032,-0.0027 0.0066,-0.0051 0.0098,-0.0078 0.115914,-0.09314 0.208402,-0.174308 0.285156,-0.236328 h 0.002 c 0.186741,-0.151227 0.373534,-0.299864 0.5625,-0.447266 0.08062,-0.05933 0.146559,-0.11257 0.183594,-0.140625 l 1.779297,-1.347656 h -2.417969 l -0.439453,0.02539 c -0.171506,0.0098 -0.345595,0.02132 -0.517578,0.03516 h -0.002 l -0.419922,0.03711 -0.511719,0.04883 -0.421875,0.04883 c -0.174189,0.01977 -0.346973,0.04285 -0.519531,0.06641 l 0.002,-0.002 -0.417969,0.05664 -0.515625,0.08008 -0.414062,0.07031 -0.517578,0.09375 -0.410156,0.08008 -0.525391,0.109375 -0.390625,0.08789 h -0.002 c -0.178081,0.0411 -0.36059,0.08333 -0.541016,0.128906 h 0.0059 l -0.390625,0.0957 -0.542969,0.146484 -0.376953,0.101563 -0.56836,0.167969 -0.345703,0.105468 c -0.211629,0.06259 -0.424788,0.132451 -0.621094,0.199219 l -0.294921,0.09766 h -0.002 c -0.249681,0.08389 -0.494054,0.173315 -0.732421,0.259766 l -0.181641,0.06445 -0.002,0.002 c -0.304755,0.112572 -0.612648,0.229413 -0.921875,0.353516 l -0.0293,0.01172 c -0.296063,0.11336 -0.591581,0.236015 -0.886719,0.367187 l -0.253906,0.111328 c -0.220209,0.09245 -0.433906,0.189222 -0.640625,0.283203 l -0.002,0.002 L 38,26.392578 l -0.572266,0.269531 -0.359375,0.179688 -0.541015,0.271484 -0.371094,0.19336 0.02539,-0.01172 c -0.195572,0.09342 -0.368446,0.191542 -0.527344,0.279297 -0.0068,0.0034 -0.0109,0.0064 -0.01758,0.0098 -0.0023,0.0013 -0.0055,0.0026 -0.0078,0.0039 -0.144686,0.07341 -0.272849,0.146998 -0.384765,0.208984 l 0.0039,-0.0039 c -0.175922,0.096 -0.348829,0.195976 -0.517578,0.292968 -0.136696,0.07666 -0.266835,0.153446 -0.390625,0.226563 l -0.0059,0.002 -0.0039,0.002 c -0.150719,0.09188 -0.313118,0.184722 -0.492187,0.292969 h -0.0039 l -0.386718,0.238281 -0.496094,0.308594 -0.390625,0.251953 -0.492188,0.322266 -0.390625,0.261718 -0.488281,0.335938 -0.386719,0.273437 c -0.163143,0.114663 -0.328411,0.233056 -0.492187,0.353516 l -0.384766,0.28125 -0.484375,0.363281 -0.390625,0.294922 -0.484375,0.384766 -0.382812,0.298828 -0.0039,0.002 c -0.168409,0.134666 -0.332219,0.270509 -0.492187,0.400391 h -0.002 l -0.373047,0.30664 -0.503906,0.425782 -0.357422,0.302734 -0.525391,0.458984 -0.332031,0.292969 v 0.002 c -0.195648,0.17408 -0.388678,0.349238 -0.580078,0.523438 l -0.002,0.002 -0.275391,0.251953 c -0.285522,0.263551 -0.570722,0.531581 -0.853516,0.802734 -4.106043,3.934712 -7.323729,8.02734 -9.52539,11.150391 -2.201661,3.123051 -3.350166,5.208142 -3.421875,5.339844 l -0.05859,0.105468 -0.09766,-0.05664 v -0.002 c -0.1734,-0.100658 -1.5281146,-0.874052 -3.263672,-1.164063 -0.8677787,-0.145005 -1.83541,-0.166304 -2.78125,0.142578 -0.94584,0.308883 -1.8499542,0.973189 -2.4824219,2.058594 -0.021463,0.03677 -0.013097,0.08192 -0.033203,0.119141 L 2.0996094,53.753906 c 0.9828548,-1.642779 2.3083881,-2.243489 3.7851562,-2.353515 1.4950548,-0.111389 3.1195322,0.346217 4.3085934,0.898437 l 0.613282,0.283203 0.345703,-0.578125 c 3.417235,-5.705857 7.559626,-10.945579 12.322265,-15.58789 l 0.216797,-0.210938 0.0098,-0.302734 c 0.162064,-5.108611 2.415996,-10.398432 6.232422,-14.517578 h 0.002 c 3.067697,-3.313156 6.851224,-5.632335 10.9375,-6.742188 3.763172,-1.015161 7.596827,-0.879061 10.847656,0.341797 L 52.191487,15.162109 57.359456,9.5976563 57.0743,9.1152344 C 56.45744,8.0742677 56.234124,6.847246 56.447266,5.65625 c 0.213145,-1.1911072 0.847666,-2.2668677 1.787109,-3.0292969 0.939466,-0.7624908 2.120604,-1.1614905 3.330078,-1.125 z m -0.179687,0.1835938 c -1.216542,-0.0045 -2.390808,0.4525395 -3.283204,1.2792969 -0.89232,0.8268065 -1.437122,1.9624156 -1.52539,3.1757812 -0.08832,1.2124866 0.28677,2.4124013 1.048828,3.359375 0.01779,0.022291 0.02645,0.049385 0.02539,0.078125 -0.0011,0.02865 -0.01351,0.054931 -0.0332,0.076172 v 0.00195 l -5.164062,5.576172 0.912109,0.486328 0.148438,0.08203 c 0.127016,0.07019 0.24982,0.13752 0.367187,0.205078 l 0.171875,0.09961 c 0.123448,0.07256 0.2409,0.144574 0.357422,0.21875 l 0.136719,0.08594 c 0.158629,0.102812 0.312831,0.207101 0.464844,0.314453 l 0.0078,0.0059 0.0098,0.0059 c 0.0023,0.0015 0.02961,0.02347 0.07813,0.05859 l 0.0039,0.002 0.0039,0.002 c 0.119286,0.0842 0.238873,0.174426 0.357422,0.265625 l 0.154297,0.121094 c 0.105312,0.08167 0.2088,0.165396 0.308594,0.25 l 0.0039,0.002 0.146484,0.121094 c 0.141698,0.122117 0.28351,0.247277 0.419922,0.373047 0.170685,0.160114 0.338954,0.329201 0.509766,0.501953 0.04854,0.05176 0.09534,0.09781 0.126953,0.130859 0.149596,0.156938 0.295965,0.319147 0.439453,0.484375 l 0.002,0.002 0.0039,0.002 c 0.03538,0.04 0.03896,0.04614 0.01367,0.01367 l 0.01172,0.01563 0.01172,0.01367 c 0.125843,0.146253 0.247374,0.291219 0.363281,0.4375 l 0.542969,0.685547 4.851562,-5.226562 c 0.01972,-0.02125 0.04536,-0.03578 0.07422,-0.03906 0.02896,-0.0033 0.05812,0.0053 0.08203,0.02148 h 0.002 l 0.002,0.002 c 0.951105,0.637384 2.096959,0.915495 3.234375,0.785156 1.137459,-0.130344 2.192427,-0.661999 2.974609,-1.498047 h 0.002 v -0.002 c 0.429349,-0.462294 0.762875,-1.003922 0.982422,-1.595703 0.219589,-0.591574 0.3207,-1.220867 0.296875,-1.851563 C 71.009382,10.183854 70.861242,9.5636272 70.597656,8.9902344 70.334447,8.4176596 69.962098,7.9029006 69.5,7.4746094 68.886143,6.902237 68.132051,6.500664 67.314453,6.3105469 l -0.835937,-0.1933594 -0.08008,0.8535156 c -0.04457,0.4715833 -0.37839,0.8376609 -0.548828,1.2734375 0.213979,-0.5502898 0.327705,-1.1397011 0.328125,-1.7402344 v -0.00195 C 66.178024,6.3444211 66.171633,6.1857606 66.156253,6.0293 66.147153,5.937045 66.133793,5.8520448 66.121093,5.7675812 V 5.6953125 L 66.107422,5.625 c -0.01987,-0.101999 -0.04555,-0.2096062 -0.07422,-0.3242188 l -0.0039,-0.019531 -0.0098,-0.046875 -0.0039,-0.013672 c -0.03373,-0.1277399 -0.07214,-0.2373365 -0.111328,-0.34375 l -0.002,-0.00586 -0.0293,-0.082031 -0.0078,-0.019531 C 65.832559,4.689552 65.789011,4.5824774 65.734375,4.46875 l -0.0078,-0.017578 -0.02539,-0.054687 -0.0059,-0.013672 C 65.643779,4.2796384 65.586474,4.1691859 65.515625,4.0527344 L 65.486328,4.0019531 65.484375,4 C 65.412383,3.8801997 65.341536,3.777678 65.279297,3.6894531 l -0.01563,-0.021484 -0.05078,-0.0625 0.02148,0.029297 C 65.153358,3.5254103 65.070372,3.4200766 64.978516,3.3183594 l -0.0039,-0.00391 -0.02148,-0.023437 -0.0078,-0.00781 C 64.849299,3.1769059 64.753707,3.0788907 64.654297,2.9863281 63.768371,2.1549884 62.599873,1.6899254 61.384766,1.6855469 Z m -0.0059,1.5 c 0.837018,0.00302 1.642068,0.3231221 2.251953,0.8964843 l 0.002,0.00195 c 0.06635,0.061777 0.131448,0.1290967 0.205079,0.2109375 l 0.0059,0.00391 0.02734,0.03125 c 0.04821,0.053891 0.09968,0.1182705 0.158203,0.1972656 l 0.0098,0.013672 0.02344,0.029297 c 0.05106,0.072706 0.09741,0.1375884 0.136719,0.203125 v 0.00195 l 0.03516,0.056641 c 0.03217,0.052878 0.06753,0.1203004 0.105469,0.1953125 l 0.0332,0.070312 0.0039,0.00977 c 0.03095,0.063109 0.06445,0.1434127 0.09766,0.2246093 5.92e-4,0.00145 0.0014,0.00246 0.002,0.00391 l 0.01172,0.035156 0.0039,0.00977 c 0.03535,0.095442 0.05412,0.1539466 0.07227,0.2226562 l 0.0078,0.035156 0.002,0.00977 c 0.01963,0.077633 0.03363,0.1418849 0.04687,0.2050781 V 5.875 l 0.0098,0.058594 c 0.01377,0.086142 0.02363,0.1666725 0.03125,0.2441407 0.01056,0.1074939 0.01587,0.2144526 0.01563,0.3222656 v 0.00195 c -2.44e-4,0.8326286 -0.314084,1.6344618 -0.878906,2.2460938 -0.143476,0.154813 -0.256242,0.3369654 -0.330078,0.5351562 -0.07444,0.1998107 -0.107423,0.4125366 -0.09961,0.625 0.008,0.2128307 0.05734,0.4216657 0.146484,0.6152347 0.08908,0.19345 0.216387,0.367181 0.373047,0.511718 0.155744,0.144277 0.337153,0.256428 0.535156,0.330078 0.199344,0.07408 0.412127,0.109578 0.625,0.101563 0.212364,-0.008 0.421596,-0.0575 0.615234,-0.146484 0.193201,-0.08868 0.367005,-0.215019 0.511719,-0.371094 l 0.002,-0.002 0.111328,-0.123047 0.0059,-0.0059 c 0.676404,-0.772059 1.081932,-1.7111215 1.33789,-2.6953119 0.288262,0.1418866 0.606791,0.2282731 0.84375,0.4492187 h 0.002 v 0.00195 c 0.318368,0.2947374 0.576605,0.648779 0.757812,1.0429687 0.181214,0.3942065 0.282449,0.8203065 0.298828,1.2539065 0.01638,0.433503 -0.05407,0.866612 -0.205078,1.273437 -0.150538,0.405771 -0.379465,0.778231 -0.673828,1.095703 -4.1e-4,4.39e-4 -0.0015,-4.38e-4 -0.002,0 -3.81e-4,4.11e-4 3.81e-4,0.0015 0,0.002 -0.539027,0.575209 -1.263633,0.939543 -2.046875,1.029296 -0.782728,0.0897 -1.571589,-0.10138 -2.226563,-0.539062 l -0.0039,-0.002 c -0.319787,-0.215826 -0.706664,-0.311122 -1.089844,-0.267578 -0.384742,0.04372 -0.740422,0.22386 -1.003906,0.507812 L 58.599609,17.9375 c -0.123061,-0.138575 -0.246143,-0.277076 -0.373047,-0.410156 -0.05183,-0.05419 -0.09451,-0.09782 -0.125,-0.13086 l -0.0098,-0.0098 -0.0078,-0.0078 c -0.180068,-0.182113 -0.365054,-0.365349 -0.55664,-0.544922 l -0.002,-0.002 -0.0039,-0.002 c -0.154622,-0.1425 -0.311871,-0.282919 -0.468688,-0.417853 l -0.0059,-0.0039 -0.140625,-0.117187 -0.0078,-0.0059 C 56.784466,16.188712 56.667364,16.093916 56.5488,16.001919 l -0.002,-0.002 -0.15625,-0.123047 -0.002,-0.002 c -0.127742,-0.09827 -0.262179,-0.197156 -0.400391,-0.294922 l -0.0078,-0.0059 c -0.01836,-0.01356 -0.05544,-0.04121 -0.103516,-0.07422 l -0.01758,-0.01172 C 55.69355,15.371533 55.525814,15.258732 55.355469,15.148438 l -0.002,-0.002 -0.138672,-0.08984 v 0.002 c -0.118319,-0.07532 -0.23491,-0.146537 -0.353516,-0.216797 l 3.857469,-4.16602 C 58.982054,10.391823 59.134098,10.022115 59.148437,9.6347656 59.162773,9.2477058 59.03868,8.867362 58.796875,8.5644531 l -0.002,-0.00195 c -0.52516,-0.6519048 -0.783421,-1.4796398 -0.722609,-2.3144562 0.06073,-0.8348324 0.43475,-1.6146017 1.048828,-2.1835938 0.614003,-0.5688412 1.420756,-0.882004 2.257812,-0.8789062 z m 19.128906,4.3164062 c -1.217863,-0.00628 -2.391505,0.4518822 -3.285156,1.2792969 -0.893753,0.8273999 -1.439787,1.963082 -1.527344,3.177734 -0.08744,1.214695 0.28875,2.418359 1.054688,3.365235 l -0.0039,-0.0039 c 0.01826,0.02298 0.02847,0.04906 0.02734,0.07813 -0.0011,0.02919 -0.01315,0.05654 -0.0332,0.07813 v 0.002 h -0.002 l -5.148437,5.572265 0.904297,0.494141 0.148437,0.08008 h 0.002 c 0.129202,0.06925 0.252375,0.137837 0.373047,0.207031 l 0.160156,0.09375 c 0.120036,0.07499 0.242526,0.152186 0.363282,0.228516 l 0.125,0.07813 c 0.160772,0.104233 0.317592,0.20921 0.46875,0.316406 l 0.08203,0.06055 c 0.1368,0.109307 0.265336,0.200889 0.373047,0.283203 l 0.154297,0.119141 0.0078,0.0059 c 0.07784,0.05709 0.178728,0.145111 0.302734,0.248047 l 0.136719,0.115234 c 0.146919,0.126848 0.289545,0.251194 0.423828,0.375 0.170444,0.159798 0.338643,0.32523 0.50586,0.496094 l 0.132812,0.138672 c 0.148399,0.155615 0.294331,0.315094 0.439453,0.480469 l 0.002,0.0039 0.05078,0.05469 c 0.123355,0.141471 0.239531,0.282748 0.349609,0.423829 l 0.542969,0.695312 4.855469,-5.242187 h 0.002 c 0.01884,-0.02039 0.0442,-0.03348 0.07227,-0.03711 0.02867,-0.0033 0.05846,0.0035 0.08203,0.01953 l 0.002,0.002 0.002,0.002 c 0.951433,0.637051 2.098722,0.915476 3.236328,0.785156 1.137515,-0.130323 2.19193,-0.660384 2.974609,-1.496094 l 0.002,-0.002 0.002,-0.002 c 0.570311,-0.616287 0.968675,-1.370904 1.15625,-2.189453 0.187578,-0.81845 0.157162,-1.671434 -0.08789,-2.474609 -0.245149,-0.803103 -0.69609,-1.529168 -1.308594,-2.103516 -0.612611,-0.574338 -1.364343,-0.977122 -2.18164,-1.169922 L 85.60766,11.941515 85.52758,12.80089 c -0.04428,0.473594 -0.376999,0.841906 -0.548828,1.279297 -0.209532,0.533363 -0.286853,1.123285 -0.667969,1.560547 l -0.0059,0.0059 -0.0059,0.0059 c -0.01803,0.02166 -0.04455,0.05343 -0.07227,0.08398 -4.47e-4,4.46e-4 -0.0015,-4.38e-4 -0.002,0 -0.02206,0.02134 -0.04936,0.0346 -0.08008,0.03516 h -0.002 c -0.0314,5.87e-4 -0.06078,-0.0097 -0.08398,-0.03125 v -0.002 c -0.02295,-0.02125 -0.03528,-0.04844 -0.03711,-0.08008 -0.0018,-0.03147 0.0069,-0.06205 0.02734,-0.08594 l -0.01953,0.02148 c 0.411119,-0.44458 0.732246,-0.959355 0.949219,-1.513672 0.216973,-0.554317 0.330137,-1.148379 0.330078,-1.753906 0,-0.158413 -0.0089,-0.309937 -0.02148,-0.455078 v -0.0039 c -0.0075,-0.09071 -0.02095,-0.179906 -0.03516,-0.269532 v -0.06836 l -0.01172,-0.06836 C 85.21935,11.346864 85.19028,11.22999 85.15631,11.105607 l -0.002,-0.01172 -0.01172,-0.04687 C 85.108,10.911437 85.0682,10.800391 85.031262,10.695455 l -0.0059,-0.01563 -0.01758,-0.04687 L 85,10.613281 v -0.002 c -0.04053,-0.105624 -0.08783,-0.213628 -0.138672,-0.324219 v -0.0039 l -0.03516,-0.07226 -0.0039,-0.0078 c -0.05312,-0.105983 -0.11114,-0.2128823 -0.171877,-0.3163832 l -0.002,-0.00391 -0.03125,-0.052734 -0.0078,-0.013672 C 84.537082,9.7060281 84.470937,9.6058721 84.390625,9.4980469 l -0.0039,-0.00586 -0.0293,-0.035156 -0.01172,-0.015625 C 84.268319,9.3376642 84.188775,9.2373219 84.101562,9.140625 l -0.0039,-0.00391 -0.01758,-0.019531 -0.01172,-0.011719 C 83.976362,9.0029624 83.878949,8.9040111 83.777344,8.8105469 82.892779,7.9771362 81.723367,7.5081024 80.507812,7.5019531 Z M 65.839844,8.265625 C 65.62796,8.7999225 65.549475,9.3923905 65.166016,9.8300781 l -0.09375,0.1015625 c -0.01006,0.010105 -0.02224,0.019463 -0.03516,0.025391 -0.01396,0.00642 -0.02908,0.00917 -0.04492,0.00977 -0.01553,5.846e-4 -0.03007,-0.00229 -0.04492,-0.00781 -0.01515,-0.00564 -0.0298,-0.01301 -0.04102,-0.023437 v -0.00195 h -0.002 c -0.01134,-0.010462 -0.01887,-0.02296 -0.02539,-0.037109 -0.0065,-0.014031 -0.01113,-0.029353 -0.01172,-0.044922 -5.86e-4,-0.015936 0.0025,-0.030533 0.0078,-0.044922 0.0053,-0.014314 0.01268,-0.027536 0.02344,-0.039063 l 0.002,-0.00195 h 0.002 c 0.406949,-0.440676 0.721045,-0.9514672 0.9375,-1.5 z M 80.5,9.0019531 h 0.002 c 0.837857,0.00424 1.640986,0.326833 2.25,0.9023438 l 0.0039,0.00391 0.0039,0.00391 c 0.06985,0.064084 0.136105,0.1322611 0.199218,0.2031251 l 0.0059,0.0059 0.03125,0.03125 c 0.04824,0.05405 0.09801,0.118651 0.15625,0.197265 l 0.0059,0.0078 0.0293,0.03711 c 0.04229,0.05678 0.09291,0.132519 0.166016,0.244141 l 0.0078,0.01367 c 0.04148,0.07101 0.08131,0.147157 0.119141,0.222656 L 83.5,10.917969 c 0.03614,0.07893 0.07182,0.160009 0.09961,0.232422 l 0.0098,0.0293 0.01563,0.03906 0.002,0.0039 c 0.02803,0.08039 0.04928,0.143496 0.0625,0.195313 v 0.002 l 0.01758,0.06641 v 0.0059 c 0.02045,0.07418 0.03305,0.133123 0.04492,0.191406 v 0.02734 l 0.01172,0.06836 c 0.0131,0.0712 0.02345,0.141148 0.0293,0.212891 v 0.002 0.002 c 0.01026,0.117735 0.01563,0.229448 0.01563,0.330078 8.1e-5,0.833943 -0.312746,1.635807 -0.878907,2.248047 l -0.0098,0.01172 -0.0098,0.01172 c -0.27216,0.318109 -0.410897,0.728752 -0.386719,1.146485 0.02417,0.417762 0.208374,0.811156 0.515625,1.095703 0.306994,0.284494 0.714213,0.439454 1.132813,0.43164 0.418654,-0.0076 0.816904,-0.177023 1.113281,-0.472656 l 0.01367,-0.01367 0.01172,-0.01172 c 0.0368,-0.04028 0.08119,-0.08998 0.128906,-0.146484 v -0.002 c 0.667545,-0.766284 1.068842,-1.697471 1.322266,-2.671875 0.2875,0.142787 0.605602,0.229734 0.841797,0.451172 0.421295,0.395051 0.731739,0.894769 0.90039,1.447266 0.168547,0.552423 0.189568,1.138223 0.06055,1.701171 -0.128826,0.562178 -0.403606,1.082309 -0.794922,1.50586 -0.539529,0.575149 -1.265241,0.939523 -2.048828,1.029297 -0.784592,0.08988 -1.576257,-0.101668 -2.232422,-0.541016 l 0.0059,0.0039 c -0.320627,-0.218533 -0.708625,-0.315227 -1.09375,-0.271484 h -0.002 c -0.38501,0.04392 -0.740552,0.224792 -1.003906,0.509765 L 77.71096,23.7638 c -0.12271,-0.137639 -0.24513,-0.276152 -0.373069,-0.410284 l -0.140625,-0.146485 -0.0039,-0.0039 C 77.01348,23.019322 76.828525,22.835923 76.636719,22.65625 l -0.002,-0.002 -0.002,-0.002 C 76.475474,22.507273 76.31744,22.370339 76.162016,22.236234 l -0.0039,-0.0039 -0.144531,-0.121094 c -0.09786,-0.08123 -0.216167,-0.184553 -0.359375,-0.291016 l -0.01563,-0.01172 -0.136719,-0.107422 H 75.5 c -0.144692,-0.110575 -0.269025,-0.199199 -0.365234,-0.277344 l -0.01367,-0.01172 -0.115235,-0.08398 -0.0039,-0.0039 c -0.17636,-0.125069 -0.351495,-0.240856 -0.525391,-0.353516 l -0.0039,-0.002 -0.128906,-0.08203 -0.002,-0.002 c -0.123536,-0.07809 -0.241526,-0.150803 -0.353516,-0.220704 l 3.851563,-4.166015 c 0.263742,-0.283816 0.416576,-0.65361 0.43164,-1.041016 0.01507,-0.387539 -0.110426,-0.766894 -0.351562,-1.070312 l -0.002,-0.0039 -0.002,-0.002 C 77.389155,13.729537 77.131247,12.90211 77.191406,12.066406 77.25165,11.23066 77.625389,10.450057 78.240234,9.8808594 78.854982,9.3116755 79.662266,8.9976332 80.5,9.0019531 Z M 45.96875,15.714844 h 0.0039 0.002 c 1.925689,-0.01492 3.835454,0.356463 5.615235,1.091797 1.373128,0.577163 2.635762,1.391936 3.728515,2.404296 0.155157,0.142811 0.310266,0.295095 0.460938,0.451172 l 0.0039,0.0059 0.0059,0.0039 c 0.03447,0.03447 0.07666,0.08214 0.132813,0.142578 l 0.0039,0.0039 0.002,0.002 c 0.103413,0.108911 0.204147,0.219434 0.298828,0.328125 l 0.002,0.002 c 0.01205,0.01372 0.02487,0.02886 0.03711,0.04297 -0.157672,0.06922 -0.315096,0.139584 -0.472656,0.214844 l -0.03516,0.01758 -0.148437,0.08984 c -0.209353,0.09977 -0.417905,0.204274 -0.621094,0.308594 l -0.0039,0.002 -0.140625,0.07422 c -0.151675,0.07924 -0.301845,0.158836 -0.453125,0.242187 H 54.1875 53.449219 c -0.309496,0 -0.629416,7.06e-4 -0.957032,0.01367 -0.107199,0 -0.239494,-0.0017 -0.398437,0.01563 -0.200741,0.0031 -0.389139,0.01194 -0.558594,0.02148 -0.01794,0 -0.02204,0.0016 -0.03906,0.002 -0.1687,0.0032 -0.304753,0.02054 -0.386719,0.02539 h -0.002 c -0.1914,0.0115 -0.386658,0.02298 -0.587891,0.03906 h -0.0059 l -0.414063,0.03906 -0.554687,0.05273 -0.435547,0.05273 h 0.0098 c -0.178684,0.01969 -0.363013,0.0418 -0.548829,0.06836 l 0.002,-0.002 -0.439454,0.0625 -0.52539,0.08008 -0.449219,0.07617 -0.519531,0.09375 -0.451172,0.08984 -0.511719,0.107422 -0.451172,0.101562 -0.507812,0.119141 -0.457031,0.115234 -0.501954,0.132813 -0.457031,0.126953 -0.498047,0.148437 h -0.002 c -0.145214,0.04348 -0.298691,0.08864 -0.458984,0.140625 h -0.002 c -0.144303,0.04689 -0.3245,0.105551 -0.492188,0.160157 l -0.451172,0.148437 -0.501953,0.177734 -0.443359,0.158204 h -0.002 c -0.177418,0.06532 -0.346772,0.132811 -0.511719,0.197265 L 39.505859,23.875 v 0.002 c -0.179716,0.07066 -0.355364,0.143403 -0.52539,0.214844 l -0.414063,0.169922 c -0.211478,0.0868 -0.394148,0.173072 -0.570312,0.251953 l -0.371094,0.162109 -0.0039,0.002 c -0.3076,0.14017 -0.613766,0.2857 -0.919922,0.433594 l -0.0039,0.002 -0.353516,0.175781 c -0.196557,0.0964 -0.385905,0.193787 -0.568359,0.283204 l -0.0059,0.002 -0.0039,0.002 c -0.151041,0.07658 -0.290125,0.153164 -0.416016,0.21875 -0.168814,0.08816 -0.341547,0.177373 -0.517578,0.273437 l -0.002,0.002 -0.427734,0.238282 -0.492188,0.273437 -0.002,0.002 c -0.152371,0.08733 -0.298051,0.173997 -0.4375,0.25586 -0.155035,0.0909 -0.325947,0.195703 -0.466797,0.27539 l -0.01172,0.0078 -0.447265,0.273437 -0.476563,0.296875 -0.441406,0.28125 -0.476562,0.3125 -0.439454,0.292969 v 0.002 c -0.152519,0.103615 -0.314329,0.210606 -0.478515,0.326172 l -0.429688,0.300781 -0.474609,0.339844 -0.431641,0.316406 c -0.162005,0.118493 -0.320509,0.237569 -0.474609,0.353516 -0.153513,0.115679 -0.286176,0.215033 -0.433594,0.330078 l -0.472656,0.365234 -0.417969,0.332032 v 0.002 c -0.164566,0.130886 -0.32355,0.261192 -0.476562,0.382812 l -0.0059,0.002 -0.412109,0.339844 c -0.05325,0.04236 -0.105157,0.09088 -0.158203,0.134766 0.853571,-3.412969 2.602216,-6.75352 5.166015,-9.513672 l 0.13086,-0.140625 c 4.076689,-4.326903 9.556694,-6.738281 14.626953,-6.738281 z m 19.066406,4.310547 c -2.099288,0.01082 -4.182117,0.360421 -6.169922,1.035156 -0.342998,0.114473 -0.685334,0.235828 -1.027343,0.371094 h 0.0039 c -1.030266,0.403557 -2.029698,0.882979 -2.988281,1.435546 -2.094336,1.208827 -3.993175,2.72851 -5.632813,4.50586 -7.576807,8.173784 -8.337928,20.02651 -1.445312,26.416015 3.313806,3.071567 7.892225,4.392851 12.80664,3.751954 h 0.002 c 4.975527,-0.650795 9.734843,-3.212495 13.423828,-7.19336 3.151387,-3.397937 5.20143,-7.468087 5.91211,-11.773437 0.746989,-4.514216 -0.09035,-8.873079 -2.40625,-12.251953 -1.442616,-2.108265 -3.460309,-3.728174 -5.771485,-4.800782 v -0.08594 l -0.460937,-0.189453 -0.002,-0.002 c -1.979323,-0.819088 -4.102152,-1.233332 -6.244141,-1.21875 z m 0.0078,1.5 h 0.002 c 1.933536,-0.01316 3.848984,0.359468 5.636719,1.095703 l 0.02148,0.0098 c 2.256675,0.944405 4.190778,2.520133 5.572266,4.539063 h 0.002 c 2.0711,3.021719 2.856272,6.975028 2.164062,11.158203 -0.659919,3.997841 -2.567195,7.801944 -5.533203,11 -3.469607,3.744128 -7.924667,6.125558 -12.519531,6.726562 -4.537175,0.591702 -8.625763,-0.614207 -11.59375,-3.365234 -6.168647,-5.718382 -5.59679,-16.614513 1.52539,-24.296875 l 0.002,-0.002 c 1.536959,-1.666047 3.317989,-3.089485 5.28125,-4.222656 0.893814,-0.515232 1.824624,-0.963602 2.785156,-1.339844 h 0.002 c 0.315032,-0.124597 0.631303,-0.238365 0.953125,-0.345703 l 0.002,-0.002 h 0.002 c 1.834992,-0.622864 3.757405,-0.945094 5.695313,-0.955078 z m -15.480469,3.064453 -0.07227,0.0625 -0.0039,0.0039 c -0.186216,0.17021 -0.364684,0.341157 -0.541016,0.511719 l -0.248046,0.240234 -0.0039,0.0039 c -0.261602,0.2615 -0.514117,0.523189 -0.757812,0.785157 v 0.002 c -8.234449,8.882385 -8.942644,21.840157 -1.351563,28.876953 l 0.002,0.002 c 0.175347,0.161235 0.352251,0.315249 0.527344,0.464844 l 0.0039,0.0039 0.0957,0.08008 c 0.17646,0.148058 0.353983,0.2884 0.533203,0.425781 l 0.002,0.002 0.103515,0.07813 c 0.182316,0.137227 0.37793,0.281351 0.589844,0.416016 0.183271,0.119211 0.362655,0.239305 0.558594,0.363281 l 0.0039,0.0039 0.109375,0.06641 0.0059,0.0039 c 0.188045,0.111019 0.372239,0.220665 0.576171,0.333984 l 0.0039,0.002 0.107422,0.05859 c 0.20666,0.115481 0.41719,0.222268 0.617187,0.322266 l 0.158203,0.08008 h 0.02734 c 0.158164,0.07556 0.317975,0.15096 0.472553,0.216631 l 0.0957,0.04297 c 0.216515,0.09693 0.435116,0.179372 0.632813,0.255859 l 0.0039,0.002 0.117188,0.04297 c 0.219577,0.08188 0.442822,0.161394 0.669921,0.234375 l 0.113282,0.03516 h 0.0293 c 0.180803,0.0559 0.362256,0.110526 0.542968,0.16211 h -0.0059 l 0.113281,0.0332 0.0078,0.002 c 0.225616,0.06097 0.448408,0.113164 0.669922,0.164062 l 0.002,0.002 0.123047,0.02734 c 0.231098,0.05184 0.468361,0.09948 0.710937,0.140625 l 0.06055,0.01172 h 0.04492 c 0.20396,0.03458 0.407981,0.06753 0.613281,0.0957 l 0.113281,0.01563 h 0.0059 c 0.237098,0.03039 0.471458,0.05471 0.701172,0.07617 l 0.132812,0.01172 h 0.0039 c 0.241556,0.01976 0.484795,0.03677 0.730469,0.04687 h 0.01563 0.05859 c 0.230201,0.0092 0.460044,0.01367 0.689453,0.01367 h 0.117187 0.574219 0.06445 c 0.207463,0 0.394174,-0.01623 0.558594,-0.02734 l 0.181641,-0.01172 0.435547,-0.03516 0.18164,-0.01758 c 0.193529,-0.01941 0.392344,-0.04199 0.595703,-0.07031 5.369801,-0.699243 10.496307,-3.446303 14.458985,-7.714844 l 0.0078,-0.0098 c 0.218945,-0.220018 0.401349,-0.438409 0.570313,-0.632813 l 0.0039,-0.002 0.152344,-0.179687 0.002,-0.0039 c 0.136119,-0.157965 0.269128,-0.317537 0.396484,-0.478515 l 0.0039,-0.0059 0.138672,-0.171875 c 0.173527,-0.214823 0.344441,-0.433065 0.509766,-0.654296 l 0.0039,-0.0039 0.0293,-0.04297 0.01367,-0.01758 c 0.155029,-0.202311 0.299229,-0.405329 0.435547,-0.599609 l -0.0039,0.002 0.138671,-0.193359 0.002,-0.0039 c 0.118952,-0.171423 0.233216,-0.341078 0.34375,-0.509766 0.03501,-0.05338 0.07669,-0.11558 0.123046,-0.189453 l 0.0039,-0.0059 c 0.140983,-0.221103 0.279504,-0.4439 0.416015,-0.671875 l 0.0039,-0.0078 c 0.02462,-0.04055 0.0447,-0.07311 0.06055,-0.101563 l 0.01172,-0.02148 c 0.115518,-0.193268 0.222946,-0.383838 0.328125,-0.568359 l 0.0059,-0.0059 0.11914,-0.220703 v -0.002 c 0.0845,-0.157106 0.182483,-0.332383 0.275391,-0.525391 l 0.01172,-0.02344 c 0.02965,-0.05656 0.05989,-0.118249 0.08984,-0.183594 l 0.01563,-0.03125 c 0.03178,-0.06375 0.06031,-0.130891 0.0918,-0.195312 0.208717,8.163016 -4.086573,17.868965 -15.402344,25.166015 H 22.951172 c -2.323417,-0.65572 -6.68381,-2.621416 -10.691406,-5.113281 -4.0349172,-2.508853 -7.7077989,-5.624537 -8.7402347,-8.126953 -2.926e-4,-7.13e-4 2.921e-4,-0.0012 0,-0.002 -2.985e-4,-7.24e-4 -0.00166,-0.0012 -0.00195,-0.002 -0.4331036,-1.057611 -0.4002636,-1.783575 0.029297,-2.519532 0.4633312,-0.795142 1.0193778,-1.181964 1.6523437,-1.388671 0.632966,-0.206708 1.3630578,-0.208026 2.0703125,-0.08984 1.4136201,0.236215 2.7114479,0.957816 2.7539065,0.982422 l 1.433593,0.83789 0.796875,-1.46289 v -0.002 c -0.02515,0.0462 1.17017,-2.129534 3.330078,-5.19336 2.160485,-3.064642 5.324442,-7.083706 9.337891,-10.929687 v -0.002 C 25.196869,37.167965 25.472552,36.908478 25.75,36.652344 l 0.0039,-0.002 0.269531,-0.248047 0.002,-0.002 c 0.190693,-0.173557 0.377977,-0.343848 0.564453,-0.509766 l 0.326172,-0.289063 0.513671,-0.449218 0.34961,-0.294922 0.492187,-0.417969 0.361328,-0.294922 0.002,-0.002 c 0.161742,-0.131338 0.318984,-0.2598 0.472656,-0.382812 l 0.0078,-0.0078 0.378907,-0.292969 0.476562,-0.378906 0.375,-0.283203 0.472656,-0.355469 0.378907,-0.277344 0.002,-0.002 c 0.153086,-0.112597 0.309062,-0.223138 0.466797,-0.333984 h 0.002 l 0.378906,-0.267578 0.474609,-0.328125 0.376953,-0.253906 0.478516,-0.3125 0.376953,-0.242188 0.482422,-0.300781 0.376953,-0.230469 c 0.147177,-0.08897 0.310227,-0.180841 0.488281,-0.289062 l 0.0098,-0.0059 c 0.122527,-0.07236 0.242373,-0.14156 0.359375,-0.207031 l 0.002,-0.002 0.0039,-0.0039 c 0.164251,-0.09441 0.329357,-0.185643 0.490235,-0.273438 l 0.002,-0.002 0.002,-0.002 c 0.129512,-0.07173 0.24443,-0.135887 0.355469,-0.191406 l 0.01172,-0.0059 0.01367,-0.0078 c 0.175942,-0.09685 0.336986,-0.187237 0.476563,-0.253907 l 0.01172,-0.0059 0.373047,-0.195312 0.523437,-0.263672 0.345703,-0.169922 0.552735,-0.261719 0.314453,-0.146484 0.0059,-0.002 c 0.208363,-0.09473 0.410869,-0.186133 0.605469,-0.267579 l 0.0059,-0.0039 0.263672,-0.115234 0.002,-0.002 C 40.107303,27.092501 40.381927,26.979818 40.65625,26.875 l 0.0059,-0.002 0.0332,-0.01367 h 0.002 c 0.290431,-0.116559 0.584026,-0.228938 0.878906,-0.337891 l 0.0039,-0.002 0.175781,-0.0625 c 0.235638,-0.08546 0.469086,-0.169392 0.697266,-0.246094 l 0.002,-0.002 0.298828,-0.09961 h 0.002 c 0.184076,-0.06261 0.382522,-0.126238 0.570313,-0.181641 l 0.0039,-0.002 0.34375,-0.105469 0.544922,-0.160156 0.357422,-0.09766 0.52539,-0.140625 0.376954,-0.09375 h 0.0039 c 0.166606,-0.04208 0.334961,-0.08208 0.503906,-0.121094 l 0.0039,-0.002 0.373047,-0.08398 0.503906,-0.103516 0.390625,-0.07617 0.5,-0.0918 0.394532,-0.06445 0.49414,-0.07813 0.402344,-0.05469 c 0.163804,-0.02236 0.324382,-0.04218 0.486328,-0.06055 h 0.002 z M 2.0742188,53.779297 v 0.777344 c -0.3354556,0.913338 -0.3591092,1.904697 0,2.929687 2.223e-4,6.35e-4 -2.226e-4,0.0013 0,0.002 0.033327,0.09502 0.017685,0.186159 0.056641,0.28125 5.203e-4,0.0013 -5.214e-4,0.0026 0,0.0039 L 2.509766,58.697307 C 2.3552705,58.4211 2.0335428,58.12971 1.921875,57.859375 c -0.6389228,-1.554858 -0.5772293,-2.841241 0.1347656,-4.0625 0.00493,-0.0085 0.012625,-0.0092 0.017578,-0.01758 z m 4.0839843,18.410156 c -1.0310092,0.0012 -2.0209269,0.411465 -2.75,1.140625 -0.7290613,0.729024 -1.1393744,1.717029 -1.140625,2.748047 v 0.002 0.859375 c 0.00125,1.031018 0.4115637,2.020976 1.140625,2.75 0.7290731,0.72916 1.7189908,1.139387 2.75,1.140625 H 89.494141 c 1.030994,-0.0012 2.020927,-0.411428 2.75,-1.140625 0.729007,-0.729008 1.139386,-1.718946 1.140625,-2.75 v -0.859375 -0.002 c -0.0012,-1.031054 -0.411618,-2.019039 -1.140625,-2.748047 -0.729073,-0.729196 -1.719006,-1.139387 -2.75,-1.140625 z m 0,1.5 H 89.494141 c 0.633726,0.0013 1.241369,0.253012 1.689453,0.701172 0.448591,0.448591 0.70041,1.055109 0.701172,1.689453 V 76.9375 c -7.62e-4,0.634344 -0.252581,1.242815 -0.701172,1.691406 -0.448084,0.44816 -1.055727,0.699916 -1.689453,0.701172 H 6.1601562 6.1582031 C 5.5244526,79.328822 4.9168937,79.077103 4.46875,78.628906 4.0205946,78.180774 3.7688415,77.573155 3.7675781,76.939453 V 76.080078 C 3.7683476,75.445698 4.0201525,74.8392 4.46875,74.390625 4.9168937,73.942428 5.5244526,73.690709 6.1582031,73.689453 Z M 89.493597,71.197006 h -21.9792 c 5.7633,-4.1497 10.0393,-9.2717 12.4414,-14.945 2.5036,-5.8972 2.8443,-12.1869 0.9686,-17.7376 0.689,-4.456 -0.0938,-8.7377 -2.2184,-12.1639 l 4.0367,-4.3545 c 1.1232,0.5554 2.3953,0.7347 3.6283,0.5113 1.233,-0.2233 2.3613,-0.8375 3.2183,-1.7516 0.5186,-0.5582 0.922,-1.2132 1.1871,-1.9275 0.265,-0.7143 0.3866,-1.4739 0.3576,-2.2353 -0.029,-0.7613 -0.2079,-1.5095 -0.5265,-2.2016 -0.3186,-0.6921 -0.7706,-1.3145 -1.3302,-1.8316 -0.8637,-0.8027 -1.9525,-1.3217 -3.1199,-1.4872 -0.0153,-0.0747 -0.0344,-0.1513 -0.0555,-0.2297 v -0.023 -0.0172 l -0.0096,-0.0421 c -0.0363,-0.1321 -0.0784,-0.2661 -0.1359,-0.4211 l -0.0248,-0.0689 c -0.0498,-0.1321 -0.1072,-0.268 -0.1723,-0.4038996 l -0.0402,-0.0861 c -0.0651,-0.1321 -0.1359,-0.2623 -0.2106,-0.3829 l -0.021,-0.0344 -0.0383,-0.0574 c -0.0842,-0.1359 -0.1665,-0.2623 -0.2526,-0.3828 l -0.0479,-0.0632 c -0.0956,-0.1327 -0.1978,-0.2605 -0.3063,-0.3828 l -0.0306,-0.0326 c -0.1186,-0.132 -0.2354,-0.2507 -0.3541,-0.3617 -1.0232,-0.9485 -2.3544,-1.4958 -3.7489,-1.5415 -1.3945,-0.0457 -2.7586,0.4134 -3.8418,1.2928 -1.0831,0.8795 -1.8126,2.1203 -2.0542,3.4943996 -0.2417,1.3742 0.0207,2.7894 0.7388,3.9856 l -4.4579,4.7967 c -3.2328,-1.2174 -6.9212,-1.3973 -10.6134,-0.5341 l 3.1486,-3.4013 c 1.1231,0.5557 2.3953,0.7352 3.6283,0.5118 1.2331,-0.2234 2.3615,-0.8377 3.2183,-1.7521 0.7193,-0.7752 1.2126,-1.7325 1.4264,-2.7682 0.2139,-1.0357 0.1401,-2.1101 -0.2133,-3.1067996 -0.3534,-0.9967 -0.973,-1.8777 -1.7914,-2.5473 -0.8185,-0.6696 -1.8047,-1.1024 -2.8517,-1.2513 -0.0172,-0.0766 -0.0364,-0.157 -0.0593,-0.245 0,-0.023 -0.0134,-0.0479 -0.0192,-0.067 -0.0383,-0.134 -0.0823,-0.268 -0.134,-0.4116 l -0.0306,-0.0842 c -0.0517,-0.132 -0.1091,-0.2679 -0.1723,-0.4019 l -0.0402,-0.0862 c -0.065,-0.132 -0.1359,-0.2641 -0.2124,-0.3923 l -0.0326,-0.0556 -0.0114,-0.0172 c -0.0823,-0.134 -0.1685,-0.2622 -0.2546,-0.3828 l -0.0459,-0.0593 c -0.1015,-0.1378 -0.2029,-0.2603 -0.3006,-0.3714 l -0.0363,-0.0402 c -0.1206,-0.1339 -0.2374,-0.2526 -0.358,-0.3636 -0.0021,-0.0041 -0.0054,-0.0074 -0.0095,-0.0096 -1.0243,-0.93919 -2.352,-1.47896001 -3.741,-1.52087001 -1.3891,-0.04191 -2.7469,0.41684001 -3.8259,1.29258001 -1.079,0.87569 -1.8073,2.11009 -2.0521,3.47809 -0.2448,1.3679 0.0102,2.7783 0.7186,3.9739 l -4.4445,4.7850996 c -3.4147,-1.2824 -7.4036,-1.4164 -11.3063,-0.3636 -4.2282,1.1484 -8.1348,3.5448 -11.293,6.9557 -3.9334,4.2454 -6.2647,9.6928 -6.4332,15.0043 -4.809,4.6875 -8.9909,9.9779 -12.4414,15.7393 -2.5552502,-1.1867 -6.8906102,-1.9868 -9.1013502,1.8012 -0.82687001,1.4183 -0.88621001,3.007 -0.17992,4.7258 2.10547,5.0971 10.6479702,10.3149 16.7269702,13.0462 H 6.1591468 c -1.29468,0.0011 -2.53604,0.5158 -3.45152,1.4313 -0.91548,0.9155 -1.43024,2.1568 -1.43125,3.4515 v 0.8594 c 0.00152,1.2944 0.5165,2.5352 1.43193,3.4503 0.91542,0.9151 2.1565,1.4296 3.45084,1.4306 H 89.493597 c 1.294,-0.0015 2.5346,-0.5163 3.4496,-1.4313 0.915,-0.915 1.4298,-2.1556 1.4313,-3.4496 v -0.8594 c -0.001,-1.2943 -0.5155,-2.5354 -1.4306,-3.4508 -0.9151,-0.9155 -2.1559,-1.4304 -3.4503,-1.432 z m -12.204,-55.2092 c 0.1419,-0.1527 0.2244,-0.3511 0.2325,-0.5594 0.0081,-0.2083 -0.0588,-0.4125 -0.1885,-0.5757 -0.6464,-0.7991 -0.9649,-1.8141 -0.8911,-2.8393 0.0739,-1.0252 0.5345,-1.984 1.2888,-2.6822996 0.7542,-0.6983 1.7457,-1.0839 2.7735,-1.0786 1.0279,0.0052 2.0153,0.4009 2.7624,1.1069 0.0885,0.0812 0.1728,0.1668 0.2526,0.2564 l 0.0249,0.0268 c 0.0708,0.0785 0.1397,0.1647 0.2106,0.2604 l 0.0344,0.044 c 0.0613,0.0823 0.1187,0.1702996 0.1914,0.2812996 l 0.023,0.0383 c 0.0517,0.0881 0.1014,0.18 0.1474,0.2718 l 0.0287,0.0613 c 0.044,0.0957 0.0842,0.1914 0.1187,0.2813 l 0.0095,0.0249 0.0153,0.0383 c 0.0364,0.1034 0.067,0.1914 0.0919,0.289 l 0.0153,0.0594 c 0.0306,0.111 0.0536,0.2105 0.0708,0.3043 v 0.0459 c 0.0176,0.0957 0.0304,0.1921 0.0383,0.2891 0.0115,0.132 0.0192,0.2641 0.0192,0.3943 1e-4,1.0225 -0.3854,2.0074 -1.0796,2.7581 -0.1463,0.171 -0.2207,0.392 -0.2077,0.6166 0.013,0.2247 0.1124,0.4356 0.2775,0.5885 0.1651,0.153 0.3829,0.2361 0.6079,0.2319 0.225,-0.0041 0.4397,-0.0952 0.599,-0.2541 0.0402,-0.044 0.0804,-0.088 0.1187,-0.134 0.7969,-0.9143 1.2863,-2.0559 1.3992,-3.2634 0.6897,0.1627 1.3247,0.5034 1.8417,0.9881 0.5169,0.4847 0.8978,1.0965 1.1047,1.7743 0.2068,0.6778 0.2323,1.398 0.074,2.0887 -0.1583,0.6908 -0.4949,1.328 -0.9762,1.8481 -0.6612,0.706 -1.5518,1.154 -2.5128,1.2641 -0.9611,0.1101 -1.9299,-0.1249 -2.7337,-0.6631 -0.1721,-0.1173 -0.3806,-0.1688 -0.5875,-0.1453 -0.2069,0.0236 -0.3985,0.1206 -0.5398,0.2735 l -4.2569,4.5938 c -0.1225,-0.157 -0.2508,-0.3101 -0.3828,-0.4613 l -0.0479,-0.0536 c -0.1512,-0.1723 -0.3043,-0.3407 -0.4613,-0.5053 l -0.1378,-0.1436 c -0.1742,-0.178 -0.3522,-0.3541 -0.534,-0.5244 -0.1474,-0.1359 -0.2986,-0.268 -0.4517,-0.4001 l -0.1378,-0.1148 c -0.113,-0.0938 -0.224,-0.1914 -0.3388,-0.2756 l -0.1512,-0.1168 c -0.1302,-0.0995 -0.2603,-0.1914 -0.3828,-0.2909 l -0.0938,-0.0689 c -0.1647,-0.1168 -0.3312,-0.2278 -0.4996,-0.3369 l -0.1263,-0.0804 c -0.1302,-0.0823 -0.2603,-0.1627 -0.3828,-0.2393 l -0.1685,-0.0995 c -0.1301,-0.0746 -0.2603,-0.1455 -0.3924,-0.2163 l -0.1454,-0.0785 -0.0594,-0.0325 z m -6.2973,5.9508 c 2.39,1.0002 4.4399,2.6699 5.903,4.8081 2.1935,3.2003 3.005,7.3558 2.2854,11.7045 -0.6853,4.1516 -2.6644,8.0888 -5.7231,11.3868 -3.5793,3.8625 -8.1864,6.3336 -12.9716,6.9595 -4.7258,0.6163 -9.0593,-0.647 -12.2002,-3.5583 -6.5308,-6.0541 -5.8647,-17.4294 1.4853,-25.3575 1.5883,-1.7217 3.4282,-3.193 5.457,-4.364 0.9262,-0.5339 1.891,-0.9978 2.8864,-1.3877 0.3292,-0.1302 0.6584,-0.2488 0.9915,-0.3599 1.9114,-0.6488 3.915,-0.9849 5.9336,-0.9953 2.0419,-0.0139 4.0659,0.3811 5.9527,1.1619 z m -12.8242,-11.7734 c 0.1415,-0.1526 0.2236,-0.3507996 0.2313,-0.5587996 0.0077,-0.2079 -0.0594,-0.4117 -0.1892,-0.5743 -0.6442,-0.7996 -0.9611,-1.8138 -0.8865,-2.8379 0.0745,-1.0241 0.5349,-1.9817 1.2881,-2.6796 0.7532,-0.6978 1.7432,-1.0838 2.77,-1.08 1.0268,0.0037 2.0139,0.397 2.762,1.1003 0.0842,0.0784 0.1665,0.1627 0.2526,0.2584 l 0.0249,0.0268 c 0.0708,0.0784 0.1397,0.1646 0.2106,0.2603 l 0.0344,0.0421 c 0.0594,0.0842 0.1187,0.1703 0.1761,0.266 l 0.0325,0.0536 c 0.0536,0.0881 0.1015,0.18 0.1493,0.2757 l 0.0268,0.0593 c 0.046,0.0938 0.0862,0.1914 0.1206,0.2756 l 0.023,0.067 c 0.0383,0.1034 0.0689,0.1914 0.0957,0.2929 l 0.0115,0.0516 c 0.0281,0.1111 0.051,0.2125 0.0689,0.3044 v 0.0459 c 0.0153,0.0957 0.0287,0.1914 0.0383,0.289 0.013,0.1323 0.0194,0.2652 0.0191,0.3982 -3e-4,1.0209 -0.385,2.0043 -1.0776,2.7543 -0.078,0.0836 -0.1387,0.1817 -0.1786,0.2888 -0.0399,0.1071 -0.0582,0.221 -0.054,0.3352 0.0043,0.1142 0.0311,0.2263996 0.0789,0.3301996 0.0478,0.1038 0.1156,0.1971 0.1996,0.2746 0.0837,0.0778 0.1819,0.1382 0.2889,0.178 0.1071,0.0398 0.2209,0.0581 0.3351,0.0538 0.1141,-0.0043 0.2263,-0.031 0.3301,-0.0787 0.1037,-0.0476 0.1971,-0.1152 0.2748,-0.199 l 0.1052,-0.1148 c 0.8047,-0.9184996 1.2996,-2.0669996 1.4145,-3.2826996 0.6898,0.1604 1.3254,0.499 1.8433,0.9819 0.3907,0.3617 0.7064,0.797 0.9288,1.2808 0.2224,0.4838 0.3472,1.0066996 0.3673,1.5387996 0.0201,0.5321 -0.065,1.0629 -0.2503,1.5621 -0.1852,0.4992 -0.4672,0.957 -0.8295,1.3471 -0.6607,0.7062 -1.551,1.1544 -2.5118,1.2645 -0.9608,0.1101 -1.9294,-0.125 -2.7328,-0.6634 -0.1722,-0.1169 -0.3806,-0.1682 -0.5874,-0.1447 -0.2068,0.0235 -0.3984,0.1203 -0.54,0.2729 l -4.2568,4.5861 c -0.1244,-0.157 -0.2527,-0.3101 -0.3828,-0.4613 -0.0134,-0.0172 -0.0288,-0.0325 -0.0441,-0.0498 -0.1518,-0.1748 -0.3069,-0.3451 -0.4651,-0.511 -0.044,-0.046 -0.0899,-0.0919 -0.134,-0.1397 -0.1761,-0.1781 -0.3541,-0.3541 -0.5359,-0.5245 -0.1474,-0.1359 -0.2986,-0.2699 -0.4498,-0.4 l -0.1436,-0.1187 c -0.1084,-0.0919 -0.2194,-0.1818 -0.333,-0.2699 l -0.157,-0.1225 c -0.1244,-0.0957 -0.2526,-0.1914 -0.3828,-0.2833 -0.0344,-0.0249 -0.0689,-0.0517 -0.1033,-0.0746 -0.1627,-0.1149 -0.3273,-0.2259 -0.4958,-0.335 l -0.1359,-0.0861 c -0.1263,-0.0804 -0.2526,-0.157 -0.3828,-0.2335 l -0.1742,-0.1015 c -0.1263,-0.0727 -0.2545,-0.1435 -0.3828,-0.2144 l -0.1512,-0.0823 -0.0574,-0.0306 z m -27.5109,11.8978 c 4.2244,-4.5574 9.9532,-7.0973 15.3125,-7.0973 2.0259,-0.0157 4.0344,0.3748 5.9068,1.1484 1.4555,0.6112 2.7926,1.4728 3.9507,2.5457 0.1684,0.155 0.333,0.3177 0.4919,0.4823 0.0536,0.0536 0.1033,0.1091 0.1531,0.1627 0.1091,0.1149 0.2163,0.2316 0.3197,0.3503 0.0555,0.0632 0.111,0.1282 0.1646,0.1914 0.0982,0.1149 0.1939,0.2316 0.2871,0.3503 l 0.155,0.1914 0.0785,0.1091 c -0.2201,0.0861 -0.4383,0.178 -0.6584,0.2718 l -0.18,0.0785 c -0.1761,0.0765 -0.3502,0.155 -0.5225,0.2373 l -0.1436,0.0881 c -0.2143,0.1014 -0.4287,0.2086 -0.6412,0.3177 l -0.1378,0.0727 c -0.1723,0.09 -0.3407,0.1799 -0.5091,0.2737 l -0.1034,0.0555 h -0.1914 -0.2029 -0.7369 c -0.3196,0 -0.6393,0 -0.957,0.0134 -0.1072,0 -0.2125,0 -0.3178,0.0115 -0.2143,0 -0.4268,0.0153 -0.6393,0.0268 -0.1282,0 -0.2545,0.0173 -0.3828,0.0249 -0.1914,0.0115 -0.3828,0.023 -0.5742,0.0383 l -0.4096,0.0383 -0.5436,0.0516 -0.4249,0.0517 c -0.1742,0.0192 -0.3503,0.0402 -0.5245,0.0651 l -0.4345,0.0613 -0.5148,0.0784 -0.4384,0.0747 -0.5091,0.0919 -0.4422,0.088 -0.5014,0.1053 -0.4441,0.0995 -0.4977,0.1168 -0.4459,0.1129 -0.4939,0.1302 -0.4459,0.1244 -0.492,0.1454 c -0.1473,0.0441 -0.2966,0.0881 -0.444,0.1359 -0.1474,0.0479 -0.3273,0.1053 -0.4919,0.1589 l -0.4422,0.1455 -0.4919,0.1741 -0.4383,0.157 c -0.1665,0.0613 -0.3311,0.1263 -0.4977,0.1914 l -0.4306,0.1684 c -0.1704,0.067 -0.3407,0.1379 -0.5092,0.2087 l -0.4172,0.1722 c -0.1914,0.0785 -0.3675,0.1608 -0.5513,0.2431 l -0.3694,0.1627 c -0.3024,0.1378 -0.6042,0.2795 -0.9054,0.425 l -0.3483,0.1741 c -0.1914,0.0938 -0.3828,0.1914 -0.5742,0.2852 -0.1359,0.0689 -0.2718,0.1436 -0.4077,0.2144 -0.1685,0.088 -0.3369,0.1761 -0.5053,0.268 l -0.425,0.2354 -0.4861,0.2718 c -0.1436,0.0823 -0.2871,0.1684 -0.4307,0.2527 -0.1436,0.0842 -0.3177,0.1914 -0.4766,0.2813 l -0.4345,0.2661 -0.4709,0.2928 -0.4344,0.2776 -0.469,0.3062 -0.4326,0.2909 c -0.155,0.1053 -0.312,0.2106 -0.467,0.3197 l -0.4307,0.3005 -0.467,0.3331 -0.4268,0.3139 c -0.157,0.1148 -0.312,0.2316 -0.4671,0.3483 -0.155,0.1168 -0.2832,0.2125 -0.423,0.3216 l -0.4708,0.3656 -0.4154,0.3292 c -0.1588,0.1263 -0.3177,0.2565 -0.4766,0.3828 l -0.4077,0.335 c -0.1608,0.1276 -0.3215,0.2635 -0.4823,0.4077 -0.1321,0.111 -0.2661,0.2239 -0.3981,0.3387 -0.1647,0.1417 -0.3293,0.2872 -0.4939,0.4326 l -0.3828,0.3369 -0.0861,0.0746 c 0.5646,-4.3047 2.6242,-8.6132 5.8245,-12.0586 z m -27.8323402,35.4255 c -0.49574,-1.2078 -0.47278,-2.2491 0.07465,-3.187 2.1916,-3.7611 7.2887902,-0.89 7.5030902,-0.7656 l 0.7657,0.4479 0.4268,-0.7847 c 0.0459,-0.0843 4.6875,-8.5272 12.807,-16.3079 0.2794,-0.2679 0.5602,-0.5321 0.8422,-0.7924 l 0.2737,-0.2507 c 0.1914,-0.1742 0.3828,-0.3484 0.5742,-0.5187 l 0.3292,-0.291 0.5187,-0.4536 0.3541,-0.3005 0.4977,-0.4211 0.3675,-0.3005 c 0.1627,-0.1321 0.3254,-0.2661 0.4881,-0.3962 l 0.3828,-0.2967 0.4804,-0.3828 0.3828,-0.289 0.4785,-0.3599 0.3829,-0.2794 c 0.1588,-0.1168 0.3196,-0.2316 0.4804,-0.3446 l 0.3828,-0.2699 0.4823,-0.3311 0.3829,-0.2584 0.4861,-0.3177 0.3828,-0.2469 0.49,-0.3044 0.3829,-0.2354 c 0.1646,-0.0995 0.3292,-0.1914 0.4957,-0.2929 0.1263,-0.0746 0.2527,-0.1492 0.3828,-0.222 0.1665,-0.0957 0.335,-0.1914 0.5034,-0.2833 0.1244,-0.0689 0.2488,-0.1397 0.3828,-0.2067 0.1704,-0.0938 0.3426,-0.1914 0.5149,-0.2737 l 0.3656,-0.1914 0.5321,-0.268 0.3522,-0.1741 0.5627,-0.2661 0.3216,-0.1493 c 0.2105,-0.0957 0.4211,-0.1914 0.6316,-0.2795 l 0.2565,-0.1129 c 0.2871,-0.1276 0.5742,-0.2463 0.8613,-0.356 l 0.0288,-0.0115 c 0.3005,-0.1206 0.6029,-0.2354 0.9034,-0.3464 l 0.1799,-0.0651 c 0.2374,-0.0861 0.4766,-0.1723 0.7159,-0.2527 l 0.2986,-0.0995 c 0.1914,-0.0651 0.3981,-0.1321 0.5991,-0.1914 l 0.3426,-0.1053 0.557,-0.1646 0.3675,-0.0995 0.534,-0.1436 0.3828,-0.0938 c 0.1742,-0.044 0.3503,-0.0861 0.5245,-0.1263 l 0.3828,-0.0861 0.5149,-0.1072 0.4,-0.0766 0.5091,-0.0938 0.4039,-0.0669 0.5053,-0.0785 0.4096,-0.0555 c 0.1685,-0.023 0.335,-0.0441 0.5034,-0.0632 l 0.4135,-0.0478 0.5015,-0.0479 0.4153,-0.0364 c 0.1665,-0.0134 0.335,-0.0249 0.5015,-0.0344 l 0.4172,-0.0249 h 0.1627 c -0.0631,0.0478 -0.1244,0.0995 -0.1914,0.1474 -0.1914,0.1493 -0.3828,0.3005 -0.5742,0.4555 -0.0995,0.0804 -0.1914,0.1627 -0.2947,0.245 -0.1742,0.1455 -0.3484,0.2948 -0.5188,0.4479 l -0.2909,0.2584 c -0.178,0.1627 -0.3522,0.3292 -0.5264,0.4977 l -0.243,0.2354 c -0.2553,0.2552 -0.5015,0.5104 -0.7389,0.7656 -8.0027,8.6324 -8.6267,21.1102 -1.3915,27.8171 0.1665,0.1531 0.3369,0.3024 0.5072,0.4479 l 0.0938,0.0785 c 0.1665,0.1397 0.335,0.2737 0.5072,0.4057 l 0.0996,0.0747 c 0.178,0.134 0.3579,0.266 0.5417,0.3828 0.1914,0.1244 0.3713,0.245 0.5589,0.3637 l 0.0995,0.0612 c 0.1914,0.113 0.3694,0.2201 0.5589,0.3254 l 0.1053,0.0574 c 0.1914,0.1072 0.3943,0.2106 0.5933,0.3101 h 0.0134 c 0.1914,0.0976 0.4001,0.1914 0.603,0.2776 l 0.1014,0.044 c 0.1914,0.0861 0.402,0.1665 0.6049,0.245 l 0.1129,0.0421 c 0.2105,0.0785 0.423,0.1531 0.6374,0.222 h 0.021 c 0.2125,0.067 0.4249,0.1302 0.6393,0.1914 l 0.1053,0.0307 c 0.2124,0.0574 0.4268,0.1091 0.6431,0.1588 l 0.1206,0.0268 c 0.222,0.0498 0.446,0.0957 0.6718,0.134 h 0.0326 c 0.2201,0.0383 0.444,0.0727 0.668,0.1034 l 0.1072,0.0153 c 0.2239,0.0287 0.4498,0.0516 0.6756,0.0727 l 0.1283,0.0115 c 0.2335,0.0191 0.467,0.0344 0.7005,0.044 h 0.044 c 0.2278,0.0096 0.4575,0.0134 0.6891,0.0134 h 0.1168 c 0.1914,0 0.3828,0 0.5742,0 h 0.0651 c 0.1684,0 0.3387,-0.0134 0.5091,-0.0249 l 0.1761,-0.0115 0.423,-0.0344 0.1742,-0.0172 c 0.1914,-0.0192 0.3828,-0.0402 0.5742,-0.067 5.189,-0.6757 10.1694,-3.3401 14.0243,-7.5012 0.1914,-0.1914 0.3656,-0.4001 0.5436,-0.6049 l 0.1532,-0.1799 c 0.132,-0.1531 0.2603,-0.3082 0.3828,-0.4632 l 0.1435,-0.178 c 0.1685,-0.2086 0.3331,-0.4192 0.4919,-0.6317 l 0.0402,-0.0555 c 0.1474,-0.1914 0.2891,-0.3923 0.4288,-0.5914 l 0.1359,-0.1914 c 0.1129,-0.1627 0.222,-0.3273 0.3311,-0.4938 0.0402,-0.0613 0.0804,-0.1206 0.1187,-0.1819 0.1416,-0.222 0.2794,-0.4421 0.4134,-0.6661 0.0211,-0.0344 0.0402,-0.0689 0.0594,-0.1033 0.1148,-0.1914 0.2239,-0.3828 0.333,-0.5742 l 0.1149,-0.2125 c 0.0937,-0.1742 0.1914,-0.3484 0.2737,-0.5226 0.0325,-0.0612 0.0631,-0.1225 0.0938,-0.1914 0.1148,-0.2296 0.2277,-0.4632 0.3349,-0.6967 0.0192,-0.044 0.0402,-0.0899 0.0594,-0.1359 0.088,-0.1914 0.1703,-0.3828 0.2526,-0.5742 0.0306,-0.0727 0.0613,-0.1455 0.09,-0.2201 0.0765,-0.185 0.1493,-0.3707 0.2182,-0.557 0.0229,-0.0574 0.044,-0.1148 0.067,-0.1742 0.0804,-0.222 0.1588,-0.444 0.2335,-0.668 1.5312,9.0382 -2.5495,20.6948 -15.636,29.0516 h -41.5734 c -4.9039,-1.3608 -17.6477002,-8.0084 -19.9943402,-13.7085 z m 89.8097402,19.4507 c -0.001,0.8327 -0.3323,1.631 -0.9211,2.2198 -0.5888,0.5889 -1.3872,0.9201 -2.2199,0.9211 H 6.1591468 c -0.83272,-0.001 -1.63105,-0.3322 -2.21988,-0.9211 -0.58883,-0.5888 -0.92008,-1.3871 -0.92109,-2.2198 v -0.8595 c 0.00101,-0.8327 0.33226,-1.631 0.92109,-2.2198 0.58883,-0.5889 1.38716,-0.9201 2.21988,-0.9211 H 89.493597 c 0.8327,0.001 1.6311,0.3322 2.2199,0.9211 0.5888,0.5888 0.9201,1.3871 0.9211,2.2198 z" />
    </g>
  </g>
</svg>
