<svg viewBox="0 0 900 782" xmlns="http://www.w3.org/2000/svg">
<path d="M582.901 0.452288C568.059 0.00449458 553.555 4.89903 542.026 14.2561C530.497 23.6127 522.707 36.8007 520.091 51.4172C517.815 64.1376 520.296 76.9629 525.783 88.5599L489.232 127.92C456.504 116.836 419.454 115.429 383.015 125.259H382.996C341.649 136.489 303.542 159.899 272.806 193.095C235.196 233.689 212.831 285.519 210.439 336.751C166.68 379.708 128.579 427.998 96.6646 480.35C84.5048 475.419 69.9643 471.428 54.625 472.571C36.9882 473.885 18.7752 482.397 7.1896 502.248C-1.72044 517.531 -2.2552 535.418 5.06452 553.231V553.25C15.9913 579.703 42.0872 604.431 72.4942 626.408C94.197 642.094 117.638 655.297 140.201 666.877H58.2658C44.1398 666.889 30.5949 672.503 20.6058 682.492C10.6169 692.481 5.00207 706.044 4.99105 720.17V728.301C5.00764 742.425 10.6175 755.977 20.6058 765.961C30.5941 775.946 44.1429 781.565 58.2658 781.576H846.725C860.845 781.56 874.383 775.945 884.367 765.961C894.351 755.978 899.984 742.421 900 728.301V720.17C899.989 706.048 894.37 692.499 884.385 682.51C874.4 672.521 860.848 666.895 846.725 666.877L839.629 666.858V666.932H658.684C705.888 629.372 742.072 584.865 763.016 535.399C787.064 478.753 790.473 418.177 772.772 364.302C778.791 323.261 771.833 283.703 753.166 250.99L785.079 216.545C795.72 220.648 807.141 222.398 818.434 220.352C831.598 217.968 843.656 211.409 852.805 201.651V201.632L852.824 201.613C858.365 195.648 862.686 188.66 865.519 181.027C868.35 173.395 869.635 165.271 869.325 157.134C869.016 148.999 867.113 141.007 863.708 133.611C860.303 126.215 855.478 119.567 849.497 114.041C841.561 106.665 831.668 102.085 821.169 99.6647C820.822 98.4592 820.441 97.2195 819.931 95.8396L819.912 95.7658L819.672 95.1374L819.653 95.0816C819.114 93.6522 818.497 92.1858 817.787 90.7034L817.399 89.8904L817.38 89.8165C816.686 88.4072 815.916 86.989 815.071 85.6217L815.052 85.5847L814.793 85.1782L814.479 84.7162L814.35 84.5129C813.542 83.2147 812.726 81.9502 811.837 80.7063L811.781 80.6324L811.375 80.0965L811.264 79.9487C810.252 78.5536 809.177 77.1938 808.03 75.9018L807.957 75.8279L807.698 75.5692L807.605 75.4583C806.382 74.1033 805.164 72.8632 803.928 71.7071L803.909 71.6886H803.89C792.958 61.5538 778.728 55.6937 763.829 55.2054C748.929 54.7171 734.36 59.6318 722.787 69.0276C711.215 78.4246 703.416 91.6911 700.834 106.374C698.587 119.149 701.124 131.999 706.692 143.609L670.085 183.006C645.09 174.507 617.767 173.22 589.979 176.908L604.263 161.478C614.899 165.578 626.311 167.33 637.599 165.284C650.764 162.899 662.822 156.328 671.97 146.565L671.989 146.546C679.675 138.263 684.949 128.029 687.234 116.962C689.519 105.894 688.718 94.4059 684.942 83.7553C681.166 73.1045 674.562 63.6912 665.816 56.5359C658.533 50.5777 649.536 47.5702 640.426 45.4115C640.433 45.4434 640.398 45.2623 640.407 45.3007C639.994 43.854 639.534 42.4147 639.003 40.9396L638.671 40.0527L638.634 39.9603C638.1 38.5979 637.517 37.182 636.841 35.7471L636.823 35.7286L636.416 34.8601L636.397 34.8047C635.708 33.4044 634.941 31.9896 634.107 30.5914L634.143 30.6284L633.737 29.9447L633.644 29.8154L633.515 29.6121C632.678 28.2605 631.816 26.9781 630.965 25.7869L630.891 25.676L630.466 25.1401L630.374 25.0108C629.301 23.5642 628.225 22.2779 627.232 21.1487L627.213 21.1117L626.825 20.7052H626.844C625.574 19.295 624.298 17.9989 622.982 16.7877L624.497 18.7834C623.869 17.5565 622.836 16.6326 621.726 15.9561C610.93 6.49767 597.276 0.886006 582.901 0.452288ZM582.476 14.6256C593.91 14.9706 604.845 19.4098 613.281 27.1359C613.287 27.1417 613.293 27.1486 613.3 27.1543L613.374 27.2282C614.34 28.1174 615.281 29.0798 616.293 30.2033L616.644 30.5914C617.449 31.5091 618.253 32.4889 619.047 33.5665L619.083 33.6219L619.472 34.1024C620.188 35.1086 620.897 36.1654 621.56 37.2438L621.615 37.3547L621.689 37.4471L621.911 37.8352L621.93 37.8536C622.543 38.8813 623.127 39.9715 623.667 41.069L623.981 41.7712C624.497 42.8641 624.981 44.0062 625.422 45.1343L625.663 45.7811C626.103 47.0064 626.464 48.123 626.771 49.1997L626.79 49.2551L626.809 49.2921V49.3106L626.902 49.6617C627.097 50.4103 627.271 51.0909 627.419 51.7498L628.491 56.5358L633.333 57.2196C641.956 58.4459 650.078 62.0155 656.819 67.5308C663.56 73.0459 668.673 80.2953 671.584 88.5044C674.495 96.7138 675.101 105.567 673.34 114.098C671.581 122.614 667.514 130.484 661.605 136.864C654.54 144.404 645.238 149.472 635.07 151.314C624.903 153.156 614.414 151.684 605.152 147.101L600.403 144.736L553.393 195.534L548.699 189.011L547.184 187.127L547.11 187.034C546.195 185.871 545.261 184.721 544.301 183.597L544.282 183.578C543.775 182.979 543.232 182.346 542.675 181.711L542.656 181.693C541.618 180.502 540.558 179.357 539.496 178.237L539.44 178.181C539.058 177.768 538.574 177.21 537.962 176.592L537.888 176.518C536.328 174.905 534.702 173.29 533.009 171.732V171.751C521.444 161.037 508.092 152.428 493.557 146.324H493.538H493.519C474.939 138.649 455.025 134.754 434.922 134.905H434.885C381.949 134.916 326.094 159.84 284.855 204.33L282.434 206.954L282.527 207.49C252.742 240.649 233.356 281.367 227.958 322.522L225.519 341.038L240.469 328.084L244.109 324.869H244.128C245.686 323.492 247.219 322.139 248.729 320.84L248.748 320.821C249.941 319.784 251.18 318.726 252.425 317.68L252.518 317.606L252.592 317.532C254.014 316.257 255.439 315.061 256.842 313.947L256.879 313.91L260.704 310.787L260.797 310.714C262.318 309.503 263.78 308.291 265.195 307.166L269.112 304.08L273.529 300.624H273.548C274.798 299.648 275.966 298.765 277.447 297.649V297.668C278.917 296.562 280.359 295.462 281.789 294.416L285.799 291.478L290.142 288.373L294.207 285.546V285.527C295.58 284.561 297.03 283.596 298.513 282.589L298.532 282.57L302.56 279.872L306.94 277.008L310.968 274.439L315.366 271.704L319.246 269.32L319.468 269.191C321.062 268.282 322.657 267.302 323.848 266.604H323.867C325.24 265.798 326.548 264.996 327.803 264.276L327.877 264.239L332.385 261.726L336.395 259.49L336.358 259.527C337.875 258.699 339.429 257.879 341.015 257.05C342.369 256.345 343.604 255.664 344.729 255.092L344.803 255.055C346.655 254.146 348.443 253.236 350.162 252.394H350.181L353.415 250.768L353.507 250.731C356.251 249.406 358.997 248.105 361.749 246.85L361.842 246.813L365.26 245.298H365.297C367.104 244.489 368.691 243.742 370.305 243.08L374.278 241.436H374.297C375.869 240.775 377.437 240.129 378.954 239.533L378.973 239.514L383.02 237.924C384.592 237.31 386.091 236.724 387.547 236.187L387.603 236.168L391.687 234.709L396.251 233.101L400.335 231.752C401.857 231.256 403.552 230.717 404.973 230.255C406.24 229.844 407.594 229.438 409.001 229.017L413.603 227.65L417.723 226.504L422.306 225.303L426.445 224.25L431.047 223.178L435.167 222.254L439.843 221.274L443.926 220.461L448.639 219.611L452.686 218.909L457.453 218.188L461.537 217.616H461.556C463.094 217.396 464.681 217.201 466.286 217.024H466.323L470.296 216.544L475.341 216.063L479.111 215.712C480.829 215.575 482.585 215.47 484.396 215.361C485.97 215.267 487.018 215.121 487.593 215.121H487.796H487.981C490.075 215.008 491.964 214.881 493.654 214.881H494.042L494.411 214.825C494.9 214.772 495.633 214.769 496.647 214.769H496.795H496.961C499.767 214.651 502.678 214.64 505.702 214.64H512.687H514.609H518.194L520.799 213.254L520.836 213.217C522.356 212.37 523.9 211.554 525.493 210.722L525.512 210.703L526.75 210.057L526.824 210.02C528.764 209.024 530.698 208.059 532.608 207.155L532.959 206.989L534.289 206.176C535.734 205.491 537.199 204.816 538.706 204.162L540.369 203.441L540.425 203.422C542.469 202.551 544.442 201.709 546.393 200.946L554.912 197.62L554.506 197.065L573.834 192.538C607.534 184.659 641.011 186.352 670.147 197.324L674.6 199.006L723.643 146.23L720.908 141.647C714.993 131.793 712.819 120.149 714.81 108.829C716.8 97.5097 722.815 87.2836 731.737 80.0384C740.66 72.7938 751.886 69.018 763.373 69.3945C774.861 69.771 785.823 74.2764 794.251 82.0895C795.221 82.9971 796.171 83.9539 797.152 85.0461L797.208 85.1016L797.541 85.4712C798.359 86.4028 799.142 87.3813 799.869 88.3908L799.906 88.4463L800.294 88.9637C800.988 89.9343 801.694 90.997 802.438 92.1975L802.494 92.2899L802.845 92.8258L802.974 93.0476L802.993 93.066C803.553 93.9697 804.125 94.9998 804.656 96.0781L804.989 96.7988V96.8356C805.51 97.9248 805.99 99.0191 806.393 100.088L806.596 100.679L806.615 100.698C807.016 101.779 807.278 102.67 807.539 103.581V103.932L807.78 104.837C807.957 105.497 808.101 106.089 808.205 106.593L809.221 111.49L814.173 112.192C823.784 113.555 832.748 117.835 839.859 124.444V124.463C844.468 128.721 848.193 133.841 850.817 139.541C853.441 145.241 854.921 151.399 855.16 157.669C855.398 163.94 854.386 170.19 852.203 176.074H852.222C850.038 181.958 846.699 187.368 842.428 191.966C835.365 199.483 826.079 204.541 815.929 206.38H815.91C805.742 208.222 795.255 206.747 785.993 202.167L781.262 199.82L735.786 248.863L738.631 253.464C757.749 284.293 764.934 323.049 758.644 363.728L758.367 365.428L758.94 367.073C776.082 417.802 773.027 475.516 749.959 529.854C727.813 582.158 688.263 629.645 634.632 668.261L616.781 681.122H846.992C857.258 681.21 867.096 685.276 874.359 692.542C881.69 699.875 885.808 709.799 885.816 720.168V728.299C885.799 738.658 881.667 748.599 874.341 755.925C867.015 763.251 857.093 767.365 846.733 767.382H58.2843H58.2658C47.9034 767.371 37.969 763.253 30.6398 755.927C23.3103 748.6 19.1999 738.664 19.1829 728.301V720.17C19.191 709.798 23.3056 699.86 30.6398 692.526C37.9694 685.196 47.9001 681.082 58.2658 681.069H202.993L172.798 667.505C144.448 654.767 110.173 636.118 80.8101 614.896C61.1435 600.681 45.8564 585.345 33.8182 570.121V569.493C51.2203 591.489 79.1113 612.297 108.492 630.566C147.734 654.966 189.465 674.018 214.006 680.828L214.93 681.087H611.304L613.059 679.978C738.832 599.662 779.163 486.484 764.161 397.934L759.431 369.939L750.431 396.881C749.751 398.922 749.036 400.97 748.288 403.034C748.074 403.591 747.887 404.073 747.734 404.457L747.697 404.55L747.678 404.624C747.058 406.3 746.391 407.98 745.7 409.65L745.664 409.743L745.645 409.817C745.427 410.384 745.159 411.011 744.869 411.702C744.098 413.493 743.353 415.225 742.577 416.913L742.521 417.023L742.466 417.153C742.346 417.439 742.165 417.839 741.948 418.335C740.99 420.417 739.972 422.509 738.936 424.581L738.862 424.729L738.806 424.877C738.593 425.357 738.393 425.769 738.141 426.245L738.048 426.392L737.993 426.54C737.36 427.879 736.48 429.419 735.553 431.142H735.572L734.482 433.156C733.479 434.915 732.494 436.636 731.489 438.311L731.433 438.404L731.377 438.497C731.187 438.837 731.062 439.068 730.97 439.217L730.933 439.254L730.915 439.291C729.696 441.329 728.426 443.359 727.108 445.426V445.445L727.089 445.482C726.819 445.914 726.455 446.432 726.036 447.071C725.017 448.626 724.016 450.123 723.005 451.58L723.061 451.524L721.767 453.354L721.748 453.373C720.433 455.247 719.158 457.062 717.886 458.713L717.813 458.787L717.369 459.397C715.95 461.293 714.474 463.186 712.953 465.07V465.089L711.567 466.789L711.548 466.826C710.455 468.208 709.297 469.589 708.111 470.965L708.092 470.984L706.632 472.702C704.909 474.686 703.376 476.513 701.883 478.006L701.772 478.098L701.679 478.209C666.252 516.451 620.59 540.81 573.288 546.969H573.251H573.214C571.542 547.204 569.825 547.402 568.058 547.579L566.487 547.727L562.607 548.041L560.981 548.152C559.316 548.264 557.855 548.374 556.638 548.374H556.028H550.596H549.487C547.373 548.374 545.293 548.33 543.259 548.245H543.112H542.834C540.759 548.159 538.666 548.029 536.552 547.856H536.496L535.368 547.746H535.35C533.295 547.553 531.279 547.347 529.325 547.099L529.215 547.08L528.291 546.951H528.272C526.229 546.671 524.181 546.354 522.192 546.008L521.601 545.915H521.398C519.57 545.596 517.731 545.224 515.872 544.807L514.764 544.566L514.708 544.548C512.776 544.103 510.898 543.653 509.072 543.162L508.942 543.125L508.055 542.866H508.036C506.058 542.301 504.116 541.722 502.179 541.111L501.144 540.778H501.014C499.44 540.256 497.875 539.72 496.302 539.133L495.304 538.764L495.231 538.727C493.32 537.988 491.466 537.267 489.946 536.583L489.89 536.564L488.874 536.121H488.837C487.01 535.345 485.179 534.511 483.589 533.7L482.073 532.924H481.981C480.643 532.244 479.285 531.566 478.082 530.891L478.045 530.872L477.065 530.337L477.028 530.318C475.421 529.424 473.837 528.468 472.058 527.416L471.947 527.343L471.189 526.881L471.115 526.844C469.472 525.798 467.825 524.694 465.985 523.499L465.948 523.462L465.911 523.443C464.446 522.512 462.892 521.386 461.255 520.154L460.368 519.488L460.312 519.433C458.771 518.25 457.264 517.055 455.803 515.829L454.971 515.127L454.916 515.09C453.368 513.767 451.846 512.419 450.37 511.062C385.304 450.724 390.419 337.238 463.934 257.938H463.915C466.075 255.616 468.334 253.298 470.66 250.971L472.951 248.735C474.58 247.161 476.187 245.639 477.793 244.171L477.7 244.227L480.472 241.769H480.491C481.979 240.432 483.517 239.098 485.074 237.796L485.111 237.759C485.141 237.734 485.173 237.711 485.204 237.685C486.3 236.804 487.175 236.036 487.902 235.45H487.92C489.687 234.019 491.455 232.612 493.242 231.218C494.005 230.657 494.629 230.153 494.979 229.887L511.814 217.137H488.937L484.779 217.377C483.156 217.47 481.509 217.579 479.882 217.71H479.863L475.89 218.061L471.049 218.523L467.057 218.985C465.409 219.172 463.775 219.39 462.142 219.613L462.161 219.594L458.206 220.13L453.328 220.888L449.41 221.553L444.513 222.44L440.633 223.198L435.662 224.232L431.966 225.064H431.947C430.262 225.453 428.536 225.852 426.829 226.284H426.884L423.189 227.189L418.052 228.575L414.485 229.536L409.108 231.125L405.837 232.123C403.835 232.715 401.818 233.376 399.961 234.008L397.17 234.932H397.151C394.789 235.725 392.477 236.572 390.222 237.389L388.503 237.999L388.484 238.018C385.601 239.083 382.688 240.189 379.762 241.363L379.485 241.474C376.684 242.546 373.888 243.707 371.096 244.948L368.693 246.001C366.61 246.876 364.588 247.791 362.632 248.681L362.613 248.699L359.528 250.121L354.114 252.671L350.714 254.371L345.595 256.94L342.084 258.769L342.324 258.659C340.474 259.542 338.838 260.471 337.335 261.301C337.27 261.333 337.232 261.362 337.168 261.394C337.147 261.406 337.116 261.418 337.095 261.431C335.726 262.125 334.513 262.821 333.454 263.408L333.491 263.371C331.827 264.279 330.191 265.225 328.594 266.143C327.301 266.868 326.07 267.595 324.898 268.286L324.843 268.305L324.806 268.324C323.38 269.193 321.843 270.072 320.149 271.096H320.112L316.453 273.35L311.76 276.27L308.064 278.654L303.407 281.703L299.711 284.179L295.092 287.358L291.433 289.945C289.889 291.029 288.326 292.15 286.776 293.289L283.136 295.95L278.553 299.387L274.857 302.178L270.274 305.818L266.653 308.645L266.616 308.664C265.022 309.938 263.473 311.224 261.959 312.452H261.94L258.411 315.354L253.643 319.382L250.261 322.246L245.291 326.589L242.149 329.361V329.38C240.298 331.027 238.472 332.684 236.661 334.332L236.642 334.351L234.036 336.735C231.335 339.228 228.637 341.764 225.961 344.329C187.113 381.557 156.67 420.278 135.839 449.826C115.009 479.374 104.143 499.101 103.464 500.347L102.91 501.345L101.986 500.809V500.79C100.345 499.838 87.5281 492.521 71.1077 489.777C62.8974 488.405 53.7424 488.203 44.7936 491.126C35.8449 494.048 27.2908 500.333 21.3069 510.602C21.1039 510.95 21.183 511.378 20.9928 511.73L19.8666 508.993C29.1656 493.45 41.7068 487.767 55.6788 486.726C69.8238 485.672 85.1934 490.001 96.4433 495.226L102.246 497.905L105.516 492.436C137.848 438.451 177.04 388.877 222.1 344.955L224.151 342.959L224.244 340.095C225.777 291.762 247.102 241.713 283.21 202.741H283.229C312.253 171.395 348.05 149.452 386.711 138.952C422.315 129.347 458.586 130.635 489.343 142.186L493.797 143.867L542.692 91.2208L539.994 86.6565C534.158 76.8077 532.045 65.1986 534.062 53.9303C536.078 42.661 542.082 32.483 550.97 25.2695C559.858 18.0554 571.033 14.2804 582.476 14.6256V14.6256ZM580.776 16.3627C569.266 16.3201 558.156 20.6442 549.713 28.4664C541.271 36.289 536.116 47.0332 535.281 58.5131C534.446 69.9847 537.994 81.3374 545.204 90.2969C545.373 90.5078 545.455 90.7641 545.445 91.036C545.434 91.3071 545.317 91.5558 545.13 91.7567V91.7752L496.272 144.533L504.902 149.134L506.306 149.91C507.508 150.574 508.67 151.211 509.78 151.85L511.406 152.793C512.574 153.479 513.686 154.16 514.788 154.862L516.082 155.675C517.582 156.648 519.041 157.635 520.48 158.65L520.553 158.706L520.646 158.762C520.668 158.776 520.926 158.984 521.385 159.316L521.422 159.335L521.459 159.354C522.588 160.151 523.719 161.005 524.841 161.867L526.301 163.013C527.297 163.786 528.276 164.578 529.22 165.378L529.257 165.397L530.643 166.543C531.984 167.698 533.325 168.883 534.616 170.073C536.231 171.587 537.823 173.187 539.439 174.822C539.898 175.311 540.341 175.747 540.64 176.06C542.056 177.545 543.44 179.079 544.798 180.642L544.817 180.661L544.854 180.68C545.189 181.059 545.222 181.117 544.983 180.81L545.094 180.958L545.205 181.087C546.395 182.471 547.545 183.842 548.642 185.226L553.779 191.712L599.681 142.263C599.867 142.062 600.11 141.924 600.383 141.893C600.657 141.862 600.933 141.943 601.159 142.096H601.178L601.197 142.115C610.196 148.146 621.037 150.777 631.798 149.544C642.56 148.311 652.541 143.28 659.941 135.37H659.96V135.351C664.023 130.978 667.178 125.853 669.255 120.254C671.333 114.657 672.29 108.703 672.064 102.736C671.837 96.767 670.435 90.8989 667.941 85.4739C665.451 80.0566 661.928 75.1864 657.556 71.1342C651.748 65.7189 644.614 61.9195 636.878 60.1208L628.969 58.2914L628.212 66.3667C627.79 70.8284 624.632 74.292 623.019 78.4149C625.044 73.2085 626.12 67.632 626.124 61.9502V61.9317C626.126 60.4413 626.066 58.9402 625.92 57.4598C625.834 56.587 625.708 55.7828 625.588 54.9837V54.2999L625.458 53.6347C625.27 52.6696 625.027 51.6515 624.756 50.5672L624.719 50.3824L624.627 49.9389L624.59 49.8095C624.271 48.601 623.907 47.564 623.536 46.5572L623.517 46.5018L623.24 45.7257L623.166 45.5409C622.858 44.7842 622.446 43.7711 621.929 42.6951L621.855 42.5288L621.615 42.0114L621.559 41.8821C621.072 40.9059 620.53 39.8609 619.859 38.7591L619.582 38.2787L619.564 38.2602C618.882 37.1267 618.212 36.1568 617.623 35.322L617.475 35.1188L616.995 34.5275L617.198 34.8046C616.432 33.77 615.647 32.7734 614.778 31.811L614.741 31.7741L614.537 31.5523L614.464 31.4784C613.555 30.4727 612.651 29.5454 611.71 28.6696C603.328 20.8041 592.273 16.4041 580.776 16.3627H580.776ZM580.721 30.5545C588.64 30.5831 596.256 33.6116 602.027 39.0363L602.046 39.0548C602.673 39.6392 603.289 40.2762 603.986 41.0505L604.042 41.0875L604.3 41.3831C604.757 41.893 605.244 42.5021 605.797 43.2495L605.89 43.3789L606.112 43.6561C606.595 44.3439 607.033 44.9578 607.405 45.5779V45.5963L607.738 46.1322C608.042 46.6325 608.377 47.2704 608.736 47.9801L609.05 48.6453L609.087 48.7378C609.38 49.3349 609.697 50.0946 610.011 50.8629C610.016 50.8766 610.024 50.8861 610.03 50.8998L610.141 51.2325L610.177 51.3249C610.512 52.2279 610.69 52.7814 610.861 53.4315L610.935 53.7641L610.954 53.8566C611.14 54.5911 611.272 55.199 611.397 55.7968V56L611.49 56.5544C611.62 57.3694 611.714 58.1313 611.786 58.8642C611.886 59.8812 611.936 60.8932 611.934 61.9132V61.9317C611.931 69.8094 608.962 77.3957 603.618 83.1825C602.261 84.6472 601.194 86.3706 600.495 88.2457C599.791 90.1362 599.479 92.1488 599.553 94.159C599.628 96.1726 600.095 98.1484 600.939 99.9798C601.781 101.81 602.986 103.454 604.468 104.821C605.942 106.186 607.658 107.247 609.531 107.944C611.417 108.645 613.431 108.981 615.445 108.905C617.454 108.829 619.433 108.361 621.266 107.519C623.093 106.68 624.738 105.485 626.107 104.008L626.126 103.989L627.179 102.825L627.235 102.769C633.635 95.4647 637.471 86.58 639.893 77.2684C642.62 78.6108 645.634 79.4281 647.876 81.5185H647.895V81.537C650.907 84.3256 653.35 87.6752 655.065 91.4047C656.779 95.1344 657.737 99.1658 657.892 103.268C658.047 107.37 657.38 111.467 655.952 115.316C654.527 119.156 652.362 122.68 649.577 125.683C649.573 125.687 649.562 125.679 649.558 125.683C649.554 125.687 649.561 125.697 649.558 125.702C644.458 131.144 637.602 134.591 630.192 135.44C622.786 136.289 615.323 134.481 609.126 130.34L609.089 130.321C606.063 128.279 602.403 127.378 598.778 127.79C595.137 128.203 591.772 129.908 589.279 132.594L554.425 170.126C553.261 168.815 552.097 167.504 550.896 166.245C550.405 165.733 550.002 165.32 549.713 165.007L549.62 164.915L549.547 164.841C547.843 163.118 546.093 161.384 544.28 159.685L544.261 159.666L544.224 159.647C542.761 158.299 541.274 156.971 539.79 155.694L539.734 155.657L538.404 154.548L538.33 154.492C537.252 153.58 536.144 152.683 535.022 151.813L535.003 151.794L533.525 150.63L533.506 150.611C532.297 149.681 531.026 148.746 529.718 147.821L529.644 147.765C529.47 147.636 529.12 147.375 528.665 147.063L528.498 146.952C526.931 145.849 525.344 144.782 523.732 143.738L523.713 143.719L522.401 142.869V142.888C521.281 142.175 520.178 141.502 519.056 140.837L555.553 101.421C558.044 98.7346 559.482 95.2367 559.618 91.5719C559.754 87.9099 558.579 84.3114 556.292 81.4455L556.273 81.427C551.304 75.2592 548.861 67.4278 549.436 59.5295C550.011 51.6309 553.549 44.2534 559.359 38.87C565.168 33.4881 572.801 30.5252 580.721 30.5545H580.721ZM761.703 71.3929C750.181 71.3335 739.077 75.6683 730.622 83.4966C722.166 91.3249 717 102.07 716.171 113.562C715.344 125.054 718.903 136.442 726.15 145.401L726.113 145.364C726.286 145.582 726.382 145.828 726.372 146.103C726.361 146.38 726.247 146.638 726.057 146.843V146.862H726.039L677.328 199.582L685.884 204.257L687.288 205.015H687.307C688.53 205.67 689.695 206.319 690.837 206.974L692.352 207.861C693.488 208.57 694.646 209.3 695.789 210.023L696.972 210.762C698.493 211.748 699.976 212.741 701.407 213.755L702.183 214.328C703.477 215.362 704.693 216.229 705.712 217.008L707.172 218.135L707.246 218.191C707.982 218.731 708.937 219.564 710.11 220.538L711.404 221.628C712.794 222.828 714.143 224.004 715.413 225.176C717.026 226.688 718.617 228.253 720.199 229.869L721.456 231.181C722.86 232.654 724.241 234.163 725.614 235.727L725.633 235.764L726.113 236.282C727.28 237.62 728.379 238.957 729.421 240.291L734.558 246.87L780.497 197.273H780.516C780.694 197.08 780.934 196.956 781.199 196.921C781.471 196.89 781.753 196.955 781.976 197.106L781.994 197.125L782.013 197.144C791.015 203.171 801.87 205.806 812.633 204.573C823.395 203.34 833.371 198.325 840.776 190.418L840.795 190.399L840.814 190.38C846.21 184.549 849.979 177.409 851.754 169.665C853.528 161.921 853.241 153.851 850.922 146.252C848.603 138.654 844.336 131.784 838.541 126.35C832.745 120.916 825.633 117.106 817.9 115.281L809.954 113.397L809.197 121.527C808.778 126.008 805.63 129.493 804.004 133.631C802.022 138.677 801.29 144.259 797.684 148.396L797.629 148.452L797.573 148.507C797.402 148.712 797.151 149.013 796.889 149.302C796.885 149.306 796.875 149.298 796.87 149.302C796.661 149.504 796.403 149.629 796.112 149.635H796.093C795.796 149.64 795.518 149.543 795.299 149.339V149.32C795.082 149.119 794.965 148.862 794.948 148.562C794.931 148.265 795.013 147.975 795.206 147.749L795.022 147.952C798.911 143.746 801.95 138.876 804.002 133.631C806.055 128.387 807.126 122.766 807.125 117.037C807.125 115.538 807.041 114.105 806.922 112.732V112.695C806.851 111.836 806.724 110.993 806.589 110.145V109.498L806.479 108.851C806.28 107.77 806.005 106.665 805.684 105.488L805.665 105.377L805.554 104.934C805.227 103.651 804.85 102.6 804.501 101.607L804.445 101.459L804.279 101.016L804.205 100.83V100.811C803.822 99.8116 803.374 98.7898 802.893 97.7435V97.7066L802.56 97.0229L802.524 96.9491C802.021 95.9464 801.472 94.935 800.897 93.9557L800.879 93.9187L800.583 93.4198L800.509 93.2904C799.825 92.2462 799.2 91.2986 798.44 90.2784L798.403 90.223L798.126 89.8904L798.015 89.7425C797.283 88.761 796.53 87.8116 795.705 86.8968L795.668 86.8598L795.502 86.675L795.391 86.5641C794.52 85.5943 793.599 84.6581 792.637 83.7738C784.268 75.8887 773.204 71.4511 761.704 71.3929H761.703ZM622.927 78.6182C620.922 83.6733 620.18 89.2788 616.552 93.4198L615.665 94.3807C615.569 94.4763 615.454 94.5649 615.332 94.621C615.2 94.6817 615.057 94.7077 614.907 94.7134C614.76 94.7189 614.622 94.6917 614.482 94.6395C614.339 94.5862 614.2 94.5164 614.094 94.4178V94.3993H614.075C613.968 94.3003 613.896 94.1821 613.835 94.0482C613.773 93.9155 613.729 93.7705 613.724 93.6232C613.718 93.4724 613.747 93.3343 613.798 93.1982C613.848 93.0628 613.918 92.9377 614.019 92.8286L614.038 92.8102H614.057C617.907 88.6408 620.879 83.8081 622.927 78.6183L622.927 78.6182ZM761.63 85.5848H761.649C769.576 85.6249 777.174 88.677 782.936 94.122L782.973 94.159L783.01 94.196C783.671 94.8023 784.298 95.4474 784.895 96.1178L784.951 96.1737L785.247 96.4693C785.703 96.9807 786.174 97.5919 786.725 98.3357L786.781 98.4095L787.058 98.7606C787.458 99.2978 787.937 100.014 788.629 101.07L788.702 101.2C789.095 101.872 789.472 102.592 789.83 103.306L790.013 103.713C790.355 104.459 790.693 105.226 790.956 105.912L791.049 106.189L791.196 106.558L791.215 106.595C791.48 107.356 791.682 107.953 791.807 108.443V108.462L791.973 109.09V109.146C792.166 109.848 792.286 110.406 792.398 110.957V111.216L792.509 111.863C792.633 112.536 792.731 113.198 792.786 113.877V113.896V113.915C792.883 115.029 792.934 116.086 792.934 117.038C792.935 124.928 789.975 132.514 784.618 138.307L784.526 138.418L784.433 138.529C781.858 141.538 780.545 145.424 780.774 149.376C781.003 153.328 782.746 157.05 785.653 159.742C788.557 162.434 792.41 163.9 796.37 163.826C800.331 163.754 804.099 162.151 806.903 159.354L807.033 159.225L807.144 159.114C807.492 158.733 807.912 158.263 808.363 157.728V157.709C814.679 150.459 818.476 141.649 820.873 132.43C823.593 133.781 826.603 134.604 828.838 136.699C832.824 140.436 835.761 145.164 837.357 150.392C838.951 155.618 839.15 161.161 837.93 166.487C836.711 171.806 834.111 176.727 830.409 180.734C825.304 186.176 818.438 189.623 811.024 190.472C803.601 191.323 796.111 189.511 789.903 185.354L789.959 185.391C786.925 183.323 783.254 182.408 779.61 182.822H779.591C775.949 183.238 772.585 184.949 770.093 187.645L735.242 225.25C734.081 223.948 732.923 222.637 731.712 221.368L730.382 219.982L730.345 219.945C728.643 218.206 726.893 216.471 725.078 214.771L725.059 214.752L725.041 214.733C723.553 213.362 722.058 212.066 720.587 210.797L720.55 210.76L719.183 209.615C718.257 208.846 717.138 207.868 715.783 206.861L715.635 206.75L714.341 205.734H714.324C712.955 204.688 711.778 203.849 710.868 203.11L710.739 202.999L709.648 202.205L709.612 202.168C707.943 200.984 706.286 199.889 704.641 198.823L704.604 198.804L703.384 198.028L703.365 198.009C702.197 197.27 701.08 196.582 700.021 195.921L736.461 156.505C738.956 153.82 740.402 150.321 740.545 146.656C740.688 142.989 739.5 139.4 737.219 136.53L737.2 136.493L737.181 136.474C732.197 130.313 729.757 122.485 730.326 114.578C730.896 106.671 734.432 99.2856 740.25 93.9003C746.066 88.5151 753.704 85.5439 761.63 85.5848ZM434.922 149.097H434.959H434.978C453.197 148.956 471.266 152.469 488.105 159.427C501.096 164.887 513.042 172.596 523.381 182.174C524.849 183.525 526.317 184.966 527.742 186.443L527.779 186.499L527.835 186.536C528.161 186.862 528.56 187.313 529.091 187.885L529.128 187.921L529.147 187.94C530.126 188.971 531.079 190.016 531.975 191.045L531.993 191.064C532.107 191.194 532.229 191.337 532.345 191.47C530.853 192.125 529.363 192.791 527.873 193.503L527.54 193.669L526.136 194.519C524.155 195.463 522.182 196.452 520.259 197.439L520.222 197.458L518.892 198.16C517.457 198.91 516.036 199.663 514.605 200.451H512.681H505.696C502.768 200.451 499.741 200.458 496.642 200.581C495.627 200.581 494.376 200.565 492.872 200.729C490.973 200.758 489.19 200.842 487.587 200.932C487.417 200.932 487.379 200.947 487.217 200.951C485.621 200.981 484.334 201.145 483.559 201.191H483.54C481.729 201.3 479.881 201.408 477.978 201.561H477.922L474.004 201.93L468.756 202.429L464.635 202.928H464.728C463.038 203.114 461.294 203.323 459.535 203.575L459.554 203.556L455.397 204.147L450.426 204.905L446.176 205.625L441.26 206.512L436.992 207.362L432.15 208.379L427.881 209.34L423.077 210.467L418.753 211.557L414.004 212.814L409.68 214.015L404.968 215.419H404.949C403.575 215.831 402.123 216.258 400.606 216.75H400.587C399.222 217.193 397.517 217.748 395.931 218.265L391.662 219.669L386.913 221.351L382.718 222.848H382.699C381.021 223.466 379.418 224.104 377.858 224.714L373.775 226.302V226.321C372.075 226.989 370.413 227.678 368.804 228.354L364.887 229.961C362.886 230.782 361.158 231.599 359.491 232.345L355.98 233.879L355.943 233.898C353.033 235.224 350.136 236.601 347.24 238L347.203 238.019L343.858 239.682C341.998 240.594 340.207 241.515 338.481 242.361L338.425 242.38L338.388 242.399C336.959 243.124 335.643 243.848 334.452 244.469C332.855 245.303 331.22 246.147 329.555 247.056L329.536 247.075L325.489 249.329L320.832 251.916L320.814 251.935C319.372 252.762 317.994 253.582 316.674 254.356C315.207 255.216 313.59 256.208 312.258 256.962L312.147 257.035L307.915 259.622L303.406 262.431L299.23 265.092L294.721 268.049L290.563 270.821V270.84C289.12 271.82 287.59 272.832 286.036 273.926L281.971 276.771L277.48 279.987L273.397 282.98C271.864 284.101 270.364 285.228 268.906 286.325C267.454 287.419 266.199 288.359 264.804 289.448L260.332 292.903L256.377 296.045V296.064C254.82 297.302 253.316 298.535 251.869 299.686L251.813 299.705L247.914 302.92C247.41 303.321 246.919 303.78 246.417 304.195C254.493 271.904 271.037 240.298 295.294 214.184L296.532 212.854C335.102 171.916 386.95 149.101 434.921 149.101L434.922 149.097ZM615.313 189.88C595.452 189.982 575.746 193.29 556.938 199.674C553.693 200.757 550.454 201.905 547.219 203.185H547.255C537.508 207.003 528.052 211.539 518.983 216.767C499.168 228.204 481.202 242.582 465.689 259.398C394.004 336.732 386.802 448.873 452.015 509.325C483.368 538.386 526.685 550.887 573.181 544.823H573.2C620.275 538.666 665.304 514.429 700.206 476.765C730.022 444.617 749.418 406.108 756.142 365.374C763.209 322.664 755.287 281.424 733.376 249.456C719.727 229.509 700.637 214.183 678.77 204.035V203.222L674.409 201.429L674.391 201.41C655.664 193.661 635.579 189.741 615.313 189.879L615.313 189.88ZM615.387 204.072H615.406C633.7 203.947 651.822 207.473 668.736 214.438L668.94 214.531C690.291 223.466 708.589 238.375 721.66 257.476H721.679C741.274 286.065 748.703 323.468 742.154 363.046C735.91 400.871 717.865 436.862 689.803 467.12C656.976 502.544 614.826 525.075 571.353 530.761C528.426 536.359 489.743 524.95 461.662 498.922C403.299 444.819 408.709 341.728 476.094 269.044L476.113 269.025C490.654 253.262 507.505 239.795 526.08 229.074C534.536 224.199 543.343 219.957 552.431 216.397H552.45C555.43 215.218 558.423 214.142 561.467 213.126L561.486 213.107H561.505C578.867 207.214 597.055 204.166 615.39 204.071L615.387 204.072ZM468.923 233.065L468.239 233.657L468.203 233.693C466.441 235.304 464.752 236.921 463.084 238.535L460.737 240.808L460.7 240.845C458.225 243.319 455.836 245.795 453.53 248.273V248.292C375.622 332.33 368.922 454.927 440.743 521.503L440.762 521.522C442.421 523.048 444.095 524.505 445.751 525.92L445.788 525.957L446.693 526.715C448.363 528.116 450.043 529.443 451.738 530.743L451.757 530.762L452.737 531.501C454.461 532.8 456.312 534.163 458.317 535.437C460.051 536.565 461.748 537.701 463.602 538.874L463.639 538.911L464.674 539.54L464.73 539.577C466.509 540.627 468.252 541.664 470.181 542.736L470.218 542.755L471.234 543.31C473.189 544.402 475.181 545.413 477.074 546.359L478.57 547.116H478.829C480.325 547.831 481.837 548.545 483.3 549.166L484.205 549.572C486.254 550.49 488.322 551.27 490.193 551.993L490.229 552.012L491.338 552.419C493.416 553.193 495.528 553.946 497.676 554.636L498.748 554.969H499.025C500.736 555.498 502.453 556.015 504.163 556.503H504.107L505.179 556.817L505.252 556.836C507.387 557.412 509.495 557.906 511.591 558.388L511.61 558.407L512.774 558.665C514.96 559.156 517.205 559.607 519.5 559.996L520.073 560.107H520.498C522.428 560.434 524.358 560.746 526.3 561.012L527.372 561.16H527.428C529.671 561.448 531.888 561.678 534.062 561.881L535.318 561.992H535.355C537.641 562.179 539.942 562.34 542.266 562.435H542.414H542.969C545.147 562.522 547.321 562.564 549.492 562.564H550.6H556.033H556.643C558.606 562.564 560.372 562.411 561.928 562.306L563.647 562.195L567.767 561.862L569.486 561.696C571.317 561.512 573.198 561.299 575.122 561.031C625.927 554.415 674.43 528.424 711.922 488.039L711.995 487.946C714.067 485.864 715.793 483.798 717.391 481.959L717.428 481.94L718.869 480.24L718.888 480.203C720.176 478.709 721.435 477.199 722.64 475.676L722.677 475.62L723.989 473.994C725.63 471.961 727.247 469.896 728.812 467.803L728.848 467.766L729.126 467.36L729.255 467.194C730.722 465.279 732.086 463.359 733.376 461.521L733.339 461.539L734.651 459.71L734.67 459.673C735.795 458.051 736.876 456.446 737.922 454.85C738.253 454.345 738.648 453.757 739.086 453.058L739.123 453.002C740.457 450.91 741.768 448.802 743.059 446.645L743.096 446.571C743.329 446.188 743.519 445.88 743.669 445.61L743.78 445.407C744.873 443.579 745.889 441.776 746.884 440.03L746.94 439.974L748.067 437.886V437.867C748.867 436.381 749.794 434.722 750.673 432.896L750.784 432.674C751.064 432.139 751.35 431.556 751.634 430.937L751.782 430.642C752.082 430.038 752.352 429.403 752.65 428.794C754.625 506.026 713.986 597.856 606.925 666.895H217.148C195.165 660.691 153.911 642.093 115.994 618.517C77.8188 594.78 43.0689 565.302 33.3008 541.626C33.298 541.619 33.3036 541.615 33.3008 541.607C33.298 541.6 33.2851 541.596 33.2823 541.588C29.1847 531.582 29.4954 524.714 33.5595 517.75C37.9432 510.227 43.2041 506.568 49.1927 504.612C55.1813 502.656 62.0889 502.644 68.7804 503.762C82.155 505.997 94.434 512.824 94.8357 513.057L108.399 520.984L115.939 507.144V507.125C115.701 507.562 127.01 486.977 147.445 457.989C167.886 428.994 197.821 390.969 235.793 354.581V354.562C238.395 352.07 241.003 349.614 243.628 347.191L243.665 347.172L246.215 344.825L246.234 344.806C248.038 343.164 249.81 341.553 251.574 339.983L254.66 337.249L259.52 332.998L262.828 330.208L267.485 326.254L270.903 323.463L270.922 323.444C272.453 322.202 273.94 320.986 275.394 319.822L275.468 319.749L279.053 316.977L283.562 313.392L287.11 310.712L291.582 307.349L295.167 304.725L295.185 304.706C296.634 303.641 298.11 302.595 299.602 301.546H299.621L303.206 299.015L307.696 295.91L311.263 293.508L315.79 290.552L319.356 288.26L323.921 285.414L327.487 283.234C328.88 282.392 330.422 281.523 332.107 280.499L332.2 280.443C333.359 279.759 334.493 279.104 335.6 278.484L335.619 278.465L335.655 278.429C337.21 277.535 338.772 276.672 340.294 275.842L340.313 275.823L340.332 275.804C341.557 275.125 342.644 274.518 343.695 273.993L343.806 273.937L343.935 273.863C345.6 272.947 347.123 272.092 348.444 271.461L348.555 271.405L352.084 269.557L357.037 267.062L360.307 265.455L365.537 262.979L368.512 261.593L368.568 261.574C370.539 260.678 372.455 259.813 374.296 259.042L374.352 259.005L376.847 257.915L376.866 257.896C379.466 256.743 382.064 255.677 384.659 254.686L384.715 254.667L385.029 254.537H385.048C387.796 253.434 390.574 252.371 393.364 251.34L393.401 251.322L395.064 250.73C397.293 249.922 399.502 249.128 401.661 248.402L401.68 248.383L404.507 247.44H404.526C406.267 246.848 408.145 246.246 409.922 245.722L409.959 245.703L413.211 244.705L418.367 243.19L421.748 242.266L426.719 240.935L430.285 240.048H430.322C431.899 239.65 433.491 239.272 435.09 238.903L435.127 238.884L438.656 238.089L443.424 237.11L447.12 236.389L451.85 235.521L455.583 234.911L460.258 234.172L464.065 233.654C465.615 233.443 467.134 233.255 468.666 233.081H468.685L468.923 233.065ZM19.6264 509.233V516.588C16.4526 525.229 16.2288 534.608 19.6264 544.306C19.6285 544.312 19.6243 544.318 19.6264 544.325C19.9417 545.224 19.7937 546.086 20.1623 546.986C20.1672 546.998 20.1573 547.01 20.1623 547.023L23.7472 555.763C22.2855 553.15 19.2415 550.393 18.185 547.835C12.14 533.125 12.7237 520.954 19.4601 509.399C19.5067 509.319 19.5795 509.312 19.6264 509.233H19.6264ZM58.2658 683.415C48.5112 683.427 39.1454 687.308 32.2475 694.207C25.3497 701.105 21.4676 710.452 21.4558 720.207V720.226V728.357C21.4676 738.111 25.3497 747.478 32.2475 754.375C39.1454 761.274 48.5112 765.155 58.2658 765.167H846.725C856.48 765.155 865.846 761.274 872.744 754.375C879.641 747.478 883.524 738.112 883.535 728.357V720.226V720.207C883.524 710.452 879.641 701.104 872.744 694.207C865.846 687.308 856.48 683.427 846.725 683.415H58.2658ZM58.2658 697.607H846.725C852.721 697.62 858.47 700.001 862.709 704.241C866.954 708.485 869.336 714.224 869.343 720.225V728.338C869.336 734.339 866.954 740.096 862.709 744.34C858.47 748.581 852.721 750.963 846.725 750.974H58.2843H58.2658C52.2698 750.963 46.5215 748.581 42.2816 744.34C38.0415 740.101 35.6596 734.352 35.6476 728.356V720.225C35.6549 714.223 38.0373 708.485 42.2816 704.241C46.5215 700.001 52.2698 697.619 58.2658 697.607ZM846.72 674.026H638.77C693.298 634.764 733.754 586.304 756.481 532.628C780.168 476.833 783.391 417.325 765.645 364.808C772.164 322.649 764.758 282.139 744.656 249.723L782.848 208.524C793.475 213.779 805.511 215.475 817.176 213.362C828.842 211.249 839.517 205.438 847.625 196.79C852.532 191.508 856.349 185.311 858.857 178.553C861.364 171.795 862.515 164.608 862.24 157.404C861.966 150.202 860.273 143.123 857.259 136.575C854.245 130.026 849.968 124.138 844.674 119.245C836.502 111.651 826.201 106.741 815.156 105.175C815.011 104.468 814.83 103.743 814.63 103.001V102.784V102.621L814.54 102.223C814.196 100.973 813.798 99.7052 813.254 98.2387L813.019 97.5868C812.548 96.337 812.005 95.0512 811.389 93.7654L811.009 92.9508C810.393 91.701 809.723 90.4691 809.016 89.3281L808.817 89.0027L808.455 88.4596C807.658 87.1738 806.88 85.9779 806.065 84.8378L805.612 84.2399C804.708 82.9844 803.741 81.7752 802.714 80.6181L802.425 80.3097C801.302 79.0608 800.197 77.9378 799.074 76.8876C789.394 67.9136 776.799 62.7355 763.605 62.3031C750.411 61.8707 737.505 66.2144 727.257 74.5346C717.01 82.8557 710.108 94.5952 707.822 107.596C705.535 120.597 708.018 133.987 714.812 145.304L672.635 190.687C642.048 179.169 607.152 177.467 572.219 185.634L602.009 153.453C612.634 158.711 624.671 160.409 636.337 158.296C648.003 156.182 658.679 150.37 666.786 141.719C673.591 134.384 678.258 125.327 680.281 115.528C682.305 105.729 681.607 95.564 678.263 86.134C674.92 76.704 669.057 68.3687 661.314 62.0335C653.57 55.6982 644.24 51.6034 634.334 50.1946C634.171 49.4699 633.989 48.7092 633.773 47.8766C633.773 47.659 633.646 47.4234 633.591 47.2427C633.229 45.9749 632.812 44.7071 632.323 43.3485L632.034 42.5519C631.545 41.303 631.001 40.0172 630.404 38.7494L630.023 37.9338C629.408 36.685 628.737 35.4351 628.014 34.2222L627.705 33.6962L627.597 33.5334C626.819 32.2656 626.003 31.0527 625.188 29.9117L624.754 29.3506C623.794 28.0469 622.835 26.8879 621.91 25.8367L621.567 25.4564C620.426 24.1895 619.321 23.0665 618.18 22.0163C618.16 21.9775 618.129 21.9463 618.09 21.9255C608.399 13.0396 595.837 7.93271 582.695 7.53619C569.553 7.13967 556.706 11.48 546.498 19.7656C536.289 28.0507 529.398 39.7296 527.082 52.6725C524.766 65.6145 527.179 78.9586 533.881 90.2705L491.831 135.543C459.524 123.41 421.784 122.142 384.859 132.103C344.856 142.968 307.894 165.641 278.014 197.913C240.799 238.079 218.742 289.618 217.148 339.872C171.649 384.221 132.083 434.275 99.4372 488.785C75.2614 477.557 34.2437 469.987 13.3274 505.826C5.50416 519.245 4.94274 534.276 11.6251 550.538C31.5454 598.763 112.368 648.129 169.883 673.971H58.2748C46.0255 673.981 34.2807 678.851 25.6192 687.513C16.9576 696.174 12.0874 707.919 12.0778 720.168V728.299C12.0922 740.546 16.9645 752.285 25.6256 760.943C34.2866 769.601 46.0287 774.469 58.2748 774.478H846.72C858.963 774.464 870.7 769.593 879.358 760.936C888.015 752.279 892.885 740.542 892.899 728.299V720.168C892.89 707.922 888.022 696.18 879.364 687.519C870.706 678.858 858.967 673.986 846.72 673.971V674.026ZM731.255 151.679C732.598 150.235 733.378 148.358 733.455 146.387C733.532 144.416 732.899 142.484 731.672 140.94C725.556 133.38 722.543 123.776 723.241 114.077C723.94 104.377 728.298 95.3057 735.434 88.6989C742.57 82.0922 751.951 78.4439 761.675 78.4941C771.4 78.5433 780.742 82.2871 787.811 88.9667C788.648 89.735 789.446 90.5448 790.201 91.3926L790.436 91.6461C791.106 92.3888 791.758 93.2044 792.429 94.1098L792.754 94.5261C793.334 95.3048 793.877 96.1374 794.565 97.1875L794.783 97.5499C795.272 98.3835 795.742 99.2529 796.177 100.121L796.449 100.701C796.865 101.607 797.245 102.512 797.572 103.363L797.662 103.598L797.807 103.961C798.151 104.939 798.44 105.772 798.676 106.695L798.821 107.257C799.11 108.307 799.328 109.249 799.491 110.136V110.57C799.657 111.476 799.778 112.388 799.853 113.306C799.962 114.555 800.035 115.804 800.035 117.036C800.036 126.71 796.388 136.029 789.82 143.131C788.436 144.749 787.732 146.84 787.855 148.965C787.978 151.091 788.919 153.086 790.481 154.533C792.043 155.981 794.103 156.767 796.232 156.727C798.361 156.688 800.392 155.826 801.899 154.323C802.28 153.907 802.66 153.49 803.023 153.055C810.562 144.405 815.192 133.604 816.261 122.179C822.786 123.719 828.794 126.942 833.685 131.528C838.576 136.114 842.18 141.902 844.137 148.315C846.094 154.728 846.335 161.542 844.837 168.077C843.34 174.612 840.155 180.641 835.601 185.562C829.345 192.242 820.919 196.48 811.827 197.522C802.734 198.564 793.568 196.34 785.963 191.248C784.335 190.138 782.362 189.651 780.405 189.873C778.447 190.097 776.634 191.014 775.297 192.461L735.022 235.924C733.863 234.439 732.649 232.99 731.4 231.56L730.947 231.052C729.516 229.422 728.068 227.829 726.583 226.272L725.279 224.913C723.631 223.229 721.946 221.563 720.226 219.952C718.832 218.666 717.401 217.416 715.953 216.166L714.649 215.08C713.58 214.193 712.53 213.269 711.444 212.472L710.013 211.367C708.781 210.426 707.55 209.557 706.391 208.615L705.504 207.963C703.946 206.858 702.37 205.808 700.777 204.776L699.582 204.015C698.35 203.236 697.119 202.476 695.96 201.751L694.366 200.81C693.135 200.104 691.903 199.433 690.654 198.763L689.278 198.02L688.716 197.713L731.255 151.679ZM671.675 207.981C694.288 217.444 713.682 233.242 727.525 253.472C748.278 283.75 755.956 323.067 749.147 364.211C742.664 403.49 723.939 440.74 695 471.944C661.135 508.487 617.547 531.867 572.273 537.789C527.561 543.62 486.561 531.667 456.844 504.123C395.055 446.844 401.357 339.22 470.897 264.21C485.924 247.921 503.332 234.001 522.527 222.921C531.29 217.87 540.418 213.481 549.836 209.792C552.95 208.56 556.065 207.438 559.216 206.387C577.301 200.249 596.257 197.069 615.355 196.97C634.674 196.839 653.824 200.576 671.675 207.963V207.981ZM550.343 96.5905C551.681 95.1468 552.458 93.2716 552.531 91.3036C552.604 89.3366 551.969 87.4084 550.741 85.87C544.646 78.3049 541.648 68.7093 542.354 59.0201C543.059 49.3308 547.414 40.2708 554.541 33.6678C561.667 27.0657 571.033 23.4137 580.748 23.4497C590.463 23.4847 599.802 27.2058 606.88 33.8598C607.677 34.6016 608.455 35.3992 609.27 36.3046L609.506 36.5582C610.175 37.2999 610.827 38.1155 611.498 39.0209L611.824 39.4193C612.386 40.2159 612.947 41.0305 613.49 41.9359L613.797 42.4431C614.304 43.2766 614.758 44.1461 615.21 45.0515L615.463 45.6126C615.899 46.5 616.279 47.4234 616.604 48.2201L616.822 48.854C617.184 49.8323 617.474 50.6649 617.727 51.6252L617.836 52.1134C618.102 53.1645 618.319 54.1239 618.488 54.9934V55.4276C618.633 56.3331 618.76 57.2385 618.85 58.1619C618.973 59.4136 619.034 60.671 619.031 61.9294C619.028 71.5883 615.389 80.8925 608.836 87.9884C608.098 88.7794 607.523 89.7075 607.146 90.7208C606.768 91.7341 606.595 92.8117 606.635 93.8922C606.676 94.9727 606.929 96.0342 607.382 97.0163C607.834 97.9984 608.475 98.8811 609.27 99.6144C610.062 100.35 610.991 100.922 612.003 101.298C613.017 101.675 614.093 101.848 615.174 101.807C616.253 101.767 617.315 101.514 618.297 101.063C619.278 100.613 620.162 99.9729 620.897 99.1801L621.892 98.0939C629.506 89.4038 634.188 78.5376 635.275 67.0356C641.801 68.5532 647.815 71.7568 652.715 76.3256C656.411 79.7477 659.398 83.8662 661.503 88.4435C663.607 93.0208 664.787 97.9681 664.978 103.002C665.168 108.037 664.363 113.059 662.61 117.782C660.857 122.505 658.189 126.836 654.761 130.527C648.51 137.208 640.087 141.449 630.997 142.491C621.906 143.532 612.742 141.308 605.141 136.214C603.512 135.108 601.54 134.623 599.584 134.845C597.627 135.067 595.814 135.983 594.475 137.427L554.2 180.817C553.023 179.332 551.809 177.883 550.578 176.453C550.452 176.29 550.306 176.145 550.161 175.982C548.725 174.328 547.257 172.716 545.761 171.147C545.344 170.712 544.91 170.277 544.493 169.825C542.827 168.14 541.143 166.475 539.423 164.863C538.028 163.577 536.597 162.309 535.167 161.078L533.808 159.955C532.783 159.086 531.733 158.235 530.658 157.402L529.172 156.243C527.995 155.337 526.782 154.432 525.551 153.562C525.225 153.327 524.899 153.073 524.573 152.856C523.034 151.769 521.477 150.719 519.882 149.687L518.597 148.872C517.402 148.112 516.207 147.387 514.975 146.663L513.327 145.703C512.132 145.015 510.919 144.345 509.705 143.674L508.274 142.896L507.731 142.606L550.343 96.5905ZM290.056 209.158C330.024 166.04 384.225 142.009 434.931 142.009C454.098 141.861 473.101 145.555 490.817 152.874C504.587 158.657 517.238 166.809 528.195 176.96C529.788 178.426 531.346 179.966 532.849 181.523C533.356 182.03 533.826 182.555 534.297 183.062C535.33 184.149 536.344 185.254 537.322 186.377C537.847 186.975 538.372 187.589 538.88 188.187C539.809 189.275 540.714 190.379 541.596 191.502L543.062 193.313L543.805 194.345C541.723 195.159 539.658 196.029 537.576 196.916L535.873 197.659C534.207 198.383 532.559 199.126 530.929 199.904L529.571 200.738C527.543 201.697 525.515 202.711 523.504 203.744L522.2 204.431C520.57 205.283 518.977 206.133 517.384 207.021L516.405 207.546H514.594H512.675H505.703C502.679 207.546 499.654 207.546 496.648 207.673C495.634 207.673 494.638 207.673 493.642 207.782C491.614 207.782 489.604 207.926 487.593 208.035C486.38 208.035 485.185 208.199 483.971 208.271C482.16 208.38 480.35 208.488 478.539 208.633L474.663 208.995L469.52 209.484L465.5 209.973C463.852 210.154 462.186 210.353 460.538 210.589L456.427 211.169L451.556 211.91L447.408 212.617L442.592 213.487L438.408 214.319L433.664 215.316L429.462 216.257L424.754 217.362L420.535 218.43L415.862 219.662L411.643 220.839L406.988 222.215C405.595 222.632 404.182 223.048 402.787 223.5C401.393 223.954 399.691 224.497 398.134 225.004L393.95 226.38L389.296 228.028L385.149 229.513C383.574 230.093 382.016 230.708 380.44 231.324L376.366 232.917C374.754 233.551 373.143 234.222 371.548 234.892L367.601 236.521C365.79 237.264 364.124 238.042 362.385 238.821L358.89 240.36C356.029 241.664 353.174 243.005 350.324 244.381L347.029 246.029C345.218 246.916 343.407 247.839 341.596 248.727C340.31 249.379 339.025 250.086 337.739 250.755C336.145 251.588 334.551 252.422 332.958 253.291L328.937 255.518L324.338 258.09C322.979 258.868 321.622 259.683 320.263 260.481C318.904 261.277 317.257 262.291 315.754 263.142L311.643 265.66L307.188 268.43L303.078 271.056L298.64 273.953L294.547 276.706C293.081 277.702 291.595 278.698 290.129 279.73L286.054 282.573L281.636 285.725L277.598 288.695C276.112 289.781 274.646 290.886 273.178 291.99C271.712 293.095 270.499 294.001 269.176 295.033L264.722 298.492L260.792 301.607C259.289 302.802 257.786 304.033 256.282 305.228L252.425 308.398C250.904 309.605 249.383 310.891 247.862 312.255C246.612 313.305 245.344 314.374 244.095 315.46C242.537 316.8 240.98 318.177 239.423 319.553L235.801 322.74L234.986 323.446C240.328 282.718 259.814 241.955 290.093 209.357L290.056 209.158ZM26.7283 544.327C22.038 532.899 22.2553 523.047 27.4346 514.174C48.1698 478.589 96.3954 505.753 98.423 506.93L105.667 511.168L109.705 503.744C110.14 502.946 154.055 423.066 230.875 349.451C233.519 346.916 236.175 344.417 238.844 341.954L241.433 339.582C243.244 337.934 245.055 336.286 246.866 334.675L249.98 331.921L254.888 327.63L258.238 324.787L262.947 320.802L266.424 317.959C267.963 316.71 269.503 315.442 271.042 314.211L274.664 311.404L279.209 307.782L282.831 305.048L287.358 301.643L290.98 298.999C292.483 297.894 294.004 296.808 295.526 295.739L299.147 293.185L303.711 290.053L307.333 287.608L311.932 284.602L315.554 282.266L320.19 279.386L323.813 277.159C325.37 276.217 326.927 275.348 328.503 274.388C329.698 273.682 330.894 272.976 332.124 272.287C333.7 271.382 335.294 270.476 336.887 269.607C338.064 268.955 339.241 268.285 340.509 267.651C342.121 266.764 343.75 265.84 345.381 265.062L348.84 263.251L353.874 260.715L357.206 259.068L362.53 256.55L365.573 255.138C367.564 254.232 369.557 253.327 371.548 252.493L373.975 251.425C376.692 250.218 379.408 249.095 382.124 248.057L382.397 247.948C385.24 246.807 388.101 245.721 390.944 244.671L392.646 244.055C394.892 243.24 397.155 242.425 399.419 241.664L402.244 240.723C404.055 240.107 406.011 239.473 407.913 238.912L411.154 237.916L416.424 236.358L419.901 235.417L424.953 234.058L428.575 233.171C430.223 232.754 431.889 232.356 433.537 231.976L437.159 231.161L442.031 230.147L445.815 229.422L450.632 228.535L454.453 227.902L459.234 227.159L463.109 226.634C464.704 226.416 466.279 226.217 467.872 226.036L471.784 225.584L476.529 225.131L480.458 224.786C482.034 224.659 483.628 224.551 485.203 224.461L489.15 224.225H490.69C490.093 224.677 489.513 225.167 488.879 225.62C487.068 227.032 485.257 228.463 483.446 229.929C482.505 230.69 481.635 231.469 480.658 232.247C479.01 233.624 477.362 235.037 475.75 236.485L472.997 238.93C471.313 240.469 469.665 242.044 468.017 243.639L465.718 245.866C463.302 248.28 460.973 250.695 458.727 253.109C383.012 334.782 377.108 452.838 445.562 516.293C447.137 517.741 448.749 519.154 450.36 520.531L451.248 521.273C452.823 522.595 454.417 523.863 456.047 525.112L456.989 525.819C458.673 527.086 460.375 528.335 462.114 529.44C463.925 530.617 465.627 531.758 467.402 532.881L468.343 533.46C470.154 534.529 471.838 535.543 473.631 536.539L474.627 537.082C476.438 538.096 478.358 539.075 480.241 540.016H480.368C482.178 540.939 484.153 541.827 486.073 542.642L487.032 543.059C488.843 543.873 490.835 544.634 492.755 545.377L493.823 545.775C495.815 546.518 497.825 547.224 499.854 547.875H500.053C502.063 548.509 504.073 549.107 506.101 549.686L507.097 549.977C509.107 550.52 511.135 551.009 513.182 551.479L514.323 551.733C516.423 552.204 518.543 552.638 520.679 553.001H520.987C523.07 553.363 525.188 553.688 527.308 553.979L528.322 554.124C530.44 554.395 532.577 554.612 534.714 554.811L535.928 554.92C538.137 555.101 540.346 555.246 542.555 555.337H542.971C545.127 555.427 547.3 555.463 549.491 555.463H550.596C552.407 555.463 554.218 555.463 556.029 555.463H556.645C558.238 555.463 559.849 555.337 561.462 555.228L563.128 555.119L567.13 554.794L568.778 554.631C570.589 554.449 572.4 554.25 574.211 553.997C623.305 547.604 670.425 522.395 706.897 483.026C708.708 481.216 710.356 479.241 712.041 477.303L713.49 475.601C714.739 474.153 715.953 472.685 717.112 471.219L718.469 469.535C720.064 467.561 721.621 465.569 723.123 463.558L723.504 463.033C724.898 461.222 726.239 459.321 727.561 457.438L728.847 455.627C729.915 454.087 730.947 452.53 731.979 450.955C732.359 450.375 732.74 449.814 733.102 449.234C734.442 447.133 735.746 445.051 737.013 442.932C737.213 442.606 737.394 442.28 737.575 441.954C738.662 440.143 739.694 438.333 740.726 436.522L741.813 434.511C742.7 432.863 743.624 431.215 744.403 429.567C744.71 428.988 745 428.408 745.29 427.756C746.376 425.584 747.444 423.373 748.459 421.164C748.64 420.748 748.839 420.314 749.021 419.878C749.853 418.068 750.632 416.257 751.411 414.446C751.7 413.758 751.991 413.069 752.262 412.363C752.986 410.613 753.675 408.856 754.327 407.094C754.543 406.55 754.743 406.007 754.96 405.445C755.721 403.345 756.463 401.245 757.17 399.125C771.657 484.638 733.048 594.923 609.234 673.989H215.899C169.502 661.114 48.9304 598.22 26.7283 544.29V544.327ZM876.438 728.354C876.428 736.232 873.294 743.785 867.723 749.356C862.152 754.928 854.598 758.061 846.72 758.071H58.2748C50.3962 758.061 42.843 754.928 37.272 749.356C31.7009 743.785 28.5669 736.232 28.5574 728.354V720.222C28.5669 712.344 31.7009 704.791 37.272 699.22C42.843 693.648 50.3962 690.515 58.2748 690.505H846.72C854.598 690.515 862.152 693.648 867.723 699.22C873.294 704.791 876.428 712.344 876.438 720.222V728.354Z" fill="black"/>
</svg>
