<?xml version="1.0" encoding="UTF-8" standalone="no"?>
<svg
   width="1000"
   height="1000"
   viewBox="0 0 1000 999.99999"
   fill="none"
   version="1.1"
   id="svg150"
   sodipodi:docname="vinsSpiritueux.svg"
   inkscape:version="1.2.1 (9c6d41e, 2022-07-14)"
   xmlns:inkscape="http://www.inkscape.org/namespaces/inkscape"
   xmlns:sodipodi="http://sodipodi.sourceforge.net/DTD/sodipodi-0.dtd"
   xmlns="http://www.w3.org/2000/svg"
   xmlns:svg="http://www.w3.org/2000/svg">
  <sodipodi:namedview
     id="namedview6743"
     pagecolor="#ffffff"
     bordercolor="#111111"
     borderopacity="1"
     inkscape:showpageshadow="0"
     inkscape:pageopacity="0"
     inkscape:pagecheckerboard="1"
     inkscape:deskcolor="#d1d1d1"
     showgrid="false"
     inkscape:zoom="2.4907373"
     inkscape:cx="38.34206"
     inkscape:cy="47.37553"
     inkscape:window-width="1309"
     inkscape:window-height="456"
     inkscape:window-x="236"
     inkscape:window-y="1448"
     inkscape:window-maximized="0"
     inkscape:current-layer="svg150" />
  <defs
     id="defs154" />
  <g
     id="g2035"
     transform="matrix(10.554003,0,0,10.554003,95.103722,1.6040399e-5)">
    <g
       id="path132" />
    <path
       id="path148"
       style="color:#000000;fill:#000000;stroke-miterlimit:10;-inkscape-stroke:none"
       d="m 38.285156,83.058594 c -0.373776,0.0032 -0.738576,0.118569 -1.046875,0.330078 -0.308301,0.211345 -0.546074,0.509259 -0.685547,0.855469 -0.139559,0.346424 -0.175484,0.726137 -0.101562,1.091796 0.07395,0.365957 0.253678,0.7024 0.517578,0.966797 0.263851,0.264348 0.60174,0.445076 0.96875,0.517578 0.366761,0.07245 0.747237,0.03368 1.091797,-0.111328 0.344687,-0.144965 0.638038,-0.389382 0.84375,-0.701172 0.205829,-0.311802 0.314453,-0.677632 0.314453,-1.050781 0,-0.248911 -0.04976,-0.496117 -0.144531,-0.726562 v -0.002 c -0.09521,-0.230451 -0.234091,-0.440792 -0.410157,-0.617188 -0.176577,-0.176909 -0.38813,-0.317046 -0.61914,-0.412109 -0.231028,-0.0949 -0.478198,-0.142793 -0.728516,-0.140625 z m 0.01172,1.5 c 0.04988,-4.32e-4 0.09951,0.01 0.146484,0.0293 v -0.002 c 0.04699,0.01934 0.09053,0.04945 0.126953,0.08594 0.03675,0.03682 0.06576,0.07995 0.08594,0.128906 0.02014,0.04884 0.03125,0.102605 0.03125,0.15625 0,0.08025 -0.02324,0.159213 -0.06641,0.22461 -0.04329,0.06561 -0.104316,0.115296 -0.173828,0.144531 -0.06984,0.02939 -0.145112,0.03603 -0.21875,0.02148 -0.07339,-0.0145 -0.142517,-0.05062 -0.197266,-0.105469 -0.0549,-0.055 -0.09352,-0.124682 -0.109375,-0.203125 -0.01588,-0.07854 -0.0082,-0.1608 0.02148,-0.234375 0.02973,-0.07379 0.07948,-0.136432 0.142578,-0.179687 0.0631,-0.04329 0.135915,-0.06577 0.210938,-0.06641 z M 38.2913,83.80866 c -0.2244,0.0019 -0.4432,0.0708 -0.6289,0.1982 -0.1857,0.1273 -0.3299,0.3073 -0.4145,0.5173 -0.0846,0.21 -0.1057,0.4406 -0.0608,0.6627 0.0449,0.2222 0.1539,0.4259 0.3133,0.5856 0.1593,0.1596 0.3619,0.2681 0.5821,0.3116 0.2202,0.0435 0.4483,0.0202 0.6555,-0.067 0.2071,-0.0871 0.3841,-0.2343 0.5086,-0.423 0.1245,-0.1886 0.1909,-0.4103 0.1909,-0.637 0,-0.1516 -0.0297,-0.3018 -0.0874,-0.4417 -0.0577,-0.14 -0.1423,-0.267 -0.2489,-0.3738 -0.1065,-0.1067 -0.233,-0.1911 -0.372,-0.2483 -0.139,-0.0571 -0.2878,-0.0859 -0.4379,-0.0846 z m -8.967081,2.246027 c -0.463354,-4.43e-4 -0.916218,0.137457 -1.300782,0.396485 -0.384696,0.259018 -0.683127,0.625863 -0.859375,1.054687 -0.176255,0.428846 -0.222113,0.900329 -0.132812,1.355469 0.08926,0.454907 0.30884,0.875331 0.634766,1.205078 0.32596,0.329637 0.742745,0.555019 1.197265,0.646485 0.454437,0.09157 0.927783,0.04404 1.355469,-0.134766 0.427533,-0.178803 0.791015,-0.480388 1.046875,-0.867188 0.255783,-0.386683 0.392578,-0.840896 0.392578,-1.304687 0,-0.62102 -0.245106,-1.218625 -0.681641,-1.660156 -0.43642,-0.44127 -1.031501,-0.690668 -1.652343,-0.691407 z m -0.002,1.5 c 6.2e-4,10e-7 0.0013,-2e-6 0.002,0 0.218885,7.54e-4 0.428804,0.08722 0.585937,0.246094 0.157465,0.159268 0.248047,0.377289 0.248047,0.605469 0,0.170008 -0.04976,0.336247 -0.142578,0.476562 -0.09274,0.1402 -0.224886,0.248903 -0.376953,0.3125 -0.152113,0.06359 -0.317553,0.07931 -0.478516,0.04687 -0.160111,-0.03222 -0.308539,-0.1124 -0.425781,-0.230468 -0.117474,-0.118852 -0.199677,-0.270608 -0.232422,-0.4375 -0.0327,-0.16666 -0.01552,-0.341493 0.04883,-0.498047 0.06435,-0.156576 0.173044,-0.288278 0.310547,-0.38086 0.136906,-0.09221 0.297555,-0.140405 0.460938,-0.140625 z M 29.324,86.80416 c -0.3137,-3e-4 -0.6205,0.0933 -0.8815,0.2691 -0.2611,0.1758 -0.4646,0.4259 -0.5849,0.7186 -0.1203,0.2927 -0.152,0.6149 -0.091,0.9258 0.061,0.3109 0.2118,0.5965 0.4335,0.8208 0.2217,0.2242 0.5043,0.377 0.8119,0.4389 0.3077,0.062 0.6266,0.0304 0.9165,-0.0908 0.2898,-0.1212 0.5376,-0.3265 0.7119,-0.59 0.1743,-0.2635 0.2674,-0.5734 0.2674,-0.8903 0,-0.4246 -0.1668,-0.8318 -0.4638,-1.1322 -0.297,-0.3003 -0.6998,-0.4694 -1.12,-0.4699 z m -6.087672,-6.776816 v 1.5 c 0.23696,0 0.46303,0.09409 0.632813,0.265625 0.169647,0.171347 0.267578,0.404852 0.267578,0.65039 v 0.002 c 2.22e-4,0.183478 -0.0544,0.362397 -0.154297,0.513672 -0.09999,0.151477 -0.240094,0.269033 -0.404297,0.337891 v -0.002 c -0.164208,0.06884 -0.343878,0.08763 -0.517578,0.05273 -0.17381,-0.03485 -0.334014,-0.121814 -0.460938,-0.25 -0.126272,-0.128128 -0.214764,-0.291482 -0.25,-0.470703 -0.03532,-0.179618 -0.01657,-0.366453 0.05273,-0.535156 0.06922,-0.168695 0.185634,-0.312154 0.333984,-0.41211 0.148461,-0.100047 0.321026,-0.15256 0.498047,-0.152343 z m 0,0 c -0.476779,-5.84e-4 -0.942352,0.141651 -1.337891,0.408203 -0.395448,0.266444 -0.703591,0.644433 -0.884765,1.085937 -0.181293,0.441296 -0.228794,0.92635 -0.136719,1.394532 0.09205,0.468197 0.320989,0.899393 0.65625,1.238281 0.335476,0.338813 0.764833,0.570311 1.232422,0.664062 0.466899,0.09338 0.951444,0.04543 1.390625,-0.138672 h 0.002 c 0.439596,-0.184342 0.813365,-0.496408 1.076172,-0.894531 0.262904,-0.398124 0.402922,-0.864675 0.402344,-1.341797 0,-0.638661 -0.25182,-1.251225 -0.701172,-1.705078 -0.449217,-0.453861 -1.06098,-0.710937 -1.699219,-0.710937 z M 23.236,80.77686 c -0.3269,-4e-4 -0.6466,0.0972 -0.9186,0.2805 -0.2719,0.1832 -0.484,0.4439 -0.6092,0.749 -0.1253,0.305 -0.1582,0.6408 -0.0945,0.9647 0.0637,0.324 0.2211,0.6215 0.4522,0.8551 0.2312,0.2335 0.5257,0.3925 0.8464,0.4568 0.3206,0.0644 0.6529,0.0312 0.9549,-0.0954 0.3019,-0.1266 0.5599,-0.3408 0.7413,-0.6156 0.1814,-0.2747 0.278,-0.5977 0.2776,-0.928 0,-0.4421 -0.1738,-0.8662 -0.4833,-1.1788 -0.3095,-0.3127 -0.7292,-0.4883 -1.1668,-0.4883 z m 29.472984,-5.890141 c -0.430881,0 -0.844085,0.17491 -1.146484,0.480468 -0.302333,0.305492 -0.470703,0.717211 -0.470703,1.146485 0,0.429274 0.16837,0.842946 0.470703,1.148437 0.302506,0.305667 0.71582,0.478516 1.146484,0.478516 h -0.0059 c 0.363407,0.0025 0.667602,0.23419 1.013672,0.332031 l -1.810547,1.074219 c -0.189535,0.105505 -0.354971,0.249054 -0.488281,0.419922 -0.133421,0.170771 -0.232272,0.365369 -0.289063,0.574219 -0.05701,0.20899 -0.07081,0.42653 -0.04297,0.640625 0.02791,0.214619 0.0985,0.422308 0.207032,0.609375 0.108462,0.18694 0.252479,0.349745 0.425781,0.480468 0.172741,0.130161 0.370974,0.224814 0.582031,0.277344 0.210718,0.05263 0.428497,0.06156 0.642578,0.02734 h 0.002 c 0.213906,-0.0344 0.418004,-0.111278 0.601563,-0.226563 l 2.673828,-1.576172 c 0.150886,0.45529 0.359239,0.898187 0.337891,1.382813 v 0.0059 0.0039 c -0.0131,0.428518 0.143343,0.845475 0.435547,1.160156 v 0.002 c 0.29243,0.314725 0.698814,0.499635 1.128906,0.513672 l 0.01367,0.002 h 0.03711 c 0.4224,1.87e-4 0.827776,-0.16808 1.128906,-0.462891 h 0.002 c 0.300005,-0.293893 0.470535,-0.692612 0.484375,-1.111328 0.08409,-1.772137 -0.498156,-3.511011 -1.636718,-4.865234 l -1.148438,0.964844 c 0.89607,1.065798 1.357461,2.438725 1.289063,3.83789 v 0.0059 0.0078 c -0.0011,0.03523 -0.01615,0.0674 -0.03906,0.08984 -0.02287,0.02239 -0.04933,0.03322 -0.07813,0.0332 h -0.002 -0.002 c -0.02891,-9.44e-4 -0.05599,-0.01399 -0.07813,-0.03711 -0.0224,-0.02412 -0.03625,-0.05787 -0.03516,-0.09375 v 0.0098 c 0.04577,-1.039122 -0.205326,-2.0694 -0.72461,-2.96875 l -0.378906,-0.65625 -4.197266,2.476563 -0.0078,0.0059 c -0.01324,0.0083 -0.02807,0.01323 -0.04297,0.01563 -0.01492,0.0024 -0.02869,0.0016 -0.04297,-0.002 -0.01394,-0.0035 -0.02796,-0.0097 -0.04102,-0.01953 -0.0123,-0.0093 -0.02447,-0.02205 -0.0332,-0.03711 -0.0087,-0.01493 -0.01334,-0.03125 -0.01563,-0.04883 -0.0024,-0.01811 -0.0026,-0.03593 0.002,-0.05273 0.0046,-0.01695 0.01326,-0.03385 0.02344,-0.04687 0.01009,-0.01293 0.02365,-0.02375 0.03711,-0.03125 l 0.0078,-0.0039 4.205078,-2.492188 -0.927734,-0.669922 c -0.935336,-0.675623 -2.055603,-1.042914 -3.207031,-1.050781 h -0.0039 -0.002 c -0.02954,0 -0.05718,-0.01007 -0.08008,-0.0332 -0.02307,-0.02331 -0.03711,-0.05802 -0.03711,-0.09375 0,-0.03573 0.01404,-0.06849 0.03711,-0.0918 0.023,-0.02324 0.05076,-0.03516 0.08008,-0.03516 0.759246,3.53e-4 1.510645,0.153898 2.210938,0.451172 0.700328,0.29725 1.334565,0.732525 1.867187,1.28125 l 0.0098,0.0098 0.0078,0.0078 c 0.03976,0.03841 0.106941,0.118976 0.19336,0.220703 l 1.144531,-0.970703 c -0.0689,-0.08111 -0.159518,-0.192196 -0.279297,-0.310547 -0.671377,-0.691674 -1.472151,-1.243392 -2.357422,-1.619141 -0.885105,-0.375726 -1.836322,-0.569865 -2.796875,-0.570312 z M 57.5702,77.87136 c -0.0796,-0.0937 -0.1592,-0.1914 -0.2444,-0.2737 -0.602,-0.6202 -1.3204,-1.1131 -2.1132,-1.4496 -0.7927,-0.3365 -1.6439,-0.51 -2.5038,-0.5104 -0.2301,0 -0.4508,0.0924 -0.6135,0.2568 -0.1627,0.1644 -0.2542,0.3874 -0.2542,0.6199 0,0.2325 0.0915,0.4555 0.2542,0.6199 0.1627,0.1644 0.3834,0.2567 0.6135,0.2567 0.9952,0.0068 1.964,0.3244 2.7736,0.9092 l -3.2112,1.9026 c -0.1015,0.0565 -0.1908,0.133 -0.2625,0.2249 -0.0718,0.0919 -0.1246,0.1974 -0.1553,0.3103 -0.0308,0.1129 -0.0388,0.2308 -0.0237,0.3469 0.0151,0.1161 0.0531,0.2279 0.1117,0.3289 0.0586,0.101 0.1366,0.1892 0.2294,0.2592 0.0929,0.07 0.1987,0.1206 0.3112,0.1486 0.1125,0.0281 0.2294,0.0331 0.3439,0.0148 0.1144,-0.0184 0.2241,-0.0597 0.3225,-0.1215 l 3.5352,-2.0863 c 0.4476,0.7752 0.6646,1.6643 0.6251,2.561 -0.0071,0.2322 0.0773,0.4578 0.2346,0.6272 0.1574,0.1694 0.3749,0.2687 0.6047,0.2762 h 0.0265 c 0.2256,10e-5 0.4424,-0.0886 0.6044,-0.2472 0.162,-0.1587 0.2564,-0.3748 0.2633,-0.6026 0.0776,-1.5874 -0.446,-3.1451 -1.4644,-4.3564 M 12.804688,0 C 12.373893,0 11.960645,0.17291377 11.658203,0.47851563 11.355579,0.78411398 11.1875,1.1978944 11.1875,1.6269531 V 11.425781 C 11.1875,25.214249 7.8865085,32.49997 4.9140625,39.09375 2.5459784,44.351615 0.24718826,49.460936 0,56.917969 v 0.01172 0.04297 29.826172 c 0.00166308,2.002683 0.78959703,3.9236 2.1933594,5.341797 1.4036807,1.418227 3.3105711,2.219035 5.2988281,2.220703 h 11.6249995 0.002 c 0.066,-3.9e-4 0.131566,-0.01689 0.197265,-0.02539 0.06565,0.0085 0.131273,0.025 0.197266,0.02539 h 0.002 22.810547 c 0.400911,3.75e-4 0.78946,-0.150633 1.085937,-0.419922 0.29642,-0.269235 0.481877,-0.63783 0.523438,-1.035156 l 0.167969,-1.597656 c 1.330737,1.264644 2.848852,2.313707 4.605468,2.873047 2.268179,0.722124 4.697907,0.757548 6.986328,0.103515 l -0.207031,0.0293 H 71.34375 c 0.180876,0.01394 0.34541,0.01953 0.474609,0.01953 0.197631,0.0022 0.396346,-0.01144 0.591797,-0.04102 l 0.0078,-0.002 0.0098,-0.002 c 0.399308,-0.07117 0.756937,-0.289465 1.001953,-0.611328 0.245066,-0.321868 0.361697,-0.722881 0.328125,-1.125 v -0.002 c -0.0338,-0.402243 -0.216009,-0.778333 -0.51174,-1.054547 C 72.95029,91.219824 72.561552,91.064933 72.15625,91.0625 h -0.002 -0.0039 -0.558594 c -0.889077,-0.07881 -3.593614,-0.738648 -8.011719,-3.931641 0.68987,-1.680573 1.066521,-3.478301 0.976563,-5.300781 -0.09699,-1.96485 -0.688493,-3.864109 -1.667969,-5.5625 v -8.667969 c 3.192123,-0.247314 6.494905,-1.161049 9.099609,-3.21289 2.800621,-2.206173 4.740235,-5.66958 4.740235,-10.492188 0,-2.686556 -0.837312,-7.782529 -1.683594,-12.382812 -0.846283,-4.600284 -1.709606,-8.651235 -1.779297,-8.978516 v -0.002 C 73.187524,32.170042 72.988176,31.84497 72.701131,31.611281 72.414014,31.377534 72.05432,31.248374 71.683553,31.248 H 50.867187 c -0.370762,5.61e-4 -0.730873,0.131368 -1.017578,0.365234 -0.286604,0.233936 -0.485051,0.558558 -0.5625,0.919922 -0.07437,0.34462 -0.934901,4.379168 -1.78125,8.978516 -0.846525,4.600311 -1.683593,9.696256 -1.683593,12.382812 0,4.826247 1.941421,8.290815 4.742187,10.496094 2.60484,2.051009 5.905763,2.961931 9.097656,3.208984 v 5.201172 c -1.937673,-1.489832 -4.185421,-2.523325 -6.642578,-2.652344 -2.456057,-0.128961 -4.79904,0.661442 -6.878906,1.939454 l 1.011719,-9.580079 c 0.02367,-0.225818 -9.59e-4,-0.453906 -0.07031,-0.669921 -0.0694,-0.216144 -0.182959,-0.416337 -0.333984,-0.585938 -0.151057,-0.169823 -0.335446,-0.306912 -0.542969,-0.400391 v 0.002 c -0.207551,-0.09368 -0.432466,-0.142391 -0.660156,-0.142579 h -10.94336 l -0.02344,-3.738281 c 0,-7.335264 -2.329938,-12.457077 -4.722656,-17.716797 -3.018054,-6.634217 -6.373047,-13.966404 -6.373047,-27.82617 V 1.6269531 c 0,-0.4292737 -0.168392,-0.84296756 -0.470703,-1.14843747 C 22.709277,0.17291377 22.296029,0 21.865234,0 Z m 0,1.5 h 9.060546 c 0.02941,0 0.05712,0.011958 0.08008,0.035156 0.02309,0.02333 0.03711,0.056071 0.03711,0.091797 v 9.802735 c 0,14.104605 3.489872,21.813297 6.507812,28.447265 2.392878,5.26007 4.587891,10.075582 4.587891,17.095703 v 0.002 l 0.03125,5.236328 h 12.435547 c 0.01481,2.64e-4 0.02912,0.0035 0.04297,0.0098 h 0.002 c 0.01448,0.0065 0.02752,0.01632 0.03906,0.0293 0.01158,0.013 0.01979,0.02747 0.02539,0.04492 0.0056,0.01758 0.0078,0.03631 0.0059,0.05469 l -1.349609,12.785157 1.408203,-1.138672 c 2.042132,-1.652341 4.610166,-2.486682 7.220703,-2.34961 2.610533,0.137072 5.081365,1.236149 6.943359,3.09375 l 1.279297,1.277344 V 66.255944 L 60.4454,66.224694 c -3.164729,-0.136381 -6.477596,-1.06448 -8.953125,-3.013672 -2.475528,-1.949191 -4.169921,-4.882461 -4.169921,-9.316406 0,-2.358938 0.816205,-7.535623 1.658203,-12.111328 0.841997,-4.575705 1.705398,-8.620295 1.773437,-8.935547 0.0064,-0.02964 0.02353,-0.0548 0.04492,-0.07227 0.02098,-0.01711 0.04359,-0.02692 0.06836,-0.02734 h 20.816407 c 0.02498,4.14e-4 0.04914,0.01011 0.07031,0.02734 0.02175,0.01771 0.03839,0.04203 0.04492,0.07227 0.07082,0.332604 0.929896,4.360777 1.771484,8.935547 0.841766,4.575732 1.658204,9.75239 1.658204,12.111328 0,4.429983 -1.694249,7.364256 -4.169922,9.314453 -2.475674,1.950198 -5.788684,2.879257 -8.953125,3.015625 l -0.716797,0.03125 v 10.367188 l 0.109375,0.177734 c 0.934531,1.541655 1.469421,3.297042 1.558594,5.103516 0.08917,1.806595 -0.270717,3.606223 -1.048829,5.234375 l -0.265625,0.55664 0.492188,0.367188 c 4.926519,3.68472 7.973549,4.385527 9.234375,4.496094 L 71.5,92.5625 h 0.646484 c 0.0279,1.67e-4 0.05398,0.0086 0.07617,0.0293 0.02247,0.02098 0.03819,0.05232 0.04102,0.08594 0.0023,0.03317 -0.0086,0.0652 -0.02734,0.08984 -0.01861,0.02445 -0.04187,0.0398 -0.06836,0.04492 -5.33e-4,1.03e-4 -0.0014,-9.5e-5 -0.002,0 -0.111568,0.01586 -0.225153,0.0231 -0.337891,0.02148 h -0.0059 -0.0039 c -0.112039,0 -0.240297,-0.0025 -0.392578,-0.01563 l -0.0332,-0.0039 H 55.382812 l -0.09961,0.0293 c -2.004774,0.572966 -4.131924,0.540877 -6.119141,-0.0918 -1.987237,-0.632774 -3.74751,-1.838118 -5.066406,-3.470703 L 42.957031,87.871094 42.443359,92.75 c -0.0034,0.03287 -0.01904,0.06207 -0.04102,0.08203 -0.02192,0.01991 -0.04693,0.02932 -0.07422,0.0293 H 19.521484 c -0.0092,-5.4e-5 -0.01729,-0.0019 -0.02539,-0.0039 l -0.179688,-0.04492 -0.179687,0.04492 c -0.0066,0.0016 -0.01374,0.0036 -0.02148,0.0039 H 7.4941406 7.4921875 C 5.9055518,92.859476 4.3838218,92.221642 3.2597656,91.085937 2.1351305,89.949738 1.5013369,88.408741 1.5,86.798828 V 56.972656 56.96875 C 1.7378113,49.794597 3.9131388,44.968862 6.28125,39.710937 9.253798,33.116931 12.6875,25.456285 12.6875,11.425781 V 1.6269531 c 0,-0.035941 0.01413,-0.068596 0.03711,-0.091797 C 12.747567,1.5119584 12.775283,1.5 12.804688,1.5 Z m 0.115234,0.2578125 v 0.75 l 0.002,8.7890625 h 8.824219 V 1.7578125 Z m 1.5,1.5 h 5.826172 V 9.796875 h -5.824219 z m -1.496094,8.2949215 -0.0078,0.742188 C 12.780808,25.904494 9.4761205,33.20531 6.4941406,39.822266 4.1013473,45.133751 1.9739061,49.866168 1.734375,56.960937 v 0.01367 29.824219 c 0.00172,1.538125 0.6070849,3.013798 1.6855469,4.103516 1.0785973,1.089623 2.5437827,1.705305 4.0722656,1.707031 H 19.384766 L 18.326172,82.566406 H 9.8417969 9.8398438 C 9.3000021,82.565182 8.7824104,82.348868 8.3984375,81.960937 8.0145327,81.573075 7.7961515,81.04567 7.7949219,80.494141 V 58.919922 c 3.688e-4,-0.552405 0.2191049,-1.080157 0.6035156,-1.46875 0.383985,-0.388236 0.9012599,-0.604244 1.4414063,-0.605469 H 24.958984 c 0.540468,0.0012 1.059075,0.217225 1.44336,0.605469 0.384747,0.38871 0.600824,0.917992 0.601562,1.470703 v 3.289062 H 32.875 l -0.03125,-5.234375 c 0,-6.95195 -2.152672,-11.686269 -4.564453,-16.986328 -3.029315,-6.659031 -6.388375,-14.006555 -6.527344,-27.695312 l -0.0078,-0.742188 z m 1.439453,1.5 h 5.941406 c 0.267288,13.415492 3.640121,21.031585 6.609375,27.558594 2.411815,5.300131 4.429688,9.719798 4.429688,16.365234 v 0.0039 l 0.02148,3.730468 h -2.861328 v -1.791015 c -0.0013,-0.945288 -0.373457,-1.852949 -1.037109,-2.523438 -0.663672,-0.670508 -1.566157,-1.049511 -2.507813,-1.050781 H 9.8398438 c -0.9415774,0.0013 -1.844441,0.380066 -2.5078126,1.050781 C 6.668643,57.06709 6.295553,57.974728 6.2949219,58.919922 v 21.574219 c 0.00126,0.944785 0.3738524,1.851389 1.0371093,2.521484 0.6633837,0.670221 1.5667297,1.049511 2.5078126,1.050781 h 7.1367182 l 0.740235,7.042969 H 7.4941406 7.4921875 C 6.3657245,91.107583 5.2853524,90.654229 4.4863281,89.847656 3.686792,89.039776 3.2356555,87.942348 3.234375,86.796875 v -29.804688 -0.0059 C 3.4690902,50.181429 5.4717366,45.741878 7.8613281,40.4375 10.78389,33.952392 14.101024,26.386367 14.363281,13.052734 Z m 36.583985,19.949219 -0.125,0.597656 c -0.415333,2.006092 -1.640601,7.968436 -2.46875,13.140625 l -0.09375,0.59375 0.558593,0.220703 c 4.696266,1.855518 8.62548,0.62538 12.496094,-0.597656 3.705161,-1.173197 7.307671,-2.306492 11.650391,-0.980469 l 1.162109,0.355469 -0.203125,-1.197265 C 73.119513,40.391181 72.097494,35.399661 71.716797,33.597656 L 71.589844,33.001953 H 51.560547 Z m 1.232421,1.5 h 18.181641 c 0.378027,1.804507 1.168435,5.779051 1.880859,9.830078 -4.280664,-0.939379 -7.983092,0.120066 -11.378906,1.195313 -3.682277,1.163525 -6.954816,2.123565 -10.902344,0.783203 0.77495,-4.691377 1.7799,-9.683164 2.21875,-11.808594 z m 18.22461,11.210938 c -3.240365,-0.337841 -6.146269,0.577669 -9.023438,1.486328 -2.508684,0.792489 -4.985049,1.566406 -7.642578,1.566406 -1.587749,-2.84e-4 -3.162609,-0.283963 -4.652344,-0.839844 l -0.871093,-0.324219 -0.132813,0.917969 c -0.316523,2.175597 -0.533203,4.076615 -0.533203,5.375 0,4.383324 1.808906,7.498705 4.441406,9.416016 2.6325,1.917311 6.026079,2.679687 9.28125,2.679687 3.255172,0 6.646308,-0.76241 9.279297,-2.679687 2.632989,-1.917277 4.44336,-5.032632 4.44336,-9.416016 0,-1.575032 -0.315752,-4.041625 -0.75,-6.792969 l -0.06836,-0.43164 -0.408203,-0.154297 c -1.165519,-0.437668 -2.28316,-0.690121 -3.363281,-0.802734 z m -0.177735,1.482421 c 0.83119,0.08771 1.701532,0.323443 2.591797,0.623047 0.379647,2.483092 0.675782,4.812002 0.675782,6.076172 0,3.982908 -1.540466,6.538731 -3.826172,8.203125 -2.285706,1.664395 -5.378862,2.392578 -8.396485,2.392578 -3.017622,0 -6.111289,-0.728217 -8.396484,-2.392578 -2.285195,-1.66436 -3.826172,-4.220157 -3.826172,-8.203125 0,-0.958716 0.204147,-2.641805 0.441406,-4.396484 1.385539,0.418062 2.798445,0.767319 4.248047,0.767578 2.946466,0 5.585639,-0.84441 8.09375,-1.636719 2.877426,-0.908739 5.495046,-1.739543 8.394531,-1.433594 z M 9.8378906,57.097656 C 9.3562923,57.098513 8.8945359,57.29474 8.5566406,57.636719 8.2186922,57.978753 8.03125,58.439474 8.03125,58.919922 v 21.578125 c 0,0.480478 0.187684,0.941243 0.5253906,1.283203 0.3379828,0.342067 0.7998295,0.538206 1.28125,0.539062 h 0.00195 8.4589844 l -2.107422,-19.96875 v -0.002 c -0.0016,-0.01779 3.28e-4,-0.03749 0.0059,-0.05469 0.0054,-0.01682 0.01593,-0.03177 0.02734,-0.04492 0.01161,-0.013 0.02452,-0.02277 0.03906,-0.0293 0.01481,-0.0066 0.03003,-0.0098 0.04492,-0.0098 H 26.76956 v -0.75 l 0.002,-2.541015 c 0,-0.480923 -0.188621,-0.94303 -0.527343,-1.285156 -0.33865,-0.342226 -0.801022,-0.53711 -1.283204,-0.53711 H 9.8398438 Z m 0.00195,1.5 H 24.960937 c 0.08062,0 0.157648,0.03202 0.216797,0.0918 0.05928,0.05987 0.09375,0.142792 0.09375,0.230469 l -0.002,1.791015 H 16.3105 c -0.228511,-3.75e-4 -0.452565,0.04747 -0.660156,0.140625 -0.207854,0.09327 -0.39353,0.228842 -0.544922,0.398438 h -0.002 v 0.002 c -0.150847,0.169378 -0.264362,0.36734 -0.333985,0.583984 -0.06947,0.215995 -0.09399,0.443709 -0.07031,0.669922 v 0.002 l 1.93164,18.3125 H 9.8417969 9.8398438 C 9.7597425,80.819692 9.6837645,80.78799 9.625,80.728516 9.565707,80.668476 9.53125,80.585568 9.53125,80.498047 V 58.919922 c 0,-0.08735 0.034699,-0.170704 0.09375,-0.230469 0.058851,-0.05956 0.134915,-0.09118 0.2148438,-0.0918 z m 6.6015624,3.869141 1.328125,12.601562 h 7.708985 l 0.195312,-0.449218 c 0.02482,-0.0569 0.07389,-0.09811 0.103516,-0.152344 V 75.1875 c -1.17e-4,0.01099 -0.0025,0.02179 -0.0059,0.03125 l -0.04492,0.126953 0.002,0.134766 c 0.0056,0.473338 0.193249,0.925747 0.527343,1.261718 l 5.416016,5.472657 c 0.3388,0.341015 0.801579,0.535156 1.283198,0.535156 0.481591,0 0.944399,-0.194141 1.283203,-0.535156 l 5.417969,-5.47461 c 0.337594,-0.342356 0.525391,-0.804823 0.525391,-1.285156 0,-0.480333 -0.187797,-0.940847 -0.525391,-1.283203 L 34.25,68.699219 v -0.002 c -0.167279,-0.16915 -0.366247,-0.304342 -0.585938,-0.396485 -0.220475,-0.09248 -0.458597,-0.138672 -0.697265,-0.138672 -0.238697,0 -0.475042,0.04635 -0.695313,0.138672 -0.220287,0.09216 -0.418199,0.228652 -0.585937,0.398438 l -5.419922,5.472656 -0.002,0.002 c -0.06428,0.06602 -0.08155,0.161876 -0.134766,0.236328 h -0.314453 c 0.08711,-0.147821 0.166672,-0.301864 0.287109,-0.423828 l 5.417969,-5.472656 c 0.190149,-0.192127 0.416445,-0.34557 0.664063,-0.449219 0.247577,-0.103601 0.511879,-0.15625 0.779297,-0.15625 0.267544,0 0.531886,0.05269 0.779296,0.15625 0.247641,0.103628 0.473847,0.257023 0.664063,0.449219 l 5.416016,5.474609 h 0.002 c 0.17828,0.179152 0.321558,0.390806 0.421875,0.625 l 0.193359,0.455078 h 3.632813 l 0.07227,-0.669922 1.257813,-11.93164 z m 1.666016,1.5 h 25.626953 l -1.011719,9.601562 h -1.404297 c -0.136903,-0.217578 -0.247803,-0.453658 -0.429687,-0.636718 l -0.002,-0.002 -5.414063,-5.472656 c -0.328783,-0.332204 -0.719831,-0.595218 -1.15039,-0.77539 -0.43059,-0.180238 -0.892921,-0.273438 -1.359375,-0.273438 -0.466382,0 -0.928753,0.09324 -1.359375,0.273438 -0.430382,0.180151 -0.82154,0.443118 -1.150391,0.77539 l -5.417969,5.47461 c -0.181351,0.183648 -0.294235,0.419267 -0.43164,0.636718 h -5.484375 z m 14.859375,5.695312 c 0.03953,0 0.07871,0.0081 0.115234,0.02344 h 0.002 c 0.03691,0.01544 0.07047,0.0389 0.09961,0.06836 l 5.404297,5.470703 c 0.0594,0.06024 0.09375,0.142603 0.09375,0.230469 0,0.08787 -0.03435,0.172179 -0.09375,0.232422 l -5.416016,5.470703 c -0.05942,0.0591 -0.136602,0.0918 -0.216797,0.0918 -0.08037,0 -0.157383,-0.03269 -0.216797,-0.0918 L 27.320356,75.68555 c -0.05647,-0.05678 -0.08769,-0.1356 -0.08984,-0.21875 l 0.0293,-0.107422 c 0.0146,-0.053 0.04284,-0.10043 0.08008,-0.138672 l -0.0059,0.0039 5.417969,-5.472656 c 0.02886,-0.02921 0.0627,-0.05096 0.09961,-0.06641 0.03693,-0.01548 0.07553,-0.02344 0.115235,-0.02344 z m 20.394531,2.265625 c -1.097709,-0.104719 -2.212121,-0.03485 -3.300781,0.214844 -2.177367,0.499285 -4.13924,1.689995 -5.597656,3.394531 l 0.01172,-0.01367 -0.234375,0.195313 -1.210937,11.478516 0.115234,0.208984 c 0.07193,0.128521 0.11981,0.16413 0.09961,0.140625 -8.45e-4,-9.83e-4 -0.0065,-0.01819 -0.0078,-0.01953 1.056,1.931928 2.670882,3.495802 4.648438,4.445312 2.015896,0.968079 4.286339,1.258446 6.478515,0.830078 2.192165,-0.428365 4.191008,-1.552589 5.703125,-3.208984 1.512051,-1.656332 2.459935,-3.756761 2.705078,-5.994141 C 63.016628,81.362126 62.546168,79.10378 61.429687,77.154297 60.31332,75.204825 58.60837,73.665751 56.5625,72.763672 55.539607,72.312573 54.459037,72.032454 53.361328,71.927734 Z m -0.142578,1.492188 c 0.938739,0.08956 1.862776,0.328743 2.738281,0.714844 1.751127,0.772119 3.213644,2.090347 4.171875,3.763671 0.958317,1.673314 1.361047,3.614398 1.150391,5.53711 -0.210656,1.922616 -1.023766,3.726219 -2.320313,5.146484 -1.29668,1.420402 -3.007581,2.383566 -4.882812,2.75 -1.875219,0.366432 -3.817269,0.115829 -5.542969,-0.71289 -1.680602,-0.80693 -3.052028,-2.135633 -3.958984,-3.777344 l 1.095703,-10.386719 c 1.24448,-1.425971 2.89057,-2.429051 4.724609,-2.849609 0.931338,-0.213609 1.88548,-0.275102 2.824219,-0.185547 z m -35.421875,1.902344 1.824219,17.287109 H 30.916013 42.2207 l 1.832031,-17.287109 h -3.548828 l -0.126953,0.589843 c -0.08341,0.383917 -0.274749,0.735154 -0.548828,1.011719 l -5.416016,5.474609 c -0.385163,0.387586 -0.902808,0.603516 -1.443359,0.603516 -0.539929,0 -1.058333,-0.216771 -1.443359,-0.603516 l -5.419922,-5.476562 h -0.002 C 25.827017,76.646326 25.634442,76.29516 25.548828,75.910156 l -0.130859,-0.58789 z m 1.667969,1.5 h 4.941406 c 0.177796,0.409929 0.319659,0.844192 0.638672,1.162109 l 5.414062,5.470703 h 0.002 c 0.664436,0.668613 1.566965,1.046875 2.507813,1.046875 0.940848,0 1.843377,-0.378262 2.507812,-1.046875 l 5.417969,-5.474609 c 0.314849,-0.317704 0.451805,-0.750201 0.626953,-1.158203 h 0.865235 L 40.873091,91.109375 H 30.91606 20.970747 Z m 24.917968,9.746093 c -0.02968,-0.03453 0.0059,-0.0097 0.07031,0.105469 l 0.03711,0.183594 c -0.04789,-0.103844 -0.09048,-0.26935 -0.107422,-0.289063 z m 0.173829,0.441407 0.01563,0.06445 c 0,-0.03116 -0.01506,-0.0191 -0.01758,-0.04687 z m 17.070312,0.90039 -0.443359,0.650391 c -0.697074,1.021894 -1.561842,1.913948 -2.556641,2.640625 l -1.853516,1.355469 2.294922,0.002 10.123047,0.0039 -2.623047,-1.412109 c -1.505315,-0.810465 -2.945964,-1.733925 -4.3125,-2.765625 z m 0.2793,2.027344 c 0.561946,0.407908 1.165423,0.749526 1.75,1.123047 l -2.833984,-0.002 c 0.369001,-0.368631 0.7638,-0.707693 1.083984,-1.121094 z m 10.24485,1.87406 h -0.6176 c -1.0913,-0.0957 -4.005,-0.7255 -8.8494,-4.3488 0.8319,-1.7407 1.2179,-3.6646 1.1226,-5.5953 -0.0953,-1.9306 -0.6689,-3.8061 -1.6682,-5.4546 v -9.4382 c 6.574,-0.2833 13.8396,-3.8281 13.8396,-13.0807 0,-5.0455 -3.306,-20.5456 -3.4462,-21.204 -0.0423,-0.1957 -0.1495,-0.3708 -0.3039,-0.4965 -0.1544,-0.1257 -0.3466,-0.1943 -0.5448,-0.1945 H 50.868 c -0.1981,3e-4 -0.39,0.069 -0.5441,0.1947 -0.154,0.1257 -0.2609,0.3008 -0.3028,0.4963 -0.1421,0.6584 -3.4481,16.1585 -3.4481,21.204 0,9.2602 7.2656,12.7974 13.8396,13.0807 v 7.2351 c -1.992,-1.9873 -4.6371,-3.1664 -7.4329,-3.3132 -2.7958,-0.1468 -5.5476,0.7489 -7.7328,2.517 l 1.1594,-10.9848 c 0.0128,-0.1221 0,-0.2456 -0.0375,-0.3624 -0.0375,-0.1168 -0.0989,-0.2243 -0.1802,-0.3156 -0.0813,-0.0914 -0.1806,-0.1644 -0.2916,-0.2144 -0.111,-0.0501 -0.2311,-0.076 -0.3527,-0.0761 H 33.8551 l -0.0266,-4.4885 c 0,-7.1777 -2.262,-12.1447 -4.6548,-17.4046 -3.018,-6.6341 -6.4414,-14.1545 -6.4414,-28.1367 V 1.62664 c 0,-0.2325 -0.0915,-0.45548 -0.2542,-0.61988 C 22.3154,0.84236 22.0947,0.75 21.8646,0.75 h -9.0597 c -0.2301,0 -0.4508,0.09236 -0.6135,0.25676 -0.1628,0.1644 -0.2542,0.38738 -0.2542,0.61988 v 9.80002 c 0,13.9095 -3.3666,21.382 -6.3391,27.9759 -2.3681,5.2579 -4.6056,10.2249 -4.8481,17.5405 0,0 0,0.0191 0,0.0287 v 29.8268 c 0.0015,1.8063 0.7124,3.5381 1.9766,4.8153 1.2641,1.2772 2.9783,1.9954 4.7661,1.9969 h 11.6229 c 0.0677,-4e-4 0.1351,-0.0087 0.2008,-0.0249 0.0658,0.0162 0.1332,0.0245 0.2008,0.0249 h 22.8102 c 0.2141,2e-4 0.4206,-0.0796 0.5798,-0.2242 0.1592,-0.1446 0.2597,-0.3436 0.2822,-0.5587 l 0.324,-3.0759 c 1.4106,1.7461 3.2959,3.0373 5.4236,3.7148 2.1277,0.6774 4.4051,0.7115 6.5517,0.098 h 15.8724 c 0.1781,0.0154 0.3296,0.0192 0.4566,0.0192 0.1604,0.0023 0.3207,-0.0086 0.4793,-0.0326 0.2132,-0.038 0.4047,-0.1553 0.5367,-0.3287 0.1321,-0.1735 0.1951,-0.3905 0.1769,-0.6085 -0.0183,-0.218 -0.1166,-0.4212 -0.2757,-0.5698 -0.159,-0.1485 -0.3672,-0.2315 -0.5838,-0.2328 z M 51.5613,33.75226 h 19.4209 c 0.3789,1.7935 1.4001,6.7815 2.2014,11.5073 -4.5696,-1.3953 -8.3889,-0.1914 -12.0947,0.982 -3.8705,1.223 -7.5326,2.3791 -11.9942,0.6163 0.8241,-5.1469 2.048,-11.1016 2.4629,-13.1056 z m -3.2623,20.1417 c 0,-1.2116 0.2103,-3.1046 0.5247,-5.2656 1.5734,0.5871 3.2372,0.8878 4.9145,0.8881 2.802,0 5.3596,-0.8096 7.868,-1.602 3.8364,-1.2116 7.4682,-2.3601 11.8976,-0.6968 0.432,2.7371 0.7408,5.2063 0.7408,6.6763 0,8.3663 -6.701,11.3465 -12.9738,11.3465 -6.2728,0 -12.9718,-2.9802 -12.9718,-11.3465 z m -4.9012,20.4249 h -2.4629 c -0.1375,-0.321 -0.3342,-0.6127 -0.5797,-0.8594 l -5.4165,-5.4742 c -0.2595,-0.2622 -0.5675,-0.4701 -0.9066,-0.612 -0.339,-0.1419 -0.7024,-0.2149 -1.0694,-0.2149 -0.3669,0 -0.7303,0.073 -1.0694,0.2149 -0.339,0.1419 -0.6471,0.3498 -0.9066,0.612 l -5.4183,5.4742 c -0.2447,0.2478 -0.4419,0.5392 -0.5816,0.8594 h -6.5419 l -1.1708,-11.1015 h 27.2945 z m -16.8613,0.8422 c 0.0481,-0.1746 0.1394,-0.334 0.2652,-0.4632 l 5.4165,-5.4723 c 0.0983,-0.0995 0.2151,-0.1784 0.3437,-0.2322 0.1286,-0.0539 0.2664,-0.0816 0.4056,-0.0816 0.1391,0 0.277,0.0277 0.4055,0.0816 0.1286,0.0538 0.2454,0.1327 0.3438,0.2322 l 5.4051,5.4723 c 0.1985,0.2013 0.31,0.4739 0.31,0.758 0,0.2841 -0.1115,0.5567 -0.31,0.758 l -5.4165,5.4723 c -0.1992,0.2005 -0.469,0.3132 -0.7502,0.3132 -0.2813,0 -0.5511,-0.1127 -0.7503,-0.3132 l -5.4164,-5.4723 c -0.1958,-0.1969 -0.3074,-0.4636 -0.3107,-0.7427 0.0316,-0.0884 0.0482,-0.1816 0.0492,-0.2756 0,-0.0115 0,-0.023 0,-0.0345 z m -0.5172,-13.7008 h -9.7095 c -0.1217,-2e-4 -0.2421,0.0256 -0.3533,0.0755 -0.1112,0.0499 -0.2108,0.1229 -0.2923,0.2142 -0.0814,0.0914 -0.143,0.199 -0.1806,0.316 -0.0376,0.1169 -0.0505,0.2405 -0.0377,0.3628 l 2.0196,19.1406 H 9.84 c -0.2811,-5e-4 -0.5504,-0.1136 -0.749,-0.3146 -0.1985,-0.201 -0.3101,-0.4733 -0.3101,-0.7573 v -21.5772 c 0,-0.2839 0.1116,-0.5563 0.3101,-0.7572 0.1986,-0.201 0.4679,-0.3142 0.749,-0.3147 h 15.1202 c 0.2814,0 0.5513,0.113 0.7502,0.314 0.199,0.201 0.3108,0.4736 0.3108,0.7579 z M 13.6707,2.50711 h 7.3262 v 8.03905 H 13.6726 Z M 2.4835,86.79856 v -29.8115 c 0.2349,-6.9576 2.3019,-11.5456 4.6947,-16.8571 2.982,-6.617 6.3523,-14.0971 6.4887,-27.8267 h 7.3357 c 0.1402,13.81 3.5655,21.338 6.5948,27.997 2.4118,5.3001 4.4957,9.8785 4.4957,16.6772 l 0.0266,4.4828 h -4.365 v -2.54 c -0.001,-0.749 -0.296,-1.467 -0.8202,-1.9966 -0.5242,-0.5296 -1.2348,-0.8275 -1.9762,-0.8285 H 9.84 c -0.7412,10e-4 -1.4516,0.299 -1.9755,0.8287 -0.5239,0.5296 -0.8185,1.2476 -0.819,1.9964 v 21.5734 c 0.001,0.7485 0.2958,1.466 0.8196,1.9952 0.5239,0.5293 1.2341,0.827 1.9749,0.828 h 7.8111 l 0.8999,8.5425 H 7.4927 c -1.3281,-0.0015 -2.6013,-0.5352 -3.5404,-1.4839 -0.939,-0.9488 -1.4673,-2.2351 -1.4688,-3.5769 z m 28.4331,5.0608 H 20.2959 l -1.6653,-15.7872 h 6.1856 c 0.1165,0.5239 0.3795,1.003 0.7579,1.3801 l 5.4183,5.4742 c 0.5248,0.5281 1.2353,0.8246 1.976,0.8246 0.7407,0 1.4512,-0.2965 1.976,-0.8246 l 5.4165,-5.4742 c 0.3749,-0.3783 0.6347,-0.8572 0.7483,-1.3801 h 2.1105 l -1.6728,15.7872 z m 12.9056,-4.7851 c 0,-0.0115 -0.0152,-0.0211 -0.0227,-0.0345 l 1.1537,-10.9389 c 0.0283,-0.0235 0.0549,-0.0491 0.0796,-0.0765 1.3546,-1.5832 3.175,-2.6872 5.195,-3.1504 2.02,-0.4633 4.1337,-0.2617 6.0321,0.5755 1.8985,0.8371 3.4821,2.2658 4.5194,4.0772 1.0374,1.8114 1.474,3.9105 1.2461,5.9906 -0.2279,2.08 -1.1083,4.0319 -2.5126,5.5702 -1.4044,1.5384 -3.2589,2.5826 -5.2926,2.98 -2.0337,0.3974 -4.1399,0.1271 -6.0107,-0.7713 -1.8709,-0.8983 -3.4082,-2.3778 -4.3873,-4.2219 z m 15.2472,4.7334 c 1.0641,-0.7773 1.9887,-1.7328 2.7338,-2.8251 1.397,1.0547 2.8714,2.0004 4.4104,2.829 z" />
  </g>
</svg>
