<svg viewBox="0 0 810 1000" xmlns="http://www.w3.org/2000/svg">
<path d="M404.165 876.601C400.22 876.634 396.37 877.852 393.116 880.084C389.863 882.315 387.353 885.459 385.881 889.113C384.408 892.769 384.029 896.777 384.809 900.636C385.59 904.498 387.487 908.049 390.272 910.839C393.057 913.629 396.623 915.537 400.496 916.302C404.367 917.066 408.382 916.657 412.019 915.127C415.657 913.597 418.753 911.017 420.924 907.727C423.096 904.436 424.243 900.575 424.243 896.637C424.243 894.01 423.717 891.401 422.717 888.969V888.948C421.712 886.515 420.247 884.295 418.388 882.434C416.525 880.567 414.292 879.088 411.854 878.084C409.416 877.083 406.807 876.577 404.165 876.6V876.601ZM404.289 892.432C404.815 892.427 405.339 892.537 405.835 892.741V892.72C406.331 892.924 406.79 893.242 407.175 893.627C407.563 894.015 407.869 894.471 408.082 894.987C408.294 895.503 408.412 896.07 408.412 896.636C408.412 897.483 408.166 898.317 407.711 899.007C407.254 899.699 406.61 900.224 405.876 900.532C405.139 900.842 404.345 900.912 403.567 900.759C402.793 900.606 402.063 900.225 401.485 899.646C400.906 899.065 400.498 898.33 400.331 897.502C400.164 896.673 400.245 895.805 400.558 895.028C400.872 894.25 401.397 893.589 402.063 893.132C402.729 892.675 403.497 892.438 404.289 892.431L404.289 892.432ZM404.23 884.517C401.862 884.537 399.552 885.264 397.593 886.609C395.633 887.952 394.111 889.852 393.218 892.068C392.325 894.285 392.102 896.718 392.576 899.062C393.05 901.407 394.201 903.557 395.883 905.243C397.564 906.927 399.702 908.072 402.026 908.531C404.35 908.991 406.758 908.745 408.945 907.824C411.13 906.905 412.998 905.352 414.312 903.36C415.626 901.369 416.327 899.03 416.327 896.637C416.327 895.037 416.014 893.452 415.405 891.975C414.796 890.498 413.903 889.157 412.778 888.03C411.654 886.904 410.319 886.013 408.852 885.41C407.385 884.807 405.814 884.503 404.23 884.517V884.517ZM309.591 908.221C304.701 908.217 299.922 909.672 295.863 912.406C291.803 915.14 288.653 919.011 286.793 923.537C284.933 928.063 284.449 933.039 285.391 937.843C286.333 942.644 288.651 947.081 292.091 950.561C295.531 954.04 299.93 956.419 304.727 957.384C309.523 958.351 314.519 957.849 319.032 955.962C323.545 954.075 327.381 950.892 330.081 946.809C332.781 942.728 334.224 937.935 334.224 933.04C334.224 926.486 331.637 920.178 327.03 915.519C322.424 910.861 316.144 908.229 309.591 908.221ZM309.57 924.052C309.577 924.052 309.584 924.052 309.591 924.052C311.902 924.06 314.117 924.973 315.775 926.65C317.437 928.331 318.393 930.632 318.393 933.04C318.393 934.834 317.868 936.589 316.889 938.069C315.91 939.549 314.515 940.696 312.91 941.368C311.305 942.039 309.559 942.205 307.86 941.862C306.17 941.522 304.604 940.676 303.366 939.43C302.126 938.175 301.259 936.574 300.913 934.812C300.568 933.054 300.749 931.208 301.429 929.556C302.108 927.904 303.255 926.514 304.706 925.536C306.151 924.563 307.846 924.055 309.571 924.052L309.57 924.052ZM309.589 916.131C306.278 916.128 303.04 917.116 300.286 918.971C297.53 920.827 295.382 923.466 294.113 926.556C292.843 929.645 292.509 933.045 293.152 936.326C293.796 939.608 295.388 942.622 297.727 944.989C300.067 947.355 303.05 948.968 306.296 949.621C309.544 950.276 312.909 949.942 315.969 948.663C319.028 947.384 321.643 945.217 323.482 942.436C325.322 939.655 326.305 936.384 326.305 933.04C326.305 928.559 324.544 924.261 321.41 921.091C318.275 917.921 314.024 916.137 309.589 916.131V916.131ZM245.34 844.609V860.44C247.841 860.44 250.227 861.433 252.019 863.243C253.809 865.052 254.843 867.516 254.843 870.107V870.129C254.845 872.065 254.268 873.953 253.214 875.55C252.159 877.149 250.68 878.389 248.947 879.116V879.095C247.214 879.821 245.318 880.02 243.485 879.651C241.65 879.284 239.959 878.366 238.62 877.013C237.287 875.661 236.353 873.937 235.981 872.045C235.609 870.149 235.807 868.177 236.538 866.397C237.268 864.617 238.497 863.103 240.063 862.048C241.63 860.992 243.451 860.438 245.319 860.44L245.34 844.609ZM245.34 844.609C240.308 844.603 235.394 846.104 231.22 848.917C227.046 851.729 223.794 855.718 221.882 860.378C219.969 865.035 219.467 870.155 220.439 875.096C221.41 880.037 223.827 884.588 227.365 888.165C230.906 891.741 235.437 894.184 240.372 895.173C245.3 896.159 250.414 895.653 255.049 893.71H255.07C259.709 891.764 263.654 888.471 266.428 884.269C269.202 880.067 270.68 875.143 270.674 870.107C270.674 863.367 268.016 856.902 263.274 852.112C258.533 847.322 252.076 844.609 245.34 844.609H245.34ZM245.336 852.519C241.886 852.515 238.512 853.545 235.641 855.48C232.772 857.413 230.533 860.165 229.212 863.385C227.89 866.604 227.542 870.148 228.215 873.566C228.887 876.985 230.548 880.125 232.987 882.591C235.427 885.055 238.535 886.733 241.92 887.412C245.304 888.091 248.811 887.741 251.998 886.405C255.184 885.069 257.907 882.808 259.822 879.908C261.736 877.009 262.756 873.6 262.752 870.114C262.752 865.448 260.917 860.972 257.651 857.673C254.384 854.372 249.955 852.519 245.336 852.519V852.519ZM556.394 790.355C551.847 790.355 547.486 792.201 544.294 795.426C541.104 798.65 539.327 802.995 539.327 807.526C539.327 812.056 541.104 816.422 544.294 819.646C547.487 822.872 551.849 824.696 556.394 824.696H556.332C560.167 824.723 563.378 827.168 567.03 828.201L547.922 839.538C545.921 840.651 544.175 842.166 542.769 843.97C541.36 845.772 540.317 847.826 539.718 850.03C539.116 852.236 538.97 854.532 539.264 856.791C539.559 859.056 540.304 861.248 541.449 863.223C542.594 865.196 544.114 866.914 545.943 868.293C547.766 869.667 549.858 870.666 552.086 871.221C554.31 871.776 556.608 871.87 558.867 871.509H558.889C561.146 871.146 563.3 870.335 565.237 869.118L593.457 852.483C595.05 857.288 597.248 861.962 597.023 867.077V867.14V867.181C596.885 871.703 598.536 876.104 601.62 879.425V879.446C604.706 882.768 608.995 884.719 613.534 884.867L613.679 884.888H614.07C618.528 884.89 622.807 883.115 625.985 880.003H626.006C629.172 876.901 630.972 872.693 631.118 868.274C632.006 849.571 625.86 831.219 613.844 816.926L601.723 827.109C611.181 838.358 616.05 852.848 615.328 867.615V867.677V867.759C615.317 868.131 615.158 868.47 614.916 868.707C614.675 868.944 614.395 869.058 614.091 869.058H614.07H614.049C613.744 869.048 613.458 868.91 613.225 868.666C612.988 868.411 612.842 868.055 612.854 867.677V867.78C613.337 856.813 610.687 845.94 605.206 836.448L601.207 829.522L556.909 855.659L556.827 855.722C556.687 855.809 556.531 855.861 556.373 855.887C556.216 855.912 556.07 855.904 555.92 855.866C555.773 855.829 555.625 855.763 555.487 855.659C555.357 855.561 555.229 855.427 555.136 855.268C555.045 855.11 554.996 854.938 554.971 854.752C554.946 854.561 554.944 854.373 554.993 854.196C555.041 854.017 555.133 853.839 555.24 853.701C555.346 853.565 555.49 853.451 555.632 853.371L555.714 853.33L600.094 827.028L590.303 819.957C580.432 812.827 568.608 808.95 556.456 808.867H556.415H556.394C556.082 808.867 555.79 808.761 555.549 808.517C555.305 808.271 555.157 807.905 555.157 807.528C555.157 807.151 555.305 806.805 555.549 806.559C555.791 806.313 556.084 806.188 556.394 806.188C564.407 806.191 572.337 807.812 579.728 810.949C587.119 814.087 593.813 818.68 599.434 824.472L599.538 824.575L599.62 824.657C600.04 825.063 600.749 825.913 601.661 826.987L613.74 816.742C613.013 815.886 612.057 814.713 610.792 813.464C603.707 806.164 595.255 800.342 585.912 796.376C576.571 792.41 566.532 790.362 556.394 790.357L556.394 790.355ZM607.7 821.855C606.86 820.866 606.019 819.834 605.12 818.966C598.767 812.42 591.185 807.218 582.818 803.667C574.451 800.115 565.468 798.284 556.392 798.28C553.964 798.28 551.635 799.255 549.917 800.99C548.2 802.725 547.235 805.079 547.235 807.533C547.235 809.987 548.2 812.34 549.917 814.075C551.635 815.81 553.964 816.784 556.392 816.784C566.896 816.856 577.12 820.208 585.665 826.38L551.774 846.46C550.703 847.056 549.76 847.864 549.004 848.834C548.246 849.804 547.689 850.917 547.365 852.109C547.039 853.3 546.955 854.545 547.114 855.77C547.274 856.995 547.675 858.175 548.293 859.241C548.912 860.307 549.735 861.238 550.714 861.977C551.695 862.715 552.811 863.249 553.999 863.545C555.186 863.842 556.42 863.894 557.628 863.701C558.836 863.507 559.993 863.071 561.032 862.419L598.342 840.4C603.066 848.582 605.357 857.965 604.94 867.429C604.865 869.879 605.756 872.26 607.416 874.048C609.077 875.836 611.372 876.884 613.798 876.963H614.077C616.458 876.964 618.746 876.028 620.456 874.354C622.166 872.679 623.162 870.399 623.235 867.995C624.054 851.241 618.528 834.801 607.78 822.017M135.244 0C130.698 0 126.336 1.82493 123.144 5.05026C119.95 8.27554 118.176 12.6426 118.176 17.1709V120.588C118.176 266.111 83.3378 343.005 51.9665 412.596C26.9738 468.087 2.71234 522.011 0.103516 600.712V600.836V601.29V916.075C0.121068 937.211 8.43693 957.485 23.2522 972.452C38.0667 987.42 58.192 995.872 79.1761 995.89H201.866H201.887C202.584 995.886 203.276 995.711 203.969 995.622C204.662 995.711 205.355 995.886 206.051 995.89H206.072H446.815C451.046 995.894 455.147 994.3 458.276 991.458C461.404 988.616 463.362 984.726 463.8 980.533L465.573 963.671C479.618 977.018 495.64 988.09 514.179 993.993C538.118 1001.61 563.761 1001.99 587.913 995.086L585.728 995.395H753.066C754.975 995.542 756.711 995.601 758.075 995.601C760.161 995.624 762.258 995.48 764.321 995.168L764.403 995.147L764.506 995.126C768.721 994.375 772.495 992.071 775.081 988.674C777.667 985.277 778.898 981.045 778.544 976.801V976.78C778.187 972.534 776.264 968.565 773.143 965.65C770.021 962.734 765.918 961.1 761.641 961.074H761.62H761.579H755.683C746.3 960.242 717.756 953.278 671.127 919.579C678.408 901.843 682.384 882.869 681.434 863.635C680.411 842.898 674.168 822.853 663.83 804.928V713.446C697.52 710.836 732.378 701.193 759.868 679.538C789.425 656.254 809.896 619.701 809.896 568.803C809.896 540.449 801.059 486.666 792.127 438.115C783.196 389.563 774.084 346.81 773.349 343.356V343.334C772.525 339.523 770.421 336.092 767.392 333.626C764.361 331.159 760.565 329.795 756.652 329.791H536.956C533.043 329.797 529.242 331.178 526.216 333.646C523.192 336.115 521.097 339.541 520.28 343.355C519.495 346.992 510.413 389.573 501.481 438.114C492.546 486.666 483.712 540.449 483.712 568.803C483.712 619.739 504.202 656.304 533.761 679.578C561.252 701.225 596.09 710.839 629.778 713.446V768.339C609.327 752.615 585.605 741.708 559.672 740.346C533.751 738.985 509.023 747.327 487.072 760.815L497.75 659.707C497.999 657.324 497.739 654.917 497.007 652.637C496.275 650.356 495.077 648.243 493.483 646.453C491.888 644.66 489.942 643.214 487.752 642.227V642.248C485.562 641.259 483.188 640.745 480.785 640.743H365.289L365.041 601.29C365.041 523.873 340.451 469.818 315.198 414.306C283.346 344.289 247.937 266.905 247.937 120.629V17.1709C247.937 12.6403 246.16 8.27419 242.969 5.05026C239.777 1.82493 235.416 0 230.869 0H135.244ZM135.244 15.831H230.869C231.18 15.831 231.472 15.9572 231.714 16.202C231.958 16.4483 232.106 16.7938 232.106 17.1709V120.629C232.106 269.489 268.938 350.847 300.79 420.861C326.044 476.376 349.21 527.199 349.21 601.29V601.311L349.54 656.575H480.785C480.941 656.578 481.092 656.612 481.238 656.678H481.259C481.412 656.747 481.55 656.851 481.672 656.988C481.794 657.125 481.881 657.277 481.94 657.462C481.999 657.647 482.022 657.845 482.002 658.039L467.758 792.973L482.62 780.956C504.173 763.517 531.276 754.711 558.828 756.158C586.379 757.605 612.456 769.204 632.108 788.81L645.61 802.291V699.265L638.044 698.936C604.644 697.496 569.68 687.701 543.553 667.129C517.426 646.558 499.544 615.6 499.544 568.804C499.544 543.908 508.158 489.273 517.044 440.981C525.931 392.689 535.043 350.002 535.761 346.675C535.829 346.362 536.01 346.097 536.235 345.912C536.457 345.732 536.696 345.628 536.957 345.624H756.653C756.917 345.628 757.172 345.731 757.395 345.912C757.625 346.099 757.801 346.356 757.87 346.675C758.617 350.185 767.684 392.699 776.566 440.981C785.45 489.273 794.066 543.908 794.066 568.804C794.066 615.558 776.185 646.526 750.057 667.109C723.929 687.691 688.963 697.496 655.566 698.936L648.001 699.265V808.681L649.155 810.557C659.018 826.827 664.663 845.354 665.604 864.419C666.546 883.486 662.747 902.479 654.535 919.663L651.732 925.537L656.926 929.413C708.921 968.301 741.079 975.698 754.386 976.865L754.715 976.905H761.538C761.832 976.907 762.108 976.996 762.342 977.214C762.579 977.436 762.745 977.766 762.775 978.121C762.799 978.471 762.684 978.809 762.486 979.069C762.29 979.327 762.044 979.489 761.765 979.543C761.759 979.544 761.75 979.542 761.744 979.543C760.566 979.711 759.367 979.787 758.177 979.77H758.115H758.074C756.891 979.77 755.538 979.744 753.931 979.605L753.58 979.564H584.614L583.563 979.873C562.404 985.92 539.954 985.582 518.981 978.904C498.008 972.226 479.43 959.505 465.51 942.275L453.472 927.392L448.051 978.884C448.015 979.231 447.85 979.539 447.618 979.75C447.387 979.96 447.123 980.059 446.835 980.059H206.133C206.036 980.058 205.951 980.039 205.865 980.018L203.969 979.543L202.073 980.018C202.003 980.034 201.927 980.056 201.846 980.059H79.1967H79.1761C62.4307 980.039 46.3704 973.307 34.5071 961.321C22.6377 949.33 15.9486 933.066 15.9345 916.075V601.29V601.248C18.4444 525.532 41.4028 474.601 66.3959 419.109C97.7681 349.516 134.007 268.666 134.007 120.588V17.1709C134.007 16.7915 134.157 16.4469 134.399 16.202C134.641 15.9572 134.934 15.831 135.244 15.831ZM136.46 18.552V26.4675L136.482 119.227H229.612V18.552H136.46ZM152.291 34.383H213.781V103.396H152.312L152.291 34.383ZM136.502 121.928L136.419 129.761C134.992 273.396 100.115 350.449 68.6427 420.284C43.3891 476.342 20.9361 526.288 18.4081 601.166V601.31V916.075C18.4263 932.308 24.8153 947.883 36.1974 959.384C47.5809 970.883 63.0445 977.381 79.1761 977.4H204.69L193.518 871.406H103.974H103.953C98.2558 871.393 92.7931 869.11 88.7407 865.016C84.6889 860.922 82.3841 855.356 82.3712 849.535V621.841C82.375 616.011 84.6836 610.441 88.7407 606.34C92.7932 602.242 98.2526 599.963 103.953 599.95H263.521C269.225 599.962 274.698 602.242 278.754 606.34C282.815 610.442 285.095 616.028 285.103 621.862V656.574H347.066L346.737 601.331C346.737 527.96 324.017 477.994 298.563 422.057C266.592 351.778 231.14 274.232 229.674 129.761L229.591 121.928H136.502ZM151.694 137.759H214.399C217.22 279.346 252.817 359.726 284.155 428.612C309.609 484.55 330.906 531.195 330.906 601.331V601.372L331.132 640.743H300.934V621.841C300.92 611.864 296.992 602.285 289.988 595.209C282.984 588.132 273.459 584.132 263.521 584.119H103.953C94.0159 584.132 84.487 588.13 77.4858 595.209C70.4844 602.286 66.5468 611.865 66.5401 621.841V849.535C66.5534 859.507 70.4858 869.075 77.4858 876.147C84.4872 883.221 94.0211 887.224 103.953 887.237H179.274L187.087 961.569H79.1967H79.1761C67.2874 961.55 55.8851 956.765 47.4522 948.252C39.0139 939.726 34.2526 928.144 34.2391 916.054V601.496V601.433C36.7163 529.615 57.8522 482.76 83.072 426.777C113.917 358.334 148.926 278.482 151.694 137.759ZM537.801 348.303L536.482 354.61C532.098 375.783 519.167 438.709 510.427 493.297L509.437 499.563L515.333 501.892C564.897 521.475 606.366 508.493 647.216 495.585C686.321 483.203 724.342 471.242 770.175 485.237L782.44 488.988L780.296 476.352C771.807 426.289 761.021 373.608 757.003 354.59L755.663 348.303H544.274H537.801ZM550.808 364.134H742.697C746.687 383.178 755.029 425.126 762.548 467.88C717.37 457.966 678.294 469.148 642.455 480.496C603.592 492.776 569.054 502.908 527.391 488.762C535.57 439.249 546.177 386.566 550.808 364.134ZM743.151 482.454C708.952 478.888 678.283 488.551 647.917 498.141C621.441 506.505 595.305 514.673 567.258 514.673C550.5 514.67 533.879 511.676 518.157 505.809L508.963 502.387L507.561 512.075C504.221 535.037 501.934 555.1 501.934 568.803C501.934 615.065 521.025 647.944 548.809 668.18C576.592 688.415 612.408 696.461 646.763 696.461C681.118 696.461 716.908 688.415 744.697 668.18C772.485 647.945 791.592 615.065 791.592 568.803C791.592 552.18 788.26 526.148 783.676 497.11L782.955 492.554L778.647 490.926C766.346 486.307 754.55 483.642 743.151 482.454ZM741.275 498.099C750.047 499.025 759.233 501.513 768.629 504.675C772.636 530.882 775.761 555.461 775.761 568.803C775.761 610.839 759.503 637.813 735.38 655.379C711.256 672.945 678.611 680.63 646.763 680.63C614.915 680.63 582.264 672.945 558.146 655.379C534.029 637.813 517.765 610.839 517.765 568.803C517.765 558.685 519.92 540.921 522.424 522.403C537.047 526.815 551.958 530.501 567.258 530.504C598.355 530.504 626.208 521.592 652.679 513.23C683.047 503.639 710.674 494.87 741.275 498.099ZM103.933 602.609C98.8499 602.618 93.9765 604.689 90.4103 608.298C86.8436 611.908 84.8654 616.77 84.8654 621.841V849.577C84.8654 854.648 86.8462 859.51 90.4103 863.12C93.9774 866.73 98.8517 868.8 103.933 868.809H103.953H193.229L170.988 658.059V658.037C170.971 657.85 170.991 657.642 171.05 657.46C171.107 657.283 171.218 657.125 171.338 656.986C171.461 656.849 171.597 656.746 171.751 656.677C171.907 656.607 172.068 656.574 172.225 656.574H282.63V648.658L282.651 621.84C282.651 616.764 280.66 611.887 277.085 608.277C273.511 604.665 268.631 602.608 263.542 602.608H103.953L103.933 602.609ZM103.953 618.44H263.541C264.392 618.44 265.205 618.778 265.829 619.409C266.455 620.041 266.819 620.916 266.819 621.841L266.798 640.743H172.245C169.833 640.739 167.468 641.244 165.277 642.228C163.084 643.212 161.124 644.643 159.526 646.433H159.505V646.454C157.913 648.241 156.715 650.331 155.98 652.617C155.247 654.897 154.988 657.3 155.238 659.688V659.709L175.625 852.979H103.974H103.953C103.108 852.971 102.306 852.637 101.686 852.009C101.06 851.375 100.696 850.5 100.696 849.577V621.841C100.696 620.919 101.063 620.039 101.686 619.409C102.307 618.78 103.11 618.446 103.953 618.44L103.953 618.44ZM173.626 659.275L187.643 792.272H269.004L271.065 787.531C271.327 786.93 271.845 786.495 272.158 785.923V793.529C272.156 793.645 272.131 793.759 272.095 793.859L271.621 795.199L271.642 796.621C271.702 801.617 273.682 806.391 277.208 809.937L334.369 867.696C337.944 871.295 342.829 873.344 347.912 873.344C352.994 873.344 357.879 871.295 361.454 867.696L418.636 809.917C422.199 806.303 424.181 801.423 424.181 796.353C424.181 791.284 422.199 786.423 418.636 782.81L361.578 725.052V725.031C359.813 723.245 357.713 721.819 355.394 720.846C353.067 719.87 350.554 719.383 348.035 719.383C345.516 719.383 343.022 719.872 340.697 720.846C338.372 721.819 336.283 723.259 334.513 725.051L277.311 782.81L277.29 782.831C276.611 783.528 276.429 784.539 275.868 785.325H272.549C273.468 783.765 274.308 782.139 275.579 780.852L332.76 723.093C334.767 721.066 337.155 719.446 339.769 718.352C342.382 717.259 345.171 716.703 347.994 716.703C350.817 716.703 353.607 717.259 356.218 718.352C358.832 719.446 361.219 721.065 363.227 723.093L420.387 780.873H420.408C422.29 782.763 423.802 784.997 424.861 787.469L426.902 792.272H465.242L466.005 785.201L479.28 659.275H173.626ZM191.209 675.106H461.676L450.999 776.441H436.178C434.733 774.144 433.562 771.653 431.643 769.721L431.622 769.7L374.482 711.941C371.012 708.435 366.884 705.659 362.34 703.758C357.796 701.856 352.916 700.872 347.993 700.872C343.071 700.872 338.191 701.856 333.647 703.758C329.104 705.659 324.976 708.434 321.505 711.941L264.324 769.72C262.41 771.658 261.219 774.145 259.769 776.44H201.886L191.209 675.106ZM348.035 735.214C348.452 735.214 348.866 735.3 349.251 735.461H349.272C349.662 735.624 350.016 735.872 350.324 736.183L407.361 793.921C407.988 794.557 408.35 795.426 408.35 796.353C408.35 797.28 407.988 798.17 407.361 798.806L350.2 856.544C349.573 857.168 348.758 857.513 347.912 857.513C347.064 857.513 346.251 857.168 345.624 856.544L288.443 798.785C287.847 798.186 287.517 797.354 287.494 796.477L287.804 795.343C287.958 794.784 288.256 794.283 288.649 793.88L288.587 793.921L345.768 736.162C346.072 735.854 346.43 735.624 346.819 735.461C347.209 735.298 347.616 735.214 348.035 735.214L348.035 735.214ZM563.279 759.126C551.694 758.02 539.932 758.758 528.443 761.393C505.463 766.662 484.757 779.229 469.365 797.219L469.489 797.075L467.015 799.136L454.235 920.28L455.451 922.486C456.21 923.842 456.716 924.218 456.502 923.97C456.493 923.96 456.434 923.778 456.42 923.764C467.565 944.153 484.608 960.659 505.48 970.68C526.755 980.897 550.718 983.961 573.854 979.44C596.99 974.919 618.086 963.054 634.045 945.573C650.003 928.092 660.007 905.924 662.594 882.311C665.181 858.696 660.216 834.862 648.433 814.287C636.651 793.712 618.656 777.469 597.064 767.948C586.269 763.187 574.864 760.231 563.279 759.126H563.279ZM561.774 774.874C571.682 775.819 581.434 778.344 590.674 782.419C609.156 790.567 624.591 804.48 634.704 822.14C644.818 839.8 649.069 860.287 646.845 880.579C644.622 900.87 636.041 919.906 622.357 934.895C608.672 949.886 590.615 960.051 570.824 963.919C551.033 967.786 530.536 965.141 512.323 956.395C494.586 947.878 480.112 933.855 470.54 916.529L482.104 806.907C495.238 791.857 512.611 781.271 531.968 776.832C541.797 774.578 551.867 773.929 561.774 774.874ZM187.932 794.951L207.185 977.4H326.391H445.701L465.036 794.951H427.582L426.242 801.177C425.362 805.228 423.342 808.935 420.45 811.854L363.289 869.633C359.224 873.724 353.761 876.003 348.056 876.003C342.357 876.003 336.886 873.715 332.823 869.633L275.621 811.834H275.6C272.682 808.926 270.65 805.219 269.746 801.156L268.365 794.951H187.932ZM205.536 810.782H257.687C259.564 815.109 261.061 819.692 264.428 823.047L321.568 880.785H321.589C328.601 887.842 338.127 891.834 348.056 891.834C357.986 891.834 367.511 887.842 374.524 880.785L431.705 823.006C435.028 819.653 436.473 815.088 438.322 810.782H447.454L431.478 961.569H326.392H221.429L205.536 810.782ZM468.52 913.643C468.207 913.278 468.582 913.54 469.262 914.756L469.654 916.693C469.148 915.598 468.699 913.851 468.52 913.643V913.643ZM470.354 918.301L470.519 918.982C470.519 918.653 470.36 918.78 470.334 918.487L470.354 918.301ZM650.515 927.804L645.835 934.668C638.478 945.453 629.352 954.868 618.853 962.537L599.291 976.843L623.511 976.864L730.35 976.905L702.666 962.002C686.779 953.448 671.574 943.702 657.152 932.813L650.515 927.804ZM653.462 949.201C659.393 953.506 665.762 957.111 671.932 961.053L642.022 961.032C645.916 957.142 650.083 953.563 653.462 949.2V949.201ZM761.586 968.979H755.068C743.551 967.969 712.8 961.323 661.672 923.082C670.452 904.711 674.525 884.406 673.52 864.029C672.514 843.654 666.46 823.86 655.913 806.462V706.851C725.295 703.861 801.977 666.449 801.977 568.797C801.977 515.547 767.085 351.959 765.605 345.01C765.159 342.945 764.028 341.096 762.398 339.77C760.769 338.443 758.74 337.719 756.648 337.717H536.965C534.874 337.72 532.848 338.445 531.222 339.772C529.597 341.099 528.469 342.947 528.026 345.01C526.527 351.959 491.635 515.547 491.635 568.797C491.635 666.529 568.316 703.861 637.698 706.851V783.21C616.675 762.236 588.758 749.792 559.251 748.242C529.745 746.693 500.702 756.146 477.639 774.807L489.876 658.873C490.011 657.585 489.876 656.281 489.48 655.049C489.084 653.816 488.436 652.681 487.578 651.718C486.72 650.753 485.672 649.983 484.501 649.455C483.329 648.926 482.062 648.653 480.778 648.652H357.41L357.13 601.28C357.13 525.527 333.256 473.105 308.003 417.592C276.151 347.576 240.02 268.205 240.02 120.637V17.1676C240.02 14.7138 239.055 12.3604 237.337 10.6253C235.62 8.89027 233.291 7.9155 230.863 7.9155H135.246C132.818 7.9155 130.489 8.89027 128.772 10.6253C127.053 12.3604 126.089 14.7138 126.089 17.1676V120.597C126.089 267.398 90.5577 346.263 59.1859 415.855C34.193 471.347 10.5784 523.768 8.01902 600.977C8.01902 600.977 8.01902 601.179 8.01902 601.28V916.072C8.03485 935.136 15.5377 953.413 28.8801 966.893C42.2214 980.373 60.3131 987.952 79.1815 987.968H201.85C202.564 987.964 203.275 987.876 203.969 987.705C204.663 987.876 205.375 987.964 206.088 987.968H446.827C449.087 987.97 451.266 987.128 452.946 985.602C454.626 984.076 455.687 981.976 455.925 979.705L459.344 947.242C474.232 965.671 494.129 979.298 516.585 986.448C539.041 993.598 563.076 993.958 585.731 987.483H753.249C755.128 987.645 756.727 987.685 758.068 987.685C759.761 987.71 761.452 987.595 763.126 987.341C765.376 986.94 767.398 985.702 768.791 983.872C770.185 982.041 770.85 979.751 770.658 977.45C770.464 975.149 769.427 973.005 767.748 971.436C766.07 969.869 763.872 968.993 761.586 968.979V968.979ZM544.282 356.221H749.25C753.249 375.15 764.027 427.793 772.484 477.67C724.256 462.944 683.947 475.65 644.836 488.034C603.987 500.941 565.337 513.143 518.249 494.538C526.947 440.218 539.864 377.372 544.243 356.221H544.282ZM509.851 568.797C509.851 556.01 512.071 536.031 515.389 513.224C531.995 519.42 549.554 522.594 567.257 522.597C596.829 522.597 623.822 514.052 650.296 505.689C690.785 492.902 729.115 480.781 775.863 498.335C780.422 527.223 783.681 553.283 783.681 568.797C783.681 657.095 712.959 688.548 646.756 688.548C580.553 688.548 509.851 657.095 509.851 568.797V568.797ZM458.124 784.361H432.131C430.679 780.974 428.603 777.895 426.012 775.291L368.847 717.517C366.108 714.749 362.857 712.555 359.278 711.058C355.701 709.56 351.865 708.79 347.992 708.79C344.12 708.79 340.284 709.56 336.706 711.058C333.128 712.555 329.876 714.749 327.137 717.517L269.952 775.291C267.37 777.907 265.289 780.982 263.814 784.361H194.771L182.414 667.196H470.481L458.124 784.361ZM280.17 793.25C280.677 791.407 281.641 789.725 282.969 788.361L340.135 730.607C341.172 729.557 342.405 728.724 343.762 728.156C345.119 727.587 346.574 727.295 348.043 727.295C349.511 727.295 350.966 727.587 352.322 728.156C353.68 728.724 354.912 729.557 355.951 730.607L412.996 788.361C415.091 790.486 416.268 793.363 416.268 796.361C416.268 799.36 415.091 802.237 412.996 804.361L355.83 862.116C353.728 864.232 350.881 865.421 347.913 865.421C344.944 865.421 342.096 864.232 339.994 862.116L282.829 804.361C280.763 802.283 279.585 799.468 279.55 796.523C279.884 795.59 280.059 794.606 280.07 793.614C280.07 793.493 280.07 793.371 280.07 793.25H280.17ZM274.711 648.652H172.237C170.953 648.65 169.682 648.922 168.508 649.449C167.335 649.975 166.284 650.746 165.424 651.709C164.564 652.674 163.914 653.809 163.517 655.044C163.121 656.278 162.985 657.583 163.12 658.873L184.434 860.883H103.955C100.988 860.878 98.146 859.684 96.05 857.563C93.955 855.442 92.7772 852.568 92.7772 849.57V621.845C92.7772 618.848 93.955 615.973 96.05 613.853C98.146 611.732 100.988 610.537 103.955 610.532H263.534C266.503 610.532 269.352 611.724 271.451 613.846C273.551 615.967 274.731 618.844 274.731 621.845L274.711 648.652ZM144.384 26.46H221.705V111.304H144.404L144.384 26.46ZM26.3144 916.072V601.442C28.7935 528.011 50.6086 479.589 75.8623 423.532C107.334 353.696 142.904 274.751 144.344 129.849H221.765C223.245 275.599 259.395 355.05 291.367 425.329C316.821 481.266 338.814 529.587 338.814 601.34L339.095 648.652H293.027V621.845C293.016 613.94 289.903 606.362 284.37 600.772C278.838 595.183 271.338 592.039 263.514 592.028H103.955C96.1323 592.039 88.6347 595.184 83.1055 600.775C77.5762 606.364 74.467 613.942 74.4617 621.845V849.53C74.4723 857.43 77.5836 865.002 83.1118 870.588C88.6411 876.174 96.1365 879.316 103.955 879.326H186.393L195.891 969.484H79.1815C65.1647 969.468 51.7274 963.835 41.8161 953.823C31.9059 943.809 26.3302 930.234 26.3144 916.072V916.072ZM326.397 969.484H214.307L196.731 802.866H262.014C263.243 808.395 266.019 813.451 270.013 817.431L327.197 875.206C332.736 880.78 340.235 883.909 348.052 883.909C355.869 883.909 363.368 880.78 368.907 875.206L426.073 817.431C430.029 813.439 432.771 808.384 433.97 802.866H456.244L438.59 969.484H326.397ZM462.603 918.982C462.603 918.861 462.443 918.759 462.364 918.618L474.54 803.169C474.838 802.921 475.119 802.65 475.38 802.361C489.676 785.652 508.889 774.001 530.208 769.112C551.527 764.222 573.835 766.35 593.871 775.186C613.907 784.021 630.621 799.099 641.568 818.217C652.517 837.334 657.125 859.488 654.72 881.441C652.315 903.394 643.023 923.994 628.202 940.229C613.38 956.466 593.807 967.486 572.344 971.68C550.88 975.874 528.651 973.022 508.907 963.54C489.161 954.059 472.937 938.445 462.603 918.982V918.982ZM623.522 968.938C634.753 960.735 644.511 950.65 652.375 939.122C667.119 950.253 682.679 960.234 698.922 968.979L623.522 968.938Z" fill="black"/>
</svg>
